<?xml version="1.0" encoding="utf-8" standalone="no"?>
<!DOCTYPE svg PUBLIC "-//W3C//DTD SVG 1.1//EN"
  "http://www.w3.org/Graphics/SVG/1.1/DTD/svg11.dtd">
<svg xmlns:xlink="http://www.w3.org/1999/xlink" width="2152.505625pt" height="424.9625pt" viewBox="0 0 2152.505625 424.9625" xmlns="http://www.w3.org/2000/svg" version="1.1">
 <metadata>
  <rdf:RDF xmlns:dc="http://purl.org/dc/elements/1.1/" xmlns:cc="http://creativecommons.org/ns#" xmlns:rdf="http://www.w3.org/1999/02/22-rdf-syntax-ns#">
   <cc:Work>
    <dc:type rdf:resource="http://purl.org/dc/dcmitype/StillImage"/>
    <dc:date>2023-03-28T20:49:49.723992</dc:date>
    <dc:format>image/svg+xml</dc:format>
    <dc:creator>
     <cc:Agent>
      <dc:title>Matplotlib v3.7.1, https://matplotlib.org/</dc:title>
     </cc:Agent>
    </dc:creator>
   </cc:Work>
  </rdf:RDF>
 </metadata>
 <defs>
  <style type="text/css">*{stroke-linejoin: round; stroke-linecap: butt}</style>
 </defs>
 <g id="figure_1">
  <g id="patch_1">
   <path d="M 0 424.9625 
L 2152.505625 424.9625 
L 2152.505625 0 
L 0 0 
z
" style="fill: #ffffff"/>
  </g>
  <g id="axes_1">
   <g id="patch_2">
    <path d="M 98.285625 398.7775 
L 548.998125 398.7775 
L 548.998125 22.3575 
L 98.285625 22.3575 
z
" style="fill: #ffffff"/>
   </g>
   <g id="matplotlib.axis_1">
    <g id="xtick_1">
     <g id="line2d_1">
      <defs>
       <path id="maf236382ff" d="M 0 0 
L 0 -3.5 
" style="stroke: #000000; stroke-width: 0.8"/>
      </defs>
      <g>
       <use xlink:href="#maf236382ff" x="131.576889" y="398.7775" style="stroke: #000000; stroke-width: 0.8"/>
      </g>
     </g>
     <g id="line2d_2">
      <defs>
       <path id="m0af81d59d1" d="M 0 0 
L 0 3.5 
" style="stroke: #000000; stroke-width: 0.8"/>
      </defs>
      <g>
       <use xlink:href="#m0af81d59d1" x="131.576889" y="22.3575" style="stroke: #000000; stroke-width: 0.8"/>
      </g>
     </g>
     <g id="text_1">
      <!-- −15 -->
      <g transform="translate(114.693139 414.435) scale(0.16 -0.16)">
       <defs>
        <path id="DejaVuSans-2212" d="M 678 2272 
L 4684 2272 
L 4684 1741 
L 678 1741 
L 678 2272 
z
" transform="scale(0.015625)"/>
        <path id="DejaVuSans-31" d="M 794 531 
L 1825 531 
L 1825 4091 
L 703 3866 
L 703 4441 
L 1819 4666 
L 2450 4666 
L 2450 531 
L 3481 531 
L 3481 0 
L 794 0 
L 794 531 
z
" transform="scale(0.015625)"/>
        <path id="DejaVuSans-35" d="M 691 4666 
L 3169 4666 
L 3169 4134 
L 1269 4134 
L 1269 2991 
Q 1406 3038 1543 3061 
Q 1681 3084 1819 3084 
Q 2600 3084 3056 2656 
Q 3513 2228 3513 1497 
Q 3513 744 3044 326 
Q 2575 -91 1722 -91 
Q 1428 -91 1123 -41 
Q 819 9 494 109 
L 494 744 
Q 775 591 1075 516 
Q 1375 441 1709 441 
Q 2250 441 2565 725 
Q 2881 1009 2881 1497 
Q 2881 1984 2565 2268 
Q 2250 2553 1709 2553 
Q 1456 2553 1204 2497 
Q 953 2441 691 2322 
L 691 4666 
z
" transform="scale(0.015625)"/>
       </defs>
       <use xlink:href="#DejaVuSans-2212"/>
       <use xlink:href="#DejaVuSans-31" x="83.789062"/>
       <use xlink:href="#DejaVuSans-35" x="147.412109"/>
      </g>
     </g>
    </g>
    <g id="xtick_2">
     <g id="line2d_3">
      <g>
       <use xlink:href="#maf236382ff" x="195.598551" y="398.7775" style="stroke: #000000; stroke-width: 0.8"/>
      </g>
     </g>
     <g id="line2d_4">
      <g>
       <use xlink:href="#m0af81d59d1" x="195.598551" y="22.3575" style="stroke: #000000; stroke-width: 0.8"/>
      </g>
     </g>
     <g id="text_2">
      <!-- −10 -->
      <g transform="translate(178.714801 414.435) scale(0.16 -0.16)">
       <defs>
        <path id="DejaVuSans-30" d="M 2034 4250 
Q 1547 4250 1301 3770 
Q 1056 3291 1056 2328 
Q 1056 1369 1301 889 
Q 1547 409 2034 409 
Q 2525 409 2770 889 
Q 3016 1369 3016 2328 
Q 3016 3291 2770 3770 
Q 2525 4250 2034 4250 
z
M 2034 4750 
Q 2819 4750 3233 4129 
Q 3647 3509 3647 2328 
Q 3647 1150 3233 529 
Q 2819 -91 2034 -91 
Q 1250 -91 836 529 
Q 422 1150 422 2328 
Q 422 3509 836 4129 
Q 1250 4750 2034 4750 
z
" transform="scale(0.015625)"/>
       </defs>
       <use xlink:href="#DejaVuSans-2212"/>
       <use xlink:href="#DejaVuSans-31" x="83.789062"/>
       <use xlink:href="#DejaVuSans-30" x="147.412109"/>
      </g>
     </g>
    </g>
    <g id="xtick_3">
     <g id="line2d_5">
      <g>
       <use xlink:href="#maf236382ff" x="259.620213" y="398.7775" style="stroke: #000000; stroke-width: 0.8"/>
      </g>
     </g>
     <g id="line2d_6">
      <g>
       <use xlink:href="#m0af81d59d1" x="259.620213" y="22.3575" style="stroke: #000000; stroke-width: 0.8"/>
      </g>
     </g>
     <g id="text_3">
      <!-- −5 -->
      <g transform="translate(247.826463 414.435) scale(0.16 -0.16)">
       <use xlink:href="#DejaVuSans-2212"/>
       <use xlink:href="#DejaVuSans-35" x="83.789062"/>
      </g>
     </g>
    </g>
    <g id="xtick_4">
     <g id="line2d_7">
      <g>
       <use xlink:href="#maf236382ff" x="323.641875" y="398.7775" style="stroke: #000000; stroke-width: 0.8"/>
      </g>
     </g>
     <g id="line2d_8">
      <g>
       <use xlink:href="#m0af81d59d1" x="323.641875" y="22.3575" style="stroke: #000000; stroke-width: 0.8"/>
      </g>
     </g>
     <g id="text_4">
      <!-- 0 -->
      <g transform="translate(318.551875 414.435) scale(0.16 -0.16)">
       <use xlink:href="#DejaVuSans-30"/>
      </g>
     </g>
    </g>
    <g id="xtick_5">
     <g id="line2d_9">
      <g>
       <use xlink:href="#maf236382ff" x="387.663537" y="398.7775" style="stroke: #000000; stroke-width: 0.8"/>
      </g>
     </g>
     <g id="line2d_10">
      <g>
       <use xlink:href="#m0af81d59d1" x="387.663537" y="22.3575" style="stroke: #000000; stroke-width: 0.8"/>
      </g>
     </g>
     <g id="text_5">
      <!-- 5 -->
      <g transform="translate(382.573537 414.435) scale(0.16 -0.16)">
       <use xlink:href="#DejaVuSans-35"/>
      </g>
     </g>
    </g>
    <g id="xtick_6">
     <g id="line2d_11">
      <g>
       <use xlink:href="#maf236382ff" x="451.685199" y="398.7775" style="stroke: #000000; stroke-width: 0.8"/>
      </g>
     </g>
     <g id="line2d_12">
      <g>
       <use xlink:href="#m0af81d59d1" x="451.685199" y="22.3575" style="stroke: #000000; stroke-width: 0.8"/>
      </g>
     </g>
     <g id="text_6">
      <!-- 10 -->
      <g transform="translate(441.505199 414.435) scale(0.16 -0.16)">
       <use xlink:href="#DejaVuSans-31"/>
       <use xlink:href="#DejaVuSans-30" x="63.623047"/>
      </g>
     </g>
    </g>
    <g id="xtick_7">
     <g id="line2d_13">
      <g>
       <use xlink:href="#maf236382ff" x="515.706861" y="398.7775" style="stroke: #000000; stroke-width: 0.8"/>
      </g>
     </g>
     <g id="line2d_14">
      <g>
       <use xlink:href="#m0af81d59d1" x="515.706861" y="22.3575" style="stroke: #000000; stroke-width: 0.8"/>
      </g>
     </g>
     <g id="text_7">
      <!-- 15 -->
      <g transform="translate(505.526861 414.435) scale(0.16 -0.16)">
       <use xlink:href="#DejaVuSans-31"/>
       <use xlink:href="#DejaVuSans-35" x="63.623047"/>
      </g>
     </g>
    </g>
   </g>
   <g id="matplotlib.axis_2">
    <g id="ytick_1">
     <g id="line2d_15">
      <defs>
       <path id="m97f0dedade" d="M 0 0 
L 3.5 0 
" style="stroke: #000000; stroke-width: 0.8"/>
      </defs>
      <g>
       <use xlink:href="#m97f0dedade" x="98.285625" y="391.093663" style="stroke: #000000; stroke-width: 0.8"/>
      </g>
     </g>
     <g id="line2d_16">
      <defs>
       <path id="m9d08c617d2" d="M 0 0 
L -3.5 0 
" style="stroke: #000000; stroke-width: 0.8"/>
      </defs>
      <g>
       <use xlink:href="#m9d08c617d2" x="548.998125" y="391.093663" style="stroke: #000000; stroke-width: 0.8"/>
      </g>
     </g>
     <g id="text_8">
      <!-- 0.00000 -->
      <g transform="translate(28.620625 397.172413) scale(0.16 -0.16)">
       <defs>
        <path id="DejaVuSans-2e" d="M 684 794 
L 1344 794 
L 1344 0 
L 684 0 
L 684 794 
z
" transform="scale(0.015625)"/>
       </defs>
       <use xlink:href="#DejaVuSans-30"/>
       <use xlink:href="#DejaVuSans-2e" x="63.623047"/>
       <use xlink:href="#DejaVuSans-30" x="95.410156"/>
       <use xlink:href="#DejaVuSans-30" x="159.033203"/>
       <use xlink:href="#DejaVuSans-30" x="222.65625"/>
       <use xlink:href="#DejaVuSans-30" x="286.279297"/>
       <use xlink:href="#DejaVuSans-30" x="349.902344"/>
      </g>
     </g>
    </g>
    <g id="ytick_2">
     <g id="line2d_17">
      <g>
       <use xlink:href="#m97f0dedade" x="98.285625" y="330.813762" style="stroke: #000000; stroke-width: 0.8"/>
      </g>
     </g>
     <g id="line2d_18">
      <g>
       <use xlink:href="#m9d08c617d2" x="548.998125" y="330.813762" style="stroke: #000000; stroke-width: 0.8"/>
      </g>
     </g>
     <g id="text_9">
      <!-- 0.00002 -->
      <g transform="translate(28.620625 336.892512) scale(0.16 -0.16)">
       <defs>
        <path id="DejaVuSans-32" d="M 1228 531 
L 3431 531 
L 3431 0 
L 469 0 
L 469 531 
Q 828 903 1448 1529 
Q 2069 2156 2228 2338 
Q 2531 2678 2651 2914 
Q 2772 3150 2772 3378 
Q 2772 3750 2511 3984 
Q 2250 4219 1831 4219 
Q 1534 4219 1204 4116 
Q 875 4013 500 3803 
L 500 4441 
Q 881 4594 1212 4672 
Q 1544 4750 1819 4750 
Q 2544 4750 2975 4387 
Q 3406 4025 3406 3419 
Q 3406 3131 3298 2873 
Q 3191 2616 2906 2266 
Q 2828 2175 2409 1742 
Q 1991 1309 1228 531 
z
" transform="scale(0.015625)"/>
       </defs>
       <use xlink:href="#DejaVuSans-30"/>
       <use xlink:href="#DejaVuSans-2e" x="63.623047"/>
       <use xlink:href="#DejaVuSans-30" x="95.410156"/>
       <use xlink:href="#DejaVuSans-30" x="159.033203"/>
       <use xlink:href="#DejaVuSans-30" x="222.65625"/>
       <use xlink:href="#DejaVuSans-30" x="286.279297"/>
       <use xlink:href="#DejaVuSans-32" x="349.902344"/>
      </g>
     </g>
    </g>
    <g id="ytick_3">
     <g id="line2d_19">
      <g>
       <use xlink:href="#m97f0dedade" x="98.285625" y="270.533861" style="stroke: #000000; stroke-width: 0.8"/>
      </g>
     </g>
     <g id="line2d_20">
      <g>
       <use xlink:href="#m9d08c617d2" x="548.998125" y="270.533861" style="stroke: #000000; stroke-width: 0.8"/>
      </g>
     </g>
     <g id="text_10">
      <!-- 0.00004 -->
      <g transform="translate(28.620625 276.612611) scale(0.16 -0.16)">
       <defs>
        <path id="DejaVuSans-34" d="M 2419 4116 
L 825 1625 
L 2419 1625 
L 2419 4116 
z
M 2253 4666 
L 3047 4666 
L 3047 1625 
L 3713 1625 
L 3713 1100 
L 3047 1100 
L 3047 0 
L 2419 0 
L 2419 1100 
L 313 1100 
L 313 1709 
L 2253 4666 
z
" transform="scale(0.015625)"/>
       </defs>
       <use xlink:href="#DejaVuSans-30"/>
       <use xlink:href="#DejaVuSans-2e" x="63.623047"/>
       <use xlink:href="#DejaVuSans-30" x="95.410156"/>
       <use xlink:href="#DejaVuSans-30" x="159.033203"/>
       <use xlink:href="#DejaVuSans-30" x="222.65625"/>
       <use xlink:href="#DejaVuSans-30" x="286.279297"/>
       <use xlink:href="#DejaVuSans-34" x="349.902344"/>
      </g>
     </g>
    </g>
    <g id="ytick_4">
     <g id="line2d_21">
      <g>
       <use xlink:href="#m97f0dedade" x="98.285625" y="210.253961" style="stroke: #000000; stroke-width: 0.8"/>
      </g>
     </g>
     <g id="line2d_22">
      <g>
       <use xlink:href="#m9d08c617d2" x="548.998125" y="210.253961" style="stroke: #000000; stroke-width: 0.8"/>
      </g>
     </g>
     <g id="text_11">
      <!-- 0.00006 -->
      <g transform="translate(28.620625 216.332711) scale(0.16 -0.16)">
       <defs>
        <path id="DejaVuSans-36" d="M 2113 2584 
Q 1688 2584 1439 2293 
Q 1191 2003 1191 1497 
Q 1191 994 1439 701 
Q 1688 409 2113 409 
Q 2538 409 2786 701 
Q 3034 994 3034 1497 
Q 3034 2003 2786 2293 
Q 2538 2584 2113 2584 
z
M 3366 4563 
L 3366 3988 
Q 3128 4100 2886 4159 
Q 2644 4219 2406 4219 
Q 1781 4219 1451 3797 
Q 1122 3375 1075 2522 
Q 1259 2794 1537 2939 
Q 1816 3084 2150 3084 
Q 2853 3084 3261 2657 
Q 3669 2231 3669 1497 
Q 3669 778 3244 343 
Q 2819 -91 2113 -91 
Q 1303 -91 875 529 
Q 447 1150 447 2328 
Q 447 3434 972 4092 
Q 1497 4750 2381 4750 
Q 2619 4750 2861 4703 
Q 3103 4656 3366 4563 
z
" transform="scale(0.015625)"/>
       </defs>
       <use xlink:href="#DejaVuSans-30"/>
       <use xlink:href="#DejaVuSans-2e" x="63.623047"/>
       <use xlink:href="#DejaVuSans-30" x="95.410156"/>
       <use xlink:href="#DejaVuSans-30" x="159.033203"/>
       <use xlink:href="#DejaVuSans-30" x="222.65625"/>
       <use xlink:href="#DejaVuSans-30" x="286.279297"/>
       <use xlink:href="#DejaVuSans-36" x="349.902344"/>
      </g>
     </g>
    </g>
    <g id="ytick_5">
     <g id="line2d_23">
      <g>
       <use xlink:href="#m97f0dedade" x="98.285625" y="149.97406" style="stroke: #000000; stroke-width: 0.8"/>
      </g>
     </g>
     <g id="line2d_24">
      <g>
       <use xlink:href="#m9d08c617d2" x="548.998125" y="149.97406" style="stroke: #000000; stroke-width: 0.8"/>
      </g>
     </g>
     <g id="text_12">
      <!-- 0.00008 -->
      <g transform="translate(28.620625 156.05281) scale(0.16 -0.16)">
       <defs>
        <path id="DejaVuSans-38" d="M 2034 2216 
Q 1584 2216 1326 1975 
Q 1069 1734 1069 1313 
Q 1069 891 1326 650 
Q 1584 409 2034 409 
Q 2484 409 2743 651 
Q 3003 894 3003 1313 
Q 3003 1734 2745 1975 
Q 2488 2216 2034 2216 
z
M 1403 2484 
Q 997 2584 770 2862 
Q 544 3141 544 3541 
Q 544 4100 942 4425 
Q 1341 4750 2034 4750 
Q 2731 4750 3128 4425 
Q 3525 4100 3525 3541 
Q 3525 3141 3298 2862 
Q 3072 2584 2669 2484 
Q 3125 2378 3379 2068 
Q 3634 1759 3634 1313 
Q 3634 634 3220 271 
Q 2806 -91 2034 -91 
Q 1263 -91 848 271 
Q 434 634 434 1313 
Q 434 1759 690 2068 
Q 947 2378 1403 2484 
z
M 1172 3481 
Q 1172 3119 1398 2916 
Q 1625 2713 2034 2713 
Q 2441 2713 2670 2916 
Q 2900 3119 2900 3481 
Q 2900 3844 2670 4047 
Q 2441 4250 2034 4250 
Q 1625 4250 1398 4047 
Q 1172 3844 1172 3481 
z
" transform="scale(0.015625)"/>
       </defs>
       <use xlink:href="#DejaVuSans-30"/>
       <use xlink:href="#DejaVuSans-2e" x="63.623047"/>
       <use xlink:href="#DejaVuSans-30" x="95.410156"/>
       <use xlink:href="#DejaVuSans-30" x="159.033203"/>
       <use xlink:href="#DejaVuSans-30" x="222.65625"/>
       <use xlink:href="#DejaVuSans-30" x="286.279297"/>
       <use xlink:href="#DejaVuSans-38" x="349.902344"/>
      </g>
     </g>
    </g>
    <g id="ytick_6">
     <g id="line2d_25">
      <g>
       <use xlink:href="#m97f0dedade" x="98.285625" y="89.694159" style="stroke: #000000; stroke-width: 0.8"/>
      </g>
     </g>
     <g id="line2d_26">
      <g>
       <use xlink:href="#m9d08c617d2" x="548.998125" y="89.694159" style="stroke: #000000; stroke-width: 0.8"/>
      </g>
     </g>
     <g id="text_13">
      <!-- 0.00010 -->
      <g transform="translate(28.620625 95.772909) scale(0.16 -0.16)">
       <use xlink:href="#DejaVuSans-30"/>
       <use xlink:href="#DejaVuSans-2e" x="63.623047"/>
       <use xlink:href="#DejaVuSans-30" x="95.410156"/>
       <use xlink:href="#DejaVuSans-30" x="159.033203"/>
       <use xlink:href="#DejaVuSans-30" x="222.65625"/>
       <use xlink:href="#DejaVuSans-31" x="286.279297"/>
       <use xlink:href="#DejaVuSans-30" x="349.902344"/>
      </g>
     </g>
    </g>
    <g id="ytick_7">
     <g id="line2d_27">
      <g>
       <use xlink:href="#m97f0dedade" x="98.285625" y="29.414258" style="stroke: #000000; stroke-width: 0.8"/>
      </g>
     </g>
     <g id="line2d_28">
      <g>
       <use xlink:href="#m9d08c617d2" x="548.998125" y="29.414258" style="stroke: #000000; stroke-width: 0.8"/>
      </g>
     </g>
     <g id="text_14">
      <!-- 0.00012 -->
      <g transform="translate(28.620625 35.493008) scale(0.16 -0.16)">
       <use xlink:href="#DejaVuSans-30"/>
       <use xlink:href="#DejaVuSans-2e" x="63.623047"/>
       <use xlink:href="#DejaVuSans-30" x="95.410156"/>
       <use xlink:href="#DejaVuSans-30" x="159.033203"/>
       <use xlink:href="#DejaVuSans-30" x="222.65625"/>
       <use xlink:href="#DejaVuSans-31" x="286.279297"/>
       <use xlink:href="#DejaVuSans-32" x="349.902344"/>
      </g>
     </g>
    </g>
    <g id="text_15">
     <!-- Amplitude (Arb. U.) -->
     <g transform="translate(20.877188 297.309219) rotate(-90) scale(0.18 -0.18)">
      <defs>
       <path id="DejaVuSans-41" d="M 2188 4044 
L 1331 1722 
L 3047 1722 
L 2188 4044 
z
M 1831 4666 
L 2547 4666 
L 4325 0 
L 3669 0 
L 3244 1197 
L 1141 1197 
L 716 0 
L 50 0 
L 1831 4666 
z
" transform="scale(0.015625)"/>
       <path id="DejaVuSans-6d" d="M 3328 2828 
Q 3544 3216 3844 3400 
Q 4144 3584 4550 3584 
Q 5097 3584 5394 3201 
Q 5691 2819 5691 2113 
L 5691 0 
L 5113 0 
L 5113 2094 
Q 5113 2597 4934 2840 
Q 4756 3084 4391 3084 
Q 3944 3084 3684 2787 
Q 3425 2491 3425 1978 
L 3425 0 
L 2847 0 
L 2847 2094 
Q 2847 2600 2669 2842 
Q 2491 3084 2119 3084 
Q 1678 3084 1418 2786 
Q 1159 2488 1159 1978 
L 1159 0 
L 581 0 
L 581 3500 
L 1159 3500 
L 1159 2956 
Q 1356 3278 1631 3431 
Q 1906 3584 2284 3584 
Q 2666 3584 2933 3390 
Q 3200 3197 3328 2828 
z
" transform="scale(0.015625)"/>
       <path id="DejaVuSans-70" d="M 1159 525 
L 1159 -1331 
L 581 -1331 
L 581 3500 
L 1159 3500 
L 1159 2969 
Q 1341 3281 1617 3432 
Q 1894 3584 2278 3584 
Q 2916 3584 3314 3078 
Q 3713 2572 3713 1747 
Q 3713 922 3314 415 
Q 2916 -91 2278 -91 
Q 1894 -91 1617 61 
Q 1341 213 1159 525 
z
M 3116 1747 
Q 3116 2381 2855 2742 
Q 2594 3103 2138 3103 
Q 1681 3103 1420 2742 
Q 1159 2381 1159 1747 
Q 1159 1113 1420 752 
Q 1681 391 2138 391 
Q 2594 391 2855 752 
Q 3116 1113 3116 1747 
z
" transform="scale(0.015625)"/>
       <path id="DejaVuSans-6c" d="M 603 4863 
L 1178 4863 
L 1178 0 
L 603 0 
L 603 4863 
z
" transform="scale(0.015625)"/>
       <path id="DejaVuSans-69" d="M 603 3500 
L 1178 3500 
L 1178 0 
L 603 0 
L 603 3500 
z
M 603 4863 
L 1178 4863 
L 1178 4134 
L 603 4134 
L 603 4863 
z
" transform="scale(0.015625)"/>
       <path id="DejaVuSans-74" d="M 1172 4494 
L 1172 3500 
L 2356 3500 
L 2356 3053 
L 1172 3053 
L 1172 1153 
Q 1172 725 1289 603 
Q 1406 481 1766 481 
L 2356 481 
L 2356 0 
L 1766 0 
Q 1100 0 847 248 
Q 594 497 594 1153 
L 594 3053 
L 172 3053 
L 172 3500 
L 594 3500 
L 594 4494 
L 1172 4494 
z
" transform="scale(0.015625)"/>
       <path id="DejaVuSans-75" d="M 544 1381 
L 544 3500 
L 1119 3500 
L 1119 1403 
Q 1119 906 1312 657 
Q 1506 409 1894 409 
Q 2359 409 2629 706 
Q 2900 1003 2900 1516 
L 2900 3500 
L 3475 3500 
L 3475 0 
L 2900 0 
L 2900 538 
Q 2691 219 2414 64 
Q 2138 -91 1772 -91 
Q 1169 -91 856 284 
Q 544 659 544 1381 
z
M 1991 3584 
L 1991 3584 
z
" transform="scale(0.015625)"/>
       <path id="DejaVuSans-64" d="M 2906 2969 
L 2906 4863 
L 3481 4863 
L 3481 0 
L 2906 0 
L 2906 525 
Q 2725 213 2448 61 
Q 2172 -91 1784 -91 
Q 1150 -91 751 415 
Q 353 922 353 1747 
Q 353 2572 751 3078 
Q 1150 3584 1784 3584 
Q 2172 3584 2448 3432 
Q 2725 3281 2906 2969 
z
M 947 1747 
Q 947 1113 1208 752 
Q 1469 391 1925 391 
Q 2381 391 2643 752 
Q 2906 1113 2906 1747 
Q 2906 2381 2643 2742 
Q 2381 3103 1925 3103 
Q 1469 3103 1208 2742 
Q 947 2381 947 1747 
z
" transform="scale(0.015625)"/>
       <path id="DejaVuSans-65" d="M 3597 1894 
L 3597 1613 
L 953 1613 
Q 991 1019 1311 708 
Q 1631 397 2203 397 
Q 2534 397 2845 478 
Q 3156 559 3463 722 
L 3463 178 
Q 3153 47 2828 -22 
Q 2503 -91 2169 -91 
Q 1331 -91 842 396 
Q 353 884 353 1716 
Q 353 2575 817 3079 
Q 1281 3584 2069 3584 
Q 2775 3584 3186 3129 
Q 3597 2675 3597 1894 
z
M 3022 2063 
Q 3016 2534 2758 2815 
Q 2500 3097 2075 3097 
Q 1594 3097 1305 2825 
Q 1016 2553 972 2059 
L 3022 2063 
z
" transform="scale(0.015625)"/>
       <path id="DejaVuSans-20" transform="scale(0.015625)"/>
       <path id="DejaVuSans-28" d="M 1984 4856 
Q 1566 4138 1362 3434 
Q 1159 2731 1159 2009 
Q 1159 1288 1364 580 
Q 1569 -128 1984 -844 
L 1484 -844 
Q 1016 -109 783 600 
Q 550 1309 550 2009 
Q 550 2706 781 3412 
Q 1013 4119 1484 4856 
L 1984 4856 
z
" transform="scale(0.015625)"/>
       <path id="DejaVuSans-72" d="M 2631 2963 
Q 2534 3019 2420 3045 
Q 2306 3072 2169 3072 
Q 1681 3072 1420 2755 
Q 1159 2438 1159 1844 
L 1159 0 
L 581 0 
L 581 3500 
L 1159 3500 
L 1159 2956 
Q 1341 3275 1631 3429 
Q 1922 3584 2338 3584 
Q 2397 3584 2469 3576 
Q 2541 3569 2628 3553 
L 2631 2963 
z
" transform="scale(0.015625)"/>
       <path id="DejaVuSans-62" d="M 3116 1747 
Q 3116 2381 2855 2742 
Q 2594 3103 2138 3103 
Q 1681 3103 1420 2742 
Q 1159 2381 1159 1747 
Q 1159 1113 1420 752 
Q 1681 391 2138 391 
Q 2594 391 2855 752 
Q 3116 1113 3116 1747 
z
M 1159 2969 
Q 1341 3281 1617 3432 
Q 1894 3584 2278 3584 
Q 2916 3584 3314 3078 
Q 3713 2572 3713 1747 
Q 3713 922 3314 415 
Q 2916 -91 2278 -91 
Q 1894 -91 1617 61 
Q 1341 213 1159 525 
L 1159 0 
L 581 0 
L 581 4863 
L 1159 4863 
L 1159 2969 
z
" transform="scale(0.015625)"/>
       <path id="DejaVuSans-55" d="M 556 4666 
L 1191 4666 
L 1191 1831 
Q 1191 1081 1462 751 
Q 1734 422 2344 422 
Q 2950 422 3222 751 
Q 3494 1081 3494 1831 
L 3494 4666 
L 4128 4666 
L 4128 1753 
Q 4128 841 3676 375 
Q 3225 -91 2344 -91 
Q 1459 -91 1007 375 
Q 556 841 556 1753 
L 556 4666 
z
" transform="scale(0.015625)"/>
       <path id="DejaVuSans-29" d="M 513 4856 
L 1013 4856 
Q 1481 4119 1714 3412 
Q 1947 2706 1947 2009 
Q 1947 1309 1714 600 
Q 1481 -109 1013 -844 
L 513 -844 
Q 928 -128 1133 580 
Q 1338 1288 1338 2009 
Q 1338 2731 1133 3434 
Q 928 4138 513 4856 
z
" transform="scale(0.015625)"/>
      </defs>
      <use xlink:href="#DejaVuSans-41"/>
      <use xlink:href="#DejaVuSans-6d" x="68.408203"/>
      <use xlink:href="#DejaVuSans-70" x="165.820312"/>
      <use xlink:href="#DejaVuSans-6c" x="229.296875"/>
      <use xlink:href="#DejaVuSans-69" x="257.080078"/>
      <use xlink:href="#DejaVuSans-74" x="284.863281"/>
      <use xlink:href="#DejaVuSans-75" x="324.072266"/>
      <use xlink:href="#DejaVuSans-64" x="387.451172"/>
      <use xlink:href="#DejaVuSans-65" x="450.927734"/>
      <use xlink:href="#DejaVuSans-20" x="512.451172"/>
      <use xlink:href="#DejaVuSans-28" x="544.238281"/>
      <use xlink:href="#DejaVuSans-41" x="583.251953"/>
      <use xlink:href="#DejaVuSans-72" x="651.660156"/>
      <use xlink:href="#DejaVuSans-62" x="692.773438"/>
      <use xlink:href="#DejaVuSans-2e" x="756.25"/>
      <use xlink:href="#DejaVuSans-20" x="788.037109"/>
      <use xlink:href="#DejaVuSans-55" x="819.824219"/>
      <use xlink:href="#DejaVuSans-2e" x="893.017578"/>
      <use xlink:href="#DejaVuSans-29" x="924.804688"/>
     </g>
    </g>
   </g>
   <g id="line2d_29">
    <path d="M 323.641875 141.036376 
L 332.178097 146.37538 
L 340.714319 130.544352 
L 349.25054 148.812187 
L 357.786762 125.511442 
L 366.322982 156.242495 
L 374.859205 157.628102 
L 383.395424 152.981549 
L 391.93165 169.789085 
L 400.467869 203.454815 
L 409.004089 215.137391 
L 417.540315 228.700659 
L 426.076534 280.048065 
L 434.61276 337.525458 
L 443.148973 381.630509 
L 451.685199 379.483667 
L 460.221425 298.815743 
L 468.757638 277.91311 
L 477.293864 247.244073 
L 485.830089 230.32497 
L 494.366303 179.894686 
L 502.902528 148.532868 
L 511.438754 136.182258 
L 519.974968 124.854252 
L 528.511193 105.216337 
L 519.974968 128.624911 
L 511.438754 102.54848 
L 502.902528 103.057315 
L 494.366303 108.127681 
L 485.830089 116.878179 
L 477.293864 114.006266 
L 468.757638 115.065207 
L 460.221425 109.424493 
L 451.685199 111.177444 
L 443.148973 131.003187 
L 434.61276 127.862656 
L 426.076534 126.213192 
L 417.540315 122.337841 
L 409.004089 120.782631 
L 400.467869 128.912146 
L 391.93165 131.009393 
L 383.395424 150.604962 
L 374.859205 142.669502 
L 366.322982 143.49862 
L 357.786762 144.949774 
L 349.25054 146.10332 
L 340.714319 141.569552 
L 332.178097 144.29616 
L 323.641875 164.799201 
L 315.105653 159.161075 
L 306.569431 160.324117 
L 298.03321 193.095642 
L 289.496988 199.382229 
L 280.960768 211.069706 
L 272.424545 229.085076 
L 263.888326 256.630314 
L 255.3521 295.075074 
L 246.815881 381.272138 
L 229.743435 262.397343 
L 221.207216 204.705905 
L 212.67099 139.134456 
L 204.134777 118.708278 
L 195.598551 84.938317 
L 187.062325 75.010456 
L 178.526112 54.227241 
L 169.989886 39.4675 
L 161.453661 54.711471 
L 152.917447 43.685415 
L 144.381222 54.448336 
L 135.844996 51.407783 
L 127.308782 63.478943 
L 118.772557 60.4951 
L 127.308782 83.949791 
L 135.844996 84.272202 
L 144.381222 77.324763 
L 152.917447 60.635209 
L 161.453661 75.582317 
L 169.989886 73.603447 
L 178.526112 61.268539 
L 187.062325 76.520009 
L 195.598551 64.30578 
L 204.134777 64.050672 
L 212.67099 78.618221 
L 221.207216 73.604609 
L 229.743435 82.423221 
L 238.279661 82.407892 
L 246.815881 97.784143 
L 255.3521 99.443607 
L 263.888326 93.443729 
L 272.424545 93.575504 
L 280.960768 108.369192 
L 289.496988 107.945993 
L 298.03321 98.123198 
L 306.569431 114.868147 
L 315.105653 107.303782 
L 323.641875 99.293389 
L 332.178097 109.778066 
L 340.714319 118.970931 
L 349.25054 110.1612 
L 357.786762 133.870342 
L 366.322982 132.168509 
L 374.859205 125.986154 
L 383.395424 168.92648 
L 391.93165 175.304602 
L 400.467869 175.436729 
L 409.004089 196.784546 
L 417.540315 281.065285 
L 426.076534 315.532019 
L 434.61276 380.519998 
L 443.148973 381.6675 
L 451.685199 340.612233 
L 460.221425 284.178776 
L 468.757638 258.388944 
L 477.293864 206.748283 
L 485.830089 196.057445 
L 494.366303 182.347676 
L 502.902528 159.240834 
L 511.438754 135.185795 
L 519.974968 117.958217 
L 528.511193 107.042226 
L 519.974968 90.042674 
L 511.438754 109.395875 
L 502.902528 93.29237 
L 494.366303 105.908154 
L 485.830089 84.080251 
L 477.293864 100.934344 
L 468.757638 104.204655 
L 460.221425 105.655063 
L 451.685199 109.175416 
L 443.148973 114.276067 
L 434.61276 108.448688 
L 426.076534 124.508268 
L 417.540315 101.519933 
L 409.004089 114.071814 
L 400.467869 123.532615 
L 391.93165 116.859078 
L 383.395424 132.875325 
L 374.859205 131.552482 
L 366.322982 131.878818 
L 357.786762 131.899015 
L 349.25054 149.607906 
L 340.714319 140.385327 
L 332.178097 149.22793 
L 323.641875 149.300495 
L 315.105653 157.774263 
L 306.569431 173.421345 
L 298.03321 179.131642 
L 289.496988 176.509398 
L 280.960768 217.170417 
L 272.424545 225.366072 
L 263.888326 255.482689 
L 255.3521 301.933166 
L 246.815881 380.672111 
L 238.279661 331.172281 
L 229.743435 253.38474 
L 221.207216 208.105699 
L 212.67099 139.309587 
L 204.134777 115.710708 
L 195.598551 92.815969 
L 187.062325 87.769265 
L 178.526112 62.309827 
L 169.989886 49.825292 
L 161.453661 58.350638 
L 152.917447 43.89037 
L 144.381222 49.018389 
L 135.844996 56.564662 
L 127.308782 59.488286 
L 118.772557 59.284778 
L 127.308782 65.907942 
L 135.844996 64.749593 
L 144.381222 56.849814 
L 152.917447 62.43737 
L 161.453661 66.341273 
L 169.989886 61.398406 
L 178.526112 69.400313 
L 187.062325 81.588708 
L 195.598551 84.231698 
L 204.134777 66.99594 
L 212.67099 65.413208 
L 221.207216 70.584297 
L 229.743435 76.991761 
L 238.279661 88.225447 
L 246.815881 75.956372 
L 255.3521 79.285585 
L 263.888326 91.283478 
L 272.424545 89.244915 
L 280.960768 101.045462 
L 289.496988 104.89487 
L 298.03321 97.355308 
L 306.569431 104.912326 
L 315.105653 108.951601 
L 315.105653 108.951601 
" clip-path="url(#p0f4befbc1a)" style="fill: none; stroke: #1f77b4; stroke-width: 1.5; stroke-linecap: square"/>
   </g>
   <g id="patch_3">
    <path d="M 98.285625 398.7775 
L 98.285625 22.3575 
" style="fill: none; stroke: #000000; stroke-width: 0.8; stroke-linejoin: miter; stroke-linecap: square"/>
   </g>
   <g id="patch_4">
    <path d="M 548.998125 398.7775 
L 548.998125 22.3575 
" style="fill: none; stroke: #000000; stroke-width: 0.8; stroke-linejoin: miter; stroke-linecap: square"/>
   </g>
   <g id="patch_5">
    <path d="M 98.285625 398.7775 
L 548.998125 398.7775 
" style="fill: none; stroke: #000000; stroke-width: 0.8; stroke-linejoin: miter; stroke-linecap: square"/>
   </g>
   <g id="patch_6">
    <path d="M 98.285625 22.3575 
L 548.998125 22.3575 
" style="fill: none; stroke: #000000; stroke-width: 0.8; stroke-linejoin: miter; stroke-linecap: square"/>
   </g>
   <g id="text_16">
    <!-- Amplitude -->
    <g transform="translate(292.894688 16.3575) scale(0.12 -0.12)">
     <use xlink:href="#DejaVuSans-41"/>
     <use xlink:href="#DejaVuSans-6d" x="68.408203"/>
     <use xlink:href="#DejaVuSans-70" x="165.820312"/>
     <use xlink:href="#DejaVuSans-6c" x="229.296875"/>
     <use xlink:href="#DejaVuSans-69" x="257.080078"/>
     <use xlink:href="#DejaVuSans-74" x="284.863281"/>
     <use xlink:href="#DejaVuSans-75" x="324.072266"/>
     <use xlink:href="#DejaVuSans-64" x="387.451172"/>
     <use xlink:href="#DejaVuSans-65" x="450.927734"/>
    </g>
   </g>
  </g>
  <g id="axes_2">
   <g id="patch_7">
    <path d="M 630.388125 398.7775 
L 1081.100625 398.7775 
L 1081.100625 22.3575 
L 630.388125 22.3575 
z
" style="fill: #ffffff"/>
   </g>
   <g id="matplotlib.axis_3">
    <g id="xtick_8">
     <g id="line2d_30">
      <g>
       <use xlink:href="#maf236382ff" x="663.679389" y="398.7775" style="stroke: #000000; stroke-width: 0.8"/>
      </g>
     </g>
     <g id="line2d_31">
      <g>
       <use xlink:href="#m0af81d59d1" x="663.679389" y="22.3575" style="stroke: #000000; stroke-width: 0.8"/>
      </g>
     </g>
     <g id="text_17">
      <!-- −15 -->
      <g transform="translate(646.795639 414.435) scale(0.16 -0.16)">
       <use xlink:href="#DejaVuSans-2212"/>
       <use xlink:href="#DejaVuSans-31" x="83.789062"/>
       <use xlink:href="#DejaVuSans-35" x="147.412109"/>
      </g>
     </g>
    </g>
    <g id="xtick_9">
     <g id="line2d_32">
      <g>
       <use xlink:href="#maf236382ff" x="727.701051" y="398.7775" style="stroke: #000000; stroke-width: 0.8"/>
      </g>
     </g>
     <g id="line2d_33">
      <g>
       <use xlink:href="#m0af81d59d1" x="727.701051" y="22.3575" style="stroke: #000000; stroke-width: 0.8"/>
      </g>
     </g>
     <g id="text_18">
      <!-- −10 -->
      <g transform="translate(710.817301 414.435) scale(0.16 -0.16)">
       <use xlink:href="#DejaVuSans-2212"/>
       <use xlink:href="#DejaVuSans-31" x="83.789062"/>
       <use xlink:href="#DejaVuSans-30" x="147.412109"/>
      </g>
     </g>
    </g>
    <g id="xtick_10">
     <g id="line2d_34">
      <g>
       <use xlink:href="#maf236382ff" x="791.722713" y="398.7775" style="stroke: #000000; stroke-width: 0.8"/>
      </g>
     </g>
     <g id="line2d_35">
      <g>
       <use xlink:href="#m0af81d59d1" x="791.722713" y="22.3575" style="stroke: #000000; stroke-width: 0.8"/>
      </g>
     </g>
     <g id="text_19">
      <!-- −5 -->
      <g transform="translate(779.928963 414.435) scale(0.16 -0.16)">
       <use xlink:href="#DejaVuSans-2212"/>
       <use xlink:href="#DejaVuSans-35" x="83.789062"/>
      </g>
     </g>
    </g>
    <g id="xtick_11">
     <g id="line2d_36">
      <g>
       <use xlink:href="#maf236382ff" x="855.744375" y="398.7775" style="stroke: #000000; stroke-width: 0.8"/>
      </g>
     </g>
     <g id="line2d_37">
      <g>
       <use xlink:href="#m0af81d59d1" x="855.744375" y="22.3575" style="stroke: #000000; stroke-width: 0.8"/>
      </g>
     </g>
     <g id="text_20">
      <!-- 0 -->
      <g transform="translate(850.654375 414.435) scale(0.16 -0.16)">
       <use xlink:href="#DejaVuSans-30"/>
      </g>
     </g>
    </g>
    <g id="xtick_12">
     <g id="line2d_38">
      <g>
       <use xlink:href="#maf236382ff" x="919.766037" y="398.7775" style="stroke: #000000; stroke-width: 0.8"/>
      </g>
     </g>
     <g id="line2d_39">
      <g>
       <use xlink:href="#m0af81d59d1" x="919.766037" y="22.3575" style="stroke: #000000; stroke-width: 0.8"/>
      </g>
     </g>
     <g id="text_21">
      <!-- 5 -->
      <g transform="translate(914.676037 414.435) scale(0.16 -0.16)">
       <use xlink:href="#DejaVuSans-35"/>
      </g>
     </g>
    </g>
    <g id="xtick_13">
     <g id="line2d_40">
      <g>
       <use xlink:href="#maf236382ff" x="983.787699" y="398.7775" style="stroke: #000000; stroke-width: 0.8"/>
      </g>
     </g>
     <g id="line2d_41">
      <g>
       <use xlink:href="#m0af81d59d1" x="983.787699" y="22.3575" style="stroke: #000000; stroke-width: 0.8"/>
      </g>
     </g>
     <g id="text_22">
      <!-- 10 -->
      <g transform="translate(973.607699 414.435) scale(0.16 -0.16)">
       <use xlink:href="#DejaVuSans-31"/>
       <use xlink:href="#DejaVuSans-30" x="63.623047"/>
      </g>
     </g>
    </g>
    <g id="xtick_14">
     <g id="line2d_42">
      <g>
       <use xlink:href="#maf236382ff" x="1047.809361" y="398.7775" style="stroke: #000000; stroke-width: 0.8"/>
      </g>
     </g>
     <g id="line2d_43">
      <g>
       <use xlink:href="#m0af81d59d1" x="1047.809361" y="22.3575" style="stroke: #000000; stroke-width: 0.8"/>
      </g>
     </g>
     <g id="text_23">
      <!-- 15 -->
      <g transform="translate(1037.629361 414.435) scale(0.16 -0.16)">
       <use xlink:href="#DejaVuSans-31"/>
       <use xlink:href="#DejaVuSans-35" x="63.623047"/>
      </g>
     </g>
    </g>
   </g>
   <g id="matplotlib.axis_4">
    <g id="ytick_8">
     <g id="line2d_44">
      <g>
       <use xlink:href="#m97f0dedade" x="630.388125" y="368.618513" style="stroke: #000000; stroke-width: 0.8"/>
      </g>
     </g>
     <g id="line2d_45">
      <g>
       <use xlink:href="#m9d08c617d2" x="1081.100625" y="368.618513" style="stroke: #000000; stroke-width: 0.8"/>
      </g>
     </g>
     <g id="text_24">
      <!-- 1.310 -->
      <g transform="translate(581.083125 374.697263) scale(0.16 -0.16)">
       <defs>
        <path id="DejaVuSans-33" d="M 2597 2516 
Q 3050 2419 3304 2112 
Q 3559 1806 3559 1356 
Q 3559 666 3084 287 
Q 2609 -91 1734 -91 
Q 1441 -91 1130 -33 
Q 819 25 488 141 
L 488 750 
Q 750 597 1062 519 
Q 1375 441 1716 441 
Q 2309 441 2620 675 
Q 2931 909 2931 1356 
Q 2931 1769 2642 2001 
Q 2353 2234 1838 2234 
L 1294 2234 
L 1294 2753 
L 1863 2753 
Q 2328 2753 2575 2939 
Q 2822 3125 2822 3475 
Q 2822 3834 2567 4026 
Q 2313 4219 1838 4219 
Q 1578 4219 1281 4162 
Q 984 4106 628 3988 
L 628 4550 
Q 988 4650 1302 4700 
Q 1616 4750 1894 4750 
Q 2613 4750 3031 4423 
Q 3450 4097 3450 3541 
Q 3450 3153 3228 2886 
Q 3006 2619 2597 2516 
z
" transform="scale(0.015625)"/>
       </defs>
       <use xlink:href="#DejaVuSans-31"/>
       <use xlink:href="#DejaVuSans-2e" x="63.623047"/>
       <use xlink:href="#DejaVuSans-33" x="95.410156"/>
       <use xlink:href="#DejaVuSans-31" x="159.033203"/>
       <use xlink:href="#DejaVuSans-30" x="222.65625"/>
      </g>
     </g>
    </g>
    <g id="ytick_9">
     <g id="line2d_46">
      <g>
       <use xlink:href="#m97f0dedade" x="630.388125" y="307.890244" style="stroke: #000000; stroke-width: 0.8"/>
      </g>
     </g>
     <g id="line2d_47">
      <g>
       <use xlink:href="#m9d08c617d2" x="1081.100625" y="307.890244" style="stroke: #000000; stroke-width: 0.8"/>
      </g>
     </g>
     <g id="text_25">
      <!-- 1.312 -->
      <g transform="translate(581.083125 313.968994) scale(0.16 -0.16)">
       <use xlink:href="#DejaVuSans-31"/>
       <use xlink:href="#DejaVuSans-2e" x="63.623047"/>
       <use xlink:href="#DejaVuSans-33" x="95.410156"/>
       <use xlink:href="#DejaVuSans-31" x="159.033203"/>
       <use xlink:href="#DejaVuSans-32" x="222.65625"/>
      </g>
     </g>
    </g>
    <g id="ytick_10">
     <g id="line2d_48">
      <g>
       <use xlink:href="#m97f0dedade" x="630.388125" y="247.161975" style="stroke: #000000; stroke-width: 0.8"/>
      </g>
     </g>
     <g id="line2d_49">
      <g>
       <use xlink:href="#m9d08c617d2" x="1081.100625" y="247.161975" style="stroke: #000000; stroke-width: 0.8"/>
      </g>
     </g>
     <g id="text_26">
      <!-- 1.314 -->
      <g transform="translate(581.083125 253.240725) scale(0.16 -0.16)">
       <use xlink:href="#DejaVuSans-31"/>
       <use xlink:href="#DejaVuSans-2e" x="63.623047"/>
       <use xlink:href="#DejaVuSans-33" x="95.410156"/>
       <use xlink:href="#DejaVuSans-31" x="159.033203"/>
       <use xlink:href="#DejaVuSans-34" x="222.65625"/>
      </g>
     </g>
    </g>
    <g id="ytick_11">
     <g id="line2d_50">
      <g>
       <use xlink:href="#m97f0dedade" x="630.388125" y="186.433706" style="stroke: #000000; stroke-width: 0.8"/>
      </g>
     </g>
     <g id="line2d_51">
      <g>
       <use xlink:href="#m9d08c617d2" x="1081.100625" y="186.433706" style="stroke: #000000; stroke-width: 0.8"/>
      </g>
     </g>
     <g id="text_27">
      <!-- 1.316 -->
      <g transform="translate(581.083125 192.512456) scale(0.16 -0.16)">
       <use xlink:href="#DejaVuSans-31"/>
       <use xlink:href="#DejaVuSans-2e" x="63.623047"/>
       <use xlink:href="#DejaVuSans-33" x="95.410156"/>
       <use xlink:href="#DejaVuSans-31" x="159.033203"/>
       <use xlink:href="#DejaVuSans-36" x="222.65625"/>
      </g>
     </g>
    </g>
    <g id="ytick_12">
     <g id="line2d_52">
      <g>
       <use xlink:href="#m97f0dedade" x="630.388125" y="125.705437" style="stroke: #000000; stroke-width: 0.8"/>
      </g>
     </g>
     <g id="line2d_53">
      <g>
       <use xlink:href="#m9d08c617d2" x="1081.100625" y="125.705437" style="stroke: #000000; stroke-width: 0.8"/>
      </g>
     </g>
     <g id="text_28">
      <!-- 1.318 -->
      <g transform="translate(581.083125 131.784187) scale(0.16 -0.16)">
       <use xlink:href="#DejaVuSans-31"/>
       <use xlink:href="#DejaVuSans-2e" x="63.623047"/>
       <use xlink:href="#DejaVuSans-33" x="95.410156"/>
       <use xlink:href="#DejaVuSans-31" x="159.033203"/>
       <use xlink:href="#DejaVuSans-38" x="222.65625"/>
      </g>
     </g>
    </g>
    <g id="ytick_13">
     <g id="line2d_54">
      <g>
       <use xlink:href="#m97f0dedade" x="630.388125" y="64.977168" style="stroke: #000000; stroke-width: 0.8"/>
      </g>
     </g>
     <g id="line2d_55">
      <g>
       <use xlink:href="#m9d08c617d2" x="1081.100625" y="64.977168" style="stroke: #000000; stroke-width: 0.8"/>
      </g>
     </g>
     <g id="text_29">
      <!-- 1.320 -->
      <g transform="translate(581.083125 71.055918) scale(0.16 -0.16)">
       <use xlink:href="#DejaVuSans-31"/>
       <use xlink:href="#DejaVuSans-2e" x="63.623047"/>
       <use xlink:href="#DejaVuSans-33" x="95.410156"/>
       <use xlink:href="#DejaVuSans-32" x="159.033203"/>
       <use xlink:href="#DejaVuSans-30" x="222.65625"/>
      </g>
     </g>
    </g>
    <g id="text_30">
     <!-- Resonance Frequency (Hz) -->
     <g transform="translate(573.339687 330.287187) rotate(-90) scale(0.18 -0.18)">
      <defs>
       <path id="DejaVuSans-52" d="M 2841 2188 
Q 3044 2119 3236 1894 
Q 3428 1669 3622 1275 
L 4263 0 
L 3584 0 
L 2988 1197 
Q 2756 1666 2539 1819 
Q 2322 1972 1947 1972 
L 1259 1972 
L 1259 0 
L 628 0 
L 628 4666 
L 2053 4666 
Q 2853 4666 3247 4331 
Q 3641 3997 3641 3322 
Q 3641 2881 3436 2590 
Q 3231 2300 2841 2188 
z
M 1259 4147 
L 1259 2491 
L 2053 2491 
Q 2509 2491 2742 2702 
Q 2975 2913 2975 3322 
Q 2975 3731 2742 3939 
Q 2509 4147 2053 4147 
L 1259 4147 
z
" transform="scale(0.015625)"/>
       <path id="DejaVuSans-73" d="M 2834 3397 
L 2834 2853 
Q 2591 2978 2328 3040 
Q 2066 3103 1784 3103 
Q 1356 3103 1142 2972 
Q 928 2841 928 2578 
Q 928 2378 1081 2264 
Q 1234 2150 1697 2047 
L 1894 2003 
Q 2506 1872 2764 1633 
Q 3022 1394 3022 966 
Q 3022 478 2636 193 
Q 2250 -91 1575 -91 
Q 1294 -91 989 -36 
Q 684 19 347 128 
L 347 722 
Q 666 556 975 473 
Q 1284 391 1588 391 
Q 1994 391 2212 530 
Q 2431 669 2431 922 
Q 2431 1156 2273 1281 
Q 2116 1406 1581 1522 
L 1381 1569 
Q 847 1681 609 1914 
Q 372 2147 372 2553 
Q 372 3047 722 3315 
Q 1072 3584 1716 3584 
Q 2034 3584 2315 3537 
Q 2597 3491 2834 3397 
z
" transform="scale(0.015625)"/>
       <path id="DejaVuSans-6f" d="M 1959 3097 
Q 1497 3097 1228 2736 
Q 959 2375 959 1747 
Q 959 1119 1226 758 
Q 1494 397 1959 397 
Q 2419 397 2687 759 
Q 2956 1122 2956 1747 
Q 2956 2369 2687 2733 
Q 2419 3097 1959 3097 
z
M 1959 3584 
Q 2709 3584 3137 3096 
Q 3566 2609 3566 1747 
Q 3566 888 3137 398 
Q 2709 -91 1959 -91 
Q 1206 -91 779 398 
Q 353 888 353 1747 
Q 353 2609 779 3096 
Q 1206 3584 1959 3584 
z
" transform="scale(0.015625)"/>
       <path id="DejaVuSans-6e" d="M 3513 2113 
L 3513 0 
L 2938 0 
L 2938 2094 
Q 2938 2591 2744 2837 
Q 2550 3084 2163 3084 
Q 1697 3084 1428 2787 
Q 1159 2491 1159 1978 
L 1159 0 
L 581 0 
L 581 3500 
L 1159 3500 
L 1159 2956 
Q 1366 3272 1645 3428 
Q 1925 3584 2291 3584 
Q 2894 3584 3203 3211 
Q 3513 2838 3513 2113 
z
" transform="scale(0.015625)"/>
       <path id="DejaVuSans-61" d="M 2194 1759 
Q 1497 1759 1228 1600 
Q 959 1441 959 1056 
Q 959 750 1161 570 
Q 1363 391 1709 391 
Q 2188 391 2477 730 
Q 2766 1069 2766 1631 
L 2766 1759 
L 2194 1759 
z
M 3341 1997 
L 3341 0 
L 2766 0 
L 2766 531 
Q 2569 213 2275 61 
Q 1981 -91 1556 -91 
Q 1019 -91 701 211 
Q 384 513 384 1019 
Q 384 1609 779 1909 
Q 1175 2209 1959 2209 
L 2766 2209 
L 2766 2266 
Q 2766 2663 2505 2880 
Q 2244 3097 1772 3097 
Q 1472 3097 1187 3025 
Q 903 2953 641 2809 
L 641 3341 
Q 956 3463 1253 3523 
Q 1550 3584 1831 3584 
Q 2591 3584 2966 3190 
Q 3341 2797 3341 1997 
z
" transform="scale(0.015625)"/>
       <path id="DejaVuSans-63" d="M 3122 3366 
L 3122 2828 
Q 2878 2963 2633 3030 
Q 2388 3097 2138 3097 
Q 1578 3097 1268 2742 
Q 959 2388 959 1747 
Q 959 1106 1268 751 
Q 1578 397 2138 397 
Q 2388 397 2633 464 
Q 2878 531 3122 666 
L 3122 134 
Q 2881 22 2623 -34 
Q 2366 -91 2075 -91 
Q 1284 -91 818 406 
Q 353 903 353 1747 
Q 353 2603 823 3093 
Q 1294 3584 2113 3584 
Q 2378 3584 2631 3529 
Q 2884 3475 3122 3366 
z
" transform="scale(0.015625)"/>
       <path id="DejaVuSans-46" d="M 628 4666 
L 3309 4666 
L 3309 4134 
L 1259 4134 
L 1259 2759 
L 3109 2759 
L 3109 2228 
L 1259 2228 
L 1259 0 
L 628 0 
L 628 4666 
z
" transform="scale(0.015625)"/>
       <path id="DejaVuSans-71" d="M 947 1747 
Q 947 1113 1208 752 
Q 1469 391 1925 391 
Q 2381 391 2643 752 
Q 2906 1113 2906 1747 
Q 2906 2381 2643 2742 
Q 2381 3103 1925 3103 
Q 1469 3103 1208 2742 
Q 947 2381 947 1747 
z
M 2906 525 
Q 2725 213 2448 61 
Q 2172 -91 1784 -91 
Q 1150 -91 751 415 
Q 353 922 353 1747 
Q 353 2572 751 3078 
Q 1150 3584 1784 3584 
Q 2172 3584 2448 3432 
Q 2725 3281 2906 2969 
L 2906 3500 
L 3481 3500 
L 3481 -1331 
L 2906 -1331 
L 2906 525 
z
" transform="scale(0.015625)"/>
       <path id="DejaVuSans-79" d="M 2059 -325 
Q 1816 -950 1584 -1140 
Q 1353 -1331 966 -1331 
L 506 -1331 
L 506 -850 
L 844 -850 
Q 1081 -850 1212 -737 
Q 1344 -625 1503 -206 
L 1606 56 
L 191 3500 
L 800 3500 
L 1894 763 
L 2988 3500 
L 3597 3500 
L 2059 -325 
z
" transform="scale(0.015625)"/>
       <path id="DejaVuSans-48" d="M 628 4666 
L 1259 4666 
L 1259 2753 
L 3553 2753 
L 3553 4666 
L 4184 4666 
L 4184 0 
L 3553 0 
L 3553 2222 
L 1259 2222 
L 1259 0 
L 628 0 
L 628 4666 
z
" transform="scale(0.015625)"/>
       <path id="DejaVuSans-7a" d="M 353 3500 
L 3084 3500 
L 3084 2975 
L 922 459 
L 3084 459 
L 3084 0 
L 275 0 
L 275 525 
L 2438 3041 
L 353 3041 
L 353 3500 
z
" transform="scale(0.015625)"/>
      </defs>
      <use xlink:href="#DejaVuSans-52"/>
      <use xlink:href="#DejaVuSans-65" x="64.982422"/>
      <use xlink:href="#DejaVuSans-73" x="126.505859"/>
      <use xlink:href="#DejaVuSans-6f" x="178.605469"/>
      <use xlink:href="#DejaVuSans-6e" x="239.787109"/>
      <use xlink:href="#DejaVuSans-61" x="303.166016"/>
      <use xlink:href="#DejaVuSans-6e" x="364.445312"/>
      <use xlink:href="#DejaVuSans-63" x="427.824219"/>
      <use xlink:href="#DejaVuSans-65" x="482.804688"/>
      <use xlink:href="#DejaVuSans-20" x="544.328125"/>
      <use xlink:href="#DejaVuSans-46" x="576.115234"/>
      <use xlink:href="#DejaVuSans-72" x="626.384766"/>
      <use xlink:href="#DejaVuSans-65" x="665.248047"/>
      <use xlink:href="#DejaVuSans-71" x="726.771484"/>
      <use xlink:href="#DejaVuSans-75" x="790.248047"/>
      <use xlink:href="#DejaVuSans-65" x="853.626953"/>
      <use xlink:href="#DejaVuSans-6e" x="915.150391"/>
      <use xlink:href="#DejaVuSans-63" x="978.529297"/>
      <use xlink:href="#DejaVuSans-79" x="1033.509766"/>
      <use xlink:href="#DejaVuSans-20" x="1092.689453"/>
      <use xlink:href="#DejaVuSans-28" x="1124.476562"/>
      <use xlink:href="#DejaVuSans-48" x="1163.490234"/>
      <use xlink:href="#DejaVuSans-7a" x="1238.685547"/>
      <use xlink:href="#DejaVuSans-29" x="1291.175781"/>
     </g>
    </g>
    <g id="text_31">
     <!-- 1e6 -->
     <g transform="translate(630.388125 19.3575) scale(0.16 -0.16)">
      <use xlink:href="#DejaVuSans-31"/>
      <use xlink:href="#DejaVuSans-65" x="63.623047"/>
      <use xlink:href="#DejaVuSans-36" x="125.146484"/>
     </g>
    </g>
   </g>
   <g id="line2d_56">
    <path d="M 855.744375 113.965904 
L 864.280597 118.539502 
L 872.816819 117.586827 
L 881.35304 123.868407 
L 889.889262 123.989864 
L 898.425482 116.045847 
L 906.961705 131.288643 
L 915.497924 120.091868 
L 924.03415 122.141447 
L 932.570369 121.549347 
L 941.106589 106.344506 
L 949.642815 131.793446 
L 958.179034 134.154258 
L 966.71526 134.932339 
L 975.251473 381.6675 
L 983.787699 381.6675 
L 992.323925 88.945857 
L 1000.860138 124.187231 
L 1009.396364 128.240843 
L 1017.932589 133.759524 
L 1026.468803 115.795343 
L 1035.005028 115.169083 
L 1043.541254 112.117487 
L 1052.077468 112.09851 
L 1060.613693 103.774941 
L 1052.077468 111.836619 
L 1043.541254 101.520404 
L 1035.005028 109.517558 
L 1026.468803 97.326358 
L 1017.932589 98.400489 
L 1009.396364 99.918696 
L 1000.860138 95.781583 
L 992.323925 98.567492 
L 983.787699 95.197073 
L 975.251473 97.538907 
L 966.71526 91.321851 
L 958.179034 93.071584 
L 949.642815 92.756556 
L 941.106589 84.311531 
L 932.570369 83.089375 
L 924.03415 80.755132 
L 915.497924 78.124839 
L 906.961705 79.927709 
L 898.425482 82.914781 
L 889.889262 81.343437 
L 881.35304 82.79712 
L 872.816819 78.72453 
L 864.280597 79.293858 
L 855.744375 79.100287 
L 847.208153 77.415077 
L 838.671931 86.121993 
L 830.13571 81.423143 
L 821.599488 95.675308 
L 813.063268 87.359331 
L 804.527045 107.836144 
L 795.990826 103.569983 
L 787.4546 117.901855 
L 778.918381 381.6675 
L 770.382161 88.26646 
L 761.845935 114.838873 
L 753.309716 124.380802 
L 744.77349 124.862833 
L 736.237277 123.207987 
L 727.701051 120.312008 
L 719.164825 109.714925 
L 710.628612 98.446036 
L 702.092386 96.123179 
L 693.556161 90.080717 
L 685.019947 90.612089 
L 676.483722 84.554444 
L 667.947496 83.71943 
L 659.411282 80.136463 
L 650.875057 77.373326 
L 659.411282 75.361702 
L 667.947496 78.971239 
L 676.483722 74.925218 
L 685.019947 74.477347 
L 693.556161 76.124601 
L 702.092386 73.380443 
L 710.628612 69.163624 
L 719.164825 72.431563 
L 727.701051 67.88833 
L 736.237277 68.203358 
L 744.77349 62.187464 
L 753.309716 59.219369 
L 761.845935 59.576148 
L 770.382161 59.006821 
L 778.918381 57.42409 
L 787.4546 58.426106 
L 795.990826 63.982743 
L 804.527045 63.22364 
L 813.063268 59.530602 
L 821.599488 61.804116 
L 830.13571 61.162674 
L 838.671931 62.885839 
L 847.208153 62.912407 
L 855.744375 53.575436 
L 864.280597 59.386372 
L 872.816819 52.493714 
L 881.35304 52.706263 
L 889.889262 51.172874 
L 898.425482 56.72951 
L 906.961705 59.853221 
L 915.497924 68.727139 
L 924.03415 58.798067 
L 932.570369 68.932097 
L 941.106589 72.450541 
L 949.642815 80.914544 
L 958.179034 64.149746 
L 966.71526 381.6675 
L 975.251473 381.6675 
L 983.787699 89.450661 
L 992.323925 72.420177 
L 1000.860138 78.789054 
L 1009.396364 72.473314 
L 1017.932589 80.318647 
L 1026.468803 80.405944 
L 1035.005028 76.803999 
L 1043.541254 74.378664 
L 1052.077468 72.537838 
L 1060.613693 79.297653 
L 1052.077468 80.553969 
L 1043.541254 73.126143 
L 1035.005028 65.125194 
L 1026.468803 73.536059 
L 1017.932589 63.944788 
L 1009.396364 70.738763 
L 1000.860138 69.892363 
L 992.323925 71.247362 
L 983.787699 64.943009 
L 975.251473 65.06067 
L 966.71526 64.385068 
L 958.179034 62.912407 
L 949.642815 57.67839 
L 941.106589 59.762128 
L 932.570369 57.481023 
L 924.03415 55.484581 
L 915.497924 57.541751 
L 906.961705 56.107046 
L 898.425482 55.150575 
L 889.889262 45.202526 
L 881.35304 53.643755 
L 872.816819 50.660479 
L 864.280597 47.229332 
L 855.744375 52.296347 
L 847.208153 47.901138 
L 838.671931 47.498814 
L 830.13571 58.828431 
L 821.599488 64.126973 
L 813.063268 67.895921 
L 804.527045 68.837209 
L 795.990826 86.095424 
L 787.4546 101.543177 
L 778.918381 381.6675 
L 770.382161 77.308803 
L 761.845935 81.920356 
L 753.309716 97.945027 
L 744.77349 102.958905 
L 736.237277 99.956651 
L 727.701051 95.770196 
L 719.164825 91.371192 
L 710.628612 76.276422 
L 702.092386 69.994842 
L 693.556161 70.731172 
L 685.019947 65.675544 
L 676.483722 61.637114 
L 667.947496 63.857491 
L 659.411282 65.318765 
L 650.875057 56.615645 
L 659.411282 62.942771 
L 667.947496 56.54353 
L 676.483722 60.153067 
L 685.019947 59.970882 
L 693.556161 54.649567 
L 702.092386 56.771261 
L 710.628612 50.106334 
L 719.164825 46.447455 
L 727.701051 50.053196 
L 736.237277 45.08866 
L 744.77349 43.130174 
L 753.309716 48.159233 
L 761.845935 47.935298 
L 770.382161 48.538785 
L 778.918381 41.695468 
L 787.4546 48.371782 
L 795.990826 50.356838 
L 804.527045 46.705551 
L 813.063268 47.297651 
L 821.599488 45.48719 
L 830.13571 41.873858 
L 838.671931 40.116533 
L 847.208153 39.4675 
L 847.208153 39.4675 
" clip-path="url(#pe40639f500)" style="fill: none; stroke: #1f77b4; stroke-width: 1.5; stroke-linecap: square"/>
   </g>
   <g id="patch_8">
    <path d="M 630.388125 398.7775 
L 630.388125 22.3575 
" style="fill: none; stroke: #000000; stroke-width: 0.8; stroke-linejoin: miter; stroke-linecap: square"/>
   </g>
   <g id="patch_9">
    <path d="M 1081.100625 398.7775 
L 1081.100625 22.3575 
" style="fill: none; stroke: #000000; stroke-width: 0.8; stroke-linejoin: miter; stroke-linecap: square"/>
   </g>
   <g id="patch_10">
    <path d="M 630.388125 398.7775 
L 1081.100625 398.7775 
" style="fill: none; stroke: #000000; stroke-width: 0.8; stroke-linejoin: miter; stroke-linecap: square"/>
   </g>
   <g id="patch_11">
    <path d="M 630.388125 22.3575 
L 1081.100625 22.3575 
" style="fill: none; stroke: #000000; stroke-width: 0.8; stroke-linejoin: miter; stroke-linecap: square"/>
   </g>
   <g id="text_32">
    <!-- Resonance Frequency -->
    <g transform="translate(790.18125 16.3575) scale(0.12 -0.12)">
     <use xlink:href="#DejaVuSans-52"/>
     <use xlink:href="#DejaVuSans-65" x="64.982422"/>
     <use xlink:href="#DejaVuSans-73" x="126.505859"/>
     <use xlink:href="#DejaVuSans-6f" x="178.605469"/>
     <use xlink:href="#DejaVuSans-6e" x="239.787109"/>
     <use xlink:href="#DejaVuSans-61" x="303.166016"/>
     <use xlink:href="#DejaVuSans-6e" x="364.445312"/>
     <use xlink:href="#DejaVuSans-63" x="427.824219"/>
     <use xlink:href="#DejaVuSans-65" x="482.804688"/>
     <use xlink:href="#DejaVuSans-20" x="544.328125"/>
     <use xlink:href="#DejaVuSans-46" x="576.115234"/>
     <use xlink:href="#DejaVuSans-72" x="626.384766"/>
     <use xlink:href="#DejaVuSans-65" x="665.248047"/>
     <use xlink:href="#DejaVuSans-71" x="726.771484"/>
     <use xlink:href="#DejaVuSans-75" x="790.248047"/>
     <use xlink:href="#DejaVuSans-65" x="853.626953"/>
     <use xlink:href="#DejaVuSans-6e" x="915.150391"/>
     <use xlink:href="#DejaVuSans-63" x="978.529297"/>
     <use xlink:href="#DejaVuSans-79" x="1033.509766"/>
    </g>
   </g>
  </g>
  <g id="axes_3">
   <g id="patch_12">
    <path d="M 1162.490625 398.7775 
L 1613.203125 398.7775 
L 1613.203125 22.3575 
L 1162.490625 22.3575 
z
" style="fill: #ffffff"/>
   </g>
   <g id="matplotlib.axis_5">
    <g id="xtick_15">
     <g id="line2d_57">
      <g>
       <use xlink:href="#maf236382ff" x="1195.781889" y="398.7775" style="stroke: #000000; stroke-width: 0.8"/>
      </g>
     </g>
     <g id="line2d_58">
      <g>
       <use xlink:href="#m0af81d59d1" x="1195.781889" y="22.3575" style="stroke: #000000; stroke-width: 0.8"/>
      </g>
     </g>
     <g id="text_33">
      <!-- −15 -->
      <g transform="translate(1178.898139 414.435) scale(0.16 -0.16)">
       <use xlink:href="#DejaVuSans-2212"/>
       <use xlink:href="#DejaVuSans-31" x="83.789062"/>
       <use xlink:href="#DejaVuSans-35" x="147.412109"/>
      </g>
     </g>
    </g>
    <g id="xtick_16">
     <g id="line2d_59">
      <g>
       <use xlink:href="#maf236382ff" x="1259.803551" y="398.7775" style="stroke: #000000; stroke-width: 0.8"/>
      </g>
     </g>
     <g id="line2d_60">
      <g>
       <use xlink:href="#m0af81d59d1" x="1259.803551" y="22.3575" style="stroke: #000000; stroke-width: 0.8"/>
      </g>
     </g>
     <g id="text_34">
      <!-- −10 -->
      <g transform="translate(1242.919801 414.435) scale(0.16 -0.16)">
       <use xlink:href="#DejaVuSans-2212"/>
       <use xlink:href="#DejaVuSans-31" x="83.789062"/>
       <use xlink:href="#DejaVuSans-30" x="147.412109"/>
      </g>
     </g>
    </g>
    <g id="xtick_17">
     <g id="line2d_61">
      <g>
       <use xlink:href="#maf236382ff" x="1323.825213" y="398.7775" style="stroke: #000000; stroke-width: 0.8"/>
      </g>
     </g>
     <g id="line2d_62">
      <g>
       <use xlink:href="#m0af81d59d1" x="1323.825213" y="22.3575" style="stroke: #000000; stroke-width: 0.8"/>
      </g>
     </g>
     <g id="text_35">
      <!-- −5 -->
      <g transform="translate(1312.031463 414.435) scale(0.16 -0.16)">
       <use xlink:href="#DejaVuSans-2212"/>
       <use xlink:href="#DejaVuSans-35" x="83.789062"/>
      </g>
     </g>
    </g>
    <g id="xtick_18">
     <g id="line2d_63">
      <g>
       <use xlink:href="#maf236382ff" x="1387.846875" y="398.7775" style="stroke: #000000; stroke-width: 0.8"/>
      </g>
     </g>
     <g id="line2d_64">
      <g>
       <use xlink:href="#m0af81d59d1" x="1387.846875" y="22.3575" style="stroke: #000000; stroke-width: 0.8"/>
      </g>
     </g>
     <g id="text_36">
      <!-- 0 -->
      <g transform="translate(1382.756875 414.435) scale(0.16 -0.16)">
       <use xlink:href="#DejaVuSans-30"/>
      </g>
     </g>
    </g>
    <g id="xtick_19">
     <g id="line2d_65">
      <g>
       <use xlink:href="#maf236382ff" x="1451.868537" y="398.7775" style="stroke: #000000; stroke-width: 0.8"/>
      </g>
     </g>
     <g id="line2d_66">
      <g>
       <use xlink:href="#m0af81d59d1" x="1451.868537" y="22.3575" style="stroke: #000000; stroke-width: 0.8"/>
      </g>
     </g>
     <g id="text_37">
      <!-- 5 -->
      <g transform="translate(1446.778537 414.435) scale(0.16 -0.16)">
       <use xlink:href="#DejaVuSans-35"/>
      </g>
     </g>
    </g>
    <g id="xtick_20">
     <g id="line2d_67">
      <g>
       <use xlink:href="#maf236382ff" x="1515.890199" y="398.7775" style="stroke: #000000; stroke-width: 0.8"/>
      </g>
     </g>
     <g id="line2d_68">
      <g>
       <use xlink:href="#m0af81d59d1" x="1515.890199" y="22.3575" style="stroke: #000000; stroke-width: 0.8"/>
      </g>
     </g>
     <g id="text_38">
      <!-- 10 -->
      <g transform="translate(1505.710199 414.435) scale(0.16 -0.16)">
       <use xlink:href="#DejaVuSans-31"/>
       <use xlink:href="#DejaVuSans-30" x="63.623047"/>
      </g>
     </g>
    </g>
    <g id="xtick_21">
     <g id="line2d_69">
      <g>
       <use xlink:href="#maf236382ff" x="1579.911861" y="398.7775" style="stroke: #000000; stroke-width: 0.8"/>
      </g>
     </g>
     <g id="line2d_70">
      <g>
       <use xlink:href="#m0af81d59d1" x="1579.911861" y="22.3575" style="stroke: #000000; stroke-width: 0.8"/>
      </g>
     </g>
     <g id="text_39">
      <!-- 15 -->
      <g transform="translate(1569.731861 414.435) scale(0.16 -0.16)">
       <use xlink:href="#DejaVuSans-31"/>
       <use xlink:href="#DejaVuSans-35" x="63.623047"/>
      </g>
     </g>
    </g>
   </g>
   <g id="matplotlib.axis_6">
    <g id="ytick_14">
     <g id="line2d_71">
      <g>
       <use xlink:href="#m97f0dedade" x="1162.490625" y="346.910747" style="stroke: #000000; stroke-width: 0.8"/>
      </g>
     </g>
     <g id="line2d_72">
      <g>
       <use xlink:href="#m9d08c617d2" x="1613.203125" y="346.910747" style="stroke: #000000; stroke-width: 0.8"/>
      </g>
     </g>
     <g id="text_40">
      <!-- −200 -->
      <g transform="translate(1115.043125 352.989497) scale(0.16 -0.16)">
       <use xlink:href="#DejaVuSans-2212"/>
       <use xlink:href="#DejaVuSans-32" x="83.789062"/>
       <use xlink:href="#DejaVuSans-30" x="147.412109"/>
       <use xlink:href="#DejaVuSans-30" x="211.035156"/>
      </g>
     </g>
    </g>
    <g id="ytick_15">
     <g id="line2d_73">
      <g>
       <use xlink:href="#m97f0dedade" x="1162.490625" y="270.049935" style="stroke: #000000; stroke-width: 0.8"/>
      </g>
     </g>
     <g id="line2d_74">
      <g>
       <use xlink:href="#m9d08c617d2" x="1613.203125" y="270.049935" style="stroke: #000000; stroke-width: 0.8"/>
      </g>
     </g>
     <g id="text_41">
      <!-- −100 -->
      <g transform="translate(1115.043125 276.128685) scale(0.16 -0.16)">
       <use xlink:href="#DejaVuSans-2212"/>
       <use xlink:href="#DejaVuSans-31" x="83.789062"/>
       <use xlink:href="#DejaVuSans-30" x="147.412109"/>
       <use xlink:href="#DejaVuSans-30" x="211.035156"/>
      </g>
     </g>
    </g>
    <g id="ytick_16">
     <g id="line2d_75">
      <g>
       <use xlink:href="#m97f0dedade" x="1162.490625" y="193.189123" style="stroke: #000000; stroke-width: 0.8"/>
      </g>
     </g>
     <g id="line2d_76">
      <g>
       <use xlink:href="#m9d08c617d2" x="1613.203125" y="193.189123" style="stroke: #000000; stroke-width: 0.8"/>
      </g>
     </g>
     <g id="text_42">
      <!-- 0 -->
      <g transform="translate(1148.810625 199.267873) scale(0.16 -0.16)">
       <use xlink:href="#DejaVuSans-30"/>
      </g>
     </g>
    </g>
    <g id="ytick_17">
     <g id="line2d_77">
      <g>
       <use xlink:href="#m97f0dedade" x="1162.490625" y="116.328312" style="stroke: #000000; stroke-width: 0.8"/>
      </g>
     </g>
     <g id="line2d_78">
      <g>
       <use xlink:href="#m9d08c617d2" x="1613.203125" y="116.328312" style="stroke: #000000; stroke-width: 0.8"/>
      </g>
     </g>
     <g id="text_43">
      <!-- 100 -->
      <g transform="translate(1128.450625 122.407062) scale(0.16 -0.16)">
       <use xlink:href="#DejaVuSans-31"/>
       <use xlink:href="#DejaVuSans-30" x="63.623047"/>
       <use xlink:href="#DejaVuSans-30" x="127.246094"/>
      </g>
     </g>
    </g>
    <g id="ytick_18">
     <g id="line2d_79">
      <g>
       <use xlink:href="#m97f0dedade" x="1162.490625" y="39.4675" style="stroke: #000000; stroke-width: 0.8"/>
      </g>
     </g>
     <g id="line2d_80">
      <g>
       <use xlink:href="#m9d08c617d2" x="1613.203125" y="39.4675" style="stroke: #000000; stroke-width: 0.8"/>
      </g>
     </g>
     <g id="text_44">
      <!-- 200 -->
      <g transform="translate(1128.450625 45.54625) scale(0.16 -0.16)">
       <use xlink:href="#DejaVuSans-32"/>
       <use xlink:href="#DejaVuSans-30" x="63.623047"/>
       <use xlink:href="#DejaVuSans-30" x="127.246094"/>
      </g>
     </g>
    </g>
    <g id="text_45">
     <!-- Quality Factor (Arb. U.) -->
     <g transform="translate(1107.299687 313.762344) rotate(-90) scale(0.18 -0.18)">
      <defs>
       <path id="DejaVuSans-51" d="M 2522 4238 
Q 1834 4238 1429 3725 
Q 1025 3213 1025 2328 
Q 1025 1447 1429 934 
Q 1834 422 2522 422 
Q 3209 422 3611 934 
Q 4013 1447 4013 2328 
Q 4013 3213 3611 3725 
Q 3209 4238 2522 4238 
z
M 3406 84 
L 4238 -825 
L 3475 -825 
L 2784 -78 
Q 2681 -84 2626 -87 
Q 2572 -91 2522 -91 
Q 1538 -91 948 567 
Q 359 1225 359 2328 
Q 359 3434 948 4092 
Q 1538 4750 2522 4750 
Q 3503 4750 4090 4092 
Q 4678 3434 4678 2328 
Q 4678 1516 4351 937 
Q 4025 359 3406 84 
z
" transform="scale(0.015625)"/>
      </defs>
      <use xlink:href="#DejaVuSans-51"/>
      <use xlink:href="#DejaVuSans-75" x="78.710938"/>
      <use xlink:href="#DejaVuSans-61" x="142.089844"/>
      <use xlink:href="#DejaVuSans-6c" x="203.369141"/>
      <use xlink:href="#DejaVuSans-69" x="231.152344"/>
      <use xlink:href="#DejaVuSans-74" x="258.935547"/>
      <use xlink:href="#DejaVuSans-79" x="298.144531"/>
      <use xlink:href="#DejaVuSans-20" x="357.324219"/>
      <use xlink:href="#DejaVuSans-46" x="389.111328"/>
      <use xlink:href="#DejaVuSans-61" x="437.505859"/>
      <use xlink:href="#DejaVuSans-63" x="498.785156"/>
      <use xlink:href="#DejaVuSans-74" x="553.765625"/>
      <use xlink:href="#DejaVuSans-6f" x="592.974609"/>
      <use xlink:href="#DejaVuSans-72" x="654.15625"/>
      <use xlink:href="#DejaVuSans-20" x="695.269531"/>
      <use xlink:href="#DejaVuSans-28" x="727.056641"/>
      <use xlink:href="#DejaVuSans-41" x="766.070312"/>
      <use xlink:href="#DejaVuSans-72" x="834.478516"/>
      <use xlink:href="#DejaVuSans-62" x="875.591797"/>
      <use xlink:href="#DejaVuSans-2e" x="939.068359"/>
      <use xlink:href="#DejaVuSans-20" x="970.855469"/>
      <use xlink:href="#DejaVuSans-55" x="1002.642578"/>
      <use xlink:href="#DejaVuSans-2e" x="1075.835938"/>
      <use xlink:href="#DejaVuSans-29" x="1107.623047"/>
     </g>
    </g>
   </g>
   <g id="line2d_81">
    <path d="M 1387.846875 357.646033 
L 1396.383097 363.993407 
L 1404.919319 349.80309 
L 1413.45554 358.283159 
L 1421.991762 347.006436 
L 1430.527982 353.06177 
L 1439.064205 356.187078 
L 1447.600424 350.522288 
L 1456.13665 349.857789 
L 1464.672869 359.366137 
L 1473.209089 363.369054 
L 1481.745315 368.410535 
L 1490.281534 340.098357 
L 1498.81776 336.24543 
L 1507.353973 39.4675 
L 1515.890199 39.4675 
L 1524.426425 352.480317 
L 1532.962638 361.204095 
L 1541.498864 358.877277 
L 1550.035089 356.13734 
L 1558.571303 346.778161 
L 1567.107528 344.533675 
L 1575.643754 354.8276 
L 1584.179968 354.580749 
L 1592.716193 344.94459 
L 1584.179968 360.278718 
L 1575.643754 350.688404 
L 1567.107528 348.801774 
L 1558.571303 356.664046 
L 1550.035089 358.887363 
L 1541.498864 362.511078 
L 1532.962638 358.332229 
L 1524.426425 356.04443 
L 1515.890199 350.967871 
L 1507.353973 367.828027 
L 1498.81776 363.178074 
L 1490.281534 365.235968 
L 1481.745315 360.319485 
L 1473.209089 365.621867 
L 1464.672869 360.776291 
L 1456.13665 361.954689 
L 1447.600424 371.493857 
L 1439.064205 365.378792 
L 1430.527982 369.070694 
L 1421.991762 372.028772 
L 1413.45554 368.552901 
L 1404.919319 368.104832 
L 1396.383097 358.994452 
L 1387.846875 370.989282 
L 1379.310653 360.892645 
L 1370.774431 363.274842 
L 1362.23821 368.918804 
L 1353.701988 364.672906 
L 1345.165768 364.406046 
L 1336.629545 356.575171 
L 1328.093326 351.095706 
L 1319.5571 368.707512 
L 1311.020881 39.4675 
L 1302.484661 346.483483 
L 1293.948435 368.892064 
L 1285.412216 360.174174 
L 1276.87599 342.422852 
L 1268.339777 349.283667 
L 1259.803551 346.454738 
L 1251.267325 353.618534 
L 1242.731112 352.384019 
L 1234.194886 347.91931 
L 1225.658661 362.003946 
L 1217.122447 349.812273 
L 1208.586222 354.371544 
L 1200.049996 357.824909 
L 1191.513782 355.397454 
L 1182.977557 350.770723 
L 1191.513782 368.028131 
L 1200.049996 371.358375 
L 1208.586222 360.493282 
L 1217.122447 353.726245 
L 1225.658661 359.806981 
L 1234.194886 358.936246 
L 1242.731112 355.955215 
L 1251.267325 355.785077 
L 1259.803551 351.141035 
L 1268.339777 355.959238 
L 1276.87599 356.233205 
L 1285.412216 357.1678 
L 1293.948435 354.311696 
L 1311.020881 362.323817 
L 1319.5571 364.080687 
L 1328.093326 363.926264 
L 1336.629545 360.389595 
L 1345.165768 360.061949 
L 1353.701988 367.019977 
L 1362.23821 360.395083 
L 1370.774431 365.700175 
L 1379.310653 365.420509 
L 1387.846875 363.288025 
L 1396.383097 371.712362 
L 1404.919319 363.121475 
L 1413.45554 361.94072 
L 1421.991762 367.506526 
L 1430.527982 360.225414 
L 1439.064205 357.131021 
L 1447.600424 368.909855 
L 1456.13665 365.295347 
L 1464.672869 352.847628 
L 1473.209089 359.973297 
L 1481.745315 377.637139 
L 1490.281534 315.244118 
L 1498.81776 39.4675 
L 1507.353973 39.4675 
L 1515.890199 381.6675 
L 1524.426425 354.821854 
L 1532.962638 365.974189 
L 1541.498864 337.731781 
L 1550.035089 362.757566 
L 1558.571303 375.369783 
L 1567.107528 369.890495 
L 1575.643754 365.053867 
L 1584.179968 357.031485 
L 1592.716193 354.464114 
L 1584.179968 350.64311 
L 1575.643754 361.322255 
L 1567.107528 357.245228 
L 1558.571303 359.374159 
L 1550.035089 351.492137 
L 1541.498864 356.381154 
L 1532.962638 359.085344 
L 1524.426425 359.521721 
L 1515.890199 362.617604 
L 1507.353973 362.984257 
L 1498.81776 361.312415 
L 1490.281534 370.772384 
L 1481.745315 349.488556 
L 1464.672869 367.442104 
L 1456.13665 358.244925 
L 1447.600424 364.928624 
L 1439.064205 362.406523 
L 1430.527982 366.188085 
L 1421.991762 366.156114 
L 1413.45554 371.642967 
L 1404.919319 363.101432 
L 1396.383097 366.891239 
L 1387.846875 369.712146 
L 1379.310653 370.234747 
L 1370.774431 368.823267 
L 1362.23821 367.010478 
L 1353.701988 360.234492 
L 1345.165768 375.755013 
L 1336.629545 373.420409 
L 1328.093326 365.823202 
L 1319.5571 376.809739 
L 1311.020881 39.4675 
L 1302.484661 380.373371 
L 1293.948435 349.858165 
L 1285.412216 358.904146 
L 1276.87599 348.7315 
L 1268.339777 355.66809 
L 1259.803551 356.957551 
L 1251.267325 366.123041 
L 1242.731112 358.635985 
L 1234.194886 352.798499 
L 1225.658661 360.95858 
L 1217.122447 353.215794 
L 1208.586222 358.227568 
L 1200.049996 358.28174 
L 1191.513782 359.847502 
L 1182.977557 357.978324 
L 1191.513782 357.466583 
L 1200.049996 354.214764 
L 1208.586222 357.344213 
L 1217.122447 358.237853 
L 1225.658661 355.658027 
L 1234.194886 351.633695 
L 1242.731112 358.781576 
L 1251.267325 361.231409 
L 1259.803551 361.439206 
L 1268.339777 354.345778 
L 1276.87599 353.664626 
L 1285.412216 356.433414 
L 1293.948435 363.568723 
L 1302.484661 366.335647 
L 1311.020881 355.746456 
L 1319.5571 359.951013 
L 1328.093326 362.276506 
L 1336.629545 368.813967 
L 1345.165768 363.845212 
L 1353.701988 359.602128 
L 1362.23821 358.030033 
L 1370.774431 367.886034 
L 1379.310653 372.317645 
L 1379.310653 372.317645 
" clip-path="url(#p82f3ee0158)" style="fill: none; stroke: #1f77b4; stroke-width: 1.5; stroke-linecap: square"/>
   </g>
   <g id="patch_13">
    <path d="M 1162.490625 398.7775 
L 1162.490625 22.3575 
" style="fill: none; stroke: #000000; stroke-width: 0.8; stroke-linejoin: miter; stroke-linecap: square"/>
   </g>
   <g id="patch_14">
    <path d="M 1613.203125 398.7775 
L 1613.203125 22.3575 
" style="fill: none; stroke: #000000; stroke-width: 0.8; stroke-linejoin: miter; stroke-linecap: square"/>
   </g>
   <g id="patch_15">
    <path d="M 1162.490625 398.7775 
L 1613.203125 398.7775 
" style="fill: none; stroke: #000000; stroke-width: 0.8; stroke-linejoin: miter; stroke-linecap: square"/>
   </g>
   <g id="patch_16">
    <path d="M 1162.490625 22.3575 
L 1613.203125 22.3575 
" style="fill: none; stroke: #000000; stroke-width: 0.8; stroke-linejoin: miter; stroke-linecap: square"/>
   </g>
   <g id="text_46">
    <!-- Dampening -->
    <g transform="translate(1353.12375 16.3575) scale(0.12 -0.12)">
     <defs>
      <path id="DejaVuSans-44" d="M 1259 4147 
L 1259 519 
L 2022 519 
Q 2988 519 3436 956 
Q 3884 1394 3884 2338 
Q 3884 3275 3436 3711 
Q 2988 4147 2022 4147 
L 1259 4147 
z
M 628 4666 
L 1925 4666 
Q 3281 4666 3915 4102 
Q 4550 3538 4550 2338 
Q 4550 1131 3912 565 
Q 3275 0 1925 0 
L 628 0 
L 628 4666 
z
" transform="scale(0.015625)"/>
      <path id="DejaVuSans-67" d="M 2906 1791 
Q 2906 2416 2648 2759 
Q 2391 3103 1925 3103 
Q 1463 3103 1205 2759 
Q 947 2416 947 1791 
Q 947 1169 1205 825 
Q 1463 481 1925 481 
Q 2391 481 2648 825 
Q 2906 1169 2906 1791 
z
M 3481 434 
Q 3481 -459 3084 -895 
Q 2688 -1331 1869 -1331 
Q 1566 -1331 1297 -1286 
Q 1028 -1241 775 -1147 
L 775 -588 
Q 1028 -725 1275 -790 
Q 1522 -856 1778 -856 
Q 2344 -856 2625 -561 
Q 2906 -266 2906 331 
L 2906 616 
Q 2728 306 2450 153 
Q 2172 0 1784 0 
Q 1141 0 747 490 
Q 353 981 353 1791 
Q 353 2603 747 3093 
Q 1141 3584 1784 3584 
Q 2172 3584 2450 3431 
Q 2728 3278 2906 2969 
L 2906 3500 
L 3481 3500 
L 3481 434 
z
" transform="scale(0.015625)"/>
     </defs>
     <use xlink:href="#DejaVuSans-44"/>
     <use xlink:href="#DejaVuSans-61" x="77.001953"/>
     <use xlink:href="#DejaVuSans-6d" x="138.28125"/>
     <use xlink:href="#DejaVuSans-70" x="235.693359"/>
     <use xlink:href="#DejaVuSans-65" x="299.169922"/>
     <use xlink:href="#DejaVuSans-6e" x="360.693359"/>
     <use xlink:href="#DejaVuSans-69" x="424.072266"/>
     <use xlink:href="#DejaVuSans-6e" x="451.855469"/>
     <use xlink:href="#DejaVuSans-67" x="515.234375"/>
    </g>
   </g>
  </g>
  <g id="axes_4">
   <g id="patch_17">
    <path d="M 1694.593125 398.7775 
L 2145.305625 398.7775 
L 2145.305625 22.3575 
L 1694.593125 22.3575 
z
" style="fill: #ffffff"/>
   </g>
   <g id="matplotlib.axis_7">
    <g id="xtick_22">
     <g id="line2d_82">
      <g>
       <use xlink:href="#maf236382ff" x="1727.884389" y="398.7775" style="stroke: #000000; stroke-width: 0.8"/>
      </g>
     </g>
     <g id="line2d_83">
      <g>
       <use xlink:href="#m0af81d59d1" x="1727.884389" y="22.3575" style="stroke: #000000; stroke-width: 0.8"/>
      </g>
     </g>
     <g id="text_47">
      <!-- −15 -->
      <g transform="translate(1711.000639 414.435) scale(0.16 -0.16)">
       <use xlink:href="#DejaVuSans-2212"/>
       <use xlink:href="#DejaVuSans-31" x="83.789062"/>
       <use xlink:href="#DejaVuSans-35" x="147.412109"/>
      </g>
     </g>
    </g>
    <g id="xtick_23">
     <g id="line2d_84">
      <g>
       <use xlink:href="#maf236382ff" x="1791.906051" y="398.7775" style="stroke: #000000; stroke-width: 0.8"/>
      </g>
     </g>
     <g id="line2d_85">
      <g>
       <use xlink:href="#m0af81d59d1" x="1791.906051" y="22.3575" style="stroke: #000000; stroke-width: 0.8"/>
      </g>
     </g>
     <g id="text_48">
      <!-- −10 -->
      <g transform="translate(1775.022301 414.435) scale(0.16 -0.16)">
       <use xlink:href="#DejaVuSans-2212"/>
       <use xlink:href="#DejaVuSans-31" x="83.789062"/>
       <use xlink:href="#DejaVuSans-30" x="147.412109"/>
      </g>
     </g>
    </g>
    <g id="xtick_24">
     <g id="line2d_86">
      <g>
       <use xlink:href="#maf236382ff" x="1855.927713" y="398.7775" style="stroke: #000000; stroke-width: 0.8"/>
      </g>
     </g>
     <g id="line2d_87">
      <g>
       <use xlink:href="#m0af81d59d1" x="1855.927713" y="22.3575" style="stroke: #000000; stroke-width: 0.8"/>
      </g>
     </g>
     <g id="text_49">
      <!-- −5 -->
      <g transform="translate(1844.133963 414.435) scale(0.16 -0.16)">
       <use xlink:href="#DejaVuSans-2212"/>
       <use xlink:href="#DejaVuSans-35" x="83.789062"/>
      </g>
     </g>
    </g>
    <g id="xtick_25">
     <g id="line2d_88">
      <g>
       <use xlink:href="#maf236382ff" x="1919.949375" y="398.7775" style="stroke: #000000; stroke-width: 0.8"/>
      </g>
     </g>
     <g id="line2d_89">
      <g>
       <use xlink:href="#m0af81d59d1" x="1919.949375" y="22.3575" style="stroke: #000000; stroke-width: 0.8"/>
      </g>
     </g>
     <g id="text_50">
      <!-- 0 -->
      <g transform="translate(1914.859375 414.435) scale(0.16 -0.16)">
       <use xlink:href="#DejaVuSans-30"/>
      </g>
     </g>
    </g>
    <g id="xtick_26">
     <g id="line2d_90">
      <g>
       <use xlink:href="#maf236382ff" x="1983.971037" y="398.7775" style="stroke: #000000; stroke-width: 0.8"/>
      </g>
     </g>
     <g id="line2d_91">
      <g>
       <use xlink:href="#m0af81d59d1" x="1983.971037" y="22.3575" style="stroke: #000000; stroke-width: 0.8"/>
      </g>
     </g>
     <g id="text_51">
      <!-- 5 -->
      <g transform="translate(1978.881037 414.435) scale(0.16 -0.16)">
       <use xlink:href="#DejaVuSans-35"/>
      </g>
     </g>
    </g>
    <g id="xtick_27">
     <g id="line2d_92">
      <g>
       <use xlink:href="#maf236382ff" x="2047.992699" y="398.7775" style="stroke: #000000; stroke-width: 0.8"/>
      </g>
     </g>
     <g id="line2d_93">
      <g>
       <use xlink:href="#m0af81d59d1" x="2047.992699" y="22.3575" style="stroke: #000000; stroke-width: 0.8"/>
      </g>
     </g>
     <g id="text_52">
      <!-- 10 -->
      <g transform="translate(2037.812699 414.435) scale(0.16 -0.16)">
       <use xlink:href="#DejaVuSans-31"/>
       <use xlink:href="#DejaVuSans-30" x="63.623047"/>
      </g>
     </g>
    </g>
    <g id="xtick_28">
     <g id="line2d_94">
      <g>
       <use xlink:href="#maf236382ff" x="2112.014361" y="398.7775" style="stroke: #000000; stroke-width: 0.8"/>
      </g>
     </g>
     <g id="line2d_95">
      <g>
       <use xlink:href="#m0af81d59d1" x="2112.014361" y="22.3575" style="stroke: #000000; stroke-width: 0.8"/>
      </g>
     </g>
     <g id="text_53">
      <!-- 15 -->
      <g transform="translate(2101.834361 414.435) scale(0.16 -0.16)">
       <use xlink:href="#DejaVuSans-31"/>
       <use xlink:href="#DejaVuSans-35" x="63.623047"/>
      </g>
     </g>
    </g>
   </g>
   <g id="matplotlib.axis_8">
    <g id="ytick_19">
     <g id="line2d_96">
      <g>
       <use xlink:href="#m97f0dedade" x="1694.593125" y="375.367186" style="stroke: #000000; stroke-width: 0.8"/>
      </g>
     </g>
     <g id="line2d_97">
      <g>
       <use xlink:href="#m9d08c617d2" x="2145.305625" y="375.367186" style="stroke: #000000; stroke-width: 0.8"/>
      </g>
     </g>
     <g id="text_54">
      <!-- −3 -->
      <g transform="translate(1667.505625 381.445936) scale(0.16 -0.16)">
       <use xlink:href="#DejaVuSans-2212"/>
       <use xlink:href="#DejaVuSans-33" x="83.789062"/>
      </g>
     </g>
    </g>
    <g id="ytick_20">
     <g id="line2d_98">
      <g>
       <use xlink:href="#m97f0dedade" x="1694.593125" y="320.635526" style="stroke: #000000; stroke-width: 0.8"/>
      </g>
     </g>
     <g id="line2d_99">
      <g>
       <use xlink:href="#m9d08c617d2" x="2145.305625" y="320.635526" style="stroke: #000000; stroke-width: 0.8"/>
      </g>
     </g>
     <g id="text_55">
      <!-- −2 -->
      <g transform="translate(1667.505625 326.714276) scale(0.16 -0.16)">
       <use xlink:href="#DejaVuSans-2212"/>
       <use xlink:href="#DejaVuSans-32" x="83.789062"/>
      </g>
     </g>
    </g>
    <g id="ytick_21">
     <g id="line2d_100">
      <g>
       <use xlink:href="#m97f0dedade" x="1694.593125" y="265.903866" style="stroke: #000000; stroke-width: 0.8"/>
      </g>
     </g>
     <g id="line2d_101">
      <g>
       <use xlink:href="#m9d08c617d2" x="2145.305625" y="265.903866" style="stroke: #000000; stroke-width: 0.8"/>
      </g>
     </g>
     <g id="text_56">
      <!-- −1 -->
      <g transform="translate(1667.505625 271.982616) scale(0.16 -0.16)">
       <use xlink:href="#DejaVuSans-2212"/>
       <use xlink:href="#DejaVuSans-31" x="83.789062"/>
      </g>
     </g>
    </g>
    <g id="ytick_22">
     <g id="line2d_102">
      <g>
       <use xlink:href="#m97f0dedade" x="1694.593125" y="211.172206" style="stroke: #000000; stroke-width: 0.8"/>
      </g>
     </g>
     <g id="line2d_103">
      <g>
       <use xlink:href="#m9d08c617d2" x="2145.305625" y="211.172206" style="stroke: #000000; stroke-width: 0.8"/>
      </g>
     </g>
     <g id="text_57">
      <!-- 0 -->
      <g transform="translate(1680.913125 217.250956) scale(0.16 -0.16)">
       <use xlink:href="#DejaVuSans-30"/>
      </g>
     </g>
    </g>
    <g id="ytick_23">
     <g id="line2d_104">
      <g>
       <use xlink:href="#m97f0dedade" x="1694.593125" y="156.440546" style="stroke: #000000; stroke-width: 0.8"/>
      </g>
     </g>
     <g id="line2d_105">
      <g>
       <use xlink:href="#m9d08c617d2" x="2145.305625" y="156.440546" style="stroke: #000000; stroke-width: 0.8"/>
      </g>
     </g>
     <g id="text_58">
      <!-- 1 -->
      <g transform="translate(1680.913125 162.519296) scale(0.16 -0.16)">
       <use xlink:href="#DejaVuSans-31"/>
      </g>
     </g>
    </g>
    <g id="ytick_24">
     <g id="line2d_106">
      <g>
       <use xlink:href="#m97f0dedade" x="1694.593125" y="101.708885" style="stroke: #000000; stroke-width: 0.8"/>
      </g>
     </g>
     <g id="line2d_107">
      <g>
       <use xlink:href="#m9d08c617d2" x="2145.305625" y="101.708885" style="stroke: #000000; stroke-width: 0.8"/>
      </g>
     </g>
     <g id="text_59">
      <!-- 2 -->
      <g transform="translate(1680.913125 107.787635) scale(0.16 -0.16)">
       <use xlink:href="#DejaVuSans-32"/>
      </g>
     </g>
    </g>
    <g id="ytick_25">
     <g id="line2d_108">
      <g>
       <use xlink:href="#m97f0dedade" x="1694.593125" y="46.977225" style="stroke: #000000; stroke-width: 0.8"/>
      </g>
     </g>
     <g id="line2d_109">
      <g>
       <use xlink:href="#m9d08c617d2" x="2145.305625" y="46.977225" style="stroke: #000000; stroke-width: 0.8"/>
      </g>
     </g>
     <g id="text_60">
      <!-- 3 -->
      <g transform="translate(1680.913125 53.055975) scale(0.16 -0.16)">
       <use xlink:href="#DejaVuSans-33"/>
      </g>
     </g>
    </g>
    <g id="text_61">
     <!-- Phase (rad) -->
     <g transform="translate(1659.762187 262.251406) rotate(-90) scale(0.18 -0.18)">
      <defs>
       <path id="DejaVuSans-50" d="M 1259 4147 
L 1259 2394 
L 2053 2394 
Q 2494 2394 2734 2622 
Q 2975 2850 2975 3272 
Q 2975 3691 2734 3919 
Q 2494 4147 2053 4147 
L 1259 4147 
z
M 628 4666 
L 2053 4666 
Q 2838 4666 3239 4311 
Q 3641 3956 3641 3272 
Q 3641 2581 3239 2228 
Q 2838 1875 2053 1875 
L 1259 1875 
L 1259 0 
L 628 0 
L 628 4666 
z
" transform="scale(0.015625)"/>
       <path id="DejaVuSans-68" d="M 3513 2113 
L 3513 0 
L 2938 0 
L 2938 2094 
Q 2938 2591 2744 2837 
Q 2550 3084 2163 3084 
Q 1697 3084 1428 2787 
Q 1159 2491 1159 1978 
L 1159 0 
L 581 0 
L 581 4863 
L 1159 4863 
L 1159 2956 
Q 1366 3272 1645 3428 
Q 1925 3584 2291 3584 
Q 2894 3584 3203 3211 
Q 3513 2838 3513 2113 
z
" transform="scale(0.015625)"/>
      </defs>
      <use xlink:href="#DejaVuSans-50"/>
      <use xlink:href="#DejaVuSans-68" x="60.302734"/>
      <use xlink:href="#DejaVuSans-61" x="123.681641"/>
      <use xlink:href="#DejaVuSans-73" x="184.960938"/>
      <use xlink:href="#DejaVuSans-65" x="237.060547"/>
      <use xlink:href="#DejaVuSans-20" x="298.583984"/>
      <use xlink:href="#DejaVuSans-28" x="330.371094"/>
      <use xlink:href="#DejaVuSans-72" x="369.384766"/>
      <use xlink:href="#DejaVuSans-61" x="410.498047"/>
      <use xlink:href="#DejaVuSans-64" x="471.777344"/>
      <use xlink:href="#DejaVuSans-29" x="535.253906"/>
     </g>
    </g>
   </g>
   <g id="line2d_110">
    <path d="M 1919.949375 40.846314 
L 1928.485597 42.648309 
L 1937.021819 40.678477 
L 1945.55804 43.098279 
L 1954.094262 44.969317 
L 1962.630482 42.778656 
L 1971.166705 48.780708 
L 1979.702924 42.032694 
L 1988.23915 44.232072 
L 1996.775369 44.445671 
L 2005.311589 39.693131 
L 2013.847815 48.314126 
L 2022.384034 42.500281 
L 2030.92026 50.631558 
L 2039.456473 235.797632 
L 2047.992699 61.62423 
L 2056.528925 202.054457 
L 2065.065138 212.581937 
L 2073.601364 214.596939 
L 2082.137589 216.987152 
L 2090.673803 210.692449 
L 2099.210028 212.760964 
L 2107.746254 215.101433 
L 2116.282468 215.847848 
L 2124.818693 214.106184 
L 2116.282468 216.603929 
L 2107.746254 214.373709 
L 2099.210028 217.401817 
L 2090.673803 211.132199 
L 2082.137589 213.465541 
L 2073.601364 214.924117 
L 2065.065138 213.481838 
L 2056.528925 216.016876 
L 2047.992699 214.209496 
L 2039.456473 215.6912 
L 2030.92026 213.176522 
L 2022.384034 215.783319 
L 2013.847815 216.062124 
L 2005.311589 214.067846 
L 1996.775369 214.763698 
L 1988.23915 214.33287 
L 1979.702924 214.793524 
L 1971.166705 217.362332 
L 1962.630482 216.14568 
L 1954.094262 215.63279 
L 1945.55804 217.113576 
L 1928.485597 217.406353 
L 1919.949375 215.721829 
L 1911.413153 215.711246 
L 1902.876931 218.715741 
L 1894.34071 215.555518 
L 1885.804488 216.83942 
L 1877.268268 212.365256 
L 1868.732045 216.686319 
L 1860.195826 214.692666 
L 1851.6596 215.307758 
L 1843.123381 376.108842 
L 1834.587161 379.885692 
L 1826.050935 44.270449 
L 1817.514716 42.445553 
L 1808.97849 39.4675 
L 1800.442277 42.139501 
L 1791.906051 42.041698 
L 1783.369825 42.170871 
L 1774.833612 44.098319 
L 1766.297386 42.945645 
L 1757.761161 44.35331 
L 1749.224947 43.531247 
L 1740.688722 43.45812 
L 1732.152496 41.957714 
L 1723.616282 43.578419 
L 1715.080057 42.966627 
L 1723.616282 43.539611 
L 1732.152496 44.90706 
L 1740.688722 42.431538 
L 1749.224947 45.059864 
L 1757.761161 44.975763 
L 1766.297386 44.428199 
L 1774.833612 43.035252 
L 1783.369825 44.709419 
L 1791.906051 43.476323 
L 1800.442277 44.581825 
L 1808.97849 43.658109 
L 1817.514716 41.642136 
L 1826.050935 42.876837 
L 1834.587161 42.306685 
L 1843.123381 42.758104 
L 1851.6596 43.027488 
L 1868.732045 44.249309 
L 1877.268268 45.492374 
L 1885.804488 42.440098 
L 1894.34071 43.454231 
L 1902.876931 44.732842 
L 1911.413153 43.401317 
L 1919.949375 44.098815 
L 1928.485597 44.609072 
L 1937.021819 45.548211 
L 1945.55804 43.450825 
L 1954.094262 43.57363 
L 1962.630482 43.161645 
L 1971.166705 43.366202 
L 1979.702924 47.304821 
L 1988.23915 44.319331 
L 1996.775369 43.732659 
L 2013.847815 45.792137 
L 2022.384034 381.6675 
L 2030.92026 144.570632 
L 2039.456473 353.386292 
L 2047.992699 213.839364 
L 2056.528925 214.021872 
L 2065.065138 211.918624 
L 2073.601364 209.983925 
L 2082.137589 217.901965 
L 2090.673803 216.787726 
L 2099.210028 217.294906 
L 2107.746254 215.828522 
L 2116.282468 216.6853 
L 2124.818693 218.233412 
L 2116.282468 217.133734 
L 2107.746254 216.882493 
L 2099.210028 213.032218 
L 2090.673803 217.970269 
L 2082.137589 214.324002 
L 2073.601364 216.68302 
L 2065.065138 216.955115 
L 2056.528925 216.353305 
L 2047.992699 215.429455 
L 2039.456473 216.284019 
L 2022.384034 214.697444 
L 2013.847815 216.44661 
L 2005.311589 217.989465 
L 1996.775369 218.065422 
L 1988.23915 214.848667 
L 1979.702924 217.419721 
L 1971.166705 218.462598 
L 1962.630482 217.978806 
L 1954.094262 213.987684 
L 1945.55804 216.102275 
L 1937.021819 218.441124 
L 1928.485597 214.625198 
L 1919.949375 216.479254 
L 1911.413153 214.071627 
L 1902.876931 216.686089 
L 1894.34071 218.155824 
L 1877.268268 217.474174 
L 1868.732045 214.555946 
L 1860.195826 216.143283 
L 1851.6596 220.657505 
L 1843.123381 96.894727 
L 1834.587161 51.934231 
L 1826.050935 42.061507 
L 1817.514716 45.566206 
L 1808.97849 41.615386 
L 1800.442277 43.393566 
L 1791.906051 42.824145 
L 1783.369825 44.623452 
L 1774.833612 42.691514 
L 1766.297386 42.611106 
L 1757.761161 43.556235 
L 1749.224947 43.73964 
L 1740.688722 42.791118 
L 1723.616282 45.017102 
L 1715.080057 43.893566 
L 1723.616282 45.058768 
L 1732.152496 43.641093 
L 1740.688722 45.689898 
L 1749.224947 46.030556 
L 1757.761161 44.985262 
L 1766.297386 43.808721 
L 1774.833612 42.750861 
L 1791.906051 44.20827 
L 1800.442277 43.819983 
L 1808.97849 42.346406 
L 1817.514716 45.553444 
L 1826.050935 43.873288 
L 1834.587161 44.433666 
L 1843.123381 43.102638 
L 1851.6596 45.048302 
L 1860.195826 46.875808 
L 1868.732045 42.645073 
L 1877.268268 46.259815 
L 1885.804488 46.082557 
L 1894.34071 43.290753 
L 1902.876931 43.887668 
L 1911.413153 43.268765 
L 1911.413153 43.268765 
" clip-path="url(#p9d3748170d)" style="fill: none; stroke: #1f77b4; stroke-width: 1.5; stroke-linecap: square"/>
   </g>
   <g id="patch_18">
    <path d="M 1694.593125 398.7775 
L 1694.593125 22.3575 
" style="fill: none; stroke: #000000; stroke-width: 0.8; stroke-linejoin: miter; stroke-linecap: square"/>
   </g>
   <g id="patch_19">
    <path d="M 2145.305625 398.7775 
L 2145.305625 22.3575 
" style="fill: none; stroke: #000000; stroke-width: 0.8; stroke-linejoin: miter; stroke-linecap: square"/>
   </g>
   <g id="patch_20">
    <path d="M 1694.593125 398.7775 
L 2145.305625 398.7775 
" style="fill: none; stroke: #000000; stroke-width: 0.8; stroke-linejoin: miter; stroke-linecap: square"/>
   </g>
   <g id="patch_21">
    <path d="M 1694.593125 22.3575 
L 2145.305625 22.3575 
" style="fill: none; stroke: #000000; stroke-width: 0.8; stroke-linejoin: miter; stroke-linecap: square"/>
   </g>
   <g id="text_62">
    <!-- Phase -->
    <g transform="translate(1902.034687 16.3575) scale(0.12 -0.12)">
     <use xlink:href="#DejaVuSans-50"/>
     <use xlink:href="#DejaVuSans-68" x="60.302734"/>
     <use xlink:href="#DejaVuSans-61" x="123.681641"/>
     <use xlink:href="#DejaVuSans-73" x="184.960938"/>
     <use xlink:href="#DejaVuSans-65" x="237.060547"/>
    </g>
   </g>
  </g>
 </g>
 <defs>
  <clipPath id="p0f4befbc1a">
   <rect x="98.285625" y="22.3575" width="450.7125" height="376.42"/>
  </clipPath>
  <clipPath id="pe40639f500">
   <rect x="630.388125" y="22.3575" width="450.7125" height="376.42"/>
  </clipPath>
  <clipPath id="p82f3ee0158">
   <rect x="1162.490625" y="22.3575" width="450.7125" height="376.42"/>
  </clipPath>
  <clipPath id="p9d3748170d">
   <rect x="1694.593125" y="22.3575" width="450.7125" height="376.42"/>
  </clipPath>
 </defs>
</svg>
