<?xml version="1.0" encoding="utf-8" standalone="no"?>
<!DOCTYPE svg PUBLIC "-//W3C//DTD SVG 1.1//EN"
  "http://www.w3.org/Graphics/SVG/1.1/DTD/svg11.dtd">
<svg xmlns:xlink="http://www.w3.org/1999/xlink" width="293.120697pt" height="100.89976pt" viewBox="0 0 293.120697 100.89976" xmlns="http://www.w3.org/2000/svg" version="1.1">
 <metadata>
  <rdf:RDF xmlns:dc="http://purl.org/dc/elements/1.1/" xmlns:cc="http://creativecommons.org/ns#" xmlns:rdf="http://www.w3.org/1999/02/22-rdf-syntax-ns#">
   <cc:Work>
    <dc:type rdf:resource="http://purl.org/dc/dcmitype/StillImage"/>
    <dc:date>2023-04-17T13:16:34.597606</dc:date>
    <dc:format>image/svg+xml</dc:format>
    <dc:creator>
     <cc:Agent>
      <dc:title>Matplotlib v3.7.1, https://matplotlib.org/</dc:title>
     </cc:Agent>
    </dc:creator>
   </cc:Work>
  </rdf:RDF>
 </metadata>
 <defs>
  <style type="text/css">*{stroke-linejoin: round; stroke-linecap: butt}</style>
 </defs>
 <g id="figure_1">
  <g id="patch_1">
   <path d="M 0 100.89976 
L 293.120697 100.89976 
L 293.120697 0 
L 0 0 
z
" style="fill: #ffffff"/>
  </g>
  <g id="axes_1">
   <g id="patch_2">
    <path d="M 23.688125 75.553823 
L 82.742489 75.553823 
L 82.742489 16.499459 
L 23.688125 16.499459 
z
" style="fill: #ffffff"/>
   </g>
   <g id="matplotlib.axis_1">
    <g id="xtick_1">
     <g id="line2d_1">
      <defs>
       <path id="m3c00b50723" d="M 0 0 
L 0 -3.5 
" style="stroke: #000000; stroke-width: 0.8"/>
      </defs>
      <g>
       <use xlink:href="#m3c00b50723" x="50.061231" y="75.553823" style="stroke: #000000; stroke-width: 0.8"/>
      </g>
     </g>
     <g id="line2d_2">
      <defs>
       <path id="m461e9e0266" d="M 0 0 
L 0 3.5 
" style="stroke: #000000; stroke-width: 0.8"/>
      </defs>
      <g>
       <use xlink:href="#m461e9e0266" x="50.061231" y="16.499459" style="stroke: #000000; stroke-width: 0.8"/>
      </g>
     </g>
     <g id="text_1">
      <!-- 1.3 -->
      <g transform="translate(46.08545 82.853041) scale(0.05 -0.05)">
       <defs>
        <path id="DejaVuSans-31" d="M 794 531 
L 1825 531 
L 1825 4091 
L 703 3866 
L 703 4441 
L 1819 4666 
L 2450 4666 
L 2450 531 
L 3481 531 
L 3481 0 
L 794 0 
L 794 531 
z
" transform="scale(0.015625)"/>
        <path id="DejaVuSans-2e" d="M 684 794 
L 1344 794 
L 1344 0 
L 684 0 
L 684 794 
z
" transform="scale(0.015625)"/>
        <path id="DejaVuSans-33" d="M 2597 2516 
Q 3050 2419 3304 2112 
Q 3559 1806 3559 1356 
Q 3559 666 3084 287 
Q 2609 -91 1734 -91 
Q 1441 -91 1130 -33 
Q 819 25 488 141 
L 488 750 
Q 750 597 1062 519 
Q 1375 441 1716 441 
Q 2309 441 2620 675 
Q 2931 909 2931 1356 
Q 2931 1769 2642 2001 
Q 2353 2234 1838 2234 
L 1294 2234 
L 1294 2753 
L 1863 2753 
Q 2328 2753 2575 2939 
Q 2822 3125 2822 3475 
Q 2822 3834 2567 4026 
Q 2313 4219 1838 4219 
Q 1578 4219 1281 4162 
Q 984 4106 628 3988 
L 628 4550 
Q 988 4650 1302 4700 
Q 1616 4750 1894 4750 
Q 2613 4750 3031 4423 
Q 3450 4097 3450 3541 
Q 3450 3153 3228 2886 
Q 3006 2619 2597 2516 
z
" transform="scale(0.015625)"/>
       </defs>
       <use xlink:href="#DejaVuSans-31"/>
       <use xlink:href="#DejaVuSans-2e" x="63.623047"/>
       <use xlink:href="#DejaVuSans-33" x="95.410156"/>
      </g>
     </g>
    </g>
    <g id="xtick_2">
     <g id="line2d_3">
      <g>
       <use xlink:href="#m3c00b50723" x="79.96654" y="75.553823" style="stroke: #000000; stroke-width: 0.8"/>
      </g>
     </g>
     <g id="line2d_4">
      <g>
       <use xlink:href="#m461e9e0266" x="79.96654" y="16.499459" style="stroke: #000000; stroke-width: 0.8"/>
      </g>
     </g>
     <g id="text_2">
      <!-- 1.4 -->
      <g transform="translate(75.990758 82.853041) scale(0.05 -0.05)">
       <defs>
        <path id="DejaVuSans-34" d="M 2419 4116 
L 825 1625 
L 2419 1625 
L 2419 4116 
z
M 2253 4666 
L 3047 4666 
L 3047 1625 
L 3713 1625 
L 3713 1100 
L 3047 1100 
L 3047 0 
L 2419 0 
L 2419 1100 
L 313 1100 
L 313 1709 
L 2253 4666 
z
" transform="scale(0.015625)"/>
       </defs>
       <use xlink:href="#DejaVuSans-31"/>
       <use xlink:href="#DejaVuSans-2e" x="63.623047"/>
       <use xlink:href="#DejaVuSans-34" x="95.410156"/>
      </g>
     </g>
    </g>
    <g id="text_3">
     <!-- Voltage Steps -->
     <g transform="translate(32.614213 92.451948) scale(0.06 -0.06)">
      <defs>
       <path id="DejaVuSans-56" d="M 1831 0 
L 50 4666 
L 709 4666 
L 2188 738 
L 3669 4666 
L 4325 4666 
L 2547 0 
L 1831 0 
z
" transform="scale(0.015625)"/>
       <path id="DejaVuSans-6f" d="M 1959 3097 
Q 1497 3097 1228 2736 
Q 959 2375 959 1747 
Q 959 1119 1226 758 
Q 1494 397 1959 397 
Q 2419 397 2687 759 
Q 2956 1122 2956 1747 
Q 2956 2369 2687 2733 
Q 2419 3097 1959 3097 
z
M 1959 3584 
Q 2709 3584 3137 3096 
Q 3566 2609 3566 1747 
Q 3566 888 3137 398 
Q 2709 -91 1959 -91 
Q 1206 -91 779 398 
Q 353 888 353 1747 
Q 353 2609 779 3096 
Q 1206 3584 1959 3584 
z
" transform="scale(0.015625)"/>
       <path id="DejaVuSans-6c" d="M 603 4863 
L 1178 4863 
L 1178 0 
L 603 0 
L 603 4863 
z
" transform="scale(0.015625)"/>
       <path id="DejaVuSans-74" d="M 1172 4494 
L 1172 3500 
L 2356 3500 
L 2356 3053 
L 1172 3053 
L 1172 1153 
Q 1172 725 1289 603 
Q 1406 481 1766 481 
L 2356 481 
L 2356 0 
L 1766 0 
Q 1100 0 847 248 
Q 594 497 594 1153 
L 594 3053 
L 172 3053 
L 172 3500 
L 594 3500 
L 594 4494 
L 1172 4494 
z
" transform="scale(0.015625)"/>
       <path id="DejaVuSans-61" d="M 2194 1759 
Q 1497 1759 1228 1600 
Q 959 1441 959 1056 
Q 959 750 1161 570 
Q 1363 391 1709 391 
Q 2188 391 2477 730 
Q 2766 1069 2766 1631 
L 2766 1759 
L 2194 1759 
z
M 3341 1997 
L 3341 0 
L 2766 0 
L 2766 531 
Q 2569 213 2275 61 
Q 1981 -91 1556 -91 
Q 1019 -91 701 211 
Q 384 513 384 1019 
Q 384 1609 779 1909 
Q 1175 2209 1959 2209 
L 2766 2209 
L 2766 2266 
Q 2766 2663 2505 2880 
Q 2244 3097 1772 3097 
Q 1472 3097 1187 3025 
Q 903 2953 641 2809 
L 641 3341 
Q 956 3463 1253 3523 
Q 1550 3584 1831 3584 
Q 2591 3584 2966 3190 
Q 3341 2797 3341 1997 
z
" transform="scale(0.015625)"/>
       <path id="DejaVuSans-67" d="M 2906 1791 
Q 2906 2416 2648 2759 
Q 2391 3103 1925 3103 
Q 1463 3103 1205 2759 
Q 947 2416 947 1791 
Q 947 1169 1205 825 
Q 1463 481 1925 481 
Q 2391 481 2648 825 
Q 2906 1169 2906 1791 
z
M 3481 434 
Q 3481 -459 3084 -895 
Q 2688 -1331 1869 -1331 
Q 1566 -1331 1297 -1286 
Q 1028 -1241 775 -1147 
L 775 -588 
Q 1028 -725 1275 -790 
Q 1522 -856 1778 -856 
Q 2344 -856 2625 -561 
Q 2906 -266 2906 331 
L 2906 616 
Q 2728 306 2450 153 
Q 2172 0 1784 0 
Q 1141 0 747 490 
Q 353 981 353 1791 
Q 353 2603 747 3093 
Q 1141 3584 1784 3584 
Q 2172 3584 2450 3431 
Q 2728 3278 2906 2969 
L 2906 3500 
L 3481 3500 
L 3481 434 
z
" transform="scale(0.015625)"/>
       <path id="DejaVuSans-65" d="M 3597 1894 
L 3597 1613 
L 953 1613 
Q 991 1019 1311 708 
Q 1631 397 2203 397 
Q 2534 397 2845 478 
Q 3156 559 3463 722 
L 3463 178 
Q 3153 47 2828 -22 
Q 2503 -91 2169 -91 
Q 1331 -91 842 396 
Q 353 884 353 1716 
Q 353 2575 817 3079 
Q 1281 3584 2069 3584 
Q 2775 3584 3186 3129 
Q 3597 2675 3597 1894 
z
M 3022 2063 
Q 3016 2534 2758 2815 
Q 2500 3097 2075 3097 
Q 1594 3097 1305 2825 
Q 1016 2553 972 2059 
L 3022 2063 
z
" transform="scale(0.015625)"/>
       <path id="DejaVuSans-20" transform="scale(0.015625)"/>
       <path id="DejaVuSans-53" d="M 3425 4513 
L 3425 3897 
Q 3066 4069 2747 4153 
Q 2428 4238 2131 4238 
Q 1616 4238 1336 4038 
Q 1056 3838 1056 3469 
Q 1056 3159 1242 3001 
Q 1428 2844 1947 2747 
L 2328 2669 
Q 3034 2534 3370 2195 
Q 3706 1856 3706 1288 
Q 3706 609 3251 259 
Q 2797 -91 1919 -91 
Q 1588 -91 1214 -16 
Q 841 59 441 206 
L 441 856 
Q 825 641 1194 531 
Q 1563 422 1919 422 
Q 2459 422 2753 634 
Q 3047 847 3047 1241 
Q 3047 1584 2836 1778 
Q 2625 1972 2144 2069 
L 1759 2144 
Q 1053 2284 737 2584 
Q 422 2884 422 3419 
Q 422 4038 858 4394 
Q 1294 4750 2059 4750 
Q 2388 4750 2728 4690 
Q 3069 4631 3425 4513 
z
" transform="scale(0.015625)"/>
       <path id="DejaVuSans-70" d="M 1159 525 
L 1159 -1331 
L 581 -1331 
L 581 3500 
L 1159 3500 
L 1159 2969 
Q 1341 3281 1617 3432 
Q 1894 3584 2278 3584 
Q 2916 3584 3314 3078 
Q 3713 2572 3713 1747 
Q 3713 922 3314 415 
Q 2916 -91 2278 -91 
Q 1894 -91 1617 61 
Q 1341 213 1159 525 
z
M 3116 1747 
Q 3116 2381 2855 2742 
Q 2594 3103 2138 3103 
Q 1681 3103 1420 2742 
Q 1159 2381 1159 1747 
Q 1159 1113 1420 752 
Q 1681 391 2138 391 
Q 2594 391 2855 752 
Q 3116 1113 3116 1747 
z
" transform="scale(0.015625)"/>
       <path id="DejaVuSans-73" d="M 2834 3397 
L 2834 2853 
Q 2591 2978 2328 3040 
Q 2066 3103 1784 3103 
Q 1356 3103 1142 2972 
Q 928 2841 928 2578 
Q 928 2378 1081 2264 
Q 1234 2150 1697 2047 
L 1894 2003 
Q 2506 1872 2764 1633 
Q 3022 1394 3022 966 
Q 3022 478 2636 193 
Q 2250 -91 1575 -91 
Q 1294 -91 989 -36 
Q 684 19 347 128 
L 347 722 
Q 666 556 975 473 
Q 1284 391 1588 391 
Q 1994 391 2212 530 
Q 2431 669 2431 922 
Q 2431 1156 2273 1281 
Q 2116 1406 1581 1522 
L 1381 1569 
Q 847 1681 609 1914 
Q 372 2147 372 2553 
Q 372 3047 722 3315 
Q 1072 3584 1716 3584 
Q 2034 3584 2315 3537 
Q 2597 3491 2834 3397 
z
" transform="scale(0.015625)"/>
      </defs>
      <use xlink:href="#DejaVuSans-56"/>
      <use xlink:href="#DejaVuSans-6f" x="60.658203"/>
      <use xlink:href="#DejaVuSans-6c" x="121.839844"/>
      <use xlink:href="#DejaVuSans-74" x="149.623047"/>
      <use xlink:href="#DejaVuSans-61" x="188.832031"/>
      <use xlink:href="#DejaVuSans-67" x="250.111328"/>
      <use xlink:href="#DejaVuSans-65" x="313.587891"/>
      <use xlink:href="#DejaVuSans-20" x="375.111328"/>
      <use xlink:href="#DejaVuSans-53" x="406.898438"/>
      <use xlink:href="#DejaVuSans-74" x="470.375"/>
      <use xlink:href="#DejaVuSans-65" x="509.583984"/>
      <use xlink:href="#DejaVuSans-70" x="571.107422"/>
      <use xlink:href="#DejaVuSans-73" x="634.583984"/>
     </g>
    </g>
    <g id="text_4">
     <!-- 1e6 -->
     <g transform="translate(73.303426 90.692104) scale(0.05 -0.05)">
      <defs>
       <path id="DejaVuSans-36" d="M 2113 2584 
Q 1688 2584 1439 2293 
Q 1191 2003 1191 1497 
Q 1191 994 1439 701 
Q 1688 409 2113 409 
Q 2538 409 2786 701 
Q 3034 994 3034 1497 
Q 3034 2003 2786 2293 
Q 2538 2584 2113 2584 
z
M 3366 4563 
L 3366 3988 
Q 3128 4100 2886 4159 
Q 2644 4219 2406 4219 
Q 1781 4219 1451 3797 
Q 1122 3375 1075 2522 
Q 1259 2794 1537 2939 
Q 1816 3084 2150 3084 
Q 2853 3084 3261 2657 
Q 3669 2231 3669 1497 
Q 3669 778 3244 343 
Q 2819 -91 2113 -91 
Q 1303 -91 875 529 
Q 447 1150 447 2328 
Q 447 3434 972 4092 
Q 1497 4750 2381 4750 
Q 2619 4750 2861 4703 
Q 3103 4656 3366 4563 
z
" transform="scale(0.015625)"/>
      </defs>
      <use xlink:href="#DejaVuSans-31"/>
      <use xlink:href="#DejaVuSans-65" x="63.623047"/>
      <use xlink:href="#DejaVuSans-36" x="125.146484"/>
     </g>
    </g>
   </g>
   <g id="matplotlib.axis_2">
    <g id="ytick_1">
     <g id="line2d_5">
      <defs>
       <path id="mdc7fc3c605" d="M 0 0 
L 3.5 0 
" style="stroke: #000000; stroke-width: 0.8"/>
      </defs>
      <g>
       <use xlink:href="#mdc7fc3c605" x="23.688125" y="73.219396" style="stroke: #000000; stroke-width: 0.8"/>
      </g>
     </g>
     <g id="text_5">
      <!-- 0 -->
      <g transform="translate(17.006875 75.119006) scale(0.05 -0.05)">
       <defs>
        <path id="DejaVuSans-30" d="M 2034 4250 
Q 1547 4250 1301 3770 
Q 1056 3291 1056 2328 
Q 1056 1369 1301 889 
Q 1547 409 2034 409 
Q 2525 409 2770 889 
Q 3016 1369 3016 2328 
Q 3016 3291 2770 3770 
Q 2525 4250 2034 4250 
z
M 2034 4750 
Q 2819 4750 3233 4129 
Q 3647 3509 3647 2328 
Q 3647 1150 3233 529 
Q 2819 -91 2034 -91 
Q 1250 -91 836 529 
Q 422 1150 422 2328 
Q 422 3509 836 4129 
Q 1250 4750 2034 4750 
z
" transform="scale(0.015625)"/>
       </defs>
       <use xlink:href="#DejaVuSans-30"/>
      </g>
     </g>
    </g>
    <g id="ytick_2">
     <g id="line2d_6">
      <g>
       <use xlink:href="#mdc7fc3c605" x="23.688125" y="52.380125" style="stroke: #000000; stroke-width: 0.8"/>
      </g>
     </g>
     <g id="text_6">
      <!-- 1 -->
      <g transform="translate(17.006875 54.279735) scale(0.05 -0.05)">
       <use xlink:href="#DejaVuSans-31"/>
      </g>
     </g>
    </g>
    <g id="ytick_3">
     <g id="line2d_7">
      <g>
       <use xlink:href="#mdc7fc3c605" x="23.688125" y="31.540854" style="stroke: #000000; stroke-width: 0.8"/>
      </g>
     </g>
     <g id="text_7">
      <!-- 2 -->
      <g transform="translate(17.006875 33.440464) scale(0.05 -0.05)">
       <defs>
        <path id="DejaVuSans-32" d="M 1228 531 
L 3431 531 
L 3431 0 
L 469 0 
L 469 531 
Q 828 903 1448 1529 
Q 2069 2156 2228 2338 
Q 2531 2678 2651 2914 
Q 2772 3150 2772 3378 
Q 2772 3750 2511 3984 
Q 2250 4219 1831 4219 
Q 1534 4219 1204 4116 
Q 875 4013 500 3803 
L 500 4441 
Q 881 4594 1212 4672 
Q 1544 4750 1819 4750 
Q 2544 4750 2975 4387 
Q 3406 4025 3406 3419 
Q 3406 3131 3298 2873 
Q 3191 2616 2906 2266 
Q 2828 2175 2409 1742 
Q 1991 1309 1228 531 
z
" transform="scale(0.015625)"/>
       </defs>
       <use xlink:href="#DejaVuSans-32"/>
      </g>
     </g>
    </g>
    <g id="text_8">
     <!-- Amplitude (Arb. U.) -->
     <g transform="translate(11.759063 74.940547) rotate(-90) scale(0.06 -0.06)">
      <defs>
       <path id="DejaVuSans-41" d="M 2188 4044 
L 1331 1722 
L 3047 1722 
L 2188 4044 
z
M 1831 4666 
L 2547 4666 
L 4325 0 
L 3669 0 
L 3244 1197 
L 1141 1197 
L 716 0 
L 50 0 
L 1831 4666 
z
" transform="scale(0.015625)"/>
       <path id="DejaVuSans-6d" d="M 3328 2828 
Q 3544 3216 3844 3400 
Q 4144 3584 4550 3584 
Q 5097 3584 5394 3201 
Q 5691 2819 5691 2113 
L 5691 0 
L 5113 0 
L 5113 2094 
Q 5113 2597 4934 2840 
Q 4756 3084 4391 3084 
Q 3944 3084 3684 2787 
Q 3425 2491 3425 1978 
L 3425 0 
L 2847 0 
L 2847 2094 
Q 2847 2600 2669 2842 
Q 2491 3084 2119 3084 
Q 1678 3084 1418 2786 
Q 1159 2488 1159 1978 
L 1159 0 
L 581 0 
L 581 3500 
L 1159 3500 
L 1159 2956 
Q 1356 3278 1631 3431 
Q 1906 3584 2284 3584 
Q 2666 3584 2933 3390 
Q 3200 3197 3328 2828 
z
" transform="scale(0.015625)"/>
       <path id="DejaVuSans-69" d="M 603 3500 
L 1178 3500 
L 1178 0 
L 603 0 
L 603 3500 
z
M 603 4863 
L 1178 4863 
L 1178 4134 
L 603 4134 
L 603 4863 
z
" transform="scale(0.015625)"/>
       <path id="DejaVuSans-75" d="M 544 1381 
L 544 3500 
L 1119 3500 
L 1119 1403 
Q 1119 906 1312 657 
Q 1506 409 1894 409 
Q 2359 409 2629 706 
Q 2900 1003 2900 1516 
L 2900 3500 
L 3475 3500 
L 3475 0 
L 2900 0 
L 2900 538 
Q 2691 219 2414 64 
Q 2138 -91 1772 -91 
Q 1169 -91 856 284 
Q 544 659 544 1381 
z
M 1991 3584 
L 1991 3584 
z
" transform="scale(0.015625)"/>
       <path id="DejaVuSans-64" d="M 2906 2969 
L 2906 4863 
L 3481 4863 
L 3481 0 
L 2906 0 
L 2906 525 
Q 2725 213 2448 61 
Q 2172 -91 1784 -91 
Q 1150 -91 751 415 
Q 353 922 353 1747 
Q 353 2572 751 3078 
Q 1150 3584 1784 3584 
Q 2172 3584 2448 3432 
Q 2725 3281 2906 2969 
z
M 947 1747 
Q 947 1113 1208 752 
Q 1469 391 1925 391 
Q 2381 391 2643 752 
Q 2906 1113 2906 1747 
Q 2906 2381 2643 2742 
Q 2381 3103 1925 3103 
Q 1469 3103 1208 2742 
Q 947 2381 947 1747 
z
" transform="scale(0.015625)"/>
       <path id="DejaVuSans-28" d="M 1984 4856 
Q 1566 4138 1362 3434 
Q 1159 2731 1159 2009 
Q 1159 1288 1364 580 
Q 1569 -128 1984 -844 
L 1484 -844 
Q 1016 -109 783 600 
Q 550 1309 550 2009 
Q 550 2706 781 3412 
Q 1013 4119 1484 4856 
L 1984 4856 
z
" transform="scale(0.015625)"/>
       <path id="DejaVuSans-72" d="M 2631 2963 
Q 2534 3019 2420 3045 
Q 2306 3072 2169 3072 
Q 1681 3072 1420 2755 
Q 1159 2438 1159 1844 
L 1159 0 
L 581 0 
L 581 3500 
L 1159 3500 
L 1159 2956 
Q 1341 3275 1631 3429 
Q 1922 3584 2338 3584 
Q 2397 3584 2469 3576 
Q 2541 3569 2628 3553 
L 2631 2963 
z
" transform="scale(0.015625)"/>
       <path id="DejaVuSans-62" d="M 3116 1747 
Q 3116 2381 2855 2742 
Q 2594 3103 2138 3103 
Q 1681 3103 1420 2742 
Q 1159 2381 1159 1747 
Q 1159 1113 1420 752 
Q 1681 391 2138 391 
Q 2594 391 2855 752 
Q 3116 1113 3116 1747 
z
M 1159 2969 
Q 1341 3281 1617 3432 
Q 1894 3584 2278 3584 
Q 2916 3584 3314 3078 
Q 3713 2572 3713 1747 
Q 3713 922 3314 415 
Q 2916 -91 2278 -91 
Q 1894 -91 1617 61 
Q 1341 213 1159 525 
L 1159 0 
L 581 0 
L 581 4863 
L 1159 4863 
L 1159 2969 
z
" transform="scale(0.015625)"/>
       <path id="DejaVuSans-55" d="M 556 4666 
L 1191 4666 
L 1191 1831 
Q 1191 1081 1462 751 
Q 1734 422 2344 422 
Q 2950 422 3222 751 
Q 3494 1081 3494 1831 
L 3494 4666 
L 4128 4666 
L 4128 1753 
Q 4128 841 3676 375 
Q 3225 -91 2344 -91 
Q 1459 -91 1007 375 
Q 556 841 556 1753 
L 556 4666 
z
" transform="scale(0.015625)"/>
       <path id="DejaVuSans-29" d="M 513 4856 
L 1013 4856 
Q 1481 4119 1714 3412 
Q 1947 2706 1947 2009 
Q 1947 1309 1714 600 
Q 1481 -109 1013 -844 
L 513 -844 
Q 928 -128 1133 580 
Q 1338 1288 1338 2009 
Q 1338 2731 1133 3434 
Q 928 4138 513 4856 
z
" transform="scale(0.015625)"/>
      </defs>
      <use xlink:href="#DejaVuSans-41"/>
      <use xlink:href="#DejaVuSans-6d" x="68.408203"/>
      <use xlink:href="#DejaVuSans-70" x="165.820312"/>
      <use xlink:href="#DejaVuSans-6c" x="229.296875"/>
      <use xlink:href="#DejaVuSans-69" x="257.080078"/>
      <use xlink:href="#DejaVuSans-74" x="284.863281"/>
      <use xlink:href="#DejaVuSans-75" x="324.072266"/>
      <use xlink:href="#DejaVuSans-64" x="387.451172"/>
      <use xlink:href="#DejaVuSans-65" x="450.927734"/>
      <use xlink:href="#DejaVuSans-20" x="512.451172"/>
      <use xlink:href="#DejaVuSans-28" x="544.238281"/>
      <use xlink:href="#DejaVuSans-41" x="583.251953"/>
      <use xlink:href="#DejaVuSans-72" x="651.660156"/>
      <use xlink:href="#DejaVuSans-62" x="692.773438"/>
      <use xlink:href="#DejaVuSans-2e" x="756.25"/>
      <use xlink:href="#DejaVuSans-20" x="788.037109"/>
      <use xlink:href="#DejaVuSans-55" x="819.824219"/>
      <use xlink:href="#DejaVuSans-2e" x="893.017578"/>
      <use xlink:href="#DejaVuSans-29" x="924.804688"/>
     </g>
    </g>
    <g id="text_9">
     <!-- 1e−2 -->
     <g transform="translate(23.688125 13.499459) scale(0.05 -0.05)">
      <defs>
       <path id="DejaVuSans-2212" d="M 678 2272 
L 4684 2272 
L 4684 1741 
L 678 1741 
L 678 2272 
z
" transform="scale(0.015625)"/>
      </defs>
      <use xlink:href="#DejaVuSans-31"/>
      <use xlink:href="#DejaVuSans-65" x="63.623047"/>
      <use xlink:href="#DejaVuSans-2212" x="125.146484"/>
      <use xlink:href="#DejaVuSans-32" x="208.935547"/>
     </g>
    </g>
   </g>
   <g id="line2d_8">
    <path d="M 28.975671 72.047862 
L 29.559722 70.581887 
L 29.851785 72.863041 
L 30.143847 69.46073 
L 30.435873 70.321515 
L 30.727898 69.511627 
L 31.019961 71.693082 
L 31.312024 72.509363 
L 31.604049 72.29341 
L 31.896074 72.869533 
L 32.188137 71.811549 
L 32.4802 71.222628 
L 32.772225 70.019731 
L 33.06425 72.310538 
L 33.356313 71.034336 
L 33.940401 72.027143 
L 34.232426 71.86452 
L 34.524489 70.848334 
L 34.816552 72.357871 
L 35.108577 71.182393 
L 35.400603 71.358156 
L 35.692665 70.032153 
L 35.984728 70.15801 
L 36.276753 72.306628 
L 36.568779 71.845352 
L 36.860841 69.046238 
L 37.152904 72.236849 
L 37.444929 69.026288 
L 37.736955 72.066185 
L 38.029017 71.389042 
L 38.32108 69.665549 
L 38.905131 69.979566 
L 39.197194 69.554098 
L 39.489256 70.584999 
L 39.781282 70.728563 
L 40.073307 68.970073 
L 40.36537 69.670102 
L 40.657432 72.048677 
L 40.949458 70.364585 
L 41.241483 71.885209 
L 41.533546 71.321751 
L 41.825609 72.802069 
L 42.117634 69.272672 
L 42.701722 68.034104 
L 43.28581 70.218684 
L 43.577835 67.860649 
L 43.869898 70.624494 
L 44.161961 69.868547 
L 44.453986 69.698473 
L 44.746011 68.209494 
L 45.038074 69.234492 
L 45.330137 69.208465 
L 45.622162 67.79766 
L 45.914188 68.168013 
L 46.498313 70.824573 
L 46.790338 67.77758 
L 47.082364 67.003726 
L 47.374426 67.13384 
L 47.666489 67.68585 
L 47.958514 67.776571 
L 48.25054 69.084258 
L 48.834665 67.07102 
L 49.126691 67.395961 
L 49.710779 65.426557 
L 50.002841 65.706139 
L 50.294867 65.546777 
L 50.586892 65.546505 
L 50.878955 63.971818 
L 51.171017 65.946257 
L 51.755068 61.958219 
L 52.047131 61.154101 
L 52.339193 62.134629 
L 52.631219 59.489374 
L 52.923244 59.657947 
L 53.215307 58.814875 
L 54.383483 52.97319 
L 54.675546 50.449086 
L 55.843722 31.706263 
L 56.427772 19.516255 
L 56.719835 19.802004 
L 57.011898 22.367745 
L 57.595949 34.72408 
L 57.888011 36.043698 
L 58.180074 43.932495 
L 58.472099 45.82852 
L 58.764125 49.289536 
L 59.056187 50.211276 
L 59.34825 54.386097 
L 59.640275 53.30797 
L 60.224364 60.886672 
L 60.516426 59.332478 
L 60.808452 61.824273 
L 61.100477 61.166213 
L 61.39254 61.632906 
L 61.976628 64.017039 
L 62.268653 64.902135 
L 62.560716 64.431522 
L 62.852778 64.862247 
L 63.144804 64.486381 
L 63.436829 65.294243 
L 64.020955 65.732222 
L 64.605005 64.212751 
L 64.897068 66.355919 
L 65.189131 67.113932 
L 65.481156 65.238922 
L 65.773181 68.417612 
L 66.065244 67.92543 
L 66.357307 67.160459 
L 66.649332 67.101347 
L 66.941357 70.014177 
L 67.23342 66.560214 
L 67.525483 65.210734 
L 67.817508 67.896976 
L 68.109534 66.490229 
L 68.401596 68.081953 
L 68.985684 68.824012 
L 69.27771 67.851232 
L 69.861835 69.091207 
L 70.445886 70.149536 
L 70.737948 68.045731 
L 71.030011 69.765575 
L 71.322037 68.295377 
L 71.614062 70.141044 
L 71.906125 70.949548 
L 72.198187 69.508118 
L 72.490213 70.513393 
L 72.782238 69.537138 
L 73.074301 69.466967 
L 73.366363 68.767124 
L 73.658389 71.738854 
L 73.950414 70.495413 
L 74.242477 70.441755 
L 74.53454 70.779774 
L 74.826565 69.401138 
L 75.11859 69.04388 
L 75.410653 70.18988 
L 75.702716 69.703358 
L 75.994741 70.159924 
L 76.286766 72.274971 
L 76.578829 69.777897 
L 76.870892 70.309983 
L 76.870892 70.309983 
" clip-path="url(#p8a8f51c7c0)" style="fill: none; stroke: #0000ff; stroke-width: 0.5; stroke-linecap: square"/>
   </g>
   <g id="line2d_9">
    <defs>
     <path id="mf6187c2901" d="M 0 0.25 
C 0.066301 0.25 0.129895 0.223658 0.176777 0.176777 
C 0.223658 0.129895 0.25 0.066301 0.25 0 
C 0.25 -0.066301 0.223658 -0.129895 0.176777 -0.176777 
C 0.129895 -0.223658 0.066301 -0.25 0 -0.25 
C -0.066301 -0.25 -0.129895 -0.223658 -0.176777 -0.176777 
C -0.223658 -0.129895 -0.25 -0.066301 -0.25 0 
C -0.25 0.066301 -0.223658 0.129895 -0.176777 0.176777 
C -0.129895 0.223658 -0.066301 0.25 0 0.25 
z
" style="stroke: #0000ff"/>
    </defs>
    <g clip-path="url(#p8a8f51c7c0)">
     <use xlink:href="#mf6187c2901" x="41.241558" y="72.650933" style="fill: #0000ff; stroke: #0000ff"/>
     <use xlink:href="#mf6187c2901" x="26.372414" y="71.355189" style="fill: #0000ff; stroke: #0000ff"/>
     <use xlink:href="#mf6187c2901" x="31.883551" y="70.6574" style="fill: #0000ff; stroke: #0000ff"/>
     <use xlink:href="#mf6187c2901" x="29.666596" y="70.316242" style="fill: #0000ff; stroke: #0000ff"/>
     <use xlink:href="#mf6187c2901" x="32.191875" y="71.773666" style="fill: #0000ff; stroke: #0000ff"/>
     <use xlink:href="#mf6187c2901" x="31.370825" y="72.112273" style="fill: #0000ff; stroke: #0000ff"/>
     <use xlink:href="#mf6187c2901" x="33.077297" y="72.19017" style="fill: #0000ff; stroke: #0000ff"/>
     <use xlink:href="#mf6187c2901" x="32.797831" y="71.922474" style="fill: #0000ff; stroke: #0000ff"/>
     <use xlink:href="#mf6187c2901" x="34.117889" y="72.263222" style="fill: #0000ff; stroke: #0000ff"/>
     <use xlink:href="#mf6187c2901" x="34.128917" y="71.374249" style="fill: #0000ff; stroke: #0000ff"/>
     <use xlink:href="#mf6187c2901" x="35.221881" y="71.72373" style="fill: #0000ff; stroke: #0000ff"/>
     <use xlink:href="#mf6187c2901" x="35.415929" y="70.535064" style="fill: #0000ff; stroke: #0000ff"/>
     <use xlink:href="#mf6187c2901" x="36.357722" y="71.594876" style="fill: #0000ff; stroke: #0000ff"/>
     <use xlink:href="#mf6187c2901" x="36.679092" y="71.209587" style="fill: #0000ff; stroke: #0000ff"/>
     <use xlink:href="#mf6187c2901" x="37.511992" y="70.782723" style="fill: #0000ff; stroke: #0000ff"/>
     <use xlink:href="#mf6187c2901" x="37.927938" y="71.145806" style="fill: #0000ff; stroke: #0000ff"/>
     <use xlink:href="#mf6187c2901" x="38.677626" y="69.552732" style="fill: #0000ff; stroke: #0000ff"/>
     <use xlink:href="#mf6187c2901" x="39.167438" y="70.444567" style="fill: #0000ff; stroke: #0000ff"/>
     <use xlink:href="#mf6187c2901" x="39.850924" y="69.779269" style="fill: #0000ff; stroke: #0000ff"/>
     <use xlink:href="#mf6187c2901" x="40.400583" y="70.726619" style="fill: #0000ff; stroke: #0000ff"/>
     <use xlink:href="#mf6187c2901" x="41.029492" y="71.724269" style="fill: #0000ff; stroke: #0000ff"/>
     <use xlink:href="#mf6187c2901" x="41.629392" y="72.235058" style="fill: #0000ff; stroke: #0000ff"/>
     <use xlink:href="#mf6187c2901" x="42.211873" y="69.403349" style="fill: #0000ff; stroke: #0000ff"/>
     <use xlink:href="#mf6187c2901" x="42.854912" y="68.697635" style="fill: #0000ff; stroke: #0000ff"/>
     <use xlink:href="#mf6187c2901" x="43.39702" y="69.66119" style="fill: #0000ff; stroke: #0000ff"/>
     <use xlink:href="#mf6187c2901" x="44.077964" y="69.79932" style="fill: #0000ff; stroke: #0000ff"/>
     <use xlink:href="#mf6187c2901" x="44.584298" y="69.253956" style="fill: #0000ff; stroke: #0000ff"/>
     <use xlink:href="#mf6187c2901" x="45.299185" y="68.959897" style="fill: #0000ff; stroke: #0000ff"/>
     <use xlink:href="#mf6187c2901" x="45.773184" y="68.59348" style="fill: #0000ff; stroke: #0000ff"/>
     <use xlink:href="#mf6187c2901" x="46.519022" y="69.968667" style="fill: #0000ff; stroke: #0000ff"/>
     <use xlink:href="#mf6187c2901" x="46.963303" y="67.261501" style="fill: #0000ff; stroke: #0000ff"/>
     <use xlink:href="#mf6187c2901" x="47.737851" y="67.44519" style="fill: #0000ff; stroke: #0000ff"/>
     <use xlink:href="#mf6187c2901" x="48.154282" y="68.618825" style="fill: #0000ff; stroke: #0000ff"/>
     <use xlink:href="#mf6187c2901" x="48.955744" y="67.433095" style="fill: #0000ff; stroke: #0000ff"/>
     <use xlink:href="#mf6187c2901" x="49.345934" y="66.281003" style="fill: #0000ff; stroke: #0000ff"/>
     <use xlink:href="#mf6187c2901" x="50.173152" y="65.496393" style="fill: #0000ff; stroke: #0000ff"/>
     <use xlink:href="#mf6187c2901" x="50.538221" y="65.571054" style="fill: #0000ff; stroke: #0000ff"/>
     <use xlink:href="#mf6187c2901" x="51.390223" y="64.648034" style="fill: #0000ff; stroke: #0000ff"/>
     <use xlink:href="#mf6187c2901" x="51.730658" y="62.354622" style="fill: #0000ff; stroke: #0000ff"/>
     <use xlink:href="#mf6187c2901" x="52.607033" y="60.439985" style="fill: #0000ff; stroke: #0000ff"/>
     <use xlink:href="#mf6187c2901" x="52.923282" y="59.220115" style="fill: #0000ff; stroke: #0000ff"/>
     <use xlink:href="#mf6187c2901" x="53.823656" y="56.542088" style="fill: #0000ff; stroke: #0000ff"/>
     <use xlink:href="#mf6187c2901" x="54.115905" y="53.764801" style="fill: #0000ff; stroke: #0000ff"/>
     <use xlink:href="#mf6187c2901" x="55.040503" y="47.235433" style="fill: #0000ff; stroke: #0000ff"/>
     <use xlink:href="#mf6187c2901" x="55.308454" y="38.22963" style="fill: #0000ff; stroke: #0000ff"/>
     <use xlink:href="#mf6187c2901" x="56.257462" y="26.081063" style="fill: #0000ff; stroke: #0000ff"/>
     <use xlink:href="#mf6187c2901" x="56.500592" y="19.183748" style="fill: #0000ff; stroke: #0000ff"/>
     <use xlink:href="#mf6187c2901" x="57.474944" y="27.618986" style="fill: #0000ff; stroke: #0000ff"/>
     <use xlink:href="#mf6187c2901" x="57.692206" y="38.249364" style="fill: #0000ff; stroke: #0000ff"/>
     <use xlink:href="#mf6187c2901" x="58.692838" y="46.336868" style="fill: #0000ff; stroke: #0000ff"/>
     <use xlink:href="#mf6187c2901" x="58.883223" y="51.433531" style="fill: #0000ff; stroke: #0000ff"/>
     <use xlink:href="#mf6187c2901" x="59.911666" y="55.115796" style="fill: #0000ff; stroke: #0000ff"/>
     <use xlink:href="#mf6187c2901" x="60.073379" y="60.152514" style="fill: #0000ff; stroke: #0000ff"/>
     <use xlink:href="#mf6187c2901" x="61.131466" y="60.973303" style="fill: #0000ff; stroke: #0000ff"/>
     <use xlink:href="#mf6187c2901" x="61.262265" y="62.28423" style="fill: #0000ff; stroke: #0000ff"/>
     <use xlink:href="#mf6187c2901" x="62.352687" y="64.356874" style="fill: #0000ff; stroke: #0000ff"/>
     <use xlink:href="#mf6187c2901" x="62.449505" y="64.725711" style="fill: #0000ff; stroke: #0000ff"/>
     <use xlink:href="#mf6187c2901" x="63.575777" y="64.929908" style="fill: #0000ff; stroke: #0000ff"/>
     <use xlink:href="#mf6187c2901" x="63.634727" y="65.67201" style="fill: #0000ff; stroke: #0000ff"/>
     <use xlink:href="#mf6187c2901" x="64.801296" y="64.723565" style="fill: #0000ff; stroke: #0000ff"/>
     <use xlink:href="#mf6187c2901" x="64.817109" y="66.540788" style="fill: #0000ff; stroke: #0000ff"/>
     <use xlink:href="#mf6187c2901" x="66.030068" y="67.069684" style="fill: #0000ff; stroke: #0000ff"/>
     <use xlink:href="#mf6187c2901" x="65.995639" y="67.97943" style="fill: #0000ff; stroke: #0000ff"/>
     <use xlink:href="#mf6187c2901" x="67.263288" y="67.904673" style="fill: #0000ff; stroke: #0000ff"/>
     <use xlink:href="#mf6187c2901" x="67.168899" y="66.495569" style="fill: #0000ff; stroke: #0000ff"/>
     <use xlink:href="#mf6187c2901" x="68.502751" y="67.151178" style="fill: #0000ff; stroke: #0000ff"/>
     <use xlink:href="#mf6187c2901" x="68.334571" y="69.327113" style="fill: #0000ff; stroke: #0000ff"/>
     <use xlink:href="#mf6187c2901" x="69.751597" y="67.816203" style="fill: #0000ff; stroke: #0000ff"/>
     <use xlink:href="#mf6187c2901" x="69.488841" y="69.758474" style="fill: #0000ff; stroke: #0000ff"/>
     <use xlink:href="#mf6187c2901" x="71.014685" y="69.326233" style="fill: #0000ff; stroke: #0000ff"/>
     <use xlink:href="#mf6187c2901" x="70.62472" y="69.099678" style="fill: #0000ff; stroke: #0000ff"/>
     <use xlink:href="#mf6187c2901" x="72.301734" y="69.917892" style="fill: #0000ff; stroke: #0000ff"/>
     <use xlink:href="#mf6187c2901" x="71.728674" y="70.572597" style="fill: #0000ff; stroke: #0000ff"/>
     <use xlink:href="#mf6187c2901" x="73.632857" y="69.062934" style="fill: #0000ff; stroke: #0000ff"/>
     <use xlink:href="#mf6187c2901" x="72.769267" y="70.50995" style="fill: #0000ff; stroke: #0000ff"/>
     <use xlink:href="#mf6187c2901" x="75.059864" y="70.898392" style="fill: #0000ff; stroke: #0000ff"/>
     <use xlink:href="#mf6187c2901" x="73.654725" y="69.929678" style="fill: #0000ff; stroke: #0000ff"/>
     <use xlink:href="#mf6187c2901" x="76.764055" y="69.191663" style="fill: #0000ff; stroke: #0000ff"/>
     <use xlink:href="#mf6187c2901" x="73.962974" y="71.150094" style="fill: #0000ff; stroke: #0000ff"/>
     <use xlink:href="#mf6187c2901" x="80.058199" y="70.203351" style="fill: #0000ff; stroke: #0000ff"/>
    </g>
   </g>
   <g id="patch_3">
    <path d="M 23.688125 75.553823 
L 23.688125 16.499459 
" style="fill: none; stroke: #000000; stroke-width: 0.5; stroke-linejoin: miter; stroke-linecap: square"/>
   </g>
   <g id="patch_4">
    <path d="M 82.742489 75.553823 
L 82.742489 16.499459 
" style="fill: none; stroke: #000000; stroke-width: 0.5; stroke-linejoin: miter; stroke-linecap: square"/>
   </g>
   <g id="patch_5">
    <path d="M 23.688125 75.553823 
L 82.742489 75.553823 
" style="fill: none; stroke: #000000; stroke-width: 0.5; stroke-linejoin: miter; stroke-linecap: square"/>
   </g>
   <g id="patch_6">
    <path d="M 23.688125 16.499459 
L 82.742489 16.499459 
" style="fill: none; stroke: #000000; stroke-width: 0.5; stroke-linejoin: miter; stroke-linecap: square"/>
   </g>
   <g id="text_10">
    <path d="M 32.479405 25.596363 
Q 32.041905 25.596363 31.820655 25.745113 
Q 31.600655 25.892613 31.600655 26.182613 
Q 31.600655 26.447613 31.778155 26.598863 
Q 31.956905 26.748863 32.273155 26.748863 
Q 32.666905 26.748863 32.936905 26.466363 
Q 33.206905 26.182613 33.206905 25.756363 
L 33.206905 25.596363 
L 32.479405 25.596363 
z
M 34.616905 25.068863 
L 34.616905 27.565113 
L 33.206905 27.565113 
L 33.206905 26.916363 
Q 32.925655 27.315113 32.573155 27.497613 
Q 32.221905 27.678863 31.718155 27.678863 
Q 31.038155 27.678863 30.614405 27.282613 
Q 30.190655 26.885113 30.190655 26.252613 
Q 30.190655 25.482613 30.719405 25.123863 
Q 31.249405 24.763863 32.381905 24.763863 
L 33.206905 24.763863 
L 33.206905 24.655113 
Q 33.206905 24.322613 32.944405 24.168863 
Q 32.683155 24.013863 32.128155 24.013863 
Q 31.679405 24.013863 31.291905 24.103863 
Q 30.905655 24.193863 30.573155 24.373863 
L 30.573155 23.307613 
Q 31.023155 23.197613 31.475655 23.141363 
Q 31.929405 23.085113 32.381905 23.085113 
Q 33.565655 23.085113 34.090655 23.551363 
Q 34.616905 24.017613 34.616905 25.068863 
z
"/>
    <path d="M 32.479405 25.596363 
Q 32.041905 25.596363 31.820655 25.745113 
Q 31.600655 25.892613 31.600655 26.182613 
Q 31.600655 26.447613 31.778155 26.598863 
Q 31.956905 26.748863 32.273155 26.748863 
Q 32.666905 26.748863 32.936905 26.466363 
Q 33.206905 26.182613 33.206905 25.756363 
L 33.206905 25.596363 
L 32.479405 25.596363 
z
M 34.616905 25.068863 
L 34.616905 27.565113 
L 33.206905 27.565113 
L 33.206905 26.916363 
Q 32.925655 27.315113 32.573155 27.497613 
Q 32.221905 27.678863 31.718155 27.678863 
Q 31.038155 27.678863 30.614405 27.282613 
Q 30.190655 26.885113 30.190655 26.252613 
Q 30.190655 25.482613 30.719405 25.123863 
Q 31.249405 24.763863 32.381905 24.763863 
L 33.206905 24.763863 
L 33.206905 24.655113 
Q 33.206905 24.322613 32.944405 24.168863 
Q 32.683155 24.013863 32.128155 24.013863 
Q 31.679405 24.013863 31.291905 24.103863 
Q 30.905655 24.193863 30.573155 24.373863 
L 30.573155 23.307613 
Q 31.023155 23.197613 31.475655 23.141363 
Q 31.929405 23.085113 32.381905 23.085113 
Q 33.565655 23.085113 34.090655 23.551363 
Q 34.616905 24.017613 34.616905 25.068863 
z
"/>
   </g>
  </g>
  <g id="axes_2">
   <g id="patch_7">
    <path d="M 130.098906 75.553822 
L 189.15327 75.553822 
L 189.15327 16.499459 
L 130.098906 16.499459 
z
" style="fill: #ffffff"/>
   </g>
   <g id="matplotlib.axis_3">
    <g id="xtick_3">
     <g id="line2d_10">
      <g>
       <use xlink:href="#m3c00b50723" x="156.472013" y="75.553822" style="stroke: #000000; stroke-width: 0.8"/>
      </g>
     </g>
     <g id="line2d_11">
      <g>
       <use xlink:href="#m461e9e0266" x="156.472013" y="16.499459" style="stroke: #000000; stroke-width: 0.8"/>
      </g>
     </g>
     <g id="text_11">
      <!-- 1.3 -->
      <g transform="translate(152.496231 82.853041) scale(0.05 -0.05)">
       <use xlink:href="#DejaVuSans-31"/>
       <use xlink:href="#DejaVuSans-2e" x="63.623047"/>
       <use xlink:href="#DejaVuSans-33" x="95.410156"/>
      </g>
     </g>
    </g>
    <g id="xtick_4">
     <g id="line2d_12">
      <g>
       <use xlink:href="#m3c00b50723" x="186.377321" y="75.553822" style="stroke: #000000; stroke-width: 0.8"/>
      </g>
     </g>
     <g id="line2d_13">
      <g>
       <use xlink:href="#m461e9e0266" x="186.377321" y="16.499459" style="stroke: #000000; stroke-width: 0.8"/>
      </g>
     </g>
     <g id="text_12">
      <!-- 1.4 -->
      <g transform="translate(182.40154 82.853041) scale(0.05 -0.05)">
       <use xlink:href="#DejaVuSans-31"/>
       <use xlink:href="#DejaVuSans-2e" x="63.623047"/>
       <use xlink:href="#DejaVuSans-34" x="95.410156"/>
      </g>
     </g>
    </g>
    <g id="text_13">
     <!-- Voltage Steps -->
     <g transform="translate(139.024994 92.451947) scale(0.06 -0.06)">
      <use xlink:href="#DejaVuSans-56"/>
      <use xlink:href="#DejaVuSans-6f" x="60.658203"/>
      <use xlink:href="#DejaVuSans-6c" x="121.839844"/>
      <use xlink:href="#DejaVuSans-74" x="149.623047"/>
      <use xlink:href="#DejaVuSans-61" x="188.832031"/>
      <use xlink:href="#DejaVuSans-67" x="250.111328"/>
      <use xlink:href="#DejaVuSans-65" x="313.587891"/>
      <use xlink:href="#DejaVuSans-20" x="375.111328"/>
      <use xlink:href="#DejaVuSans-53" x="406.898438"/>
      <use xlink:href="#DejaVuSans-74" x="470.375"/>
      <use xlink:href="#DejaVuSans-65" x="509.583984"/>
      <use xlink:href="#DejaVuSans-70" x="571.107422"/>
      <use xlink:href="#DejaVuSans-73" x="634.583984"/>
     </g>
    </g>
    <g id="text_14">
     <!-- 1e6 -->
     <g transform="translate(179.714207 90.692104) scale(0.05 -0.05)">
      <use xlink:href="#DejaVuSans-31"/>
      <use xlink:href="#DejaVuSans-65" x="63.623047"/>
      <use xlink:href="#DejaVuSans-36" x="125.146484"/>
     </g>
    </g>
   </g>
   <g id="matplotlib.axis_4">
    <g id="ytick_4">
     <g id="line2d_14">
      <g>
       <use xlink:href="#mdc7fc3c605" x="130.098906" y="67.133176" style="stroke: #000000; stroke-width: 0.8"/>
      </g>
     </g>
     <g id="text_15">
      <!-- −1 -->
      <g transform="translate(119.227812 69.032785) scale(0.05 -0.05)">
       <use xlink:href="#DejaVuSans-2212"/>
       <use xlink:href="#DejaVuSans-31" x="83.789062"/>
      </g>
     </g>
    </g>
    <g id="ytick_5">
     <g id="line2d_15">
      <g>
       <use xlink:href="#mdc7fc3c605" x="130.098906" y="47.450239" style="stroke: #000000; stroke-width: 0.8"/>
      </g>
     </g>
     <g id="text_16">
      <!-- 0 -->
      <g transform="translate(123.417656 49.349848) scale(0.05 -0.05)">
       <use xlink:href="#DejaVuSans-30"/>
      </g>
     </g>
    </g>
    <g id="ytick_6">
     <g id="line2d_16">
      <g>
       <use xlink:href="#mdc7fc3c605" x="130.098906" y="27.767302" style="stroke: #000000; stroke-width: 0.8"/>
      </g>
     </g>
     <g id="text_17">
      <!-- 1 -->
      <g transform="translate(123.417656 29.666911) scale(0.05 -0.05)">
       <use xlink:href="#DejaVuSans-31"/>
      </g>
     </g>
    </g>
    <g id="text_18">
     <!-- Real (Arb. U.) -->
     <g transform="translate(113.98 66.034297) rotate(-90) scale(0.06 -0.06)">
      <defs>
       <path id="DejaVuSans-52" d="M 2841 2188 
Q 3044 2119 3236 1894 
Q 3428 1669 3622 1275 
L 4263 0 
L 3584 0 
L 2988 1197 
Q 2756 1666 2539 1819 
Q 2322 1972 1947 1972 
L 1259 1972 
L 1259 0 
L 628 0 
L 628 4666 
L 2053 4666 
Q 2853 4666 3247 4331 
Q 3641 3997 3641 3322 
Q 3641 2881 3436 2590 
Q 3231 2300 2841 2188 
z
M 1259 4147 
L 1259 2491 
L 2053 2491 
Q 2509 2491 2742 2702 
Q 2975 2913 2975 3322 
Q 2975 3731 2742 3939 
Q 2509 4147 2053 4147 
L 1259 4147 
z
" transform="scale(0.015625)"/>
      </defs>
      <use xlink:href="#DejaVuSans-52"/>
      <use xlink:href="#DejaVuSans-65" x="64.982422"/>
      <use xlink:href="#DejaVuSans-61" x="126.505859"/>
      <use xlink:href="#DejaVuSans-6c" x="187.785156"/>
      <use xlink:href="#DejaVuSans-20" x="215.568359"/>
      <use xlink:href="#DejaVuSans-28" x="247.355469"/>
      <use xlink:href="#DejaVuSans-41" x="286.369141"/>
      <use xlink:href="#DejaVuSans-72" x="354.777344"/>
      <use xlink:href="#DejaVuSans-62" x="395.890625"/>
      <use xlink:href="#DejaVuSans-2e" x="459.367188"/>
      <use xlink:href="#DejaVuSans-20" x="491.154297"/>
      <use xlink:href="#DejaVuSans-55" x="522.941406"/>
      <use xlink:href="#DejaVuSans-2e" x="596.134766"/>
      <use xlink:href="#DejaVuSans-29" x="627.921875"/>
     </g>
    </g>
    <g id="text_19">
     <!-- 1e−2 -->
     <g transform="translate(130.098906 13.499459) scale(0.05 -0.05)">
      <use xlink:href="#DejaVuSans-31"/>
      <use xlink:href="#DejaVuSans-65" x="63.623047"/>
      <use xlink:href="#DejaVuSans-2212" x="125.146484"/>
      <use xlink:href="#DejaVuSans-32" x="208.935547"/>
     </g>
    </g>
   </g>
   <g id="line2d_17">
    <path d="M 135.386453 48.317094 
L 135.678478 45.648725 
L 135.970503 45.186497 
L 136.262566 47.277324 
L 136.554629 43.924442 
L 136.846654 44.943767 
L 137.138679 44.215938 
L 137.430742 46.340356 
L 137.722805 47.111311 
L 138.01483 46.929748 
L 138.306855 47.161829 
L 138.598918 46.789363 
L 138.890981 47.493046 
L 139.183006 44.812995 
L 139.475032 47.065756 
L 139.767094 46.473144 
L 140.059157 46.258557 
L 140.351182 46.522705 
L 140.643208 46.178973 
L 140.93527 45.237546 
L 141.227333 46.687036 
L 141.811384 45.712443 
L 142.103447 44.441512 
L 142.395509 45.317635 
L 142.687535 46.594012 
L 142.97956 46.707088 
L 143.271623 43.509927 
L 143.563685 47.290292 
L 143.855711 43.517758 
L 144.147736 46.912765 
L 144.731861 44.862938 
L 145.023887 44.237777 
L 145.315912 44.394428 
L 145.607975 44.049207 
L 145.900038 45.178199 
L 146.192063 45.097687 
L 146.484088 43.51499 
L 146.776151 44.32845 
L 147.068214 47.351927 
L 147.360239 44.765057 
L 147.652264 46.796958 
L 147.944327 45.932395 
L 148.23639 47.12208 
L 148.528415 43.731481 
L 148.82044 43.107503 
L 149.112503 42.995267 
L 149.404566 43.495977 
L 149.696591 44.99062 
L 149.988617 42.420628 
L 150.280679 45.329693 
L 150.572742 44.285894 
L 150.864767 44.133429 
L 151.156793 42.759062 
L 151.448855 43.935523 
L 151.740918 44.000492 
L 152.032943 42.660862 
L 152.324969 42.797943 
L 152.617031 44.318771 
L 152.909094 45.196377 
L 153.20112 42.3456 
L 153.493145 41.599194 
L 153.785208 41.702491 
L 154.07727 42.264622 
L 154.369296 42.30981 
L 154.661321 43.558358 
L 155.245446 41.646685 
L 155.537472 42.046594 
L 156.12156 40.09056 
L 156.413623 40.602547 
L 156.705648 40.215289 
L 156.997673 40.369535 
L 157.289736 39.206434 
L 157.581799 40.724429 
L 158.165849 36.814982 
L 158.457912 36.660388 
L 158.749975 37.408203 
L 159.042 34.855886 
L 159.334025 34.759124 
L 160.210176 31.989197 
L 161.086327 26.589336 
L 161.378352 22.77029 
L 162.254503 19.183748 
L 162.546528 23.338554 
L 162.838554 31.488136 
L 163.714704 68.859637 
L 164.00673 69.30918 
L 164.298793 72.869533 
L 164.590855 69.700048 
L 164.882881 69.797043 
L 165.174906 66.261845 
L 165.466969 66.956037 
L 165.759031 62.753981 
L 166.051057 64.447911 
L 166.635145 58.191518 
L 166.927207 59.945584 
L 167.219233 57.742751 
L 167.511258 58.620121 
L 167.803321 58.04879 
L 168.387409 55.451074 
L 168.679434 55.179348 
L 168.971497 55.542288 
L 169.26356 54.995379 
L 169.555585 55.589614 
L 170.139673 54.377512 
L 170.431736 54.407635 
L 170.723761 55.117971 
L 171.015786 55.418938 
L 171.307849 53.142906 
L 171.599912 53.170047 
L 171.891937 54.847816 
L 172.183963 51.979607 
L 172.768088 52.706516 
L 173.060113 53.042441 
L 173.352139 50.477521 
L 173.644201 53.621593 
L 173.936264 55.010715 
L 174.228289 52.477314 
L 174.520315 53.650809 
L 174.812378 51.104987 
L 175.10444 51.621491 
L 175.396466 51.597696 
L 175.688491 52.502959 
L 175.980554 51.757208 
L 176.272616 51.320078 
L 176.564642 50.636964 
L 176.856667 50.331316 
L 177.14873 51.967492 
L 177.440792 50.712267 
L 177.732818 52.100931 
L 178.024843 50.263994 
L 178.316906 49.572074 
L 178.608969 50.953622 
L 178.900994 49.956202 
L 179.193019 50.760272 
L 179.485082 50.994345 
L 179.777145 51.646084 
L 180.06917 48.822052 
L 180.361195 49.921448 
L 180.653258 49.590809 
L 180.945321 49.582957 
L 181.237346 50.865416 
L 181.529371 51.219294 
L 181.821434 50.206441 
L 182.113497 50.770391 
L 182.405522 50.094026 
L 182.697548 48.331145 
L 182.98961 50.552132 
L 183.281673 50.144711 
L 183.281673 50.144711 
" clip-path="url(#pf3ed832ebe)" style="fill: none; stroke: #000000; stroke-width: 0.5; stroke-linecap: square"/>
   </g>
   <g id="line2d_18">
    <defs>
     <path id="m96df77eddb" d="M 0 0.25 
C 0.066301 0.25 0.129895 0.223658 0.176777 0.176777 
C 0.223658 0.129895 0.25 0.066301 0.25 0 
C 0.25 -0.066301 0.223658 -0.129895 0.176777 -0.176777 
C 0.129895 -0.223658 0.066301 -0.25 0 -0.25 
C -0.066301 -0.25 -0.129895 -0.223658 -0.176777 -0.176777 
C -0.223658 -0.129895 -0.25 -0.066301 -0.25 0 
C -0.25 0.066301 -0.223658 0.129895 -0.176777 0.176777 
C -0.129895 0.223658 -0.066301 0.25 0 0.25 
z
" style="stroke: #000000"/>
    </defs>
    <g clip-path="url(#pf3ed832ebe)">
     <use xlink:href="#m96df77eddb" x="147.652339" y="47.951842" style="stroke: #000000"/>
     <use xlink:href="#m96df77eddb" x="132.783196" y="45.741124" style="stroke: #000000"/>
     <use xlink:href="#m96df77eddb" x="138.294333" y="45.039847" style="stroke: #000000"/>
     <use xlink:href="#m96df77eddb" x="136.077377" y="44.853128" style="stroke: #000000"/>
     <use xlink:href="#m96df77eddb" x="138.602656" y="47.175376" style="stroke: #000000"/>
     <use xlink:href="#m96df77eddb" x="137.781606" y="47.013926" style="stroke: #000000"/>
     <use xlink:href="#m96df77eddb" x="139.488078" y="46.483825" style="stroke: #000000"/>
     <use xlink:href="#m96df77eddb" x="139.208613" y="46.225668" style="stroke: #000000"/>
     <use xlink:href="#m96df77eddb" x="140.52867" y="46.615501" style="stroke: #000000"/>
     <use xlink:href="#m96df77eddb" x="140.539698" y="45.72533" style="stroke: #000000"/>
     <use xlink:href="#m96df77eddb" x="141.632662" y="46.405654" style="stroke: #000000"/>
     <use xlink:href="#m96df77eddb" x="141.82671" y="44.931632" style="stroke: #000000"/>
     <use xlink:href="#m96df77eddb" x="142.768503" y="46.045835" style="stroke: #000000"/>
     <use xlink:href="#m96df77eddb" x="143.089873" y="45.594609" style="stroke: #000000"/>
     <use xlink:href="#m96df77eddb" x="143.922773" y="45.17099" style="stroke: #000000"/>
     <use xlink:href="#m96df77eddb" x="144.338719" y="46.081251" style="stroke: #000000"/>
     <use xlink:href="#m96df77eddb" x="145.088407" y="44.010923" style="stroke: #000000"/>
     <use xlink:href="#m96df77eddb" x="145.578219" y="44.842868" style="stroke: #000000"/>
     <use xlink:href="#m96df77eddb" x="146.261705" y="44.298983" style="stroke: #000000"/>
     <use xlink:href="#m96df77eddb" x="146.811364" y="45.108011" style="stroke: #000000"/>
     <use xlink:href="#m96df77eddb" x="147.440273" y="46.083883" style="stroke: #000000"/>
     <use xlink:href="#m96df77eddb" x="148.040174" y="46.520978" style="stroke: #000000"/>
     <use xlink:href="#m96df77eddb" x="148.622654" y="43.849908" style="stroke: #000000"/>
     <use xlink:href="#m96df77eddb" x="149.265693" y="43.183659" style="stroke: #000000"/>
     <use xlink:href="#m96df77eddb" x="149.807802" y="44.108343" style="stroke: #000000"/>
     <use xlink:href="#m96df77eddb" x="150.488745" y="44.298204" style="stroke: #000000"/>
     <use xlink:href="#m96df77eddb" x="150.99508" y="43.743786" style="stroke: #000000"/>
     <use xlink:href="#m96df77eddb" x="151.709966" y="43.437271" style="stroke: #000000"/>
     <use xlink:href="#m96df77eddb" x="152.183965" y="43.174839" style="stroke: #000000"/>
     <use xlink:href="#m96df77eddb" x="152.929804" y="44.382897" style="stroke: #000000"/>
     <use xlink:href="#m96df77eddb" x="153.374084" y="41.863292" style="stroke: #000000"/>
     <use xlink:href="#m96df77eddb" x="154.148632" y="41.996765" style="stroke: #000000"/>
     <use xlink:href="#m96df77eddb" x="154.565063" y="43.105441" style="stroke: #000000"/>
     <use xlink:href="#m96df77eddb" x="155.366526" y="41.986886" style="stroke: #000000"/>
     <use xlink:href="#m96df77eddb" x="155.756715" y="40.967987" style="stroke: #000000"/>
     <use xlink:href="#m96df77eddb" x="156.583933" y="40.164227" style="stroke: #000000"/>
     <use xlink:href="#m96df77eddb" x="156.949002" y="40.261689" style="stroke: #000000"/>
     <use xlink:href="#m96df77eddb" x="157.801005" y="39.428971" style="stroke: #000000"/>
     <use xlink:href="#m96df77eddb" x="158.141439" y="37.245485" style="stroke: #000000"/>
     <use xlink:href="#m96df77eddb" x="159.017814" y="36.046881" style="stroke: #000000"/>
     <use xlink:href="#m96df77eddb" x="159.334063" y="34.230885" style="stroke: #000000"/>
     <use xlink:href="#m96df77eddb" x="160.234437" y="32.118406" style="stroke: #000000"/>
     <use xlink:href="#m96df77eddb" x="160.526686" y="29.447753" style="stroke: #000000"/>
     <use xlink:href="#m96df77eddb" x="161.451284" y="24.107295" style="stroke: #000000"/>
     <use xlink:href="#m96df77eddb" x="161.719235" y="20.262165" style="stroke: #000000"/>
     <use xlink:href="#m96df77eddb" x="162.668243" y="21.773644" style="stroke: #000000"/>
     <use xlink:href="#m96df77eddb" x="162.911373" y="43.301283" style="stroke: #000000"/>
     <use xlink:href="#m96df77eddb" x="163.885725" y="67.901293" style="stroke: #000000"/>
     <use xlink:href="#m96df77eddb" x="164.102988" y="71.139312" style="stroke: #000000"/>
     <use xlink:href="#m96df77eddb" x="165.103619" y="69.195722" style="stroke: #000000"/>
     <use xlink:href="#m96df77eddb" x="165.294004" y="65.217418" style="stroke: #000000"/>
     <use xlink:href="#m96df77eddb" x="166.322447" y="63.096605" style="stroke: #000000"/>
     <use xlink:href="#m96df77eddb" x="166.48416" y="58.995369" style="stroke: #000000"/>
     <use xlink:href="#m96df77eddb" x="167.542248" y="58.668862" style="stroke: #000000"/>
     <use xlink:href="#m96df77eddb" x="167.673046" y="57.446614" style="stroke: #000000"/>
     <use xlink:href="#m96df77eddb" x="168.763468" y="55.440133" style="stroke: #000000"/>
     <use xlink:href="#m96df77eddb" x="168.860287" y="55.29539" style="stroke: #000000"/>
     <use xlink:href="#m96df77eddb" x="169.986558" y="55.11984" style="stroke: #000000"/>
     <use xlink:href="#m96df77eddb" x="170.045509" y="54.466374" style="stroke: #000000"/>
     <use xlink:href="#m96df77eddb" x="171.212077" y="54.973969" style="stroke: #000000"/>
     <use xlink:href="#m96df77eddb" x="171.22789" y="53.490955" style="stroke: #000000"/>
     <use xlink:href="#m96df77eddb" x="172.440849" y="53.249012" style="stroke: #000000"/>
     <use xlink:href="#m96df77eddb" x="172.406421" y="52.226389" style="stroke: #000000"/>
     <use xlink:href="#m96df77eddb" x="173.674069" y="52.334071" style="stroke: #000000"/>
     <use xlink:href="#m96df77eddb" x="173.579681" y="53.791952" style="stroke: #000000"/>
     <use xlink:href="#m96df77eddb" x="174.913532" y="52.866473" style="stroke: #000000"/>
     <use xlink:href="#m96df77eddb" x="174.745352" y="51.123976" style="stroke: #000000"/>
     <use xlink:href="#m96df77eddb" x="176.162378" y="52.524973" style="stroke: #000000"/>
     <use xlink:href="#m96df77eddb" x="175.899622" y="50.718216" style="stroke: #000000"/>
     <use xlink:href="#m96df77eddb" x="177.425466" y="51.124532" style="stroke: #000000"/>
     <use xlink:href="#m96df77eddb" x="177.035501" y="51.291622" style="stroke: #000000"/>
     <use xlink:href="#m96df77eddb" x="178.712516" y="50.568336" style="stroke: #000000"/>
     <use xlink:href="#m96df77eddb" x="178.139455" y="49.93595" style="stroke: #000000"/>
     <use xlink:href="#m96df77eddb" x="180.043638" y="51.329712" style="stroke: #000000"/>
     <use xlink:href="#m96df77eddb" x="179.180048" y="50.009342" style="stroke: #000000"/>
     <use xlink:href="#m96df77eddb" x="181.470645" y="49.611323" style="stroke: #000000"/>
     <use xlink:href="#m96df77eddb" x="180.065507" y="50.201838" style="stroke: #000000"/>
     <use xlink:href="#m96df77eddb" x="183.174836" y="51.253581" style="stroke: #000000"/>
     <use xlink:href="#m96df77eddb" x="180.373756" y="49.333205" style="stroke: #000000"/>
     <use xlink:href="#m96df77eddb" x="186.468981" y="50.291135" style="stroke: #000000"/>
    </g>
   </g>
   <g id="patch_8">
    <path d="M 130.098906 75.553822 
L 130.098906 16.499459 
" style="fill: none; stroke: #000000; stroke-width: 0.5; stroke-linejoin: miter; stroke-linecap: square"/>
   </g>
   <g id="patch_9">
    <path d="M 189.15327 75.553822 
L 189.15327 16.499459 
" style="fill: none; stroke: #000000; stroke-width: 0.5; stroke-linejoin: miter; stroke-linecap: square"/>
   </g>
   <g id="patch_10">
    <path d="M 130.098906 75.553822 
L 189.15327 75.553822 
" style="fill: none; stroke: #000000; stroke-width: 0.5; stroke-linejoin: miter; stroke-linecap: square"/>
   </g>
   <g id="patch_11">
    <path d="M 130.098906 16.499459 
L 189.15327 16.499459 
" style="fill: none; stroke: #000000; stroke-width: 0.5; stroke-linejoin: miter; stroke-linecap: square"/>
   </g>
   <g id="text_20">
    <path d="M 139.093936 26.662613 
Q 139.542686 26.662613 139.778936 26.335113 
Q 140.016436 26.006363 140.016436 25.381363 
Q 140.016436 24.756363 139.778936 24.428863 
Q 139.542686 24.100113 139.093936 24.100113 
Q 138.645186 24.100113 138.403936 24.430113 
Q 138.163936 24.760113 138.163936 25.381363 
Q 138.163936 26.002613 138.403936 26.332613 
Q 138.645186 26.662613 139.093936 26.662613 
z
M 138.163936 23.830113 
Q 138.453936 23.447613 138.805186 23.266363 
Q 139.156436 23.085113 139.613936 23.085113 
Q 140.422686 23.085113 140.941436 23.727613 
Q 141.461436 24.370113 141.461436 25.381363 
Q 141.461436 26.392613 140.941436 27.036363 
Q 140.422686 27.678863 139.613936 27.678863 
Q 139.156436 27.678863 138.805186 27.497613 
Q 138.453936 27.315113 138.163936 26.932613 
L 138.163936 27.565113 
L 136.766436 27.565113 
L 136.766436 21.486363 
L 138.163936 21.486363 
L 138.163936 23.830113 
z
"/>
    <path d="M 139.093936 26.662613 
Q 139.542686 26.662613 139.778936 26.335113 
Q 140.016436 26.006363 140.016436 25.381363 
Q 140.016436 24.756363 139.778936 24.428863 
Q 139.542686 24.100113 139.093936 24.100113 
Q 138.645186 24.100113 138.403936 24.430113 
Q 138.163936 24.760113 138.163936 25.381363 
Q 138.163936 26.002613 138.403936 26.332613 
Q 138.645186 26.662613 139.093936 26.662613 
z
M 138.163936 23.830113 
Q 138.453936 23.447613 138.805186 23.266363 
Q 139.156436 23.085113 139.613936 23.085113 
Q 140.422686 23.085113 140.941436 23.727613 
Q 141.461436 24.370113 141.461436 25.381363 
Q 141.461436 26.392613 140.941436 27.036363 
Q 140.422686 27.678863 139.613936 27.678863 
Q 139.156436 27.678863 138.805186 27.497613 
Q 138.453936 27.315113 138.163936 26.932613 
L 138.163936 27.565113 
L 136.766436 27.565113 
L 136.766436 21.486363 
L 138.163936 21.486363 
L 138.163936 23.830113 
z
"/>
   </g>
  </g>
  <g id="axes_3">
   <g id="matplotlib.axis_5">
    <g id="ytick_7">
     <g id="line2d_19">
      <defs>
       <path id="mdd7e678c38" d="M 0 0 
L -3.5 0 
" style="stroke: #000000; stroke-width: 0.8"/>
      </defs>
      <g>
       <use xlink:href="#mdd7e678c38" x="82.742489" y="63.130298" style="stroke: #000000; stroke-width: 0.8"/>
      </g>
     </g>
     <g id="text_21">
      <!-- −2 -->
      <g transform="translate(86.242489 65.029907) scale(0.05 -0.05)">
       <use xlink:href="#DejaVuSans-2212"/>
       <use xlink:href="#DejaVuSans-32" x="83.789062"/>
      </g>
     </g>
    </g>
    <g id="ytick_8">
     <g id="line2d_20">
      <g>
       <use xlink:href="#mdd7e678c38" x="82.742489" y="46.033091" style="stroke: #000000; stroke-width: 0.8"/>
      </g>
     </g>
     <g id="text_22">
      <!-- 0 -->
      <g transform="translate(86.242489 47.932701) scale(0.05 -0.05)">
       <use xlink:href="#DejaVuSans-30"/>
      </g>
     </g>
    </g>
    <g id="ytick_9">
     <g id="line2d_21">
      <g>
       <use xlink:href="#mdd7e678c38" x="82.742489" y="28.935885" style="stroke: #000000; stroke-width: 0.8"/>
      </g>
     </g>
     <g id="text_23">
      <!-- 2 -->
      <g transform="translate(86.242489 30.835494) scale(0.05 -0.05)">
       <use xlink:href="#DejaVuSans-32"/>
      </g>
     </g>
    </g>
    <g id="text_24">
     <!-- Phase (rad) -->
     <g transform="translate(102.172645 63.254609) rotate(-90) scale(0.06 -0.06)">
      <defs>
       <path id="DejaVuSans-50" d="M 1259 4147 
L 1259 2394 
L 2053 2394 
Q 2494 2394 2734 2622 
Q 2975 2850 2975 3272 
Q 2975 3691 2734 3919 
Q 2494 4147 2053 4147 
L 1259 4147 
z
M 628 4666 
L 2053 4666 
Q 2838 4666 3239 4311 
Q 3641 3956 3641 3272 
Q 3641 2581 3239 2228 
Q 2838 1875 2053 1875 
L 1259 1875 
L 1259 0 
L 628 0 
L 628 4666 
z
" transform="scale(0.015625)"/>
       <path id="DejaVuSans-68" d="M 3513 2113 
L 3513 0 
L 2938 0 
L 2938 2094 
Q 2938 2591 2744 2837 
Q 2550 3084 2163 3084 
Q 1697 3084 1428 2787 
Q 1159 2491 1159 1978 
L 1159 0 
L 581 0 
L 581 4863 
L 1159 4863 
L 1159 2956 
Q 1366 3272 1645 3428 
Q 1925 3584 2291 3584 
Q 2894 3584 3203 3211 
Q 3513 2838 3513 2113 
z
" transform="scale(0.015625)"/>
      </defs>
      <use xlink:href="#DejaVuSans-50"/>
      <use xlink:href="#DejaVuSans-68" x="60.302734"/>
      <use xlink:href="#DejaVuSans-61" x="123.681641"/>
      <use xlink:href="#DejaVuSans-73" x="184.960938"/>
      <use xlink:href="#DejaVuSans-65" x="237.060547"/>
      <use xlink:href="#DejaVuSans-20" x="298.583984"/>
      <use xlink:href="#DejaVuSans-28" x="330.371094"/>
      <use xlink:href="#DejaVuSans-72" x="369.384766"/>
      <use xlink:href="#DejaVuSans-61" x="410.498047"/>
      <use xlink:href="#DejaVuSans-64" x="471.777344"/>
      <use xlink:href="#DejaVuSans-29" x="535.253906"/>
     </g>
    </g>
   </g>
   <g id="line2d_22">
    <path d="M 28.975671 67.155974 
L 29.267697 45.132729 
L 29.559722 49.714218 
L 29.851785 37.217271 
L 30.143847 47.034046 
L 30.435873 42.498788 
L 30.727898 42.668702 
L 31.019961 51.949884 
L 31.312024 54.931926 
L 31.604049 54.012244 
L 31.896074 50.392279 
L 32.188137 37.051437 
L 32.4802 32.410927 
L 32.772225 50.394594 
L 33.06425 55.491182 
L 33.356313 36.82109 
L 33.648376 51.995101 
L 33.940401 51.1874 
L 34.232426 47.01488 
L 34.524489 47.357 
L 34.816552 49.061173 
L 35.108577 53.159167 
L 35.400603 47.329203 
L 35.692665 45.749016 
L 35.984728 39.695343 
L 36.276753 45.03297 
L 36.568779 54.249104 
L 36.860841 45.81472 
L 37.152904 34.085734 
L 37.444929 47.049475 
L 37.736955 55.049707 
L 38.029017 47.76796 
L 38.32108 51.937639 
L 38.613106 46.233421 
L 38.905131 45.58265 
L 39.197194 44.427453 
L 39.489256 49.622882 
L 39.781282 45.967653 
L 40.36537 49.222053 
L 40.657432 33.366029 
L 40.949458 46.813248 
L 41.241483 37.263914 
L 41.533546 50.826881 
L 41.825609 41.013902 
L 42.117634 45.439912 
L 42.409659 45.334259 
L 42.701722 49.695366 
L 42.993785 44.414275 
L 43.28581 41.588049 
L 43.869898 50.52313 
L 44.161961 46.195511 
L 44.746011 47.155586 
L 45.038074 49.160511 
L 45.330137 42.391156 
L 45.622162 42.940226 
L 45.914188 47.944729 
L 46.20625 42.865671 
L 46.498313 45.310451 
L 46.790338 45.03175 
L 47.082364 45.332068 
L 47.374426 46.090786 
L 47.666489 44.963147 
L 48.25054 46.752103 
L 48.542602 46.017852 
L 48.834665 45.729556 
L 49.126691 44.428085 
L 49.710779 46.15512 
L 50.002841 43.763341 
L 50.586892 47.868705 
L 50.878955 43.154175 
L 51.171017 44.281155 
L 51.463043 46.091894 
L 51.755068 45.912524 
L 52.047131 43.232796 
L 52.631219 43.975552 
L 52.923244 44.872653 
L 53.215307 46.130352 
L 53.799395 43.656812 
L 54.09142 43.914891 
L 54.383483 44.512737 
L 54.967571 43.323695 
L 55.259596 41.413094 
L 55.843722 39.487539 
L 57.595949 27.091187 
L 58.180074 24.615606 
L 58.472099 23.691177 
L 58.764125 24.199658 
L 59.056187 23.079619 
L 59.34825 23.749374 
L 59.932301 22.11752 
L 60.224364 22.572879 
L 60.516426 21.817948 
L 60.808452 21.71337 
L 61.100477 20.838916 
L 61.39254 21.329166 
L 61.684602 21.329891 
L 61.976628 22.608363 
L 62.268653 20.713919 
L 62.560716 21.095612 
L 62.852778 21.725772 
L 63.144804 20.568542 
L 63.436829 20.071888 
L 63.728892 21.699425 
L 64.020955 20.716124 
L 64.31298 21.24422 
L 64.897068 23.441196 
L 65.189131 20.267581 
L 65.481156 20.82748 
L 65.773181 72.450495 
L 66.065244 19.987273 
L 66.357307 22.652309 
L 66.649332 21.353868 
L 66.941357 72.825197 
L 67.23342 20.837646 
L 67.525483 72.618338 
L 67.817508 72.869533 
L 68.109534 21.069944 
L 68.401596 25.31392 
L 68.693659 70.074962 
L 68.985684 72.512391 
L 69.27771 19.888826 
L 69.569772 21.04738 
L 69.861835 20.225243 
L 70.15386 69.903234 
L 70.445886 71.924651 
L 70.737948 22.521827 
L 71.030011 72.808336 
L 71.322037 72.832486 
L 71.614062 21.354019 
L 71.906125 71.661846 
L 72.198187 19.462958 
L 72.490213 71.197508 
L 72.782238 70.222212 
L 73.074301 19.243329 
L 73.366363 72.318288 
L 73.658389 20.846154 
L 73.950414 70.478617 
L 74.242477 24.44693 
L 74.53454 22.496194 
L 74.826565 21.973069 
L 75.11859 21.731333 
L 75.410653 70.563964 
L 75.702716 19.363064 
L 75.994741 22.72916 
L 76.286766 20.527734 
L 76.578829 70.2941 
L 76.870892 20.866523 
L 76.870892 20.866523 
" clip-path="url(#p8a8f51c7c0)" style="fill: none; stroke: #ff0000; stroke-width: 0.5; stroke-linecap: square"/>
   </g>
   <g id="line2d_23">
    <defs>
     <path id="ma481a335cf" d="M 0 0.25 
C 0.066301 0.25 0.129895 0.223658 0.176777 0.176777 
C 0.223658 0.129895 0.25 0.066301 0.25 0 
C 0.25 -0.066301 0.223658 -0.129895 0.176777 -0.176777 
C 0.129895 -0.223658 0.066301 -0.25 0 -0.25 
C -0.066301 -0.25 -0.129895 -0.223658 -0.176777 -0.176777 
C -0.223658 -0.129895 -0.25 -0.066301 -0.25 0 
C -0.25 0.066301 -0.223658 0.129895 -0.176777 0.176777 
C -0.129895 0.223658 -0.066301 0.25 0 0.25 
z
" style="stroke: #ff0000"/>
    </defs>
    <g clip-path="url(#p8a8f51c7c0)">
     <use xlink:href="#ma481a335cf" x="41.241558" y="69.771454" style="fill: #ff0000; stroke: #ff0000"/>
     <use xlink:href="#ma481a335cf" x="26.372414" y="48.108801" style="fill: #ff0000; stroke: #ff0000"/>
     <use xlink:href="#ma481a335cf" x="31.883551" y="45.277581" style="fill: #ff0000; stroke: #ff0000"/>
     <use xlink:href="#ma481a335cf" x="29.666596" y="43.241089" style="fill: #ff0000; stroke: #ff0000"/>
     <use xlink:href="#ma481a335cf" x="32.191875" y="57.728622" style="fill: #ff0000; stroke: #ff0000"/>
     <use xlink:href="#ma481a335cf" x="31.370825" y="36.284429" style="fill: #ff0000; stroke: #ff0000"/>
     <use xlink:href="#ma481a335cf" x="33.077297" y="45.106688" style="fill: #ff0000; stroke: #ff0000"/>
     <use xlink:href="#ma481a335cf" x="32.797831" y="45.818133" style="fill: #ff0000; stroke: #ff0000"/>
     <use xlink:href="#ma481a335cf" x="34.117889" y="49.381062" style="fill: #ff0000; stroke: #ff0000"/>
     <use xlink:href="#ma481a335cf" x="34.128917" y="47.257812" style="fill: #ff0000; stroke: #ff0000"/>
     <use xlink:href="#ma481a335cf" x="35.221881" y="52.34676" style="fill: #ff0000; stroke: #ff0000"/>
     <use xlink:href="#ma481a335cf" x="35.415929" y="45.049137" style="fill: #ff0000; stroke: #ff0000"/>
     <use xlink:href="#ma481a335cf" x="36.357722" y="42.489142" style="fill: #ff0000; stroke: #ff0000"/>
     <use xlink:href="#ma481a335cf" x="36.679092" y="47.848799" style="fill: #ff0000; stroke: #ff0000"/>
     <use xlink:href="#ma481a335cf" x="37.511992" y="44.844293" style="fill: #ff0000; stroke: #ff0000"/>
     <use xlink:href="#ma481a335cf" x="37.927938" y="52.844753" style="fill: #ff0000; stroke: #ff0000"/>
     <use xlink:href="#ma481a335cf" x="38.677626" y="47.037807" style="fill: #ff0000; stroke: #ff0000"/>
     <use xlink:href="#ma481a335cf" x="39.167438" y="45.165439" style="fill: #ff0000; stroke: #ff0000"/>
     <use xlink:href="#ma481a335cf" x="39.850924" y="48.137823" style="fill: #ff0000; stroke: #ff0000"/>
     <use xlink:href="#ma481a335cf" x="40.400583" y="46.904756" style="fill: #ff0000; stroke: #ff0000"/>
     <use xlink:href="#ma481a335cf" x="41.029492" y="43.849748" style="fill: #ff0000; stroke: #ff0000"/>
     <use xlink:href="#ma481a335cf" x="41.629392" y="45.764652" style="fill: #ff0000; stroke: #ff0000"/>
     <use xlink:href="#ma481a335cf" x="42.211873" y="46.434376" style="fill: #ff0000; stroke: #ff0000"/>
     <use xlink:href="#ma481a335cf" x="42.854912" y="46.415693" style="fill: #ff0000; stroke: #ff0000"/>
     <use xlink:href="#ma481a335cf" x="43.39702" y="45.126722" style="fill: #ff0000; stroke: #ff0000"/>
     <use xlink:href="#ma481a335cf" x="44.077964" y="47.918734" style="fill: #ff0000; stroke: #ff0000"/>
     <use xlink:href="#ma481a335cf" x="44.584298" y="47.267059" style="fill: #ff0000; stroke: #ff0000"/>
     <use xlink:href="#ma481a335cf" x="45.299185" y="45.424837" style="fill: #ff0000; stroke: #ff0000"/>
     <use xlink:href="#ma481a335cf" x="45.773184" y="44.258228" style="fill: #ff0000; stroke: #ff0000"/>
     <use xlink:href="#ma481a335cf" x="46.519022" y="45.654529" style="fill: #ff0000; stroke: #ff0000"/>
     <use xlink:href="#ma481a335cf" x="46.963303" y="45.008697" style="fill: #ff0000; stroke: #ff0000"/>
     <use xlink:href="#ma481a335cf" x="47.737851" y="45.938641" style="fill: #ff0000; stroke: #ff0000"/>
     <use xlink:href="#ma481a335cf" x="48.154282" y="45.903946" style="fill: #ff0000; stroke: #ff0000"/>
     <use xlink:href="#ma481a335cf" x="48.955744" y="45.809097" style="fill: #ff0000; stroke: #ff0000"/>
     <use xlink:href="#ma481a335cf" x="49.345934" y="44.772318" style="fill: #ff0000; stroke: #ff0000"/>
     <use xlink:href="#ma481a335cf" x="50.173152" y="45.621444" style="fill: #ff0000; stroke: #ff0000"/>
     <use xlink:href="#ma481a335cf" x="50.538221" y="45.186446" style="fill: #ff0000; stroke: #ff0000"/>
     <use xlink:href="#ma481a335cf" x="51.390223" y="44.872581" style="fill: #ff0000; stroke: #ff0000"/>
     <use xlink:href="#ma481a335cf" x="51.730658" y="45.130446" style="fill: #ff0000; stroke: #ff0000"/>
     <use xlink:href="#ma481a335cf" x="52.607033" y="43.178019" style="fill: #ff0000; stroke: #ff0000"/>
     <use xlink:href="#ma481a335cf" x="52.923282" y="45.846998" style="fill: #ff0000; stroke: #ff0000"/>
     <use xlink:href="#ma481a335cf" x="53.823656" y="44.054392" style="fill: #ff0000; stroke: #ff0000"/>
     <use xlink:href="#ma481a335cf" x="54.115905" y="44.308612" style="fill: #ff0000; stroke: #ff0000"/>
     <use xlink:href="#ma481a335cf" x="55.040503" y="43.349683" style="fill: #ff0000; stroke: #ff0000"/>
     <use xlink:href="#ma481a335cf" x="55.308454" y="40.863834" style="fill: #ff0000; stroke: #ff0000"/>
     <use xlink:href="#ma481a335cf" x="56.257462" y="37.859744" style="fill: #ff0000; stroke: #ff0000"/>
     <use xlink:href="#ma481a335cf" x="56.500592" y="33.300682" style="fill: #ff0000; stroke: #ff0000"/>
     <use xlink:href="#ma481a335cf" x="57.474944" y="28.375362" style="fill: #ff0000; stroke: #ff0000"/>
     <use xlink:href="#ma481a335cf" x="57.692206" y="25.767921" style="fill: #ff0000; stroke: #ff0000"/>
     <use xlink:href="#ma481a335cf" x="58.692838" y="23.814334" style="fill: #ff0000; stroke: #ff0000"/>
     <use xlink:href="#ma481a335cf" x="58.883223" y="23.696768" style="fill: #ff0000; stroke: #ff0000"/>
     <use xlink:href="#ma481a335cf" x="59.911666" y="22.726101" style="fill: #ff0000; stroke: #ff0000"/>
     <use xlink:href="#ma481a335cf" x="60.073379" y="22.265241" style="fill: #ff0000; stroke: #ff0000"/>
     <use xlink:href="#ma481a335cf" x="61.131466" y="21.279015" style="fill: #ff0000; stroke: #ff0000"/>
     <use xlink:href="#ma481a335cf" x="61.262265" y="21.350287" style="fill: #ff0000; stroke: #ff0000"/>
     <use xlink:href="#ma481a335cf" x="62.352687" y="21.765504" style="fill: #ff0000; stroke: #ff0000"/>
     <use xlink:href="#ma481a335cf" x="62.449505" y="20.977127" style="fill: #ff0000; stroke: #ff0000"/>
     <use xlink:href="#ma481a335cf" x="63.575777" y="20.907608" style="fill: #ff0000; stroke: #ff0000"/>
     <use xlink:href="#ma481a335cf" x="63.634727" y="20.697336" style="fill: #ff0000; stroke: #ff0000"/>
     <use xlink:href="#ma481a335cf" x="64.801296" y="22.212637" style="fill: #ff0000; stroke: #ff0000"/>
     <use xlink:href="#ma481a335cf" x="64.817109" y="21.674415" style="fill: #ff0000; stroke: #ff0000"/>
     <use xlink:href="#ma481a335cf" x="66.030068" y="19.67105" style="fill: #ff0000; stroke: #ff0000"/>
     <use xlink:href="#ma481a335cf" x="65.995639" y="21.444182" style="fill: #ff0000; stroke: #ff0000"/>
     <use xlink:href="#ma481a335cf" x="67.263288" y="21.171205" style="fill: #ff0000; stroke: #ff0000"/>
     <use xlink:href="#ma481a335cf" x="67.168899" y="72.433629" style="fill: #ff0000; stroke: #ff0000"/>
     <use xlink:href="#ma481a335cf" x="68.502751" y="22.025439" style="fill: #ff0000; stroke: #ff0000"/>
     <use xlink:href="#ma481a335cf" x="68.334571" y="72.569634" style="fill: #ff0000; stroke: #ff0000"/>
     <use xlink:href="#ma481a335cf" x="69.751597" y="20.083035" style="fill: #ff0000; stroke: #ff0000"/>
     <use xlink:href="#ma481a335cf" x="69.488841" y="72.688254" style="fill: #ff0000; stroke: #ff0000"/>
     <use xlink:href="#ma481a335cf" x="71.014685" y="19.513157" style="fill: #ff0000; stroke: #ff0000"/>
     <use xlink:href="#ma481a335cf" x="70.62472" y="20.54517" style="fill: #ff0000; stroke: #ff0000"/>
     <use xlink:href="#ma481a335cf" x="72.301734" y="19.276881" style="fill: #ff0000; stroke: #ff0000"/>
     <use xlink:href="#ma481a335cf" x="71.728674" y="71.977023" style="fill: #ff0000; stroke: #ff0000"/>
     <use xlink:href="#ma481a335cf" x="73.632857" y="71.574359" style="fill: #ff0000; stroke: #ff0000"/>
     <use xlink:href="#ma481a335cf" x="72.769267" y="19.183748" style="fill: #ff0000; stroke: #ff0000"/>
     <use xlink:href="#ma481a335cf" x="75.059864" y="20.619255" style="fill: #ff0000; stroke: #ff0000"/>
     <use xlink:href="#ma481a335cf" x="73.654725" y="23.306636" style="fill: #ff0000; stroke: #ff0000"/>
     <use xlink:href="#ma481a335cf" x="76.764055" y="72.70342" style="fill: #ff0000; stroke: #ff0000"/>
     <use xlink:href="#ma481a335cf" x="73.962974" y="21.49653" style="fill: #ff0000; stroke: #ff0000"/>
     <use xlink:href="#ma481a335cf" x="80.058199" y="72.256783" style="fill: #ff0000; stroke: #ff0000"/>
    </g>
   </g>
   <g id="patch_12">
    <path d="M 23.688125 75.553823 
L 23.688125 16.499459 
" style="fill: none; stroke: #000000; stroke-width: 0.5; stroke-linejoin: miter; stroke-linecap: square"/>
   </g>
   <g id="patch_13">
    <path d="M 82.742489 75.553823 
L 82.742489 16.499459 
" style="fill: none; stroke: #000000; stroke-width: 0.5; stroke-linejoin: miter; stroke-linecap: square"/>
   </g>
   <g id="patch_14">
    <path d="M 23.688125 75.553823 
L 82.742489 75.553823 
" style="fill: none; stroke: #000000; stroke-width: 0.5; stroke-linejoin: miter; stroke-linecap: square"/>
   </g>
   <g id="patch_15">
    <path d="M 23.688125 16.499459 
L 82.742489 16.499459 
" style="fill: none; stroke: #000000; stroke-width: 0.5; stroke-linejoin: miter; stroke-linecap: square"/>
   </g>
  </g>
  <g id="axes_4">
   <g id="matplotlib.axis_6">
    <g id="ytick_10">
     <g id="line2d_24">
      <g>
       <use xlink:href="#mdd7e678c38" x="189.15327" y="70.70369" style="stroke: #000000; stroke-width: 0.8"/>
      </g>
     </g>
     <g id="text_25">
      <!-- 0 -->
      <g transform="translate(192.65327 72.603299) scale(0.05 -0.05)">
       <use xlink:href="#DejaVuSans-30"/>
      </g>
     </g>
    </g>
    <g id="ytick_11">
     <g id="line2d_25">
      <g>
       <use xlink:href="#mdd7e678c38" x="189.15327" y="50.768642" style="stroke: #000000; stroke-width: 0.8"/>
      </g>
     </g>
     <g id="text_26">
      <!-- 1 -->
      <g transform="translate(192.65327 52.668251) scale(0.05 -0.05)">
       <use xlink:href="#DejaVuSans-31"/>
      </g>
     </g>
    </g>
    <g id="ytick_12">
     <g id="line2d_26">
      <g>
       <use xlink:href="#mdd7e678c38" x="189.15327" y="30.833594" style="stroke: #000000; stroke-width: 0.8"/>
      </g>
     </g>
     <g id="text_27">
      <!-- 2 -->
      <g transform="translate(192.65327 32.733203) scale(0.05 -0.05)">
       <use xlink:href="#DejaVuSans-32"/>
      </g>
     </g>
    </g>
    <g id="text_28">
     <!-- Imag (Arb. U.) -->
     <g transform="translate(204.393582 67.117109) rotate(-90) scale(0.06 -0.06)">
      <defs>
       <path id="DejaVuSans-49" d="M 628 4666 
L 1259 4666 
L 1259 0 
L 628 0 
L 628 4666 
z
" transform="scale(0.015625)"/>
      </defs>
      <use xlink:href="#DejaVuSans-49"/>
      <use xlink:href="#DejaVuSans-6d" x="29.492188"/>
      <use xlink:href="#DejaVuSans-61" x="126.904297"/>
      <use xlink:href="#DejaVuSans-67" x="188.183594"/>
      <use xlink:href="#DejaVuSans-20" x="251.660156"/>
      <use xlink:href="#DejaVuSans-28" x="283.447266"/>
      <use xlink:href="#DejaVuSans-41" x="322.460938"/>
      <use xlink:href="#DejaVuSans-72" x="390.869141"/>
      <use xlink:href="#DejaVuSans-62" x="431.982422"/>
      <use xlink:href="#DejaVuSans-2e" x="495.458984"/>
      <use xlink:href="#DejaVuSans-20" x="527.246094"/>
      <use xlink:href="#DejaVuSans-55" x="559.033203"/>
      <use xlink:href="#DejaVuSans-2e" x="632.226562"/>
      <use xlink:href="#DejaVuSans-29" x="664.013672"/>
     </g>
    </g>
    <g id="text_29">
     <!-- 1e−2 -->
     <g transform="translate(175.524364 13.499459) scale(0.05 -0.05)">
      <use xlink:href="#DejaVuSans-31"/>
      <use xlink:href="#DejaVuSans-65" x="63.623047"/>
      <use xlink:href="#DejaVuSans-2212" x="125.146484"/>
      <use xlink:href="#DejaVuSans-32" x="208.935547"/>
     </g>
    </g>
   </g>
   <g id="line2d_27">
    <path d="M 135.386453 71.400223 
L 135.678478 70.510805 
L 135.970503 71.756885 
L 136.262566 70.411222 
L 136.554629 71.123734 
L 136.846654 69.589958 
L 137.138679 69.343533 
L 137.430742 71.635492 
L 137.722805 71.289789 
L 138.01483 71.41556 
L 138.306855 70.867053 
L 138.598918 69.535038 
L 138.890981 68.794054 
L 139.183006 72.198453 
L 139.475032 71.481029 
L 139.767094 68.862545 
L 140.059157 71.714985 
L 140.643208 70.852215 
L 140.93527 71.053557 
L 141.227333 70.989551 
L 141.519358 72.146354 
L 141.811384 70.972607 
L 142.103447 70.60239 
L 142.395509 68.726024 
L 142.97956 71.781279 
L 143.563685 69.77784 
L 143.855711 71.179473 
L 144.147736 71.663203 
L 144.439799 71.056593 
L 144.731861 72.869533 
L 145.023887 70.779949 
L 145.315912 70.54046 
L 145.607975 70.048993 
L 145.900038 71.731115 
L 146.192063 70.68545 
L 146.484088 71.502648 
L 146.776151 71.941093 
L 147.068214 69.588203 
L 147.360239 70.952573 
L 147.652264 69.61229 
L 147.944327 71.669137 
L 148.23639 70.482531 
L 148.82044 70.343329 
L 149.112503 72.764306 
L 149.404566 69.936098 
L 149.696591 69.277457 
L 149.988617 71.277325 
L 150.280679 71.948363 
L 150.572742 70.764588 
L 150.864767 70.947764 
L 151.156793 71.331176 
L 151.448855 72.06737 
L 151.740918 69.118069 
L 152.032943 68.867901 
L 152.324969 71.775283 
L 152.617031 69.471657 
L 152.909094 70.510262 
L 153.20112 70.095313 
L 153.493145 70.21664 
L 153.785208 70.742979 
L 154.07727 70.04289 
L 154.661321 71.036007 
L 155.245446 70.494895 
L 155.537472 69.663911 
L 155.829497 70.061112 
L 156.12156 70.8101 
L 156.413623 68.817735 
L 156.997673 72.267692 
L 157.289736 67.780505 
L 157.873824 70.763612 
L 158.165849 70.551761 
L 158.457912 66.990164 
L 158.749975 67.703996 
L 159.042 67.572872 
L 159.334025 68.948058 
L 159.626088 70.86046 
L 160.210176 66.235202 
L 160.502202 66.246295 
L 160.794264 67.277305 
L 161.086327 65.405399 
L 161.378352 62.505054 
L 161.96244 50.077526 
L 162.254503 43.182086 
L 162.838554 21.940775 
L 163.130616 19.725076 
L 163.422679 23.825357 
L 164.00673 41.276695 
L 164.298793 46.169999 
L 164.590855 54.057773 
L 164.882881 57.501031 
L 165.174906 58.014227 
L 165.466969 61.00083 
L 165.759031 61.520128 
L 166.051057 62.552846 
L 166.343082 65.603586 
L 166.927207 66.664476 
L 167.511258 68.476039 
L 167.803321 67.942496 
L 168.095384 68.247414 
L 168.387409 67.264179 
L 168.679434 69.280812 
L 169.26356 68.355149 
L 169.555585 69.349675 
L 169.84761 69.911389 
L 170.139673 68.571113 
L 170.431736 69.421003 
L 170.723761 68.788116 
L 171.015786 67.687816 
L 171.307849 67.562661 
L 171.599912 69.960512 
L 171.891937 69.238773 
L 172.183963 70.939381 
L 172.476025 70.224315 
L 172.768088 68.41168 
L 173.060113 69.229316 
L 173.352139 70.726688 
L 173.644201 69.473879 
L 173.936264 70.946502 
L 174.228289 70.715475 
L 174.812378 67.470885 
L 175.10444 72.14706 
L 175.396466 70.889024 
L 175.980554 69.733682 
L 176.272616 70.220599 
L 176.564642 71.879301 
L 176.856667 71.034375 
L 177.14873 68.816175 
L 177.440792 70.734989 
L 177.732818 70.735006 
L 178.024843 69.961795 
L 178.316906 71.0144 
L 178.608969 70.584896 
L 179.193019 71.784939 
L 179.485082 70.67578 
L 179.777145 70.987978 
L 180.06917 70.428882 
L 180.361195 71.42882 
L 180.653258 69.167426 
L 180.945321 69.820113 
L 181.237346 69.530138 
L 181.529371 69.527796 
L 181.821434 71.482324 
L 182.405522 69.522216 
L 182.98961 71.687859 
L 183.281673 70.157161 
L 183.281673 70.157161 
" clip-path="url(#pf3ed832ebe)" style="fill: none; stroke: #008000; stroke-width: 0.5; stroke-linecap: square"/>
   </g>
   <g id="line2d_28">
    <defs>
     <path id="me9e49327ed" d="M -0.25 0.25 
L 0.25 0.25 
L 0.25 -0.25 
L -0.25 -0.25 
z
" style="stroke: #008000; stroke-linejoin: miter"/>
    </defs>
    <g clip-path="url(#pf3ed832ebe)">
     <use xlink:href="#me9e49327ed" x="147.652339" y="70.897657" style="fill: #008000; stroke: #008000; stroke-linejoin: miter"/>
     <use xlink:href="#me9e49327ed" x="132.783196" y="71.13246" style="fill: #008000; stroke: #008000; stroke-linejoin: miter"/>
     <use xlink:href="#me9e49327ed" x="138.294333" y="70.487371" style="fill: #008000; stroke: #008000; stroke-linejoin: miter"/>
     <use xlink:href="#me9e49327ed" x="136.077377" y="69.812692" style="fill: #008000; stroke: #008000; stroke-linejoin: miter"/>
     <use xlink:href="#me9e49327ed" x="138.602656" y="72.058381" style="fill: #008000; stroke: #008000; stroke-linejoin: miter"/>
     <use xlink:href="#me9e49327ed" x="137.781606" y="69.741201" style="fill: #008000; stroke: #008000; stroke-linejoin: miter"/>
     <use xlink:href="#me9e49327ed" x="139.488078" y="70.597202" style="fill: #008000; stroke: #008000; stroke-linejoin: miter"/>
     <use xlink:href="#me9e49327ed" x="139.208613" y="70.672496" style="fill: #008000; stroke: #008000; stroke-linejoin: miter"/>
     <use xlink:href="#me9e49327ed" x="140.52867" y="71.052829" style="fill: #008000; stroke: #008000; stroke-linejoin: miter"/>
     <use xlink:href="#me9e49327ed" x="140.539698" y="70.955702" style="fill: #008000; stroke: #008000; stroke-linejoin: miter"/>
     <use xlink:href="#me9e49327ed" x="141.632662" y="71.666919" style="fill: #008000; stroke: #008000; stroke-linejoin: miter"/>
     <use xlink:href="#me9e49327ed" x="141.82671" y="70.408778" style="fill: #008000; stroke: #008000; stroke-linejoin: miter"/>
     <use xlink:href="#me9e49327ed" x="142.768503" y="70.077739" style="fill: #008000; stroke: #008000; stroke-linejoin: miter"/>
     <use xlink:href="#me9e49327ed" x="143.089873" y="71.108983" style="fill: #008000; stroke: #008000; stroke-linejoin: miter"/>
     <use xlink:href="#me9e49327ed" x="143.922773" y="70.380584" style="fill: #008000; stroke: #008000; stroke-linejoin: miter"/>
     <use xlink:href="#me9e49327ed" x="144.338719" y="72.122241" style="fill: #008000; stroke: #008000; stroke-linejoin: miter"/>
     <use xlink:href="#me9e49327ed" x="145.088407" y="71.114985" style="fill: #008000; stroke: #008000; stroke-linejoin: miter"/>
     <use xlink:href="#me9e49327ed" x="145.578219" y="70.434737" style="fill: #008000; stroke: #008000; stroke-linejoin: miter"/>
     <use xlink:href="#me9e49327ed" x="146.261705" y="71.505763" style="fill: #008000; stroke: #008000; stroke-linejoin: miter"/>
     <use xlink:href="#me9e49327ed" x="146.811364" y="70.946418" style="fill: #008000; stroke: #008000; stroke-linejoin: miter"/>
     <use xlink:href="#me9e49327ed" x="147.440273" y="70.342356" style="fill: #008000; stroke: #008000; stroke-linejoin: miter"/>
     <use xlink:href="#me9e49327ed" x="148.040174" y="70.674126" style="fill: #008000; stroke: #008000; stroke-linejoin: miter"/>
     <use xlink:href="#me9e49327ed" x="148.622654" y="70.874985" style="fill: #008000; stroke: #008000; stroke-linejoin: miter"/>
     <use xlink:href="#me9e49327ed" x="149.265693" y="70.89722" style="fill: #008000; stroke: #008000; stroke-linejoin: miter"/>
     <use xlink:href="#me9e49327ed" x="149.807802" y="70.343474" style="fill: #008000; stroke: #008000; stroke-linejoin: miter"/>
     <use xlink:href="#me9e49327ed" x="150.488745" y="71.419515" style="fill: #008000; stroke: #008000; stroke-linejoin: miter"/>
     <use xlink:href="#me9e49327ed" x="150.99508" y="71.249354" style="fill: #008000; stroke: #008000; stroke-linejoin: miter"/>
     <use xlink:href="#me9e49327ed" x="151.709966" y="70.414011" style="fill: #008000; stroke: #008000; stroke-linejoin: miter"/>
     <use xlink:href="#me9e49327ed" x="152.183965" y="69.791516" style="fill: #008000; stroke: #008000; stroke-linejoin: miter"/>
     <use xlink:href="#me9e49327ed" x="152.929804" y="70.566027" style="fill: #008000; stroke: #008000; stroke-linejoin: miter"/>
     <use xlink:href="#me9e49327ed" x="153.374084" y="70.022356" style="fill: #008000; stroke: #008000; stroke-linejoin: miter"/>
     <use xlink:href="#me9e49327ed" x="154.148632" y="70.642662" style="fill: #008000; stroke: #008000; stroke-linejoin: miter"/>
     <use xlink:href="#me9e49327ed" x="154.565063" y="70.637206" style="fill: #008000; stroke: #008000; stroke-linejoin: miter"/>
     <use xlink:href="#me9e49327ed" x="155.366526" y="70.55867" style="fill: #008000; stroke: #008000; stroke-linejoin: miter"/>
     <use xlink:href="#me9e49327ed" x="155.756715" y="69.72834" style="fill: #008000; stroke: #008000; stroke-linejoin: miter"/>
     <use xlink:href="#me9e49327ed" x="156.583933" y="70.348072" style="fill: #008000; stroke: #008000; stroke-linejoin: miter"/>
     <use xlink:href="#me9e49327ed" x="156.949002" y="69.980256" style="fill: #008000; stroke: #008000; stroke-linejoin: miter"/>
     <use xlink:href="#me9e49327ed" x="157.801005" y="69.593994" style="fill: #008000; stroke: #008000; stroke-linejoin: miter"/>
     <use xlink:href="#me9e49327ed" x="158.141439" y="69.608296" style="fill: #008000; stroke: #008000; stroke-linejoin: miter"/>
     <use xlink:href="#me9e49327ed" x="159.017814" y="66.696282" style="fill: #008000; stroke: #008000; stroke-linejoin: miter"/>
     <use xlink:href="#me9e49327ed" x="159.334063" y="70.412188" style="fill: #008000; stroke: #008000; stroke-linejoin: miter"/>
     <use xlink:href="#me9e49327ed" x="160.234437" y="67.043864" style="fill: #008000; stroke: #008000; stroke-linejoin: miter"/>
     <use xlink:href="#me9e49327ed" x="160.526686" y="66.974878" style="fill: #008000; stroke: #008000; stroke-linejoin: miter"/>
     <use xlink:href="#me9e49327ed" x="161.451284" y="63.02873" style="fill: #008000; stroke: #008000; stroke-linejoin: miter"/>
     <use xlink:href="#me9e49327ed" x="161.719235" y="51.674871" style="fill: #008000; stroke: #008000; stroke-linejoin: miter"/>
     <use xlink:href="#me9e49327ed" x="162.668243" y="33.864952" style="fill: #008000; stroke: #008000; stroke-linejoin: miter"/>
     <use xlink:href="#me9e49327ed" x="162.911373" y="19.183748" style="fill: #008000; stroke: #008000; stroke-linejoin: miter"/>
     <use xlink:href="#me9e49327ed" x="163.885725" y="32.313164" style="fill: #008000; stroke: #008000; stroke-linejoin: miter"/>
     <use xlink:href="#me9e49327ed" x="164.102988" y="47.391862" style="fill: #008000; stroke: #008000; stroke-linejoin: miter"/>
     <use xlink:href="#me9e49327ed" x="165.103619" y="57.427396" style="fill: #008000; stroke: #008000; stroke-linejoin: miter"/>
     <use xlink:href="#me9e49327ed" x="165.294004" y="60.190925" style="fill: #008000; stroke: #008000; stroke-linejoin: miter"/>
     <use xlink:href="#me9e49327ed" x="166.322447" y="63.718307" style="fill: #008000; stroke: #008000; stroke-linejoin: miter"/>
     <use xlink:href="#me9e49327ed" x="166.48416" y="66.285406" style="fill: #008000; stroke: #008000; stroke-linejoin: miter"/>
     <use xlink:href="#me9e49327ed" x="167.542248" y="67.851912" style="fill: #008000; stroke: #008000; stroke-linejoin: miter"/>
     <use xlink:href="#me9e49327ed" x="167.673046" y="68.072691" style="fill: #008000; stroke: #008000; stroke-linejoin: miter"/>
     <use xlink:href="#me9e49327ed" x="168.763468" y="68.17549" style="fill: #008000; stroke: #008000; stroke-linejoin: miter"/>
     <use xlink:href="#me9e49327ed" x="168.860287" y="69.005222" style="fill: #008000; stroke: #008000; stroke-linejoin: miter"/>
     <use xlink:href="#me9e49327ed" x="169.986558" y="69.109171" style="fill: #008000; stroke: #008000; stroke-linejoin: miter"/>
     <use xlink:href="#me9e49327ed" x="170.045509" y="69.426302" style="fill: #008000; stroke: #008000; stroke-linejoin: miter"/>
     <use xlink:href="#me9e49327ed" x="171.212077" y="67.877846" style="fill: #008000; stroke: #008000; stroke-linejoin: miter"/>
     <use xlink:href="#me9e49327ed" x="171.22789" y="68.863577" style="fill: #008000; stroke: #008000; stroke-linejoin: miter"/>
     <use xlink:href="#me9e49327ed" x="172.440849" y="70.363795" style="fill: #008000; stroke: #008000; stroke-linejoin: miter"/>
     <use xlink:href="#me9e49327ed" x="172.406421" y="69.389744" style="fill: #008000; stroke: #008000; stroke-linejoin: miter"/>
     <use xlink:href="#me9e49327ed" x="173.674069" y="69.528323" style="fill: #008000; stroke: #008000; stroke-linejoin: miter"/>
     <use xlink:href="#me9e49327ed" x="173.579681" y="71.046395" style="fill: #008000; stroke: #008000; stroke-linejoin: miter"/>
     <use xlink:href="#me9e49327ed" x="174.913532" y="68.804966" style="fill: #008000; stroke: #008000; stroke-linejoin: miter"/>
     <use xlink:href="#me9e49327ed" x="174.745352" y="70.842898" style="fill: #008000; stroke: #008000; stroke-linejoin: miter"/>
     <use xlink:href="#me9e49327ed" x="176.162378" y="70.156815" style="fill: #008000; stroke: #008000; stroke-linejoin: miter"/>
     <use xlink:href="#me9e49327ed" x="175.899622" y="70.781552" style="fill: #008000; stroke: #008000; stroke-linejoin: miter"/>
     <use xlink:href="#me9e49327ed" x="177.425466" y="70.557219" style="fill: #008000; stroke: #008000; stroke-linejoin: miter"/>
     <use xlink:href="#me9e49327ed" x="177.035501" y="70.07558" style="fill: #008000; stroke: #008000; stroke-linejoin: miter"/>
     <use xlink:href="#me9e49327ed" x="178.712516" y="70.666739" style="fill: #008000; stroke: #008000; stroke-linejoin: miter"/>
     <use xlink:href="#me9e49327ed" x="178.139455" y="70.973384" style="fill: #008000; stroke: #008000; stroke-linejoin: miter"/>
     <use xlink:href="#me9e49327ed" x="180.043638" y="71.312894" style="fill: #008000; stroke: #008000; stroke-linejoin: miter"/>
     <use xlink:href="#me9e49327ed" x="179.180048" y="70.701602" style="fill: #008000; stroke: #008000; stroke-linejoin: miter"/>
     <use xlink:href="#me9e49327ed" x="181.470645" y="70.330837" style="fill: #008000; stroke: #008000; stroke-linejoin: miter"/>
     <use xlink:href="#me9e49327ed" x="180.065507" y="69.241854" style="fill: #008000; stroke: #008000; stroke-linejoin: miter"/>
     <use xlink:href="#me9e49327ed" x="183.174836" y="70.787471" style="fill: #008000; stroke: #008000; stroke-linejoin: miter"/>
     <use xlink:href="#me9e49327ed" x="180.373756" y="70.173115" style="fill: #008000; stroke: #008000; stroke-linejoin: miter"/>
     <use xlink:href="#me9e49327ed" x="186.468981" y="70.916978" style="fill: #008000; stroke: #008000; stroke-linejoin: miter"/>
    </g>
   </g>
   <g id="patch_16">
    <path d="M 130.098906 75.553822 
L 130.098906 16.499459 
" style="fill: none; stroke: #000000; stroke-width: 0.5; stroke-linejoin: miter; stroke-linecap: square"/>
   </g>
   <g id="patch_17">
    <path d="M 189.15327 75.553822 
L 189.15327 16.499459 
" style="fill: none; stroke: #000000; stroke-width: 0.5; stroke-linejoin: miter; stroke-linecap: square"/>
   </g>
   <g id="patch_18">
    <path d="M 130.098906 75.553822 
L 189.15327 75.553822 
" style="fill: none; stroke: #000000; stroke-width: 0.5; stroke-linejoin: miter; stroke-linecap: square"/>
   </g>
   <g id="patch_19">
    <path d="M 130.098906 16.499459 
L 189.15327 16.499459 
" style="fill: none; stroke: #000000; stroke-width: 0.5; stroke-linejoin: miter; stroke-linecap: square"/>
   </g>
  </g>
  <g id="legend_1">
   <g id="line2d_29">
    <path d="M 215.030072 11.249219 
L 220.030072 11.249219 
L 225.030072 11.249219 
" style="fill: none; stroke: #0000ff; stroke-width: 0.5; stroke-linecap: square"/>
   </g>
   <g id="text_30">
    <!-- Raw Amplitude -->
    <g transform="translate(229.030072 12.999219) scale(0.05 -0.05)">
     <defs>
      <path id="DejaVuSans-77" d="M 269 3500 
L 844 3500 
L 1563 769 
L 2278 3500 
L 2956 3500 
L 3675 769 
L 4391 3500 
L 4966 3500 
L 4050 0 
L 3372 0 
L 2619 2869 
L 1863 0 
L 1184 0 
L 269 3500 
z
" transform="scale(0.015625)"/>
     </defs>
     <use xlink:href="#DejaVuSans-52"/>
     <use xlink:href="#DejaVuSans-61" x="67.232422"/>
     <use xlink:href="#DejaVuSans-77" x="128.511719"/>
     <use xlink:href="#DejaVuSans-20" x="210.298828"/>
     <use xlink:href="#DejaVuSans-41" x="242.085938"/>
     <use xlink:href="#DejaVuSans-6d" x="310.494141"/>
     <use xlink:href="#DejaVuSans-70" x="407.90625"/>
     <use xlink:href="#DejaVuSans-6c" x="471.382812"/>
     <use xlink:href="#DejaVuSans-69" x="499.166016"/>
     <use xlink:href="#DejaVuSans-74" x="526.949219"/>
     <use xlink:href="#DejaVuSans-75" x="566.158203"/>
     <use xlink:href="#DejaVuSans-64" x="629.537109"/>
     <use xlink:href="#DejaVuSans-65" x="693.013672"/>
    </g>
   </g>
   <g id="line2d_30">
    <g>
     <use xlink:href="#mf6187c2901" x="220.030072" y="18.588281" style="fill: #0000ff; stroke: #0000ff"/>
    </g>
   </g>
   <g id="text_31">
    <!-- Resampled Amplitude -->
    <g transform="translate(229.030072 20.338281) scale(0.05 -0.05)">
     <use xlink:href="#DejaVuSans-52"/>
     <use xlink:href="#DejaVuSans-65" x="64.982422"/>
     <use xlink:href="#DejaVuSans-73" x="126.505859"/>
     <use xlink:href="#DejaVuSans-61" x="178.605469"/>
     <use xlink:href="#DejaVuSans-6d" x="239.884766"/>
     <use xlink:href="#DejaVuSans-70" x="337.296875"/>
     <use xlink:href="#DejaVuSans-6c" x="400.773438"/>
     <use xlink:href="#DejaVuSans-65" x="428.556641"/>
     <use xlink:href="#DejaVuSans-64" x="490.080078"/>
     <use xlink:href="#DejaVuSans-20" x="553.556641"/>
     <use xlink:href="#DejaVuSans-41" x="585.34375"/>
     <use xlink:href="#DejaVuSans-6d" x="653.751953"/>
     <use xlink:href="#DejaVuSans-70" x="751.164062"/>
     <use xlink:href="#DejaVuSans-6c" x="814.640625"/>
     <use xlink:href="#DejaVuSans-69" x="842.423828"/>
     <use xlink:href="#DejaVuSans-74" x="870.207031"/>
     <use xlink:href="#DejaVuSans-75" x="909.416016"/>
     <use xlink:href="#DejaVuSans-64" x="972.794922"/>
     <use xlink:href="#DejaVuSans-65" x="1036.271484"/>
    </g>
   </g>
   <g id="line2d_31">
    <path d="M 215.030072 25.927344 
L 220.030072 25.927344 
L 225.030072 25.927344 
" style="fill: none; stroke: #000000; stroke-width: 0.5; stroke-linecap: square"/>
   </g>
   <g id="text_32">
    <!-- Raw Real -->
    <g transform="translate(229.030072 27.677344) scale(0.05 -0.05)">
     <use xlink:href="#DejaVuSans-52"/>
     <use xlink:href="#DejaVuSans-61" x="67.232422"/>
     <use xlink:href="#DejaVuSans-77" x="128.511719"/>
     <use xlink:href="#DejaVuSans-20" x="210.298828"/>
     <use xlink:href="#DejaVuSans-52" x="242.085938"/>
     <use xlink:href="#DejaVuSans-65" x="307.068359"/>
     <use xlink:href="#DejaVuSans-61" x="368.591797"/>
     <use xlink:href="#DejaVuSans-6c" x="429.871094"/>
    </g>
   </g>
   <g id="line2d_32">
    <g>
     <use xlink:href="#m96df77eddb" x="220.030072" y="33.266406" style="stroke: #000000"/>
    </g>
   </g>
   <g id="text_33">
    <!-- Resampled Real -->
    <g transform="translate(229.030072 35.016406) scale(0.05 -0.05)">
     <use xlink:href="#DejaVuSans-52"/>
     <use xlink:href="#DejaVuSans-65" x="64.982422"/>
     <use xlink:href="#DejaVuSans-73" x="126.505859"/>
     <use xlink:href="#DejaVuSans-61" x="178.605469"/>
     <use xlink:href="#DejaVuSans-6d" x="239.884766"/>
     <use xlink:href="#DejaVuSans-70" x="337.296875"/>
     <use xlink:href="#DejaVuSans-6c" x="400.773438"/>
     <use xlink:href="#DejaVuSans-65" x="428.556641"/>
     <use xlink:href="#DejaVuSans-64" x="490.080078"/>
     <use xlink:href="#DejaVuSans-20" x="553.556641"/>
     <use xlink:href="#DejaVuSans-52" x="585.34375"/>
     <use xlink:href="#DejaVuSans-65" x="650.326172"/>
     <use xlink:href="#DejaVuSans-61" x="711.849609"/>
     <use xlink:href="#DejaVuSans-6c" x="773.128906"/>
    </g>
   </g>
   <g id="line2d_33">
    <path d="M 215.030072 40.605469 
L 220.030072 40.605469 
L 225.030072 40.605469 
" style="fill: none; stroke: #ff0000; stroke-width: 0.5; stroke-linecap: square"/>
   </g>
   <g id="text_34">
    <!-- Raw Phase -->
    <g transform="translate(229.030072 42.355469) scale(0.05 -0.05)">
     <use xlink:href="#DejaVuSans-52"/>
     <use xlink:href="#DejaVuSans-61" x="67.232422"/>
     <use xlink:href="#DejaVuSans-77" x="128.511719"/>
     <use xlink:href="#DejaVuSans-20" x="210.298828"/>
     <use xlink:href="#DejaVuSans-50" x="242.085938"/>
     <use xlink:href="#DejaVuSans-68" x="302.388672"/>
     <use xlink:href="#DejaVuSans-61" x="365.767578"/>
     <use xlink:href="#DejaVuSans-73" x="427.046875"/>
     <use xlink:href="#DejaVuSans-65" x="479.146484"/>
    </g>
   </g>
   <g id="line2d_34">
    <g>
     <use xlink:href="#ma481a335cf" x="220.030072" y="47.944531" style="fill: #ff0000; stroke: #ff0000"/>
    </g>
   </g>
   <g id="text_35">
    <!-- Resampled Phase -->
    <g transform="translate(229.030072 49.694531) scale(0.05 -0.05)">
     <use xlink:href="#DejaVuSans-52"/>
     <use xlink:href="#DejaVuSans-65" x="64.982422"/>
     <use xlink:href="#DejaVuSans-73" x="126.505859"/>
     <use xlink:href="#DejaVuSans-61" x="178.605469"/>
     <use xlink:href="#DejaVuSans-6d" x="239.884766"/>
     <use xlink:href="#DejaVuSans-70" x="337.296875"/>
     <use xlink:href="#DejaVuSans-6c" x="400.773438"/>
     <use xlink:href="#DejaVuSans-65" x="428.556641"/>
     <use xlink:href="#DejaVuSans-64" x="490.080078"/>
     <use xlink:href="#DejaVuSans-20" x="553.556641"/>
     <use xlink:href="#DejaVuSans-50" x="585.34375"/>
     <use xlink:href="#DejaVuSans-68" x="645.646484"/>
     <use xlink:href="#DejaVuSans-61" x="709.025391"/>
     <use xlink:href="#DejaVuSans-73" x="770.304688"/>
     <use xlink:href="#DejaVuSans-65" x="822.404297"/>
    </g>
   </g>
   <g id="line2d_35">
    <path d="M 215.030072 55.283594 
L 220.030072 55.283594 
L 225.030072 55.283594 
" style="fill: none; stroke: #008000; stroke-width: 0.5; stroke-linecap: square"/>
   </g>
   <g id="text_36">
    <!-- Raw Imag -->
    <g transform="translate(229.030072 57.033594) scale(0.05 -0.05)">
     <use xlink:href="#DejaVuSans-52"/>
     <use xlink:href="#DejaVuSans-61" x="67.232422"/>
     <use xlink:href="#DejaVuSans-77" x="128.511719"/>
     <use xlink:href="#DejaVuSans-20" x="210.298828"/>
     <use xlink:href="#DejaVuSans-49" x="242.085938"/>
     <use xlink:href="#DejaVuSans-6d" x="271.578125"/>
     <use xlink:href="#DejaVuSans-61" x="368.990234"/>
     <use xlink:href="#DejaVuSans-67" x="430.269531"/>
    </g>
   </g>
   <g id="line2d_36">
    <g>
     <use xlink:href="#me9e49327ed" x="220.030072" y="62.622656" style="fill: #008000; stroke: #008000; stroke-linejoin: miter"/>
    </g>
   </g>
   <g id="text_37">
    <!-- Resampled Imag -->
    <g transform="translate(229.030072 64.372656) scale(0.05 -0.05)">
     <use xlink:href="#DejaVuSans-52"/>
     <use xlink:href="#DejaVuSans-65" x="64.982422"/>
     <use xlink:href="#DejaVuSans-73" x="126.505859"/>
     <use xlink:href="#DejaVuSans-61" x="178.605469"/>
     <use xlink:href="#DejaVuSans-6d" x="239.884766"/>
     <use xlink:href="#DejaVuSans-70" x="337.296875"/>
     <use xlink:href="#DejaVuSans-6c" x="400.773438"/>
     <use xlink:href="#DejaVuSans-65" x="428.556641"/>
     <use xlink:href="#DejaVuSans-64" x="490.080078"/>
     <use xlink:href="#DejaVuSans-20" x="553.556641"/>
     <use xlink:href="#DejaVuSans-49" x="585.34375"/>
     <use xlink:href="#DejaVuSans-6d" x="614.835938"/>
     <use xlink:href="#DejaVuSans-61" x="712.248047"/>
     <use xlink:href="#DejaVuSans-67" x="773.527344"/>
    </g>
   </g>
  </g>
 </g>
 <defs>
  <clipPath id="p8a8f51c7c0">
   <rect x="23.688125" y="16.499459" width="59.054364" height="59.054364"/>
  </clipPath>
  <clipPath id="pf3ed832ebe">
   <rect x="130.098906" y="16.499459" width="59.054364" height="59.054364"/>
  </clipPath>
 </defs>
</svg>
