<?xml version="1.0" encoding="utf-8" standalone="no"?>
<!DOCTYPE svg PUBLIC "-//W3C//DTD SVG 1.1//EN"
  "http://www.w3.org/Graphics/SVG/1.1/DTD/svg11.dtd">
<svg xmlns:xlink="http://www.w3.org/1999/xlink" width="2152.860625pt" height="424.9625pt" viewBox="0 0 2152.860625 424.9625" xmlns="http://www.w3.org/2000/svg" version="1.1">
 <metadata>
  <rdf:RDF xmlns:dc="http://purl.org/dc/elements/1.1/" xmlns:cc="http://creativecommons.org/ns#" xmlns:rdf="http://www.w3.org/1999/02/22-rdf-syntax-ns#">
   <cc:Work>
    <dc:type rdf:resource="http://purl.org/dc/dcmitype/StillImage"/>
    <dc:date>2023-03-27T22:21:59.594635</dc:date>
    <dc:format>image/svg+xml</dc:format>
    <dc:creator>
     <cc:Agent>
      <dc:title>Matplotlib v3.7.1, https://matplotlib.org/</dc:title>
     </cc:Agent>
    </dc:creator>
   </cc:Work>
  </rdf:RDF>
 </metadata>
 <defs>
  <style type="text/css">*{stroke-linejoin: round; stroke-linecap: butt}</style>
 </defs>
 <g id="figure_1">
  <g id="patch_1">
   <path d="M 0 424.9625 
L 2152.860625 424.9625 
L 2152.860625 0 
L 0 0 
z
" style="fill: #ffffff"/>
  </g>
  <g id="axes_1">
   <g id="patch_2">
    <path d="M 42.300625 398.7775 
L 499.403125 398.7775 
L 499.403125 22.3575 
L 42.300625 22.3575 
z
" style="fill: #ffffff"/>
   </g>
   <g id="matplotlib.axis_1">
    <g id="xtick_1">
     <g id="line2d_1">
      <defs>
       <path id="me29c1328f6" d="M 0 0 
L 0 -3.5 
" style="stroke: #000000; stroke-width: 0.8"/>
      </defs>
      <g>
       <use xlink:href="#me29c1328f6" x="76.063878" y="398.7775" style="stroke: #000000; stroke-width: 0.8"/>
      </g>
     </g>
     <g id="line2d_2">
      <defs>
       <path id="m0a3df3257e" d="M 0 0 
L 0 3.5 
" style="stroke: #000000; stroke-width: 0.8"/>
      </defs>
      <g>
       <use xlink:href="#m0a3df3257e" x="76.063878" y="22.3575" style="stroke: #000000; stroke-width: 0.8"/>
      </g>
     </g>
     <g id="text_1">
      <!-- −15 -->
      <g transform="translate(59.180128 414.435) scale(0.16 -0.16)">
       <defs>
        <path id="DejaVuSans-2212" d="M 678 2272 
L 4684 2272 
L 4684 1741 
L 678 1741 
L 678 2272 
z
" transform="scale(0.015625)"/>
        <path id="DejaVuSans-31" d="M 794 531 
L 1825 531 
L 1825 4091 
L 703 3866 
L 703 4441 
L 1819 4666 
L 2450 4666 
L 2450 531 
L 3481 531 
L 3481 0 
L 794 0 
L 794 531 
z
" transform="scale(0.015625)"/>
        <path id="DejaVuSans-35" d="M 691 4666 
L 3169 4666 
L 3169 4134 
L 1269 4134 
L 1269 2991 
Q 1406 3038 1543 3061 
Q 1681 3084 1819 3084 
Q 2600 3084 3056 2656 
Q 3513 2228 3513 1497 
Q 3513 744 3044 326 
Q 2575 -91 1722 -91 
Q 1428 -91 1123 -41 
Q 819 9 494 109 
L 494 744 
Q 775 591 1075 516 
Q 1375 441 1709 441 
Q 2250 441 2565 725 
Q 2881 1009 2881 1497 
Q 2881 1984 2565 2268 
Q 2250 2553 1709 2553 
Q 1456 2553 1204 2497 
Q 953 2441 691 2322 
L 691 4666 
z
" transform="scale(0.015625)"/>
       </defs>
       <use xlink:href="#DejaVuSans-2212"/>
       <use xlink:href="#DejaVuSans-31" x="83.789062"/>
       <use xlink:href="#DejaVuSans-35" x="147.412109"/>
      </g>
     </g>
    </g>
    <g id="xtick_2">
     <g id="line2d_3">
      <g>
       <use xlink:href="#me29c1328f6" x="140.99321" y="398.7775" style="stroke: #000000; stroke-width: 0.8"/>
      </g>
     </g>
     <g id="line2d_4">
      <g>
       <use xlink:href="#m0a3df3257e" x="140.99321" y="22.3575" style="stroke: #000000; stroke-width: 0.8"/>
      </g>
     </g>
     <g id="text_2">
      <!-- −10 -->
      <g transform="translate(124.10946 414.435) scale(0.16 -0.16)">
       <defs>
        <path id="DejaVuSans-30" d="M 2034 4250 
Q 1547 4250 1301 3770 
Q 1056 3291 1056 2328 
Q 1056 1369 1301 889 
Q 1547 409 2034 409 
Q 2525 409 2770 889 
Q 3016 1369 3016 2328 
Q 3016 3291 2770 3770 
Q 2525 4250 2034 4250 
z
M 2034 4750 
Q 2819 4750 3233 4129 
Q 3647 3509 3647 2328 
Q 3647 1150 3233 529 
Q 2819 -91 2034 -91 
Q 1250 -91 836 529 
Q 422 1150 422 2328 
Q 422 3509 836 4129 
Q 1250 4750 2034 4750 
z
" transform="scale(0.015625)"/>
       </defs>
       <use xlink:href="#DejaVuSans-2212"/>
       <use xlink:href="#DejaVuSans-31" x="83.789062"/>
       <use xlink:href="#DejaVuSans-30" x="147.412109"/>
      </g>
     </g>
    </g>
    <g id="xtick_3">
     <g id="line2d_5">
      <g>
       <use xlink:href="#me29c1328f6" x="205.922543" y="398.7775" style="stroke: #000000; stroke-width: 0.8"/>
      </g>
     </g>
     <g id="line2d_6">
      <g>
       <use xlink:href="#m0a3df3257e" x="205.922543" y="22.3575" style="stroke: #000000; stroke-width: 0.8"/>
      </g>
     </g>
     <g id="text_3">
      <!-- −5 -->
      <g transform="translate(194.128793 414.435) scale(0.16 -0.16)">
       <use xlink:href="#DejaVuSans-2212"/>
       <use xlink:href="#DejaVuSans-35" x="83.789062"/>
      </g>
     </g>
    </g>
    <g id="xtick_4">
     <g id="line2d_7">
      <g>
       <use xlink:href="#me29c1328f6" x="270.851875" y="398.7775" style="stroke: #000000; stroke-width: 0.8"/>
      </g>
     </g>
     <g id="line2d_8">
      <g>
       <use xlink:href="#m0a3df3257e" x="270.851875" y="22.3575" style="stroke: #000000; stroke-width: 0.8"/>
      </g>
     </g>
     <g id="text_4">
      <!-- 0 -->
      <g transform="translate(265.761875 414.435) scale(0.16 -0.16)">
       <use xlink:href="#DejaVuSans-30"/>
      </g>
     </g>
    </g>
    <g id="xtick_5">
     <g id="line2d_9">
      <g>
       <use xlink:href="#me29c1328f6" x="335.781207" y="398.7775" style="stroke: #000000; stroke-width: 0.8"/>
      </g>
     </g>
     <g id="line2d_10">
      <g>
       <use xlink:href="#m0a3df3257e" x="335.781207" y="22.3575" style="stroke: #000000; stroke-width: 0.8"/>
      </g>
     </g>
     <g id="text_5">
      <!-- 5 -->
      <g transform="translate(330.691207 414.435) scale(0.16 -0.16)">
       <use xlink:href="#DejaVuSans-35"/>
      </g>
     </g>
    </g>
    <g id="xtick_6">
     <g id="line2d_11">
      <g>
       <use xlink:href="#me29c1328f6" x="400.71054" y="398.7775" style="stroke: #000000; stroke-width: 0.8"/>
      </g>
     </g>
     <g id="line2d_12">
      <g>
       <use xlink:href="#m0a3df3257e" x="400.71054" y="22.3575" style="stroke: #000000; stroke-width: 0.8"/>
      </g>
     </g>
     <g id="text_6">
      <!-- 10 -->
      <g transform="translate(390.53054 414.435) scale(0.16 -0.16)">
       <use xlink:href="#DejaVuSans-31"/>
       <use xlink:href="#DejaVuSans-30" x="63.623047"/>
      </g>
     </g>
    </g>
    <g id="xtick_7">
     <g id="line2d_13">
      <g>
       <use xlink:href="#me29c1328f6" x="465.639872" y="398.7775" style="stroke: #000000; stroke-width: 0.8"/>
      </g>
     </g>
     <g id="line2d_14">
      <g>
       <use xlink:href="#m0a3df3257e" x="465.639872" y="22.3575" style="stroke: #000000; stroke-width: 0.8"/>
      </g>
     </g>
     <g id="text_7">
      <!-- 15 -->
      <g transform="translate(455.459872 414.435) scale(0.16 -0.16)">
       <use xlink:href="#DejaVuSans-31"/>
       <use xlink:href="#DejaVuSans-35" x="63.623047"/>
      </g>
     </g>
    </g>
   </g>
   <g id="matplotlib.axis_2">
    <g id="ytick_1">
     <g id="line2d_15">
      <defs>
       <path id="m7d90f3d1df" d="M 0 0 
L 3.5 0 
" style="stroke: #000000; stroke-width: 0.8"/>
      </defs>
      <g>
       <use xlink:href="#m7d90f3d1df" x="42.300625" y="395.660074" style="stroke: #000000; stroke-width: 0.8"/>
      </g>
     </g>
     <g id="line2d_16">
      <defs>
       <path id="md96fc4eb02" d="M 0 0 
L -3.5 0 
" style="stroke: #000000; stroke-width: 0.8"/>
      </defs>
      <g>
       <use xlink:href="#md96fc4eb02" x="499.403125" y="395.660074" style="stroke: #000000; stroke-width: 0.8"/>
      </g>
     </g>
     <g id="text_8">
      <!-- 0 -->
      <g transform="translate(28.620625 401.738824) scale(0.16 -0.16)">
       <use xlink:href="#DejaVuSans-30"/>
      </g>
     </g>
    </g>
    <g id="ytick_2">
     <g id="line2d_17">
      <g>
       <use xlink:href="#m7d90f3d1df" x="42.300625" y="347.90404" style="stroke: #000000; stroke-width: 0.8"/>
      </g>
     </g>
     <g id="line2d_18">
      <g>
       <use xlink:href="#md96fc4eb02" x="499.403125" y="347.90404" style="stroke: #000000; stroke-width: 0.8"/>
      </g>
     </g>
     <g id="text_9">
      <!-- 1 -->
      <g transform="translate(28.620625 353.98279) scale(0.16 -0.16)">
       <use xlink:href="#DejaVuSans-31"/>
      </g>
     </g>
    </g>
    <g id="ytick_3">
     <g id="line2d_19">
      <g>
       <use xlink:href="#m7d90f3d1df" x="42.300625" y="300.148006" style="stroke: #000000; stroke-width: 0.8"/>
      </g>
     </g>
     <g id="line2d_20">
      <g>
       <use xlink:href="#md96fc4eb02" x="499.403125" y="300.148006" style="stroke: #000000; stroke-width: 0.8"/>
      </g>
     </g>
     <g id="text_10">
      <!-- 2 -->
      <g transform="translate(28.620625 306.226756) scale(0.16 -0.16)">
       <defs>
        <path id="DejaVuSans-32" d="M 1228 531 
L 3431 531 
L 3431 0 
L 469 0 
L 469 531 
Q 828 903 1448 1529 
Q 2069 2156 2228 2338 
Q 2531 2678 2651 2914 
Q 2772 3150 2772 3378 
Q 2772 3750 2511 3984 
Q 2250 4219 1831 4219 
Q 1534 4219 1204 4116 
Q 875 4013 500 3803 
L 500 4441 
Q 881 4594 1212 4672 
Q 1544 4750 1819 4750 
Q 2544 4750 2975 4387 
Q 3406 4025 3406 3419 
Q 3406 3131 3298 2873 
Q 3191 2616 2906 2266 
Q 2828 2175 2409 1742 
Q 1991 1309 1228 531 
z
" transform="scale(0.015625)"/>
       </defs>
       <use xlink:href="#DejaVuSans-32"/>
      </g>
     </g>
    </g>
    <g id="ytick_4">
     <g id="line2d_21">
      <g>
       <use xlink:href="#m7d90f3d1df" x="42.300625" y="252.391971" style="stroke: #000000; stroke-width: 0.8"/>
      </g>
     </g>
     <g id="line2d_22">
      <g>
       <use xlink:href="#md96fc4eb02" x="499.403125" y="252.391971" style="stroke: #000000; stroke-width: 0.8"/>
      </g>
     </g>
     <g id="text_11">
      <!-- 3 -->
      <g transform="translate(28.620625 258.470721) scale(0.16 -0.16)">
       <defs>
        <path id="DejaVuSans-33" d="M 2597 2516 
Q 3050 2419 3304 2112 
Q 3559 1806 3559 1356 
Q 3559 666 3084 287 
Q 2609 -91 1734 -91 
Q 1441 -91 1130 -33 
Q 819 25 488 141 
L 488 750 
Q 750 597 1062 519 
Q 1375 441 1716 441 
Q 2309 441 2620 675 
Q 2931 909 2931 1356 
Q 2931 1769 2642 2001 
Q 2353 2234 1838 2234 
L 1294 2234 
L 1294 2753 
L 1863 2753 
Q 2328 2753 2575 2939 
Q 2822 3125 2822 3475 
Q 2822 3834 2567 4026 
Q 2313 4219 1838 4219 
Q 1578 4219 1281 4162 
Q 984 4106 628 3988 
L 628 4550 
Q 988 4650 1302 4700 
Q 1616 4750 1894 4750 
Q 2613 4750 3031 4423 
Q 3450 4097 3450 3541 
Q 3450 3153 3228 2886 
Q 3006 2619 2597 2516 
z
" transform="scale(0.015625)"/>
       </defs>
       <use xlink:href="#DejaVuSans-33"/>
      </g>
     </g>
    </g>
    <g id="ytick_5">
     <g id="line2d_23">
      <g>
       <use xlink:href="#m7d90f3d1df" x="42.300625" y="204.635937" style="stroke: #000000; stroke-width: 0.8"/>
      </g>
     </g>
     <g id="line2d_24">
      <g>
       <use xlink:href="#md96fc4eb02" x="499.403125" y="204.635937" style="stroke: #000000; stroke-width: 0.8"/>
      </g>
     </g>
     <g id="text_12">
      <!-- 4 -->
      <g transform="translate(28.620625 210.714687) scale(0.16 -0.16)">
       <defs>
        <path id="DejaVuSans-34" d="M 2419 4116 
L 825 1625 
L 2419 1625 
L 2419 4116 
z
M 2253 4666 
L 3047 4666 
L 3047 1625 
L 3713 1625 
L 3713 1100 
L 3047 1100 
L 3047 0 
L 2419 0 
L 2419 1100 
L 313 1100 
L 313 1709 
L 2253 4666 
z
" transform="scale(0.015625)"/>
       </defs>
       <use xlink:href="#DejaVuSans-34"/>
      </g>
     </g>
    </g>
    <g id="ytick_6">
     <g id="line2d_25">
      <g>
       <use xlink:href="#m7d90f3d1df" x="42.300625" y="156.879903" style="stroke: #000000; stroke-width: 0.8"/>
      </g>
     </g>
     <g id="line2d_26">
      <g>
       <use xlink:href="#md96fc4eb02" x="499.403125" y="156.879903" style="stroke: #000000; stroke-width: 0.8"/>
      </g>
     </g>
     <g id="text_13">
      <!-- 5 -->
      <g transform="translate(28.620625 162.958653) scale(0.16 -0.16)">
       <use xlink:href="#DejaVuSans-35"/>
      </g>
     </g>
    </g>
    <g id="ytick_7">
     <g id="line2d_27">
      <g>
       <use xlink:href="#m7d90f3d1df" x="42.300625" y="109.123868" style="stroke: #000000; stroke-width: 0.8"/>
      </g>
     </g>
     <g id="line2d_28">
      <g>
       <use xlink:href="#md96fc4eb02" x="499.403125" y="109.123868" style="stroke: #000000; stroke-width: 0.8"/>
      </g>
     </g>
     <g id="text_14">
      <!-- 6 -->
      <g transform="translate(28.620625 115.202618) scale(0.16 -0.16)">
       <defs>
        <path id="DejaVuSans-36" d="M 2113 2584 
Q 1688 2584 1439 2293 
Q 1191 2003 1191 1497 
Q 1191 994 1439 701 
Q 1688 409 2113 409 
Q 2538 409 2786 701 
Q 3034 994 3034 1497 
Q 3034 2003 2786 2293 
Q 2538 2584 2113 2584 
z
M 3366 4563 
L 3366 3988 
Q 3128 4100 2886 4159 
Q 2644 4219 2406 4219 
Q 1781 4219 1451 3797 
Q 1122 3375 1075 2522 
Q 1259 2794 1537 2939 
Q 1816 3084 2150 3084 
Q 2853 3084 3261 2657 
Q 3669 2231 3669 1497 
Q 3669 778 3244 343 
Q 2819 -91 2113 -91 
Q 1303 -91 875 529 
Q 447 1150 447 2328 
Q 447 3434 972 4092 
Q 1497 4750 2381 4750 
Q 2619 4750 2861 4703 
Q 3103 4656 3366 4563 
z
" transform="scale(0.015625)"/>
       </defs>
       <use xlink:href="#DejaVuSans-36"/>
      </g>
     </g>
    </g>
    <g id="ytick_8">
     <g id="line2d_29">
      <g>
       <use xlink:href="#m7d90f3d1df" x="42.300625" y="61.367834" style="stroke: #000000; stroke-width: 0.8"/>
      </g>
     </g>
     <g id="line2d_30">
      <g>
       <use xlink:href="#md96fc4eb02" x="499.403125" y="61.367834" style="stroke: #000000; stroke-width: 0.8"/>
      </g>
     </g>
     <g id="text_15">
      <!-- 7 -->
      <g transform="translate(28.620625 67.446584) scale(0.16 -0.16)">
       <defs>
        <path id="DejaVuSans-37" d="M 525 4666 
L 3525 4666 
L 3525 4397 
L 1831 0 
L 1172 0 
L 2766 4134 
L 525 4134 
L 525 4666 
z
" transform="scale(0.015625)"/>
       </defs>
       <use xlink:href="#DejaVuSans-37"/>
      </g>
     </g>
    </g>
    <g id="text_16">
     <!-- Ampltude (Arb. U.) -->
     <g transform="translate(20.877188 294.808906) rotate(-90) scale(0.18 -0.18)">
      <defs>
       <path id="DejaVuSans-41" d="M 2188 4044 
L 1331 1722 
L 3047 1722 
L 2188 4044 
z
M 1831 4666 
L 2547 4666 
L 4325 0 
L 3669 0 
L 3244 1197 
L 1141 1197 
L 716 0 
L 50 0 
L 1831 4666 
z
" transform="scale(0.015625)"/>
       <path id="DejaVuSans-6d" d="M 3328 2828 
Q 3544 3216 3844 3400 
Q 4144 3584 4550 3584 
Q 5097 3584 5394 3201 
Q 5691 2819 5691 2113 
L 5691 0 
L 5113 0 
L 5113 2094 
Q 5113 2597 4934 2840 
Q 4756 3084 4391 3084 
Q 3944 3084 3684 2787 
Q 3425 2491 3425 1978 
L 3425 0 
L 2847 0 
L 2847 2094 
Q 2847 2600 2669 2842 
Q 2491 3084 2119 3084 
Q 1678 3084 1418 2786 
Q 1159 2488 1159 1978 
L 1159 0 
L 581 0 
L 581 3500 
L 1159 3500 
L 1159 2956 
Q 1356 3278 1631 3431 
Q 1906 3584 2284 3584 
Q 2666 3584 2933 3390 
Q 3200 3197 3328 2828 
z
" transform="scale(0.015625)"/>
       <path id="DejaVuSans-70" d="M 1159 525 
L 1159 -1331 
L 581 -1331 
L 581 3500 
L 1159 3500 
L 1159 2969 
Q 1341 3281 1617 3432 
Q 1894 3584 2278 3584 
Q 2916 3584 3314 3078 
Q 3713 2572 3713 1747 
Q 3713 922 3314 415 
Q 2916 -91 2278 -91 
Q 1894 -91 1617 61 
Q 1341 213 1159 525 
z
M 3116 1747 
Q 3116 2381 2855 2742 
Q 2594 3103 2138 3103 
Q 1681 3103 1420 2742 
Q 1159 2381 1159 1747 
Q 1159 1113 1420 752 
Q 1681 391 2138 391 
Q 2594 391 2855 752 
Q 3116 1113 3116 1747 
z
" transform="scale(0.015625)"/>
       <path id="DejaVuSans-6c" d="M 603 4863 
L 1178 4863 
L 1178 0 
L 603 0 
L 603 4863 
z
" transform="scale(0.015625)"/>
       <path id="DejaVuSans-74" d="M 1172 4494 
L 1172 3500 
L 2356 3500 
L 2356 3053 
L 1172 3053 
L 1172 1153 
Q 1172 725 1289 603 
Q 1406 481 1766 481 
L 2356 481 
L 2356 0 
L 1766 0 
Q 1100 0 847 248 
Q 594 497 594 1153 
L 594 3053 
L 172 3053 
L 172 3500 
L 594 3500 
L 594 4494 
L 1172 4494 
z
" transform="scale(0.015625)"/>
       <path id="DejaVuSans-75" d="M 544 1381 
L 544 3500 
L 1119 3500 
L 1119 1403 
Q 1119 906 1312 657 
Q 1506 409 1894 409 
Q 2359 409 2629 706 
Q 2900 1003 2900 1516 
L 2900 3500 
L 3475 3500 
L 3475 0 
L 2900 0 
L 2900 538 
Q 2691 219 2414 64 
Q 2138 -91 1772 -91 
Q 1169 -91 856 284 
Q 544 659 544 1381 
z
M 1991 3584 
L 1991 3584 
z
" transform="scale(0.015625)"/>
       <path id="DejaVuSans-64" d="M 2906 2969 
L 2906 4863 
L 3481 4863 
L 3481 0 
L 2906 0 
L 2906 525 
Q 2725 213 2448 61 
Q 2172 -91 1784 -91 
Q 1150 -91 751 415 
Q 353 922 353 1747 
Q 353 2572 751 3078 
Q 1150 3584 1784 3584 
Q 2172 3584 2448 3432 
Q 2725 3281 2906 2969 
z
M 947 1747 
Q 947 1113 1208 752 
Q 1469 391 1925 391 
Q 2381 391 2643 752 
Q 2906 1113 2906 1747 
Q 2906 2381 2643 2742 
Q 2381 3103 1925 3103 
Q 1469 3103 1208 2742 
Q 947 2381 947 1747 
z
" transform="scale(0.015625)"/>
       <path id="DejaVuSans-65" d="M 3597 1894 
L 3597 1613 
L 953 1613 
Q 991 1019 1311 708 
Q 1631 397 2203 397 
Q 2534 397 2845 478 
Q 3156 559 3463 722 
L 3463 178 
Q 3153 47 2828 -22 
Q 2503 -91 2169 -91 
Q 1331 -91 842 396 
Q 353 884 353 1716 
Q 353 2575 817 3079 
Q 1281 3584 2069 3584 
Q 2775 3584 3186 3129 
Q 3597 2675 3597 1894 
z
M 3022 2063 
Q 3016 2534 2758 2815 
Q 2500 3097 2075 3097 
Q 1594 3097 1305 2825 
Q 1016 2553 972 2059 
L 3022 2063 
z
" transform="scale(0.015625)"/>
       <path id="DejaVuSans-20" transform="scale(0.015625)"/>
       <path id="DejaVuSans-28" d="M 1984 4856 
Q 1566 4138 1362 3434 
Q 1159 2731 1159 2009 
Q 1159 1288 1364 580 
Q 1569 -128 1984 -844 
L 1484 -844 
Q 1016 -109 783 600 
Q 550 1309 550 2009 
Q 550 2706 781 3412 
Q 1013 4119 1484 4856 
L 1984 4856 
z
" transform="scale(0.015625)"/>
       <path id="DejaVuSans-72" d="M 2631 2963 
Q 2534 3019 2420 3045 
Q 2306 3072 2169 3072 
Q 1681 3072 1420 2755 
Q 1159 2438 1159 1844 
L 1159 0 
L 581 0 
L 581 3500 
L 1159 3500 
L 1159 2956 
Q 1341 3275 1631 3429 
Q 1922 3584 2338 3584 
Q 2397 3584 2469 3576 
Q 2541 3569 2628 3553 
L 2631 2963 
z
" transform="scale(0.015625)"/>
       <path id="DejaVuSans-62" d="M 3116 1747 
Q 3116 2381 2855 2742 
Q 2594 3103 2138 3103 
Q 1681 3103 1420 2742 
Q 1159 2381 1159 1747 
Q 1159 1113 1420 752 
Q 1681 391 2138 391 
Q 2594 391 2855 752 
Q 3116 1113 3116 1747 
z
M 1159 2969 
Q 1341 3281 1617 3432 
Q 1894 3584 2278 3584 
Q 2916 3584 3314 3078 
Q 3713 2572 3713 1747 
Q 3713 922 3314 415 
Q 2916 -91 2278 -91 
Q 1894 -91 1617 61 
Q 1341 213 1159 525 
L 1159 0 
L 581 0 
L 581 4863 
L 1159 4863 
L 1159 2969 
z
" transform="scale(0.015625)"/>
       <path id="DejaVuSans-2e" d="M 684 794 
L 1344 794 
L 1344 0 
L 684 0 
L 684 794 
z
" transform="scale(0.015625)"/>
       <path id="DejaVuSans-55" d="M 556 4666 
L 1191 4666 
L 1191 1831 
Q 1191 1081 1462 751 
Q 1734 422 2344 422 
Q 2950 422 3222 751 
Q 3494 1081 3494 1831 
L 3494 4666 
L 4128 4666 
L 4128 1753 
Q 4128 841 3676 375 
Q 3225 -91 2344 -91 
Q 1459 -91 1007 375 
Q 556 841 556 1753 
L 556 4666 
z
" transform="scale(0.015625)"/>
       <path id="DejaVuSans-29" d="M 513 4856 
L 1013 4856 
Q 1481 4119 1714 3412 
Q 1947 2706 1947 2009 
Q 1947 1309 1714 600 
Q 1481 -109 1013 -844 
L 513 -844 
Q 928 -128 1133 580 
Q 1338 1288 1338 2009 
Q 1338 2731 1133 3434 
Q 928 4138 513 4856 
z
" transform="scale(0.015625)"/>
      </defs>
      <use xlink:href="#DejaVuSans-41"/>
      <use xlink:href="#DejaVuSans-6d" x="68.408203"/>
      <use xlink:href="#DejaVuSans-70" x="165.820312"/>
      <use xlink:href="#DejaVuSans-6c" x="229.296875"/>
      <use xlink:href="#DejaVuSans-74" x="257.080078"/>
      <use xlink:href="#DejaVuSans-75" x="296.289062"/>
      <use xlink:href="#DejaVuSans-64" x="359.667969"/>
      <use xlink:href="#DejaVuSans-65" x="423.144531"/>
      <use xlink:href="#DejaVuSans-20" x="484.667969"/>
      <use xlink:href="#DejaVuSans-28" x="516.455078"/>
      <use xlink:href="#DejaVuSans-41" x="555.46875"/>
      <use xlink:href="#DejaVuSans-72" x="623.876953"/>
      <use xlink:href="#DejaVuSans-62" x="664.990234"/>
      <use xlink:href="#DejaVuSans-2e" x="728.466797"/>
      <use xlink:href="#DejaVuSans-20" x="760.253906"/>
      <use xlink:href="#DejaVuSans-55" x="792.041016"/>
      <use xlink:href="#DejaVuSans-2e" x="865.234375"/>
      <use xlink:href="#DejaVuSans-29" x="897.021484"/>
     </g>
    </g>
    <g id="text_17">
     <!-- 1e−5 -->
     <g transform="translate(42.300625 19.3575) scale(0.16 -0.16)">
      <use xlink:href="#DejaVuSans-31"/>
      <use xlink:href="#DejaVuSans-65" x="63.623047"/>
      <use xlink:href="#DejaVuSans-2212" x="125.146484"/>
      <use xlink:href="#DejaVuSans-35" x="208.935547"/>
     </g>
    </g>
   </g>
   <g id="line2d_31">
    <path d="M 270.851875 295.386006 
L 279.50912 304.000227 
L 288.166364 276.569581 
L 296.823608 288.894495 
L 305.480853 307.850204 
L 314.138096 310.131211 
L 322.795341 322.750311 
L 331.452583 357.502429 
L 340.109832 379.544586 
L 348.767074 380.296085 
L 366.081565 379.703903 
L 374.738807 380.083246 
L 383.396055 378.644804 
L 392.053291 379.277478 
L 400.71054 342.325131 
L 409.367788 325.559978 
L 418.025024 283.750084 
L 426.682273 301.778732 
L 435.339521 268.563965 
L 452.654006 207.386956 
L 461.311254 182.968005 
L 478.625739 152.2312 
L 469.96849 129.341504 
L 461.311254 125.754874 
L 452.654006 128.623629 
L 443.996757 152.11895 
L 435.339521 144.206586 
L 426.682273 166.018862 
L 418.025024 149.771019 
L 409.367788 174.374981 
L 400.71054 194.0738 
L 392.053291 200.998182 
L 383.396055 207.177657 
L 374.738807 210.12282 
L 366.081565 227.277614 
L 357.424316 220.166014 
L 348.767074 255.086646 
L 340.109832 267.864124 
L 331.452583 279.017105 
L 322.795341 296.431824 
L 314.138096 325.918347 
L 305.480853 321.344757 
L 296.823608 337.830435 
L 288.166364 317.538187 
L 279.50912 333.403808 
L 270.851875 332.066631 
L 262.19463 343.190512 
L 253.537386 379.289844 
L 244.880142 380.639539 
L 236.222897 380.41019 
L 227.565654 334.072224 
L 218.908409 329.000079 
L 210.251167 316.068707 
L 201.593918 250.406196 
L 192.936676 189.777965 
L 184.279434 198.838651 
L 175.622185 190.805923 
L 166.964943 135.457564 
L 158.307695 130.767455 
L 149.650459 95.984369 
L 140.99321 120.529903 
L 132.335962 101.949888 
L 123.678726 96.308316 
L 115.021477 61.028798 
L 106.364229 98.77866 
L 97.706993 79.56425 
L 89.049744 91.961073 
L 80.392496 72.587035 
L 71.73526 68.812424 
L 63.078011 57.200537 
L 71.73526 78.003932 
L 80.392496 84.149545 
L 89.049744 91.455954 
L 97.706993 85.717959 
L 106.364229 101.649847 
L 115.021477 93.908473 
L 123.678726 105.443707 
L 132.335962 109.4444 
L 140.99321 116.441022 
L 149.650459 112.887906 
L 158.307695 112.07399 
L 166.964943 151.917538 
L 175.622185 160.551599 
L 184.279434 174.56708 
L 192.936676 169.095873 
L 201.593918 201.215682 
L 210.251167 208.587381 
L 218.908409 211.930954 
L 227.565654 197.902564 
L 236.222897 229.417339 
L 244.880142 219.186181 
L 253.537386 235.885944 
L 262.19463 244.575287 
L 270.851875 203.316404 
L 279.50912 238.27161 
L 288.166364 261.318988 
L 296.823608 278.639587 
L 305.480853 266.172905 
L 314.138096 310.715371 
L 322.795341 320.304855 
L 331.452583 324.694732 
L 340.109832 366.64401 
L 348.767074 378.658035 
L 357.424316 380.327274 
L 366.081565 380.941134 
L 374.738807 381.6675 
L 383.396055 380.208262 
L 392.053291 379.175225 
L 400.71054 380.170407 
L 409.367788 326.197392 
L 418.025024 301.053621 
L 426.682273 300.591355 
L 435.339521 236.694561 
L 443.996757 217.223127 
L 452.654006 226.198369 
L 461.311254 193.094627 
L 469.96849 165.724867 
L 478.625739 150.462278 
L 469.96849 184.052271 
L 461.311254 135.984799 
L 452.654006 131.295749 
L 443.996757 174.488586 
L 435.339521 172.45444 
L 426.682273 146.623246 
L 418.025024 170.745647 
L 409.367788 189.390848 
L 400.71054 197.215979 
L 392.053291 191.068073 
L 383.396055 182.645656 
L 374.738807 194.188187 
L 366.081565 231.654565 
L 357.424316 244.811307 
L 348.767074 289.569882 
L 340.109832 280.970803 
L 331.452583 270.853711 
L 322.795341 313.643108 
L 314.138096 316.865709 
L 305.480853 335.01814 
L 296.823608 324.363575 
L 288.166364 341.93126 
L 279.50912 331.354372 
L 270.851875 342.682787 
L 262.19463 378.591808 
L 253.537386 380.645926 
L 244.880142 380.242946 
L 236.222897 379.450613 
L 227.565654 327.187792 
L 218.908409 296.665221 
L 210.251167 287.885292 
L 201.593918 268.935698 
L 184.279434 179.077044 
L 175.622185 189.59728 
L 166.964943 142.753723 
L 158.307695 113.701909 
L 149.650459 102.293432 
L 140.99321 78.243999 
L 132.335962 93.086427 
L 123.678726 97.404864 
L 115.021477 77.785859 
L 106.364229 39.4675 
L 97.706993 98.808542 
L 89.049744 74.613589 
L 80.392496 94.204206 
L 71.73526 60.540115 
L 63.078011 94.571413 
L 71.73526 86.721281 
L 80.392496 79.046866 
L 89.049744 79.037553 
L 97.706993 72.764106 
L 106.364229 81.592403 
L 115.021477 99.25268 
L 123.678726 79.491559 
L 132.335962 126.458364 
L 140.99321 104.759589 
L 149.650459 109.953966 
L 158.307695 114.436288 
L 166.964943 142.785308 
L 175.622185 115.715711 
L 184.279434 175.524918 
L 192.936676 158.788549 
L 201.593918 184.891812 
L 210.251167 198.543057 
L 218.908409 201.414227 
L 227.565654 212.735575 
L 236.222897 215.585375 
L 244.880142 219.218721 
L 253.537386 218.386112 
L 262.19463 229.050393 
L 262.19463 229.050393 
" clip-path="url(#p7cbc22e9ee)" style="fill: none; stroke: #1f77b4; stroke-width: 1.5; stroke-linecap: square"/>
   </g>
   <g id="patch_3">
    <path d="M 42.300625 398.7775 
L 42.300625 22.3575 
" style="fill: none; stroke: #000000; stroke-width: 0.8; stroke-linejoin: miter; stroke-linecap: square"/>
   </g>
   <g id="patch_4">
    <path d="M 499.403125 398.7775 
L 499.403125 22.3575 
" style="fill: none; stroke: #000000; stroke-width: 0.8; stroke-linejoin: miter; stroke-linecap: square"/>
   </g>
   <g id="patch_5">
    <path d="M 42.300625 398.7775 
L 499.403125 398.7775 
" style="fill: none; stroke: #000000; stroke-width: 0.8; stroke-linejoin: miter; stroke-linecap: square"/>
   </g>
   <g id="patch_6">
    <path d="M 42.300625 22.3575 
L 499.403125 22.3575 
" style="fill: none; stroke: #000000; stroke-width: 0.8; stroke-linejoin: miter; stroke-linecap: square"/>
   </g>
   <g id="text_18">
    <!-- Amplitude -->
    <g transform="translate(240.104688 16.3575) scale(0.12 -0.12)">
     <defs>
      <path id="DejaVuSans-69" d="M 603 3500 
L 1178 3500 
L 1178 0 
L 603 0 
L 603 3500 
z
M 603 4863 
L 1178 4863 
L 1178 4134 
L 603 4134 
L 603 4863 
z
" transform="scale(0.015625)"/>
     </defs>
     <use xlink:href="#DejaVuSans-41"/>
     <use xlink:href="#DejaVuSans-6d" x="68.408203"/>
     <use xlink:href="#DejaVuSans-70" x="165.820312"/>
     <use xlink:href="#DejaVuSans-6c" x="229.296875"/>
     <use xlink:href="#DejaVuSans-69" x="257.080078"/>
     <use xlink:href="#DejaVuSans-74" x="284.863281"/>
     <use xlink:href="#DejaVuSans-75" x="324.072266"/>
     <use xlink:href="#DejaVuSans-64" x="387.451172"/>
     <use xlink:href="#DejaVuSans-65" x="450.927734"/>
    </g>
   </g>
  </g>
  <g id="axes_2">
   <g id="patch_7">
    <path d="M 591.053125 398.7775 
L 1048.155625 398.7775 
L 1048.155625 22.3575 
L 591.053125 22.3575 
z
" style="fill: #ffffff"/>
   </g>
   <g id="matplotlib.axis_3">
    <g id="xtick_8">
     <g id="line2d_32">
      <g>
       <use xlink:href="#me29c1328f6" x="624.816378" y="398.7775" style="stroke: #000000; stroke-width: 0.8"/>
      </g>
     </g>
     <g id="line2d_33">
      <g>
       <use xlink:href="#m0a3df3257e" x="624.816378" y="22.3575" style="stroke: #000000; stroke-width: 0.8"/>
      </g>
     </g>
     <g id="text_19">
      <!-- −15 -->
      <g transform="translate(607.932628 414.435) scale(0.16 -0.16)">
       <use xlink:href="#DejaVuSans-2212"/>
       <use xlink:href="#DejaVuSans-31" x="83.789062"/>
       <use xlink:href="#DejaVuSans-35" x="147.412109"/>
      </g>
     </g>
    </g>
    <g id="xtick_9">
     <g id="line2d_34">
      <g>
       <use xlink:href="#me29c1328f6" x="689.74571" y="398.7775" style="stroke: #000000; stroke-width: 0.8"/>
      </g>
     </g>
     <g id="line2d_35">
      <g>
       <use xlink:href="#m0a3df3257e" x="689.74571" y="22.3575" style="stroke: #000000; stroke-width: 0.8"/>
      </g>
     </g>
     <g id="text_20">
      <!-- −10 -->
      <g transform="translate(672.86196 414.435) scale(0.16 -0.16)">
       <use xlink:href="#DejaVuSans-2212"/>
       <use xlink:href="#DejaVuSans-31" x="83.789062"/>
       <use xlink:href="#DejaVuSans-30" x="147.412109"/>
      </g>
     </g>
    </g>
    <g id="xtick_10">
     <g id="line2d_36">
      <g>
       <use xlink:href="#me29c1328f6" x="754.675043" y="398.7775" style="stroke: #000000; stroke-width: 0.8"/>
      </g>
     </g>
     <g id="line2d_37">
      <g>
       <use xlink:href="#m0a3df3257e" x="754.675043" y="22.3575" style="stroke: #000000; stroke-width: 0.8"/>
      </g>
     </g>
     <g id="text_21">
      <!-- −5 -->
      <g transform="translate(742.881293 414.435) scale(0.16 -0.16)">
       <use xlink:href="#DejaVuSans-2212"/>
       <use xlink:href="#DejaVuSans-35" x="83.789062"/>
      </g>
     </g>
    </g>
    <g id="xtick_11">
     <g id="line2d_38">
      <g>
       <use xlink:href="#me29c1328f6" x="819.604375" y="398.7775" style="stroke: #000000; stroke-width: 0.8"/>
      </g>
     </g>
     <g id="line2d_39">
      <g>
       <use xlink:href="#m0a3df3257e" x="819.604375" y="22.3575" style="stroke: #000000; stroke-width: 0.8"/>
      </g>
     </g>
     <g id="text_22">
      <!-- 0 -->
      <g transform="translate(814.514375 414.435) scale(0.16 -0.16)">
       <use xlink:href="#DejaVuSans-30"/>
      </g>
     </g>
    </g>
    <g id="xtick_12">
     <g id="line2d_40">
      <g>
       <use xlink:href="#me29c1328f6" x="884.533707" y="398.7775" style="stroke: #000000; stroke-width: 0.8"/>
      </g>
     </g>
     <g id="line2d_41">
      <g>
       <use xlink:href="#m0a3df3257e" x="884.533707" y="22.3575" style="stroke: #000000; stroke-width: 0.8"/>
      </g>
     </g>
     <g id="text_23">
      <!-- 5 -->
      <g transform="translate(879.443707 414.435) scale(0.16 -0.16)">
       <use xlink:href="#DejaVuSans-35"/>
      </g>
     </g>
    </g>
    <g id="xtick_13">
     <g id="line2d_42">
      <g>
       <use xlink:href="#me29c1328f6" x="949.46304" y="398.7775" style="stroke: #000000; stroke-width: 0.8"/>
      </g>
     </g>
     <g id="line2d_43">
      <g>
       <use xlink:href="#m0a3df3257e" x="949.46304" y="22.3575" style="stroke: #000000; stroke-width: 0.8"/>
      </g>
     </g>
     <g id="text_24">
      <!-- 10 -->
      <g transform="translate(939.28304 414.435) scale(0.16 -0.16)">
       <use xlink:href="#DejaVuSans-31"/>
       <use xlink:href="#DejaVuSans-30" x="63.623047"/>
      </g>
     </g>
    </g>
    <g id="xtick_14">
     <g id="line2d_44">
      <g>
       <use xlink:href="#me29c1328f6" x="1014.392372" y="398.7775" style="stroke: #000000; stroke-width: 0.8"/>
      </g>
     </g>
     <g id="line2d_45">
      <g>
       <use xlink:href="#m0a3df3257e" x="1014.392372" y="22.3575" style="stroke: #000000; stroke-width: 0.8"/>
      </g>
     </g>
     <g id="text_25">
      <!-- 15 -->
      <g transform="translate(1004.212372 414.435) scale(0.16 -0.16)">
       <use xlink:href="#DejaVuSans-31"/>
       <use xlink:href="#DejaVuSans-35" x="63.623047"/>
      </g>
     </g>
    </g>
   </g>
   <g id="matplotlib.axis_4">
    <g id="ytick_9">
     <g id="line2d_46">
      <g>
       <use xlink:href="#m7d90f3d1df" x="591.053125" y="373.49878" style="stroke: #000000; stroke-width: 0.8"/>
      </g>
     </g>
     <g id="line2d_47">
      <g>
       <use xlink:href="#md96fc4eb02" x="1048.155625" y="373.49878" style="stroke: #000000; stroke-width: 0.8"/>
      </g>
     </g>
     <g id="text_26">
      <!-- 1.3100 -->
      <g transform="translate(531.568125 379.57753) scale(0.16 -0.16)">
       <use xlink:href="#DejaVuSans-31"/>
       <use xlink:href="#DejaVuSans-2e" x="63.623047"/>
       <use xlink:href="#DejaVuSans-33" x="95.410156"/>
       <use xlink:href="#DejaVuSans-31" x="159.033203"/>
       <use xlink:href="#DejaVuSans-30" x="222.65625"/>
       <use xlink:href="#DejaVuSans-30" x="286.279297"/>
      </g>
     </g>
    </g>
    <g id="ytick_10">
     <g id="line2d_48">
      <g>
       <use xlink:href="#m7d90f3d1df" x="591.053125" y="325.978592" style="stroke: #000000; stroke-width: 0.8"/>
      </g>
     </g>
     <g id="line2d_49">
      <g>
       <use xlink:href="#md96fc4eb02" x="1048.155625" y="325.978592" style="stroke: #000000; stroke-width: 0.8"/>
      </g>
     </g>
     <g id="text_27">
      <!-- 1.3125 -->
      <g transform="translate(531.568125 332.057342) scale(0.16 -0.16)">
       <use xlink:href="#DejaVuSans-31"/>
       <use xlink:href="#DejaVuSans-2e" x="63.623047"/>
       <use xlink:href="#DejaVuSans-33" x="95.410156"/>
       <use xlink:href="#DejaVuSans-31" x="159.033203"/>
       <use xlink:href="#DejaVuSans-32" x="222.65625"/>
       <use xlink:href="#DejaVuSans-35" x="286.279297"/>
      </g>
     </g>
    </g>
    <g id="ytick_11">
     <g id="line2d_50">
      <g>
       <use xlink:href="#m7d90f3d1df" x="591.053125" y="278.458404" style="stroke: #000000; stroke-width: 0.8"/>
      </g>
     </g>
     <g id="line2d_51">
      <g>
       <use xlink:href="#md96fc4eb02" x="1048.155625" y="278.458404" style="stroke: #000000; stroke-width: 0.8"/>
      </g>
     </g>
     <g id="text_28">
      <!-- 1.3150 -->
      <g transform="translate(531.568125 284.537154) scale(0.16 -0.16)">
       <use xlink:href="#DejaVuSans-31"/>
       <use xlink:href="#DejaVuSans-2e" x="63.623047"/>
       <use xlink:href="#DejaVuSans-33" x="95.410156"/>
       <use xlink:href="#DejaVuSans-31" x="159.033203"/>
       <use xlink:href="#DejaVuSans-35" x="222.65625"/>
       <use xlink:href="#DejaVuSans-30" x="286.279297"/>
      </g>
     </g>
    </g>
    <g id="ytick_12">
     <g id="line2d_52">
      <g>
       <use xlink:href="#m7d90f3d1df" x="591.053125" y="230.938216" style="stroke: #000000; stroke-width: 0.8"/>
      </g>
     </g>
     <g id="line2d_53">
      <g>
       <use xlink:href="#md96fc4eb02" x="1048.155625" y="230.938216" style="stroke: #000000; stroke-width: 0.8"/>
      </g>
     </g>
     <g id="text_29">
      <!-- 1.3175 -->
      <g transform="translate(531.568125 237.016966) scale(0.16 -0.16)">
       <use xlink:href="#DejaVuSans-31"/>
       <use xlink:href="#DejaVuSans-2e" x="63.623047"/>
       <use xlink:href="#DejaVuSans-33" x="95.410156"/>
       <use xlink:href="#DejaVuSans-31" x="159.033203"/>
       <use xlink:href="#DejaVuSans-37" x="222.65625"/>
       <use xlink:href="#DejaVuSans-35" x="286.279297"/>
      </g>
     </g>
    </g>
    <g id="ytick_13">
     <g id="line2d_54">
      <g>
       <use xlink:href="#m7d90f3d1df" x="591.053125" y="183.418029" style="stroke: #000000; stroke-width: 0.8"/>
      </g>
     </g>
     <g id="line2d_55">
      <g>
       <use xlink:href="#md96fc4eb02" x="1048.155625" y="183.418029" style="stroke: #000000; stroke-width: 0.8"/>
      </g>
     </g>
     <g id="text_30">
      <!-- 1.3200 -->
      <g transform="translate(531.568125 189.496779) scale(0.16 -0.16)">
       <use xlink:href="#DejaVuSans-31"/>
       <use xlink:href="#DejaVuSans-2e" x="63.623047"/>
       <use xlink:href="#DejaVuSans-33" x="95.410156"/>
       <use xlink:href="#DejaVuSans-32" x="159.033203"/>
       <use xlink:href="#DejaVuSans-30" x="222.65625"/>
       <use xlink:href="#DejaVuSans-30" x="286.279297"/>
      </g>
     </g>
    </g>
    <g id="ytick_14">
     <g id="line2d_56">
      <g>
       <use xlink:href="#m7d90f3d1df" x="591.053125" y="135.897841" style="stroke: #000000; stroke-width: 0.8"/>
      </g>
     </g>
     <g id="line2d_57">
      <g>
       <use xlink:href="#md96fc4eb02" x="1048.155625" y="135.897841" style="stroke: #000000; stroke-width: 0.8"/>
      </g>
     </g>
     <g id="text_31">
      <!-- 1.3225 -->
      <g transform="translate(531.568125 141.976591) scale(0.16 -0.16)">
       <use xlink:href="#DejaVuSans-31"/>
       <use xlink:href="#DejaVuSans-2e" x="63.623047"/>
       <use xlink:href="#DejaVuSans-33" x="95.410156"/>
       <use xlink:href="#DejaVuSans-32" x="159.033203"/>
       <use xlink:href="#DejaVuSans-32" x="222.65625"/>
       <use xlink:href="#DejaVuSans-35" x="286.279297"/>
      </g>
     </g>
    </g>
    <g id="ytick_15">
     <g id="line2d_58">
      <g>
       <use xlink:href="#m7d90f3d1df" x="591.053125" y="88.377653" style="stroke: #000000; stroke-width: 0.8"/>
      </g>
     </g>
     <g id="line2d_59">
      <g>
       <use xlink:href="#md96fc4eb02" x="1048.155625" y="88.377653" style="stroke: #000000; stroke-width: 0.8"/>
      </g>
     </g>
     <g id="text_32">
      <!-- 1.3250 -->
      <g transform="translate(531.568125 94.456403) scale(0.16 -0.16)">
       <use xlink:href="#DejaVuSans-31"/>
       <use xlink:href="#DejaVuSans-2e" x="63.623047"/>
       <use xlink:href="#DejaVuSans-33" x="95.410156"/>
       <use xlink:href="#DejaVuSans-32" x="159.033203"/>
       <use xlink:href="#DejaVuSans-35" x="222.65625"/>
       <use xlink:href="#DejaVuSans-30" x="286.279297"/>
      </g>
     </g>
    </g>
    <g id="ytick_16">
     <g id="line2d_60">
      <g>
       <use xlink:href="#m7d90f3d1df" x="591.053125" y="40.857465" style="stroke: #000000; stroke-width: 0.8"/>
      </g>
     </g>
     <g id="line2d_61">
      <g>
       <use xlink:href="#md96fc4eb02" x="1048.155625" y="40.857465" style="stroke: #000000; stroke-width: 0.8"/>
      </g>
     </g>
     <g id="text_33">
      <!-- 1.3275 -->
      <g transform="translate(531.568125 46.936215) scale(0.16 -0.16)">
       <use xlink:href="#DejaVuSans-31"/>
       <use xlink:href="#DejaVuSans-2e" x="63.623047"/>
       <use xlink:href="#DejaVuSans-33" x="95.410156"/>
       <use xlink:href="#DejaVuSans-32" x="159.033203"/>
       <use xlink:href="#DejaVuSans-37" x="222.65625"/>
       <use xlink:href="#DejaVuSans-35" x="286.279297"/>
      </g>
     </g>
    </g>
    <g id="text_34">
     <!-- Resonance Frequency (Hz) -->
     <g transform="translate(523.824687 330.287187) rotate(-90) scale(0.18 -0.18)">
      <defs>
       <path id="DejaVuSans-52" d="M 2841 2188 
Q 3044 2119 3236 1894 
Q 3428 1669 3622 1275 
L 4263 0 
L 3584 0 
L 2988 1197 
Q 2756 1666 2539 1819 
Q 2322 1972 1947 1972 
L 1259 1972 
L 1259 0 
L 628 0 
L 628 4666 
L 2053 4666 
Q 2853 4666 3247 4331 
Q 3641 3997 3641 3322 
Q 3641 2881 3436 2590 
Q 3231 2300 2841 2188 
z
M 1259 4147 
L 1259 2491 
L 2053 2491 
Q 2509 2491 2742 2702 
Q 2975 2913 2975 3322 
Q 2975 3731 2742 3939 
Q 2509 4147 2053 4147 
L 1259 4147 
z
" transform="scale(0.015625)"/>
       <path id="DejaVuSans-73" d="M 2834 3397 
L 2834 2853 
Q 2591 2978 2328 3040 
Q 2066 3103 1784 3103 
Q 1356 3103 1142 2972 
Q 928 2841 928 2578 
Q 928 2378 1081 2264 
Q 1234 2150 1697 2047 
L 1894 2003 
Q 2506 1872 2764 1633 
Q 3022 1394 3022 966 
Q 3022 478 2636 193 
Q 2250 -91 1575 -91 
Q 1294 -91 989 -36 
Q 684 19 347 128 
L 347 722 
Q 666 556 975 473 
Q 1284 391 1588 391 
Q 1994 391 2212 530 
Q 2431 669 2431 922 
Q 2431 1156 2273 1281 
Q 2116 1406 1581 1522 
L 1381 1569 
Q 847 1681 609 1914 
Q 372 2147 372 2553 
Q 372 3047 722 3315 
Q 1072 3584 1716 3584 
Q 2034 3584 2315 3537 
Q 2597 3491 2834 3397 
z
" transform="scale(0.015625)"/>
       <path id="DejaVuSans-6f" d="M 1959 3097 
Q 1497 3097 1228 2736 
Q 959 2375 959 1747 
Q 959 1119 1226 758 
Q 1494 397 1959 397 
Q 2419 397 2687 759 
Q 2956 1122 2956 1747 
Q 2956 2369 2687 2733 
Q 2419 3097 1959 3097 
z
M 1959 3584 
Q 2709 3584 3137 3096 
Q 3566 2609 3566 1747 
Q 3566 888 3137 398 
Q 2709 -91 1959 -91 
Q 1206 -91 779 398 
Q 353 888 353 1747 
Q 353 2609 779 3096 
Q 1206 3584 1959 3584 
z
" transform="scale(0.015625)"/>
       <path id="DejaVuSans-6e" d="M 3513 2113 
L 3513 0 
L 2938 0 
L 2938 2094 
Q 2938 2591 2744 2837 
Q 2550 3084 2163 3084 
Q 1697 3084 1428 2787 
Q 1159 2491 1159 1978 
L 1159 0 
L 581 0 
L 581 3500 
L 1159 3500 
L 1159 2956 
Q 1366 3272 1645 3428 
Q 1925 3584 2291 3584 
Q 2894 3584 3203 3211 
Q 3513 2838 3513 2113 
z
" transform="scale(0.015625)"/>
       <path id="DejaVuSans-61" d="M 2194 1759 
Q 1497 1759 1228 1600 
Q 959 1441 959 1056 
Q 959 750 1161 570 
Q 1363 391 1709 391 
Q 2188 391 2477 730 
Q 2766 1069 2766 1631 
L 2766 1759 
L 2194 1759 
z
M 3341 1997 
L 3341 0 
L 2766 0 
L 2766 531 
Q 2569 213 2275 61 
Q 1981 -91 1556 -91 
Q 1019 -91 701 211 
Q 384 513 384 1019 
Q 384 1609 779 1909 
Q 1175 2209 1959 2209 
L 2766 2209 
L 2766 2266 
Q 2766 2663 2505 2880 
Q 2244 3097 1772 3097 
Q 1472 3097 1187 3025 
Q 903 2953 641 2809 
L 641 3341 
Q 956 3463 1253 3523 
Q 1550 3584 1831 3584 
Q 2591 3584 2966 3190 
Q 3341 2797 3341 1997 
z
" transform="scale(0.015625)"/>
       <path id="DejaVuSans-63" d="M 3122 3366 
L 3122 2828 
Q 2878 2963 2633 3030 
Q 2388 3097 2138 3097 
Q 1578 3097 1268 2742 
Q 959 2388 959 1747 
Q 959 1106 1268 751 
Q 1578 397 2138 397 
Q 2388 397 2633 464 
Q 2878 531 3122 666 
L 3122 134 
Q 2881 22 2623 -34 
Q 2366 -91 2075 -91 
Q 1284 -91 818 406 
Q 353 903 353 1747 
Q 353 2603 823 3093 
Q 1294 3584 2113 3584 
Q 2378 3584 2631 3529 
Q 2884 3475 3122 3366 
z
" transform="scale(0.015625)"/>
       <path id="DejaVuSans-46" d="M 628 4666 
L 3309 4666 
L 3309 4134 
L 1259 4134 
L 1259 2759 
L 3109 2759 
L 3109 2228 
L 1259 2228 
L 1259 0 
L 628 0 
L 628 4666 
z
" transform="scale(0.015625)"/>
       <path id="DejaVuSans-71" d="M 947 1747 
Q 947 1113 1208 752 
Q 1469 391 1925 391 
Q 2381 391 2643 752 
Q 2906 1113 2906 1747 
Q 2906 2381 2643 2742 
Q 2381 3103 1925 3103 
Q 1469 3103 1208 2742 
Q 947 2381 947 1747 
z
M 2906 525 
Q 2725 213 2448 61 
Q 2172 -91 1784 -91 
Q 1150 -91 751 415 
Q 353 922 353 1747 
Q 353 2572 751 3078 
Q 1150 3584 1784 3584 
Q 2172 3584 2448 3432 
Q 2725 3281 2906 2969 
L 2906 3500 
L 3481 3500 
L 3481 -1331 
L 2906 -1331 
L 2906 525 
z
" transform="scale(0.015625)"/>
       <path id="DejaVuSans-79" d="M 2059 -325 
Q 1816 -950 1584 -1140 
Q 1353 -1331 966 -1331 
L 506 -1331 
L 506 -850 
L 844 -850 
Q 1081 -850 1212 -737 
Q 1344 -625 1503 -206 
L 1606 56 
L 191 3500 
L 800 3500 
L 1894 763 
L 2988 3500 
L 3597 3500 
L 2059 -325 
z
" transform="scale(0.015625)"/>
       <path id="DejaVuSans-48" d="M 628 4666 
L 1259 4666 
L 1259 2753 
L 3553 2753 
L 3553 4666 
L 4184 4666 
L 4184 0 
L 3553 0 
L 3553 2222 
L 1259 2222 
L 1259 0 
L 628 0 
L 628 4666 
z
" transform="scale(0.015625)"/>
       <path id="DejaVuSans-7a" d="M 353 3500 
L 3084 3500 
L 3084 2975 
L 922 459 
L 3084 459 
L 3084 0 
L 275 0 
L 275 525 
L 2438 3041 
L 353 3041 
L 353 3500 
z
" transform="scale(0.015625)"/>
      </defs>
      <use xlink:href="#DejaVuSans-52"/>
      <use xlink:href="#DejaVuSans-65" x="64.982422"/>
      <use xlink:href="#DejaVuSans-73" x="126.505859"/>
      <use xlink:href="#DejaVuSans-6f" x="178.605469"/>
      <use xlink:href="#DejaVuSans-6e" x="239.787109"/>
      <use xlink:href="#DejaVuSans-61" x="303.166016"/>
      <use xlink:href="#DejaVuSans-6e" x="364.445312"/>
      <use xlink:href="#DejaVuSans-63" x="427.824219"/>
      <use xlink:href="#DejaVuSans-65" x="482.804688"/>
      <use xlink:href="#DejaVuSans-20" x="544.328125"/>
      <use xlink:href="#DejaVuSans-46" x="576.115234"/>
      <use xlink:href="#DejaVuSans-72" x="626.384766"/>
      <use xlink:href="#DejaVuSans-65" x="665.248047"/>
      <use xlink:href="#DejaVuSans-71" x="726.771484"/>
      <use xlink:href="#DejaVuSans-75" x="790.248047"/>
      <use xlink:href="#DejaVuSans-65" x="853.626953"/>
      <use xlink:href="#DejaVuSans-6e" x="915.150391"/>
      <use xlink:href="#DejaVuSans-63" x="978.529297"/>
      <use xlink:href="#DejaVuSans-79" x="1033.509766"/>
      <use xlink:href="#DejaVuSans-20" x="1092.689453"/>
      <use xlink:href="#DejaVuSans-28" x="1124.476562"/>
      <use xlink:href="#DejaVuSans-48" x="1163.490234"/>
      <use xlink:href="#DejaVuSans-7a" x="1238.685547"/>
      <use xlink:href="#DejaVuSans-29" x="1291.175781"/>
     </g>
    </g>
    <g id="text_35">
     <!-- 1e6 -->
     <g transform="translate(591.053125 19.3575) scale(0.16 -0.16)">
      <use xlink:href="#DejaVuSans-31"/>
      <use xlink:href="#DejaVuSans-65" x="63.623047"/>
      <use xlink:href="#DejaVuSans-36" x="125.146484"/>
     </g>
    </g>
   </g>
   <g id="line2d_62">
    <path d="M 819.604375 73.943396 
L 828.26162 87.536546 
L 836.918864 79.873916 
L 845.576108 82.725127 
L 854.233353 81.46109 
L 862.890596 83.939268 
L 871.547841 92.761391 
L 880.205083 74.062197 
L 888.862332 381.6675 
L 940.805791 381.6675 
L 949.46304 103.063767 
L 958.120288 97.09048 
L 966.777524 93.388657 
L 975.434773 96.033155 
L 984.092021 102.911703 
L 992.749257 94.921183 
L 1001.406506 94.020676 
L 1010.063754 100.713894 
L 1018.72099 104.886166 
L 1027.378239 105.846074 
L 1018.72099 107.83717 
L 1010.063754 100.685382 
L 1001.406506 113.758186 
L 992.749257 110.859454 
L 984.092021 100.630734 
L 975.434773 104.078323 
L 966.777524 88.591494 
L 958.120288 97.69161 
L 949.46304 94.636062 
L 940.805791 87.919083 
L 932.148555 87.220537 
L 923.491307 98.487573 
L 914.834065 102.69311 
L 906.176816 90.292717 
L 897.519574 87.315577 
L 888.862332 96.258876 
L 880.205083 86.42695 
L 871.547841 66.684688 
L 862.890596 92.67823 
L 854.233353 82.99124 
L 845.576108 69.331562 
L 836.918864 47.717005 
L 828.26162 78.952024 
L 819.604375 70.186925 
L 810.94713 51.551884 
L 802.289886 381.6675 
L 784.975397 381.6675 
L 776.318154 76.490478 
L 767.660909 84.440606 
L 759.003667 82.340213 
L 750.346418 76.081805 
L 741.689176 71.793108 
L 733.031934 75.302474 
L 724.374685 76.079429 
L 715.717443 76.504734 
L 707.060195 76.628287 
L 698.402959 82.297445 
L 689.74571 74.35207 
L 681.088462 81.615531 
L 672.431226 74.487502 
L 663.773977 74.131101 
L 655.116729 81.102312 
L 646.459493 75.818068 
L 637.802244 79.374954 
L 629.144996 82.420998 
L 620.48776 78.621759 
L 611.830511 81.320905 
L 620.48776 77.604827 
L 629.144996 76.998944 
L 637.802244 78.277237 
L 646.459493 70.448286 
L 655.116729 67.651723 
L 663.773977 65.430155 
L 672.431226 68.535599 
L 681.088462 64.063949 
L 689.74571 62.654976 
L 698.402959 57.582196 
L 707.060195 59.72298 
L 715.717443 61.585771 
L 724.374685 66.463719 
L 733.031934 62.049093 
L 741.689176 59.953453 
L 750.346418 65.323234 
L 759.003667 57.983741 
L 767.660909 64.251654 
L 776.318154 55.353499 
L 784.975397 62.472023 
L 793.632642 63.850108 
L 802.289886 59.953453 
L 810.94713 60.889601 
L 819.604375 59.290546 
L 828.26162 65.731908 
L 836.918864 65.556083 
L 845.576108 62.685864 
L 854.233353 74.261781 
L 862.890596 81.194977 
L 871.547841 57.872069 
L 880.205083 63.738436 
L 888.862332 66.036037 
L 897.519574 381.6675 
L 949.46304 381.6675 
L 958.120288 87.612578 
L 966.777524 64.130477 
L 975.434773 96.342037 
L 984.092021 74.216637 
L 992.749257 84.457238 
L 1001.406506 85.395761 
L 1010.063754 86.959176 
L 1018.72099 94.835647 
L 1027.378239 94.707342 
L 1018.72099 94.545774 
L 1010.063754 94.1371 
L 1001.406506 88.586742 
L 992.749257 89.361321 
L 984.092021 84.597422 
L 975.434773 91.518738 
L 966.777524 81.99094 
L 958.120288 81.724827 
L 949.46304 79.574538 
L 940.805791 78.861736 
L 932.148555 73.812716 
L 923.491307 88.98116 
L 914.834065 78.196453 
L 906.176816 74.613431 
L 897.519574 74.361574 
L 888.862332 68.597375 
L 880.205083 66.078805 
L 871.547841 57.465771 
L 862.890596 75.502058 
L 854.233353 56.646048 
L 845.576108 67.597075 
L 836.918864 51.418827 
L 828.26162 39.4675 
L 819.604375 57.762772 
L 810.94713 381.6675 
L 784.975397 381.6675 
L 776.318154 68.245726 
L 767.660909 74.064573 
L 759.003667 68.200582 
L 750.346418 62.624087 
L 741.689176 66.283142 
L 733.031934 71.222865 
L 724.374685 68.540351 
L 715.717443 73.88162 
L 707.060195 68.295622 
L 698.402959 69.847156 
L 689.74571 65.36125 
L 681.088462 63.574491 
L 672.431226 69.38621 
L 663.773977 70.300974 
L 655.116729 71.686187 
L 646.459493 70.92824 
L 637.802244 72.173269 
L 629.144996 73.116545 
L 620.48776 79.709971 
L 611.830511 75.851332 
L 620.48776 76.659175 
L 629.144996 67.587571 
L 637.802244 70.866464 
L 646.459493 68.968033 
L 655.116729 63.557859 
L 663.773977 59.245402 
L 672.431226 58.024133 
L 681.088462 59.67546 
L 689.74571 56.997697 
L 698.402959 50.254583 
L 707.060195 51.233498 
L 715.717443 51.482979 
L 724.374685 60.150662 
L 733.031934 63.85486 
L 741.689176 56.741088 
L 750.346418 55.6505 
L 759.003667 50.252207 
L 767.660909 56.090062 
L 776.318154 45.792437 
L 784.975397 50.394767 
L 793.632642 44.656705 
L 802.289886 55.308355 
L 810.94713 51.739588 
L 810.94713 51.739588 
" clip-path="url(#p4fd7eb6963)" style="fill: none; stroke: #1f77b4; stroke-width: 1.5; stroke-linecap: square"/>
   </g>
   <g id="patch_8">
    <path d="M 591.053125 398.7775 
L 591.053125 22.3575 
" style="fill: none; stroke: #000000; stroke-width: 0.8; stroke-linejoin: miter; stroke-linecap: square"/>
   </g>
   <g id="patch_9">
    <path d="M 1048.155625 398.7775 
L 1048.155625 22.3575 
" style="fill: none; stroke: #000000; stroke-width: 0.8; stroke-linejoin: miter; stroke-linecap: square"/>
   </g>
   <g id="patch_10">
    <path d="M 591.053125 398.7775 
L 1048.155625 398.7775 
" style="fill: none; stroke: #000000; stroke-width: 0.8; stroke-linejoin: miter; stroke-linecap: square"/>
   </g>
   <g id="patch_11">
    <path d="M 591.053125 22.3575 
L 1048.155625 22.3575 
" style="fill: none; stroke: #000000; stroke-width: 0.8; stroke-linejoin: miter; stroke-linecap: square"/>
   </g>
   <g id="text_36">
    <!-- Resonance Frequency -->
    <g transform="translate(754.04125 16.3575) scale(0.12 -0.12)">
     <use xlink:href="#DejaVuSans-52"/>
     <use xlink:href="#DejaVuSans-65" x="64.982422"/>
     <use xlink:href="#DejaVuSans-73" x="126.505859"/>
     <use xlink:href="#DejaVuSans-6f" x="178.605469"/>
     <use xlink:href="#DejaVuSans-6e" x="239.787109"/>
     <use xlink:href="#DejaVuSans-61" x="303.166016"/>
     <use xlink:href="#DejaVuSans-6e" x="364.445312"/>
     <use xlink:href="#DejaVuSans-63" x="427.824219"/>
     <use xlink:href="#DejaVuSans-65" x="482.804688"/>
     <use xlink:href="#DejaVuSans-20" x="544.328125"/>
     <use xlink:href="#DejaVuSans-46" x="576.115234"/>
     <use xlink:href="#DejaVuSans-72" x="626.384766"/>
     <use xlink:href="#DejaVuSans-65" x="665.248047"/>
     <use xlink:href="#DejaVuSans-71" x="726.771484"/>
     <use xlink:href="#DejaVuSans-75" x="790.248047"/>
     <use xlink:href="#DejaVuSans-65" x="853.626953"/>
     <use xlink:href="#DejaVuSans-6e" x="915.150391"/>
     <use xlink:href="#DejaVuSans-63" x="978.529297"/>
     <use xlink:href="#DejaVuSans-79" x="1033.509766"/>
    </g>
   </g>
  </g>
  <g id="axes_3">
   <g id="patch_12">
    <path d="M 1139.805625 398.7775 
L 1596.908125 398.7775 
L 1596.908125 22.3575 
L 1139.805625 22.3575 
z
" style="fill: #ffffff"/>
   </g>
   <g id="matplotlib.axis_5">
    <g id="xtick_15">
     <g id="line2d_63">
      <g>
       <use xlink:href="#me29c1328f6" x="1173.568878" y="398.7775" style="stroke: #000000; stroke-width: 0.8"/>
      </g>
     </g>
     <g id="line2d_64">
      <g>
       <use xlink:href="#m0a3df3257e" x="1173.568878" y="22.3575" style="stroke: #000000; stroke-width: 0.8"/>
      </g>
     </g>
     <g id="text_37">
      <!-- −15 -->
      <g transform="translate(1156.685128 414.435) scale(0.16 -0.16)">
       <use xlink:href="#DejaVuSans-2212"/>
       <use xlink:href="#DejaVuSans-31" x="83.789062"/>
       <use xlink:href="#DejaVuSans-35" x="147.412109"/>
      </g>
     </g>
    </g>
    <g id="xtick_16">
     <g id="line2d_65">
      <g>
       <use xlink:href="#me29c1328f6" x="1238.49821" y="398.7775" style="stroke: #000000; stroke-width: 0.8"/>
      </g>
     </g>
     <g id="line2d_66">
      <g>
       <use xlink:href="#m0a3df3257e" x="1238.49821" y="22.3575" style="stroke: #000000; stroke-width: 0.8"/>
      </g>
     </g>
     <g id="text_38">
      <!-- −10 -->
      <g transform="translate(1221.61446 414.435) scale(0.16 -0.16)">
       <use xlink:href="#DejaVuSans-2212"/>
       <use xlink:href="#DejaVuSans-31" x="83.789062"/>
       <use xlink:href="#DejaVuSans-30" x="147.412109"/>
      </g>
     </g>
    </g>
    <g id="xtick_17">
     <g id="line2d_67">
      <g>
       <use xlink:href="#me29c1328f6" x="1303.427543" y="398.7775" style="stroke: #000000; stroke-width: 0.8"/>
      </g>
     </g>
     <g id="line2d_68">
      <g>
       <use xlink:href="#m0a3df3257e" x="1303.427543" y="22.3575" style="stroke: #000000; stroke-width: 0.8"/>
      </g>
     </g>
     <g id="text_39">
      <!-- −5 -->
      <g transform="translate(1291.633793 414.435) scale(0.16 -0.16)">
       <use xlink:href="#DejaVuSans-2212"/>
       <use xlink:href="#DejaVuSans-35" x="83.789062"/>
      </g>
     </g>
    </g>
    <g id="xtick_18">
     <g id="line2d_69">
      <g>
       <use xlink:href="#me29c1328f6" x="1368.356875" y="398.7775" style="stroke: #000000; stroke-width: 0.8"/>
      </g>
     </g>
     <g id="line2d_70">
      <g>
       <use xlink:href="#m0a3df3257e" x="1368.356875" y="22.3575" style="stroke: #000000; stroke-width: 0.8"/>
      </g>
     </g>
     <g id="text_40">
      <!-- 0 -->
      <g transform="translate(1363.266875 414.435) scale(0.16 -0.16)">
       <use xlink:href="#DejaVuSans-30"/>
      </g>
     </g>
    </g>
    <g id="xtick_19">
     <g id="line2d_71">
      <g>
       <use xlink:href="#me29c1328f6" x="1433.286207" y="398.7775" style="stroke: #000000; stroke-width: 0.8"/>
      </g>
     </g>
     <g id="line2d_72">
      <g>
       <use xlink:href="#m0a3df3257e" x="1433.286207" y="22.3575" style="stroke: #000000; stroke-width: 0.8"/>
      </g>
     </g>
     <g id="text_41">
      <!-- 5 -->
      <g transform="translate(1428.196207 414.435) scale(0.16 -0.16)">
       <use xlink:href="#DejaVuSans-35"/>
      </g>
     </g>
    </g>
    <g id="xtick_20">
     <g id="line2d_73">
      <g>
       <use xlink:href="#me29c1328f6" x="1498.21554" y="398.7775" style="stroke: #000000; stroke-width: 0.8"/>
      </g>
     </g>
     <g id="line2d_74">
      <g>
       <use xlink:href="#m0a3df3257e" x="1498.21554" y="22.3575" style="stroke: #000000; stroke-width: 0.8"/>
      </g>
     </g>
     <g id="text_42">
      <!-- 10 -->
      <g transform="translate(1488.03554 414.435) scale(0.16 -0.16)">
       <use xlink:href="#DejaVuSans-31"/>
       <use xlink:href="#DejaVuSans-30" x="63.623047"/>
      </g>
     </g>
    </g>
    <g id="xtick_21">
     <g id="line2d_75">
      <g>
       <use xlink:href="#me29c1328f6" x="1563.144872" y="398.7775" style="stroke: #000000; stroke-width: 0.8"/>
      </g>
     </g>
     <g id="line2d_76">
      <g>
       <use xlink:href="#m0a3df3257e" x="1563.144872" y="22.3575" style="stroke: #000000; stroke-width: 0.8"/>
      </g>
     </g>
     <g id="text_43">
      <!-- 15 -->
      <g transform="translate(1552.964872 414.435) scale(0.16 -0.16)">
       <use xlink:href="#DejaVuSans-31"/>
       <use xlink:href="#DejaVuSans-35" x="63.623047"/>
      </g>
     </g>
    </g>
   </g>
   <g id="matplotlib.axis_6">
    <g id="ytick_17">
     <g id="line2d_77">
      <g>
       <use xlink:href="#m7d90f3d1df" x="1139.805625" y="378.32054" style="stroke: #000000; stroke-width: 0.8"/>
      </g>
     </g>
     <g id="line2d_78">
      <g>
       <use xlink:href="#md96fc4eb02" x="1596.908125" y="378.32054" style="stroke: #000000; stroke-width: 0.8"/>
      </g>
     </g>
     <g id="text_44">
      <!-- −300 -->
      <g transform="translate(1092.358125 384.39929) scale(0.16 -0.16)">
       <use xlink:href="#DejaVuSans-2212"/>
       <use xlink:href="#DejaVuSans-33" x="83.789062"/>
       <use xlink:href="#DejaVuSans-30" x="147.412109"/>
       <use xlink:href="#DejaVuSans-30" x="211.035156"/>
      </g>
     </g>
    </g>
    <g id="ytick_18">
     <g id="line2d_79">
      <g>
       <use xlink:href="#m7d90f3d1df" x="1139.805625" y="310.549932" style="stroke: #000000; stroke-width: 0.8"/>
      </g>
     </g>
     <g id="line2d_80">
      <g>
       <use xlink:href="#md96fc4eb02" x="1596.908125" y="310.549932" style="stroke: #000000; stroke-width: 0.8"/>
      </g>
     </g>
     <g id="text_45">
      <!-- −200 -->
      <g transform="translate(1092.358125 316.628682) scale(0.16 -0.16)">
       <use xlink:href="#DejaVuSans-2212"/>
       <use xlink:href="#DejaVuSans-32" x="83.789062"/>
       <use xlink:href="#DejaVuSans-30" x="147.412109"/>
       <use xlink:href="#DejaVuSans-30" x="211.035156"/>
      </g>
     </g>
    </g>
    <g id="ytick_19">
     <g id="line2d_81">
      <g>
       <use xlink:href="#m7d90f3d1df" x="1139.805625" y="242.779324" style="stroke: #000000; stroke-width: 0.8"/>
      </g>
     </g>
     <g id="line2d_82">
      <g>
       <use xlink:href="#md96fc4eb02" x="1596.908125" y="242.779324" style="stroke: #000000; stroke-width: 0.8"/>
      </g>
     </g>
     <g id="text_46">
      <!-- −100 -->
      <g transform="translate(1092.358125 248.858074) scale(0.16 -0.16)">
       <use xlink:href="#DejaVuSans-2212"/>
       <use xlink:href="#DejaVuSans-31" x="83.789062"/>
       <use xlink:href="#DejaVuSans-30" x="147.412109"/>
       <use xlink:href="#DejaVuSans-30" x="211.035156"/>
      </g>
     </g>
    </g>
    <g id="ytick_20">
     <g id="line2d_83">
      <g>
       <use xlink:href="#m7d90f3d1df" x="1139.805625" y="175.008716" style="stroke: #000000; stroke-width: 0.8"/>
      </g>
     </g>
     <g id="line2d_84">
      <g>
       <use xlink:href="#md96fc4eb02" x="1596.908125" y="175.008716" style="stroke: #000000; stroke-width: 0.8"/>
      </g>
     </g>
     <g id="text_47">
      <!-- 0 -->
      <g transform="translate(1126.125625 181.087466) scale(0.16 -0.16)">
       <use xlink:href="#DejaVuSans-30"/>
      </g>
     </g>
    </g>
    <g id="ytick_21">
     <g id="line2d_85">
      <g>
       <use xlink:href="#m7d90f3d1df" x="1139.805625" y="107.238108" style="stroke: #000000; stroke-width: 0.8"/>
      </g>
     </g>
     <g id="line2d_86">
      <g>
       <use xlink:href="#md96fc4eb02" x="1596.908125" y="107.238108" style="stroke: #000000; stroke-width: 0.8"/>
      </g>
     </g>
     <g id="text_48">
      <!-- 100 -->
      <g transform="translate(1105.765625 113.316858) scale(0.16 -0.16)">
       <use xlink:href="#DejaVuSans-31"/>
       <use xlink:href="#DejaVuSans-30" x="63.623047"/>
       <use xlink:href="#DejaVuSans-30" x="127.246094"/>
      </g>
     </g>
    </g>
    <g id="ytick_22">
     <g id="line2d_87">
      <g>
       <use xlink:href="#m7d90f3d1df" x="1139.805625" y="39.4675" style="stroke: #000000; stroke-width: 0.8"/>
      </g>
     </g>
     <g id="line2d_88">
      <g>
       <use xlink:href="#md96fc4eb02" x="1596.908125" y="39.4675" style="stroke: #000000; stroke-width: 0.8"/>
      </g>
     </g>
     <g id="text_49">
      <!-- 200 -->
      <g transform="translate(1105.765625 45.54625) scale(0.16 -0.16)">
       <use xlink:href="#DejaVuSans-32"/>
       <use xlink:href="#DejaVuSans-30" x="63.623047"/>
       <use xlink:href="#DejaVuSans-30" x="127.246094"/>
      </g>
     </g>
    </g>
    <g id="text_50">
     <!-- Quality Factor (Arb. U.) -->
     <g transform="translate(1084.614687 313.762344) rotate(-90) scale(0.18 -0.18)">
      <defs>
       <path id="DejaVuSans-51" d="M 2522 4238 
Q 1834 4238 1429 3725 
Q 1025 3213 1025 2328 
Q 1025 1447 1429 934 
Q 1834 422 2522 422 
Q 3209 422 3611 934 
Q 4013 1447 4013 2328 
Q 4013 3213 3611 3725 
Q 3209 4238 2522 4238 
z
M 3406 84 
L 4238 -825 
L 3475 -825 
L 2784 -78 
Q 2681 -84 2626 -87 
Q 2572 -91 2522 -91 
Q 1538 -91 948 567 
Q 359 1225 359 2328 
Q 359 3434 948 4092 
Q 1538 4750 2522 4750 
Q 3503 4750 4090 4092 
Q 4678 3434 4678 2328 
Q 4678 1516 4351 937 
Q 4025 359 3406 84 
z
" transform="scale(0.015625)"/>
      </defs>
      <use xlink:href="#DejaVuSans-51"/>
      <use xlink:href="#DejaVuSans-75" x="78.710938"/>
      <use xlink:href="#DejaVuSans-61" x="142.089844"/>
      <use xlink:href="#DejaVuSans-6c" x="203.369141"/>
      <use xlink:href="#DejaVuSans-69" x="231.152344"/>
      <use xlink:href="#DejaVuSans-74" x="258.935547"/>
      <use xlink:href="#DejaVuSans-79" x="298.144531"/>
      <use xlink:href="#DejaVuSans-20" x="357.324219"/>
      <use xlink:href="#DejaVuSans-46" x="389.111328"/>
      <use xlink:href="#DejaVuSans-61" x="437.505859"/>
      <use xlink:href="#DejaVuSans-63" x="498.785156"/>
      <use xlink:href="#DejaVuSans-74" x="553.765625"/>
      <use xlink:href="#DejaVuSans-6f" x="592.974609"/>
      <use xlink:href="#DejaVuSans-72" x="654.15625"/>
      <use xlink:href="#DejaVuSans-20" x="695.269531"/>
      <use xlink:href="#DejaVuSans-28" x="727.056641"/>
      <use xlink:href="#DejaVuSans-41" x="766.070312"/>
      <use xlink:href="#DejaVuSans-72" x="834.478516"/>
      <use xlink:href="#DejaVuSans-62" x="875.591797"/>
      <use xlink:href="#DejaVuSans-2e" x="939.068359"/>
      <use xlink:href="#DejaVuSans-20" x="970.855469"/>
      <use xlink:href="#DejaVuSans-55" x="1002.642578"/>
      <use xlink:href="#DejaVuSans-2e" x="1075.835938"/>
      <use xlink:href="#DejaVuSans-29" x="1107.623047"/>
     </g>
    </g>
   </g>
   <g id="line2d_89">
    <path d="M 1368.356875 335.61301 
L 1377.01412 350.699219 
L 1385.671364 323.008779 
L 1394.328608 337.288 
L 1402.985853 345.022655 
L 1411.643096 317.881166 
L 1420.300341 311.459162 
L 1428.957583 350.274516 
L 1437.614832 39.4675 
L 1489.558291 39.4675 
L 1498.21554 357.392849 
L 1506.872788 323.916655 
L 1515.530024 293.174045 
L 1524.187273 344.652231 
L 1532.844521 303.334973 
L 1541.501757 309.231313 
L 1550.159006 307.346019 
L 1558.816254 300.491432 
L 1567.47349 306.134316 
L 1576.130739 303.534491 
L 1567.47349 302.543547 
L 1558.816254 299.959782 
L 1550.159006 296.783252 
L 1541.501757 305.712683 
L 1532.844521 314.311058 
L 1524.187273 302.789579 
L 1515.530024 293.462424 
L 1506.872788 313.8759 
L 1498.21554 324.004749 
L 1489.558291 316.604014 
L 1480.901055 319.473934 
L 1472.243807 306.768734 
L 1463.586565 309.675624 
L 1454.929316 303.252524 
L 1446.272074 320.833835 
L 1437.614832 316.032758 
L 1428.957583 303.560685 
L 1420.300341 310.489758 
L 1411.643096 346.00452 
L 1402.985853 339.611389 
L 1394.328608 324.60344 
L 1385.671364 302.236709 
L 1377.01412 306.752768 
L 1368.356875 305.740314 
L 1359.69963 324.526193 
L 1351.042386 39.4675 
L 1333.727897 39.4675 
L 1325.070654 338.548657 
L 1316.413409 348.471194 
L 1307.756167 324.23466 
L 1299.098918 314.645299 
L 1290.441676 302.360842 
L 1281.784434 320.06246 
L 1273.127185 349.82187 
L 1264.469943 313.774145 
L 1255.812695 324.187506 
L 1247.155459 313.44678 
L 1238.49821 327.912066 
L 1229.840962 321.187703 
L 1221.183726 322.108515 
L 1212.526477 306.869042 
L 1203.869229 320.06822 
L 1195.211993 310.469769 
L 1186.554744 320.267728 
L 1177.897496 310.774828 
L 1169.24026 311.578446 
L 1160.583011 308.914383 
L 1169.24026 324.038709 
L 1177.897496 321.304059 
L 1186.554744 319.190881 
L 1195.211993 313.430183 
L 1203.869229 321.212707 
L 1212.526477 319.433956 
L 1221.183726 325.751371 
L 1229.840962 325.202317 
L 1238.49821 315.51602 
L 1247.155459 319.716885 
L 1255.812695 309.034152 
L 1264.469943 317.965765 
L 1273.127185 325.964964 
L 1281.784434 324.662011 
L 1290.441676 321.119411 
L 1299.098918 335.15717 
L 1307.756167 328.735973 
L 1316.413409 329.526168 
L 1325.070654 313.276702 
L 1333.727897 346.528322 
L 1342.385142 330.832574 
L 1351.042386 336.976633 
L 1359.69963 347.486548 
L 1368.356875 319.577644 
L 1377.01412 332.881607 
L 1385.671364 331.718516 
L 1394.328608 342.001116 
L 1402.985853 299.740946 
L 1411.643096 346.510049 
L 1420.300341 311.937722 
L 1428.957583 316.641056 
L 1437.614832 381.6675 
L 1446.272074 39.4675 
L 1498.21554 39.4675 
L 1506.872788 317.738647 
L 1515.530024 287.123128 
L 1524.187273 295.188229 
L 1532.844521 291.850576 
L 1541.501757 310.143025 
L 1550.159006 304.916759 
L 1558.816254 311.546078 
L 1567.47349 307.127204 
L 1576.130739 303.209888 
L 1567.47349 325.318177 
L 1558.816254 303.255802 
L 1550.159006 300.085859 
L 1541.501757 318.958189 
L 1532.844521 317.555694 
L 1524.187273 305.614837 
L 1515.530024 314.998568 
L 1506.872788 321.282385 
L 1498.21554 332.038414 
L 1489.558291 311.219479 
L 1480.901055 306.527386 
L 1472.243807 292.455606 
L 1463.586565 317.390394 
L 1454.929316 302.265685 
L 1446.272074 345.05616 
L 1437.614832 306.454865 
L 1428.957583 289.096733 
L 1420.300341 331.273875 
L 1411.643096 324.888489 
L 1402.985853 349.947513 
L 1394.328608 331.027574 
L 1385.671364 352.354582 
L 1377.01412 299.214529 
L 1368.356875 352.218846 
L 1359.69963 39.4675 
L 1333.727897 39.4675 
L 1325.070654 340.712031 
L 1316.413409 319.213104 
L 1307.756167 342.060731 
L 1299.098918 338.764701 
L 1290.441676 331.128233 
L 1281.784434 325.951541 
L 1273.127185 347.486444 
L 1264.469943 328.02957 
L 1255.812695 316.43708 
L 1247.155459 316.220891 
L 1238.49821 313.341106 
L 1229.840962 321.961869 
L 1221.183726 325.442021 
L 1212.526477 319.715417 
L 1203.869229 295.753818 
L 1195.211993 325.003377 
L 1186.554744 314.501932 
L 1177.897496 330.807921 
L 1169.24026 312.876021 
L 1160.583011 326.629154 
L 1169.24026 322.656607 
L 1177.897496 309.130385 
L 1186.554744 319.998542 
L 1195.211993 317.43245 
L 1203.869229 312.745621 
L 1212.526477 327.573399 
L 1221.183726 309.206412 
L 1229.840962 334.277773 
L 1238.49821 315.429021 
L 1247.155459 320.713104 
L 1255.812695 322.091194 
L 1264.469943 324.588425 
L 1273.127185 314.328793 
L 1281.784434 342.058074 
L 1290.441676 317.308317 
L 1299.098918 329.451661 
L 1307.756167 320.933852 
L 1316.413409 332.010742 
L 1325.070654 326.917978 
L 1333.727897 330.849409 
L 1342.385142 333.062326 
L 1351.042386 338.890416 
L 1359.69963 337.708205 
L 1359.69963 337.708205 
" clip-path="url(#p523babb0fd)" style="fill: none; stroke: #1f77b4; stroke-width: 1.5; stroke-linecap: square"/>
   </g>
   <g id="patch_13">
    <path d="M 1139.805625 398.7775 
L 1139.805625 22.3575 
" style="fill: none; stroke: #000000; stroke-width: 0.8; stroke-linejoin: miter; stroke-linecap: square"/>
   </g>
   <g id="patch_14">
    <path d="M 1596.908125 398.7775 
L 1596.908125 22.3575 
" style="fill: none; stroke: #000000; stroke-width: 0.8; stroke-linejoin: miter; stroke-linecap: square"/>
   </g>
   <g id="patch_15">
    <path d="M 1139.805625 398.7775 
L 1596.908125 398.7775 
" style="fill: none; stroke: #000000; stroke-width: 0.8; stroke-linejoin: miter; stroke-linecap: square"/>
   </g>
   <g id="patch_16">
    <path d="M 1139.805625 22.3575 
L 1596.908125 22.3575 
" style="fill: none; stroke: #000000; stroke-width: 0.8; stroke-linejoin: miter; stroke-linecap: square"/>
   </g>
   <g id="text_51">
    <!-- Dampening -->
    <g transform="translate(1333.63375 16.3575) scale(0.12 -0.12)">
     <defs>
      <path id="DejaVuSans-44" d="M 1259 4147 
L 1259 519 
L 2022 519 
Q 2988 519 3436 956 
Q 3884 1394 3884 2338 
Q 3884 3275 3436 3711 
Q 2988 4147 2022 4147 
L 1259 4147 
z
M 628 4666 
L 1925 4666 
Q 3281 4666 3915 4102 
Q 4550 3538 4550 2338 
Q 4550 1131 3912 565 
Q 3275 0 1925 0 
L 628 0 
L 628 4666 
z
" transform="scale(0.015625)"/>
      <path id="DejaVuSans-67" d="M 2906 1791 
Q 2906 2416 2648 2759 
Q 2391 3103 1925 3103 
Q 1463 3103 1205 2759 
Q 947 2416 947 1791 
Q 947 1169 1205 825 
Q 1463 481 1925 481 
Q 2391 481 2648 825 
Q 2906 1169 2906 1791 
z
M 3481 434 
Q 3481 -459 3084 -895 
Q 2688 -1331 1869 -1331 
Q 1566 -1331 1297 -1286 
Q 1028 -1241 775 -1147 
L 775 -588 
Q 1028 -725 1275 -790 
Q 1522 -856 1778 -856 
Q 2344 -856 2625 -561 
Q 2906 -266 2906 331 
L 2906 616 
Q 2728 306 2450 153 
Q 2172 0 1784 0 
Q 1141 0 747 490 
Q 353 981 353 1791 
Q 353 2603 747 3093 
Q 1141 3584 1784 3584 
Q 2172 3584 2450 3431 
Q 2728 3278 2906 2969 
L 2906 3500 
L 3481 3500 
L 3481 434 
z
" transform="scale(0.015625)"/>
     </defs>
     <use xlink:href="#DejaVuSans-44"/>
     <use xlink:href="#DejaVuSans-61" x="77.001953"/>
     <use xlink:href="#DejaVuSans-6d" x="138.28125"/>
     <use xlink:href="#DejaVuSans-70" x="235.693359"/>
     <use xlink:href="#DejaVuSans-65" x="299.169922"/>
     <use xlink:href="#DejaVuSans-6e" x="360.693359"/>
     <use xlink:href="#DejaVuSans-69" x="424.072266"/>
     <use xlink:href="#DejaVuSans-6e" x="451.855469"/>
     <use xlink:href="#DejaVuSans-67" x="515.234375"/>
    </g>
   </g>
  </g>
  <g id="axes_4">
   <g id="patch_17">
    <path d="M 1688.558125 398.7775 
L 2145.660625 398.7775 
L 2145.660625 22.3575 
L 1688.558125 22.3575 
z
" style="fill: #ffffff"/>
   </g>
   <g id="matplotlib.axis_7">
    <g id="xtick_22">
     <g id="line2d_90">
      <g>
       <use xlink:href="#me29c1328f6" x="1722.321378" y="398.7775" style="stroke: #000000; stroke-width: 0.8"/>
      </g>
     </g>
     <g id="line2d_91">
      <g>
       <use xlink:href="#m0a3df3257e" x="1722.321378" y="22.3575" style="stroke: #000000; stroke-width: 0.8"/>
      </g>
     </g>
     <g id="text_52">
      <!-- −15 -->
      <g transform="translate(1705.437628 414.435) scale(0.16 -0.16)">
       <use xlink:href="#DejaVuSans-2212"/>
       <use xlink:href="#DejaVuSans-31" x="83.789062"/>
       <use xlink:href="#DejaVuSans-35" x="147.412109"/>
      </g>
     </g>
    </g>
    <g id="xtick_23">
     <g id="line2d_92">
      <g>
       <use xlink:href="#me29c1328f6" x="1787.25071" y="398.7775" style="stroke: #000000; stroke-width: 0.8"/>
      </g>
     </g>
     <g id="line2d_93">
      <g>
       <use xlink:href="#m0a3df3257e" x="1787.25071" y="22.3575" style="stroke: #000000; stroke-width: 0.8"/>
      </g>
     </g>
     <g id="text_53">
      <!-- −10 -->
      <g transform="translate(1770.36696 414.435) scale(0.16 -0.16)">
       <use xlink:href="#DejaVuSans-2212"/>
       <use xlink:href="#DejaVuSans-31" x="83.789062"/>
       <use xlink:href="#DejaVuSans-30" x="147.412109"/>
      </g>
     </g>
    </g>
    <g id="xtick_24">
     <g id="line2d_94">
      <g>
       <use xlink:href="#me29c1328f6" x="1852.180043" y="398.7775" style="stroke: #000000; stroke-width: 0.8"/>
      </g>
     </g>
     <g id="line2d_95">
      <g>
       <use xlink:href="#m0a3df3257e" x="1852.180043" y="22.3575" style="stroke: #000000; stroke-width: 0.8"/>
      </g>
     </g>
     <g id="text_54">
      <!-- −5 -->
      <g transform="translate(1840.386293 414.435) scale(0.16 -0.16)">
       <use xlink:href="#DejaVuSans-2212"/>
       <use xlink:href="#DejaVuSans-35" x="83.789062"/>
      </g>
     </g>
    </g>
    <g id="xtick_25">
     <g id="line2d_96">
      <g>
       <use xlink:href="#me29c1328f6" x="1917.109375" y="398.7775" style="stroke: #000000; stroke-width: 0.8"/>
      </g>
     </g>
     <g id="line2d_97">
      <g>
       <use xlink:href="#m0a3df3257e" x="1917.109375" y="22.3575" style="stroke: #000000; stroke-width: 0.8"/>
      </g>
     </g>
     <g id="text_55">
      <!-- 0 -->
      <g transform="translate(1912.019375 414.435) scale(0.16 -0.16)">
       <use xlink:href="#DejaVuSans-30"/>
      </g>
     </g>
    </g>
    <g id="xtick_26">
     <g id="line2d_98">
      <g>
       <use xlink:href="#me29c1328f6" x="1982.038707" y="398.7775" style="stroke: #000000; stroke-width: 0.8"/>
      </g>
     </g>
     <g id="line2d_99">
      <g>
       <use xlink:href="#m0a3df3257e" x="1982.038707" y="22.3575" style="stroke: #000000; stroke-width: 0.8"/>
      </g>
     </g>
     <g id="text_56">
      <!-- 5 -->
      <g transform="translate(1976.948707 414.435) scale(0.16 -0.16)">
       <use xlink:href="#DejaVuSans-35"/>
      </g>
     </g>
    </g>
    <g id="xtick_27">
     <g id="line2d_100">
      <g>
       <use xlink:href="#me29c1328f6" x="2046.96804" y="398.7775" style="stroke: #000000; stroke-width: 0.8"/>
      </g>
     </g>
     <g id="line2d_101">
      <g>
       <use xlink:href="#m0a3df3257e" x="2046.96804" y="22.3575" style="stroke: #000000; stroke-width: 0.8"/>
      </g>
     </g>
     <g id="text_57">
      <!-- 10 -->
      <g transform="translate(2036.78804 414.435) scale(0.16 -0.16)">
       <use xlink:href="#DejaVuSans-31"/>
       <use xlink:href="#DejaVuSans-30" x="63.623047"/>
      </g>
     </g>
    </g>
    <g id="xtick_28">
     <g id="line2d_102">
      <g>
       <use xlink:href="#me29c1328f6" x="2111.897372" y="398.7775" style="stroke: #000000; stroke-width: 0.8"/>
      </g>
     </g>
     <g id="line2d_103">
      <g>
       <use xlink:href="#m0a3df3257e" x="2111.897372" y="22.3575" style="stroke: #000000; stroke-width: 0.8"/>
      </g>
     </g>
     <g id="text_58">
      <!-- 15 -->
      <g transform="translate(2101.717372 414.435) scale(0.16 -0.16)">
       <use xlink:href="#DejaVuSans-31"/>
       <use xlink:href="#DejaVuSans-35" x="63.623047"/>
      </g>
     </g>
    </g>
   </g>
   <g id="matplotlib.axis_8">
    <g id="ytick_23">
     <g id="line2d_104">
      <g>
       <use xlink:href="#m7d90f3d1df" x="1688.558125" y="374.197215" style="stroke: #000000; stroke-width: 0.8"/>
      </g>
     </g>
     <g id="line2d_105">
      <g>
       <use xlink:href="#md96fc4eb02" x="2145.660625" y="374.197215" style="stroke: #000000; stroke-width: 0.8"/>
      </g>
     </g>
     <g id="text_59">
      <!-- −3 -->
      <g transform="translate(1661.470625 380.275965) scale(0.16 -0.16)">
       <use xlink:href="#DejaVuSans-2212"/>
       <use xlink:href="#DejaVuSans-33" x="83.789062"/>
      </g>
     </g>
    </g>
    <g id="ytick_24">
     <g id="line2d_106">
      <g>
       <use xlink:href="#m7d90f3d1df" x="1688.558125" y="319.675887" style="stroke: #000000; stroke-width: 0.8"/>
      </g>
     </g>
     <g id="line2d_107">
      <g>
       <use xlink:href="#md96fc4eb02" x="2145.660625" y="319.675887" style="stroke: #000000; stroke-width: 0.8"/>
      </g>
     </g>
     <g id="text_60">
      <!-- −2 -->
      <g transform="translate(1661.470625 325.754637) scale(0.16 -0.16)">
       <use xlink:href="#DejaVuSans-2212"/>
       <use xlink:href="#DejaVuSans-32" x="83.789062"/>
      </g>
     </g>
    </g>
    <g id="ytick_25">
     <g id="line2d_108">
      <g>
       <use xlink:href="#m7d90f3d1df" x="1688.558125" y="265.154558" style="stroke: #000000; stroke-width: 0.8"/>
      </g>
     </g>
     <g id="line2d_109">
      <g>
       <use xlink:href="#md96fc4eb02" x="2145.660625" y="265.154558" style="stroke: #000000; stroke-width: 0.8"/>
      </g>
     </g>
     <g id="text_61">
      <!-- −1 -->
      <g transform="translate(1661.470625 271.233308) scale(0.16 -0.16)">
       <use xlink:href="#DejaVuSans-2212"/>
       <use xlink:href="#DejaVuSans-31" x="83.789062"/>
      </g>
     </g>
    </g>
    <g id="ytick_26">
     <g id="line2d_110">
      <g>
       <use xlink:href="#m7d90f3d1df" x="1688.558125" y="210.633229" style="stroke: #000000; stroke-width: 0.8"/>
      </g>
     </g>
     <g id="line2d_111">
      <g>
       <use xlink:href="#md96fc4eb02" x="2145.660625" y="210.633229" style="stroke: #000000; stroke-width: 0.8"/>
      </g>
     </g>
     <g id="text_62">
      <!-- 0 -->
      <g transform="translate(1674.878125 216.711979) scale(0.16 -0.16)">
       <use xlink:href="#DejaVuSans-30"/>
      </g>
     </g>
    </g>
    <g id="ytick_27">
     <g id="line2d_112">
      <g>
       <use xlink:href="#m7d90f3d1df" x="1688.558125" y="156.1119" style="stroke: #000000; stroke-width: 0.8"/>
      </g>
     </g>
     <g id="line2d_113">
      <g>
       <use xlink:href="#md96fc4eb02" x="2145.660625" y="156.1119" style="stroke: #000000; stroke-width: 0.8"/>
      </g>
     </g>
     <g id="text_63">
      <!-- 1 -->
      <g transform="translate(1674.878125 162.19065) scale(0.16 -0.16)">
       <use xlink:href="#DejaVuSans-31"/>
      </g>
     </g>
    </g>
    <g id="ytick_28">
     <g id="line2d_114">
      <g>
       <use xlink:href="#m7d90f3d1df" x="1688.558125" y="101.590571" style="stroke: #000000; stroke-width: 0.8"/>
      </g>
     </g>
     <g id="line2d_115">
      <g>
       <use xlink:href="#md96fc4eb02" x="2145.660625" y="101.590571" style="stroke: #000000; stroke-width: 0.8"/>
      </g>
     </g>
     <g id="text_64">
      <!-- 2 -->
      <g transform="translate(1674.878125 107.669321) scale(0.16 -0.16)">
       <use xlink:href="#DejaVuSans-32"/>
      </g>
     </g>
    </g>
    <g id="ytick_29">
     <g id="line2d_116">
      <g>
       <use xlink:href="#m7d90f3d1df" x="1688.558125" y="47.069242" style="stroke: #000000; stroke-width: 0.8"/>
      </g>
     </g>
     <g id="line2d_117">
      <g>
       <use xlink:href="#md96fc4eb02" x="2145.660625" y="47.069242" style="stroke: #000000; stroke-width: 0.8"/>
      </g>
     </g>
     <g id="text_65">
      <!-- 3 -->
      <g transform="translate(1674.878125 53.147992) scale(0.16 -0.16)">
       <use xlink:href="#DejaVuSans-33"/>
      </g>
     </g>
    </g>
    <g id="text_66">
     <!-- Phase (rad) -->
     <g transform="translate(1653.727187 262.251406) rotate(-90) scale(0.18 -0.18)">
      <defs>
       <path id="DejaVuSans-50" d="M 1259 4147 
L 1259 2394 
L 2053 2394 
Q 2494 2394 2734 2622 
Q 2975 2850 2975 3272 
Q 2975 3691 2734 3919 
Q 2494 4147 2053 4147 
L 1259 4147 
z
M 628 4666 
L 2053 4666 
Q 2838 4666 3239 4311 
Q 3641 3956 3641 3272 
Q 3641 2581 3239 2228 
Q 2838 1875 2053 1875 
L 1259 1875 
L 1259 0 
L 628 0 
L 628 4666 
z
" transform="scale(0.015625)"/>
       <path id="DejaVuSans-68" d="M 3513 2113 
L 3513 0 
L 2938 0 
L 2938 2094 
Q 2938 2591 2744 2837 
Q 2550 3084 2163 3084 
Q 1697 3084 1428 2787 
Q 1159 2491 1159 1978 
L 1159 0 
L 581 0 
L 581 4863 
L 1159 4863 
L 1159 2956 
Q 1366 3272 1645 3428 
Q 1925 3584 2291 3584 
Q 2894 3584 3203 3211 
Q 3513 2838 3513 2113 
z
" transform="scale(0.015625)"/>
      </defs>
      <use xlink:href="#DejaVuSans-50"/>
      <use xlink:href="#DejaVuSans-68" x="60.302734"/>
      <use xlink:href="#DejaVuSans-61" x="123.681641"/>
      <use xlink:href="#DejaVuSans-73" x="184.960938"/>
      <use xlink:href="#DejaVuSans-65" x="237.060547"/>
      <use xlink:href="#DejaVuSans-20" x="298.583984"/>
      <use xlink:href="#DejaVuSans-28" x="330.371094"/>
      <use xlink:href="#DejaVuSans-72" x="369.384766"/>
      <use xlink:href="#DejaVuSans-61" x="410.498047"/>
      <use xlink:href="#DejaVuSans-64" x="471.777344"/>
      <use xlink:href="#DejaVuSans-29" x="535.253906"/>
     </g>
    </g>
   </g>
   <g id="line2d_118">
    <path d="M 1917.109375 372.669182 
L 1925.76662 50.276057 
L 1934.423864 381.6675 
L 1943.081108 49.206404 
L 1951.738353 43.913175 
L 1960.395596 41.601386 
L 1969.052841 46.242032 
L 1977.710083 371.851733 
L 1986.367332 193.386623 
L 1995.024574 184.431724 
L 2003.681816 228.222983 
L 2012.339065 68.541134 
L 2020.996307 351.267498 
L 2029.653555 85.193892 
L 2038.310791 328.180467 
L 2046.96804 233.232671 
L 2055.625288 217.691426 
L 2064.282524 210.791939 
L 2072.939773 219.291856 
L 2081.597021 225.387326 
L 2090.254257 214.265214 
L 2098.911506 214.691651 
L 2107.568754 214.641074 
L 2116.22599 213.713206 
L 2124.883239 213.58451 
L 2116.22599 211.458835 
L 2107.568754 210.718943 
L 2098.911506 217.622993 
L 2090.254257 219.256512 
L 2081.597021 210.63176 
L 2072.939773 214.779194 
L 2064.282524 204.431771 
L 2055.625288 214.052429 
L 2046.96804 208.758045 
L 2038.310791 206.079856 
L 2029.653555 208.395878 
L 2012.339065 221.823539 
L 2003.681816 209.482386 
L 1995.024574 211.3926 
L 1986.367332 213.607444 
L 1977.710083 207.503422 
L 1969.052841 200.266234 
L 1960.395596 218.756728 
L 1951.738353 216.225829 
L 1943.081108 214.204776 
L 1934.423864 200.183868 
L 1925.76662 215.411054 
L 1917.109375 206.371289 
L 1908.45213 200.830464 
L 1899.794886 271.939501 
L 1891.137642 202.515085 
L 1882.480397 184.673415 
L 1873.823154 44.719718 
L 1865.165909 43.032773 
L 1856.508667 45.957486 
L 1847.851418 43.476724 
L 1839.194176 380.250737 
L 1830.536934 43.187655 
L 1821.879685 381.065105 
L 1813.222443 41.031163 
L 1804.565195 40.074809 
L 1795.907959 44.036834 
L 1787.25071 40.060861 
L 1778.593462 45.87675 
L 1769.936226 41.330957 
L 1761.278977 40.629095 
L 1752.621729 45.851363 
L 1743.964493 42.407006 
L 1735.307244 44.08116 
L 1726.649996 41.731271 
L 1717.99276 42.229506 
L 1709.335511 41.449546 
L 1717.99276 41.69763 
L 1726.649996 43.182078 
L 1735.307244 45.513131 
L 1743.964493 41.669162 
L 1752.621729 40.222359 
L 1761.278977 42.536241 
L 1769.936226 45.037216 
L 1778.593462 44.584724 
L 1787.25071 43.698589 
L 1795.907959 40.745435 
L 1804.565195 42.833981 
L 1813.222443 43.367676 
L 1830.536934 46.085382 
L 1839.194176 40.898549 
L 1847.851418 45.718384 
L 1856.508667 42.714391 
L 1865.165909 44.153967 
L 1873.823154 380.605919 
L 1882.480397 44.507303 
L 1891.137642 44.744221 
L 1899.794886 41.910669 
L 1908.45213 42.065902 
L 1917.109375 381.493991 
L 1925.76662 46.388503 
L 1934.423864 44.000307 
L 1943.081108 41.399266 
L 1951.738353 45.947542 
L 1960.395596 51.845778 
L 1969.052841 372.813795 
L 1977.710083 39.912322 
L 1986.367332 362.974188 
L 1995.024574 138.608605 
L 2003.681816 335.333345 
L 2012.339065 71.910552 
L 2020.996307 324.826765 
L 2029.653555 133.710536 
L 2038.310791 126.753389 
L 2046.96804 362.172429 
L 2055.625288 216.117777 
L 2064.282524 213.924654 
L 2072.939773 228.45773 
L 2081.597021 212.25021 
L 2090.254257 212.016094 
L 2098.911506 214.47046 
L 2107.568754 218.758162 
L 2116.22599 215.857868 
L 2124.883239 214.24375 
L 2116.22599 216.446232 
L 2107.568754 214.663754 
L 2098.911506 212.437738 
L 2090.254257 214.238369 
L 2081.597021 209.876732 
L 2072.939773 215.553925 
L 2064.282524 215.146162 
L 2055.625288 213.092911 
L 2046.96804 214.303382 
L 2038.310791 213.189412 
L 2029.653555 208.540528 
L 2020.996307 224.098504 
L 2012.339065 217.763379 
L 2003.681816 216.025646 
L 1995.024574 218.789078 
L 1986.367332 216.342427 
L 1977.710083 209.905175 
L 1969.052841 199.684294 
L 1960.395596 214.533709 
L 1951.738353 206.75952 
L 1943.081108 216.580538 
L 1934.423864 209.50762 
L 1925.76662 203.55301 
L 1917.109375 208.899747 
L 1908.45213 229.037687 
L 1899.794886 185.940157 
L 1891.137642 273.446529 
L 1882.480397 191.962936 
L 1873.823154 43.502943 
L 1865.165909 43.611081 
L 1856.508667 41.331516 
L 1847.851418 381.643972 
L 1839.194176 381.627723 
L 1830.536934 43.867601 
L 1821.879685 41.098953 
L 1813.222443 43.854381 
L 1804.565195 40.672745 
L 1795.907959 42.482321 
L 1787.25071 40.45487 
L 1778.593462 40.373874 
L 1769.936226 42.15497 
L 1761.278977 41.789831 
L 1752.621729 41.125964 
L 1743.964493 42.571442 
L 1735.307244 42.365773 
L 1726.649996 41.172903 
L 1717.99276 45.655508 
L 1709.335511 42.499181 
L 1717.99276 43.661542 
L 1726.649996 380.081154 
L 1735.307244 40.98659 
L 1743.964493 45.513521 
L 1752.621729 45.483676 
L 1761.278977 40.282115 
L 1769.936226 39.4675 
L 1778.593462 44.362898 
L 1787.25071 43.967965 
L 1795.907959 40.386171 
L 1804.565195 42.628325 
L 1813.222443 39.910411 
L 1821.879685 46.471709 
L 1830.536934 46.547805 
L 1839.194176 43.046162 
L 1847.851418 45.386236 
L 1856.508667 39.618833 
L 1865.165909 42.950594 
L 1873.823154 380.171301 
L 1882.480397 41.295223 
L 1891.137642 380.786825 
L 1899.794886 43.227691 
L 1908.45213 42.671793 
L 1908.45213 42.671793 
" clip-path="url(#p649cb4bf68)" style="fill: none; stroke: #1f77b4; stroke-width: 1.5; stroke-linecap: square"/>
   </g>
   <g id="patch_18">
    <path d="M 1688.558125 398.7775 
L 1688.558125 22.3575 
" style="fill: none; stroke: #000000; stroke-width: 0.8; stroke-linejoin: miter; stroke-linecap: square"/>
   </g>
   <g id="patch_19">
    <path d="M 2145.660625 398.7775 
L 2145.660625 22.3575 
" style="fill: none; stroke: #000000; stroke-width: 0.8; stroke-linejoin: miter; stroke-linecap: square"/>
   </g>
   <g id="patch_20">
    <path d="M 1688.558125 398.7775 
L 2145.660625 398.7775 
" style="fill: none; stroke: #000000; stroke-width: 0.8; stroke-linejoin: miter; stroke-linecap: square"/>
   </g>
   <g id="patch_21">
    <path d="M 1688.558125 22.3575 
L 2145.660625 22.3575 
" style="fill: none; stroke: #000000; stroke-width: 0.8; stroke-linejoin: miter; stroke-linecap: square"/>
   </g>
   <g id="text_67">
    <!-- Phase -->
    <g transform="translate(1899.194688 16.3575) scale(0.12 -0.12)">
     <use xlink:href="#DejaVuSans-50"/>
     <use xlink:href="#DejaVuSans-68" x="60.302734"/>
     <use xlink:href="#DejaVuSans-61" x="123.681641"/>
     <use xlink:href="#DejaVuSans-73" x="184.960938"/>
     <use xlink:href="#DejaVuSans-65" x="237.060547"/>
    </g>
   </g>
  </g>
 </g>
 <defs>
  <clipPath id="p7cbc22e9ee">
   <rect x="42.300625" y="22.3575" width="457.1025" height="376.42"/>
  </clipPath>
  <clipPath id="p4fd7eb6963">
   <rect x="591.053125" y="22.3575" width="457.1025" height="376.42"/>
  </clipPath>
  <clipPath id="p523babb0fd">
   <rect x="1139.805625" y="22.3575" width="457.1025" height="376.42"/>
  </clipPath>
  <clipPath id="p649cb4bf68">
   <rect x="1688.558125" y="22.3575" width="457.1025" height="376.42"/>
  </clipPath>
 </defs>
</svg>
