<?xml version="1.0" encoding="utf-8" standalone="no"?>
<!DOCTYPE svg PUBLIC "-//W3C//DTD SVG 1.1//EN"
  "http://www.w3.org/Graphics/SVG/1.1/DTD/svg11.dtd">
<svg xmlns:xlink="http://www.w3.org/1999/xlink" width="2152.505625pt" height="424.9625pt" viewBox="0 0 2152.505625 424.9625" xmlns="http://www.w3.org/2000/svg" version="1.1">
 <metadata>
  <rdf:RDF xmlns:dc="http://purl.org/dc/elements/1.1/" xmlns:cc="http://creativecommons.org/ns#" xmlns:rdf="http://www.w3.org/1999/02/22-rdf-syntax-ns#">
   <cc:Work>
    <dc:type rdf:resource="http://purl.org/dc/dcmitype/StillImage"/>
    <dc:date>2023-03-28T22:45:22.171912</dc:date>
    <dc:format>image/svg+xml</dc:format>
    <dc:creator>
     <cc:Agent>
      <dc:title>Matplotlib v3.7.1, https://matplotlib.org/</dc:title>
     </cc:Agent>
    </dc:creator>
   </cc:Work>
  </rdf:RDF>
 </metadata>
 <defs>
  <style type="text/css">*{stroke-linejoin: round; stroke-linecap: butt}</style>
 </defs>
 <g id="figure_1">
  <g id="patch_1">
   <path d="M 0 424.9625 
L 2152.505625 424.9625 
L 2152.505625 0 
L 0 0 
z
" style="fill: #ffffff"/>
  </g>
  <g id="axes_1">
   <g id="patch_2">
    <path d="M 98.285625 398.7775 
L 541.303125 398.7775 
L 541.303125 22.3575 
L 98.285625 22.3575 
z
" style="fill: #ffffff"/>
   </g>
   <g id="matplotlib.axis_1">
    <g id="xtick_1">
     <g id="line2d_1">
      <defs>
       <path id="m89bc731899" d="M 0 0 
L 0 -3.5 
" style="stroke: #000000; stroke-width: 0.8"/>
      </defs>
      <g>
       <use xlink:href="#m89bc731899" x="131.008509" y="398.7775" style="stroke: #000000; stroke-width: 0.8"/>
      </g>
     </g>
     <g id="line2d_2">
      <defs>
       <path id="md997ba0fcd" d="M 0 0 
L 0 3.5 
" style="stroke: #000000; stroke-width: 0.8"/>
      </defs>
      <g>
       <use xlink:href="#md997ba0fcd" x="131.008509" y="22.3575" style="stroke: #000000; stroke-width: 0.8"/>
      </g>
     </g>
     <g id="text_1">
      <!-- −15 -->
      <g transform="translate(114.124759 414.435) scale(0.16 -0.16)">
       <defs>
        <path id="DejaVuSans-2212" d="M 678 2272 
L 4684 2272 
L 4684 1741 
L 678 1741 
L 678 2272 
z
" transform="scale(0.015625)"/>
        <path id="DejaVuSans-31" d="M 794 531 
L 1825 531 
L 1825 4091 
L 703 3866 
L 703 4441 
L 1819 4666 
L 2450 4666 
L 2450 531 
L 3481 531 
L 3481 0 
L 794 0 
L 794 531 
z
" transform="scale(0.015625)"/>
        <path id="DejaVuSans-35" d="M 691 4666 
L 3169 4666 
L 3169 4134 
L 1269 4134 
L 1269 2991 
Q 1406 3038 1543 3061 
Q 1681 3084 1819 3084 
Q 2600 3084 3056 2656 
Q 3513 2228 3513 1497 
Q 3513 744 3044 326 
Q 2575 -91 1722 -91 
Q 1428 -91 1123 -41 
Q 819 9 494 109 
L 494 744 
Q 775 591 1075 516 
Q 1375 441 1709 441 
Q 2250 441 2565 725 
Q 2881 1009 2881 1497 
Q 2881 1984 2565 2268 
Q 2250 2553 1709 2553 
Q 1456 2553 1204 2497 
Q 953 2441 691 2322 
L 691 4666 
z
" transform="scale(0.015625)"/>
       </defs>
       <use xlink:href="#DejaVuSans-2212"/>
       <use xlink:href="#DejaVuSans-31" x="83.789062"/>
       <use xlink:href="#DejaVuSans-35" x="147.412109"/>
      </g>
     </g>
    </g>
    <g id="xtick_2">
     <g id="line2d_3">
      <g>
       <use xlink:href="#m89bc731899" x="193.937131" y="398.7775" style="stroke: #000000; stroke-width: 0.8"/>
      </g>
     </g>
     <g id="line2d_4">
      <g>
       <use xlink:href="#md997ba0fcd" x="193.937131" y="22.3575" style="stroke: #000000; stroke-width: 0.8"/>
      </g>
     </g>
     <g id="text_2">
      <!-- −10 -->
      <g transform="translate(177.053381 414.435) scale(0.16 -0.16)">
       <defs>
        <path id="DejaVuSans-30" d="M 2034 4250 
Q 1547 4250 1301 3770 
Q 1056 3291 1056 2328 
Q 1056 1369 1301 889 
Q 1547 409 2034 409 
Q 2525 409 2770 889 
Q 3016 1369 3016 2328 
Q 3016 3291 2770 3770 
Q 2525 4250 2034 4250 
z
M 2034 4750 
Q 2819 4750 3233 4129 
Q 3647 3509 3647 2328 
Q 3647 1150 3233 529 
Q 2819 -91 2034 -91 
Q 1250 -91 836 529 
Q 422 1150 422 2328 
Q 422 3509 836 4129 
Q 1250 4750 2034 4750 
z
" transform="scale(0.015625)"/>
       </defs>
       <use xlink:href="#DejaVuSans-2212"/>
       <use xlink:href="#DejaVuSans-31" x="83.789062"/>
       <use xlink:href="#DejaVuSans-30" x="147.412109"/>
      </g>
     </g>
    </g>
    <g id="xtick_3">
     <g id="line2d_5">
      <g>
       <use xlink:href="#m89bc731899" x="256.865753" y="398.7775" style="stroke: #000000; stroke-width: 0.8"/>
      </g>
     </g>
     <g id="line2d_6">
      <g>
       <use xlink:href="#md997ba0fcd" x="256.865753" y="22.3575" style="stroke: #000000; stroke-width: 0.8"/>
      </g>
     </g>
     <g id="text_3">
      <!-- −5 -->
      <g transform="translate(245.072003 414.435) scale(0.16 -0.16)">
       <use xlink:href="#DejaVuSans-2212"/>
       <use xlink:href="#DejaVuSans-35" x="83.789062"/>
      </g>
     </g>
    </g>
    <g id="xtick_4">
     <g id="line2d_7">
      <g>
       <use xlink:href="#m89bc731899" x="319.794375" y="398.7775" style="stroke: #000000; stroke-width: 0.8"/>
      </g>
     </g>
     <g id="line2d_8">
      <g>
       <use xlink:href="#md997ba0fcd" x="319.794375" y="22.3575" style="stroke: #000000; stroke-width: 0.8"/>
      </g>
     </g>
     <g id="text_4">
      <!-- 0 -->
      <g transform="translate(314.704375 414.435) scale(0.16 -0.16)">
       <use xlink:href="#DejaVuSans-30"/>
      </g>
     </g>
    </g>
    <g id="xtick_5">
     <g id="line2d_9">
      <g>
       <use xlink:href="#m89bc731899" x="382.722997" y="398.7775" style="stroke: #000000; stroke-width: 0.8"/>
      </g>
     </g>
     <g id="line2d_10">
      <g>
       <use xlink:href="#md997ba0fcd" x="382.722997" y="22.3575" style="stroke: #000000; stroke-width: 0.8"/>
      </g>
     </g>
     <g id="text_5">
      <!-- 5 -->
      <g transform="translate(377.632997 414.435) scale(0.16 -0.16)">
       <use xlink:href="#DejaVuSans-35"/>
      </g>
     </g>
    </g>
    <g id="xtick_6">
     <g id="line2d_11">
      <g>
       <use xlink:href="#m89bc731899" x="445.651619" y="398.7775" style="stroke: #000000; stroke-width: 0.8"/>
      </g>
     </g>
     <g id="line2d_12">
      <g>
       <use xlink:href="#md997ba0fcd" x="445.651619" y="22.3575" style="stroke: #000000; stroke-width: 0.8"/>
      </g>
     </g>
     <g id="text_6">
      <!-- 10 -->
      <g transform="translate(435.471619 414.435) scale(0.16 -0.16)">
       <use xlink:href="#DejaVuSans-31"/>
       <use xlink:href="#DejaVuSans-30" x="63.623047"/>
      </g>
     </g>
    </g>
    <g id="xtick_7">
     <g id="line2d_13">
      <g>
       <use xlink:href="#m89bc731899" x="508.580241" y="398.7775" style="stroke: #000000; stroke-width: 0.8"/>
      </g>
     </g>
     <g id="line2d_14">
      <g>
       <use xlink:href="#md997ba0fcd" x="508.580241" y="22.3575" style="stroke: #000000; stroke-width: 0.8"/>
      </g>
     </g>
     <g id="text_7">
      <!-- 15 -->
      <g transform="translate(498.400241 414.435) scale(0.16 -0.16)">
       <use xlink:href="#DejaVuSans-31"/>
       <use xlink:href="#DejaVuSans-35" x="63.623047"/>
      </g>
     </g>
    </g>
   </g>
   <g id="matplotlib.axis_2">
    <g id="ytick_1">
     <g id="line2d_15">
      <defs>
       <path id="m36e319c1d8" d="M 0 0 
L 3.5 0 
" style="stroke: #000000; stroke-width: 0.8"/>
      </defs>
      <g>
       <use xlink:href="#m36e319c1d8" x="98.285625" y="389.894638" style="stroke: #000000; stroke-width: 0.8"/>
      </g>
     </g>
     <g id="line2d_16">
      <defs>
       <path id="m0b88c77c4e" d="M 0 0 
L -3.5 0 
" style="stroke: #000000; stroke-width: 0.8"/>
      </defs>
      <g>
       <use xlink:href="#m0b88c77c4e" x="541.303125" y="389.894638" style="stroke: #000000; stroke-width: 0.8"/>
      </g>
     </g>
     <g id="text_8">
      <!-- 0.00000 -->
      <g transform="translate(28.620625 395.973388) scale(0.16 -0.16)">
       <defs>
        <path id="DejaVuSans-2e" d="M 684 794 
L 1344 794 
L 1344 0 
L 684 0 
L 684 794 
z
" transform="scale(0.015625)"/>
       </defs>
       <use xlink:href="#DejaVuSans-30"/>
       <use xlink:href="#DejaVuSans-2e" x="63.623047"/>
       <use xlink:href="#DejaVuSans-30" x="95.410156"/>
       <use xlink:href="#DejaVuSans-30" x="159.033203"/>
       <use xlink:href="#DejaVuSans-30" x="222.65625"/>
       <use xlink:href="#DejaVuSans-30" x="286.279297"/>
       <use xlink:href="#DejaVuSans-30" x="349.902344"/>
      </g>
     </g>
    </g>
    <g id="ytick_2">
     <g id="line2d_17">
      <g>
       <use xlink:href="#m36e319c1d8" x="98.285625" y="335.950284" style="stroke: #000000; stroke-width: 0.8"/>
      </g>
     </g>
     <g id="line2d_18">
      <g>
       <use xlink:href="#m0b88c77c4e" x="541.303125" y="335.950284" style="stroke: #000000; stroke-width: 0.8"/>
      </g>
     </g>
     <g id="text_9">
      <!-- 0.00002 -->
      <g transform="translate(28.620625 342.029034) scale(0.16 -0.16)">
       <defs>
        <path id="DejaVuSans-32" d="M 1228 531 
L 3431 531 
L 3431 0 
L 469 0 
L 469 531 
Q 828 903 1448 1529 
Q 2069 2156 2228 2338 
Q 2531 2678 2651 2914 
Q 2772 3150 2772 3378 
Q 2772 3750 2511 3984 
Q 2250 4219 1831 4219 
Q 1534 4219 1204 4116 
Q 875 4013 500 3803 
L 500 4441 
Q 881 4594 1212 4672 
Q 1544 4750 1819 4750 
Q 2544 4750 2975 4387 
Q 3406 4025 3406 3419 
Q 3406 3131 3298 2873 
Q 3191 2616 2906 2266 
Q 2828 2175 2409 1742 
Q 1991 1309 1228 531 
z
" transform="scale(0.015625)"/>
       </defs>
       <use xlink:href="#DejaVuSans-30"/>
       <use xlink:href="#DejaVuSans-2e" x="63.623047"/>
       <use xlink:href="#DejaVuSans-30" x="95.410156"/>
       <use xlink:href="#DejaVuSans-30" x="159.033203"/>
       <use xlink:href="#DejaVuSans-30" x="222.65625"/>
       <use xlink:href="#DejaVuSans-30" x="286.279297"/>
       <use xlink:href="#DejaVuSans-32" x="349.902344"/>
      </g>
     </g>
    </g>
    <g id="ytick_3">
     <g id="line2d_19">
      <g>
       <use xlink:href="#m36e319c1d8" x="98.285625" y="282.00593" style="stroke: #000000; stroke-width: 0.8"/>
      </g>
     </g>
     <g id="line2d_20">
      <g>
       <use xlink:href="#m0b88c77c4e" x="541.303125" y="282.00593" style="stroke: #000000; stroke-width: 0.8"/>
      </g>
     </g>
     <g id="text_10">
      <!-- 0.00004 -->
      <g transform="translate(28.620625 288.08468) scale(0.16 -0.16)">
       <defs>
        <path id="DejaVuSans-34" d="M 2419 4116 
L 825 1625 
L 2419 1625 
L 2419 4116 
z
M 2253 4666 
L 3047 4666 
L 3047 1625 
L 3713 1625 
L 3713 1100 
L 3047 1100 
L 3047 0 
L 2419 0 
L 2419 1100 
L 313 1100 
L 313 1709 
L 2253 4666 
z
" transform="scale(0.015625)"/>
       </defs>
       <use xlink:href="#DejaVuSans-30"/>
       <use xlink:href="#DejaVuSans-2e" x="63.623047"/>
       <use xlink:href="#DejaVuSans-30" x="95.410156"/>
       <use xlink:href="#DejaVuSans-30" x="159.033203"/>
       <use xlink:href="#DejaVuSans-30" x="222.65625"/>
       <use xlink:href="#DejaVuSans-30" x="286.279297"/>
       <use xlink:href="#DejaVuSans-34" x="349.902344"/>
      </g>
     </g>
    </g>
    <g id="ytick_4">
     <g id="line2d_21">
      <g>
       <use xlink:href="#m36e319c1d8" x="98.285625" y="228.061577" style="stroke: #000000; stroke-width: 0.8"/>
      </g>
     </g>
     <g id="line2d_22">
      <g>
       <use xlink:href="#m0b88c77c4e" x="541.303125" y="228.061577" style="stroke: #000000; stroke-width: 0.8"/>
      </g>
     </g>
     <g id="text_11">
      <!-- 0.00006 -->
      <g transform="translate(28.620625 234.140327) scale(0.16 -0.16)">
       <defs>
        <path id="DejaVuSans-36" d="M 2113 2584 
Q 1688 2584 1439 2293 
Q 1191 2003 1191 1497 
Q 1191 994 1439 701 
Q 1688 409 2113 409 
Q 2538 409 2786 701 
Q 3034 994 3034 1497 
Q 3034 2003 2786 2293 
Q 2538 2584 2113 2584 
z
M 3366 4563 
L 3366 3988 
Q 3128 4100 2886 4159 
Q 2644 4219 2406 4219 
Q 1781 4219 1451 3797 
Q 1122 3375 1075 2522 
Q 1259 2794 1537 2939 
Q 1816 3084 2150 3084 
Q 2853 3084 3261 2657 
Q 3669 2231 3669 1497 
Q 3669 778 3244 343 
Q 2819 -91 2113 -91 
Q 1303 -91 875 529 
Q 447 1150 447 2328 
Q 447 3434 972 4092 
Q 1497 4750 2381 4750 
Q 2619 4750 2861 4703 
Q 3103 4656 3366 4563 
z
" transform="scale(0.015625)"/>
       </defs>
       <use xlink:href="#DejaVuSans-30"/>
       <use xlink:href="#DejaVuSans-2e" x="63.623047"/>
       <use xlink:href="#DejaVuSans-30" x="95.410156"/>
       <use xlink:href="#DejaVuSans-30" x="159.033203"/>
       <use xlink:href="#DejaVuSans-30" x="222.65625"/>
       <use xlink:href="#DejaVuSans-30" x="286.279297"/>
       <use xlink:href="#DejaVuSans-36" x="349.902344"/>
      </g>
     </g>
    </g>
    <g id="ytick_5">
     <g id="line2d_23">
      <g>
       <use xlink:href="#m36e319c1d8" x="98.285625" y="174.117223" style="stroke: #000000; stroke-width: 0.8"/>
      </g>
     </g>
     <g id="line2d_24">
      <g>
       <use xlink:href="#m0b88c77c4e" x="541.303125" y="174.117223" style="stroke: #000000; stroke-width: 0.8"/>
      </g>
     </g>
     <g id="text_12">
      <!-- 0.00008 -->
      <g transform="translate(28.620625 180.195973) scale(0.16 -0.16)">
       <defs>
        <path id="DejaVuSans-38" d="M 2034 2216 
Q 1584 2216 1326 1975 
Q 1069 1734 1069 1313 
Q 1069 891 1326 650 
Q 1584 409 2034 409 
Q 2484 409 2743 651 
Q 3003 894 3003 1313 
Q 3003 1734 2745 1975 
Q 2488 2216 2034 2216 
z
M 1403 2484 
Q 997 2584 770 2862 
Q 544 3141 544 3541 
Q 544 4100 942 4425 
Q 1341 4750 2034 4750 
Q 2731 4750 3128 4425 
Q 3525 4100 3525 3541 
Q 3525 3141 3298 2862 
Q 3072 2584 2669 2484 
Q 3125 2378 3379 2068 
Q 3634 1759 3634 1313 
Q 3634 634 3220 271 
Q 2806 -91 2034 -91 
Q 1263 -91 848 271 
Q 434 634 434 1313 
Q 434 1759 690 2068 
Q 947 2378 1403 2484 
z
M 1172 3481 
Q 1172 3119 1398 2916 
Q 1625 2713 2034 2713 
Q 2441 2713 2670 2916 
Q 2900 3119 2900 3481 
Q 2900 3844 2670 4047 
Q 2441 4250 2034 4250 
Q 1625 4250 1398 4047 
Q 1172 3844 1172 3481 
z
" transform="scale(0.015625)"/>
       </defs>
       <use xlink:href="#DejaVuSans-30"/>
       <use xlink:href="#DejaVuSans-2e" x="63.623047"/>
       <use xlink:href="#DejaVuSans-30" x="95.410156"/>
       <use xlink:href="#DejaVuSans-30" x="159.033203"/>
       <use xlink:href="#DejaVuSans-30" x="222.65625"/>
       <use xlink:href="#DejaVuSans-30" x="286.279297"/>
       <use xlink:href="#DejaVuSans-38" x="349.902344"/>
      </g>
     </g>
    </g>
    <g id="ytick_6">
     <g id="line2d_25">
      <g>
       <use xlink:href="#m36e319c1d8" x="98.285625" y="120.172869" style="stroke: #000000; stroke-width: 0.8"/>
      </g>
     </g>
     <g id="line2d_26">
      <g>
       <use xlink:href="#m0b88c77c4e" x="541.303125" y="120.172869" style="stroke: #000000; stroke-width: 0.8"/>
      </g>
     </g>
     <g id="text_13">
      <!-- 0.00010 -->
      <g transform="translate(28.620625 126.251619) scale(0.16 -0.16)">
       <use xlink:href="#DejaVuSans-30"/>
       <use xlink:href="#DejaVuSans-2e" x="63.623047"/>
       <use xlink:href="#DejaVuSans-30" x="95.410156"/>
       <use xlink:href="#DejaVuSans-30" x="159.033203"/>
       <use xlink:href="#DejaVuSans-30" x="222.65625"/>
       <use xlink:href="#DejaVuSans-31" x="286.279297"/>
       <use xlink:href="#DejaVuSans-30" x="349.902344"/>
      </g>
     </g>
    </g>
    <g id="ytick_7">
     <g id="line2d_27">
      <g>
       <use xlink:href="#m36e319c1d8" x="98.285625" y="66.228515" style="stroke: #000000; stroke-width: 0.8"/>
      </g>
     </g>
     <g id="line2d_28">
      <g>
       <use xlink:href="#m0b88c77c4e" x="541.303125" y="66.228515" style="stroke: #000000; stroke-width: 0.8"/>
      </g>
     </g>
     <g id="text_14">
      <!-- 0.00012 -->
      <g transform="translate(28.620625 72.307265) scale(0.16 -0.16)">
       <use xlink:href="#DejaVuSans-30"/>
       <use xlink:href="#DejaVuSans-2e" x="63.623047"/>
       <use xlink:href="#DejaVuSans-30" x="95.410156"/>
       <use xlink:href="#DejaVuSans-30" x="159.033203"/>
       <use xlink:href="#DejaVuSans-30" x="222.65625"/>
       <use xlink:href="#DejaVuSans-31" x="286.279297"/>
       <use xlink:href="#DejaVuSans-32" x="349.902344"/>
      </g>
     </g>
    </g>
    <g id="text_15">
     <!-- Amplitude (Arb. U.) -->
     <g transform="translate(20.877188 297.309219) rotate(-90) scale(0.18 -0.18)">
      <defs>
       <path id="DejaVuSans-41" d="M 2188 4044 
L 1331 1722 
L 3047 1722 
L 2188 4044 
z
M 1831 4666 
L 2547 4666 
L 4325 0 
L 3669 0 
L 3244 1197 
L 1141 1197 
L 716 0 
L 50 0 
L 1831 4666 
z
" transform="scale(0.015625)"/>
       <path id="DejaVuSans-6d" d="M 3328 2828 
Q 3544 3216 3844 3400 
Q 4144 3584 4550 3584 
Q 5097 3584 5394 3201 
Q 5691 2819 5691 2113 
L 5691 0 
L 5113 0 
L 5113 2094 
Q 5113 2597 4934 2840 
Q 4756 3084 4391 3084 
Q 3944 3084 3684 2787 
Q 3425 2491 3425 1978 
L 3425 0 
L 2847 0 
L 2847 2094 
Q 2847 2600 2669 2842 
Q 2491 3084 2119 3084 
Q 1678 3084 1418 2786 
Q 1159 2488 1159 1978 
L 1159 0 
L 581 0 
L 581 3500 
L 1159 3500 
L 1159 2956 
Q 1356 3278 1631 3431 
Q 1906 3584 2284 3584 
Q 2666 3584 2933 3390 
Q 3200 3197 3328 2828 
z
" transform="scale(0.015625)"/>
       <path id="DejaVuSans-70" d="M 1159 525 
L 1159 -1331 
L 581 -1331 
L 581 3500 
L 1159 3500 
L 1159 2969 
Q 1341 3281 1617 3432 
Q 1894 3584 2278 3584 
Q 2916 3584 3314 3078 
Q 3713 2572 3713 1747 
Q 3713 922 3314 415 
Q 2916 -91 2278 -91 
Q 1894 -91 1617 61 
Q 1341 213 1159 525 
z
M 3116 1747 
Q 3116 2381 2855 2742 
Q 2594 3103 2138 3103 
Q 1681 3103 1420 2742 
Q 1159 2381 1159 1747 
Q 1159 1113 1420 752 
Q 1681 391 2138 391 
Q 2594 391 2855 752 
Q 3116 1113 3116 1747 
z
" transform="scale(0.015625)"/>
       <path id="DejaVuSans-6c" d="M 603 4863 
L 1178 4863 
L 1178 0 
L 603 0 
L 603 4863 
z
" transform="scale(0.015625)"/>
       <path id="DejaVuSans-69" d="M 603 3500 
L 1178 3500 
L 1178 0 
L 603 0 
L 603 3500 
z
M 603 4863 
L 1178 4863 
L 1178 4134 
L 603 4134 
L 603 4863 
z
" transform="scale(0.015625)"/>
       <path id="DejaVuSans-74" d="M 1172 4494 
L 1172 3500 
L 2356 3500 
L 2356 3053 
L 1172 3053 
L 1172 1153 
Q 1172 725 1289 603 
Q 1406 481 1766 481 
L 2356 481 
L 2356 0 
L 1766 0 
Q 1100 0 847 248 
Q 594 497 594 1153 
L 594 3053 
L 172 3053 
L 172 3500 
L 594 3500 
L 594 4494 
L 1172 4494 
z
" transform="scale(0.015625)"/>
       <path id="DejaVuSans-75" d="M 544 1381 
L 544 3500 
L 1119 3500 
L 1119 1403 
Q 1119 906 1312 657 
Q 1506 409 1894 409 
Q 2359 409 2629 706 
Q 2900 1003 2900 1516 
L 2900 3500 
L 3475 3500 
L 3475 0 
L 2900 0 
L 2900 538 
Q 2691 219 2414 64 
Q 2138 -91 1772 -91 
Q 1169 -91 856 284 
Q 544 659 544 1381 
z
M 1991 3584 
L 1991 3584 
z
" transform="scale(0.015625)"/>
       <path id="DejaVuSans-64" d="M 2906 2969 
L 2906 4863 
L 3481 4863 
L 3481 0 
L 2906 0 
L 2906 525 
Q 2725 213 2448 61 
Q 2172 -91 1784 -91 
Q 1150 -91 751 415 
Q 353 922 353 1747 
Q 353 2572 751 3078 
Q 1150 3584 1784 3584 
Q 2172 3584 2448 3432 
Q 2725 3281 2906 2969 
z
M 947 1747 
Q 947 1113 1208 752 
Q 1469 391 1925 391 
Q 2381 391 2643 752 
Q 2906 1113 2906 1747 
Q 2906 2381 2643 2742 
Q 2381 3103 1925 3103 
Q 1469 3103 1208 2742 
Q 947 2381 947 1747 
z
" transform="scale(0.015625)"/>
       <path id="DejaVuSans-65" d="M 3597 1894 
L 3597 1613 
L 953 1613 
Q 991 1019 1311 708 
Q 1631 397 2203 397 
Q 2534 397 2845 478 
Q 3156 559 3463 722 
L 3463 178 
Q 3153 47 2828 -22 
Q 2503 -91 2169 -91 
Q 1331 -91 842 396 
Q 353 884 353 1716 
Q 353 2575 817 3079 
Q 1281 3584 2069 3584 
Q 2775 3584 3186 3129 
Q 3597 2675 3597 1894 
z
M 3022 2063 
Q 3016 2534 2758 2815 
Q 2500 3097 2075 3097 
Q 1594 3097 1305 2825 
Q 1016 2553 972 2059 
L 3022 2063 
z
" transform="scale(0.015625)"/>
       <path id="DejaVuSans-20" transform="scale(0.015625)"/>
       <path id="DejaVuSans-28" d="M 1984 4856 
Q 1566 4138 1362 3434 
Q 1159 2731 1159 2009 
Q 1159 1288 1364 580 
Q 1569 -128 1984 -844 
L 1484 -844 
Q 1016 -109 783 600 
Q 550 1309 550 2009 
Q 550 2706 781 3412 
Q 1013 4119 1484 4856 
L 1984 4856 
z
" transform="scale(0.015625)"/>
       <path id="DejaVuSans-72" d="M 2631 2963 
Q 2534 3019 2420 3045 
Q 2306 3072 2169 3072 
Q 1681 3072 1420 2755 
Q 1159 2438 1159 1844 
L 1159 0 
L 581 0 
L 581 3500 
L 1159 3500 
L 1159 2956 
Q 1341 3275 1631 3429 
Q 1922 3584 2338 3584 
Q 2397 3584 2469 3576 
Q 2541 3569 2628 3553 
L 2631 2963 
z
" transform="scale(0.015625)"/>
       <path id="DejaVuSans-62" d="M 3116 1747 
Q 3116 2381 2855 2742 
Q 2594 3103 2138 3103 
Q 1681 3103 1420 2742 
Q 1159 2381 1159 1747 
Q 1159 1113 1420 752 
Q 1681 391 2138 391 
Q 2594 391 2855 752 
Q 3116 1113 3116 1747 
z
M 1159 2969 
Q 1341 3281 1617 3432 
Q 1894 3584 2278 3584 
Q 2916 3584 3314 3078 
Q 3713 2572 3713 1747 
Q 3713 922 3314 415 
Q 2916 -91 2278 -91 
Q 1894 -91 1617 61 
Q 1341 213 1159 525 
L 1159 0 
L 581 0 
L 581 4863 
L 1159 4863 
L 1159 2969 
z
" transform="scale(0.015625)"/>
       <path id="DejaVuSans-55" d="M 556 4666 
L 1191 4666 
L 1191 1831 
Q 1191 1081 1462 751 
Q 1734 422 2344 422 
Q 2950 422 3222 751 
Q 3494 1081 3494 1831 
L 3494 4666 
L 4128 4666 
L 4128 1753 
Q 4128 841 3676 375 
Q 3225 -91 2344 -91 
Q 1459 -91 1007 375 
Q 556 841 556 1753 
L 556 4666 
z
" transform="scale(0.015625)"/>
       <path id="DejaVuSans-29" d="M 513 4856 
L 1013 4856 
Q 1481 4119 1714 3412 
Q 1947 2706 1947 2009 
Q 1947 1309 1714 600 
Q 1481 -109 1013 -844 
L 513 -844 
Q 928 -128 1133 580 
Q 1338 1288 1338 2009 
Q 1338 2731 1133 3434 
Q 928 4138 513 4856 
z
" transform="scale(0.015625)"/>
      </defs>
      <use xlink:href="#DejaVuSans-41"/>
      <use xlink:href="#DejaVuSans-6d" x="68.408203"/>
      <use xlink:href="#DejaVuSans-70" x="165.820312"/>
      <use xlink:href="#DejaVuSans-6c" x="229.296875"/>
      <use xlink:href="#DejaVuSans-69" x="257.080078"/>
      <use xlink:href="#DejaVuSans-74" x="284.863281"/>
      <use xlink:href="#DejaVuSans-75" x="324.072266"/>
      <use xlink:href="#DejaVuSans-64" x="387.451172"/>
      <use xlink:href="#DejaVuSans-65" x="450.927734"/>
      <use xlink:href="#DejaVuSans-20" x="512.451172"/>
      <use xlink:href="#DejaVuSans-28" x="544.238281"/>
      <use xlink:href="#DejaVuSans-41" x="583.251953"/>
      <use xlink:href="#DejaVuSans-72" x="651.660156"/>
      <use xlink:href="#DejaVuSans-62" x="692.773438"/>
      <use xlink:href="#DejaVuSans-2e" x="756.25"/>
      <use xlink:href="#DejaVuSans-20" x="788.037109"/>
      <use xlink:href="#DejaVuSans-55" x="819.824219"/>
      <use xlink:href="#DejaVuSans-2e" x="893.017578"/>
      <use xlink:href="#DejaVuSans-29" x="924.804688"/>
     </g>
    </g>
   </g>
   <g id="line2d_29">
    <path d="M 319.794375 136.676366 
L 328.184858 130.681998 
L 336.575341 142.097552 
L 344.965824 128.957131 
L 353.356308 144.030894 
L 361.746789 132.972256 
L 370.137273 133.062628 
L 378.527754 158.563638 
L 386.918241 191.043301 
L 395.308722 231.351803 
L 403.699203 235.588198 
L 412.08969 279.035085 
L 420.48017 290.975143 
L 437.261132 363.046074 
L 445.651619 380.458631 
L 462.432581 280.307511 
L 470.823068 247.933293 
L 479.213555 224.888911 
L 487.60403 195.313902 
L 495.994517 175.237355 
L 504.385004 164.076453 
L 512.775479 156.382514 
L 521.165966 136.255394 
L 512.775479 133.1112 
L 504.385004 122.803448 
L 495.994517 130.746465 
L 487.60403 130.348238 
L 479.213555 131.036972 
L 470.823068 128.478874 
L 462.432581 133.878315 
L 454.042106 122.026815 
L 445.651619 128.568422 
L 437.261132 135.30406 
L 428.870657 129.220143 
L 420.48017 143.098046 
L 412.08969 142.511381 
L 403.699203 147.558577 
L 395.308722 171.377168 
L 386.918241 171.769489 
L 378.527754 175.514988 
L 370.137273 177.366847 
L 361.746789 183.615004 
L 353.356308 180.688959 
L 344.965824 181.678503 
L 336.575341 180.060494 
L 328.184858 182.599399 
L 319.794375 174.481288 
L 311.403892 201.663401 
L 303.013409 184.819851 
L 294.622926 208.506819 
L 286.232442 200.576264 
L 277.841961 221.064265 
L 269.451477 229.546161 
L 261.060996 266.084211 
L 252.670509 300.353384 
L 244.280028 336.681424 
L 235.889547 381.6675 
L 227.49906 339.444744 
L 219.10858 282.218961 
L 202.327618 173.05572 
L 193.937131 145.326447 
L 185.546644 97.051201 
L 177.156169 51.914163 
L 168.765682 45.277199 
L 160.375195 47.388086 
L 151.98472 41.14562 
L 143.594233 46.140535 
L 135.203746 61.279157 
L 126.813271 66.692905 
L 118.422784 66.291577 
L 126.813271 66.575372 
L 135.203746 67.211826 
L 143.594233 56.298588 
L 151.98472 81.336845 
L 160.375195 67.291188 
L 168.765682 83.082298 
L 177.156169 75.45789 
L 185.546644 81.158945 
L 193.937131 84.024663 
L 202.327618 85.556264 
L 210.718093 92.379723 
L 219.10858 81.93238 
L 227.49906 78.880383 
L 235.889547 82.818402 
L 244.280028 82.879102 
L 252.670509 85.385783 
L 261.060996 91.639043 
L 269.451477 92.921467 
L 277.841961 102.931039 
L 286.232442 84.517757 
L 294.622926 85.582444 
L 303.013409 95.576119 
L 311.403892 91.339705 
L 319.794375 91.977139 
L 328.184858 109.135021 
L 336.575341 112.092818 
L 344.965824 123.472969 
L 353.356308 128.263138 
L 361.746789 114.69988 
L 370.137273 136.430232 
L 378.527754 177.419539 
L 386.918241 233.301825 
L 395.308722 249.846401 
L 403.699203 259.560815 
L 412.08969 285.312552 
L 420.48017 300.192627 
L 428.870657 347.179865 
L 437.261132 381.214407 
L 445.651619 343.231907 
L 454.042106 289.223028 
L 462.432581 263.858675 
L 470.823068 227.417248 
L 479.213555 207.132393 
L 487.60403 190.239075 
L 495.994517 168.456678 
L 504.385004 157.950362 
L 512.775479 138.86593 
L 521.165966 122.606101 
L 512.775479 127.684578 
L 504.385004 125.815959 
L 495.994517 117.347448 
L 487.60403 126.36049 
L 479.213555 98.703102 
L 470.823068 117.375531 
L 462.432581 129.469693 
L 454.042106 127.938504 
L 445.651619 134.12602 
L 437.261132 131.506006 
L 428.870657 131.885805 
L 420.48017 156.703282 
L 412.08969 154.262795 
L 403.699203 166.471174 
L 395.308722 171.028376 
L 386.918241 165.402503 
L 378.527754 169.479289 
L 370.137273 166.751299 
L 361.746789 168.248419 
L 353.356308 177.132153 
L 344.965824 180.785102 
L 336.575341 176.067741 
L 328.184858 177.602718 
L 319.794375 178.297182 
L 311.403892 179.771753 
L 303.013409 183.620224 
L 294.622926 192.471499 
L 286.232442 203.59739 
L 277.841961 226.541146 
L 269.451477 227.278451 
L 252.670509 310.920346 
L 244.280028 332.881961 
L 235.889547 381.546951 
L 227.49906 354.351126 
L 219.10858 270.257541 
L 202.327618 179.84517 
L 193.937131 142.857485 
L 185.546644 97.131035 
L 177.156169 61.186469 
L 168.765682 47.764765 
L 160.375195 39.4675 
L 151.98472 50.713202 
L 143.594233 49.545563 
L 135.203746 59.192311 
L 126.813271 48.00411 
L 118.422784 61.614036 
L 126.813271 61.231646 
L 135.203746 67.253509 
L 143.594233 59.842403 
L 151.98472 78.771662 
L 160.375195 66.995148 
L 168.765682 63.323026 
L 177.156169 72.856244 
L 185.546644 74.221073 
L 193.937131 61.415943 
L 202.327618 74.714402 
L 210.718093 82.905831 
L 219.10858 76.29591 
L 227.49906 72.321585 
L 235.889547 80.53984 
L 244.280028 91.267544 
L 252.670509 92.040881 
L 261.060996 83.91757 
L 269.451477 88.682737 
L 277.841961 91.560445 
L 286.232442 78.95953 
L 294.622926 103.101049 
L 303.013409 105.423374 
L 311.403892 97.414241 
L 311.403892 97.414241 
" clip-path="url(#p6db7cfe5b1)" style="fill: none; stroke: #1f77b4; stroke-width: 1.5; stroke-linecap: square"/>
   </g>
   <g id="patch_3">
    <path d="M 98.285625 398.7775 
L 98.285625 22.3575 
" style="fill: none; stroke: #000000; stroke-width: 0.8; stroke-linejoin: miter; stroke-linecap: square"/>
   </g>
   <g id="patch_4">
    <path d="M 541.303125 398.7775 
L 541.303125 22.3575 
" style="fill: none; stroke: #000000; stroke-width: 0.8; stroke-linejoin: miter; stroke-linecap: square"/>
   </g>
   <g id="patch_5">
    <path d="M 98.285625 398.7775 
L 541.303125 398.7775 
" style="fill: none; stroke: #000000; stroke-width: 0.8; stroke-linejoin: miter; stroke-linecap: square"/>
   </g>
   <g id="patch_6">
    <path d="M 98.285625 22.3575 
L 541.303125 22.3575 
" style="fill: none; stroke: #000000; stroke-width: 0.8; stroke-linejoin: miter; stroke-linecap: square"/>
   </g>
   <g id="text_16">
    <!-- Amplitude -->
    <g transform="translate(289.047188 16.3575) scale(0.12 -0.12)">
     <use xlink:href="#DejaVuSans-41"/>
     <use xlink:href="#DejaVuSans-6d" x="68.408203"/>
     <use xlink:href="#DejaVuSans-70" x="165.820312"/>
     <use xlink:href="#DejaVuSans-6c" x="229.296875"/>
     <use xlink:href="#DejaVuSans-69" x="257.080078"/>
     <use xlink:href="#DejaVuSans-74" x="284.863281"/>
     <use xlink:href="#DejaVuSans-75" x="324.072266"/>
     <use xlink:href="#DejaVuSans-64" x="387.451172"/>
     <use xlink:href="#DejaVuSans-65" x="450.927734"/>
    </g>
   </g>
  </g>
  <g id="axes_2">
   <g id="patch_7">
    <path d="M 632.953125 398.7775 
L 1075.970625 398.7775 
L 1075.970625 22.3575 
L 632.953125 22.3575 
z
" style="fill: #ffffff"/>
   </g>
   <g id="matplotlib.axis_3">
    <g id="xtick_8">
     <g id="line2d_30">
      <g>
       <use xlink:href="#m89bc731899" x="665.676009" y="398.7775" style="stroke: #000000; stroke-width: 0.8"/>
      </g>
     </g>
     <g id="line2d_31">
      <g>
       <use xlink:href="#md997ba0fcd" x="665.676009" y="22.3575" style="stroke: #000000; stroke-width: 0.8"/>
      </g>
     </g>
     <g id="text_17">
      <!-- −15 -->
      <g transform="translate(648.792259 414.435) scale(0.16 -0.16)">
       <use xlink:href="#DejaVuSans-2212"/>
       <use xlink:href="#DejaVuSans-31" x="83.789062"/>
       <use xlink:href="#DejaVuSans-35" x="147.412109"/>
      </g>
     </g>
    </g>
    <g id="xtick_9">
     <g id="line2d_32">
      <g>
       <use xlink:href="#m89bc731899" x="728.604631" y="398.7775" style="stroke: #000000; stroke-width: 0.8"/>
      </g>
     </g>
     <g id="line2d_33">
      <g>
       <use xlink:href="#md997ba0fcd" x="728.604631" y="22.3575" style="stroke: #000000; stroke-width: 0.8"/>
      </g>
     </g>
     <g id="text_18">
      <!-- −10 -->
      <g transform="translate(711.720881 414.435) scale(0.16 -0.16)">
       <use xlink:href="#DejaVuSans-2212"/>
       <use xlink:href="#DejaVuSans-31" x="83.789062"/>
       <use xlink:href="#DejaVuSans-30" x="147.412109"/>
      </g>
     </g>
    </g>
    <g id="xtick_10">
     <g id="line2d_34">
      <g>
       <use xlink:href="#m89bc731899" x="791.533253" y="398.7775" style="stroke: #000000; stroke-width: 0.8"/>
      </g>
     </g>
     <g id="line2d_35">
      <g>
       <use xlink:href="#md997ba0fcd" x="791.533253" y="22.3575" style="stroke: #000000; stroke-width: 0.8"/>
      </g>
     </g>
     <g id="text_19">
      <!-- −5 -->
      <g transform="translate(779.739503 414.435) scale(0.16 -0.16)">
       <use xlink:href="#DejaVuSans-2212"/>
       <use xlink:href="#DejaVuSans-35" x="83.789062"/>
      </g>
     </g>
    </g>
    <g id="xtick_11">
     <g id="line2d_36">
      <g>
       <use xlink:href="#m89bc731899" x="854.461875" y="398.7775" style="stroke: #000000; stroke-width: 0.8"/>
      </g>
     </g>
     <g id="line2d_37">
      <g>
       <use xlink:href="#md997ba0fcd" x="854.461875" y="22.3575" style="stroke: #000000; stroke-width: 0.8"/>
      </g>
     </g>
     <g id="text_20">
      <!-- 0 -->
      <g transform="translate(849.371875 414.435) scale(0.16 -0.16)">
       <use xlink:href="#DejaVuSans-30"/>
      </g>
     </g>
    </g>
    <g id="xtick_12">
     <g id="line2d_38">
      <g>
       <use xlink:href="#m89bc731899" x="917.390497" y="398.7775" style="stroke: #000000; stroke-width: 0.8"/>
      </g>
     </g>
     <g id="line2d_39">
      <g>
       <use xlink:href="#md997ba0fcd" x="917.390497" y="22.3575" style="stroke: #000000; stroke-width: 0.8"/>
      </g>
     </g>
     <g id="text_21">
      <!-- 5 -->
      <g transform="translate(912.300497 414.435) scale(0.16 -0.16)">
       <use xlink:href="#DejaVuSans-35"/>
      </g>
     </g>
    </g>
    <g id="xtick_13">
     <g id="line2d_40">
      <g>
       <use xlink:href="#m89bc731899" x="980.319119" y="398.7775" style="stroke: #000000; stroke-width: 0.8"/>
      </g>
     </g>
     <g id="line2d_41">
      <g>
       <use xlink:href="#md997ba0fcd" x="980.319119" y="22.3575" style="stroke: #000000; stroke-width: 0.8"/>
      </g>
     </g>
     <g id="text_22">
      <!-- 10 -->
      <g transform="translate(970.139119 414.435) scale(0.16 -0.16)">
       <use xlink:href="#DejaVuSans-31"/>
       <use xlink:href="#DejaVuSans-30" x="63.623047"/>
      </g>
     </g>
    </g>
    <g id="xtick_14">
     <g id="line2d_42">
      <g>
       <use xlink:href="#m89bc731899" x="1043.247741" y="398.7775" style="stroke: #000000; stroke-width: 0.8"/>
      </g>
     </g>
     <g id="line2d_43">
      <g>
       <use xlink:href="#md997ba0fcd" x="1043.247741" y="22.3575" style="stroke: #000000; stroke-width: 0.8"/>
      </g>
     </g>
     <g id="text_23">
      <!-- 15 -->
      <g transform="translate(1033.067741 414.435) scale(0.16 -0.16)">
       <use xlink:href="#DejaVuSans-31"/>
       <use xlink:href="#DejaVuSans-35" x="63.623047"/>
      </g>
     </g>
    </g>
   </g>
   <g id="matplotlib.axis_4">
    <g id="ytick_8">
     <g id="line2d_44">
      <g>
       <use xlink:href="#m36e319c1d8" x="632.953125" y="373.464149" style="stroke: #000000; stroke-width: 0.8"/>
      </g>
     </g>
     <g id="line2d_45">
      <g>
       <use xlink:href="#m0b88c77c4e" x="1075.970625" y="373.464149" style="stroke: #000000; stroke-width: 0.8"/>
      </g>
     </g>
     <g id="text_24">
      <!-- 1.3100 -->
      <g transform="translate(573.468125 379.542899) scale(0.16 -0.16)">
       <defs>
        <path id="DejaVuSans-33" d="M 2597 2516 
Q 3050 2419 3304 2112 
Q 3559 1806 3559 1356 
Q 3559 666 3084 287 
Q 2609 -91 1734 -91 
Q 1441 -91 1130 -33 
Q 819 25 488 141 
L 488 750 
Q 750 597 1062 519 
Q 1375 441 1716 441 
Q 2309 441 2620 675 
Q 2931 909 2931 1356 
Q 2931 1769 2642 2001 
Q 2353 2234 1838 2234 
L 1294 2234 
L 1294 2753 
L 1863 2753 
Q 2328 2753 2575 2939 
Q 2822 3125 2822 3475 
Q 2822 3834 2567 4026 
Q 2313 4219 1838 4219 
Q 1578 4219 1281 4162 
Q 984 4106 628 3988 
L 628 4550 
Q 988 4650 1302 4700 
Q 1616 4750 1894 4750 
Q 2613 4750 3031 4423 
Q 3450 4097 3450 3541 
Q 3450 3153 3228 2886 
Q 3006 2619 2597 2516 
z
" transform="scale(0.015625)"/>
       </defs>
       <use xlink:href="#DejaVuSans-31"/>
       <use xlink:href="#DejaVuSans-2e" x="63.623047"/>
       <use xlink:href="#DejaVuSans-33" x="95.410156"/>
       <use xlink:href="#DejaVuSans-31" x="159.033203"/>
       <use xlink:href="#DejaVuSans-30" x="222.65625"/>
       <use xlink:href="#DejaVuSans-30" x="286.279297"/>
      </g>
     </g>
    </g>
    <g id="ytick_9">
     <g id="line2d_46">
      <g>
       <use xlink:href="#m36e319c1d8" x="632.953125" y="325.742502" style="stroke: #000000; stroke-width: 0.8"/>
      </g>
     </g>
     <g id="line2d_47">
      <g>
       <use xlink:href="#m0b88c77c4e" x="1075.970625" y="325.742502" style="stroke: #000000; stroke-width: 0.8"/>
      </g>
     </g>
     <g id="text_25">
      <!-- 1.3125 -->
      <g transform="translate(573.468125 331.821252) scale(0.16 -0.16)">
       <use xlink:href="#DejaVuSans-31"/>
       <use xlink:href="#DejaVuSans-2e" x="63.623047"/>
       <use xlink:href="#DejaVuSans-33" x="95.410156"/>
       <use xlink:href="#DejaVuSans-31" x="159.033203"/>
       <use xlink:href="#DejaVuSans-32" x="222.65625"/>
       <use xlink:href="#DejaVuSans-35" x="286.279297"/>
      </g>
     </g>
    </g>
    <g id="ytick_10">
     <g id="line2d_48">
      <g>
       <use xlink:href="#m36e319c1d8" x="632.953125" y="278.020855" style="stroke: #000000; stroke-width: 0.8"/>
      </g>
     </g>
     <g id="line2d_49">
      <g>
       <use xlink:href="#m0b88c77c4e" x="1075.970625" y="278.020855" style="stroke: #000000; stroke-width: 0.8"/>
      </g>
     </g>
     <g id="text_26">
      <!-- 1.3150 -->
      <g transform="translate(573.468125 284.099605) scale(0.16 -0.16)">
       <use xlink:href="#DejaVuSans-31"/>
       <use xlink:href="#DejaVuSans-2e" x="63.623047"/>
       <use xlink:href="#DejaVuSans-33" x="95.410156"/>
       <use xlink:href="#DejaVuSans-31" x="159.033203"/>
       <use xlink:href="#DejaVuSans-35" x="222.65625"/>
       <use xlink:href="#DejaVuSans-30" x="286.279297"/>
      </g>
     </g>
    </g>
    <g id="ytick_11">
     <g id="line2d_50">
      <g>
       <use xlink:href="#m36e319c1d8" x="632.953125" y="230.299208" style="stroke: #000000; stroke-width: 0.8"/>
      </g>
     </g>
     <g id="line2d_51">
      <g>
       <use xlink:href="#m0b88c77c4e" x="1075.970625" y="230.299208" style="stroke: #000000; stroke-width: 0.8"/>
      </g>
     </g>
     <g id="text_27">
      <!-- 1.3175 -->
      <g transform="translate(573.468125 236.377958) scale(0.16 -0.16)">
       <defs>
        <path id="DejaVuSans-37" d="M 525 4666 
L 3525 4666 
L 3525 4397 
L 1831 0 
L 1172 0 
L 2766 4134 
L 525 4134 
L 525 4666 
z
" transform="scale(0.015625)"/>
       </defs>
       <use xlink:href="#DejaVuSans-31"/>
       <use xlink:href="#DejaVuSans-2e" x="63.623047"/>
       <use xlink:href="#DejaVuSans-33" x="95.410156"/>
       <use xlink:href="#DejaVuSans-31" x="159.033203"/>
       <use xlink:href="#DejaVuSans-37" x="222.65625"/>
       <use xlink:href="#DejaVuSans-35" x="286.279297"/>
      </g>
     </g>
    </g>
    <g id="ytick_12">
     <g id="line2d_52">
      <g>
       <use xlink:href="#m36e319c1d8" x="632.953125" y="182.577561" style="stroke: #000000; stroke-width: 0.8"/>
      </g>
     </g>
     <g id="line2d_53">
      <g>
       <use xlink:href="#m0b88c77c4e" x="1075.970625" y="182.577561" style="stroke: #000000; stroke-width: 0.8"/>
      </g>
     </g>
     <g id="text_28">
      <!-- 1.3200 -->
      <g transform="translate(573.468125 188.656311) scale(0.16 -0.16)">
       <use xlink:href="#DejaVuSans-31"/>
       <use xlink:href="#DejaVuSans-2e" x="63.623047"/>
       <use xlink:href="#DejaVuSans-33" x="95.410156"/>
       <use xlink:href="#DejaVuSans-32" x="159.033203"/>
       <use xlink:href="#DejaVuSans-30" x="222.65625"/>
       <use xlink:href="#DejaVuSans-30" x="286.279297"/>
      </g>
     </g>
    </g>
    <g id="ytick_13">
     <g id="line2d_54">
      <g>
       <use xlink:href="#m36e319c1d8" x="632.953125" y="134.855914" style="stroke: #000000; stroke-width: 0.8"/>
      </g>
     </g>
     <g id="line2d_55">
      <g>
       <use xlink:href="#m0b88c77c4e" x="1075.970625" y="134.855914" style="stroke: #000000; stroke-width: 0.8"/>
      </g>
     </g>
     <g id="text_29">
      <!-- 1.3225 -->
      <g transform="translate(573.468125 140.934664) scale(0.16 -0.16)">
       <use xlink:href="#DejaVuSans-31"/>
       <use xlink:href="#DejaVuSans-2e" x="63.623047"/>
       <use xlink:href="#DejaVuSans-33" x="95.410156"/>
       <use xlink:href="#DejaVuSans-32" x="159.033203"/>
       <use xlink:href="#DejaVuSans-32" x="222.65625"/>
       <use xlink:href="#DejaVuSans-35" x="286.279297"/>
      </g>
     </g>
    </g>
    <g id="ytick_14">
     <g id="line2d_56">
      <g>
       <use xlink:href="#m36e319c1d8" x="632.953125" y="87.134267" style="stroke: #000000; stroke-width: 0.8"/>
      </g>
     </g>
     <g id="line2d_57">
      <g>
       <use xlink:href="#m0b88c77c4e" x="1075.970625" y="87.134267" style="stroke: #000000; stroke-width: 0.8"/>
      </g>
     </g>
     <g id="text_30">
      <!-- 1.3250 -->
      <g transform="translate(573.468125 93.213017) scale(0.16 -0.16)">
       <use xlink:href="#DejaVuSans-31"/>
       <use xlink:href="#DejaVuSans-2e" x="63.623047"/>
       <use xlink:href="#DejaVuSans-33" x="95.410156"/>
       <use xlink:href="#DejaVuSans-32" x="159.033203"/>
       <use xlink:href="#DejaVuSans-35" x="222.65625"/>
       <use xlink:href="#DejaVuSans-30" x="286.279297"/>
      </g>
     </g>
    </g>
    <g id="ytick_15">
     <g id="line2d_58">
      <g>
       <use xlink:href="#m36e319c1d8" x="632.953125" y="39.41262" style="stroke: #000000; stroke-width: 0.8"/>
      </g>
     </g>
     <g id="line2d_59">
      <g>
       <use xlink:href="#m0b88c77c4e" x="1075.970625" y="39.41262" style="stroke: #000000; stroke-width: 0.8"/>
      </g>
     </g>
     <g id="text_31">
      <!-- 1.3275 -->
      <g transform="translate(573.468125 45.49137) scale(0.16 -0.16)">
       <use xlink:href="#DejaVuSans-31"/>
       <use xlink:href="#DejaVuSans-2e" x="63.623047"/>
       <use xlink:href="#DejaVuSans-33" x="95.410156"/>
       <use xlink:href="#DejaVuSans-32" x="159.033203"/>
       <use xlink:href="#DejaVuSans-37" x="222.65625"/>
       <use xlink:href="#DejaVuSans-35" x="286.279297"/>
      </g>
     </g>
    </g>
    <g id="text_32">
     <!-- Resonance Frequency (Hz) -->
     <g transform="translate(565.724687 330.287187) rotate(-90) scale(0.18 -0.18)">
      <defs>
       <path id="DejaVuSans-52" d="M 2841 2188 
Q 3044 2119 3236 1894 
Q 3428 1669 3622 1275 
L 4263 0 
L 3584 0 
L 2988 1197 
Q 2756 1666 2539 1819 
Q 2322 1972 1947 1972 
L 1259 1972 
L 1259 0 
L 628 0 
L 628 4666 
L 2053 4666 
Q 2853 4666 3247 4331 
Q 3641 3997 3641 3322 
Q 3641 2881 3436 2590 
Q 3231 2300 2841 2188 
z
M 1259 4147 
L 1259 2491 
L 2053 2491 
Q 2509 2491 2742 2702 
Q 2975 2913 2975 3322 
Q 2975 3731 2742 3939 
Q 2509 4147 2053 4147 
L 1259 4147 
z
" transform="scale(0.015625)"/>
       <path id="DejaVuSans-73" d="M 2834 3397 
L 2834 2853 
Q 2591 2978 2328 3040 
Q 2066 3103 1784 3103 
Q 1356 3103 1142 2972 
Q 928 2841 928 2578 
Q 928 2378 1081 2264 
Q 1234 2150 1697 2047 
L 1894 2003 
Q 2506 1872 2764 1633 
Q 3022 1394 3022 966 
Q 3022 478 2636 193 
Q 2250 -91 1575 -91 
Q 1294 -91 989 -36 
Q 684 19 347 128 
L 347 722 
Q 666 556 975 473 
Q 1284 391 1588 391 
Q 1994 391 2212 530 
Q 2431 669 2431 922 
Q 2431 1156 2273 1281 
Q 2116 1406 1581 1522 
L 1381 1569 
Q 847 1681 609 1914 
Q 372 2147 372 2553 
Q 372 3047 722 3315 
Q 1072 3584 1716 3584 
Q 2034 3584 2315 3537 
Q 2597 3491 2834 3397 
z
" transform="scale(0.015625)"/>
       <path id="DejaVuSans-6f" d="M 1959 3097 
Q 1497 3097 1228 2736 
Q 959 2375 959 1747 
Q 959 1119 1226 758 
Q 1494 397 1959 397 
Q 2419 397 2687 759 
Q 2956 1122 2956 1747 
Q 2956 2369 2687 2733 
Q 2419 3097 1959 3097 
z
M 1959 3584 
Q 2709 3584 3137 3096 
Q 3566 2609 3566 1747 
Q 3566 888 3137 398 
Q 2709 -91 1959 -91 
Q 1206 -91 779 398 
Q 353 888 353 1747 
Q 353 2609 779 3096 
Q 1206 3584 1959 3584 
z
" transform="scale(0.015625)"/>
       <path id="DejaVuSans-6e" d="M 3513 2113 
L 3513 0 
L 2938 0 
L 2938 2094 
Q 2938 2591 2744 2837 
Q 2550 3084 2163 3084 
Q 1697 3084 1428 2787 
Q 1159 2491 1159 1978 
L 1159 0 
L 581 0 
L 581 3500 
L 1159 3500 
L 1159 2956 
Q 1366 3272 1645 3428 
Q 1925 3584 2291 3584 
Q 2894 3584 3203 3211 
Q 3513 2838 3513 2113 
z
" transform="scale(0.015625)"/>
       <path id="DejaVuSans-61" d="M 2194 1759 
Q 1497 1759 1228 1600 
Q 959 1441 959 1056 
Q 959 750 1161 570 
Q 1363 391 1709 391 
Q 2188 391 2477 730 
Q 2766 1069 2766 1631 
L 2766 1759 
L 2194 1759 
z
M 3341 1997 
L 3341 0 
L 2766 0 
L 2766 531 
Q 2569 213 2275 61 
Q 1981 -91 1556 -91 
Q 1019 -91 701 211 
Q 384 513 384 1019 
Q 384 1609 779 1909 
Q 1175 2209 1959 2209 
L 2766 2209 
L 2766 2266 
Q 2766 2663 2505 2880 
Q 2244 3097 1772 3097 
Q 1472 3097 1187 3025 
Q 903 2953 641 2809 
L 641 3341 
Q 956 3463 1253 3523 
Q 1550 3584 1831 3584 
Q 2591 3584 2966 3190 
Q 3341 2797 3341 1997 
z
" transform="scale(0.015625)"/>
       <path id="DejaVuSans-63" d="M 3122 3366 
L 3122 2828 
Q 2878 2963 2633 3030 
Q 2388 3097 2138 3097 
Q 1578 3097 1268 2742 
Q 959 2388 959 1747 
Q 959 1106 1268 751 
Q 1578 397 2138 397 
Q 2388 397 2633 464 
Q 2878 531 3122 666 
L 3122 134 
Q 2881 22 2623 -34 
Q 2366 -91 2075 -91 
Q 1284 -91 818 406 
Q 353 903 353 1747 
Q 353 2603 823 3093 
Q 1294 3584 2113 3584 
Q 2378 3584 2631 3529 
Q 2884 3475 3122 3366 
z
" transform="scale(0.015625)"/>
       <path id="DejaVuSans-46" d="M 628 4666 
L 3309 4666 
L 3309 4134 
L 1259 4134 
L 1259 2759 
L 3109 2759 
L 3109 2228 
L 1259 2228 
L 1259 0 
L 628 0 
L 628 4666 
z
" transform="scale(0.015625)"/>
       <path id="DejaVuSans-71" d="M 947 1747 
Q 947 1113 1208 752 
Q 1469 391 1925 391 
Q 2381 391 2643 752 
Q 2906 1113 2906 1747 
Q 2906 2381 2643 2742 
Q 2381 3103 1925 3103 
Q 1469 3103 1208 2742 
Q 947 2381 947 1747 
z
M 2906 525 
Q 2725 213 2448 61 
Q 2172 -91 1784 -91 
Q 1150 -91 751 415 
Q 353 922 353 1747 
Q 353 2572 751 3078 
Q 1150 3584 1784 3584 
Q 2172 3584 2448 3432 
Q 2725 3281 2906 2969 
L 2906 3500 
L 3481 3500 
L 3481 -1331 
L 2906 -1331 
L 2906 525 
z
" transform="scale(0.015625)"/>
       <path id="DejaVuSans-79" d="M 2059 -325 
Q 1816 -950 1584 -1140 
Q 1353 -1331 966 -1331 
L 506 -1331 
L 506 -850 
L 844 -850 
Q 1081 -850 1212 -737 
Q 1344 -625 1503 -206 
L 1606 56 
L 191 3500 
L 800 3500 
L 1894 763 
L 2988 3500 
L 3597 3500 
L 2059 -325 
z
" transform="scale(0.015625)"/>
       <path id="DejaVuSans-48" d="M 628 4666 
L 1259 4666 
L 1259 2753 
L 3553 2753 
L 3553 4666 
L 4184 4666 
L 4184 0 
L 3553 0 
L 3553 2222 
L 1259 2222 
L 1259 0 
L 628 0 
L 628 4666 
z
" transform="scale(0.015625)"/>
       <path id="DejaVuSans-7a" d="M 353 3500 
L 3084 3500 
L 3084 2975 
L 922 459 
L 3084 459 
L 3084 0 
L 275 0 
L 275 525 
L 2438 3041 
L 353 3041 
L 353 3500 
z
" transform="scale(0.015625)"/>
      </defs>
      <use xlink:href="#DejaVuSans-52"/>
      <use xlink:href="#DejaVuSans-65" x="64.982422"/>
      <use xlink:href="#DejaVuSans-73" x="126.505859"/>
      <use xlink:href="#DejaVuSans-6f" x="178.605469"/>
      <use xlink:href="#DejaVuSans-6e" x="239.787109"/>
      <use xlink:href="#DejaVuSans-61" x="303.166016"/>
      <use xlink:href="#DejaVuSans-6e" x="364.445312"/>
      <use xlink:href="#DejaVuSans-63" x="427.824219"/>
      <use xlink:href="#DejaVuSans-65" x="482.804688"/>
      <use xlink:href="#DejaVuSans-20" x="544.328125"/>
      <use xlink:href="#DejaVuSans-46" x="576.115234"/>
      <use xlink:href="#DejaVuSans-72" x="626.384766"/>
      <use xlink:href="#DejaVuSans-65" x="665.248047"/>
      <use xlink:href="#DejaVuSans-71" x="726.771484"/>
      <use xlink:href="#DejaVuSans-75" x="790.248047"/>
      <use xlink:href="#DejaVuSans-65" x="853.626953"/>
      <use xlink:href="#DejaVuSans-6e" x="915.150391"/>
      <use xlink:href="#DejaVuSans-63" x="978.529297"/>
      <use xlink:href="#DejaVuSans-79" x="1033.509766"/>
      <use xlink:href="#DejaVuSans-20" x="1092.689453"/>
      <use xlink:href="#DejaVuSans-28" x="1124.476562"/>
      <use xlink:href="#DejaVuSans-48" x="1163.490234"/>
      <use xlink:href="#DejaVuSans-7a" x="1238.685547"/>
      <use xlink:href="#DejaVuSans-29" x="1291.175781"/>
     </g>
    </g>
    <g id="text_33">
     <!-- 1e6 -->
     <g transform="translate(632.953125 19.3575) scale(0.16 -0.16)">
      <use xlink:href="#DejaVuSans-31"/>
      <use xlink:href="#DejaVuSans-65" x="63.623047"/>
      <use xlink:href="#DejaVuSans-36" x="125.146484"/>
     </g>
    </g>
   </g>
   <g id="line2d_60">
    <path d="M 854.461875 67.379891 
L 871.242841 63.278216 
L 879.633324 63.049152 
L 888.023808 67.150827 
L 896.414289 66.616345 
L 904.804773 68.942775 
L 913.195254 71.822777 
L 921.585741 75.022513 
L 929.976222 85.277895 
L 938.366703 79.949773 
L 946.75719 84.165981 
L 955.14767 78.34394 
L 963.538157 97.353858 
L 971.928632 66.01028 
L 980.319119 381.6675 
L 988.709606 71.529289 
L 997.100081 75.993649 
L 1005.490568 67.23434 
L 1013.881055 66.914605 
L 1022.27153 65.172765 
L 1030.662017 60.939855 
L 1039.052504 58.269829 
L 1047.442979 57.744891 
L 1055.833466 57.835562 
L 1047.442979 51.328715 
L 1039.052504 54.461641 
L 1030.662017 53.77445 
L 1022.27153 54.681161 
L 1013.881055 56.258361 
L 1005.490568 50.75367 
L 997.100081 52.590953 
L 988.709606 51.269063 
L 980.319119 51.278608 
L 971.928632 50.312244 
L 963.538157 52.299851 
L 955.14767 50.118972 
L 946.75719 51.388367 
L 938.366703 57.945322 
L 929.976222 58.863963 
L 921.585741 61.903832 
L 913.195254 58.847261 
L 904.804773 56.790458 
L 896.414289 57.444244 
L 888.023808 55.480499 
L 879.633324 55.41846 
L 871.242841 53.826944 
L 862.852358 54.30416 
L 854.461875 56.048386 
L 846.071392 54.511749 
L 837.680909 55.282454 
L 829.290426 59.104958 
L 820.899942 63.998813 
L 812.509461 72.323854 
L 804.118977 76.172605 
L 787.338009 89.331849 
L 778.947528 102.96831 
L 770.557047 381.6675 
L 762.16656 117.198905 
L 753.77608 74.297144 
L 745.385593 69.040605 
L 736.995118 69.577473 
L 728.604631 60.636823 
L 720.214144 63.500121 
L 711.823669 57.475263 
L 703.433182 56.912148 
L 695.042695 54.619123 
L 686.65222 55.103498 
L 678.261733 53.528683 
L 669.871246 56.878743 
L 661.480771 62.731803 
L 653.090284 60.877817 
L 661.480771 62.235498 
L 669.871246 62.316625 
L 678.261733 61.297767 
L 686.65222 61.820319 
L 695.042695 63.466716 
L 703.433182 60.240733 
L 711.823669 61.791686 
L 720.214144 61.324014 
L 728.604631 60.629664 
L 736.995118 60.436392 
L 745.385593 63.010975 
L 753.77608 60.811007 
L 762.16656 58.253126 
L 770.557047 58.663532 
L 778.947528 58.212563 
L 787.338009 56.940781 
L 795.728496 55.370739 
L 804.118977 56.983731 
L 812.509461 54.895908 
L 820.899942 57.346415 
L 837.680909 56.022139 
L 846.071392 53.917615 
L 854.461875 55.072479 
L 862.852358 51.128284 
L 871.242841 53.50005 
L 879.633324 51.858426 
L 888.023808 54.192014 
L 896.414289 58.035993 
L 904.804773 61.514901 
L 913.195254 68.288989 
L 921.585741 75.981718 
L 929.976222 79.288828 
L 938.366703 80.190767 
L 946.75719 81.371878 
L 955.14767 75.926838 
L 963.538157 73.225793 
L 971.928632 381.6675 
L 980.319119 73.965479 
L 988.709606 62.693626 
L 997.100081 60.684544 
L 1005.490568 58.446399 
L 1013.881055 52.824789 
L 1022.27153 49.073868 
L 1030.662017 47.377363 
L 1039.052504 46.186708 
L 1047.442979 47.305781 
L 1055.833466 40.584187 
L 1047.442979 45.501902 
L 1039.052504 44.57133 
L 1030.662017 42.858123 
L 1022.27153 43.278074 
L 1013.881055 43.30432 
L 1005.490568 43.039465 
L 997.100081 41.199796 
L 988.709606 40.717807 
L 980.319119 43.142067 
L 971.928632 39.4675 
L 963.538157 40.80132 
L 955.14767 44.721653 
L 946.75719 47.763908 
L 938.366703 46.64245 
L 929.976222 48.16477 
L 921.585741 48.830487 
L 913.195254 52.893985 
L 904.804773 50.009212 
L 896.414289 48.260213 
L 888.023808 49.458027 
L 879.633324 47.713801 
L 871.242841 48.74936 
L 862.852358 46.387139 
L 854.461875 46.501671 
L 846.071392 43.74336 
L 837.680909 49.095342 
L 829.290426 52.018293 
L 820.899942 53.936703 
L 812.509461 58.506051 
L 804.118977 62.025523 
L 795.728496 66.551921 
L 787.338009 84.077696 
L 778.947528 84.626495 
L 770.557047 381.6675 
L 762.16656 88.730556 
L 753.77608 62.920303 
L 745.385593 59.978264 
L 736.995118 58.243582 
L 728.604631 49.825483 
L 720.214144 51.280994 
L 711.823669 48.210106 
L 703.433182 50.271681 
L 695.042695 49.379286 
L 686.65222 45.828796 
L 678.261733 48.062169 
L 669.871246 51.11874 
L 661.480771 49.897066 
L 653.090284 52.669694 
L 661.480771 49.96149 
L 669.871246 53.953406 
L 686.65222 56.885901 
L 695.042695 54.435395 
L 703.433182 56.652065 
L 720.214144 52.555162 
L 728.604631 54.914997 
L 736.995118 54.089413 
L 745.385593 53.075328 
L 753.77608 52.567092 
L 762.16656 50.88729 
L 770.557047 53.982039 
L 778.947528 51.436089 
L 787.338009 50.818094 
L 795.728496 48.288846 
L 804.118977 49.617894 
L 812.509461 49.605964 
L 820.899942 50.23589 
L 829.290426 46.578025 
L 837.680909 50.596188 
L 846.071392 49.355425 
L 846.071392 49.355425 
" clip-path="url(#p1978be7cba)" style="fill: none; stroke: #1f77b4; stroke-width: 1.5; stroke-linecap: square"/>
   </g>
   <g id="patch_8">
    <path d="M 632.953125 398.7775 
L 632.953125 22.3575 
" style="fill: none; stroke: #000000; stroke-width: 0.8; stroke-linejoin: miter; stroke-linecap: square"/>
   </g>
   <g id="patch_9">
    <path d="M 1075.970625 398.7775 
L 1075.970625 22.3575 
" style="fill: none; stroke: #000000; stroke-width: 0.8; stroke-linejoin: miter; stroke-linecap: square"/>
   </g>
   <g id="patch_10">
    <path d="M 632.953125 398.7775 
L 1075.970625 398.7775 
" style="fill: none; stroke: #000000; stroke-width: 0.8; stroke-linejoin: miter; stroke-linecap: square"/>
   </g>
   <g id="patch_11">
    <path d="M 632.953125 22.3575 
L 1075.970625 22.3575 
" style="fill: none; stroke: #000000; stroke-width: 0.8; stroke-linejoin: miter; stroke-linecap: square"/>
   </g>
   <g id="text_34">
    <!-- Resonance Frequency -->
    <g transform="translate(788.89875 16.3575) scale(0.12 -0.12)">
     <use xlink:href="#DejaVuSans-52"/>
     <use xlink:href="#DejaVuSans-65" x="64.982422"/>
     <use xlink:href="#DejaVuSans-73" x="126.505859"/>
     <use xlink:href="#DejaVuSans-6f" x="178.605469"/>
     <use xlink:href="#DejaVuSans-6e" x="239.787109"/>
     <use xlink:href="#DejaVuSans-61" x="303.166016"/>
     <use xlink:href="#DejaVuSans-6e" x="364.445312"/>
     <use xlink:href="#DejaVuSans-63" x="427.824219"/>
     <use xlink:href="#DejaVuSans-65" x="482.804688"/>
     <use xlink:href="#DejaVuSans-20" x="544.328125"/>
     <use xlink:href="#DejaVuSans-46" x="576.115234"/>
     <use xlink:href="#DejaVuSans-72" x="626.384766"/>
     <use xlink:href="#DejaVuSans-65" x="665.248047"/>
     <use xlink:href="#DejaVuSans-71" x="726.771484"/>
     <use xlink:href="#DejaVuSans-75" x="790.248047"/>
     <use xlink:href="#DejaVuSans-65" x="853.626953"/>
     <use xlink:href="#DejaVuSans-6e" x="915.150391"/>
     <use xlink:href="#DejaVuSans-63" x="978.529297"/>
     <use xlink:href="#DejaVuSans-79" x="1033.509766"/>
    </g>
   </g>
  </g>
  <g id="axes_3">
   <g id="patch_12">
    <path d="M 1167.620625 398.7775 
L 1610.638125 398.7775 
L 1610.638125 22.3575 
L 1167.620625 22.3575 
z
" style="fill: #ffffff"/>
   </g>
   <g id="matplotlib.axis_5">
    <g id="xtick_15">
     <g id="line2d_61">
      <g>
       <use xlink:href="#m89bc731899" x="1200.343509" y="398.7775" style="stroke: #000000; stroke-width: 0.8"/>
      </g>
     </g>
     <g id="line2d_62">
      <g>
       <use xlink:href="#md997ba0fcd" x="1200.343509" y="22.3575" style="stroke: #000000; stroke-width: 0.8"/>
      </g>
     </g>
     <g id="text_35">
      <!-- −15 -->
      <g transform="translate(1183.459759 414.435) scale(0.16 -0.16)">
       <use xlink:href="#DejaVuSans-2212"/>
       <use xlink:href="#DejaVuSans-31" x="83.789062"/>
       <use xlink:href="#DejaVuSans-35" x="147.412109"/>
      </g>
     </g>
    </g>
    <g id="xtick_16">
     <g id="line2d_63">
      <g>
       <use xlink:href="#m89bc731899" x="1263.272131" y="398.7775" style="stroke: #000000; stroke-width: 0.8"/>
      </g>
     </g>
     <g id="line2d_64">
      <g>
       <use xlink:href="#md997ba0fcd" x="1263.272131" y="22.3575" style="stroke: #000000; stroke-width: 0.8"/>
      </g>
     </g>
     <g id="text_36">
      <!-- −10 -->
      <g transform="translate(1246.388381 414.435) scale(0.16 -0.16)">
       <use xlink:href="#DejaVuSans-2212"/>
       <use xlink:href="#DejaVuSans-31" x="83.789062"/>
       <use xlink:href="#DejaVuSans-30" x="147.412109"/>
      </g>
     </g>
    </g>
    <g id="xtick_17">
     <g id="line2d_65">
      <g>
       <use xlink:href="#m89bc731899" x="1326.200753" y="398.7775" style="stroke: #000000; stroke-width: 0.8"/>
      </g>
     </g>
     <g id="line2d_66">
      <g>
       <use xlink:href="#md997ba0fcd" x="1326.200753" y="22.3575" style="stroke: #000000; stroke-width: 0.8"/>
      </g>
     </g>
     <g id="text_37">
      <!-- −5 -->
      <g transform="translate(1314.407003 414.435) scale(0.16 -0.16)">
       <use xlink:href="#DejaVuSans-2212"/>
       <use xlink:href="#DejaVuSans-35" x="83.789062"/>
      </g>
     </g>
    </g>
    <g id="xtick_18">
     <g id="line2d_67">
      <g>
       <use xlink:href="#m89bc731899" x="1389.129375" y="398.7775" style="stroke: #000000; stroke-width: 0.8"/>
      </g>
     </g>
     <g id="line2d_68">
      <g>
       <use xlink:href="#md997ba0fcd" x="1389.129375" y="22.3575" style="stroke: #000000; stroke-width: 0.8"/>
      </g>
     </g>
     <g id="text_38">
      <!-- 0 -->
      <g transform="translate(1384.039375 414.435) scale(0.16 -0.16)">
       <use xlink:href="#DejaVuSans-30"/>
      </g>
     </g>
    </g>
    <g id="xtick_19">
     <g id="line2d_69">
      <g>
       <use xlink:href="#m89bc731899" x="1452.057997" y="398.7775" style="stroke: #000000; stroke-width: 0.8"/>
      </g>
     </g>
     <g id="line2d_70">
      <g>
       <use xlink:href="#md997ba0fcd" x="1452.057997" y="22.3575" style="stroke: #000000; stroke-width: 0.8"/>
      </g>
     </g>
     <g id="text_39">
      <!-- 5 -->
      <g transform="translate(1446.967997 414.435) scale(0.16 -0.16)">
       <use xlink:href="#DejaVuSans-35"/>
      </g>
     </g>
    </g>
    <g id="xtick_20">
     <g id="line2d_71">
      <g>
       <use xlink:href="#m89bc731899" x="1514.986619" y="398.7775" style="stroke: #000000; stroke-width: 0.8"/>
      </g>
     </g>
     <g id="line2d_72">
      <g>
       <use xlink:href="#md997ba0fcd" x="1514.986619" y="22.3575" style="stroke: #000000; stroke-width: 0.8"/>
      </g>
     </g>
     <g id="text_40">
      <!-- 10 -->
      <g transform="translate(1504.806619 414.435) scale(0.16 -0.16)">
       <use xlink:href="#DejaVuSans-31"/>
       <use xlink:href="#DejaVuSans-30" x="63.623047"/>
      </g>
     </g>
    </g>
    <g id="xtick_21">
     <g id="line2d_73">
      <g>
       <use xlink:href="#m89bc731899" x="1577.915241" y="398.7775" style="stroke: #000000; stroke-width: 0.8"/>
      </g>
     </g>
     <g id="line2d_74">
      <g>
       <use xlink:href="#md997ba0fcd" x="1577.915241" y="22.3575" style="stroke: #000000; stroke-width: 0.8"/>
      </g>
     </g>
     <g id="text_41">
      <!-- 15 -->
      <g transform="translate(1567.735241 414.435) scale(0.16 -0.16)">
       <use xlink:href="#DejaVuSans-31"/>
       <use xlink:href="#DejaVuSans-35" x="63.623047"/>
      </g>
     </g>
    </g>
   </g>
   <g id="matplotlib.axis_6">
    <g id="ytick_16">
     <g id="line2d_75">
      <g>
       <use xlink:href="#m36e319c1d8" x="1167.620625" y="390.99733" style="stroke: #000000; stroke-width: 0.8"/>
      </g>
     </g>
     <g id="line2d_76">
      <g>
       <use xlink:href="#m0b88c77c4e" x="1610.638125" y="390.99733" style="stroke: #000000; stroke-width: 0.8"/>
      </g>
     </g>
     <g id="text_42">
      <!-- −300 -->
      <g transform="translate(1120.173125 397.07608) scale(0.16 -0.16)">
       <use xlink:href="#DejaVuSans-2212"/>
       <use xlink:href="#DejaVuSans-33" x="83.789062"/>
       <use xlink:href="#DejaVuSans-30" x="147.412109"/>
       <use xlink:href="#DejaVuSans-30" x="211.035156"/>
      </g>
     </g>
    </g>
    <g id="ytick_17">
     <g id="line2d_77">
      <g>
       <use xlink:href="#m36e319c1d8" x="1167.620625" y="320.691364" style="stroke: #000000; stroke-width: 0.8"/>
      </g>
     </g>
     <g id="line2d_78">
      <g>
       <use xlink:href="#m0b88c77c4e" x="1610.638125" y="320.691364" style="stroke: #000000; stroke-width: 0.8"/>
      </g>
     </g>
     <g id="text_43">
      <!-- −200 -->
      <g transform="translate(1120.173125 326.770114) scale(0.16 -0.16)">
       <use xlink:href="#DejaVuSans-2212"/>
       <use xlink:href="#DejaVuSans-32" x="83.789062"/>
       <use xlink:href="#DejaVuSans-30" x="147.412109"/>
       <use xlink:href="#DejaVuSans-30" x="211.035156"/>
      </g>
     </g>
    </g>
    <g id="ytick_18">
     <g id="line2d_79">
      <g>
       <use xlink:href="#m36e319c1d8" x="1167.620625" y="250.385398" style="stroke: #000000; stroke-width: 0.8"/>
      </g>
     </g>
     <g id="line2d_80">
      <g>
       <use xlink:href="#m0b88c77c4e" x="1610.638125" y="250.385398" style="stroke: #000000; stroke-width: 0.8"/>
      </g>
     </g>
     <g id="text_44">
      <!-- −100 -->
      <g transform="translate(1120.173125 256.464148) scale(0.16 -0.16)">
       <use xlink:href="#DejaVuSans-2212"/>
       <use xlink:href="#DejaVuSans-31" x="83.789062"/>
       <use xlink:href="#DejaVuSans-30" x="147.412109"/>
       <use xlink:href="#DejaVuSans-30" x="211.035156"/>
      </g>
     </g>
    </g>
    <g id="ytick_19">
     <g id="line2d_81">
      <g>
       <use xlink:href="#m36e319c1d8" x="1167.620625" y="180.079432" style="stroke: #000000; stroke-width: 0.8"/>
      </g>
     </g>
     <g id="line2d_82">
      <g>
       <use xlink:href="#m0b88c77c4e" x="1610.638125" y="180.079432" style="stroke: #000000; stroke-width: 0.8"/>
      </g>
     </g>
     <g id="text_45">
      <!-- 0 -->
      <g transform="translate(1153.940625 186.158182) scale(0.16 -0.16)">
       <use xlink:href="#DejaVuSans-30"/>
      </g>
     </g>
    </g>
    <g id="ytick_20">
     <g id="line2d_83">
      <g>
       <use xlink:href="#m36e319c1d8" x="1167.620625" y="109.773466" style="stroke: #000000; stroke-width: 0.8"/>
      </g>
     </g>
     <g id="line2d_84">
      <g>
       <use xlink:href="#m0b88c77c4e" x="1610.638125" y="109.773466" style="stroke: #000000; stroke-width: 0.8"/>
      </g>
     </g>
     <g id="text_46">
      <!-- 100 -->
      <g transform="translate(1133.580625 115.852216) scale(0.16 -0.16)">
       <use xlink:href="#DejaVuSans-31"/>
       <use xlink:href="#DejaVuSans-30" x="63.623047"/>
       <use xlink:href="#DejaVuSans-30" x="127.246094"/>
      </g>
     </g>
    </g>
    <g id="ytick_21">
     <g id="line2d_85">
      <g>
       <use xlink:href="#m36e319c1d8" x="1167.620625" y="39.4675" style="stroke: #000000; stroke-width: 0.8"/>
      </g>
     </g>
     <g id="line2d_86">
      <g>
       <use xlink:href="#m0b88c77c4e" x="1610.638125" y="39.4675" style="stroke: #000000; stroke-width: 0.8"/>
      </g>
     </g>
     <g id="text_47">
      <!-- 200 -->
      <g transform="translate(1133.580625 45.54625) scale(0.16 -0.16)">
       <use xlink:href="#DejaVuSans-32"/>
       <use xlink:href="#DejaVuSans-30" x="63.623047"/>
       <use xlink:href="#DejaVuSans-30" x="127.246094"/>
      </g>
     </g>
    </g>
    <g id="text_48">
     <!-- Quality Factor (Arb. U.) -->
     <g transform="translate(1112.429688 313.762344) rotate(-90) scale(0.18 -0.18)">
      <defs>
       <path id="DejaVuSans-51" d="M 2522 4238 
Q 1834 4238 1429 3725 
Q 1025 3213 1025 2328 
Q 1025 1447 1429 934 
Q 1834 422 2522 422 
Q 3209 422 3611 934 
Q 4013 1447 4013 2328 
Q 4013 3213 3611 3725 
Q 3209 4238 2522 4238 
z
M 3406 84 
L 4238 -825 
L 3475 -825 
L 2784 -78 
Q 2681 -84 2626 -87 
Q 2572 -91 2522 -91 
Q 1538 -91 948 567 
Q 359 1225 359 2328 
Q 359 3434 948 4092 
Q 1538 4750 2522 4750 
Q 3503 4750 4090 4092 
Q 4678 3434 4678 2328 
Q 4678 1516 4351 937 
Q 4025 359 3406 84 
z
" transform="scale(0.015625)"/>
      </defs>
      <use xlink:href="#DejaVuSans-51"/>
      <use xlink:href="#DejaVuSans-75" x="78.710938"/>
      <use xlink:href="#DejaVuSans-61" x="142.089844"/>
      <use xlink:href="#DejaVuSans-6c" x="203.369141"/>
      <use xlink:href="#DejaVuSans-69" x="231.152344"/>
      <use xlink:href="#DejaVuSans-74" x="258.935547"/>
      <use xlink:href="#DejaVuSans-79" x="298.144531"/>
      <use xlink:href="#DejaVuSans-20" x="357.324219"/>
      <use xlink:href="#DejaVuSans-46" x="389.111328"/>
      <use xlink:href="#DejaVuSans-61" x="437.505859"/>
      <use xlink:href="#DejaVuSans-63" x="498.785156"/>
      <use xlink:href="#DejaVuSans-74" x="553.765625"/>
      <use xlink:href="#DejaVuSans-6f" x="592.974609"/>
      <use xlink:href="#DejaVuSans-72" x="654.15625"/>
      <use xlink:href="#DejaVuSans-20" x="695.269531"/>
      <use xlink:href="#DejaVuSans-28" x="727.056641"/>
      <use xlink:href="#DejaVuSans-41" x="766.070312"/>
      <use xlink:href="#DejaVuSans-72" x="834.478516"/>
      <use xlink:href="#DejaVuSans-62" x="875.591797"/>
      <use xlink:href="#DejaVuSans-2e" x="939.068359"/>
      <use xlink:href="#DejaVuSans-20" x="970.855469"/>
      <use xlink:href="#DejaVuSans-55" x="1002.642578"/>
      <use xlink:href="#DejaVuSans-2e" x="1075.835938"/>
      <use xlink:href="#DejaVuSans-29" x="1107.623047"/>
     </g>
    </g>
   </g>
   <g id="line2d_87">
    <path d="M 1389.129375 348.244306 
L 1397.519858 343.792135 
L 1405.910341 348.922498 
L 1414.300824 340.248075 
L 1422.691308 345.527084 
L 1431.081789 340.844135 
L 1439.472273 338.46337 
L 1447.862754 342.2409 
L 1456.253241 339.81924 
L 1464.643722 341.823351 
L 1473.034203 328.719145 
L 1481.42469 348.720579 
L 1489.81517 329.143067 
L 1498.205657 359.221331 
L 1506.596132 344.629335 
L 1514.986619 39.4675 
L 1523.377106 327.681549 
L 1531.767581 328.454136 
L 1540.158068 330.858352 
L 1548.548555 324.365863 
L 1556.93903 328.181573 
L 1565.329517 330.677963 
L 1573.720004 335.162264 
L 1582.110479 346.117855 
L 1590.500966 336.572127 
L 1582.110479 339.956246 
L 1573.720004 332.789942 
L 1565.329517 343.603217 
L 1556.93903 339.07313 
L 1548.548555 342.142515 
L 1540.158068 339.09038 
L 1531.767581 344.982356 
L 1523.377106 334.581212 
L 1514.986619 336.780784 
L 1506.596132 346.613792 
L 1498.205657 340.066013 
L 1489.81517 348.098257 
L 1481.42469 345.26363 
L 1473.034203 339.979171 
L 1464.643722 342.90226 
L 1456.253241 340.457815 
L 1447.862754 344.256414 
L 1439.472273 340.880095 
L 1431.081789 351.347773 
L 1422.691308 348.434371 
L 1414.300824 343.913263 
L 1405.910341 343.317868 
L 1397.519858 343.70304 
L 1389.129375 333.598606 
L 1380.738892 363.831502 
L 1372.348409 336.714185 
L 1363.957926 355.148936 
L 1355.567442 335.360579 
L 1347.176961 338.101907 
L 1338.786477 337.767713 
L 1330.395996 336.319272 
L 1322.005509 330.750086 
L 1313.615028 297.270281 
L 1305.224547 39.4675 
L 1296.83406 325.827392 
L 1288.44358 338.181571 
L 1280.053093 354.884248 
L 1271.662618 342.223768 
L 1263.272131 337.389278 
L 1254.881644 347.521818 
L 1246.491169 333.785614 
L 1238.100682 339.584344 
L 1229.710195 342.99555 
L 1221.31972 339.241064 
L 1212.929233 335.317818 
L 1204.538746 338.833524 
L 1196.148271 343.026736 
L 1187.757784 337.306083 
L 1196.148271 332.788569 
L 1204.538746 335.121906 
L 1212.929233 330.017997 
L 1221.31972 344.842487 
L 1229.710195 336.439156 
L 1238.100682 342.374891 
L 1246.491169 338.162058 
L 1254.881644 342.536109 
L 1263.272131 340.027575 
L 1271.662618 342.053399 
L 1280.053093 346.664149 
L 1288.44358 344.222879 
L 1296.83406 336.96998 
L 1305.224547 339.9367 
L 1313.615028 339.917969 
L 1322.005509 341.080276 
L 1330.395996 347.896821 
L 1338.786477 348.187631 
L 1347.176961 348.113051 
L 1355.567442 341.228063 
L 1363.957926 344.535735 
L 1380.738892 344.983333 
L 1389.129375 348.770839 
L 1397.519858 355.855633 
L 1405.910341 353.807667 
L 1414.300824 353.827578 
L 1422.691308 350.679472 
L 1431.081789 333.102433 
L 1439.472273 340.612478 
L 1447.862754 347.948711 
L 1456.253241 353.96159 
L 1464.643722 345.5176 
L 1473.034203 333.182334 
L 1481.42469 358.0289 
L 1489.81517 332.300087 
L 1498.205657 325.641918 
L 1506.596132 39.4675 
L 1514.986619 366.947575 
L 1523.377106 331.800116 
L 1531.767581 341.049305 
L 1540.158068 336.943718 
L 1548.548555 338.287305 
L 1556.93903 341.643477 
L 1565.329517 338.257203 
L 1573.720004 343.700884 
L 1582.110479 344.645148 
L 1590.500966 335.016719 
L 1582.110479 343.928078 
L 1573.720004 348.057652 
L 1565.329517 339.579623 
L 1556.93903 349.176577 
L 1548.548555 328.184009 
L 1540.158068 335.998564 
L 1531.767581 350.001934 
L 1523.377106 341.508811 
L 1514.986619 348.182095 
L 1506.596132 347.054986 
L 1498.205657 343.880554 
L 1489.81517 352.879805 
L 1481.42469 342.754613 
L 1473.034203 350.20955 
L 1464.643722 354.167875 
L 1456.253241 339.510032 
L 1447.862754 353.972693 
L 1439.472273 343.802841 
L 1431.081789 343.152037 
L 1422.691308 349.248121 
L 1414.300824 350.586687 
L 1405.910341 346.05337 
L 1397.519858 339.887244 
L 1389.129375 348.278721 
L 1380.738892 347.626983 
L 1372.348409 346.223793 
L 1363.957926 346.781125 
L 1355.567442 346.045861 
L 1347.176961 351.147012 
L 1338.786477 350.656847 
L 1330.395996 350.421789 
L 1322.005509 349.656208 
L 1313.615028 291.551163 
L 1305.224547 39.4675 
L 1296.83406 381.6675 
L 1288.44358 327.25457 
L 1280.053093 348.553107 
L 1271.662618 338.568096 
L 1263.272131 337.949625 
L 1254.881644 342.140391 
L 1246.491169 339.205007 
L 1238.100682 344.587443 
L 1229.710195 338.48091 
L 1221.31972 344.680057 
L 1212.929233 349.416408 
L 1204.538746 342.901939 
L 1196.148271 334.367803 
L 1187.757784 340.360589 
L 1196.148271 337.428488 
L 1204.538746 341.219352 
L 1212.929233 337.061188 
L 1221.31972 346.298694 
L 1229.710195 337.457646 
L 1238.100682 335.171447 
L 1246.491169 339.528065 
L 1254.881644 337.577133 
L 1263.272131 335.044387 
L 1271.662618 343.99724 
L 1280.053093 344.307597 
L 1288.44358 343.108911 
L 1296.83406 338.815018 
L 1305.224547 343.25968 
L 1313.615028 346.366569 
L 1322.005509 346.460127 
L 1330.395996 341.976931 
L 1338.786477 344.20182 
L 1347.176961 345.007803 
L 1355.567442 342.44032 
L 1363.957926 352.473928 
L 1372.348409 353.101957 
L 1380.738892 346.573767 
L 1380.738892 346.573767 
" clip-path="url(#p42d10e9092)" style="fill: none; stroke: #1f77b4; stroke-width: 1.5; stroke-linecap: square"/>
   </g>
   <g id="patch_13">
    <path d="M 1167.620625 398.7775 
L 1167.620625 22.3575 
" style="fill: none; stroke: #000000; stroke-width: 0.8; stroke-linejoin: miter; stroke-linecap: square"/>
   </g>
   <g id="patch_14">
    <path d="M 1610.638125 398.7775 
L 1610.638125 22.3575 
" style="fill: none; stroke: #000000; stroke-width: 0.8; stroke-linejoin: miter; stroke-linecap: square"/>
   </g>
   <g id="patch_15">
    <path d="M 1167.620625 398.7775 
L 1610.638125 398.7775 
" style="fill: none; stroke: #000000; stroke-width: 0.8; stroke-linejoin: miter; stroke-linecap: square"/>
   </g>
   <g id="patch_16">
    <path d="M 1167.620625 22.3575 
L 1610.638125 22.3575 
" style="fill: none; stroke: #000000; stroke-width: 0.8; stroke-linejoin: miter; stroke-linecap: square"/>
   </g>
   <g id="text_49">
    <!-- Dampening -->
    <g transform="translate(1354.40625 16.3575) scale(0.12 -0.12)">
     <defs>
      <path id="DejaVuSans-44" d="M 1259 4147 
L 1259 519 
L 2022 519 
Q 2988 519 3436 956 
Q 3884 1394 3884 2338 
Q 3884 3275 3436 3711 
Q 2988 4147 2022 4147 
L 1259 4147 
z
M 628 4666 
L 1925 4666 
Q 3281 4666 3915 4102 
Q 4550 3538 4550 2338 
Q 4550 1131 3912 565 
Q 3275 0 1925 0 
L 628 0 
L 628 4666 
z
" transform="scale(0.015625)"/>
      <path id="DejaVuSans-67" d="M 2906 1791 
Q 2906 2416 2648 2759 
Q 2391 3103 1925 3103 
Q 1463 3103 1205 2759 
Q 947 2416 947 1791 
Q 947 1169 1205 825 
Q 1463 481 1925 481 
Q 2391 481 2648 825 
Q 2906 1169 2906 1791 
z
M 3481 434 
Q 3481 -459 3084 -895 
Q 2688 -1331 1869 -1331 
Q 1566 -1331 1297 -1286 
Q 1028 -1241 775 -1147 
L 775 -588 
Q 1028 -725 1275 -790 
Q 1522 -856 1778 -856 
Q 2344 -856 2625 -561 
Q 2906 -266 2906 331 
L 2906 616 
Q 2728 306 2450 153 
Q 2172 0 1784 0 
Q 1141 0 747 490 
Q 353 981 353 1791 
Q 353 2603 747 3093 
Q 1141 3584 1784 3584 
Q 2172 3584 2450 3431 
Q 2728 3278 2906 2969 
L 2906 3500 
L 3481 3500 
L 3481 434 
z
" transform="scale(0.015625)"/>
     </defs>
     <use xlink:href="#DejaVuSans-44"/>
     <use xlink:href="#DejaVuSans-61" x="77.001953"/>
     <use xlink:href="#DejaVuSans-6d" x="138.28125"/>
     <use xlink:href="#DejaVuSans-70" x="235.693359"/>
     <use xlink:href="#DejaVuSans-65" x="299.169922"/>
     <use xlink:href="#DejaVuSans-6e" x="360.693359"/>
     <use xlink:href="#DejaVuSans-69" x="424.072266"/>
     <use xlink:href="#DejaVuSans-6e" x="451.855469"/>
     <use xlink:href="#DejaVuSans-67" x="515.234375"/>
    </g>
   </g>
  </g>
  <g id="axes_4">
   <g id="patch_17">
    <path d="M 1702.288125 398.7775 
L 2145.305625 398.7775 
L 2145.305625 22.3575 
L 1702.288125 22.3575 
z
" style="fill: #ffffff"/>
   </g>
   <g id="matplotlib.axis_7">
    <g id="xtick_22">
     <g id="line2d_88">
      <g>
       <use xlink:href="#m89bc731899" x="1735.011009" y="398.7775" style="stroke: #000000; stroke-width: 0.8"/>
      </g>
     </g>
     <g id="line2d_89">
      <g>
       <use xlink:href="#md997ba0fcd" x="1735.011009" y="22.3575" style="stroke: #000000; stroke-width: 0.8"/>
      </g>
     </g>
     <g id="text_50">
      <!-- −15 -->
      <g transform="translate(1718.127259 414.435) scale(0.16 -0.16)">
       <use xlink:href="#DejaVuSans-2212"/>
       <use xlink:href="#DejaVuSans-31" x="83.789062"/>
       <use xlink:href="#DejaVuSans-35" x="147.412109"/>
      </g>
     </g>
    </g>
    <g id="xtick_23">
     <g id="line2d_90">
      <g>
       <use xlink:href="#m89bc731899" x="1797.939631" y="398.7775" style="stroke: #000000; stroke-width: 0.8"/>
      </g>
     </g>
     <g id="line2d_91">
      <g>
       <use xlink:href="#md997ba0fcd" x="1797.939631" y="22.3575" style="stroke: #000000; stroke-width: 0.8"/>
      </g>
     </g>
     <g id="text_51">
      <!-- −10 -->
      <g transform="translate(1781.055881 414.435) scale(0.16 -0.16)">
       <use xlink:href="#DejaVuSans-2212"/>
       <use xlink:href="#DejaVuSans-31" x="83.789062"/>
       <use xlink:href="#DejaVuSans-30" x="147.412109"/>
      </g>
     </g>
    </g>
    <g id="xtick_24">
     <g id="line2d_92">
      <g>
       <use xlink:href="#m89bc731899" x="1860.868253" y="398.7775" style="stroke: #000000; stroke-width: 0.8"/>
      </g>
     </g>
     <g id="line2d_93">
      <g>
       <use xlink:href="#md997ba0fcd" x="1860.868253" y="22.3575" style="stroke: #000000; stroke-width: 0.8"/>
      </g>
     </g>
     <g id="text_52">
      <!-- −5 -->
      <g transform="translate(1849.074503 414.435) scale(0.16 -0.16)">
       <use xlink:href="#DejaVuSans-2212"/>
       <use xlink:href="#DejaVuSans-35" x="83.789062"/>
      </g>
     </g>
    </g>
    <g id="xtick_25">
     <g id="line2d_94">
      <g>
       <use xlink:href="#m89bc731899" x="1923.796875" y="398.7775" style="stroke: #000000; stroke-width: 0.8"/>
      </g>
     </g>
     <g id="line2d_95">
      <g>
       <use xlink:href="#md997ba0fcd" x="1923.796875" y="22.3575" style="stroke: #000000; stroke-width: 0.8"/>
      </g>
     </g>
     <g id="text_53">
      <!-- 0 -->
      <g transform="translate(1918.706875 414.435) scale(0.16 -0.16)">
       <use xlink:href="#DejaVuSans-30"/>
      </g>
     </g>
    </g>
    <g id="xtick_26">
     <g id="line2d_96">
      <g>
       <use xlink:href="#m89bc731899" x="1986.725497" y="398.7775" style="stroke: #000000; stroke-width: 0.8"/>
      </g>
     </g>
     <g id="line2d_97">
      <g>
       <use xlink:href="#md997ba0fcd" x="1986.725497" y="22.3575" style="stroke: #000000; stroke-width: 0.8"/>
      </g>
     </g>
     <g id="text_54">
      <!-- 5 -->
      <g transform="translate(1981.635497 414.435) scale(0.16 -0.16)">
       <use xlink:href="#DejaVuSans-35"/>
      </g>
     </g>
    </g>
    <g id="xtick_27">
     <g id="line2d_98">
      <g>
       <use xlink:href="#m89bc731899" x="2049.654119" y="398.7775" style="stroke: #000000; stroke-width: 0.8"/>
      </g>
     </g>
     <g id="line2d_99">
      <g>
       <use xlink:href="#md997ba0fcd" x="2049.654119" y="22.3575" style="stroke: #000000; stroke-width: 0.8"/>
      </g>
     </g>
     <g id="text_55">
      <!-- 10 -->
      <g transform="translate(2039.474119 414.435) scale(0.16 -0.16)">
       <use xlink:href="#DejaVuSans-31"/>
       <use xlink:href="#DejaVuSans-30" x="63.623047"/>
      </g>
     </g>
    </g>
    <g id="xtick_28">
     <g id="line2d_100">
      <g>
       <use xlink:href="#m89bc731899" x="2112.582741" y="398.7775" style="stroke: #000000; stroke-width: 0.8"/>
      </g>
     </g>
     <g id="line2d_101">
      <g>
       <use xlink:href="#md997ba0fcd" x="2112.582741" y="22.3575" style="stroke: #000000; stroke-width: 0.8"/>
      </g>
     </g>
     <g id="text_56">
      <!-- 15 -->
      <g transform="translate(2102.402741 414.435) scale(0.16 -0.16)">
       <use xlink:href="#DejaVuSans-31"/>
       <use xlink:href="#DejaVuSans-35" x="63.623047"/>
      </g>
     </g>
    </g>
   </g>
   <g id="matplotlib.axis_8">
    <g id="ytick_22">
     <g id="line2d_102">
      <g>
       <use xlink:href="#m36e319c1d8" x="1702.288125" y="374.260144" style="stroke: #000000; stroke-width: 0.8"/>
      </g>
     </g>
     <g id="line2d_103">
      <g>
       <use xlink:href="#m0b88c77c4e" x="2145.305625" y="374.260144" style="stroke: #000000; stroke-width: 0.8"/>
      </g>
     </g>
     <g id="text_57">
      <!-- −3 -->
      <g transform="translate(1675.200625 380.338894) scale(0.16 -0.16)">
       <use xlink:href="#DejaVuSans-2212"/>
       <use xlink:href="#DejaVuSans-33" x="83.789062"/>
      </g>
     </g>
    </g>
    <g id="ytick_23">
     <g id="line2d_104">
      <g>
       <use xlink:href="#m36e319c1d8" x="1702.288125" y="319.627704" style="stroke: #000000; stroke-width: 0.8"/>
      </g>
     </g>
     <g id="line2d_105">
      <g>
       <use xlink:href="#m0b88c77c4e" x="2145.305625" y="319.627704" style="stroke: #000000; stroke-width: 0.8"/>
      </g>
     </g>
     <g id="text_58">
      <!-- −2 -->
      <g transform="translate(1675.200625 325.706454) scale(0.16 -0.16)">
       <use xlink:href="#DejaVuSans-2212"/>
       <use xlink:href="#DejaVuSans-32" x="83.789062"/>
      </g>
     </g>
    </g>
    <g id="ytick_24">
     <g id="line2d_106">
      <g>
       <use xlink:href="#m36e319c1d8" x="1702.288125" y="264.995265" style="stroke: #000000; stroke-width: 0.8"/>
      </g>
     </g>
     <g id="line2d_107">
      <g>
       <use xlink:href="#m0b88c77c4e" x="2145.305625" y="264.995265" style="stroke: #000000; stroke-width: 0.8"/>
      </g>
     </g>
     <g id="text_59">
      <!-- −1 -->
      <g transform="translate(1675.200625 271.074015) scale(0.16 -0.16)">
       <use xlink:href="#DejaVuSans-2212"/>
       <use xlink:href="#DejaVuSans-31" x="83.789062"/>
      </g>
     </g>
    </g>
    <g id="ytick_25">
     <g id="line2d_108">
      <g>
       <use xlink:href="#m36e319c1d8" x="1702.288125" y="210.362826" style="stroke: #000000; stroke-width: 0.8"/>
      </g>
     </g>
     <g id="line2d_109">
      <g>
       <use xlink:href="#m0b88c77c4e" x="2145.305625" y="210.362826" style="stroke: #000000; stroke-width: 0.8"/>
      </g>
     </g>
     <g id="text_60">
      <!-- 0 -->
      <g transform="translate(1688.608125 216.441576) scale(0.16 -0.16)">
       <use xlink:href="#DejaVuSans-30"/>
      </g>
     </g>
    </g>
    <g id="ytick_26">
     <g id="line2d_110">
      <g>
       <use xlink:href="#m36e319c1d8" x="1702.288125" y="155.730386" style="stroke: #000000; stroke-width: 0.8"/>
      </g>
     </g>
     <g id="line2d_111">
      <g>
       <use xlink:href="#m0b88c77c4e" x="2145.305625" y="155.730386" style="stroke: #000000; stroke-width: 0.8"/>
      </g>
     </g>
     <g id="text_61">
      <!-- 1 -->
      <g transform="translate(1688.608125 161.809136) scale(0.16 -0.16)">
       <use xlink:href="#DejaVuSans-31"/>
      </g>
     </g>
    </g>
    <g id="ytick_27">
     <g id="line2d_112">
      <g>
       <use xlink:href="#m36e319c1d8" x="1702.288125" y="101.097947" style="stroke: #000000; stroke-width: 0.8"/>
      </g>
     </g>
     <g id="line2d_113">
      <g>
       <use xlink:href="#m0b88c77c4e" x="2145.305625" y="101.097947" style="stroke: #000000; stroke-width: 0.8"/>
      </g>
     </g>
     <g id="text_62">
      <!-- 2 -->
      <g transform="translate(1688.608125 107.176697) scale(0.16 -0.16)">
       <use xlink:href="#DejaVuSans-32"/>
      </g>
     </g>
    </g>
    <g id="ytick_28">
     <g id="line2d_114">
      <g>
       <use xlink:href="#m36e319c1d8" x="1702.288125" y="46.465507" style="stroke: #000000; stroke-width: 0.8"/>
      </g>
     </g>
     <g id="line2d_115">
      <g>
       <use xlink:href="#m0b88c77c4e" x="2145.305625" y="46.465507" style="stroke: #000000; stroke-width: 0.8"/>
      </g>
     </g>
     <g id="text_63">
      <!-- 3 -->
      <g transform="translate(1688.608125 52.544257) scale(0.16 -0.16)">
       <use xlink:href="#DejaVuSans-33"/>
      </g>
     </g>
    </g>
    <g id="text_64">
     <!-- Phase (rad) -->
     <g transform="translate(1667.457187 262.251406) rotate(-90) scale(0.18 -0.18)">
      <defs>
       <path id="DejaVuSans-50" d="M 1259 4147 
L 1259 2394 
L 2053 2394 
Q 2494 2394 2734 2622 
Q 2975 2850 2975 3272 
Q 2975 3691 2734 3919 
Q 2494 4147 2053 4147 
L 1259 4147 
z
M 628 4666 
L 2053 4666 
Q 2838 4666 3239 4311 
Q 3641 3956 3641 3272 
Q 3641 2581 3239 2228 
Q 2838 1875 2053 1875 
L 1259 1875 
L 1259 0 
L 628 0 
L 628 4666 
z
" transform="scale(0.015625)"/>
       <path id="DejaVuSans-68" d="M 3513 2113 
L 3513 0 
L 2938 0 
L 2938 2094 
Q 2938 2591 2744 2837 
Q 2550 3084 2163 3084 
Q 1697 3084 1428 2787 
Q 1159 2491 1159 1978 
L 1159 0 
L 581 0 
L 581 4863 
L 1159 4863 
L 1159 2956 
Q 1366 3272 1645 3428 
Q 1925 3584 2291 3584 
Q 2894 3584 3203 3211 
Q 3513 2838 3513 2113 
z
" transform="scale(0.015625)"/>
      </defs>
      <use xlink:href="#DejaVuSans-50"/>
      <use xlink:href="#DejaVuSans-68" x="60.302734"/>
      <use xlink:href="#DejaVuSans-61" x="123.681641"/>
      <use xlink:href="#DejaVuSans-73" x="184.960938"/>
      <use xlink:href="#DejaVuSans-65" x="237.060547"/>
      <use xlink:href="#DejaVuSans-20" x="298.583984"/>
      <use xlink:href="#DejaVuSans-28" x="330.371094"/>
      <use xlink:href="#DejaVuSans-72" x="369.384766"/>
      <use xlink:href="#DejaVuSans-61" x="410.498047"/>
      <use xlink:href="#DejaVuSans-64" x="471.777344"/>
      <use xlink:href="#DejaVuSans-29" x="535.253906"/>
     </g>
    </g>
   </g>
   <g id="line2d_116">
    <path d="M 1923.796875 44.413683 
L 1932.187358 43.328355 
L 1940.577841 39.613033 
L 1948.968324 39.4675 
L 1957.358808 43.254215 
L 1965.749289 41.139908 
L 1974.139773 43.149777 
L 1982.530254 44.138014 
L 1990.920741 43.757281 
L 1999.311222 43.072732 
L 2007.701703 380.951742 
L 2016.09219 41.654997 
L 2024.48267 381.6675 
L 2032.873157 50.935456 
L 2041.263632 39.746204 
L 2049.654119 213.569374 
L 2058.044606 212.372659 
L 2066.435081 217.118518 
L 2074.825568 211.670172 
L 2083.216055 213.204085 
L 2099.997017 213.66358 
L 2108.387504 214.284886 
L 2116.777979 215.239599 
L 2125.168466 216.073666 
L 2116.777979 210.820261 
L 2108.387504 212.910812 
L 2099.997017 213.922827 
L 2091.60653 213.413518 
L 2083.216055 214.375139 
L 2074.825568 211.615053 
L 2066.435081 214.830207 
L 2058.044606 213.541067 
L 2049.654119 214.707233 
L 2041.263632 214.265111 
L 2032.873157 215.73185 
L 2024.48267 215.786068 
L 2016.09219 214.88188 
L 2007.701703 217.41677 
L 1999.311222 215.287928 
L 1990.920741 217.20373 
L 1982.530254 214.056369 
L 1974.139773 211.193712 
L 1965.749289 212.155112 
L 1957.358808 212.852553 
L 1948.968324 212.316769 
L 1940.577841 213.868295 
L 1932.187358 212.414858 
L 1923.796875 214.39015 
L 1915.406392 211.5265 
L 1907.015909 211.420896 
L 1898.625426 212.809976 
L 1890.234942 213.701328 
L 1881.844461 214.07534 
L 1873.453977 215.197516 
L 1865.063496 211.91439 
L 1856.673009 214.96168 
L 1848.282528 222.946239 
L 1839.892047 283.267085 
L 1831.50156 56.311919 
L 1823.11108 40.832639 
L 1814.720593 42.055632 
L 1806.330118 43.696388 
L 1797.939631 42.035494 
L 1789.549144 42.308324 
L 1781.158669 42.750888 
L 1772.768182 43.781313 
L 1764.377695 43.235263 
L 1755.98722 44.809577 
L 1747.596733 42.467507 
L 1739.206246 42.247782 
L 1730.815771 45.242032 
L 1722.425284 43.97784 
L 1730.815771 43.435711 
L 1739.206246 43.021516 
L 1747.596733 41.43858 
L 1755.98722 42.663136 
L 1764.377695 43.602722 
L 1772.768182 42.642751 
L 1781.158669 43.45844 
L 1789.549144 43.407367 
L 1797.939631 43.026766 
L 1806.330118 42.195459 
L 1814.720593 43.851299 
L 1823.11108 44.680104 
L 1831.50156 44.01478 
L 1839.892047 43.151927 
L 1848.282528 43.370532 
L 1856.673009 43.369529 
L 1873.453977 43.070114 
L 1881.844461 43.787097 
L 1890.234942 44.021957 
L 1898.625426 42.108906 
L 1907.015909 45.82897 
L 1915.406392 42.957965 
L 1923.796875 43.545241 
L 1932.187358 42.744076 
L 1940.577841 43.916035 
L 1948.968324 41.080447 
L 1974.139773 44.262836 
L 1982.530254 44.451496 
L 1990.920741 42.141156 
L 1999.311222 46.416975 
L 2007.701703 43.219633 
L 2016.09219 45.193669 
L 2024.48267 380.199421 
L 2032.873157 42.578002 
L 2041.263632 97.597165 
L 2049.654119 222.781763 
L 2058.044606 212.626302 
L 2066.435081 217.435262 
L 2074.825568 217.554979 
L 2083.216055 214.425241 
L 2091.60653 213.678624 
L 2099.997017 213.232344 
L 2108.387504 213.423363 
L 2116.777979 214.759594 
L 2125.168466 211.451946 
L 2116.777979 215.636995 
L 2108.387504 214.98195 
L 2099.997017 213.408139 
L 2091.60653 215.094403 
L 2083.216055 215.477219 
L 2074.825568 214.455488 
L 2066.435081 213.955794 
L 2058.044606 214.208273 
L 2049.654119 215.857038 
L 2041.263632 213.05481 
L 2032.873157 214.430343 
L 2024.48267 214.604119 
L 2016.09219 216.340424 
L 2007.701703 213.187096 
L 1999.311222 214.121403 
L 1990.920741 216.128711 
L 1982.530254 218.33263 
L 1974.139773 216.163161 
L 1965.749289 214.344289 
L 1957.358808 214.18812 
L 1948.968324 214.314751 
L 1940.577841 217.010263 
L 1932.187358 215.219349 
L 1923.796875 215.383861 
L 1915.406392 211.103363 
L 1907.015909 215.113642 
L 1898.625426 214.809775 
L 1890.234942 213.002124 
L 1881.844461 213.793551 
L 1873.453977 218.051126 
L 1865.063496 215.697299 
L 1856.673009 220.058244 
L 1848.282528 212.880406 
L 1839.892047 371.148978 
L 1831.50156 47.979696 
L 1823.11108 39.711335 
L 1814.720593 41.045969 
L 1806.330118 41.861592 
L 1797.939631 42.330884 
L 1789.549144 42.990633 
L 1781.158669 39.869841 
L 1772.768182 43.631639 
L 1755.98722 42.322496 
L 1747.596733 45.030852 
L 1739.206246 45.004228 
L 1730.815771 42.865316 
L 1722.425284 41.820419 
L 1730.815771 41.721413 
L 1739.206246 42.941032 
L 1747.596733 43.676472 
L 1755.98722 43.463989 
L 1764.377695 42.144634 
L 1772.768182 45.164518 
L 1781.158669 41.823415 
L 1789.549144 41.374182 
L 1797.939631 43.47523 
L 1806.330118 43.603334 
L 1814.720593 44.237619 
L 1823.11108 42.530824 
L 1831.50156 43.155756 
L 1839.892047 45.360759 
L 1848.282528 44.023012 
L 1856.673009 44.104603 
L 1865.063496 42.882014 
L 1881.844461 44.452746 
L 1890.234942 43.161044 
L 1898.625426 41.017951 
L 1907.015909 44.845032 
L 1915.406392 46.501444 
L 1915.406392 46.501444 
" clip-path="url(#pf1d202876b)" style="fill: none; stroke: #1f77b4; stroke-width: 1.5; stroke-linecap: square"/>
   </g>
   <g id="patch_18">
    <path d="M 1702.288125 398.7775 
L 1702.288125 22.3575 
" style="fill: none; stroke: #000000; stroke-width: 0.8; stroke-linejoin: miter; stroke-linecap: square"/>
   </g>
   <g id="patch_19">
    <path d="M 2145.305625 398.7775 
L 2145.305625 22.3575 
" style="fill: none; stroke: #000000; stroke-width: 0.8; stroke-linejoin: miter; stroke-linecap: square"/>
   </g>
   <g id="patch_20">
    <path d="M 1702.288125 398.7775 
L 2145.305625 398.7775 
" style="fill: none; stroke: #000000; stroke-width: 0.8; stroke-linejoin: miter; stroke-linecap: square"/>
   </g>
   <g id="patch_21">
    <path d="M 1702.288125 22.3575 
L 2145.305625 22.3575 
" style="fill: none; stroke: #000000; stroke-width: 0.8; stroke-linejoin: miter; stroke-linecap: square"/>
   </g>
   <g id="text_65">
    <!-- Phase -->
    <g transform="translate(1905.882188 16.3575) scale(0.12 -0.12)">
     <use xlink:href="#DejaVuSans-50"/>
     <use xlink:href="#DejaVuSans-68" x="60.302734"/>
     <use xlink:href="#DejaVuSans-61" x="123.681641"/>
     <use xlink:href="#DejaVuSans-73" x="184.960938"/>
     <use xlink:href="#DejaVuSans-65" x="237.060547"/>
    </g>
   </g>
  </g>
 </g>
 <defs>
  <clipPath id="p6db7cfe5b1">
   <rect x="98.285625" y="22.3575" width="443.0175" height="376.42"/>
  </clipPath>
  <clipPath id="p1978be7cba">
   <rect x="632.953125" y="22.3575" width="443.0175" height="376.42"/>
  </clipPath>
  <clipPath id="p42d10e9092">
   <rect x="1167.620625" y="22.3575" width="443.0175" height="376.42"/>
  </clipPath>
  <clipPath id="pf1d202876b">
   <rect x="1702.288125" y="22.3575" width="443.0175" height="376.42"/>
  </clipPath>
 </defs>
</svg>
