<?xml version="1.0" encoding="utf-8" standalone="no"?>
<!DOCTYPE svg PUBLIC "-//W3C//DTD SVG 1.1//EN"
  "http://www.w3.org/Graphics/SVG/1.1/DTD/svg11.dtd">
<svg xmlns:xlink="http://www.w3.org/1999/xlink" width="404.39952pt" height="87.59952pt" viewBox="0 0 404.39952 87.59952" xmlns="http://www.w3.org/2000/svg" version="1.1">
 <metadata>
  <rdf:RDF xmlns:dc="http://purl.org/dc/elements/1.1/" xmlns:cc="http://creativecommons.org/ns#" xmlns:rdf="http://www.w3.org/1999/02/22-rdf-syntax-ns#">
   <cc:Work>
    <dc:type rdf:resource="http://purl.org/dc/dcmitype/StillImage"/>
    <dc:date>2023-04-05T22:34:23.721514</dc:date>
    <dc:format>image/svg+xml</dc:format>
    <dc:creator>
     <cc:Agent>
      <dc:title>Matplotlib v3.7.1, https://matplotlib.org/</dc:title>
     </cc:Agent>
    </dc:creator>
   </cc:Work>
  </rdf:RDF>
 </metadata>
 <defs>
  <style type="text/css">*{stroke-linejoin: round; stroke-linecap: butt}</style>
 </defs>
 <g id="figure_1">
  <g id="patch_1">
   <path d="M 0 87.59952 
L 404.39952 87.59952 
L 404.39952 -0 
L 0 -0 
z
" style="fill: #ffffff"/>
  </g>
  <g id="axes_1">
   <g id="patch_2">
    <path d="M 30.406813 72.060458 
L 93.73077 72.060458 
L 93.73077 13.999219 
L 30.406813 13.999219 
z
" style="fill: #ffffff"/>
   </g>
   <g id="matplotlib.axis_1">
    <g id="xtick_1">
     <g id="line2d_1">
      <defs>
       <path id="m00d4fb1695" d="M 0 0 
L 0 -3.5 
" style="stroke: #000000; stroke-width: 0.8"/>
      </defs>
      <g>
       <use xlink:href="#m00d4fb1695" x="44.079031" y="72.060458" style="stroke: #000000; stroke-width: 0.8"/>
      </g>
     </g>
     <g id="line2d_2">
      <defs>
       <path id="m456c6d66f9" d="M 0 0 
L 0 3.5 
" style="stroke: #000000; stroke-width: 0.8"/>
      </defs>
      <g>
       <use xlink:href="#m456c6d66f9" x="44.079031" y="13.999219" style="stroke: #000000; stroke-width: 0.8"/>
      </g>
     </g>
     <g id="text_1">
      <!-- −10 -->
      <g transform="translate(38.802859 79.359676) scale(0.05 -0.05)">
       <defs>
        <path id="DejaVuSans-2212" d="M 678 2272 
L 4684 2272 
L 4684 1741 
L 678 1741 
L 678 2272 
z
" transform="scale(0.015625)"/>
        <path id="DejaVuSans-31" d="M 794 531 
L 1825 531 
L 1825 4091 
L 703 3866 
L 703 4441 
L 1819 4666 
L 2450 4666 
L 2450 531 
L 3481 531 
L 3481 0 
L 794 0 
L 794 531 
z
" transform="scale(0.015625)"/>
        <path id="DejaVuSans-30" d="M 2034 4250 
Q 1547 4250 1301 3770 
Q 1056 3291 1056 2328 
Q 1056 1369 1301 889 
Q 1547 409 2034 409 
Q 2525 409 2770 889 
Q 3016 1369 3016 2328 
Q 3016 3291 2770 3770 
Q 2525 4250 2034 4250 
z
M 2034 4750 
Q 2819 4750 3233 4129 
Q 3647 3509 3647 2328 
Q 3647 1150 3233 529 
Q 2819 -91 2034 -91 
Q 1250 -91 836 529 
Q 422 1150 422 2328 
Q 422 3509 836 4129 
Q 1250 4750 2034 4750 
z
" transform="scale(0.015625)"/>
       </defs>
       <use xlink:href="#DejaVuSans-2212"/>
       <use xlink:href="#DejaVuSans-31" x="83.789062"/>
       <use xlink:href="#DejaVuSans-30" x="147.412109"/>
      </g>
     </g>
    </g>
    <g id="xtick_2">
     <g id="line2d_3">
      <g>
       <use xlink:href="#m00d4fb1695" x="62.068791" y="72.060458" style="stroke: #000000; stroke-width: 0.8"/>
      </g>
     </g>
     <g id="line2d_4">
      <g>
       <use xlink:href="#m456c6d66f9" x="62.068791" y="13.999219" style="stroke: #000000; stroke-width: 0.8"/>
      </g>
     </g>
     <g id="text_2">
      <!-- 0 -->
      <g transform="translate(60.478166 79.359676) scale(0.05 -0.05)">
       <use xlink:href="#DejaVuSans-30"/>
      </g>
     </g>
    </g>
    <g id="xtick_3">
     <g id="line2d_5">
      <g>
       <use xlink:href="#m00d4fb1695" x="80.058552" y="72.060458" style="stroke: #000000; stroke-width: 0.8"/>
      </g>
     </g>
     <g id="line2d_6">
      <g>
       <use xlink:href="#m456c6d66f9" x="80.058552" y="13.999219" style="stroke: #000000; stroke-width: 0.8"/>
      </g>
     </g>
     <g id="text_3">
      <!-- 10 -->
      <g transform="translate(76.877302 79.359676) scale(0.05 -0.05)">
       <use xlink:href="#DejaVuSans-31"/>
       <use xlink:href="#DejaVuSans-30" x="63.623047"/>
      </g>
     </g>
    </g>
   </g>
   <g id="matplotlib.axis_2">
    <g id="ytick_1">
     <g id="line2d_7">
      <defs>
       <path id="m643a758f39" d="M 0 0 
L 3.5 0 
" style="stroke: #000000; stroke-width: 0.8"/>
      </defs>
      <g>
       <use xlink:href="#m643a758f39" x="30.406813" y="71.249946" style="stroke: #000000; stroke-width: 0.8"/>
      </g>
     </g>
     <g id="line2d_8">
      <defs>
       <path id="m0abbc76340" d="M 0 0 
L -3.5 0 
" style="stroke: #000000; stroke-width: 0.8"/>
      </defs>
      <g>
       <use xlink:href="#m0abbc76340" x="93.73077" y="71.249946" style="stroke: #000000; stroke-width: 0.8"/>
      </g>
     </g>
     <g id="text_4">
      <!-- 0 -->
      <g transform="translate(23.725563 73.149555) scale(0.05 -0.05)">
       <use xlink:href="#DejaVuSans-30"/>
      </g>
     </g>
    </g>
    <g id="ytick_2">
     <g id="line2d_9">
      <g>
       <use xlink:href="#m643a758f39" x="30.406813" y="59.08368" style="stroke: #000000; stroke-width: 0.8"/>
      </g>
     </g>
     <g id="line2d_10">
      <g>
       <use xlink:href="#m0abbc76340" x="93.73077" y="59.08368" style="stroke: #000000; stroke-width: 0.8"/>
      </g>
     </g>
     <g id="text_5">
      <!-- 2 -->
      <g transform="translate(23.725563 60.983289) scale(0.05 -0.05)">
       <defs>
        <path id="DejaVuSans-32" d="M 1228 531 
L 3431 531 
L 3431 0 
L 469 0 
L 469 531 
Q 828 903 1448 1529 
Q 2069 2156 2228 2338 
Q 2531 2678 2651 2914 
Q 2772 3150 2772 3378 
Q 2772 3750 2511 3984 
Q 2250 4219 1831 4219 
Q 1534 4219 1204 4116 
Q 875 4013 500 3803 
L 500 4441 
Q 881 4594 1212 4672 
Q 1544 4750 1819 4750 
Q 2544 4750 2975 4387 
Q 3406 4025 3406 3419 
Q 3406 3131 3298 2873 
Q 3191 2616 2906 2266 
Q 2828 2175 2409 1742 
Q 1991 1309 1228 531 
z
" transform="scale(0.015625)"/>
       </defs>
       <use xlink:href="#DejaVuSans-32"/>
      </g>
     </g>
    </g>
    <g id="ytick_3">
     <g id="line2d_11">
      <g>
       <use xlink:href="#m643a758f39" x="30.406813" y="46.917413" style="stroke: #000000; stroke-width: 0.8"/>
      </g>
     </g>
     <g id="line2d_12">
      <g>
       <use xlink:href="#m0abbc76340" x="93.73077" y="46.917413" style="stroke: #000000; stroke-width: 0.8"/>
      </g>
     </g>
     <g id="text_6">
      <!-- 4 -->
      <g transform="translate(23.725563 48.817023) scale(0.05 -0.05)">
       <defs>
        <path id="DejaVuSans-34" d="M 2419 4116 
L 825 1625 
L 2419 1625 
L 2419 4116 
z
M 2253 4666 
L 3047 4666 
L 3047 1625 
L 3713 1625 
L 3713 1100 
L 3047 1100 
L 3047 0 
L 2419 0 
L 2419 1100 
L 313 1100 
L 313 1709 
L 2253 4666 
z
" transform="scale(0.015625)"/>
       </defs>
       <use xlink:href="#DejaVuSans-34"/>
      </g>
     </g>
    </g>
    <g id="ytick_4">
     <g id="line2d_13">
      <g>
       <use xlink:href="#m643a758f39" x="30.406813" y="34.751147" style="stroke: #000000; stroke-width: 0.8"/>
      </g>
     </g>
     <g id="line2d_14">
      <g>
       <use xlink:href="#m0abbc76340" x="93.73077" y="34.751147" style="stroke: #000000; stroke-width: 0.8"/>
      </g>
     </g>
     <g id="text_7">
      <!-- 6 -->
      <g transform="translate(23.725563 36.650756) scale(0.05 -0.05)">
       <defs>
        <path id="DejaVuSans-36" d="M 2113 2584 
Q 1688 2584 1439 2293 
Q 1191 2003 1191 1497 
Q 1191 994 1439 701 
Q 1688 409 2113 409 
Q 2538 409 2786 701 
Q 3034 994 3034 1497 
Q 3034 2003 2786 2293 
Q 2538 2584 2113 2584 
z
M 3366 4563 
L 3366 3988 
Q 3128 4100 2886 4159 
Q 2644 4219 2406 4219 
Q 1781 4219 1451 3797 
Q 1122 3375 1075 2522 
Q 1259 2794 1537 2939 
Q 1816 3084 2150 3084 
Q 2853 3084 3261 2657 
Q 3669 2231 3669 1497 
Q 3669 778 3244 343 
Q 2819 -91 2113 -91 
Q 1303 -91 875 529 
Q 447 1150 447 2328 
Q 447 3434 972 4092 
Q 1497 4750 2381 4750 
Q 2619 4750 2861 4703 
Q 3103 4656 3366 4563 
z
" transform="scale(0.015625)"/>
       </defs>
       <use xlink:href="#DejaVuSans-36"/>
      </g>
     </g>
    </g>
    <g id="ytick_5">
     <g id="line2d_15">
      <g>
       <use xlink:href="#m643a758f39" x="30.406813" y="22.584881" style="stroke: #000000; stroke-width: 0.8"/>
      </g>
     </g>
     <g id="line2d_16">
      <g>
       <use xlink:href="#m0abbc76340" x="93.73077" y="22.584881" style="stroke: #000000; stroke-width: 0.8"/>
      </g>
     </g>
     <g id="text_8">
      <!-- 8 -->
      <g transform="translate(23.725563 24.48449) scale(0.05 -0.05)">
       <defs>
        <path id="DejaVuSans-38" d="M 2034 2216 
Q 1584 2216 1326 1975 
Q 1069 1734 1069 1313 
Q 1069 891 1326 650 
Q 1584 409 2034 409 
Q 2484 409 2743 651 
Q 3003 894 3003 1313 
Q 3003 1734 2745 1975 
Q 2488 2216 2034 2216 
z
M 1403 2484 
Q 997 2584 770 2862 
Q 544 3141 544 3541 
Q 544 4100 942 4425 
Q 1341 4750 2034 4750 
Q 2731 4750 3128 4425 
Q 3525 4100 3525 3541 
Q 3525 3141 3298 2862 
Q 3072 2584 2669 2484 
Q 3125 2378 3379 2068 
Q 3634 1759 3634 1313 
Q 3634 634 3220 271 
Q 2806 -91 2034 -91 
Q 1263 -91 848 271 
Q 434 634 434 1313 
Q 434 1759 690 2068 
Q 947 2378 1403 2484 
z
M 1172 3481 
Q 1172 3119 1398 2916 
Q 1625 2713 2034 2713 
Q 2441 2713 2670 2916 
Q 2900 3119 2900 3481 
Q 2900 3844 2670 4047 
Q 2441 4250 2034 4250 
Q 1625 4250 1398 4047 
Q 1172 3844 1172 3481 
z
" transform="scale(0.015625)"/>
       </defs>
       <use xlink:href="#DejaVuSans-38"/>
      </g>
     </g>
    </g>
    <g id="text_9">
     <!-- Amplitude  -->
     <g transform="translate(11.759063 59.356869) rotate(-90) scale(0.06 -0.06)">
      <defs>
       <path id="DejaVuSans-41" d="M 2188 4044 
L 1331 1722 
L 3047 1722 
L 2188 4044 
z
M 1831 4666 
L 2547 4666 
L 4325 0 
L 3669 0 
L 3244 1197 
L 1141 1197 
L 716 0 
L 50 0 
L 1831 4666 
z
" transform="scale(0.015625)"/>
       <path id="DejaVuSans-6d" d="M 3328 2828 
Q 3544 3216 3844 3400 
Q 4144 3584 4550 3584 
Q 5097 3584 5394 3201 
Q 5691 2819 5691 2113 
L 5691 0 
L 5113 0 
L 5113 2094 
Q 5113 2597 4934 2840 
Q 4756 3084 4391 3084 
Q 3944 3084 3684 2787 
Q 3425 2491 3425 1978 
L 3425 0 
L 2847 0 
L 2847 2094 
Q 2847 2600 2669 2842 
Q 2491 3084 2119 3084 
Q 1678 3084 1418 2786 
Q 1159 2488 1159 1978 
L 1159 0 
L 581 0 
L 581 3500 
L 1159 3500 
L 1159 2956 
Q 1356 3278 1631 3431 
Q 1906 3584 2284 3584 
Q 2666 3584 2933 3390 
Q 3200 3197 3328 2828 
z
" transform="scale(0.015625)"/>
       <path id="DejaVuSans-70" d="M 1159 525 
L 1159 -1331 
L 581 -1331 
L 581 3500 
L 1159 3500 
L 1159 2969 
Q 1341 3281 1617 3432 
Q 1894 3584 2278 3584 
Q 2916 3584 3314 3078 
Q 3713 2572 3713 1747 
Q 3713 922 3314 415 
Q 2916 -91 2278 -91 
Q 1894 -91 1617 61 
Q 1341 213 1159 525 
z
M 3116 1747 
Q 3116 2381 2855 2742 
Q 2594 3103 2138 3103 
Q 1681 3103 1420 2742 
Q 1159 2381 1159 1747 
Q 1159 1113 1420 752 
Q 1681 391 2138 391 
Q 2594 391 2855 752 
Q 3116 1113 3116 1747 
z
" transform="scale(0.015625)"/>
       <path id="DejaVuSans-6c" d="M 603 4863 
L 1178 4863 
L 1178 0 
L 603 0 
L 603 4863 
z
" transform="scale(0.015625)"/>
       <path id="DejaVuSans-69" d="M 603 3500 
L 1178 3500 
L 1178 0 
L 603 0 
L 603 3500 
z
M 603 4863 
L 1178 4863 
L 1178 4134 
L 603 4134 
L 603 4863 
z
" transform="scale(0.015625)"/>
       <path id="DejaVuSans-74" d="M 1172 4494 
L 1172 3500 
L 2356 3500 
L 2356 3053 
L 1172 3053 
L 1172 1153 
Q 1172 725 1289 603 
Q 1406 481 1766 481 
L 2356 481 
L 2356 0 
L 1766 0 
Q 1100 0 847 248 
Q 594 497 594 1153 
L 594 3053 
L 172 3053 
L 172 3500 
L 594 3500 
L 594 4494 
L 1172 4494 
z
" transform="scale(0.015625)"/>
       <path id="DejaVuSans-75" d="M 544 1381 
L 544 3500 
L 1119 3500 
L 1119 1403 
Q 1119 906 1312 657 
Q 1506 409 1894 409 
Q 2359 409 2629 706 
Q 2900 1003 2900 1516 
L 2900 3500 
L 3475 3500 
L 3475 0 
L 2900 0 
L 2900 538 
Q 2691 219 2414 64 
Q 2138 -91 1772 -91 
Q 1169 -91 856 284 
Q 544 659 544 1381 
z
M 1991 3584 
L 1991 3584 
z
" transform="scale(0.015625)"/>
       <path id="DejaVuSans-64" d="M 2906 2969 
L 2906 4863 
L 3481 4863 
L 3481 0 
L 2906 0 
L 2906 525 
Q 2725 213 2448 61 
Q 2172 -91 1784 -91 
Q 1150 -91 751 415 
Q 353 922 353 1747 
Q 353 2572 751 3078 
Q 1150 3584 1784 3584 
Q 2172 3584 2448 3432 
Q 2725 3281 2906 2969 
z
M 947 1747 
Q 947 1113 1208 752 
Q 1469 391 1925 391 
Q 2381 391 2643 752 
Q 2906 1113 2906 1747 
Q 2906 2381 2643 2742 
Q 2381 3103 1925 3103 
Q 1469 3103 1208 2742 
Q 947 2381 947 1747 
z
" transform="scale(0.015625)"/>
       <path id="DejaVuSans-65" d="M 3597 1894 
L 3597 1613 
L 953 1613 
Q 991 1019 1311 708 
Q 1631 397 2203 397 
Q 2534 397 2845 478 
Q 3156 559 3463 722 
L 3463 178 
Q 3153 47 2828 -22 
Q 2503 -91 2169 -91 
Q 1331 -91 842 396 
Q 353 884 353 1716 
Q 353 2575 817 3079 
Q 1281 3584 2069 3584 
Q 2775 3584 3186 3129 
Q 3597 2675 3597 1894 
z
M 3022 2063 
Q 3016 2534 2758 2815 
Q 2500 3097 2075 3097 
Q 1594 3097 1305 2825 
Q 1016 2553 972 2059 
L 3022 2063 
z
" transform="scale(0.015625)"/>
       <path id="DejaVuSans-20" transform="scale(0.015625)"/>
      </defs>
      <use xlink:href="#DejaVuSans-41"/>
      <use xlink:href="#DejaVuSans-6d" x="68.408203"/>
      <use xlink:href="#DejaVuSans-70" x="165.820312"/>
      <use xlink:href="#DejaVuSans-6c" x="229.296875"/>
      <use xlink:href="#DejaVuSans-69" x="257.080078"/>
      <use xlink:href="#DejaVuSans-74" x="284.863281"/>
      <use xlink:href="#DejaVuSans-75" x="324.072266"/>
      <use xlink:href="#DejaVuSans-64" x="387.451172"/>
      <use xlink:href="#DejaVuSans-65" x="450.927734"/>
      <use xlink:href="#DejaVuSans-20" x="512.451172"/>
     </g>
     <!--  (Arb. U.) -->
     <g transform="translate(18.47775 56.570151) rotate(-90) scale(0.06 -0.06)">
      <defs>
       <path id="DejaVuSans-28" d="M 1984 4856 
Q 1566 4138 1362 3434 
Q 1159 2731 1159 2009 
Q 1159 1288 1364 580 
Q 1569 -128 1984 -844 
L 1484 -844 
Q 1016 -109 783 600 
Q 550 1309 550 2009 
Q 550 2706 781 3412 
Q 1013 4119 1484 4856 
L 1984 4856 
z
" transform="scale(0.015625)"/>
       <path id="DejaVuSans-72" d="M 2631 2963 
Q 2534 3019 2420 3045 
Q 2306 3072 2169 3072 
Q 1681 3072 1420 2755 
Q 1159 2438 1159 1844 
L 1159 0 
L 581 0 
L 581 3500 
L 1159 3500 
L 1159 2956 
Q 1341 3275 1631 3429 
Q 1922 3584 2338 3584 
Q 2397 3584 2469 3576 
Q 2541 3569 2628 3553 
L 2631 2963 
z
" transform="scale(0.015625)"/>
       <path id="DejaVuSans-62" d="M 3116 1747 
Q 3116 2381 2855 2742 
Q 2594 3103 2138 3103 
Q 1681 3103 1420 2742 
Q 1159 2381 1159 1747 
Q 1159 1113 1420 752 
Q 1681 391 2138 391 
Q 2594 391 2855 752 
Q 3116 1113 3116 1747 
z
M 1159 2969 
Q 1341 3281 1617 3432 
Q 1894 3584 2278 3584 
Q 2916 3584 3314 3078 
Q 3713 2572 3713 1747 
Q 3713 922 3314 415 
Q 2916 -91 2278 -91 
Q 1894 -91 1617 61 
Q 1341 213 1159 525 
L 1159 0 
L 581 0 
L 581 4863 
L 1159 4863 
L 1159 2969 
z
" transform="scale(0.015625)"/>
       <path id="DejaVuSans-2e" d="M 684 794 
L 1344 794 
L 1344 0 
L 684 0 
L 684 794 
z
" transform="scale(0.015625)"/>
       <path id="DejaVuSans-55" d="M 556 4666 
L 1191 4666 
L 1191 1831 
Q 1191 1081 1462 751 
Q 1734 422 2344 422 
Q 2950 422 3222 751 
Q 3494 1081 3494 1831 
L 3494 4666 
L 4128 4666 
L 4128 1753 
Q 4128 841 3676 375 
Q 3225 -91 2344 -91 
Q 1459 -91 1007 375 
Q 556 841 556 1753 
L 556 4666 
z
" transform="scale(0.015625)"/>
       <path id="DejaVuSans-29" d="M 513 4856 
L 1013 4856 
Q 1481 4119 1714 3412 
Q 1947 2706 1947 2009 
Q 1947 1309 1714 600 
Q 1481 -109 1013 -844 
L 513 -844 
Q 928 -128 1133 580 
Q 1338 1288 1338 2009 
Q 1338 2731 1133 3434 
Q 928 4138 513 4856 
z
" transform="scale(0.015625)"/>
      </defs>
      <use xlink:href="#DejaVuSans-20"/>
      <use xlink:href="#DejaVuSans-28" x="31.787109"/>
      <use xlink:href="#DejaVuSans-41" x="70.800781"/>
      <use xlink:href="#DejaVuSans-72" x="139.208984"/>
      <use xlink:href="#DejaVuSans-62" x="180.322266"/>
      <use xlink:href="#DejaVuSans-2e" x="243.798828"/>
      <use xlink:href="#DejaVuSans-20" x="275.585938"/>
      <use xlink:href="#DejaVuSans-55" x="307.373047"/>
      <use xlink:href="#DejaVuSans-2e" x="380.566406"/>
      <use xlink:href="#DejaVuSans-29" x="412.353516"/>
     </g>
    </g>
    <g id="text_10">
     <!-- 1e−5 -->
     <g transform="translate(30.406813 10.999219) scale(0.05 -0.05)">
      <defs>
       <path id="DejaVuSans-35" d="M 691 4666 
L 3169 4666 
L 3169 4134 
L 1269 4134 
L 1269 2991 
Q 1406 3038 1543 3061 
Q 1681 3084 1819 3084 
Q 2600 3084 3056 2656 
Q 3513 2228 3513 1497 
Q 3513 744 3044 326 
Q 2575 -91 1722 -91 
Q 1428 -91 1123 -41 
Q 819 9 494 109 
L 494 744 
Q 775 591 1075 516 
Q 1375 441 1709 441 
Q 2250 441 2565 725 
Q 2881 1009 2881 1497 
Q 2881 1984 2565 2268 
Q 2250 2553 1709 2553 
Q 1456 2553 1204 2497 
Q 953 2441 691 2322 
L 691 4666 
z
" transform="scale(0.015625)"/>
      </defs>
      <use xlink:href="#DejaVuSans-31"/>
      <use xlink:href="#DejaVuSans-65" x="63.623047"/>
      <use xlink:href="#DejaVuSans-2212" x="125.146484"/>
      <use xlink:href="#DejaVuSans-35" x="208.935547"/>
     </g>
    </g>
   </g>
   <g id="line2d_17">
    <path d="M 62.068791 32.873112 
L 63.268109 33.985267 
L 65.666743 23.942895 
L 66.866061 22.760526 
L 68.065378 19.46635 
L 69.264696 21.041443 
L 71.663331 18.566571 
L 72.862648 19.506857 
L 74.061965 21.109698 
L 75.261283 22.115954 
L 76.4606 26.558773 
L 77.659918 25.992157 
L 80.058552 51.611173 
L 81.25787 58.743265 
L 82.457186 69.107587 
L 83.656504 69.14898 
L 84.855822 61.516865 
L 86.055138 60.827435 
L 87.254456 55.855988 
L 88.453774 52.435452 
L 89.65309 44.536728 
L 90.852408 43.525123 
L 89.65309 44.41105 
L 87.254456 37.668487 
L 86.055138 38.842398 
L 84.855822 42.217848 
L 83.656504 41.854072 
L 82.457186 40.492784 
L 81.25787 42.949821 
L 80.058552 45.660882 
L 78.859234 46.243329 
L 77.659918 45.705456 
L 76.4606 48.45578 
L 75.261283 48.780709 
L 74.061965 46.678885 
L 72.862648 48.845785 
L 70.464013 46.322635 
L 69.264696 46.084146 
L 68.065378 41.342205 
L 66.866061 43.859448 
L 65.666743 40.754632 
L 64.467426 39.827876 
L 63.268109 35.63235 
L 62.068791 37.145187 
L 59.670156 29.673534 
L 58.470839 32.941123 
L 57.271522 30.496937 
L 56.072205 36.464094 
L 54.872887 35.635161 
L 52.474252 49.780709 
L 51.274935 52.645955 
L 50.075618 56.579856 
L 48.8763 63.632395 
L 47.676983 68.973813 
L 46.477665 58.848122 
L 45.278349 55.083749 
L 44.079031 45.901854 
L 42.879713 45.590954 
L 41.680396 45.904222 
L 40.481078 39.246026 
L 39.281761 38.212762 
L 38.082444 34.808912 
L 36.883126 29.035155 
L 35.683808 32.123063 
L 34.484492 26.457943 
L 33.285174 30.232356 
L 34.484492 27.057887 
L 35.683808 32.534293 
L 36.883126 33.54147 
L 38.082444 33.599128 
L 39.281761 36.907678 
L 40.481078 34.460424 
L 41.680396 36.652172 
L 42.879713 39.646129 
L 44.079031 39.91536 
L 45.278349 36.119565 
L 46.477665 41.687203 
L 47.676983 38.63679 
L 48.8763 38.354451 
L 50.075618 41.919279 
L 51.274935 40.937147 
L 52.474252 36.629883 
L 53.67357 35.156529 
L 54.872887 33.105078 
L 56.072205 40.784906 
L 57.271522 27.174345 
L 58.470839 28.694405 
L 59.670156 28.812767 
L 60.869474 29.154924 
L 62.068791 24.181681 
L 63.268109 21.037438 
L 64.467426 22.882871 
L 65.666743 20.134716 
L 66.866061 19.976019 
L 68.065378 18.9126 
L 69.264696 19.990081 
L 70.464013 21.737889 
L 71.663331 16.638366 
L 72.862648 19.649735 
L 74.061965 21.178673 
L 75.261283 26.449086 
L 76.4606 24.816675 
L 77.659918 32.863565 
L 80.058552 60.738632 
L 81.25787 65.704493 
L 82.457186 69.329193 
L 83.656504 65.246245 
L 84.855822 57.64564 
L 86.055138 54.625699 
L 87.254456 49.537408 
L 88.453774 45.50679 
L 89.65309 43.09348 
L 90.852408 38.352668 
L 89.65309 40.886672 
L 88.453774 35.661952 
L 87.254456 36.531427 
L 86.055138 38.932858 
L 84.855822 37.049077 
L 83.656504 41.170644 
L 82.457186 39.560671 
L 81.25787 35.422422 
L 80.058552 36.90379 
L 78.859234 39.728343 
L 77.659918 41.551611 
L 76.4606 39.84784 
L 75.261283 41.435975 
L 74.061965 40.475416 
L 72.862648 42.438983 
L 71.663331 41.51556 
L 70.464013 42.341574 
L 69.264696 42.414843 
L 68.065378 36.914837 
L 66.866061 41.55331 
L 65.666743 35.452887 
L 64.467426 32.724366 
L 63.268109 33.910289 
L 62.068791 31.44021 
L 60.869474 28.555321 
L 59.670156 30.248967 
L 58.470839 30.455801 
L 57.271522 32.529553 
L 56.072205 34.351623 
L 54.872887 36.86631 
L 53.67357 44.39603 
L 52.474252 44.234105 
L 51.274935 47.605651 
L 50.075618 54.973135 
L 48.8763 61.149473 
L 47.676983 69.42131 
L 45.278349 53.279466 
L 42.879713 44.152484 
L 41.680396 45.392956 
L 39.281761 38.2609 
L 38.082444 35.770634 
L 36.883126 31.41526 
L 35.683808 28.174374 
L 34.484492 26.895986 
L 33.285174 27.435461 
L 34.484492 26.357684 
L 35.683808 28.168169 
L 36.883126 30.287164 
L 38.082444 30.198062 
L 39.281761 33.112934 
L 40.481078 36.880241 
L 41.680396 33.804967 
L 42.879713 34.501292 
L 44.079031 40.058614 
L 45.278349 37.824796 
L 46.477665 38.516472 
L 47.676983 40.158269 
L 48.8763 37.726331 
L 50.075618 39.721545 
L 51.274935 38.447726 
L 52.474252 36.243766 
L 53.67357 36.667188 
L 54.872887 34.634674 
L 56.072205 35.679501 
L 57.271522 33.455374 
L 58.470839 32.019737 
L 60.869474 24.498291 
L 60.869474 24.498291 
" clip-path="url(#p7a937a2eb9)" style="fill: none; stroke: #1f77b4; stroke-width: 0.5; stroke-linecap: square"/>
   </g>
   <g id="patch_3">
    <path d="M 30.406813 72.060458 
L 30.406813 13.999219 
" style="fill: none; stroke: #000000; stroke-width: 0.8; stroke-linejoin: miter; stroke-linecap: square"/>
   </g>
   <g id="patch_4">
    <path d="M 93.73077 72.060458 
L 93.73077 13.999219 
" style="fill: none; stroke: #000000; stroke-width: 0.8; stroke-linejoin: miter; stroke-linecap: square"/>
   </g>
   <g id="patch_5">
    <path d="M 30.406812 72.060458 
L 93.73077 72.060458 
" style="fill: none; stroke: #000000; stroke-width: 0.8; stroke-linejoin: miter; stroke-linecap: square"/>
   </g>
   <g id="patch_6">
    <path d="M 30.406812 13.999219 
L 93.73077 13.999219 
" style="fill: none; stroke: #000000; stroke-width: 0.8; stroke-linejoin: miter; stroke-linecap: square"/>
   </g>
   <g id="text_11">
    <path d="M 35.405854 20.044093 
Q 34.968354 20.044093 34.747104 20.192843 
Q 34.527104 20.340343 34.527104 20.630343 
Q 34.527104 20.895343 34.704604 21.046593 
Q 34.883354 21.196593 35.199604 21.196593 
Q 35.593354 21.196593 35.863354 20.914093 
Q 36.133354 20.630343 36.133354 20.204093 
L 36.133354 20.044093 
L 35.405854 20.044093 
z
M 37.543354 19.516593 
L 37.543354 22.012843 
L 36.133354 22.012843 
L 36.133354 21.364093 
Q 35.852104 21.762843 35.499604 21.945343 
Q 35.148354 22.126593 34.644604 22.126593 
Q 33.964604 22.126593 33.540854 21.730343 
Q 33.117104 21.332843 33.117104 20.700343 
Q 33.117104 19.930343 33.645854 19.571593 
Q 34.175854 19.211593 35.308354 19.211593 
L 36.133354 19.211593 
L 36.133354 19.102843 
Q 36.133354 18.770343 35.870854 18.616593 
Q 35.609604 18.461593 35.054604 18.461593 
Q 34.605854 18.461593 34.218354 18.551593 
Q 33.832104 18.641593 33.499604 18.821593 
L 33.499604 17.755343 
Q 33.949604 17.645343 34.402104 17.589093 
Q 34.855854 17.532843 35.308354 17.532843 
Q 36.492104 17.532843 37.017104 17.999093 
Q 37.543354 18.465343 37.543354 19.516593 
z
"/>
    <path d="M 35.405854 20.044093 
Q 34.968354 20.044093 34.747104 20.192843 
Q 34.527104 20.340343 34.527104 20.630343 
Q 34.527104 20.895343 34.704604 21.046593 
Q 34.883354 21.196593 35.199604 21.196593 
Q 35.593354 21.196593 35.863354 20.914093 
Q 36.133354 20.630343 36.133354 20.204093 
L 36.133354 20.044093 
L 35.405854 20.044093 
z
M 37.543354 19.516593 
L 37.543354 22.012843 
L 36.133354 22.012843 
L 36.133354 21.364093 
Q 35.852104 21.762843 35.499604 21.945343 
Q 35.148354 22.126593 34.644604 22.126593 
Q 33.964604 22.126593 33.540854 21.730343 
Q 33.117104 21.332843 33.117104 20.700343 
Q 33.117104 19.930343 33.645854 19.571593 
Q 34.175854 19.211593 35.308354 19.211593 
L 36.133354 19.211593 
L 36.133354 19.102843 
Q 36.133354 18.770343 35.870854 18.616593 
Q 35.609604 18.461593 35.054604 18.461593 
Q 34.605854 18.461593 34.218354 18.551593 
Q 33.832104 18.641593 33.499604 18.821593 
L 33.499604 17.755343 
Q 33.949604 17.645343 34.402104 17.589093 
Q 34.855854 17.532843 35.308354 17.532843 
Q 36.492104 17.532843 37.017104 17.999093 
Q 37.543354 18.465343 37.543354 19.516593 
z
"/>
   </g>
  </g>
  <g id="axes_2">
   <g id="patch_7">
    <path d="M 134.070875 72.060458 
L 197.394833 72.060458 
L 197.394833 13.999219 
L 134.070875 13.999219 
z
" style="fill: #ffffff"/>
   </g>
   <g id="matplotlib.axis_3">
    <g id="xtick_4">
     <g id="line2d_18">
      <g>
       <use xlink:href="#m00d4fb1695" x="147.743093" y="72.060458" style="stroke: #000000; stroke-width: 0.8"/>
      </g>
     </g>
     <g id="line2d_19">
      <g>
       <use xlink:href="#m456c6d66f9" x="147.743093" y="13.999219" style="stroke: #000000; stroke-width: 0.8"/>
      </g>
     </g>
     <g id="text_12">
      <!-- −10 -->
      <g transform="translate(142.466921 79.359676) scale(0.05 -0.05)">
       <use xlink:href="#DejaVuSans-2212"/>
       <use xlink:href="#DejaVuSans-31" x="83.789062"/>
       <use xlink:href="#DejaVuSans-30" x="147.412109"/>
      </g>
     </g>
    </g>
    <g id="xtick_5">
     <g id="line2d_20">
      <g>
       <use xlink:href="#m00d4fb1695" x="165.732854" y="72.060458" style="stroke: #000000; stroke-width: 0.8"/>
      </g>
     </g>
     <g id="line2d_21">
      <g>
       <use xlink:href="#m456c6d66f9" x="165.732854" y="13.999219" style="stroke: #000000; stroke-width: 0.8"/>
      </g>
     </g>
     <g id="text_13">
      <!-- 0 -->
      <g transform="translate(164.142229 79.359676) scale(0.05 -0.05)">
       <use xlink:href="#DejaVuSans-30"/>
      </g>
     </g>
    </g>
    <g id="xtick_6">
     <g id="line2d_22">
      <g>
       <use xlink:href="#m00d4fb1695" x="183.722614" y="72.060458" style="stroke: #000000; stroke-width: 0.8"/>
      </g>
     </g>
     <g id="line2d_23">
      <g>
       <use xlink:href="#m456c6d66f9" x="183.722614" y="13.999219" style="stroke: #000000; stroke-width: 0.8"/>
      </g>
     </g>
     <g id="text_14">
      <!-- 10 -->
      <g transform="translate(180.541364 79.359676) scale(0.05 -0.05)">
       <use xlink:href="#DejaVuSans-31"/>
       <use xlink:href="#DejaVuSans-30" x="63.623047"/>
      </g>
     </g>
    </g>
   </g>
   <g id="matplotlib.axis_4">
    <g id="ytick_6">
     <g id="line2d_24">
      <g>
       <use xlink:href="#m643a758f39" x="134.070875" y="67.510379" style="stroke: #000000; stroke-width: 0.8"/>
      </g>
     </g>
     <g id="line2d_25">
      <g>
       <use xlink:href="#m0abbc76340" x="197.394833" y="67.510379" style="stroke: #000000; stroke-width: 0.8"/>
      </g>
     </g>
     <g id="text_15">
      <!-- 1.310 -->
      <g transform="translate(116.256812 69.409988) scale(0.05 -0.05)">
       <defs>
        <path id="DejaVuSans-33" d="M 2597 2516 
Q 3050 2419 3304 2112 
Q 3559 1806 3559 1356 
Q 3559 666 3084 287 
Q 2609 -91 1734 -91 
Q 1441 -91 1130 -33 
Q 819 25 488 141 
L 488 750 
Q 750 597 1062 519 
Q 1375 441 1716 441 
Q 2309 441 2620 675 
Q 2931 909 2931 1356 
Q 2931 1769 2642 2001 
Q 2353 2234 1838 2234 
L 1294 2234 
L 1294 2753 
L 1863 2753 
Q 2328 2753 2575 2939 
Q 2822 3125 2822 3475 
Q 2822 3834 2567 4026 
Q 2313 4219 1838 4219 
Q 1578 4219 1281 4162 
Q 984 4106 628 3988 
L 628 4550 
Q 988 4650 1302 4700 
Q 1616 4750 1894 4750 
Q 2613 4750 3031 4423 
Q 3450 4097 3450 3541 
Q 3450 3153 3228 2886 
Q 3006 2619 2597 2516 
z
" transform="scale(0.015625)"/>
       </defs>
       <use xlink:href="#DejaVuSans-31"/>
       <use xlink:href="#DejaVuSans-2e" x="63.623047"/>
       <use xlink:href="#DejaVuSans-33" x="95.410156"/>
       <use xlink:href="#DejaVuSans-31" x="159.033203"/>
       <use xlink:href="#DejaVuSans-30" x="222.65625"/>
      </g>
     </g>
    </g>
    <g id="ytick_7">
     <g id="line2d_26">
      <g>
       <use xlink:href="#m643a758f39" x="134.070875" y="45.277322" style="stroke: #000000; stroke-width: 0.8"/>
      </g>
     </g>
     <g id="line2d_27">
      <g>
       <use xlink:href="#m0abbc76340" x="197.394833" y="45.277322" style="stroke: #000000; stroke-width: 0.8"/>
      </g>
     </g>
     <g id="text_16">
      <!-- 1.315 -->
      <g transform="translate(116.256812 47.176932) scale(0.05 -0.05)">
       <use xlink:href="#DejaVuSans-31"/>
       <use xlink:href="#DejaVuSans-2e" x="63.623047"/>
       <use xlink:href="#DejaVuSans-33" x="95.410156"/>
       <use xlink:href="#DejaVuSans-31" x="159.033203"/>
       <use xlink:href="#DejaVuSans-35" x="222.65625"/>
      </g>
     </g>
    </g>
    <g id="ytick_8">
     <g id="line2d_28">
      <g>
       <use xlink:href="#m643a758f39" x="134.070875" y="23.044265" style="stroke: #000000; stroke-width: 0.8"/>
      </g>
     </g>
     <g id="line2d_29">
      <g>
       <use xlink:href="#m0abbc76340" x="197.394833" y="23.044265" style="stroke: #000000; stroke-width: 0.8"/>
      </g>
     </g>
     <g id="text_17">
      <!-- 1.320 -->
      <g transform="translate(116.256812 24.943875) scale(0.05 -0.05)">
       <use xlink:href="#DejaVuSans-31"/>
       <use xlink:href="#DejaVuSans-2e" x="63.623047"/>
       <use xlink:href="#DejaVuSans-33" x="95.410156"/>
       <use xlink:href="#DejaVuSans-32" x="159.033203"/>
       <use xlink:href="#DejaVuSans-30" x="222.65625"/>
      </g>
     </g>
    </g>
    <g id="text_18">
     <!-- Resonance Frequency  -->
     <g transform="translate(104.290312 76.764838) rotate(-90) scale(0.06 -0.06)">
      <defs>
       <path id="DejaVuSans-52" d="M 2841 2188 
Q 3044 2119 3236 1894 
Q 3428 1669 3622 1275 
L 4263 0 
L 3584 0 
L 2988 1197 
Q 2756 1666 2539 1819 
Q 2322 1972 1947 1972 
L 1259 1972 
L 1259 0 
L 628 0 
L 628 4666 
L 2053 4666 
Q 2853 4666 3247 4331 
Q 3641 3997 3641 3322 
Q 3641 2881 3436 2590 
Q 3231 2300 2841 2188 
z
M 1259 4147 
L 1259 2491 
L 2053 2491 
Q 2509 2491 2742 2702 
Q 2975 2913 2975 3322 
Q 2975 3731 2742 3939 
Q 2509 4147 2053 4147 
L 1259 4147 
z
" transform="scale(0.015625)"/>
       <path id="DejaVuSans-73" d="M 2834 3397 
L 2834 2853 
Q 2591 2978 2328 3040 
Q 2066 3103 1784 3103 
Q 1356 3103 1142 2972 
Q 928 2841 928 2578 
Q 928 2378 1081 2264 
Q 1234 2150 1697 2047 
L 1894 2003 
Q 2506 1872 2764 1633 
Q 3022 1394 3022 966 
Q 3022 478 2636 193 
Q 2250 -91 1575 -91 
Q 1294 -91 989 -36 
Q 684 19 347 128 
L 347 722 
Q 666 556 975 473 
Q 1284 391 1588 391 
Q 1994 391 2212 530 
Q 2431 669 2431 922 
Q 2431 1156 2273 1281 
Q 2116 1406 1581 1522 
L 1381 1569 
Q 847 1681 609 1914 
Q 372 2147 372 2553 
Q 372 3047 722 3315 
Q 1072 3584 1716 3584 
Q 2034 3584 2315 3537 
Q 2597 3491 2834 3397 
z
" transform="scale(0.015625)"/>
       <path id="DejaVuSans-6f" d="M 1959 3097 
Q 1497 3097 1228 2736 
Q 959 2375 959 1747 
Q 959 1119 1226 758 
Q 1494 397 1959 397 
Q 2419 397 2687 759 
Q 2956 1122 2956 1747 
Q 2956 2369 2687 2733 
Q 2419 3097 1959 3097 
z
M 1959 3584 
Q 2709 3584 3137 3096 
Q 3566 2609 3566 1747 
Q 3566 888 3137 398 
Q 2709 -91 1959 -91 
Q 1206 -91 779 398 
Q 353 888 353 1747 
Q 353 2609 779 3096 
Q 1206 3584 1959 3584 
z
" transform="scale(0.015625)"/>
       <path id="DejaVuSans-6e" d="M 3513 2113 
L 3513 0 
L 2938 0 
L 2938 2094 
Q 2938 2591 2744 2837 
Q 2550 3084 2163 3084 
Q 1697 3084 1428 2787 
Q 1159 2491 1159 1978 
L 1159 0 
L 581 0 
L 581 3500 
L 1159 3500 
L 1159 2956 
Q 1366 3272 1645 3428 
Q 1925 3584 2291 3584 
Q 2894 3584 3203 3211 
Q 3513 2838 3513 2113 
z
" transform="scale(0.015625)"/>
       <path id="DejaVuSans-61" d="M 2194 1759 
Q 1497 1759 1228 1600 
Q 959 1441 959 1056 
Q 959 750 1161 570 
Q 1363 391 1709 391 
Q 2188 391 2477 730 
Q 2766 1069 2766 1631 
L 2766 1759 
L 2194 1759 
z
M 3341 1997 
L 3341 0 
L 2766 0 
L 2766 531 
Q 2569 213 2275 61 
Q 1981 -91 1556 -91 
Q 1019 -91 701 211 
Q 384 513 384 1019 
Q 384 1609 779 1909 
Q 1175 2209 1959 2209 
L 2766 2209 
L 2766 2266 
Q 2766 2663 2505 2880 
Q 2244 3097 1772 3097 
Q 1472 3097 1187 3025 
Q 903 2953 641 2809 
L 641 3341 
Q 956 3463 1253 3523 
Q 1550 3584 1831 3584 
Q 2591 3584 2966 3190 
Q 3341 2797 3341 1997 
z
" transform="scale(0.015625)"/>
       <path id="DejaVuSans-63" d="M 3122 3366 
L 3122 2828 
Q 2878 2963 2633 3030 
Q 2388 3097 2138 3097 
Q 1578 3097 1268 2742 
Q 959 2388 959 1747 
Q 959 1106 1268 751 
Q 1578 397 2138 397 
Q 2388 397 2633 464 
Q 2878 531 3122 666 
L 3122 134 
Q 2881 22 2623 -34 
Q 2366 -91 2075 -91 
Q 1284 -91 818 406 
Q 353 903 353 1747 
Q 353 2603 823 3093 
Q 1294 3584 2113 3584 
Q 2378 3584 2631 3529 
Q 2884 3475 3122 3366 
z
" transform="scale(0.015625)"/>
       <path id="DejaVuSans-46" d="M 628 4666 
L 3309 4666 
L 3309 4134 
L 1259 4134 
L 1259 2759 
L 3109 2759 
L 3109 2228 
L 1259 2228 
L 1259 0 
L 628 0 
L 628 4666 
z
" transform="scale(0.015625)"/>
       <path id="DejaVuSans-71" d="M 947 1747 
Q 947 1113 1208 752 
Q 1469 391 1925 391 
Q 2381 391 2643 752 
Q 2906 1113 2906 1747 
Q 2906 2381 2643 2742 
Q 2381 3103 1925 3103 
Q 1469 3103 1208 2742 
Q 947 2381 947 1747 
z
M 2906 525 
Q 2725 213 2448 61 
Q 2172 -91 1784 -91 
Q 1150 -91 751 415 
Q 353 922 353 1747 
Q 353 2572 751 3078 
Q 1150 3584 1784 3584 
Q 2172 3584 2448 3432 
Q 2725 3281 2906 2969 
L 2906 3500 
L 3481 3500 
L 3481 -1331 
L 2906 -1331 
L 2906 525 
z
" transform="scale(0.015625)"/>
       <path id="DejaVuSans-79" d="M 2059 -325 
Q 1816 -950 1584 -1140 
Q 1353 -1331 966 -1331 
L 506 -1331 
L 506 -850 
L 844 -850 
Q 1081 -850 1212 -737 
Q 1344 -625 1503 -206 
L 1606 56 
L 191 3500 
L 800 3500 
L 1894 763 
L 2988 3500 
L 3597 3500 
L 2059 -325 
z
" transform="scale(0.015625)"/>
      </defs>
      <use xlink:href="#DejaVuSans-52"/>
      <use xlink:href="#DejaVuSans-65" x="64.982422"/>
      <use xlink:href="#DejaVuSans-73" x="126.505859"/>
      <use xlink:href="#DejaVuSans-6f" x="178.605469"/>
      <use xlink:href="#DejaVuSans-6e" x="239.787109"/>
      <use xlink:href="#DejaVuSans-61" x="303.166016"/>
      <use xlink:href="#DejaVuSans-6e" x="364.445312"/>
      <use xlink:href="#DejaVuSans-63" x="427.824219"/>
      <use xlink:href="#DejaVuSans-65" x="482.804688"/>
      <use xlink:href="#DejaVuSans-20" x="544.328125"/>
      <use xlink:href="#DejaVuSans-46" x="576.115234"/>
      <use xlink:href="#DejaVuSans-72" x="626.384766"/>
      <use xlink:href="#DejaVuSans-65" x="665.248047"/>
      <use xlink:href="#DejaVuSans-71" x="726.771484"/>
      <use xlink:href="#DejaVuSans-75" x="790.248047"/>
      <use xlink:href="#DejaVuSans-65" x="853.626953"/>
      <use xlink:href="#DejaVuSans-6e" x="915.150391"/>
      <use xlink:href="#DejaVuSans-63" x="978.529297"/>
      <use xlink:href="#DejaVuSans-79" x="1033.509766"/>
      <use xlink:href="#DejaVuSans-20" x="1092.689453"/>
     </g>
     <!--  (Hz) -->
     <g transform="translate(111.009 50.154838) rotate(-90) scale(0.06 -0.06)">
      <defs>
       <path id="DejaVuSans-48" d="M 628 4666 
L 1259 4666 
L 1259 2753 
L 3553 2753 
L 3553 4666 
L 4184 4666 
L 4184 0 
L 3553 0 
L 3553 2222 
L 1259 2222 
L 1259 0 
L 628 0 
L 628 4666 
z
" transform="scale(0.015625)"/>
       <path id="DejaVuSans-7a" d="M 353 3500 
L 3084 3500 
L 3084 2975 
L 922 459 
L 3084 459 
L 3084 0 
L 275 0 
L 275 525 
L 2438 3041 
L 353 3041 
L 353 3500 
z
" transform="scale(0.015625)"/>
      </defs>
      <use xlink:href="#DejaVuSans-20"/>
      <use xlink:href="#DejaVuSans-28" x="31.787109"/>
      <use xlink:href="#DejaVuSans-48" x="70.800781"/>
      <use xlink:href="#DejaVuSans-7a" x="145.996094"/>
      <use xlink:href="#DejaVuSans-29" x="198.486328"/>
     </g>
    </g>
    <g id="text_19">
     <!-- 1e6 -->
     <g transform="translate(134.070875 10.999219) scale(0.05 -0.05)">
      <use xlink:href="#DejaVuSans-31"/>
      <use xlink:href="#DejaVuSans-65" x="63.623047"/>
      <use xlink:href="#DejaVuSans-36" x="125.146484"/>
     </g>
    </g>
   </g>
   <g id="line2d_30">
    <path d="M 165.732854 32.065328 
L 166.932171 30.321145 
L 168.131489 32.917966 
L 169.330806 33.564392 
L 170.530123 30.764139 
L 171.72944 30.845289 
L 172.928758 30.01822 
L 174.128075 29.750311 
L 175.327393 28.69702 
L 176.52671 29.243953 
L 177.726027 28.916572 
L 178.925345 28.27348 
L 180.124662 28.662003 
L 181.32398 29.303427 
L 182.523296 27.174612 
L 183.722614 34.054631 
L 184.921932 31.324412 
L 186.121249 69.42131 
L 187.320567 69.42131 
L 188.519884 29.628585 
L 189.719201 25.103602 
L 190.918519 25.285913 
L 192.117837 26.977293 
L 193.317153 26.409239 
L 194.516471 27.288556 
L 193.317153 24.847922 
L 192.117837 26.318639 
L 190.918519 27.291891 
L 189.719201 22.871959 
L 188.519884 26.365328 
L 187.320567 26.664919 
L 186.121249 24.513871 
L 184.921932 24.506645 
L 183.722614 25.243671 
L 182.523296 24.235401 
L 181.32398 24.428829 
L 178.925345 23.450019 
L 177.726027 23.690692 
L 176.52671 25.891208 
L 175.327393 24.333783 
L 174.128075 22.343924 
L 172.928758 24.357683 
L 171.72944 25.192535 
L 170.530123 22.928654 
L 169.330806 23.113744 
L 168.131489 25.189755 
L 166.932171 22.345036 
L 165.732854 21.954846 
L 164.533536 22.70799 
L 163.334219 22.33114 
L 162.134902 22.561252 
L 160.935584 22.335587 
L 159.736267 23.608985 
L 158.536949 21.978746 
L 157.337632 22.860287 
L 156.138314 21.228381 
L 154.938997 22.676864 
L 153.73968 22.784139 
L 152.540362 21.018834 
L 151.341045 69.42131 
L 150.141727 24.666167 
L 148.942411 24.638931 
L 147.743093 25.429317 
L 146.543775 25.295362 
L 145.344459 22.933656 
L 144.145141 27.687084 
L 142.945823 26.517069 
L 141.746507 26.404792 
L 140.547189 27.018424 
L 139.347871 25.812281 
L 138.148555 24.01585 
L 136.949237 25.132505 
L 138.148555 23.481145 
L 139.347871 23.685689 
L 140.547189 22.048225 
L 141.746507 24.466625 
L 142.945823 25.721125 
L 144.145141 22.820267 
L 145.344459 23.789629 
L 146.543775 25.143066 
L 147.743093 25.590506 
L 148.942411 26.199136 
L 150.141727 26.151335 
L 151.341045 25.81506 
L 152.540362 25.887318 
L 154.938997 28.113402 
L 156.138314 25.381516 
L 157.337632 26.90448 
L 158.536949 25.828956 
L 159.736267 27.219078 
L 160.935584 26.619897 
L 162.134902 26.402013 
L 163.334219 23.699029 
L 164.533536 26.964509 
L 165.732854 25.464334 
L 166.932171 23.417781 
L 168.131489 23.62566 
L 169.330806 23.066499 
L 170.530123 21.774202 
L 171.72944 23.261594 
L 172.928758 21.426811 
L 174.128075 20.737586 
L 175.327393 19.282988 
L 176.52671 21.017722 
L 177.726027 19.076221 
L 178.925345 20.953802 
L 180.124662 19.458073 
L 181.32398 20.596962 
L 182.523296 20.257908 
L 183.722614 22.530682 
L 184.921932 17.650526 
L 186.121249 69.42131 
L 187.320567 21.652476 
L 188.519884 20.829853 
L 189.719201 20.246235 
L 190.918519 19.210175 
L 192.117837 19.006187 
L 193.317153 18.246372 
L 194.516471 20.524704 
L 193.317153 17.659975 
L 192.117837 19.710974 
L 190.918519 20.196767 
L 189.719201 18.871677 
L 188.519884 19.798239 
L 187.320567 20.067815 
L 186.121249 19.130692 
L 183.722614 17.775587 
L 182.523296 17.524909 
L 181.32398 20.278473 
L 180.124662 20.087825 
L 177.726027 18.460921 
L 176.52671 20.835967 
L 175.327393 20.11506 
L 174.128075 18.298064 
L 172.928758 20.486908 
L 171.72944 19.195723 
L 170.530123 18.524285 
L 169.330806 18.311959 
L 168.131489 17.273676 
L 166.932171 18.565416 
L 165.732854 17.765026 
L 164.533536 17.186967 
L 162.134902 16.844578 
L 160.935584 19.739877 
L 159.736267 19.323563 
L 158.536949 19.167932 
L 157.337632 19.239078 
L 156.138314 17.531579 
L 154.938997 18.673246 
L 153.73968 19.225182 
L 152.540362 16.638366 
L 151.341045 69.42131 
L 150.141727 21.395684 
L 148.942411 17.249775 
L 147.743093 17.43153 
L 146.543775 19.216289 
L 145.344459 22.818044 
L 144.145141 21.800326 
L 142.945823 22.43508 
L 141.746507 21.187249 
L 140.547189 22.020989 
L 139.347871 20.752037 
L 138.148555 20.26958 
L 136.949237 20.122286 
L 138.148555 20.650321 
L 139.347871 19.494202 
L 140.547189 19.792681 
L 141.746507 22.567922 
L 142.945823 21.620238 
L 144.145141 21.147786 
L 145.344459 19.918853 
L 146.543775 19.644831 
L 147.743093 20.658658 
L 148.942411 23.65623 
L 150.141727 22.004314 
L 151.341045 22.343368 
L 152.540362 22.808595 
L 153.73968 22.548468 
L 154.938997 22.121594 
L 156.138314 23.492262 
L 157.337632 22.992574 
L 158.536949 24.006957 
L 159.736267 22.911423 
L 160.935584 24.019185 
L 162.134902 23.208234 
L 164.533536 22.916981 
L 164.533536 22.916981 
" clip-path="url(#pa371e2c89d)" style="fill: none; stroke: #1f77b4; stroke-width: 0.5; stroke-linecap: square"/>
   </g>
   <g id="patch_8">
    <path d="M 134.070875 72.060457 
L 134.070875 13.999219 
" style="fill: none; stroke: #000000; stroke-width: 0.8; stroke-linejoin: miter; stroke-linecap: square"/>
   </g>
   <g id="patch_9">
    <path d="M 197.394833 72.060457 
L 197.394833 13.999219 
" style="fill: none; stroke: #000000; stroke-width: 0.8; stroke-linejoin: miter; stroke-linecap: square"/>
   </g>
   <g id="patch_10">
    <path d="M 134.070875 72.060458 
L 197.394833 72.060458 
" style="fill: none; stroke: #000000; stroke-width: 0.8; stroke-linejoin: miter; stroke-linecap: square"/>
   </g>
   <g id="patch_11">
    <path d="M 134.070875 13.999219 
L 197.394833 13.999219 
" style="fill: none; stroke: #000000; stroke-width: 0.8; stroke-linejoin: miter; stroke-linecap: square"/>
   </g>
   <g id="text_20">
    <path d="M 139.273667 21.110343 
Q 139.722417 21.110343 139.958667 20.782843 
Q 140.196167 20.454093 140.196167 19.829093 
Q 140.196167 19.204093 139.958667 18.876593 
Q 139.722417 18.547843 139.273667 18.547843 
Q 138.824917 18.547843 138.583667 18.877843 
Q 138.343667 19.207843 138.343667 19.829093 
Q 138.343667 20.450343 138.583667 20.780343 
Q 138.824917 21.110343 139.273667 21.110343 
z
M 138.343667 18.277843 
Q 138.633667 17.895343 138.984917 17.714093 
Q 139.336167 17.532843 139.793667 17.532843 
Q 140.602417 17.532843 141.121167 18.175343 
Q 141.641167 18.817843 141.641167 19.829093 
Q 141.641167 20.840343 141.121167 21.484093 
Q 140.602417 22.126593 139.793667 22.126593 
Q 139.336167 22.126593 138.984917 21.945343 
Q 138.633667 21.762843 138.343667 21.380343 
L 138.343667 22.012843 
L 136.946167 22.012843 
L 136.946167 15.934093 
L 138.343667 15.934093 
L 138.343667 18.277843 
z
"/>
    <path d="M 139.273667 21.110343 
Q 139.722417 21.110343 139.958667 20.782843 
Q 140.196167 20.454093 140.196167 19.829093 
Q 140.196167 19.204093 139.958667 18.876593 
Q 139.722417 18.547843 139.273667 18.547843 
Q 138.824917 18.547843 138.583667 18.877843 
Q 138.343667 19.207843 138.343667 19.829093 
Q 138.343667 20.450343 138.583667 20.780343 
Q 138.824917 21.110343 139.273667 21.110343 
z
M 138.343667 18.277843 
Q 138.633667 17.895343 138.984917 17.714093 
Q 139.336167 17.532843 139.793667 17.532843 
Q 140.602417 17.532843 141.121167 18.175343 
Q 141.641167 18.817843 141.641167 19.829093 
Q 141.641167 20.840343 141.121167 21.484093 
Q 140.602417 22.126593 139.793667 22.126593 
Q 139.336167 22.126593 138.984917 21.945343 
Q 138.633667 21.762843 138.343667 21.380343 
L 138.343667 22.012843 
L 136.946167 22.012843 
L 136.946167 15.934093 
L 138.343667 15.934093 
L 138.343667 18.277843 
z
"/>
   </g>
  </g>
  <g id="axes_3">
   <g id="patch_12">
    <path d="M 237.154469 72.060458 
L 300.478426 72.060458 
L 300.478426 13.999219 
L 237.154469 13.999219 
z
" style="fill: #ffffff"/>
   </g>
   <g id="matplotlib.axis_5">
    <g id="xtick_7">
     <g id="line2d_31">
      <g>
       <use xlink:href="#m00d4fb1695" x="250.826687" y="72.060458" style="stroke: #000000; stroke-width: 0.8"/>
      </g>
     </g>
     <g id="line2d_32">
      <g>
       <use xlink:href="#m456c6d66f9" x="250.826687" y="13.999219" style="stroke: #000000; stroke-width: 0.8"/>
      </g>
     </g>
     <g id="text_21">
      <!-- −10 -->
      <g transform="translate(245.550515 79.359676) scale(0.05 -0.05)">
       <use xlink:href="#DejaVuSans-2212"/>
       <use xlink:href="#DejaVuSans-31" x="83.789062"/>
       <use xlink:href="#DejaVuSans-30" x="147.412109"/>
      </g>
     </g>
    </g>
    <g id="xtick_8">
     <g id="line2d_33">
      <g>
       <use xlink:href="#m00d4fb1695" x="268.816448" y="72.060458" style="stroke: #000000; stroke-width: 0.8"/>
      </g>
     </g>
     <g id="line2d_34">
      <g>
       <use xlink:href="#m456c6d66f9" x="268.816448" y="13.999219" style="stroke: #000000; stroke-width: 0.8"/>
      </g>
     </g>
     <g id="text_22">
      <!-- 0 -->
      <g transform="translate(267.225823 79.359676) scale(0.05 -0.05)">
       <use xlink:href="#DejaVuSans-30"/>
      </g>
     </g>
    </g>
    <g id="xtick_9">
     <g id="line2d_35">
      <g>
       <use xlink:href="#m00d4fb1695" x="286.806208" y="72.060458" style="stroke: #000000; stroke-width: 0.8"/>
      </g>
     </g>
     <g id="line2d_36">
      <g>
       <use xlink:href="#m456c6d66f9" x="286.806208" y="13.999219" style="stroke: #000000; stroke-width: 0.8"/>
      </g>
     </g>
     <g id="text_23">
      <!-- 10 -->
      <g transform="translate(283.624958 79.359676) scale(0.05 -0.05)">
       <use xlink:href="#DejaVuSans-31"/>
       <use xlink:href="#DejaVuSans-30" x="63.623047"/>
      </g>
     </g>
    </g>
   </g>
   <g id="matplotlib.axis_6">
    <g id="ytick_9">
     <g id="line2d_37">
      <g>
       <use xlink:href="#m643a758f39" x="237.154469" y="61.179495" style="stroke: #000000; stroke-width: 0.8"/>
      </g>
     </g>
     <g id="line2d_38">
      <g>
       <use xlink:href="#m0abbc76340" x="300.478426" y="61.179495" style="stroke: #000000; stroke-width: 0.8"/>
      </g>
     </g>
     <g id="text_24">
      <!-- −200 -->
      <g transform="translate(219.920875 63.079105) scale(0.05 -0.05)">
       <use xlink:href="#DejaVuSans-2212"/>
       <use xlink:href="#DejaVuSans-32" x="83.789062"/>
       <use xlink:href="#DejaVuSans-30" x="147.412109"/>
       <use xlink:href="#DejaVuSans-30" x="211.035156"/>
      </g>
     </g>
    </g>
    <g id="ytick_10">
     <g id="line2d_39">
      <g>
       <use xlink:href="#m643a758f39" x="237.154469" y="38.908931" style="stroke: #000000; stroke-width: 0.8"/>
      </g>
     </g>
     <g id="line2d_40">
      <g>
       <use xlink:href="#m0abbc76340" x="300.478426" y="38.908931" style="stroke: #000000; stroke-width: 0.8"/>
      </g>
     </g>
     <g id="text_25">
      <!-- 0 -->
      <g transform="translate(230.473219 40.80854) scale(0.05 -0.05)">
       <use xlink:href="#DejaVuSans-30"/>
      </g>
     </g>
    </g>
    <g id="ytick_11">
     <g id="line2d_41">
      <g>
       <use xlink:href="#m643a758f39" x="237.154469" y="16.638366" style="stroke: #000000; stroke-width: 0.8"/>
      </g>
     </g>
     <g id="line2d_42">
      <g>
       <use xlink:href="#m0abbc76340" x="300.478426" y="16.638366" style="stroke: #000000; stroke-width: 0.8"/>
      </g>
     </g>
     <g id="text_26">
      <!-- 200 -->
      <g transform="translate(224.110719 18.537975) scale(0.05 -0.05)">
       <use xlink:href="#DejaVuSans-32"/>
       <use xlink:href="#DejaVuSans-30" x="63.623047"/>
       <use xlink:href="#DejaVuSans-30" x="127.246094"/>
      </g>
     </g>
    </g>
    <g id="text_27">
     <!-- Quality Factor  -->
     <g transform="translate(207.954375 64.841244) rotate(-90) scale(0.06 -0.06)">
      <defs>
       <path id="DejaVuSans-51" d="M 2522 4238 
Q 1834 4238 1429 3725 
Q 1025 3213 1025 2328 
Q 1025 1447 1429 934 
Q 1834 422 2522 422 
Q 3209 422 3611 934 
Q 4013 1447 4013 2328 
Q 4013 3213 3611 3725 
Q 3209 4238 2522 4238 
z
M 3406 84 
L 4238 -825 
L 3475 -825 
L 2784 -78 
Q 2681 -84 2626 -87 
Q 2572 -91 2522 -91 
Q 1538 -91 948 567 
Q 359 1225 359 2328 
Q 359 3434 948 4092 
Q 1538 4750 2522 4750 
Q 3503 4750 4090 4092 
Q 4678 3434 4678 2328 
Q 4678 1516 4351 937 
Q 4025 359 3406 84 
z
" transform="scale(0.015625)"/>
      </defs>
      <use xlink:href="#DejaVuSans-51"/>
      <use xlink:href="#DejaVuSans-75" x="78.710938"/>
      <use xlink:href="#DejaVuSans-61" x="142.089844"/>
      <use xlink:href="#DejaVuSans-6c" x="203.369141"/>
      <use xlink:href="#DejaVuSans-69" x="231.152344"/>
      <use xlink:href="#DejaVuSans-74" x="258.935547"/>
      <use xlink:href="#DejaVuSans-79" x="298.144531"/>
      <use xlink:href="#DejaVuSans-20" x="357.324219"/>
      <use xlink:href="#DejaVuSans-46" x="389.111328"/>
      <use xlink:href="#DejaVuSans-61" x="437.505859"/>
      <use xlink:href="#DejaVuSans-63" x="498.785156"/>
      <use xlink:href="#DejaVuSans-74" x="553.765625"/>
      <use xlink:href="#DejaVuSans-6f" x="592.974609"/>
      <use xlink:href="#DejaVuSans-72" x="654.15625"/>
      <use xlink:href="#DejaVuSans-20" x="695.269531"/>
     </g>
     <!--  (Arb. U.) -->
     <g transform="translate(214.673063 56.570151) rotate(-90) scale(0.06 -0.06)">
      <use xlink:href="#DejaVuSans-20"/>
      <use xlink:href="#DejaVuSans-28" x="31.787109"/>
      <use xlink:href="#DejaVuSans-41" x="70.800781"/>
      <use xlink:href="#DejaVuSans-72" x="139.208984"/>
      <use xlink:href="#DejaVuSans-62" x="180.322266"/>
      <use xlink:href="#DejaVuSans-2e" x="243.798828"/>
      <use xlink:href="#DejaVuSans-20" x="275.585938"/>
      <use xlink:href="#DejaVuSans-55" x="307.373047"/>
      <use xlink:href="#DejaVuSans-2e" x="380.566406"/>
      <use xlink:href="#DejaVuSans-29" x="412.353516"/>
     </g>
    </g>
   </g>
   <g id="line2d_43">
    <path d="M 268.816448 60.453935 
L 270.015765 62.678405 
L 272.4144 58.727193 
L 273.613717 58.706286 
L 276.012352 60.681444 
L 278.410987 60.020603 
L 279.610304 58.754173 
L 280.809621 60.01384 
L 282.008939 59.815158 
L 283.208256 60.146636 
L 284.407574 57.184444 
L 285.60689 59.475865 
L 286.806208 58.672516 
L 288.005526 59.515726 
L 289.204842 16.638366 
L 290.40416 16.638366 
L 291.603478 54.13797 
L 292.802794 62.927165 
L 294.002112 62.70738 
L 295.20143 63.539891 
L 296.400747 58.62491 
L 297.600065 61.098963 
L 296.400747 61.362916 
L 295.20143 61.11375 
L 294.002112 59.057828 
L 292.802794 62.642048 
L 291.603478 61.587873 
L 290.40416 62.180014 
L 289.204842 60.809302 
L 288.005526 61.625989 
L 286.806208 62.668146 
L 285.60689 59.969077 
L 284.407574 60.136018 
L 283.208256 63.0072 
L 282.008939 62.309128 
L 280.809621 59.889589 
L 279.610304 63.13997 
L 278.410987 62.89557 
L 277.211669 61.749679 
L 276.012352 60.192456 
L 274.813034 59.653216 
L 273.613717 62.238861 
L 272.4144 61.665918 
L 271.215082 63.418264 
L 270.015765 63.726899 
L 268.816448 64.586986 
L 267.61713 59.685764 
L 266.417813 60.446461 
L 265.218495 62.144946 
L 264.019178 59.800831 
L 262.819861 61.988553 
L 261.620543 57.633555 
L 260.421226 61.18994 
L 259.221908 63.807961 
L 258.022591 62.083768 
L 256.823274 62.984252 
L 255.623956 69.078488 
L 254.424639 16.638366 
L 253.225321 63.735899 
L 252.026005 62.844572 
L 250.826687 56.680383 
L 249.627369 59.873343 
L 248.428053 60.377514 
L 247.228735 59.7553 
L 246.029417 60.703672 
L 244.830101 60.024852 
L 243.630783 58.019764 
L 242.431465 62.136133 
L 241.232148 59.773885 
L 240.03283 60.831757 
L 241.232148 59.922681 
L 242.431465 62.693784 
L 243.630783 62.351425 
L 244.830101 59.871344 
L 246.029417 63.192479 
L 247.228735 60.650439 
L 248.428053 60.115758 
L 249.627369 60.815791 
L 252.026005 59.006462 
L 253.225321 61.193048 
L 254.424639 58.19667 
L 255.623956 59.650826 
L 256.823274 62.242472 
L 258.022591 62.66624 
L 259.221908 60.257268 
L 260.421226 59.33586 
L 261.620543 59.63483 
L 262.819861 63.515433 
L 264.019178 59.671837 
L 265.218495 59.446922 
L 266.417813 61.040525 
L 267.61713 60.031564 
L 268.816448 60.286357 
L 270.015765 62.272646 
L 271.215082 61.960511 
L 272.4144 61.154111 
L 273.613717 61.370365 
L 274.813034 61.91041 
L 276.012352 62.178623 
L 277.211669 62.631823 
L 278.410987 60.564138 
L 279.610304 60.839409 
L 280.809621 61.345662 
L 282.008939 61.47224 
L 283.208256 59.339831 
L 284.407574 63.382 
L 285.60689 60.940354 
L 286.806208 65.935562 
L 288.005526 69.42131 
L 289.204842 16.638366 
L 290.40416 68.818361 
L 291.603478 63.701651 
L 292.802794 63.777992 
L 294.002112 62.094456 
L 295.20143 61.863657 
L 296.400747 62.261419 
L 297.600065 59.841418 
L 296.400747 62.093244 
L 295.20143 61.298984 
L 294.002112 62.575767 
L 292.802794 65.196336 
L 291.603478 62.59397 
L 290.40416 63.175011 
L 289.204842 64.835809 
L 288.005526 60.506742 
L 286.806208 62.037766 
L 285.60689 61.520692 
L 284.407574 63.471735 
L 283.208256 61.097274 
L 282.008939 62.270179 
L 280.809621 61.140057 
L 279.610304 61.853838 
L 278.410987 63.02475 
L 277.211669 63.745341 
L 276.012352 64.295793 
L 274.813034 62.009271 
L 273.613717 64.997013 
L 272.4144 63.103942 
L 271.215082 62.350951 
L 270.015765 67.561346 
L 268.816448 63.042005 
L 267.61713 60.414341 
L 266.417813 61.900557 
L 265.218495 61.510704 
L 264.019178 62.589884 
L 262.819861 62.44465 
L 261.620543 63.03601 
L 260.421226 63.15496 
L 259.221908 60.89388 
L 258.022591 63.761069 
L 256.823274 63.7198 
L 255.623956 62.991008 
L 254.424639 16.638366 
L 253.225321 68.958357 
L 252.026005 62.740341 
L 250.826687 61.755533 
L 249.627369 60.37967 
L 248.428053 64.223147 
L 247.228735 63.143418 
L 246.029417 62.732272 
L 244.830101 62.950513 
L 243.630783 62.053286 
L 242.431465 60.214889 
L 240.03283 62.035525 
L 241.232148 61.115075 
L 242.431465 61.565028 
L 243.630783 61.501424 
L 244.830101 59.711276 
L 246.029417 61.634197 
L 247.228735 62.967742 
L 248.428053 60.544547 
L 249.627369 60.984976 
L 250.826687 64.343966 
L 252.026005 60.738483 
L 253.225321 60.476448 
L 254.424639 60.676223 
L 255.623956 60.297141 
L 256.823274 62.597871 
L 258.022591 62.400472 
L 259.221908 60.428854 
L 260.421226 61.583313 
L 261.620543 61.365383 
L 262.819861 62.74784 
L 264.019178 62.141952 
L 265.218495 62.167281 
L 266.417813 61.158386 
L 267.61713 58.307347 
L 267.61713 58.307347 
" clip-path="url(#p6015903cba)" style="fill: none; stroke: #1f77b4; stroke-width: 0.5; stroke-linecap: square"/>
   </g>
   <g id="patch_13">
    <path d="M 237.154469 72.060458 
L 237.154469 13.999219 
" style="fill: none; stroke: #000000; stroke-width: 0.8; stroke-linejoin: miter; stroke-linecap: square"/>
   </g>
   <g id="patch_14">
    <path d="M 300.478426 72.060458 
L 300.478426 13.999219 
" style="fill: none; stroke: #000000; stroke-width: 0.8; stroke-linejoin: miter; stroke-linecap: square"/>
   </g>
   <g id="patch_15">
    <path d="M 237.154469 72.060458 
L 300.478426 72.060458 
" style="fill: none; stroke: #000000; stroke-width: 0.8; stroke-linejoin: miter; stroke-linecap: square"/>
   </g>
   <g id="patch_16">
    <path d="M 237.154469 13.999219 
L 300.478426 13.999219 
" style="fill: none; stroke: #000000; stroke-width: 0.8; stroke-linejoin: miter; stroke-linecap: square"/>
   </g>
   <g id="text_28">
    <path d="M 244.056635 17.774093 
L 244.056635 18.915343 
Q 243.771635 18.720343 243.484135 18.626593 
Q 243.196635 18.532843 242.887885 18.532843 
Q 242.302885 18.532843 241.976635 18.874093 
Q 241.650385 19.215343 241.650385 19.829093 
Q 241.650385 20.442843 241.976635 20.785343 
Q 242.302885 21.126593 242.887885 21.126593 
Q 243.216635 21.126593 243.511635 21.029093 
Q 243.806635 20.930343 244.056635 20.739093 
L 244.056635 21.884093 
Q 243.727885 22.005343 243.390385 22.065343 
Q 243.052885 22.126593 242.712885 22.126593 
Q 241.529135 22.126593 240.860385 21.519093 
Q 240.192885 20.911593 240.192885 19.829093 
Q 240.192885 18.746593 240.860385 18.140343 
Q 241.529135 17.532843 242.712885 17.532843 
Q 243.056635 17.532843 243.390385 17.592843 
Q 243.724135 17.652843 244.056635 17.774093 
z
"/>
    <path d="M 244.056635 17.774093 
L 244.056635 18.915343 
Q 243.771635 18.720343 243.484135 18.626593 
Q 243.196635 18.532843 242.887885 18.532843 
Q 242.302885 18.532843 241.976635 18.874093 
Q 241.650385 19.215343 241.650385 19.829093 
Q 241.650385 20.442843 241.976635 20.785343 
Q 242.302885 21.126593 242.887885 21.126593 
Q 243.216635 21.126593 243.511635 21.029093 
Q 243.806635 20.930343 244.056635 20.739093 
L 244.056635 21.884093 
Q 243.727885 22.005343 243.390385 22.065343 
Q 243.052885 22.126593 242.712885 22.126593 
Q 241.529135 22.126593 240.860385 21.519093 
Q 240.192885 20.911593 240.192885 19.829093 
Q 240.192885 18.746593 240.860385 18.140343 
Q 241.529135 17.532843 242.712885 17.532843 
Q 243.056635 17.532843 243.390385 17.592843 
Q 243.724135 17.652843 244.056635 17.774093 
z
"/>
   </g>
  </g>
  <g id="axes_4">
   <g id="patch_17">
    <path d="M 333.875562 72.060458 
L 397.19952 72.060458 
L 397.19952 13.999219 
L 333.875562 13.999219 
z
" style="fill: #ffffff"/>
   </g>
   <g id="matplotlib.axis_7">
    <g id="xtick_10">
     <g id="line2d_44">
      <g>
       <use xlink:href="#m00d4fb1695" x="347.547781" y="72.060458" style="stroke: #000000; stroke-width: 0.8"/>
      </g>
     </g>
     <g id="line2d_45">
      <g>
       <use xlink:href="#m456c6d66f9" x="347.547781" y="13.999219" style="stroke: #000000; stroke-width: 0.8"/>
      </g>
     </g>
     <g id="text_29">
      <!-- −10 -->
      <g transform="translate(342.271609 79.359676) scale(0.05 -0.05)">
       <use xlink:href="#DejaVuSans-2212"/>
       <use xlink:href="#DejaVuSans-31" x="83.789062"/>
       <use xlink:href="#DejaVuSans-30" x="147.412109"/>
      </g>
     </g>
    </g>
    <g id="xtick_11">
     <g id="line2d_46">
      <g>
       <use xlink:href="#m00d4fb1695" x="365.537541" y="72.060458" style="stroke: #000000; stroke-width: 0.8"/>
      </g>
     </g>
     <g id="line2d_47">
      <g>
       <use xlink:href="#m456c6d66f9" x="365.537541" y="13.999219" style="stroke: #000000; stroke-width: 0.8"/>
      </g>
     </g>
     <g id="text_30">
      <!-- 0 -->
      <g transform="translate(363.946916 79.359676) scale(0.05 -0.05)">
       <use xlink:href="#DejaVuSans-30"/>
      </g>
     </g>
    </g>
    <g id="xtick_12">
     <g id="line2d_48">
      <g>
       <use xlink:href="#m00d4fb1695" x="383.527302" y="72.060458" style="stroke: #000000; stroke-width: 0.8"/>
      </g>
     </g>
     <g id="line2d_49">
      <g>
       <use xlink:href="#m456c6d66f9" x="383.527302" y="13.999219" style="stroke: #000000; stroke-width: 0.8"/>
      </g>
     </g>
     <g id="text_31">
      <!-- 10 -->
      <g transform="translate(380.346052 79.359676) scale(0.05 -0.05)">
       <use xlink:href="#DejaVuSans-31"/>
       <use xlink:href="#DejaVuSans-30" x="63.623047"/>
      </g>
     </g>
    </g>
   </g>
   <g id="matplotlib.axis_8">
    <g id="ytick_12">
     <g id="line2d_50">
      <g>
       <use xlink:href="#m643a758f39" x="333.875562" y="66.505035" style="stroke: #000000; stroke-width: 0.8"/>
      </g>
     </g>
     <g id="line2d_51">
      <g>
       <use xlink:href="#m0abbc76340" x="397.19952" y="66.505035" style="stroke: #000000; stroke-width: 0.8"/>
      </g>
     </g>
     <g id="text_32">
      <!-- −2 -->
      <g transform="translate(323.004469 68.404644) scale(0.05 -0.05)">
       <use xlink:href="#DejaVuSans-2212"/>
       <use xlink:href="#DejaVuSans-32" x="83.789062"/>
      </g>
     </g>
    </g>
    <g id="ytick_13">
     <g id="line2d_52">
      <g>
       <use xlink:href="#m643a758f39" x="333.875562" y="53.490878" style="stroke: #000000; stroke-width: 0.8"/>
      </g>
     </g>
     <g id="line2d_53">
      <g>
       <use xlink:href="#m0abbc76340" x="397.19952" y="53.490878" style="stroke: #000000; stroke-width: 0.8"/>
      </g>
     </g>
     <g id="text_33">
      <!-- −1 -->
      <g transform="translate(323.004469 55.390487) scale(0.05 -0.05)">
       <use xlink:href="#DejaVuSans-2212"/>
       <use xlink:href="#DejaVuSans-31" x="83.789062"/>
      </g>
     </g>
    </g>
    <g id="ytick_14">
     <g id="line2d_54">
      <g>
       <use xlink:href="#m643a758f39" x="333.875562" y="40.476721" style="stroke: #000000; stroke-width: 0.8"/>
      </g>
     </g>
     <g id="line2d_55">
      <g>
       <use xlink:href="#m0abbc76340" x="397.19952" y="40.476721" style="stroke: #000000; stroke-width: 0.8"/>
      </g>
     </g>
     <g id="text_34">
      <!-- 0 -->
      <g transform="translate(327.194312 42.37633) scale(0.05 -0.05)">
       <use xlink:href="#DejaVuSans-30"/>
      </g>
     </g>
    </g>
    <g id="ytick_15">
     <g id="line2d_56">
      <g>
       <use xlink:href="#m643a758f39" x="333.875562" y="27.462564" style="stroke: #000000; stroke-width: 0.8"/>
      </g>
     </g>
     <g id="line2d_57">
      <g>
       <use xlink:href="#m0abbc76340" x="397.19952" y="27.462564" style="stroke: #000000; stroke-width: 0.8"/>
      </g>
     </g>
     <g id="text_35">
      <!-- 1 -->
      <g transform="translate(327.194312 29.362173) scale(0.05 -0.05)">
       <use xlink:href="#DejaVuSans-31"/>
      </g>
     </g>
    </g>
    <g id="ytick_16">
     <g id="line2d_58">
      <g>
       <use xlink:href="#m643a758f39" x="333.875562" y="14.448407" style="stroke: #000000; stroke-width: 0.8"/>
      </g>
     </g>
     <g id="line2d_59">
      <g>
       <use xlink:href="#m0abbc76340" x="397.19952" y="14.448407" style="stroke: #000000; stroke-width: 0.8"/>
      </g>
     </g>
     <g id="text_36">
      <!-- 2 -->
      <g transform="translate(327.194312 16.348017) scale(0.05 -0.05)">
       <use xlink:href="#DejaVuSans-32"/>
      </g>
     </g>
    </g>
    <g id="text_37">
     <!-- Phase  -->
     <g transform="translate(311.037969 52.940619) rotate(-90) scale(0.06 -0.06)">
      <defs>
       <path id="DejaVuSans-50" d="M 1259 4147 
L 1259 2394 
L 2053 2394 
Q 2494 2394 2734 2622 
Q 2975 2850 2975 3272 
Q 2975 3691 2734 3919 
Q 2494 4147 2053 4147 
L 1259 4147 
z
M 628 4666 
L 2053 4666 
Q 2838 4666 3239 4311 
Q 3641 3956 3641 3272 
Q 3641 2581 3239 2228 
Q 2838 1875 2053 1875 
L 1259 1875 
L 1259 0 
L 628 0 
L 628 4666 
z
" transform="scale(0.015625)"/>
       <path id="DejaVuSans-68" d="M 3513 2113 
L 3513 0 
L 2938 0 
L 2938 2094 
Q 2938 2591 2744 2837 
Q 2550 3084 2163 3084 
Q 1697 3084 1428 2787 
Q 1159 2491 1159 1978 
L 1159 0 
L 581 0 
L 581 4863 
L 1159 4863 
L 1159 2956 
Q 1366 3272 1645 3428 
Q 1925 3584 2291 3584 
Q 2894 3584 3203 3211 
Q 3513 2838 3513 2113 
z
" transform="scale(0.015625)"/>
      </defs>
      <use xlink:href="#DejaVuSans-50"/>
      <use xlink:href="#DejaVuSans-68" x="60.302734"/>
      <use xlink:href="#DejaVuSans-61" x="123.681641"/>
      <use xlink:href="#DejaVuSans-73" x="184.960938"/>
      <use xlink:href="#DejaVuSans-65" x="237.060547"/>
      <use xlink:href="#DejaVuSans-20" x="298.583984"/>
     </g>
     <!--  (rad) -->
     <g transform="translate(317.756656 51.300463) rotate(-90) scale(0.06 -0.06)">
      <use xlink:href="#DejaVuSans-20"/>
      <use xlink:href="#DejaVuSans-28" x="31.787109"/>
      <use xlink:href="#DejaVuSans-72" x="70.800781"/>
      <use xlink:href="#DejaVuSans-61" x="111.914062"/>
      <use xlink:href="#DejaVuSans-64" x="173.193359"/>
      <use xlink:href="#DejaVuSans-29" x="236.669922"/>
     </g>
    </g>
   </g>
   <g id="line2d_60">
    <path d="M 365.537541 20.723845 
L 366.736859 19.554617 
L 367.936176 19.240885 
L 369.135493 20.06081 
L 370.334811 18.798348 
L 371.534128 18.209831 
L 372.733446 18.141122 
L 373.932763 18.305671 
L 375.132081 18.052456 
L 377.530715 19.323879 
L 378.730033 18.466775 
L 379.92935 18.761611 
L 381.128668 19.560214 
L 382.327984 17.91206 
L 383.527302 21.125709 
L 384.72662 18.70272 
L 385.925936 59.123271 
L 387.125254 20.749877 
L 388.324572 59.345972 
L 389.523888 60.445297 
L 390.723206 58.288892 
L 391.922524 60.39348 
L 393.12184 59.847366 
L 394.321158 60.834068 
L 393.12184 58.061859 
L 391.922524 60.812339 
L 390.723206 61.030504 
L 389.523888 58.477028 
L 388.324572 61.656392 
L 387.125254 61.701823 
L 385.925936 59.620708 
L 384.72662 59.370845 
L 383.527302 59.389322 
L 382.327984 58.73774 
L 381.128668 59.166512 
L 379.92935 57.816572 
L 378.730033 59.224987 
L 377.530715 59.496245 
L 376.331398 61.316429 
L 375.132081 60.01677 
L 373.932763 58.943068 
L 372.733446 59.936687 
L 371.534128 60.412715 
L 370.334811 58.548427 
L 369.135493 59.534267 
L 367.936176 61.093271 
L 366.736859 60.762355 
L 365.537541 61.833603 
L 364.338224 61.98507 
L 363.138906 59.620659 
L 361.939589 59.548766 
L 360.740272 59.104896 
L 359.540955 59.055601 
L 358.341637 57.572976 
L 357.14232 59.132834 
L 355.943002 58.860561 
L 354.743685 60.413146 
L 353.544368 58.948995 
L 352.34505 59.653868 
L 351.145733 69.42131 
L 349.946415 17.67781 
L 348.747099 18.836513 
L 347.547781 18.679951 
L 346.348463 18.409274 
L 345.149146 17.144584 
L 343.949828 20.2458 
L 342.750511 20.035888 
L 341.551194 19.021081 
L 340.351876 19.568815 
L 339.152558 19.112775 
L 337.953242 18.374758 
L 336.753924 18.917577 
L 337.953242 18.105527 
L 339.152558 18.375763 
L 340.351876 17.660148 
L 341.551194 19.882957 
L 342.750511 20.623103 
L 343.949828 19.103908 
L 345.149146 18.308066 
L 346.348463 18.833243 
L 347.547781 18.720399 
L 348.747099 19.498195 
L 349.946415 18.473161 
L 351.145733 18.554653 
L 352.34505 18.885171 
L 353.544368 19.394064 
L 354.743685 19.592831 
L 355.943002 18.686883 
L 357.14232 18.523166 
L 358.341637 18.924844 
L 359.540955 19.700412 
L 360.740272 18.525003 
L 361.939589 18.786123 
L 363.138906 18.020174 
L 364.338224 21.62193 
L 365.537541 20.891993 
L 366.736859 19.951032 
L 367.936176 18.327937 
L 369.135493 18.777845 
L 370.334811 18.322451 
L 371.534128 19.129444 
L 372.733446 18.493652 
L 373.932763 18.939707 
L 375.132081 17.843872 
L 376.331398 19.438484 
L 377.530715 18.671654 
L 378.730033 18.933817 
L 379.92935 19.038891 
L 381.128668 19.303524 
L 382.327984 18.795525 
L 383.527302 19.64965 
L 384.72662 16.9465 
L 385.925936 24.365286 
L 387.125254 58.982673 
L 388.324572 59.957652 
L 389.523888 60.596519 
L 390.723206 59.503108 
L 393.12184 58.667219 
L 394.321158 59.476046 
L 393.12184 58.168165 
L 391.922524 60.038347 
L 390.723206 60.380365 
L 389.523888 60.401997 
L 388.324572 61.270923 
L 387.125254 60.949303 
L 385.925936 59.705337 
L 384.72662 59.894923 
L 383.527302 58.993433 
L 382.327984 58.796761 
L 381.128668 60.817502 
L 379.92935 60.38671 
L 378.730033 59.021185 
L 377.530715 59.541462 
L 376.331398 61.896739 
L 375.132081 60.629384 
L 373.932763 58.590446 
L 372.733446 60.762681 
L 371.534128 59.385232 
L 370.334811 58.789169 
L 369.135493 60.107819 
L 367.936176 58.908128 
L 366.736859 61.982225 
L 365.537541 61.974539 
L 364.338224 61.452022 
L 363.138906 58.987737 
L 361.939589 59.148869 
L 360.740272 59.683733 
L 359.540955 59.014694 
L 358.341637 59.415007 
L 357.14232 59.631044 
L 355.943002 59.234795 
L 354.743685 60.475153 
L 353.544368 61.548991 
L 352.34505 58.719228 
L 351.145733 66.180047 
L 349.946415 21.635601 
L 348.747099 16.638366 
L 347.547781 17.117788 
L 346.348463 18.799825 
L 345.149146 19.738725 
L 343.949828 19.632919 
L 342.750511 20.127297 
L 339.152558 19.327615 
L 337.953242 18.705363 
L 336.753924 18.669371 
L 337.953242 18.938099 
L 339.152558 18.542205 
L 340.351876 18.707759 
L 341.551194 20.707903 
L 342.750511 20.330091 
L 343.949828 20.465368 
L 345.149146 18.276095 
L 346.348463 17.534596 
L 347.547781 18.076807 
L 348.747099 19.107141 
L 349.946415 18.564272 
L 351.145733 18.354069 
L 352.34505 17.878475 
L 353.544368 18.219443 
L 354.743685 18.679697 
L 355.943002 19.45972 
L 357.14232 18.784125 
L 358.341637 18.538965 
L 360.740272 18.873859 
L 361.939589 18.245302 
L 364.338224 20.366723 
L 364.338224 20.366723 
" clip-path="url(#pd6967ca5ac)" style="fill: none; stroke: #1f77b4; stroke-width: 0.5; stroke-linecap: square"/>
   </g>
   <g id="patch_18">
    <path d="M 333.875562 72.060458 
L 333.875562 13.999219 
" style="fill: none; stroke: #000000; stroke-width: 0.8; stroke-linejoin: miter; stroke-linecap: square"/>
   </g>
   <g id="patch_19">
    <path d="M 397.19952 72.060458 
L 397.19952 13.999219 
" style="fill: none; stroke: #000000; stroke-width: 0.8; stroke-linejoin: miter; stroke-linecap: square"/>
   </g>
   <g id="patch_20">
    <path d="M 333.875562 72.060458 
L 397.19952 72.060458 
" style="fill: none; stroke: #000000; stroke-width: 0.8; stroke-linejoin: miter; stroke-linecap: square"/>
   </g>
   <g id="patch_21">
    <path d="M 333.875562 13.999219 
L 397.19952 13.999219 
" style="fill: none; stroke: #000000; stroke-width: 0.8; stroke-linejoin: miter; stroke-linecap: square"/>
   </g>
   <g id="text_38">
    <path d="M 339.727104 18.277843 
L 339.727104 15.934093 
L 341.133354 15.934093 
L 341.133354 22.012843 
L 339.727104 22.012843 
L 339.727104 21.380343 
Q 339.438354 21.766593 339.089604 21.946593 
Q 338.742104 22.126593 338.285854 22.126593 
Q 337.477104 22.126593 336.957104 21.484093 
Q 336.438354 20.840343 336.438354 19.829093 
Q 336.438354 18.817843 336.957104 18.175343 
Q 337.477104 17.532843 338.285854 17.532843 
Q 338.738354 17.532843 339.088354 17.714093 
Q 339.438354 17.895343 339.727104 18.277843 
z
M 338.804604 21.110343 
Q 339.254604 21.110343 339.490854 20.782843 
Q 339.727104 20.454093 339.727104 19.829093 
Q 339.727104 19.204093 339.490854 18.876593 
Q 339.254604 18.547843 338.804604 18.547843 
Q 338.359604 18.547843 338.123354 18.876593 
Q 337.887104 19.204093 337.887104 19.829093 
Q 337.887104 20.454093 338.123354 20.782843 
Q 338.359604 21.110343 338.804604 21.110343 
z
"/>
    <path d="M 339.727104 18.277843 
L 339.727104 15.934093 
L 341.133354 15.934093 
L 341.133354 22.012843 
L 339.727104 22.012843 
L 339.727104 21.380343 
Q 339.438354 21.766593 339.089604 21.946593 
Q 338.742104 22.126593 338.285854 22.126593 
Q 337.477104 22.126593 336.957104 21.484093 
Q 336.438354 20.840343 336.438354 19.829093 
Q 336.438354 18.817843 336.957104 18.175343 
Q 337.477104 17.532843 338.285854 17.532843 
Q 338.738354 17.532843 339.088354 17.714093 
Q 339.438354 17.895343 339.727104 18.277843 
z
M 338.804604 21.110343 
Q 339.254604 21.110343 339.490854 20.782843 
Q 339.727104 20.454093 339.727104 19.829093 
Q 339.727104 19.204093 339.490854 18.876593 
Q 339.254604 18.547843 338.804604 18.547843 
Q 338.359604 18.547843 338.123354 18.876593 
Q 337.887104 19.204093 337.887104 19.829093 
Q 337.887104 20.454093 338.123354 20.782843 
Q 338.359604 21.110343 338.804604 21.110343 
z
"/>
   </g>
  </g>
 </g>
 <defs>
  <clipPath id="p7a937a2eb9">
   <rect x="30.406813" y="13.999219" width="63.323957" height="58.061239"/>
  </clipPath>
  <clipPath id="pa371e2c89d">
   <rect x="134.070875" y="13.999219" width="63.323958" height="58.061239"/>
  </clipPath>
  <clipPath id="p6015903cba">
   <rect x="237.154469" y="13.999219" width="63.323958" height="58.061239"/>
  </clipPath>
  <clipPath id="pd6967ca5ac">
   <rect x="333.875562" y="13.999219" width="63.323958" height="58.061239"/>
  </clipPath>
 </defs>
</svg>
