<?xml version="1.0" encoding="utf-8" standalone="no"?>
<!DOCTYPE svg PUBLIC "-//W3C//DTD SVG 1.1//EN"
  "http://www.w3.org/Graphics/SVG/1.1/DTD/svg11.dtd">
<svg xmlns:xlink="http://www.w3.org/1999/xlink" width="2152.505625pt" height="424.9625pt" viewBox="0 0 2152.505625 424.9625" xmlns="http://www.w3.org/2000/svg" version="1.1">
 <metadata>
  <rdf:RDF xmlns:dc="http://purl.org/dc/elements/1.1/" xmlns:cc="http://creativecommons.org/ns#" xmlns:rdf="http://www.w3.org/1999/02/22-rdf-syntax-ns#">
   <cc:Work>
    <dc:type rdf:resource="http://purl.org/dc/dcmitype/StillImage"/>
    <dc:date>2023-03-28T10:36:25.596554</dc:date>
    <dc:format>image/svg+xml</dc:format>
    <dc:creator>
     <cc:Agent>
      <dc:title>Matplotlib v3.7.1, https://matplotlib.org/</dc:title>
     </cc:Agent>
    </dc:creator>
   </cc:Work>
  </rdf:RDF>
 </metadata>
 <defs>
  <style type="text/css">*{stroke-linejoin: round; stroke-linecap: butt}</style>
 </defs>
 <g id="figure_1">
  <g id="patch_1">
   <path d="M 0 424.9625 
L 2152.505625 424.9625 
L 2152.505625 0 
L 0 0 
z
" style="fill: #ffffff"/>
  </g>
  <g id="axes_1">
   <g id="patch_2">
    <path d="M 98.285625 398.7775 
L 541.303125 398.7775 
L 541.303125 22.3575 
L 98.285625 22.3575 
z
" style="fill: #ffffff"/>
   </g>
   <g id="matplotlib.axis_1">
    <g id="xtick_1">
     <g id="line2d_1">
      <defs>
       <path id="me50baa7941" d="M 0 0 
L 0 -3.5 
" style="stroke: #000000; stroke-width: 0.8"/>
      </defs>
      <g>
       <use xlink:href="#me50baa7941" x="131.008509" y="398.7775" style="stroke: #000000; stroke-width: 0.8"/>
      </g>
     </g>
     <g id="line2d_2">
      <defs>
       <path id="m4a86af6e9f" d="M 0 0 
L 0 3.5 
" style="stroke: #000000; stroke-width: 0.8"/>
      </defs>
      <g>
       <use xlink:href="#m4a86af6e9f" x="131.008509" y="22.3575" style="stroke: #000000; stroke-width: 0.8"/>
      </g>
     </g>
     <g id="text_1">
      <!-- −15 -->
      <g transform="translate(114.124759 414.435) scale(0.16 -0.16)">
       <defs>
        <path id="DejaVuSans-2212" d="M 678 2272 
L 4684 2272 
L 4684 1741 
L 678 1741 
L 678 2272 
z
" transform="scale(0.015625)"/>
        <path id="DejaVuSans-31" d="M 794 531 
L 1825 531 
L 1825 4091 
L 703 3866 
L 703 4441 
L 1819 4666 
L 2450 4666 
L 2450 531 
L 3481 531 
L 3481 0 
L 794 0 
L 794 531 
z
" transform="scale(0.015625)"/>
        <path id="DejaVuSans-35" d="M 691 4666 
L 3169 4666 
L 3169 4134 
L 1269 4134 
L 1269 2991 
Q 1406 3038 1543 3061 
Q 1681 3084 1819 3084 
Q 2600 3084 3056 2656 
Q 3513 2228 3513 1497 
Q 3513 744 3044 326 
Q 2575 -91 1722 -91 
Q 1428 -91 1123 -41 
Q 819 9 494 109 
L 494 744 
Q 775 591 1075 516 
Q 1375 441 1709 441 
Q 2250 441 2565 725 
Q 2881 1009 2881 1497 
Q 2881 1984 2565 2268 
Q 2250 2553 1709 2553 
Q 1456 2553 1204 2497 
Q 953 2441 691 2322 
L 691 4666 
z
" transform="scale(0.015625)"/>
       </defs>
       <use xlink:href="#DejaVuSans-2212"/>
       <use xlink:href="#DejaVuSans-31" x="83.789062"/>
       <use xlink:href="#DejaVuSans-35" x="147.412109"/>
      </g>
     </g>
    </g>
    <g id="xtick_2">
     <g id="line2d_3">
      <g>
       <use xlink:href="#me50baa7941" x="193.937131" y="398.7775" style="stroke: #000000; stroke-width: 0.8"/>
      </g>
     </g>
     <g id="line2d_4">
      <g>
       <use xlink:href="#m4a86af6e9f" x="193.937131" y="22.3575" style="stroke: #000000; stroke-width: 0.8"/>
      </g>
     </g>
     <g id="text_2">
      <!-- −10 -->
      <g transform="translate(177.053381 414.435) scale(0.16 -0.16)">
       <defs>
        <path id="DejaVuSans-30" d="M 2034 4250 
Q 1547 4250 1301 3770 
Q 1056 3291 1056 2328 
Q 1056 1369 1301 889 
Q 1547 409 2034 409 
Q 2525 409 2770 889 
Q 3016 1369 3016 2328 
Q 3016 3291 2770 3770 
Q 2525 4250 2034 4250 
z
M 2034 4750 
Q 2819 4750 3233 4129 
Q 3647 3509 3647 2328 
Q 3647 1150 3233 529 
Q 2819 -91 2034 -91 
Q 1250 -91 836 529 
Q 422 1150 422 2328 
Q 422 3509 836 4129 
Q 1250 4750 2034 4750 
z
" transform="scale(0.015625)"/>
       </defs>
       <use xlink:href="#DejaVuSans-2212"/>
       <use xlink:href="#DejaVuSans-31" x="83.789062"/>
       <use xlink:href="#DejaVuSans-30" x="147.412109"/>
      </g>
     </g>
    </g>
    <g id="xtick_3">
     <g id="line2d_5">
      <g>
       <use xlink:href="#me50baa7941" x="256.865753" y="398.7775" style="stroke: #000000; stroke-width: 0.8"/>
      </g>
     </g>
     <g id="line2d_6">
      <g>
       <use xlink:href="#m4a86af6e9f" x="256.865753" y="22.3575" style="stroke: #000000; stroke-width: 0.8"/>
      </g>
     </g>
     <g id="text_3">
      <!-- −5 -->
      <g transform="translate(245.072003 414.435) scale(0.16 -0.16)">
       <use xlink:href="#DejaVuSans-2212"/>
       <use xlink:href="#DejaVuSans-35" x="83.789062"/>
      </g>
     </g>
    </g>
    <g id="xtick_4">
     <g id="line2d_7">
      <g>
       <use xlink:href="#me50baa7941" x="319.794375" y="398.7775" style="stroke: #000000; stroke-width: 0.8"/>
      </g>
     </g>
     <g id="line2d_8">
      <g>
       <use xlink:href="#m4a86af6e9f" x="319.794375" y="22.3575" style="stroke: #000000; stroke-width: 0.8"/>
      </g>
     </g>
     <g id="text_4">
      <!-- 0 -->
      <g transform="translate(314.704375 414.435) scale(0.16 -0.16)">
       <use xlink:href="#DejaVuSans-30"/>
      </g>
     </g>
    </g>
    <g id="xtick_5">
     <g id="line2d_9">
      <g>
       <use xlink:href="#me50baa7941" x="382.722997" y="398.7775" style="stroke: #000000; stroke-width: 0.8"/>
      </g>
     </g>
     <g id="line2d_10">
      <g>
       <use xlink:href="#m4a86af6e9f" x="382.722997" y="22.3575" style="stroke: #000000; stroke-width: 0.8"/>
      </g>
     </g>
     <g id="text_5">
      <!-- 5 -->
      <g transform="translate(377.632997 414.435) scale(0.16 -0.16)">
       <use xlink:href="#DejaVuSans-35"/>
      </g>
     </g>
    </g>
    <g id="xtick_6">
     <g id="line2d_11">
      <g>
       <use xlink:href="#me50baa7941" x="445.651619" y="398.7775" style="stroke: #000000; stroke-width: 0.8"/>
      </g>
     </g>
     <g id="line2d_12">
      <g>
       <use xlink:href="#m4a86af6e9f" x="445.651619" y="22.3575" style="stroke: #000000; stroke-width: 0.8"/>
      </g>
     </g>
     <g id="text_6">
      <!-- 10 -->
      <g transform="translate(435.471619 414.435) scale(0.16 -0.16)">
       <use xlink:href="#DejaVuSans-31"/>
       <use xlink:href="#DejaVuSans-30" x="63.623047"/>
      </g>
     </g>
    </g>
    <g id="xtick_7">
     <g id="line2d_13">
      <g>
       <use xlink:href="#me50baa7941" x="508.580241" y="398.7775" style="stroke: #000000; stroke-width: 0.8"/>
      </g>
     </g>
     <g id="line2d_14">
      <g>
       <use xlink:href="#m4a86af6e9f" x="508.580241" y="22.3575" style="stroke: #000000; stroke-width: 0.8"/>
      </g>
     </g>
     <g id="text_7">
      <!-- 15 -->
      <g transform="translate(498.400241 414.435) scale(0.16 -0.16)">
       <use xlink:href="#DejaVuSans-31"/>
       <use xlink:href="#DejaVuSans-35" x="63.623047"/>
      </g>
     </g>
    </g>
   </g>
   <g id="matplotlib.axis_2">
    <g id="ytick_1">
     <g id="line2d_15">
      <defs>
       <path id="m209d17549c" d="M 0 0 
L 3.5 0 
" style="stroke: #000000; stroke-width: 0.8"/>
      </defs>
      <g>
       <use xlink:href="#m209d17549c" x="98.285625" y="392.954974" style="stroke: #000000; stroke-width: 0.8"/>
      </g>
     </g>
     <g id="line2d_16">
      <defs>
       <path id="mb6b10005a7" d="M 0 0 
L -3.5 0 
" style="stroke: #000000; stroke-width: 0.8"/>
      </defs>
      <g>
       <use xlink:href="#mb6b10005a7" x="541.303125" y="392.954974" style="stroke: #000000; stroke-width: 0.8"/>
      </g>
     </g>
     <g id="text_8">
      <!-- 0.00000 -->
      <g transform="translate(28.620625 399.033724) scale(0.16 -0.16)">
       <defs>
        <path id="DejaVuSans-2e" d="M 684 794 
L 1344 794 
L 1344 0 
L 684 0 
L 684 794 
z
" transform="scale(0.015625)"/>
       </defs>
       <use xlink:href="#DejaVuSans-30"/>
       <use xlink:href="#DejaVuSans-2e" x="63.623047"/>
       <use xlink:href="#DejaVuSans-30" x="95.410156"/>
       <use xlink:href="#DejaVuSans-30" x="159.033203"/>
       <use xlink:href="#DejaVuSans-30" x="222.65625"/>
       <use xlink:href="#DejaVuSans-30" x="286.279297"/>
       <use xlink:href="#DejaVuSans-30" x="349.902344"/>
      </g>
     </g>
    </g>
    <g id="ytick_2">
     <g id="line2d_17">
      <g>
       <use xlink:href="#m209d17549c" x="98.285625" y="319.397129" style="stroke: #000000; stroke-width: 0.8"/>
      </g>
     </g>
     <g id="line2d_18">
      <g>
       <use xlink:href="#mb6b10005a7" x="541.303125" y="319.397129" style="stroke: #000000; stroke-width: 0.8"/>
      </g>
     </g>
     <g id="text_9">
      <!-- 0.00002 -->
      <g transform="translate(28.620625 325.475879) scale(0.16 -0.16)">
       <defs>
        <path id="DejaVuSans-32" d="M 1228 531 
L 3431 531 
L 3431 0 
L 469 0 
L 469 531 
Q 828 903 1448 1529 
Q 2069 2156 2228 2338 
Q 2531 2678 2651 2914 
Q 2772 3150 2772 3378 
Q 2772 3750 2511 3984 
Q 2250 4219 1831 4219 
Q 1534 4219 1204 4116 
Q 875 4013 500 3803 
L 500 4441 
Q 881 4594 1212 4672 
Q 1544 4750 1819 4750 
Q 2544 4750 2975 4387 
Q 3406 4025 3406 3419 
Q 3406 3131 3298 2873 
Q 3191 2616 2906 2266 
Q 2828 2175 2409 1742 
Q 1991 1309 1228 531 
z
" transform="scale(0.015625)"/>
       </defs>
       <use xlink:href="#DejaVuSans-30"/>
       <use xlink:href="#DejaVuSans-2e" x="63.623047"/>
       <use xlink:href="#DejaVuSans-30" x="95.410156"/>
       <use xlink:href="#DejaVuSans-30" x="159.033203"/>
       <use xlink:href="#DejaVuSans-30" x="222.65625"/>
       <use xlink:href="#DejaVuSans-30" x="286.279297"/>
       <use xlink:href="#DejaVuSans-32" x="349.902344"/>
      </g>
     </g>
    </g>
    <g id="ytick_3">
     <g id="line2d_19">
      <g>
       <use xlink:href="#m209d17549c" x="98.285625" y="245.839284" style="stroke: #000000; stroke-width: 0.8"/>
      </g>
     </g>
     <g id="line2d_20">
      <g>
       <use xlink:href="#mb6b10005a7" x="541.303125" y="245.839284" style="stroke: #000000; stroke-width: 0.8"/>
      </g>
     </g>
     <g id="text_10">
      <!-- 0.00004 -->
      <g transform="translate(28.620625 251.918034) scale(0.16 -0.16)">
       <defs>
        <path id="DejaVuSans-34" d="M 2419 4116 
L 825 1625 
L 2419 1625 
L 2419 4116 
z
M 2253 4666 
L 3047 4666 
L 3047 1625 
L 3713 1625 
L 3713 1100 
L 3047 1100 
L 3047 0 
L 2419 0 
L 2419 1100 
L 313 1100 
L 313 1709 
L 2253 4666 
z
" transform="scale(0.015625)"/>
       </defs>
       <use xlink:href="#DejaVuSans-30"/>
       <use xlink:href="#DejaVuSans-2e" x="63.623047"/>
       <use xlink:href="#DejaVuSans-30" x="95.410156"/>
       <use xlink:href="#DejaVuSans-30" x="159.033203"/>
       <use xlink:href="#DejaVuSans-30" x="222.65625"/>
       <use xlink:href="#DejaVuSans-30" x="286.279297"/>
       <use xlink:href="#DejaVuSans-34" x="349.902344"/>
      </g>
     </g>
    </g>
    <g id="ytick_4">
     <g id="line2d_21">
      <g>
       <use xlink:href="#m209d17549c" x="98.285625" y="172.281439" style="stroke: #000000; stroke-width: 0.8"/>
      </g>
     </g>
     <g id="line2d_22">
      <g>
       <use xlink:href="#mb6b10005a7" x="541.303125" y="172.281439" style="stroke: #000000; stroke-width: 0.8"/>
      </g>
     </g>
     <g id="text_11">
      <!-- 0.00006 -->
      <g transform="translate(28.620625 178.360189) scale(0.16 -0.16)">
       <defs>
        <path id="DejaVuSans-36" d="M 2113 2584 
Q 1688 2584 1439 2293 
Q 1191 2003 1191 1497 
Q 1191 994 1439 701 
Q 1688 409 2113 409 
Q 2538 409 2786 701 
Q 3034 994 3034 1497 
Q 3034 2003 2786 2293 
Q 2538 2584 2113 2584 
z
M 3366 4563 
L 3366 3988 
Q 3128 4100 2886 4159 
Q 2644 4219 2406 4219 
Q 1781 4219 1451 3797 
Q 1122 3375 1075 2522 
Q 1259 2794 1537 2939 
Q 1816 3084 2150 3084 
Q 2853 3084 3261 2657 
Q 3669 2231 3669 1497 
Q 3669 778 3244 343 
Q 2819 -91 2113 -91 
Q 1303 -91 875 529 
Q 447 1150 447 2328 
Q 447 3434 972 4092 
Q 1497 4750 2381 4750 
Q 2619 4750 2861 4703 
Q 3103 4656 3366 4563 
z
" transform="scale(0.015625)"/>
       </defs>
       <use xlink:href="#DejaVuSans-30"/>
       <use xlink:href="#DejaVuSans-2e" x="63.623047"/>
       <use xlink:href="#DejaVuSans-30" x="95.410156"/>
       <use xlink:href="#DejaVuSans-30" x="159.033203"/>
       <use xlink:href="#DejaVuSans-30" x="222.65625"/>
       <use xlink:href="#DejaVuSans-30" x="286.279297"/>
       <use xlink:href="#DejaVuSans-36" x="349.902344"/>
      </g>
     </g>
    </g>
    <g id="ytick_5">
     <g id="line2d_23">
      <g>
       <use xlink:href="#m209d17549c" x="98.285625" y="98.723594" style="stroke: #000000; stroke-width: 0.8"/>
      </g>
     </g>
     <g id="line2d_24">
      <g>
       <use xlink:href="#mb6b10005a7" x="541.303125" y="98.723594" style="stroke: #000000; stroke-width: 0.8"/>
      </g>
     </g>
     <g id="text_12">
      <!-- 0.00008 -->
      <g transform="translate(28.620625 104.802344) scale(0.16 -0.16)">
       <defs>
        <path id="DejaVuSans-38" d="M 2034 2216 
Q 1584 2216 1326 1975 
Q 1069 1734 1069 1313 
Q 1069 891 1326 650 
Q 1584 409 2034 409 
Q 2484 409 2743 651 
Q 3003 894 3003 1313 
Q 3003 1734 2745 1975 
Q 2488 2216 2034 2216 
z
M 1403 2484 
Q 997 2584 770 2862 
Q 544 3141 544 3541 
Q 544 4100 942 4425 
Q 1341 4750 2034 4750 
Q 2731 4750 3128 4425 
Q 3525 4100 3525 3541 
Q 3525 3141 3298 2862 
Q 3072 2584 2669 2484 
Q 3125 2378 3379 2068 
Q 3634 1759 3634 1313 
Q 3634 634 3220 271 
Q 2806 -91 2034 -91 
Q 1263 -91 848 271 
Q 434 634 434 1313 
Q 434 1759 690 2068 
Q 947 2378 1403 2484 
z
M 1172 3481 
Q 1172 3119 1398 2916 
Q 1625 2713 2034 2713 
Q 2441 2713 2670 2916 
Q 2900 3119 2900 3481 
Q 2900 3844 2670 4047 
Q 2441 4250 2034 4250 
Q 1625 4250 1398 4047 
Q 1172 3844 1172 3481 
z
" transform="scale(0.015625)"/>
       </defs>
       <use xlink:href="#DejaVuSans-30"/>
       <use xlink:href="#DejaVuSans-2e" x="63.623047"/>
       <use xlink:href="#DejaVuSans-30" x="95.410156"/>
       <use xlink:href="#DejaVuSans-30" x="159.033203"/>
       <use xlink:href="#DejaVuSans-30" x="222.65625"/>
       <use xlink:href="#DejaVuSans-30" x="286.279297"/>
       <use xlink:href="#DejaVuSans-38" x="349.902344"/>
      </g>
     </g>
    </g>
    <g id="ytick_6">
     <g id="line2d_25">
      <g>
       <use xlink:href="#m209d17549c" x="98.285625" y="25.165749" style="stroke: #000000; stroke-width: 0.8"/>
      </g>
     </g>
     <g id="line2d_26">
      <g>
       <use xlink:href="#mb6b10005a7" x="541.303125" y="25.165749" style="stroke: #000000; stroke-width: 0.8"/>
      </g>
     </g>
     <g id="text_13">
      <!-- 0.00010 -->
      <g transform="translate(28.620625 31.244499) scale(0.16 -0.16)">
       <use xlink:href="#DejaVuSans-30"/>
       <use xlink:href="#DejaVuSans-2e" x="63.623047"/>
       <use xlink:href="#DejaVuSans-30" x="95.410156"/>
       <use xlink:href="#DejaVuSans-30" x="159.033203"/>
       <use xlink:href="#DejaVuSans-30" x="222.65625"/>
       <use xlink:href="#DejaVuSans-31" x="286.279297"/>
       <use xlink:href="#DejaVuSans-30" x="349.902344"/>
      </g>
     </g>
    </g>
    <g id="text_14">
     <!-- Ampltude (Arb. U.) -->
     <g transform="translate(20.877188 294.808906) rotate(-90) scale(0.18 -0.18)">
      <defs>
       <path id="DejaVuSans-41" d="M 2188 4044 
L 1331 1722 
L 3047 1722 
L 2188 4044 
z
M 1831 4666 
L 2547 4666 
L 4325 0 
L 3669 0 
L 3244 1197 
L 1141 1197 
L 716 0 
L 50 0 
L 1831 4666 
z
" transform="scale(0.015625)"/>
       <path id="DejaVuSans-6d" d="M 3328 2828 
Q 3544 3216 3844 3400 
Q 4144 3584 4550 3584 
Q 5097 3584 5394 3201 
Q 5691 2819 5691 2113 
L 5691 0 
L 5113 0 
L 5113 2094 
Q 5113 2597 4934 2840 
Q 4756 3084 4391 3084 
Q 3944 3084 3684 2787 
Q 3425 2491 3425 1978 
L 3425 0 
L 2847 0 
L 2847 2094 
Q 2847 2600 2669 2842 
Q 2491 3084 2119 3084 
Q 1678 3084 1418 2786 
Q 1159 2488 1159 1978 
L 1159 0 
L 581 0 
L 581 3500 
L 1159 3500 
L 1159 2956 
Q 1356 3278 1631 3431 
Q 1906 3584 2284 3584 
Q 2666 3584 2933 3390 
Q 3200 3197 3328 2828 
z
" transform="scale(0.015625)"/>
       <path id="DejaVuSans-70" d="M 1159 525 
L 1159 -1331 
L 581 -1331 
L 581 3500 
L 1159 3500 
L 1159 2969 
Q 1341 3281 1617 3432 
Q 1894 3584 2278 3584 
Q 2916 3584 3314 3078 
Q 3713 2572 3713 1747 
Q 3713 922 3314 415 
Q 2916 -91 2278 -91 
Q 1894 -91 1617 61 
Q 1341 213 1159 525 
z
M 3116 1747 
Q 3116 2381 2855 2742 
Q 2594 3103 2138 3103 
Q 1681 3103 1420 2742 
Q 1159 2381 1159 1747 
Q 1159 1113 1420 752 
Q 1681 391 2138 391 
Q 2594 391 2855 752 
Q 3116 1113 3116 1747 
z
" transform="scale(0.015625)"/>
       <path id="DejaVuSans-6c" d="M 603 4863 
L 1178 4863 
L 1178 0 
L 603 0 
L 603 4863 
z
" transform="scale(0.015625)"/>
       <path id="DejaVuSans-74" d="M 1172 4494 
L 1172 3500 
L 2356 3500 
L 2356 3053 
L 1172 3053 
L 1172 1153 
Q 1172 725 1289 603 
Q 1406 481 1766 481 
L 2356 481 
L 2356 0 
L 1766 0 
Q 1100 0 847 248 
Q 594 497 594 1153 
L 594 3053 
L 172 3053 
L 172 3500 
L 594 3500 
L 594 4494 
L 1172 4494 
z
" transform="scale(0.015625)"/>
       <path id="DejaVuSans-75" d="M 544 1381 
L 544 3500 
L 1119 3500 
L 1119 1403 
Q 1119 906 1312 657 
Q 1506 409 1894 409 
Q 2359 409 2629 706 
Q 2900 1003 2900 1516 
L 2900 3500 
L 3475 3500 
L 3475 0 
L 2900 0 
L 2900 538 
Q 2691 219 2414 64 
Q 2138 -91 1772 -91 
Q 1169 -91 856 284 
Q 544 659 544 1381 
z
M 1991 3584 
L 1991 3584 
z
" transform="scale(0.015625)"/>
       <path id="DejaVuSans-64" d="M 2906 2969 
L 2906 4863 
L 3481 4863 
L 3481 0 
L 2906 0 
L 2906 525 
Q 2725 213 2448 61 
Q 2172 -91 1784 -91 
Q 1150 -91 751 415 
Q 353 922 353 1747 
Q 353 2572 751 3078 
Q 1150 3584 1784 3584 
Q 2172 3584 2448 3432 
Q 2725 3281 2906 2969 
z
M 947 1747 
Q 947 1113 1208 752 
Q 1469 391 1925 391 
Q 2381 391 2643 752 
Q 2906 1113 2906 1747 
Q 2906 2381 2643 2742 
Q 2381 3103 1925 3103 
Q 1469 3103 1208 2742 
Q 947 2381 947 1747 
z
" transform="scale(0.015625)"/>
       <path id="DejaVuSans-65" d="M 3597 1894 
L 3597 1613 
L 953 1613 
Q 991 1019 1311 708 
Q 1631 397 2203 397 
Q 2534 397 2845 478 
Q 3156 559 3463 722 
L 3463 178 
Q 3153 47 2828 -22 
Q 2503 -91 2169 -91 
Q 1331 -91 842 396 
Q 353 884 353 1716 
Q 353 2575 817 3079 
Q 1281 3584 2069 3584 
Q 2775 3584 3186 3129 
Q 3597 2675 3597 1894 
z
M 3022 2063 
Q 3016 2534 2758 2815 
Q 2500 3097 2075 3097 
Q 1594 3097 1305 2825 
Q 1016 2553 972 2059 
L 3022 2063 
z
" transform="scale(0.015625)"/>
       <path id="DejaVuSans-20" transform="scale(0.015625)"/>
       <path id="DejaVuSans-28" d="M 1984 4856 
Q 1566 4138 1362 3434 
Q 1159 2731 1159 2009 
Q 1159 1288 1364 580 
Q 1569 -128 1984 -844 
L 1484 -844 
Q 1016 -109 783 600 
Q 550 1309 550 2009 
Q 550 2706 781 3412 
Q 1013 4119 1484 4856 
L 1984 4856 
z
" transform="scale(0.015625)"/>
       <path id="DejaVuSans-72" d="M 2631 2963 
Q 2534 3019 2420 3045 
Q 2306 3072 2169 3072 
Q 1681 3072 1420 2755 
Q 1159 2438 1159 1844 
L 1159 0 
L 581 0 
L 581 3500 
L 1159 3500 
L 1159 2956 
Q 1341 3275 1631 3429 
Q 1922 3584 2338 3584 
Q 2397 3584 2469 3576 
Q 2541 3569 2628 3553 
L 2631 2963 
z
" transform="scale(0.015625)"/>
       <path id="DejaVuSans-62" d="M 3116 1747 
Q 3116 2381 2855 2742 
Q 2594 3103 2138 3103 
Q 1681 3103 1420 2742 
Q 1159 2381 1159 1747 
Q 1159 1113 1420 752 
Q 1681 391 2138 391 
Q 2594 391 2855 752 
Q 3116 1113 3116 1747 
z
M 1159 2969 
Q 1341 3281 1617 3432 
Q 1894 3584 2278 3584 
Q 2916 3584 3314 3078 
Q 3713 2572 3713 1747 
Q 3713 922 3314 415 
Q 2916 -91 2278 -91 
Q 1894 -91 1617 61 
Q 1341 213 1159 525 
L 1159 0 
L 581 0 
L 581 4863 
L 1159 4863 
L 1159 2969 
z
" transform="scale(0.015625)"/>
       <path id="DejaVuSans-55" d="M 556 4666 
L 1191 4666 
L 1191 1831 
Q 1191 1081 1462 751 
Q 1734 422 2344 422 
Q 2950 422 3222 751 
Q 3494 1081 3494 1831 
L 3494 4666 
L 4128 4666 
L 4128 1753 
Q 4128 841 3676 375 
Q 3225 -91 2344 -91 
Q 1459 -91 1007 375 
Q 556 841 556 1753 
L 556 4666 
z
" transform="scale(0.015625)"/>
       <path id="DejaVuSans-29" d="M 513 4856 
L 1013 4856 
Q 1481 4119 1714 3412 
Q 1947 2706 1947 2009 
Q 1947 1309 1714 600 
Q 1481 -109 1013 -844 
L 513 -844 
Q 928 -128 1133 580 
Q 1338 1288 1338 2009 
Q 1338 2731 1133 3434 
Q 928 4138 513 4856 
z
" transform="scale(0.015625)"/>
      </defs>
      <use xlink:href="#DejaVuSans-41"/>
      <use xlink:href="#DejaVuSans-6d" x="68.408203"/>
      <use xlink:href="#DejaVuSans-70" x="165.820312"/>
      <use xlink:href="#DejaVuSans-6c" x="229.296875"/>
      <use xlink:href="#DejaVuSans-74" x="257.080078"/>
      <use xlink:href="#DejaVuSans-75" x="296.289062"/>
      <use xlink:href="#DejaVuSans-64" x="359.667969"/>
      <use xlink:href="#DejaVuSans-65" x="423.144531"/>
      <use xlink:href="#DejaVuSans-20" x="484.667969"/>
      <use xlink:href="#DejaVuSans-28" x="516.455078"/>
      <use xlink:href="#DejaVuSans-41" x="555.46875"/>
      <use xlink:href="#DejaVuSans-72" x="623.876953"/>
      <use xlink:href="#DejaVuSans-62" x="664.990234"/>
      <use xlink:href="#DejaVuSans-2e" x="728.466797"/>
      <use xlink:href="#DejaVuSans-20" x="760.253906"/>
      <use xlink:href="#DejaVuSans-55" x="792.041016"/>
      <use xlink:href="#DejaVuSans-2e" x="865.234375"/>
      <use xlink:href="#DejaVuSans-29" x="897.021484"/>
     </g>
    </g>
   </g>
   <g id="line2d_27">
    <path d="M 319.794375 169.937172 
L 328.184858 153.665104 
L 336.575341 157.081631 
L 344.965824 172.435771 
L 353.356308 178.913676 
L 361.746789 197.293697 
L 370.137273 214.957161 
L 378.527754 227.507087 
L 386.918241 255.731847 
L 395.308722 292.183398 
L 403.699203 322.491606 
L 412.08969 355.525753 
L 420.48017 381.655518 
L 428.870657 380.769155 
L 437.261132 369.593783 
L 445.651619 335.975964 
L 454.042106 306.65302 
L 462.432581 273.477451 
L 470.823068 257.937301 
L 479.213555 240.585139 
L 487.60403 229.081924 
L 495.994517 159.884814 
L 504.385004 156.987382 
L 512.775479 123.913957 
L 521.165966 87.653795 
L 512.775479 99.057007 
L 504.385004 79.460976 
L 495.994517 77.77016 
L 487.60403 87.639317 
L 479.213555 91.845002 
L 470.823068 81.134638 
L 462.432581 92.645105 
L 454.042106 89.176717 
L 445.651619 100.052486 
L 437.261132 94.365464 
L 428.870657 84.719112 
L 420.48017 108.559255 
L 412.08969 110.210546 
L 403.699203 118.560046 
L 395.308722 134.681721 
L 386.918241 135.30146 
L 378.527754 143.88637 
L 370.137273 156.515198 
L 361.746789 135.509788 
L 353.356308 155.803243 
L 344.965824 147.871978 
L 336.575341 150.233993 
L 328.184858 160.162344 
L 319.794375 152.06348 
L 311.403892 154.706076 
L 303.013409 169.424915 
L 294.622926 170.650277 
L 286.232442 201.259236 
L 277.841961 216.681079 
L 269.451477 244.976312 
L 261.060996 279.467759 
L 252.670509 306.227345 
L 244.280028 381.421744 
L 235.889547 359.876736 
L 227.49906 280.907263 
L 219.10858 212.076025 
L 210.718093 164.73475 
L 202.327618 122.972854 
L 193.937131 113.943191 
L 185.546644 79.649689 
L 177.156169 82.601444 
L 168.765682 51.147894 
L 160.375195 58.978995 
L 151.98472 56.06176 
L 143.594233 61.742065 
L 135.203746 51.471371 
L 126.813271 46.746378 
L 118.422784 63.751354 
L 126.813271 48.048475 
L 135.203746 50.711141 
L 143.594233 52.305245 
L 151.98472 61.87426 
L 160.375195 52.09863 
L 168.765682 58.175735 
L 177.156169 52.242412 
L 185.546644 63.415059 
L 193.937131 61.901797 
L 202.327618 59.969149 
L 210.718093 72.503889 
L 219.10858 75.810645 
L 227.49906 96.144829 
L 235.889547 88.663671 
L 244.280028 84.775201 
L 252.670509 94.190693 
L 261.060996 106.91428 
L 269.451477 115.538125 
L 277.841961 108.010859 
L 286.232442 116.610191 
L 294.622926 125.976338 
L 303.013409 120.61001 
L 311.403892 131.027858 
L 319.794375 124.631611 
L 328.184858 117.698769 
L 336.575341 123.351805 
L 344.965824 147.393453 
L 353.356308 156.77718 
L 361.746789 181.212109 
L 370.137273 199.085747 
L 378.527754 242.024007 
L 386.918241 266.762049 
L 395.308722 305.67919 
L 403.699203 346.393026 
L 412.08969 380.357356 
L 420.48017 381.6675 
L 428.870657 381.356516 
L 437.261132 351.183719 
L 445.651619 328.280938 
L 454.042106 301.545296 
L 462.432581 280.951043 
L 470.823068 261.780974 
L 479.213555 236.538865 
L 487.60403 226.315603 
L 495.994517 212.286922 
L 504.385004 156.445354 
L 512.775479 134.553807 
L 521.165966 112.158581 
L 512.775479 86.967663 
L 504.385004 89.33099 
L 495.994517 83.808971 
L 487.60403 88.516784 
L 479.213555 83.196484 
L 470.823068 88.452693 
L 462.432581 76.826837 
L 454.042106 93.293237 
L 445.651619 91.523345 
L 437.261132 86.607498 
L 428.870657 94.782281 
L 420.48017 100.809505 
L 412.08969 115.852075 
L 403.699203 118.25795 
L 395.308722 123.332458 
L 386.918241 126.890974 
L 378.527754 142.468963 
L 370.137273 131.083172 
L 361.746789 135.067576 
L 353.356308 139.175238 
L 344.965824 135.12487 
L 336.575341 142.099645 
L 328.184858 147.424976 
L 319.794375 150.020367 
L 311.403892 152.470529 
L 303.013409 148.459391 
L 294.622926 181.9725 
L 286.232442 187.699876 
L 277.841961 212.579853 
L 269.451477 253.127077 
L 261.060996 283.866485 
L 252.670509 314.021738 
L 244.280028 381.597415 
L 235.889547 352.438654 
L 227.49906 292.305056 
L 219.10858 212.769462 
L 210.718093 151.402397 
L 202.327618 113.034147 
L 193.937131 92.74484 
L 185.546644 87.853479 
L 177.156169 77.860155 
L 168.765682 56.460915 
L 160.375195 52.657623 
L 151.98472 67.360474 
L 143.594233 55.967029 
L 135.203746 65.730698 
L 126.813271 55.675316 
L 118.422784 39.4675 
L 126.813271 48.193676 
L 135.203746 55.984263 
L 143.594233 62.99107 
L 151.98472 45.723871 
L 160.375195 53.024961 
L 168.765682 64.429939 
L 177.156169 57.933475 
L 185.546644 67.188513 
L 193.937131 74.152102 
L 202.327618 76.469936 
L 210.718093 77.142152 
L 219.10858 74.612565 
L 227.49906 91.36736 
L 235.889547 76.38227 
L 244.280028 84.517313 
L 252.670509 94.497124 
L 261.060996 87.810422 
L 269.451477 104.507522 
L 277.841961 129.409242 
L 286.232442 105.803999 
L 294.622926 105.638354 
L 303.013409 114.619341 
L 311.403892 113.28663 
L 311.403892 113.28663 
" clip-path="url(#p3f71caf355)" style="fill: none; stroke: #1f77b4; stroke-width: 1.5; stroke-linecap: square"/>
   </g>
   <g id="patch_3">
    <path d="M 98.285625 398.7775 
L 98.285625 22.3575 
" style="fill: none; stroke: #000000; stroke-width: 0.8; stroke-linejoin: miter; stroke-linecap: square"/>
   </g>
   <g id="patch_4">
    <path d="M 541.303125 398.7775 
L 541.303125 22.3575 
" style="fill: none; stroke: #000000; stroke-width: 0.8; stroke-linejoin: miter; stroke-linecap: square"/>
   </g>
   <g id="patch_5">
    <path d="M 98.285625 398.7775 
L 541.303125 398.7775 
" style="fill: none; stroke: #000000; stroke-width: 0.8; stroke-linejoin: miter; stroke-linecap: square"/>
   </g>
   <g id="patch_6">
    <path d="M 98.285625 22.3575 
L 541.303125 22.3575 
" style="fill: none; stroke: #000000; stroke-width: 0.8; stroke-linejoin: miter; stroke-linecap: square"/>
   </g>
   <g id="text_15">
    <!-- Amplitude -->
    <g transform="translate(289.047188 16.3575) scale(0.12 -0.12)">
     <defs>
      <path id="DejaVuSans-69" d="M 603 3500 
L 1178 3500 
L 1178 0 
L 603 0 
L 603 3500 
z
M 603 4863 
L 1178 4863 
L 1178 4134 
L 603 4134 
L 603 4863 
z
" transform="scale(0.015625)"/>
     </defs>
     <use xlink:href="#DejaVuSans-41"/>
     <use xlink:href="#DejaVuSans-6d" x="68.408203"/>
     <use xlink:href="#DejaVuSans-70" x="165.820312"/>
     <use xlink:href="#DejaVuSans-6c" x="229.296875"/>
     <use xlink:href="#DejaVuSans-69" x="257.080078"/>
     <use xlink:href="#DejaVuSans-74" x="284.863281"/>
     <use xlink:href="#DejaVuSans-75" x="324.072266"/>
     <use xlink:href="#DejaVuSans-64" x="387.451172"/>
     <use xlink:href="#DejaVuSans-65" x="450.927734"/>
    </g>
   </g>
  </g>
  <g id="axes_2">
   <g id="patch_7">
    <path d="M 632.953125 398.7775 
L 1075.970625 398.7775 
L 1075.970625 22.3575 
L 632.953125 22.3575 
z
" style="fill: #ffffff"/>
   </g>
   <g id="matplotlib.axis_3">
    <g id="xtick_8">
     <g id="line2d_28">
      <g>
       <use xlink:href="#me50baa7941" x="665.676009" y="398.7775" style="stroke: #000000; stroke-width: 0.8"/>
      </g>
     </g>
     <g id="line2d_29">
      <g>
       <use xlink:href="#m4a86af6e9f" x="665.676009" y="22.3575" style="stroke: #000000; stroke-width: 0.8"/>
      </g>
     </g>
     <g id="text_16">
      <!-- −15 -->
      <g transform="translate(648.792259 414.435) scale(0.16 -0.16)">
       <use xlink:href="#DejaVuSans-2212"/>
       <use xlink:href="#DejaVuSans-31" x="83.789062"/>
       <use xlink:href="#DejaVuSans-35" x="147.412109"/>
      </g>
     </g>
    </g>
    <g id="xtick_9">
     <g id="line2d_30">
      <g>
       <use xlink:href="#me50baa7941" x="728.604631" y="398.7775" style="stroke: #000000; stroke-width: 0.8"/>
      </g>
     </g>
     <g id="line2d_31">
      <g>
       <use xlink:href="#m4a86af6e9f" x="728.604631" y="22.3575" style="stroke: #000000; stroke-width: 0.8"/>
      </g>
     </g>
     <g id="text_17">
      <!-- −10 -->
      <g transform="translate(711.720881 414.435) scale(0.16 -0.16)">
       <use xlink:href="#DejaVuSans-2212"/>
       <use xlink:href="#DejaVuSans-31" x="83.789062"/>
       <use xlink:href="#DejaVuSans-30" x="147.412109"/>
      </g>
     </g>
    </g>
    <g id="xtick_10">
     <g id="line2d_32">
      <g>
       <use xlink:href="#me50baa7941" x="791.533253" y="398.7775" style="stroke: #000000; stroke-width: 0.8"/>
      </g>
     </g>
     <g id="line2d_33">
      <g>
       <use xlink:href="#m4a86af6e9f" x="791.533253" y="22.3575" style="stroke: #000000; stroke-width: 0.8"/>
      </g>
     </g>
     <g id="text_18">
      <!-- −5 -->
      <g transform="translate(779.739503 414.435) scale(0.16 -0.16)">
       <use xlink:href="#DejaVuSans-2212"/>
       <use xlink:href="#DejaVuSans-35" x="83.789062"/>
      </g>
     </g>
    </g>
    <g id="xtick_11">
     <g id="line2d_34">
      <g>
       <use xlink:href="#me50baa7941" x="854.461875" y="398.7775" style="stroke: #000000; stroke-width: 0.8"/>
      </g>
     </g>
     <g id="line2d_35">
      <g>
       <use xlink:href="#m4a86af6e9f" x="854.461875" y="22.3575" style="stroke: #000000; stroke-width: 0.8"/>
      </g>
     </g>
     <g id="text_19">
      <!-- 0 -->
      <g transform="translate(849.371875 414.435) scale(0.16 -0.16)">
       <use xlink:href="#DejaVuSans-30"/>
      </g>
     </g>
    </g>
    <g id="xtick_12">
     <g id="line2d_36">
      <g>
       <use xlink:href="#me50baa7941" x="917.390497" y="398.7775" style="stroke: #000000; stroke-width: 0.8"/>
      </g>
     </g>
     <g id="line2d_37">
      <g>
       <use xlink:href="#m4a86af6e9f" x="917.390497" y="22.3575" style="stroke: #000000; stroke-width: 0.8"/>
      </g>
     </g>
     <g id="text_20">
      <!-- 5 -->
      <g transform="translate(912.300497 414.435) scale(0.16 -0.16)">
       <use xlink:href="#DejaVuSans-35"/>
      </g>
     </g>
    </g>
    <g id="xtick_13">
     <g id="line2d_38">
      <g>
       <use xlink:href="#me50baa7941" x="980.319119" y="398.7775" style="stroke: #000000; stroke-width: 0.8"/>
      </g>
     </g>
     <g id="line2d_39">
      <g>
       <use xlink:href="#m4a86af6e9f" x="980.319119" y="22.3575" style="stroke: #000000; stroke-width: 0.8"/>
      </g>
     </g>
     <g id="text_21">
      <!-- 10 -->
      <g transform="translate(970.139119 414.435) scale(0.16 -0.16)">
       <use xlink:href="#DejaVuSans-31"/>
       <use xlink:href="#DejaVuSans-30" x="63.623047"/>
      </g>
     </g>
    </g>
    <g id="xtick_14">
     <g id="line2d_40">
      <g>
       <use xlink:href="#me50baa7941" x="1043.247741" y="398.7775" style="stroke: #000000; stroke-width: 0.8"/>
      </g>
     </g>
     <g id="line2d_41">
      <g>
       <use xlink:href="#m4a86af6e9f" x="1043.247741" y="22.3575" style="stroke: #000000; stroke-width: 0.8"/>
      </g>
     </g>
     <g id="text_22">
      <!-- 15 -->
      <g transform="translate(1033.067741 414.435) scale(0.16 -0.16)">
       <use xlink:href="#DejaVuSans-31"/>
       <use xlink:href="#DejaVuSans-35" x="63.623047"/>
      </g>
     </g>
    </g>
   </g>
   <g id="matplotlib.axis_4">
    <g id="ytick_7">
     <g id="line2d_42">
      <g>
       <use xlink:href="#m209d17549c" x="632.953125" y="374.139017" style="stroke: #000000; stroke-width: 0.8"/>
      </g>
     </g>
     <g id="line2d_43">
      <g>
       <use xlink:href="#mb6b10005a7" x="1075.970625" y="374.139017" style="stroke: #000000; stroke-width: 0.8"/>
      </g>
     </g>
     <g id="text_23">
      <!-- 1.3100 -->
      <g transform="translate(573.468125 380.217767) scale(0.16 -0.16)">
       <defs>
        <path id="DejaVuSans-33" d="M 2597 2516 
Q 3050 2419 3304 2112 
Q 3559 1806 3559 1356 
Q 3559 666 3084 287 
Q 2609 -91 1734 -91 
Q 1441 -91 1130 -33 
Q 819 25 488 141 
L 488 750 
Q 750 597 1062 519 
Q 1375 441 1716 441 
Q 2309 441 2620 675 
Q 2931 909 2931 1356 
Q 2931 1769 2642 2001 
Q 2353 2234 1838 2234 
L 1294 2234 
L 1294 2753 
L 1863 2753 
Q 2328 2753 2575 2939 
Q 2822 3125 2822 3475 
Q 2822 3834 2567 4026 
Q 2313 4219 1838 4219 
Q 1578 4219 1281 4162 
Q 984 4106 628 3988 
L 628 4550 
Q 988 4650 1302 4700 
Q 1616 4750 1894 4750 
Q 2613 4750 3031 4423 
Q 3450 4097 3450 3541 
Q 3450 3153 3228 2886 
Q 3006 2619 2597 2516 
z
" transform="scale(0.015625)"/>
       </defs>
       <use xlink:href="#DejaVuSans-31"/>
       <use xlink:href="#DejaVuSans-2e" x="63.623047"/>
       <use xlink:href="#DejaVuSans-33" x="95.410156"/>
       <use xlink:href="#DejaVuSans-31" x="159.033203"/>
       <use xlink:href="#DejaVuSans-30" x="222.65625"/>
       <use xlink:href="#DejaVuSans-30" x="286.279297"/>
      </g>
     </g>
    </g>
    <g id="ytick_8">
     <g id="line2d_44">
      <g>
       <use xlink:href="#m209d17549c" x="632.953125" y="330.343303" style="stroke: #000000; stroke-width: 0.8"/>
      </g>
     </g>
     <g id="line2d_45">
      <g>
       <use xlink:href="#mb6b10005a7" x="1075.970625" y="330.343303" style="stroke: #000000; stroke-width: 0.8"/>
      </g>
     </g>
     <g id="text_24">
      <!-- 1.3125 -->
      <g transform="translate(573.468125 336.422053) scale(0.16 -0.16)">
       <use xlink:href="#DejaVuSans-31"/>
       <use xlink:href="#DejaVuSans-2e" x="63.623047"/>
       <use xlink:href="#DejaVuSans-33" x="95.410156"/>
       <use xlink:href="#DejaVuSans-31" x="159.033203"/>
       <use xlink:href="#DejaVuSans-32" x="222.65625"/>
       <use xlink:href="#DejaVuSans-35" x="286.279297"/>
      </g>
     </g>
    </g>
    <g id="ytick_9">
     <g id="line2d_46">
      <g>
       <use xlink:href="#m209d17549c" x="632.953125" y="286.547589" style="stroke: #000000; stroke-width: 0.8"/>
      </g>
     </g>
     <g id="line2d_47">
      <g>
       <use xlink:href="#mb6b10005a7" x="1075.970625" y="286.547589" style="stroke: #000000; stroke-width: 0.8"/>
      </g>
     </g>
     <g id="text_25">
      <!-- 1.3150 -->
      <g transform="translate(573.468125 292.626339) scale(0.16 -0.16)">
       <use xlink:href="#DejaVuSans-31"/>
       <use xlink:href="#DejaVuSans-2e" x="63.623047"/>
       <use xlink:href="#DejaVuSans-33" x="95.410156"/>
       <use xlink:href="#DejaVuSans-31" x="159.033203"/>
       <use xlink:href="#DejaVuSans-35" x="222.65625"/>
       <use xlink:href="#DejaVuSans-30" x="286.279297"/>
      </g>
     </g>
    </g>
    <g id="ytick_10">
     <g id="line2d_48">
      <g>
       <use xlink:href="#m209d17549c" x="632.953125" y="242.751875" style="stroke: #000000; stroke-width: 0.8"/>
      </g>
     </g>
     <g id="line2d_49">
      <g>
       <use xlink:href="#mb6b10005a7" x="1075.970625" y="242.751875" style="stroke: #000000; stroke-width: 0.8"/>
      </g>
     </g>
     <g id="text_26">
      <!-- 1.3175 -->
      <g transform="translate(573.468125 248.830625) scale(0.16 -0.16)">
       <defs>
        <path id="DejaVuSans-37" d="M 525 4666 
L 3525 4666 
L 3525 4397 
L 1831 0 
L 1172 0 
L 2766 4134 
L 525 4134 
L 525 4666 
z
" transform="scale(0.015625)"/>
       </defs>
       <use xlink:href="#DejaVuSans-31"/>
       <use xlink:href="#DejaVuSans-2e" x="63.623047"/>
       <use xlink:href="#DejaVuSans-33" x="95.410156"/>
       <use xlink:href="#DejaVuSans-31" x="159.033203"/>
       <use xlink:href="#DejaVuSans-37" x="222.65625"/>
       <use xlink:href="#DejaVuSans-35" x="286.279297"/>
      </g>
     </g>
    </g>
    <g id="ytick_11">
     <g id="line2d_50">
      <g>
       <use xlink:href="#m209d17549c" x="632.953125" y="198.956161" style="stroke: #000000; stroke-width: 0.8"/>
      </g>
     </g>
     <g id="line2d_51">
      <g>
       <use xlink:href="#mb6b10005a7" x="1075.970625" y="198.956161" style="stroke: #000000; stroke-width: 0.8"/>
      </g>
     </g>
     <g id="text_27">
      <!-- 1.3200 -->
      <g transform="translate(573.468125 205.034911) scale(0.16 -0.16)">
       <use xlink:href="#DejaVuSans-31"/>
       <use xlink:href="#DejaVuSans-2e" x="63.623047"/>
       <use xlink:href="#DejaVuSans-33" x="95.410156"/>
       <use xlink:href="#DejaVuSans-32" x="159.033203"/>
       <use xlink:href="#DejaVuSans-30" x="222.65625"/>
       <use xlink:href="#DejaVuSans-30" x="286.279297"/>
      </g>
     </g>
    </g>
    <g id="ytick_12">
     <g id="line2d_52">
      <g>
       <use xlink:href="#m209d17549c" x="632.953125" y="155.160448" style="stroke: #000000; stroke-width: 0.8"/>
      </g>
     </g>
     <g id="line2d_53">
      <g>
       <use xlink:href="#mb6b10005a7" x="1075.970625" y="155.160448" style="stroke: #000000; stroke-width: 0.8"/>
      </g>
     </g>
     <g id="text_28">
      <!-- 1.3225 -->
      <g transform="translate(573.468125 161.239198) scale(0.16 -0.16)">
       <use xlink:href="#DejaVuSans-31"/>
       <use xlink:href="#DejaVuSans-2e" x="63.623047"/>
       <use xlink:href="#DejaVuSans-33" x="95.410156"/>
       <use xlink:href="#DejaVuSans-32" x="159.033203"/>
       <use xlink:href="#DejaVuSans-32" x="222.65625"/>
       <use xlink:href="#DejaVuSans-35" x="286.279297"/>
      </g>
     </g>
    </g>
    <g id="ytick_13">
     <g id="line2d_54">
      <g>
       <use xlink:href="#m209d17549c" x="632.953125" y="111.364734" style="stroke: #000000; stroke-width: 0.8"/>
      </g>
     </g>
     <g id="line2d_55">
      <g>
       <use xlink:href="#mb6b10005a7" x="1075.970625" y="111.364734" style="stroke: #000000; stroke-width: 0.8"/>
      </g>
     </g>
     <g id="text_29">
      <!-- 1.3250 -->
      <g transform="translate(573.468125 117.443484) scale(0.16 -0.16)">
       <use xlink:href="#DejaVuSans-31"/>
       <use xlink:href="#DejaVuSans-2e" x="63.623047"/>
       <use xlink:href="#DejaVuSans-33" x="95.410156"/>
       <use xlink:href="#DejaVuSans-32" x="159.033203"/>
       <use xlink:href="#DejaVuSans-35" x="222.65625"/>
       <use xlink:href="#DejaVuSans-30" x="286.279297"/>
      </g>
     </g>
    </g>
    <g id="ytick_14">
     <g id="line2d_56">
      <g>
       <use xlink:href="#m209d17549c" x="632.953125" y="67.56902" style="stroke: #000000; stroke-width: 0.8"/>
      </g>
     </g>
     <g id="line2d_57">
      <g>
       <use xlink:href="#mb6b10005a7" x="1075.970625" y="67.56902" style="stroke: #000000; stroke-width: 0.8"/>
      </g>
     </g>
     <g id="text_30">
      <!-- 1.3275 -->
      <g transform="translate(573.468125 73.64777) scale(0.16 -0.16)">
       <use xlink:href="#DejaVuSans-31"/>
       <use xlink:href="#DejaVuSans-2e" x="63.623047"/>
       <use xlink:href="#DejaVuSans-33" x="95.410156"/>
       <use xlink:href="#DejaVuSans-32" x="159.033203"/>
       <use xlink:href="#DejaVuSans-37" x="222.65625"/>
       <use xlink:href="#DejaVuSans-35" x="286.279297"/>
      </g>
     </g>
    </g>
    <g id="ytick_15">
     <g id="line2d_58">
      <g>
       <use xlink:href="#m209d17549c" x="632.953125" y="23.773306" style="stroke: #000000; stroke-width: 0.8"/>
      </g>
     </g>
     <g id="line2d_59">
      <g>
       <use xlink:href="#mb6b10005a7" x="1075.970625" y="23.773306" style="stroke: #000000; stroke-width: 0.8"/>
      </g>
     </g>
     <g id="text_31">
      <!-- 1.3300 -->
      <g transform="translate(573.468125 29.852056) scale(0.16 -0.16)">
       <use xlink:href="#DejaVuSans-31"/>
       <use xlink:href="#DejaVuSans-2e" x="63.623047"/>
       <use xlink:href="#DejaVuSans-33" x="95.410156"/>
       <use xlink:href="#DejaVuSans-33" x="159.033203"/>
       <use xlink:href="#DejaVuSans-30" x="222.65625"/>
       <use xlink:href="#DejaVuSans-30" x="286.279297"/>
      </g>
     </g>
    </g>
    <g id="text_32">
     <!-- Resonance Frequency (Hz) -->
     <g transform="translate(565.724687 330.287187) rotate(-90) scale(0.18 -0.18)">
      <defs>
       <path id="DejaVuSans-52" d="M 2841 2188 
Q 3044 2119 3236 1894 
Q 3428 1669 3622 1275 
L 4263 0 
L 3584 0 
L 2988 1197 
Q 2756 1666 2539 1819 
Q 2322 1972 1947 1972 
L 1259 1972 
L 1259 0 
L 628 0 
L 628 4666 
L 2053 4666 
Q 2853 4666 3247 4331 
Q 3641 3997 3641 3322 
Q 3641 2881 3436 2590 
Q 3231 2300 2841 2188 
z
M 1259 4147 
L 1259 2491 
L 2053 2491 
Q 2509 2491 2742 2702 
Q 2975 2913 2975 3322 
Q 2975 3731 2742 3939 
Q 2509 4147 2053 4147 
L 1259 4147 
z
" transform="scale(0.015625)"/>
       <path id="DejaVuSans-73" d="M 2834 3397 
L 2834 2853 
Q 2591 2978 2328 3040 
Q 2066 3103 1784 3103 
Q 1356 3103 1142 2972 
Q 928 2841 928 2578 
Q 928 2378 1081 2264 
Q 1234 2150 1697 2047 
L 1894 2003 
Q 2506 1872 2764 1633 
Q 3022 1394 3022 966 
Q 3022 478 2636 193 
Q 2250 -91 1575 -91 
Q 1294 -91 989 -36 
Q 684 19 347 128 
L 347 722 
Q 666 556 975 473 
Q 1284 391 1588 391 
Q 1994 391 2212 530 
Q 2431 669 2431 922 
Q 2431 1156 2273 1281 
Q 2116 1406 1581 1522 
L 1381 1569 
Q 847 1681 609 1914 
Q 372 2147 372 2553 
Q 372 3047 722 3315 
Q 1072 3584 1716 3584 
Q 2034 3584 2315 3537 
Q 2597 3491 2834 3397 
z
" transform="scale(0.015625)"/>
       <path id="DejaVuSans-6f" d="M 1959 3097 
Q 1497 3097 1228 2736 
Q 959 2375 959 1747 
Q 959 1119 1226 758 
Q 1494 397 1959 397 
Q 2419 397 2687 759 
Q 2956 1122 2956 1747 
Q 2956 2369 2687 2733 
Q 2419 3097 1959 3097 
z
M 1959 3584 
Q 2709 3584 3137 3096 
Q 3566 2609 3566 1747 
Q 3566 888 3137 398 
Q 2709 -91 1959 -91 
Q 1206 -91 779 398 
Q 353 888 353 1747 
Q 353 2609 779 3096 
Q 1206 3584 1959 3584 
z
" transform="scale(0.015625)"/>
       <path id="DejaVuSans-6e" d="M 3513 2113 
L 3513 0 
L 2938 0 
L 2938 2094 
Q 2938 2591 2744 2837 
Q 2550 3084 2163 3084 
Q 1697 3084 1428 2787 
Q 1159 2491 1159 1978 
L 1159 0 
L 581 0 
L 581 3500 
L 1159 3500 
L 1159 2956 
Q 1366 3272 1645 3428 
Q 1925 3584 2291 3584 
Q 2894 3584 3203 3211 
Q 3513 2838 3513 2113 
z
" transform="scale(0.015625)"/>
       <path id="DejaVuSans-61" d="M 2194 1759 
Q 1497 1759 1228 1600 
Q 959 1441 959 1056 
Q 959 750 1161 570 
Q 1363 391 1709 391 
Q 2188 391 2477 730 
Q 2766 1069 2766 1631 
L 2766 1759 
L 2194 1759 
z
M 3341 1997 
L 3341 0 
L 2766 0 
L 2766 531 
Q 2569 213 2275 61 
Q 1981 -91 1556 -91 
Q 1019 -91 701 211 
Q 384 513 384 1019 
Q 384 1609 779 1909 
Q 1175 2209 1959 2209 
L 2766 2209 
L 2766 2266 
Q 2766 2663 2505 2880 
Q 2244 3097 1772 3097 
Q 1472 3097 1187 3025 
Q 903 2953 641 2809 
L 641 3341 
Q 956 3463 1253 3523 
Q 1550 3584 1831 3584 
Q 2591 3584 2966 3190 
Q 3341 2797 3341 1997 
z
" transform="scale(0.015625)"/>
       <path id="DejaVuSans-63" d="M 3122 3366 
L 3122 2828 
Q 2878 2963 2633 3030 
Q 2388 3097 2138 3097 
Q 1578 3097 1268 2742 
Q 959 2388 959 1747 
Q 959 1106 1268 751 
Q 1578 397 2138 397 
Q 2388 397 2633 464 
Q 2878 531 3122 666 
L 3122 134 
Q 2881 22 2623 -34 
Q 2366 -91 2075 -91 
Q 1284 -91 818 406 
Q 353 903 353 1747 
Q 353 2603 823 3093 
Q 1294 3584 2113 3584 
Q 2378 3584 2631 3529 
Q 2884 3475 3122 3366 
z
" transform="scale(0.015625)"/>
       <path id="DejaVuSans-46" d="M 628 4666 
L 3309 4666 
L 3309 4134 
L 1259 4134 
L 1259 2759 
L 3109 2759 
L 3109 2228 
L 1259 2228 
L 1259 0 
L 628 0 
L 628 4666 
z
" transform="scale(0.015625)"/>
       <path id="DejaVuSans-71" d="M 947 1747 
Q 947 1113 1208 752 
Q 1469 391 1925 391 
Q 2381 391 2643 752 
Q 2906 1113 2906 1747 
Q 2906 2381 2643 2742 
Q 2381 3103 1925 3103 
Q 1469 3103 1208 2742 
Q 947 2381 947 1747 
z
M 2906 525 
Q 2725 213 2448 61 
Q 2172 -91 1784 -91 
Q 1150 -91 751 415 
Q 353 922 353 1747 
Q 353 2572 751 3078 
Q 1150 3584 1784 3584 
Q 2172 3584 2448 3432 
Q 2725 3281 2906 2969 
L 2906 3500 
L 3481 3500 
L 3481 -1331 
L 2906 -1331 
L 2906 525 
z
" transform="scale(0.015625)"/>
       <path id="DejaVuSans-79" d="M 2059 -325 
Q 1816 -950 1584 -1140 
Q 1353 -1331 966 -1331 
L 506 -1331 
L 506 -850 
L 844 -850 
Q 1081 -850 1212 -737 
Q 1344 -625 1503 -206 
L 1606 56 
L 191 3500 
L 800 3500 
L 1894 763 
L 2988 3500 
L 3597 3500 
L 2059 -325 
z
" transform="scale(0.015625)"/>
       <path id="DejaVuSans-48" d="M 628 4666 
L 1259 4666 
L 1259 2753 
L 3553 2753 
L 3553 4666 
L 4184 4666 
L 4184 0 
L 3553 0 
L 3553 2222 
L 1259 2222 
L 1259 0 
L 628 0 
L 628 4666 
z
" transform="scale(0.015625)"/>
       <path id="DejaVuSans-7a" d="M 353 3500 
L 3084 3500 
L 3084 2975 
L 922 459 
L 3084 459 
L 3084 0 
L 275 0 
L 275 525 
L 2438 3041 
L 353 3041 
L 353 3500 
z
" transform="scale(0.015625)"/>
      </defs>
      <use xlink:href="#DejaVuSans-52"/>
      <use xlink:href="#DejaVuSans-65" x="64.982422"/>
      <use xlink:href="#DejaVuSans-73" x="126.505859"/>
      <use xlink:href="#DejaVuSans-6f" x="178.605469"/>
      <use xlink:href="#DejaVuSans-6e" x="239.787109"/>
      <use xlink:href="#DejaVuSans-61" x="303.166016"/>
      <use xlink:href="#DejaVuSans-6e" x="364.445312"/>
      <use xlink:href="#DejaVuSans-63" x="427.824219"/>
      <use xlink:href="#DejaVuSans-65" x="482.804688"/>
      <use xlink:href="#DejaVuSans-20" x="544.328125"/>
      <use xlink:href="#DejaVuSans-46" x="576.115234"/>
      <use xlink:href="#DejaVuSans-72" x="626.384766"/>
      <use xlink:href="#DejaVuSans-65" x="665.248047"/>
      <use xlink:href="#DejaVuSans-71" x="726.771484"/>
      <use xlink:href="#DejaVuSans-75" x="790.248047"/>
      <use xlink:href="#DejaVuSans-65" x="853.626953"/>
      <use xlink:href="#DejaVuSans-6e" x="915.150391"/>
      <use xlink:href="#DejaVuSans-63" x="978.529297"/>
      <use xlink:href="#DejaVuSans-79" x="1033.509766"/>
      <use xlink:href="#DejaVuSans-20" x="1092.689453"/>
      <use xlink:href="#DejaVuSans-28" x="1124.476562"/>
      <use xlink:href="#DejaVuSans-48" x="1163.490234"/>
      <use xlink:href="#DejaVuSans-7a" x="1238.685547"/>
      <use xlink:href="#DejaVuSans-29" x="1291.175781"/>
     </g>
    </g>
    <g id="text_33">
     <!-- 1e6 -->
     <g transform="translate(632.953125 19.3575) scale(0.16 -0.16)">
      <use xlink:href="#DejaVuSans-31"/>
      <use xlink:href="#DejaVuSans-65" x="63.623047"/>
      <use xlink:href="#DejaVuSans-36" x="125.146484"/>
     </g>
    </g>
   </g>
   <g id="line2d_60">
    <path d="M 854.461875 60.8201 
L 862.852358 61.034699 
L 871.242841 59.60039 
L 879.633324 61.512073 
L 888.023808 58.658782 
L 896.414289 59.714259 
L 904.804773 62.322293 
L 913.195254 61.363167 
L 921.585741 64.240546 
L 929.976222 65.904783 
L 938.366703 68.569752 
L 946.75719 76.55809 
L 955.14767 381.6675 
L 963.538157 381.6675 
L 971.928632 64.507699 
L 980.319119 69.603331 
L 988.709606 56.847829 
L 997.100081 61.448569 
L 1005.490568 60.119369 
L 1013.881055 58.974111 
L 1022.27153 66.74785 
L 1030.662017 63.57704 
L 1039.052504 64.993832 
L 1047.442979 67.034712 
L 1055.833466 61.277766 
L 1047.442979 62.952952 
L 1039.052504 63.436894 
L 1030.662017 66.196024 
L 1022.27153 65.611351 
L 1013.881055 61.925942 
L 1005.490568 63.07558 
L 997.100081 62.497476 
L 988.709606 60.038347 
L 980.319119 59.133965 
L 971.928632 59.379221 
L 963.538157 62.201855 
L 955.14767 56.957318 
L 946.75719 58.431044 
L 938.366703 58.043452 
L 929.976222 54.802569 
L 921.585741 52.884317 
L 913.195254 56.712062 
L 904.804773 57.101844 
L 896.414289 55.568994 
L 888.023808 55.00184 
L 879.633324 53.423004 
L 862.852358 55.082862 
L 854.461875 52.505484 
L 846.071392 52.634681 
L 837.680909 51.63176 
L 829.290426 57.222282 
L 820.899942 53.394537 
L 812.509461 57.174107 
L 804.118977 56.309142 
L 795.728496 56.103302 
L 787.338009 68.738365 
L 778.947528 381.6675 
L 770.557047 60.450027 
L 762.16656 78.855175 
L 753.77608 57.14345 
L 745.385593 54.69308 
L 736.995118 60.447837 
L 728.604631 60.491632 
L 720.214144 58.448562 
L 711.823669 62.788718 
L 695.042695 63.447843 
L 686.65222 62.593827 
L 678.261733 64.159523 
L 669.871246 67.323764 
L 661.480771 66.581426 
L 653.090284 67.457341 
L 661.480771 69.859536 
L 669.871246 68.315737 
L 678.261733 64.766094 
L 686.65222 65.21281 
L 695.042695 63.559522 
L 703.433182 64.406969 
L 711.823669 61.588715 
L 720.214144 60.00331 
L 728.604631 61.807694 
L 736.995118 58.498927 
L 745.385593 60.095281 
L 753.77608 54.728116 
L 762.16656 56.387974 
L 770.557047 54.721547 
L 778.947528 52.695995 
L 787.338009 53.558771 
L 795.728496 50.048544 
L 804.118977 48.421534 
L 812.509461 50.624458 
L 820.899942 49.144163 
L 829.290426 50.587232 
L 837.680909 45.631747 
L 846.071392 47.786496 
L 854.461875 45.110578 
L 862.852358 47.779926 
L 871.242841 47.751459 
L 879.633324 46.884304 
L 888.023808 52.599645 
L 896.414289 45.566053 
L 904.804773 55.30403 
L 913.195254 53.236872 
L 921.585741 63.675581 
L 929.976222 48.283577 
L 938.366703 58.87776 
L 946.75719 381.6675 
L 963.538157 381.6675 
L 971.928632 69.277053 
L 980.319119 42.086484 
L 988.709606 57.793816 
L 997.100081 51.347087 
L 1005.490568 51.301102 
L 1013.881055 52.44636 
L 1022.27153 51.2157 
L 1030.662017 48.123723 
L 1039.052504 55.836148 
L 1047.442979 57.872649 
L 1055.833466 54.48724 
L 1047.442979 54.863883 
L 1039.052504 52.917164 
L 1030.662017 53.687968 
L 1022.27153 53.309135 
L 1013.881055 51.774096 
L 997.100081 51.644898 
L 988.709606 51.224459 
L 980.319119 48.916425 
L 971.928632 48.018613 
L 963.538157 50.039785 
L 955.14767 49.921537 
L 946.75719 46.244887 
L 938.366703 49.663142 
L 929.976222 43.122252 
L 921.585741 44.703278 
L 913.195254 45.149994 
L 904.804773 42.298893 
L 896.414289 45.224447 
L 888.023808 48.936133 
L 879.633324 43.514224 
L 871.242841 45.837587 
L 862.852358 42.32517 
L 854.461875 42.682105 
L 846.071392 41.140496 
L 837.680909 46.698172 
L 829.290426 41.471154 
L 820.899942 42.506923 
L 812.509461 44.47554 
L 804.118977 45.5989 
L 795.728496 51.182853 
L 787.338009 57.460969 
L 778.947528 381.6675 
L 770.557047 75.005532 
L 762.16656 53.742713 
L 753.77608 48.169708 
L 745.385593 45.874813 
L 736.995118 51.480664 
L 728.604631 51.701833 
L 720.214144 49.48577 
L 711.823669 50.650736 
L 703.433182 53.331033 
L 695.042695 53.451471 
L 686.65222 53.179938 
L 678.261733 55.868995 
L 669.871246 56.455857 
L 661.480771 56.880676 
L 653.090284 57.504765 
L 661.480771 58.295277 
L 669.871246 57.721554 
L 678.261733 56.468996 
L 686.65222 54.581401 
L 695.042695 54.555123 
L 703.433182 56.232499 
L 711.823669 54.038334 
L 720.214144 52.03687 
L 728.604631 51.861687 
L 736.995118 52.203294 
L 745.385593 49.435404 
L 753.77608 48.675549 
L 762.16656 51.62738 
L 770.557047 47.33102 
L 778.947528 46.21423 
L 787.338009 47.714233 
L 795.728496 46.562406 
L 804.118977 43.912765 
L 812.509461 42.774076 
L 820.899942 42.439039 
L 829.290426 42.502543 
L 837.680909 41.186482 
L 846.071392 39.4675 
L 846.071392 39.4675 
" clip-path="url(#p24364c5a76)" style="fill: none; stroke: #1f77b4; stroke-width: 1.5; stroke-linecap: square"/>
   </g>
   <g id="patch_8">
    <path d="M 632.953125 398.7775 
L 632.953125 22.3575 
" style="fill: none; stroke: #000000; stroke-width: 0.8; stroke-linejoin: miter; stroke-linecap: square"/>
   </g>
   <g id="patch_9">
    <path d="M 1075.970625 398.7775 
L 1075.970625 22.3575 
" style="fill: none; stroke: #000000; stroke-width: 0.8; stroke-linejoin: miter; stroke-linecap: square"/>
   </g>
   <g id="patch_10">
    <path d="M 632.953125 398.7775 
L 1075.970625 398.7775 
" style="fill: none; stroke: #000000; stroke-width: 0.8; stroke-linejoin: miter; stroke-linecap: square"/>
   </g>
   <g id="patch_11">
    <path d="M 632.953125 22.3575 
L 1075.970625 22.3575 
" style="fill: none; stroke: #000000; stroke-width: 0.8; stroke-linejoin: miter; stroke-linecap: square"/>
   </g>
   <g id="text_34">
    <!-- Resonance Frequency -->
    <g transform="translate(788.89875 16.3575) scale(0.12 -0.12)">
     <use xlink:href="#DejaVuSans-52"/>
     <use xlink:href="#DejaVuSans-65" x="64.982422"/>
     <use xlink:href="#DejaVuSans-73" x="126.505859"/>
     <use xlink:href="#DejaVuSans-6f" x="178.605469"/>
     <use xlink:href="#DejaVuSans-6e" x="239.787109"/>
     <use xlink:href="#DejaVuSans-61" x="303.166016"/>
     <use xlink:href="#DejaVuSans-6e" x="364.445312"/>
     <use xlink:href="#DejaVuSans-63" x="427.824219"/>
     <use xlink:href="#DejaVuSans-65" x="482.804688"/>
     <use xlink:href="#DejaVuSans-20" x="544.328125"/>
     <use xlink:href="#DejaVuSans-46" x="576.115234"/>
     <use xlink:href="#DejaVuSans-72" x="626.384766"/>
     <use xlink:href="#DejaVuSans-65" x="665.248047"/>
     <use xlink:href="#DejaVuSans-71" x="726.771484"/>
     <use xlink:href="#DejaVuSans-75" x="790.248047"/>
     <use xlink:href="#DejaVuSans-65" x="853.626953"/>
     <use xlink:href="#DejaVuSans-6e" x="915.150391"/>
     <use xlink:href="#DejaVuSans-63" x="978.529297"/>
     <use xlink:href="#DejaVuSans-79" x="1033.509766"/>
    </g>
   </g>
  </g>
  <g id="axes_3">
   <g id="patch_12">
    <path d="M 1167.620625 398.7775 
L 1610.638125 398.7775 
L 1610.638125 22.3575 
L 1167.620625 22.3575 
z
" style="fill: #ffffff"/>
   </g>
   <g id="matplotlib.axis_5">
    <g id="xtick_15">
     <g id="line2d_61">
      <g>
       <use xlink:href="#me50baa7941" x="1200.343509" y="398.7775" style="stroke: #000000; stroke-width: 0.8"/>
      </g>
     </g>
     <g id="line2d_62">
      <g>
       <use xlink:href="#m4a86af6e9f" x="1200.343509" y="22.3575" style="stroke: #000000; stroke-width: 0.8"/>
      </g>
     </g>
     <g id="text_35">
      <!-- −15 -->
      <g transform="translate(1183.459759 414.435) scale(0.16 -0.16)">
       <use xlink:href="#DejaVuSans-2212"/>
       <use xlink:href="#DejaVuSans-31" x="83.789062"/>
       <use xlink:href="#DejaVuSans-35" x="147.412109"/>
      </g>
     </g>
    </g>
    <g id="xtick_16">
     <g id="line2d_63">
      <g>
       <use xlink:href="#me50baa7941" x="1263.272131" y="398.7775" style="stroke: #000000; stroke-width: 0.8"/>
      </g>
     </g>
     <g id="line2d_64">
      <g>
       <use xlink:href="#m4a86af6e9f" x="1263.272131" y="22.3575" style="stroke: #000000; stroke-width: 0.8"/>
      </g>
     </g>
     <g id="text_36">
      <!-- −10 -->
      <g transform="translate(1246.388381 414.435) scale(0.16 -0.16)">
       <use xlink:href="#DejaVuSans-2212"/>
       <use xlink:href="#DejaVuSans-31" x="83.789062"/>
       <use xlink:href="#DejaVuSans-30" x="147.412109"/>
      </g>
     </g>
    </g>
    <g id="xtick_17">
     <g id="line2d_65">
      <g>
       <use xlink:href="#me50baa7941" x="1326.200753" y="398.7775" style="stroke: #000000; stroke-width: 0.8"/>
      </g>
     </g>
     <g id="line2d_66">
      <g>
       <use xlink:href="#m4a86af6e9f" x="1326.200753" y="22.3575" style="stroke: #000000; stroke-width: 0.8"/>
      </g>
     </g>
     <g id="text_37">
      <!-- −5 -->
      <g transform="translate(1314.407003 414.435) scale(0.16 -0.16)">
       <use xlink:href="#DejaVuSans-2212"/>
       <use xlink:href="#DejaVuSans-35" x="83.789062"/>
      </g>
     </g>
    </g>
    <g id="xtick_18">
     <g id="line2d_67">
      <g>
       <use xlink:href="#me50baa7941" x="1389.129375" y="398.7775" style="stroke: #000000; stroke-width: 0.8"/>
      </g>
     </g>
     <g id="line2d_68">
      <g>
       <use xlink:href="#m4a86af6e9f" x="1389.129375" y="22.3575" style="stroke: #000000; stroke-width: 0.8"/>
      </g>
     </g>
     <g id="text_38">
      <!-- 0 -->
      <g transform="translate(1384.039375 414.435) scale(0.16 -0.16)">
       <use xlink:href="#DejaVuSans-30"/>
      </g>
     </g>
    </g>
    <g id="xtick_19">
     <g id="line2d_69">
      <g>
       <use xlink:href="#me50baa7941" x="1452.057997" y="398.7775" style="stroke: #000000; stroke-width: 0.8"/>
      </g>
     </g>
     <g id="line2d_70">
      <g>
       <use xlink:href="#m4a86af6e9f" x="1452.057997" y="22.3575" style="stroke: #000000; stroke-width: 0.8"/>
      </g>
     </g>
     <g id="text_39">
      <!-- 5 -->
      <g transform="translate(1446.967997 414.435) scale(0.16 -0.16)">
       <use xlink:href="#DejaVuSans-35"/>
      </g>
     </g>
    </g>
    <g id="xtick_20">
     <g id="line2d_71">
      <g>
       <use xlink:href="#me50baa7941" x="1514.986619" y="398.7775" style="stroke: #000000; stroke-width: 0.8"/>
      </g>
     </g>
     <g id="line2d_72">
      <g>
       <use xlink:href="#m4a86af6e9f" x="1514.986619" y="22.3575" style="stroke: #000000; stroke-width: 0.8"/>
      </g>
     </g>
     <g id="text_40">
      <!-- 10 -->
      <g transform="translate(1504.806619 414.435) scale(0.16 -0.16)">
       <use xlink:href="#DejaVuSans-31"/>
       <use xlink:href="#DejaVuSans-30" x="63.623047"/>
      </g>
     </g>
    </g>
    <g id="xtick_21">
     <g id="line2d_73">
      <g>
       <use xlink:href="#me50baa7941" x="1577.915241" y="398.7775" style="stroke: #000000; stroke-width: 0.8"/>
      </g>
     </g>
     <g id="line2d_74">
      <g>
       <use xlink:href="#m4a86af6e9f" x="1577.915241" y="22.3575" style="stroke: #000000; stroke-width: 0.8"/>
      </g>
     </g>
     <g id="text_41">
      <!-- 15 -->
      <g transform="translate(1567.735241 414.435) scale(0.16 -0.16)">
       <use xlink:href="#DejaVuSans-31"/>
       <use xlink:href="#DejaVuSans-35" x="63.623047"/>
      </g>
     </g>
    </g>
   </g>
   <g id="matplotlib.axis_6">
    <g id="ytick_16">
     <g id="line2d_75">
      <g>
       <use xlink:href="#m209d17549c" x="1167.620625" y="389.09197" style="stroke: #000000; stroke-width: 0.8"/>
      </g>
     </g>
     <g id="line2d_76">
      <g>
       <use xlink:href="#mb6b10005a7" x="1610.638125" y="389.09197" style="stroke: #000000; stroke-width: 0.8"/>
      </g>
     </g>
     <g id="text_42">
      <!-- −400 -->
      <g transform="translate(1120.173125 395.17072) scale(0.16 -0.16)">
       <use xlink:href="#DejaVuSans-2212"/>
       <use xlink:href="#DejaVuSans-34" x="83.789062"/>
       <use xlink:href="#DejaVuSans-30" x="147.412109"/>
       <use xlink:href="#DejaVuSans-30" x="211.035156"/>
      </g>
     </g>
    </g>
    <g id="ytick_17">
     <g id="line2d_77">
      <g>
       <use xlink:href="#m209d17549c" x="1167.620625" y="330.821225" style="stroke: #000000; stroke-width: 0.8"/>
      </g>
     </g>
     <g id="line2d_78">
      <g>
       <use xlink:href="#mb6b10005a7" x="1610.638125" y="330.821225" style="stroke: #000000; stroke-width: 0.8"/>
      </g>
     </g>
     <g id="text_43">
      <!-- −300 -->
      <g transform="translate(1120.173125 336.899975) scale(0.16 -0.16)">
       <use xlink:href="#DejaVuSans-2212"/>
       <use xlink:href="#DejaVuSans-33" x="83.789062"/>
       <use xlink:href="#DejaVuSans-30" x="147.412109"/>
       <use xlink:href="#DejaVuSans-30" x="211.035156"/>
      </g>
     </g>
    </g>
    <g id="ytick_18">
     <g id="line2d_79">
      <g>
       <use xlink:href="#m209d17549c" x="1167.620625" y="272.55048" style="stroke: #000000; stroke-width: 0.8"/>
      </g>
     </g>
     <g id="line2d_80">
      <g>
       <use xlink:href="#mb6b10005a7" x="1610.638125" y="272.55048" style="stroke: #000000; stroke-width: 0.8"/>
      </g>
     </g>
     <g id="text_44">
      <!-- −200 -->
      <g transform="translate(1120.173125 278.62923) scale(0.16 -0.16)">
       <use xlink:href="#DejaVuSans-2212"/>
       <use xlink:href="#DejaVuSans-32" x="83.789062"/>
       <use xlink:href="#DejaVuSans-30" x="147.412109"/>
       <use xlink:href="#DejaVuSans-30" x="211.035156"/>
      </g>
     </g>
    </g>
    <g id="ytick_19">
     <g id="line2d_81">
      <g>
       <use xlink:href="#m209d17549c" x="1167.620625" y="214.279735" style="stroke: #000000; stroke-width: 0.8"/>
      </g>
     </g>
     <g id="line2d_82">
      <g>
       <use xlink:href="#mb6b10005a7" x="1610.638125" y="214.279735" style="stroke: #000000; stroke-width: 0.8"/>
      </g>
     </g>
     <g id="text_45">
      <!-- −100 -->
      <g transform="translate(1120.173125 220.358485) scale(0.16 -0.16)">
       <use xlink:href="#DejaVuSans-2212"/>
       <use xlink:href="#DejaVuSans-31" x="83.789062"/>
       <use xlink:href="#DejaVuSans-30" x="147.412109"/>
       <use xlink:href="#DejaVuSans-30" x="211.035156"/>
      </g>
     </g>
    </g>
    <g id="ytick_20">
     <g id="line2d_83">
      <g>
       <use xlink:href="#m209d17549c" x="1167.620625" y="156.00899" style="stroke: #000000; stroke-width: 0.8"/>
      </g>
     </g>
     <g id="line2d_84">
      <g>
       <use xlink:href="#mb6b10005a7" x="1610.638125" y="156.00899" style="stroke: #000000; stroke-width: 0.8"/>
      </g>
     </g>
     <g id="text_46">
      <!-- 0 -->
      <g transform="translate(1153.940625 162.08774) scale(0.16 -0.16)">
       <use xlink:href="#DejaVuSans-30"/>
      </g>
     </g>
    </g>
    <g id="ytick_21">
     <g id="line2d_85">
      <g>
       <use xlink:href="#m209d17549c" x="1167.620625" y="97.738245" style="stroke: #000000; stroke-width: 0.8"/>
      </g>
     </g>
     <g id="line2d_86">
      <g>
       <use xlink:href="#mb6b10005a7" x="1610.638125" y="97.738245" style="stroke: #000000; stroke-width: 0.8"/>
      </g>
     </g>
     <g id="text_47">
      <!-- 100 -->
      <g transform="translate(1133.580625 103.816995) scale(0.16 -0.16)">
       <use xlink:href="#DejaVuSans-31"/>
       <use xlink:href="#DejaVuSans-30" x="63.623047"/>
       <use xlink:href="#DejaVuSans-30" x="127.246094"/>
      </g>
     </g>
    </g>
    <g id="ytick_22">
     <g id="line2d_87">
      <g>
       <use xlink:href="#m209d17549c" x="1167.620625" y="39.4675" style="stroke: #000000; stroke-width: 0.8"/>
      </g>
     </g>
     <g id="line2d_88">
      <g>
       <use xlink:href="#mb6b10005a7" x="1610.638125" y="39.4675" style="stroke: #000000; stroke-width: 0.8"/>
      </g>
     </g>
     <g id="text_48">
      <!-- 200 -->
      <g transform="translate(1133.580625 45.54625) scale(0.16 -0.16)">
       <use xlink:href="#DejaVuSans-32"/>
       <use xlink:href="#DejaVuSans-30" x="63.623047"/>
       <use xlink:href="#DejaVuSans-30" x="127.246094"/>
      </g>
     </g>
    </g>
    <g id="text_49">
     <!-- Quality Factor (Arb. U.) -->
     <g transform="translate(1112.429688 313.762344) rotate(-90) scale(0.18 -0.18)">
      <defs>
       <path id="DejaVuSans-51" d="M 2522 4238 
Q 1834 4238 1429 3725 
Q 1025 3213 1025 2328 
Q 1025 1447 1429 934 
Q 1834 422 2522 422 
Q 3209 422 3611 934 
Q 4013 1447 4013 2328 
Q 4013 3213 3611 3725 
Q 3209 4238 2522 4238 
z
M 3406 84 
L 4238 -825 
L 3475 -825 
L 2784 -78 
Q 2681 -84 2626 -87 
Q 2572 -91 2522 -91 
Q 1538 -91 948 567 
Q 359 1225 359 2328 
Q 359 3434 948 4092 
Q 1538 4750 2522 4750 
Q 3503 4750 4090 4092 
Q 4678 3434 4678 2328 
Q 4678 1516 4351 937 
Q 4025 359 3406 84 
z
" transform="scale(0.015625)"/>
      </defs>
      <use xlink:href="#DejaVuSans-51"/>
      <use xlink:href="#DejaVuSans-75" x="78.710938"/>
      <use xlink:href="#DejaVuSans-61" x="142.089844"/>
      <use xlink:href="#DejaVuSans-6c" x="203.369141"/>
      <use xlink:href="#DejaVuSans-69" x="231.152344"/>
      <use xlink:href="#DejaVuSans-74" x="258.935547"/>
      <use xlink:href="#DejaVuSans-79" x="298.144531"/>
      <use xlink:href="#DejaVuSans-20" x="357.324219"/>
      <use xlink:href="#DejaVuSans-46" x="389.111328"/>
      <use xlink:href="#DejaVuSans-61" x="437.505859"/>
      <use xlink:href="#DejaVuSans-63" x="498.785156"/>
      <use xlink:href="#DejaVuSans-74" x="553.765625"/>
      <use xlink:href="#DejaVuSans-6f" x="592.974609"/>
      <use xlink:href="#DejaVuSans-72" x="654.15625"/>
      <use xlink:href="#DejaVuSans-20" x="695.269531"/>
      <use xlink:href="#DejaVuSans-28" x="727.056641"/>
      <use xlink:href="#DejaVuSans-41" x="766.070312"/>
      <use xlink:href="#DejaVuSans-72" x="834.478516"/>
      <use xlink:href="#DejaVuSans-62" x="875.591797"/>
      <use xlink:href="#DejaVuSans-2e" x="939.068359"/>
      <use xlink:href="#DejaVuSans-20" x="970.855469"/>
      <use xlink:href="#DejaVuSans-55" x="1002.642578"/>
      <use xlink:href="#DejaVuSans-2e" x="1075.835938"/>
      <use xlink:href="#DejaVuSans-29" x="1107.623047"/>
     </g>
    </g>
   </g>
   <g id="line2d_89">
    <path d="M 1389.129375 304.562908 
L 1397.519858 290.238642 
L 1405.910341 294.081936 
L 1414.300824 294.605507 
L 1422.691308 302.054712 
L 1431.081789 305.817922 
L 1439.472273 303.642247 
L 1447.862754 295.418013 
L 1456.253241 297.867401 
L 1464.643722 303.174399 
L 1473.034203 307.059625 
L 1481.42469 310.095579 
L 1489.81517 39.4675 
L 1498.205657 39.4675 
L 1506.596132 381.6675 
L 1514.986619 300.458571 
L 1523.377106 308.216219 
L 1531.767581 298.789564 
L 1540.158068 291.037215 
L 1548.548555 296.717226 
L 1556.93903 299.282131 
L 1565.329517 287.332591 
L 1573.720004 294.044886 
L 1582.110479 291.033027 
L 1590.500966 282.31403 
L 1582.110479 295.601354 
L 1573.720004 289.044099 
L 1565.329517 289.902075 
L 1556.93903 291.964162 
L 1548.548555 292.741103 
L 1540.158068 290.731617 
L 1531.767581 296.484964 
L 1523.377106 291.245283 
L 1514.986619 296.196536 
L 1498.205657 291.209006 
L 1489.81517 294.088871 
L 1481.42469 293.706808 
L 1473.034203 299.294979 
L 1464.643722 307.558629 
L 1456.253241 300.753801 
L 1447.862754 305.908223 
L 1439.472273 310.012782 
L 1431.081789 299.250424 
L 1422.691308 308.281269 
L 1414.300824 298.962013 
L 1405.910341 301.125622 
L 1397.519858 305.70886 
L 1389.129375 301.625986 
L 1380.738892 300.563276 
L 1372.348409 300.338492 
L 1363.957926 296.764217 
L 1355.567442 307.15094 
L 1347.176961 295.563912 
L 1338.786477 300.15524 
L 1330.395996 296.418412 
L 1322.005509 280.411953 
L 1313.615028 39.4675 
L 1305.224547 319.993088 
L 1296.83406 286.986546 
L 1288.44358 292.376012 
L 1280.053093 303.039107 
L 1271.662618 301.262559 
L 1263.272131 303.907167 
L 1254.881644 294.018051 
L 1246.491169 295.346161 
L 1238.100682 289.280183 
L 1229.710195 295.033619 
L 1221.31972 288.698552 
L 1212.929233 297.35337 
L 1204.538746 292.567489 
L 1196.148271 291.105252 
L 1187.757784 296.106839 
L 1196.148271 288.998424 
L 1204.538746 287.038437 
L 1212.929233 296.204956 
L 1221.31972 296.228909 
L 1229.710195 291.985804 
L 1238.100682 297.253084 
L 1246.491169 290.006052 
L 1254.881644 292.262149 
L 1263.272131 294.975816 
L 1271.662618 294.869013 
L 1280.053093 299.83467 
L 1288.44358 296.096872 
L 1296.83406 305.421632 
L 1305.224547 299.868235 
L 1313.615028 298.430334 
L 1322.005509 301.664682 
L 1330.395996 304.201908 
L 1338.786477 305.203063 
L 1347.176961 298.956109 
L 1355.567442 305.850767 
L 1363.957926 307.935767 
L 1372.348409 304.685352 
L 1380.738892 311.003801 
L 1389.129375 307.583027 
L 1397.519858 299.907277 
L 1405.910341 301.720315 
L 1414.300824 310.943446 
L 1422.691308 302.048017 
L 1431.081789 307.114129 
L 1439.472273 297.922083 
L 1447.862754 305.852011 
L 1456.253241 295.836398 
L 1464.643722 295.778266 
L 1473.034203 321.858648 
L 1481.42469 39.4675 
L 1498.205657 39.4675 
L 1506.596132 303.220572 
L 1514.986619 301.808127 
L 1523.377106 305.633727 
L 1531.767581 300.810351 
L 1540.158068 298.434957 
L 1548.548555 287.927382 
L 1556.93903 289.793742 
L 1565.329517 292.173288 
L 1573.720004 287.727414 
L 1582.110479 297.577496 
L 1590.500966 296.05021 
L 1582.110479 294.496383 
L 1573.720004 297.845021 
L 1565.329517 299.540604 
L 1556.93903 299.17955 
L 1548.548555 293.571089 
L 1540.158068 299.445546 
L 1531.767581 292.68658 
L 1523.377106 303.416752 
L 1514.986619 298.979609 
L 1506.596132 297.413654 
L 1498.205657 294.470784 
L 1489.81517 299.587968 
L 1481.42469 303.828175 
L 1473.034203 305.276808 
L 1464.643722 305.204859 
L 1456.253241 298.086903 
L 1447.862754 309.18364 
L 1439.472273 304.228449 
L 1431.081789 308.110394 
L 1422.691308 299.721375 
L 1414.300824 305.050984 
L 1405.910341 301.699847 
L 1397.519858 300.671751 
L 1389.129375 304.051021 
L 1380.738892 302.67287 
L 1372.348409 298.610349 
L 1363.957926 305.095592 
L 1355.567442 297.942266 
L 1347.176961 301.628876 
L 1338.786477 301.92737 
L 1330.395996 299.011334 
L 1322.005509 238.714743 
L 1313.615028 39.4675 
L 1305.224547 289.779676 
L 1296.83406 316.998959 
L 1288.44358 298.632009 
L 1280.053093 302.110968 
L 1271.662618 300.979332 
L 1263.272131 298.567066 
L 1254.881644 302.067054 
L 1246.491169 299.358499 
L 1238.100682 292.847657 
L 1229.710195 294.125015 
L 1221.31972 296.7451 
L 1212.929233 296.821549 
L 1204.538746 300.523958 
L 1196.148271 297.563474 
L 1187.757784 292.395502 
L 1196.148271 297.705701 
L 1204.538746 295.516903 
L 1212.929233 298.279722 
L 1221.31972 293.87321 
L 1229.710195 297.011647 
L 1238.100682 301.620411 
L 1246.491169 296.901118 
L 1254.881644 299.238758 
L 1263.272131 299.445848 
L 1271.662618 298.777428 
L 1280.053093 301.020704 
L 1288.44358 298.414996 
L 1296.83406 305.551677 
L 1305.224547 293.823001 
L 1313.615028 299.605502 
L 1322.005509 304.399688 
L 1330.395996 299.206296 
L 1338.786477 304.751655 
L 1347.176961 313.442661 
L 1355.567442 300.901603 
L 1363.957926 303.909896 
L 1372.348409 301.407596 
L 1380.738892 299.954392 
L 1380.738892 299.954392 
" clip-path="url(#p050051a7b2)" style="fill: none; stroke: #1f77b4; stroke-width: 1.5; stroke-linecap: square"/>
   </g>
   <g id="patch_13">
    <path d="M 1167.620625 398.7775 
L 1167.620625 22.3575 
" style="fill: none; stroke: #000000; stroke-width: 0.8; stroke-linejoin: miter; stroke-linecap: square"/>
   </g>
   <g id="patch_14">
    <path d="M 1610.638125 398.7775 
L 1610.638125 22.3575 
" style="fill: none; stroke: #000000; stroke-width: 0.8; stroke-linejoin: miter; stroke-linecap: square"/>
   </g>
   <g id="patch_15">
    <path d="M 1167.620625 398.7775 
L 1610.638125 398.7775 
" style="fill: none; stroke: #000000; stroke-width: 0.8; stroke-linejoin: miter; stroke-linecap: square"/>
   </g>
   <g id="patch_16">
    <path d="M 1167.620625 22.3575 
L 1610.638125 22.3575 
" style="fill: none; stroke: #000000; stroke-width: 0.8; stroke-linejoin: miter; stroke-linecap: square"/>
   </g>
   <g id="text_50">
    <!-- Dampening -->
    <g transform="translate(1354.40625 16.3575) scale(0.12 -0.12)">
     <defs>
      <path id="DejaVuSans-44" d="M 1259 4147 
L 1259 519 
L 2022 519 
Q 2988 519 3436 956 
Q 3884 1394 3884 2338 
Q 3884 3275 3436 3711 
Q 2988 4147 2022 4147 
L 1259 4147 
z
M 628 4666 
L 1925 4666 
Q 3281 4666 3915 4102 
Q 4550 3538 4550 2338 
Q 4550 1131 3912 565 
Q 3275 0 1925 0 
L 628 0 
L 628 4666 
z
" transform="scale(0.015625)"/>
      <path id="DejaVuSans-67" d="M 2906 1791 
Q 2906 2416 2648 2759 
Q 2391 3103 1925 3103 
Q 1463 3103 1205 2759 
Q 947 2416 947 1791 
Q 947 1169 1205 825 
Q 1463 481 1925 481 
Q 2391 481 2648 825 
Q 2906 1169 2906 1791 
z
M 3481 434 
Q 3481 -459 3084 -895 
Q 2688 -1331 1869 -1331 
Q 1566 -1331 1297 -1286 
Q 1028 -1241 775 -1147 
L 775 -588 
Q 1028 -725 1275 -790 
Q 1522 -856 1778 -856 
Q 2344 -856 2625 -561 
Q 2906 -266 2906 331 
L 2906 616 
Q 2728 306 2450 153 
Q 2172 0 1784 0 
Q 1141 0 747 490 
Q 353 981 353 1791 
Q 353 2603 747 3093 
Q 1141 3584 1784 3584 
Q 2172 3584 2450 3431 
Q 2728 3278 2906 2969 
L 2906 3500 
L 3481 3500 
L 3481 434 
z
" transform="scale(0.015625)"/>
     </defs>
     <use xlink:href="#DejaVuSans-44"/>
     <use xlink:href="#DejaVuSans-61" x="77.001953"/>
     <use xlink:href="#DejaVuSans-6d" x="138.28125"/>
     <use xlink:href="#DejaVuSans-70" x="235.693359"/>
     <use xlink:href="#DejaVuSans-65" x="299.169922"/>
     <use xlink:href="#DejaVuSans-6e" x="360.693359"/>
     <use xlink:href="#DejaVuSans-69" x="424.072266"/>
     <use xlink:href="#DejaVuSans-6e" x="451.855469"/>
     <use xlink:href="#DejaVuSans-67" x="515.234375"/>
    </g>
   </g>
  </g>
  <g id="axes_4">
   <g id="patch_17">
    <path d="M 1702.288125 398.7775 
L 2145.305625 398.7775 
L 2145.305625 22.3575 
L 1702.288125 22.3575 
z
" style="fill: #ffffff"/>
   </g>
   <g id="matplotlib.axis_7">
    <g id="xtick_22">
     <g id="line2d_90">
      <g>
       <use xlink:href="#me50baa7941" x="1735.011009" y="398.7775" style="stroke: #000000; stroke-width: 0.8"/>
      </g>
     </g>
     <g id="line2d_91">
      <g>
       <use xlink:href="#m4a86af6e9f" x="1735.011009" y="22.3575" style="stroke: #000000; stroke-width: 0.8"/>
      </g>
     </g>
     <g id="text_51">
      <!-- −15 -->
      <g transform="translate(1718.127259 414.435) scale(0.16 -0.16)">
       <use xlink:href="#DejaVuSans-2212"/>
       <use xlink:href="#DejaVuSans-31" x="83.789062"/>
       <use xlink:href="#DejaVuSans-35" x="147.412109"/>
      </g>
     </g>
    </g>
    <g id="xtick_23">
     <g id="line2d_92">
      <g>
       <use xlink:href="#me50baa7941" x="1797.939631" y="398.7775" style="stroke: #000000; stroke-width: 0.8"/>
      </g>
     </g>
     <g id="line2d_93">
      <g>
       <use xlink:href="#m4a86af6e9f" x="1797.939631" y="22.3575" style="stroke: #000000; stroke-width: 0.8"/>
      </g>
     </g>
     <g id="text_52">
      <!-- −10 -->
      <g transform="translate(1781.055881 414.435) scale(0.16 -0.16)">
       <use xlink:href="#DejaVuSans-2212"/>
       <use xlink:href="#DejaVuSans-31" x="83.789062"/>
       <use xlink:href="#DejaVuSans-30" x="147.412109"/>
      </g>
     </g>
    </g>
    <g id="xtick_24">
     <g id="line2d_94">
      <g>
       <use xlink:href="#me50baa7941" x="1860.868253" y="398.7775" style="stroke: #000000; stroke-width: 0.8"/>
      </g>
     </g>
     <g id="line2d_95">
      <g>
       <use xlink:href="#m4a86af6e9f" x="1860.868253" y="22.3575" style="stroke: #000000; stroke-width: 0.8"/>
      </g>
     </g>
     <g id="text_53">
      <!-- −5 -->
      <g transform="translate(1849.074503 414.435) scale(0.16 -0.16)">
       <use xlink:href="#DejaVuSans-2212"/>
       <use xlink:href="#DejaVuSans-35" x="83.789062"/>
      </g>
     </g>
    </g>
    <g id="xtick_25">
     <g id="line2d_96">
      <g>
       <use xlink:href="#me50baa7941" x="1923.796875" y="398.7775" style="stroke: #000000; stroke-width: 0.8"/>
      </g>
     </g>
     <g id="line2d_97">
      <g>
       <use xlink:href="#m4a86af6e9f" x="1923.796875" y="22.3575" style="stroke: #000000; stroke-width: 0.8"/>
      </g>
     </g>
     <g id="text_54">
      <!-- 0 -->
      <g transform="translate(1918.706875 414.435) scale(0.16 -0.16)">
       <use xlink:href="#DejaVuSans-30"/>
      </g>
     </g>
    </g>
    <g id="xtick_26">
     <g id="line2d_98">
      <g>
       <use xlink:href="#me50baa7941" x="1986.725497" y="398.7775" style="stroke: #000000; stroke-width: 0.8"/>
      </g>
     </g>
     <g id="line2d_99">
      <g>
       <use xlink:href="#m4a86af6e9f" x="1986.725497" y="22.3575" style="stroke: #000000; stroke-width: 0.8"/>
      </g>
     </g>
     <g id="text_55">
      <!-- 5 -->
      <g transform="translate(1981.635497 414.435) scale(0.16 -0.16)">
       <use xlink:href="#DejaVuSans-35"/>
      </g>
     </g>
    </g>
    <g id="xtick_27">
     <g id="line2d_100">
      <g>
       <use xlink:href="#me50baa7941" x="2049.654119" y="398.7775" style="stroke: #000000; stroke-width: 0.8"/>
      </g>
     </g>
     <g id="line2d_101">
      <g>
       <use xlink:href="#m4a86af6e9f" x="2049.654119" y="22.3575" style="stroke: #000000; stroke-width: 0.8"/>
      </g>
     </g>
     <g id="text_56">
      <!-- 10 -->
      <g transform="translate(2039.474119 414.435) scale(0.16 -0.16)">
       <use xlink:href="#DejaVuSans-31"/>
       <use xlink:href="#DejaVuSans-30" x="63.623047"/>
      </g>
     </g>
    </g>
    <g id="xtick_28">
     <g id="line2d_102">
      <g>
       <use xlink:href="#me50baa7941" x="2112.582741" y="398.7775" style="stroke: #000000; stroke-width: 0.8"/>
      </g>
     </g>
     <g id="line2d_103">
      <g>
       <use xlink:href="#m4a86af6e9f" x="2112.582741" y="22.3575" style="stroke: #000000; stroke-width: 0.8"/>
      </g>
     </g>
     <g id="text_57">
      <!-- 15 -->
      <g transform="translate(2102.402741 414.435) scale(0.16 -0.16)">
       <use xlink:href="#DejaVuSans-31"/>
       <use xlink:href="#DejaVuSans-35" x="63.623047"/>
      </g>
     </g>
    </g>
   </g>
   <g id="matplotlib.axis_8">
    <g id="ytick_23">
     <g id="line2d_104">
      <g>
       <use xlink:href="#m209d17549c" x="1702.288125" y="375.761047" style="stroke: #000000; stroke-width: 0.8"/>
      </g>
     </g>
     <g id="line2d_105">
      <g>
       <use xlink:href="#mb6b10005a7" x="2145.305625" y="375.761047" style="stroke: #000000; stroke-width: 0.8"/>
      </g>
     </g>
     <g id="text_58">
      <!-- −3 -->
      <g transform="translate(1675.200625 381.839797) scale(0.16 -0.16)">
       <use xlink:href="#DejaVuSans-2212"/>
       <use xlink:href="#DejaVuSans-33" x="83.789062"/>
      </g>
     </g>
    </g>
    <g id="ytick_24">
     <g id="line2d_106">
      <g>
       <use xlink:href="#m209d17549c" x="1702.288125" y="321.004118" style="stroke: #000000; stroke-width: 0.8"/>
      </g>
     </g>
     <g id="line2d_107">
      <g>
       <use xlink:href="#mb6b10005a7" x="2145.305625" y="321.004118" style="stroke: #000000; stroke-width: 0.8"/>
      </g>
     </g>
     <g id="text_59">
      <!-- −2 -->
      <g transform="translate(1675.200625 327.082868) scale(0.16 -0.16)">
       <use xlink:href="#DejaVuSans-2212"/>
       <use xlink:href="#DejaVuSans-32" x="83.789062"/>
      </g>
     </g>
    </g>
    <g id="ytick_25">
     <g id="line2d_108">
      <g>
       <use xlink:href="#m209d17549c" x="1702.288125" y="266.247188" style="stroke: #000000; stroke-width: 0.8"/>
      </g>
     </g>
     <g id="line2d_109">
      <g>
       <use xlink:href="#mb6b10005a7" x="2145.305625" y="266.247188" style="stroke: #000000; stroke-width: 0.8"/>
      </g>
     </g>
     <g id="text_60">
      <!-- −1 -->
      <g transform="translate(1675.200625 272.325938) scale(0.16 -0.16)">
       <use xlink:href="#DejaVuSans-2212"/>
       <use xlink:href="#DejaVuSans-31" x="83.789062"/>
      </g>
     </g>
    </g>
    <g id="ytick_26">
     <g id="line2d_110">
      <g>
       <use xlink:href="#m209d17549c" x="1702.288125" y="211.490258" style="stroke: #000000; stroke-width: 0.8"/>
      </g>
     </g>
     <g id="line2d_111">
      <g>
       <use xlink:href="#mb6b10005a7" x="2145.305625" y="211.490258" style="stroke: #000000; stroke-width: 0.8"/>
      </g>
     </g>
     <g id="text_61">
      <!-- 0 -->
      <g transform="translate(1688.608125 217.569008) scale(0.16 -0.16)">
       <use xlink:href="#DejaVuSans-30"/>
      </g>
     </g>
    </g>
    <g id="ytick_27">
     <g id="line2d_112">
      <g>
       <use xlink:href="#m209d17549c" x="1702.288125" y="156.733329" style="stroke: #000000; stroke-width: 0.8"/>
      </g>
     </g>
     <g id="line2d_113">
      <g>
       <use xlink:href="#mb6b10005a7" x="2145.305625" y="156.733329" style="stroke: #000000; stroke-width: 0.8"/>
      </g>
     </g>
     <g id="text_62">
      <!-- 1 -->
      <g transform="translate(1688.608125 162.812079) scale(0.16 -0.16)">
       <use xlink:href="#DejaVuSans-31"/>
      </g>
     </g>
    </g>
    <g id="ytick_28">
     <g id="line2d_114">
      <g>
       <use xlink:href="#m209d17549c" x="1702.288125" y="101.976399" style="stroke: #000000; stroke-width: 0.8"/>
      </g>
     </g>
     <g id="line2d_115">
      <g>
       <use xlink:href="#mb6b10005a7" x="2145.305625" y="101.976399" style="stroke: #000000; stroke-width: 0.8"/>
      </g>
     </g>
     <g id="text_63">
      <!-- 2 -->
      <g transform="translate(1688.608125 108.055149) scale(0.16 -0.16)">
       <use xlink:href="#DejaVuSans-32"/>
      </g>
     </g>
    </g>
    <g id="ytick_29">
     <g id="line2d_116">
      <g>
       <use xlink:href="#m209d17549c" x="1702.288125" y="47.21947" style="stroke: #000000; stroke-width: 0.8"/>
      </g>
     </g>
     <g id="line2d_117">
      <g>
       <use xlink:href="#mb6b10005a7" x="2145.305625" y="47.21947" style="stroke: #000000; stroke-width: 0.8"/>
      </g>
     </g>
     <g id="text_64">
      <!-- 3 -->
      <g transform="translate(1688.608125 53.29822) scale(0.16 -0.16)">
       <use xlink:href="#DejaVuSans-33"/>
      </g>
     </g>
    </g>
    <g id="text_65">
     <!-- Phase (rad) -->
     <g transform="translate(1667.457187 262.251406) rotate(-90) scale(0.18 -0.18)">
      <defs>
       <path id="DejaVuSans-50" d="M 1259 4147 
L 1259 2394 
L 2053 2394 
Q 2494 2394 2734 2622 
Q 2975 2850 2975 3272 
Q 2975 3691 2734 3919 
Q 2494 4147 2053 4147 
L 1259 4147 
z
M 628 4666 
L 2053 4666 
Q 2838 4666 3239 4311 
Q 3641 3956 3641 3272 
Q 3641 2581 3239 2228 
Q 2838 1875 2053 1875 
L 1259 1875 
L 1259 0 
L 628 0 
L 628 4666 
z
" transform="scale(0.015625)"/>
       <path id="DejaVuSans-68" d="M 3513 2113 
L 3513 0 
L 2938 0 
L 2938 2094 
Q 2938 2591 2744 2837 
Q 2550 3084 2163 3084 
Q 1697 3084 1428 2787 
Q 1159 2491 1159 1978 
L 1159 0 
L 581 0 
L 581 4863 
L 1159 4863 
L 1159 2956 
Q 1366 3272 1645 3428 
Q 1925 3584 2291 3584 
Q 2894 3584 3203 3211 
Q 3513 2838 3513 2113 
z
" transform="scale(0.015625)"/>
      </defs>
      <use xlink:href="#DejaVuSans-50"/>
      <use xlink:href="#DejaVuSans-68" x="60.302734"/>
      <use xlink:href="#DejaVuSans-61" x="123.681641"/>
      <use xlink:href="#DejaVuSans-73" x="184.960938"/>
      <use xlink:href="#DejaVuSans-65" x="237.060547"/>
      <use xlink:href="#DejaVuSans-20" x="298.583984"/>
      <use xlink:href="#DejaVuSans-28" x="330.371094"/>
      <use xlink:href="#DejaVuSans-72" x="369.384766"/>
      <use xlink:href="#DejaVuSans-61" x="410.498047"/>
      <use xlink:href="#DejaVuSans-64" x="471.777344"/>
      <use xlink:href="#DejaVuSans-29" x="535.253906"/>
     </g>
    </g>
   </g>
   <g id="line2d_118">
    <path d="M 1923.796875 42.65496 
L 1932.187358 39.90649 
L 1940.577841 42.643733 
L 1948.968324 44.378778 
L 1957.358808 41.281959 
L 1974.139773 42.520376 
L 1982.530254 40.684415 
L 1990.920741 40.625302 
L 1999.311222 39.4675 
L 2007.701703 43.398551 
L 2016.09219 44.803224 
L 2024.48267 300.431789 
L 2032.873157 74.232967 
L 2041.263632 207.778023 
L 2049.654119 215.983071 
L 2058.044606 213.935228 
L 2066.435081 218.69079 
L 2074.825568 217.481755 
L 2083.216055 214.440809 
L 2091.60653 220.670555 
L 2099.997017 211.440607 
L 2108.387504 217.337507 
L 2125.168466 213.95533 
L 2116.777979 215.972324 
L 2108.387504 215.453845 
L 2099.997017 219.634526 
L 2091.60653 219.749748 
L 2083.216055 214.503812 
L 2074.825568 216.373646 
L 2066.435081 216.620141 
L 2058.044606 214.454569 
L 2049.654119 214.848892 
L 2032.873157 216.395253 
L 2024.48267 212.753325 
L 2016.09219 215.669565 
L 2007.701703 216.708924 
L 1999.311222 215.582278 
L 1990.920741 212.338097 
L 1982.530254 215.835352 
L 1974.139773 216.565912 
L 1965.749289 214.418554 
L 1957.358808 216.039237 
L 1948.968324 216.870814 
L 1940.577841 215.9669 
L 1932.187358 216.56171 
L 1923.796875 214.116734 
L 1915.406392 215.174438 
L 1907.015909 214.145235 
L 1898.625426 217.842024 
L 1890.234942 216.425009 
L 1881.844461 215.975394 
L 1873.453977 213.838192 
L 1865.063496 213.157467 
L 1856.673009 215.355499 
L 1848.282528 49.899245 
L 1839.892047 365.41091 
L 1831.50156 48.338093 
L 1823.11108 40.942945 
L 1814.720593 41.172596 
L 1806.330118 43.027017 
L 1797.939631 43.083297 
L 1789.549144 40.943141 
L 1781.158669 43.685723 
L 1772.768182 43.059863 
L 1764.377695 43.226799 
L 1755.98722 41.227519 
L 1747.596733 43.597458 
L 1739.206246 44.292823 
L 1730.815771 43.336513 
L 1722.425284 43.961107 
L 1730.815771 45.381877 
L 1739.206246 44.551079 
L 1747.596733 42.640913 
L 1764.377695 42.869938 
L 1772.768182 42.222759 
L 1781.158669 43.341748 
L 1789.549144 41.769305 
L 1797.939631 44.258671 
L 1806.330118 42.785668 
L 1814.720593 43.681859 
L 1823.11108 42.341782 
L 1831.50156 42.826582 
L 1839.892047 43.868351 
L 1848.282528 41.842204 
L 1856.673009 43.005398 
L 1865.063496 44.310918 
L 1873.453977 381.6675 
L 1881.844461 44.841658 
L 1890.234942 42.288596 
L 1898.625426 45.613304 
L 1907.015909 40.773307 
L 1915.406392 45.42693 
L 1923.796875 42.713304 
L 1932.187358 45.01426 
L 1940.577841 44.58168 
L 1948.968324 41.9647 
L 1957.358808 46.461793 
L 1965.749289 41.4655 
L 1974.139773 45.883936 
L 1982.530254 42.339955 
L 1990.920741 47.877693 
L 1999.311222 374.183473 
L 2007.701703 40.121389 
L 2016.09219 360.902877 
L 2024.48267 365.445597 
L 2032.873157 334.589836 
L 2041.263632 221.287725 
L 2049.654119 210.092251 
L 2058.044606 225.410851 
L 2066.435081 218.170693 
L 2074.825568 218.490378 
L 2083.216055 216.760693 
L 2091.60653 218.605133 
L 2099.997017 214.458696 
L 2108.387504 216.03344 
L 2116.777979 215.30551 
L 2125.168466 217.626047 
L 2116.777979 216.880312 
L 2108.387504 217.026055 
L 2099.997017 215.805227 
L 2091.60653 218.494815 
L 2083.216055 216.813633 
L 2074.825568 216.177017 
L 2066.435081 216.206292 
L 2058.044606 216.762157 
L 2049.654119 216.187646 
L 2041.263632 214.997223 
L 2032.873157 216.08456 
L 2024.48267 217.671445 
L 2016.09219 215.737103 
L 2007.701703 218.460468 
L 1999.311222 214.971589 
L 1990.920741 216.651548 
L 1982.530254 217.563303 
L 1974.139773 214.326536 
L 1965.749289 215.447392 
L 1957.358808 219.123048 
L 1948.968324 213.163679 
L 1940.577841 218.637943 
L 1932.187358 215.858873 
L 1923.796875 217.259257 
L 1915.406392 215.362166 
L 1907.015909 217.461774 
L 1898.625426 213.909296 
L 1890.234942 216.693284 
L 1881.844461 215.402906 
L 1873.453977 213.979035 
L 1865.063496 213.639548 
L 1856.673009 214.696038 
L 1848.282528 58.814369 
L 1839.892047 60.888284 
L 1831.50156 379.844098 
L 1823.11108 41.622709 
L 1814.720593 41.519326 
L 1806.330118 45.481435 
L 1797.939631 44.810979 
L 1789.549144 41.726797 
L 1772.768182 43.186393 
L 1764.377695 42.835891 
L 1755.98722 41.34119 
L 1747.596733 44.278293 
L 1739.206246 42.416014 
L 1730.815771 42.589763 
L 1722.425284 41.476336 
L 1730.815771 40.992998 
L 1739.206246 42.890944 
L 1747.596733 42.87644 
L 1755.98722 43.078846 
L 1764.377695 42.938673 
L 1772.768182 44.254951 
L 1781.158669 43.120086 
L 1789.549144 43.316017 
L 1797.939631 42.076399 
L 1806.330118 43.645409 
L 1814.720593 43.452886 
L 1823.11108 42.962903 
L 1831.50156 45.896012 
L 1839.892047 43.196171 
L 1848.282528 43.074537 
L 1856.673009 43.634104 
L 1865.063496 44.021578 
L 1873.453977 44.158839 
L 1881.844461 42.67671 
L 1890.234942 42.806412 
L 1898.625426 41.663585 
L 1907.015909 42.833019 
L 1915.406392 42.325581 
L 1915.406392 42.325581 
" clip-path="url(#p1868639a04)" style="fill: none; stroke: #1f77b4; stroke-width: 1.5; stroke-linecap: square"/>
   </g>
   <g id="patch_18">
    <path d="M 1702.288125 398.7775 
L 1702.288125 22.3575 
" style="fill: none; stroke: #000000; stroke-width: 0.8; stroke-linejoin: miter; stroke-linecap: square"/>
   </g>
   <g id="patch_19">
    <path d="M 2145.305625 398.7775 
L 2145.305625 22.3575 
" style="fill: none; stroke: #000000; stroke-width: 0.8; stroke-linejoin: miter; stroke-linecap: square"/>
   </g>
   <g id="patch_20">
    <path d="M 1702.288125 398.7775 
L 2145.305625 398.7775 
" style="fill: none; stroke: #000000; stroke-width: 0.8; stroke-linejoin: miter; stroke-linecap: square"/>
   </g>
   <g id="patch_21">
    <path d="M 1702.288125 22.3575 
L 2145.305625 22.3575 
" style="fill: none; stroke: #000000; stroke-width: 0.8; stroke-linejoin: miter; stroke-linecap: square"/>
   </g>
   <g id="text_66">
    <!-- Phase -->
    <g transform="translate(1905.882188 16.3575) scale(0.12 -0.12)">
     <use xlink:href="#DejaVuSans-50"/>
     <use xlink:href="#DejaVuSans-68" x="60.302734"/>
     <use xlink:href="#DejaVuSans-61" x="123.681641"/>
     <use xlink:href="#DejaVuSans-73" x="184.960938"/>
     <use xlink:href="#DejaVuSans-65" x="237.060547"/>
    </g>
   </g>
  </g>
 </g>
 <defs>
  <clipPath id="p3f71caf355">
   <rect x="98.285625" y="22.3575" width="443.0175" height="376.42"/>
  </clipPath>
  <clipPath id="p24364c5a76">
   <rect x="632.953125" y="22.3575" width="443.0175" height="376.42"/>
  </clipPath>
  <clipPath id="p050051a7b2">
   <rect x="1167.620625" y="22.3575" width="443.0175" height="376.42"/>
  </clipPath>
  <clipPath id="p1868639a04">
   <rect x="1702.288125" y="22.3575" width="443.0175" height="376.42"/>
  </clipPath>
 </defs>
</svg>
