<?xml version="1.0" encoding="utf-8" standalone="no"?>
<!DOCTYPE svg PUBLIC "-//W3C//DTD SVG 1.1//EN"
  "http://www.w3.org/Graphics/SVG/1.1/DTD/svg11.dtd">
<svg xmlns:xlink="http://www.w3.org/1999/xlink" width="404.39952pt" height="87.59952pt" viewBox="0 0 404.39952 87.59952" xmlns="http://www.w3.org/2000/svg" version="1.1">
 <metadata>
  <rdf:RDF xmlns:dc="http://purl.org/dc/elements/1.1/" xmlns:cc="http://creativecommons.org/ns#" xmlns:rdf="http://www.w3.org/1999/02/22-rdf-syntax-ns#">
   <cc:Work>
    <dc:type rdf:resource="http://purl.org/dc/dcmitype/StillImage"/>
    <dc:date>2023-04-15T15:55:40.517220</dc:date>
    <dc:format>image/svg+xml</dc:format>
    <dc:creator>
     <cc:Agent>
      <dc:title>Matplotlib v3.7.1, https://matplotlib.org/</dc:title>
     </cc:Agent>
    </dc:creator>
   </cc:Work>
  </rdf:RDF>
 </metadata>
 <defs>
  <style type="text/css">*{stroke-linejoin: round; stroke-linecap: butt}</style>
 </defs>
 <g id="figure_1">
  <g id="patch_1">
   <path d="M 0 87.59952 
L 404.39952 87.59952 
L 404.39952 -0 
L 0 -0 
z
" style="fill: #ffffff"/>
  </g>
  <g id="axes_1">
   <g id="patch_2">
    <path d="M 51.083375 72.060458 
L 109.238192 72.060458 
L 109.238192 13.999219 
L 51.083375 13.999219 
z
" style="fill: #ffffff"/>
   </g>
   <g id="matplotlib.axis_1">
    <g id="xtick_1">
     <g id="line2d_1">
      <defs>
       <path id="mc3073d36a1" d="M 0 0 
L 0 -3.5 
" style="stroke: #000000; stroke-width: 0.8"/>
      </defs>
      <g>
       <use xlink:href="#mc3073d36a1" x="63.639529" y="72.060458" style="stroke: #000000; stroke-width: 0.8"/>
      </g>
     </g>
     <g id="line2d_2">
      <defs>
       <path id="m8ede2d0098" d="M 0 0 
L 0 3.5 
" style="stroke: #000000; stroke-width: 0.8"/>
      </defs>
      <g>
       <use xlink:href="#m8ede2d0098" x="63.639529" y="13.999219" style="stroke: #000000; stroke-width: 0.8"/>
      </g>
     </g>
     <g id="text_1">
      <!-- −10 -->
      <g transform="translate(58.363357 79.359676) scale(0.05 -0.05)">
       <defs>
        <path id="DejaVuSans-2212" d="M 678 2272 
L 4684 2272 
L 4684 1741 
L 678 1741 
L 678 2272 
z
" transform="scale(0.015625)"/>
        <path id="DejaVuSans-31" d="M 794 531 
L 1825 531 
L 1825 4091 
L 703 3866 
L 703 4441 
L 1819 4666 
L 2450 4666 
L 2450 531 
L 3481 531 
L 3481 0 
L 794 0 
L 794 531 
z
" transform="scale(0.015625)"/>
        <path id="DejaVuSans-30" d="M 2034 4250 
Q 1547 4250 1301 3770 
Q 1056 3291 1056 2328 
Q 1056 1369 1301 889 
Q 1547 409 2034 409 
Q 2525 409 2770 889 
Q 3016 1369 3016 2328 
Q 3016 3291 2770 3770 
Q 2525 4250 2034 4250 
z
M 2034 4750 
Q 2819 4750 3233 4129 
Q 3647 3509 3647 2328 
Q 3647 1150 3233 529 
Q 2819 -91 2034 -91 
Q 1250 -91 836 529 
Q 422 1150 422 2328 
Q 422 3509 836 4129 
Q 1250 4750 2034 4750 
z
" transform="scale(0.015625)"/>
       </defs>
       <use xlink:href="#DejaVuSans-2212"/>
       <use xlink:href="#DejaVuSans-31" x="83.789062"/>
       <use xlink:href="#DejaVuSans-30" x="147.412109"/>
      </g>
     </g>
    </g>
    <g id="xtick_2">
     <g id="line2d_3">
      <g>
       <use xlink:href="#mc3073d36a1" x="80.160783" y="72.060458" style="stroke: #000000; stroke-width: 0.8"/>
      </g>
     </g>
     <g id="line2d_4">
      <g>
       <use xlink:href="#m8ede2d0098" x="80.160783" y="13.999219" style="stroke: #000000; stroke-width: 0.8"/>
      </g>
     </g>
     <g id="text_2">
      <!-- 0 -->
      <g transform="translate(78.570158 79.359676) scale(0.05 -0.05)">
       <use xlink:href="#DejaVuSans-30"/>
      </g>
     </g>
    </g>
    <g id="xtick_3">
     <g id="line2d_5">
      <g>
       <use xlink:href="#mc3073d36a1" x="96.682038" y="72.060458" style="stroke: #000000; stroke-width: 0.8"/>
      </g>
     </g>
     <g id="line2d_6">
      <g>
       <use xlink:href="#m8ede2d0098" x="96.682038" y="13.999219" style="stroke: #000000; stroke-width: 0.8"/>
      </g>
     </g>
     <g id="text_3">
      <!-- 10 -->
      <g transform="translate(93.500788 79.359676) scale(0.05 -0.05)">
       <use xlink:href="#DejaVuSans-31"/>
       <use xlink:href="#DejaVuSans-30" x="63.623047"/>
      </g>
     </g>
    </g>
   </g>
   <g id="matplotlib.axis_2">
    <g id="ytick_1">
     <g id="line2d_7">
      <defs>
       <path id="mdb9bc6ac3a" d="M 0 0 
L 3.5 0 
" style="stroke: #000000; stroke-width: 0.8"/>
      </defs>
      <g>
       <use xlink:href="#mdb9bc6ac3a" x="51.083375" y="70.904974" style="stroke: #000000; stroke-width: 0.8"/>
      </g>
     </g>
     <g id="line2d_8">
      <defs>
       <path id="me4507d819e" d="M 0 0 
L -3.5 0 
" style="stroke: #000000; stroke-width: 0.8"/>
      </defs>
      <g>
       <use xlink:href="#me4507d819e" x="109.238192" y="70.904974" style="stroke: #000000; stroke-width: 0.8"/>
      </g>
     </g>
     <g id="text_4">
      <!-- 0.000000 -->
      <g transform="translate(23.725563 72.804583) scale(0.05 -0.05)">
       <defs>
        <path id="DejaVuSans-2e" d="M 684 794 
L 1344 794 
L 1344 0 
L 684 0 
L 684 794 
z
" transform="scale(0.015625)"/>
       </defs>
       <use xlink:href="#DejaVuSans-30"/>
       <use xlink:href="#DejaVuSans-2e" x="63.623047"/>
       <use xlink:href="#DejaVuSans-30" x="95.410156"/>
       <use xlink:href="#DejaVuSans-30" x="159.033203"/>
       <use xlink:href="#DejaVuSans-30" x="222.65625"/>
       <use xlink:href="#DejaVuSans-30" x="286.279297"/>
       <use xlink:href="#DejaVuSans-30" x="349.902344"/>
       <use xlink:href="#DejaVuSans-30" x="413.525391"/>
      </g>
     </g>
    </g>
    <g id="ytick_2">
     <g id="line2d_9">
      <g>
       <use xlink:href="#mdb9bc6ac3a" x="51.083375" y="58.910823" style="stroke: #000000; stroke-width: 0.8"/>
      </g>
     </g>
     <g id="line2d_10">
      <g>
       <use xlink:href="#me4507d819e" x="109.238192" y="58.910823" style="stroke: #000000; stroke-width: 0.8"/>
      </g>
     </g>
     <g id="text_5">
      <!-- 0.000025 -->
      <g transform="translate(23.725563 60.810432) scale(0.05 -0.05)">
       <defs>
        <path id="DejaVuSans-32" d="M 1228 531 
L 3431 531 
L 3431 0 
L 469 0 
L 469 531 
Q 828 903 1448 1529 
Q 2069 2156 2228 2338 
Q 2531 2678 2651 2914 
Q 2772 3150 2772 3378 
Q 2772 3750 2511 3984 
Q 2250 4219 1831 4219 
Q 1534 4219 1204 4116 
Q 875 4013 500 3803 
L 500 4441 
Q 881 4594 1212 4672 
Q 1544 4750 1819 4750 
Q 2544 4750 2975 4387 
Q 3406 4025 3406 3419 
Q 3406 3131 3298 2873 
Q 3191 2616 2906 2266 
Q 2828 2175 2409 1742 
Q 1991 1309 1228 531 
z
" transform="scale(0.015625)"/>
        <path id="DejaVuSans-35" d="M 691 4666 
L 3169 4666 
L 3169 4134 
L 1269 4134 
L 1269 2991 
Q 1406 3038 1543 3061 
Q 1681 3084 1819 3084 
Q 2600 3084 3056 2656 
Q 3513 2228 3513 1497 
Q 3513 744 3044 326 
Q 2575 -91 1722 -91 
Q 1428 -91 1123 -41 
Q 819 9 494 109 
L 494 744 
Q 775 591 1075 516 
Q 1375 441 1709 441 
Q 2250 441 2565 725 
Q 2881 1009 2881 1497 
Q 2881 1984 2565 2268 
Q 2250 2553 1709 2553 
Q 1456 2553 1204 2497 
Q 953 2441 691 2322 
L 691 4666 
z
" transform="scale(0.015625)"/>
       </defs>
       <use xlink:href="#DejaVuSans-30"/>
       <use xlink:href="#DejaVuSans-2e" x="63.623047"/>
       <use xlink:href="#DejaVuSans-30" x="95.410156"/>
       <use xlink:href="#DejaVuSans-30" x="159.033203"/>
       <use xlink:href="#DejaVuSans-30" x="222.65625"/>
       <use xlink:href="#DejaVuSans-30" x="286.279297"/>
       <use xlink:href="#DejaVuSans-32" x="349.902344"/>
       <use xlink:href="#DejaVuSans-35" x="413.525391"/>
      </g>
     </g>
    </g>
    <g id="ytick_3">
     <g id="line2d_11">
      <g>
       <use xlink:href="#mdb9bc6ac3a" x="51.083375" y="46.916672" style="stroke: #000000; stroke-width: 0.8"/>
      </g>
     </g>
     <g id="line2d_12">
      <g>
       <use xlink:href="#me4507d819e" x="109.238192" y="46.916672" style="stroke: #000000; stroke-width: 0.8"/>
      </g>
     </g>
     <g id="text_6">
      <!-- 0.000050 -->
      <g transform="translate(23.725563 48.816282) scale(0.05 -0.05)">
       <use xlink:href="#DejaVuSans-30"/>
       <use xlink:href="#DejaVuSans-2e" x="63.623047"/>
       <use xlink:href="#DejaVuSans-30" x="95.410156"/>
       <use xlink:href="#DejaVuSans-30" x="159.033203"/>
       <use xlink:href="#DejaVuSans-30" x="222.65625"/>
       <use xlink:href="#DejaVuSans-30" x="286.279297"/>
       <use xlink:href="#DejaVuSans-35" x="349.902344"/>
       <use xlink:href="#DejaVuSans-30" x="413.525391"/>
      </g>
     </g>
    </g>
    <g id="ytick_4">
     <g id="line2d_13">
      <g>
       <use xlink:href="#mdb9bc6ac3a" x="51.083375" y="34.922522" style="stroke: #000000; stroke-width: 0.8"/>
      </g>
     </g>
     <g id="line2d_14">
      <g>
       <use xlink:href="#me4507d819e" x="109.238192" y="34.922522" style="stroke: #000000; stroke-width: 0.8"/>
      </g>
     </g>
     <g id="text_7">
      <!-- 0.000075 -->
      <g transform="translate(23.725563 36.822131) scale(0.05 -0.05)">
       <defs>
        <path id="DejaVuSans-37" d="M 525 4666 
L 3525 4666 
L 3525 4397 
L 1831 0 
L 1172 0 
L 2766 4134 
L 525 4134 
L 525 4666 
z
" transform="scale(0.015625)"/>
       </defs>
       <use xlink:href="#DejaVuSans-30"/>
       <use xlink:href="#DejaVuSans-2e" x="63.623047"/>
       <use xlink:href="#DejaVuSans-30" x="95.410156"/>
       <use xlink:href="#DejaVuSans-30" x="159.033203"/>
       <use xlink:href="#DejaVuSans-30" x="222.65625"/>
       <use xlink:href="#DejaVuSans-30" x="286.279297"/>
       <use xlink:href="#DejaVuSans-37" x="349.902344"/>
       <use xlink:href="#DejaVuSans-35" x="413.525391"/>
      </g>
     </g>
    </g>
    <g id="ytick_5">
     <g id="line2d_15">
      <g>
       <use xlink:href="#mdb9bc6ac3a" x="51.083375" y="22.928371" style="stroke: #000000; stroke-width: 0.8"/>
      </g>
     </g>
     <g id="line2d_16">
      <g>
       <use xlink:href="#me4507d819e" x="109.238192" y="22.928371" style="stroke: #000000; stroke-width: 0.8"/>
      </g>
     </g>
     <g id="text_8">
      <!-- 0.000100 -->
      <g transform="translate(23.725563 24.82798) scale(0.05 -0.05)">
       <use xlink:href="#DejaVuSans-30"/>
       <use xlink:href="#DejaVuSans-2e" x="63.623047"/>
       <use xlink:href="#DejaVuSans-30" x="95.410156"/>
       <use xlink:href="#DejaVuSans-30" x="159.033203"/>
       <use xlink:href="#DejaVuSans-30" x="222.65625"/>
       <use xlink:href="#DejaVuSans-31" x="286.279297"/>
       <use xlink:href="#DejaVuSans-30" x="349.902344"/>
       <use xlink:href="#DejaVuSans-30" x="413.525391"/>
      </g>
     </g>
    </g>
    <g id="text_9">
     <!-- Amplitude  -->
     <g transform="translate(11.759063 59.356869) rotate(-90) scale(0.06 -0.06)">
      <defs>
       <path id="DejaVuSans-41" d="M 2188 4044 
L 1331 1722 
L 3047 1722 
L 2188 4044 
z
M 1831 4666 
L 2547 4666 
L 4325 0 
L 3669 0 
L 3244 1197 
L 1141 1197 
L 716 0 
L 50 0 
L 1831 4666 
z
" transform="scale(0.015625)"/>
       <path id="DejaVuSans-6d" d="M 3328 2828 
Q 3544 3216 3844 3400 
Q 4144 3584 4550 3584 
Q 5097 3584 5394 3201 
Q 5691 2819 5691 2113 
L 5691 0 
L 5113 0 
L 5113 2094 
Q 5113 2597 4934 2840 
Q 4756 3084 4391 3084 
Q 3944 3084 3684 2787 
Q 3425 2491 3425 1978 
L 3425 0 
L 2847 0 
L 2847 2094 
Q 2847 2600 2669 2842 
Q 2491 3084 2119 3084 
Q 1678 3084 1418 2786 
Q 1159 2488 1159 1978 
L 1159 0 
L 581 0 
L 581 3500 
L 1159 3500 
L 1159 2956 
Q 1356 3278 1631 3431 
Q 1906 3584 2284 3584 
Q 2666 3584 2933 3390 
Q 3200 3197 3328 2828 
z
" transform="scale(0.015625)"/>
       <path id="DejaVuSans-70" d="M 1159 525 
L 1159 -1331 
L 581 -1331 
L 581 3500 
L 1159 3500 
L 1159 2969 
Q 1341 3281 1617 3432 
Q 1894 3584 2278 3584 
Q 2916 3584 3314 3078 
Q 3713 2572 3713 1747 
Q 3713 922 3314 415 
Q 2916 -91 2278 -91 
Q 1894 -91 1617 61 
Q 1341 213 1159 525 
z
M 3116 1747 
Q 3116 2381 2855 2742 
Q 2594 3103 2138 3103 
Q 1681 3103 1420 2742 
Q 1159 2381 1159 1747 
Q 1159 1113 1420 752 
Q 1681 391 2138 391 
Q 2594 391 2855 752 
Q 3116 1113 3116 1747 
z
" transform="scale(0.015625)"/>
       <path id="DejaVuSans-6c" d="M 603 4863 
L 1178 4863 
L 1178 0 
L 603 0 
L 603 4863 
z
" transform="scale(0.015625)"/>
       <path id="DejaVuSans-69" d="M 603 3500 
L 1178 3500 
L 1178 0 
L 603 0 
L 603 3500 
z
M 603 4863 
L 1178 4863 
L 1178 4134 
L 603 4134 
L 603 4863 
z
" transform="scale(0.015625)"/>
       <path id="DejaVuSans-74" d="M 1172 4494 
L 1172 3500 
L 2356 3500 
L 2356 3053 
L 1172 3053 
L 1172 1153 
Q 1172 725 1289 603 
Q 1406 481 1766 481 
L 2356 481 
L 2356 0 
L 1766 0 
Q 1100 0 847 248 
Q 594 497 594 1153 
L 594 3053 
L 172 3053 
L 172 3500 
L 594 3500 
L 594 4494 
L 1172 4494 
z
" transform="scale(0.015625)"/>
       <path id="DejaVuSans-75" d="M 544 1381 
L 544 3500 
L 1119 3500 
L 1119 1403 
Q 1119 906 1312 657 
Q 1506 409 1894 409 
Q 2359 409 2629 706 
Q 2900 1003 2900 1516 
L 2900 3500 
L 3475 3500 
L 3475 0 
L 2900 0 
L 2900 538 
Q 2691 219 2414 64 
Q 2138 -91 1772 -91 
Q 1169 -91 856 284 
Q 544 659 544 1381 
z
M 1991 3584 
L 1991 3584 
z
" transform="scale(0.015625)"/>
       <path id="DejaVuSans-64" d="M 2906 2969 
L 2906 4863 
L 3481 4863 
L 3481 0 
L 2906 0 
L 2906 525 
Q 2725 213 2448 61 
Q 2172 -91 1784 -91 
Q 1150 -91 751 415 
Q 353 922 353 1747 
Q 353 2572 751 3078 
Q 1150 3584 1784 3584 
Q 2172 3584 2448 3432 
Q 2725 3281 2906 2969 
z
M 947 1747 
Q 947 1113 1208 752 
Q 1469 391 1925 391 
Q 2381 391 2643 752 
Q 2906 1113 2906 1747 
Q 2906 2381 2643 2742 
Q 2381 3103 1925 3103 
Q 1469 3103 1208 2742 
Q 947 2381 947 1747 
z
" transform="scale(0.015625)"/>
       <path id="DejaVuSans-65" d="M 3597 1894 
L 3597 1613 
L 953 1613 
Q 991 1019 1311 708 
Q 1631 397 2203 397 
Q 2534 397 2845 478 
Q 3156 559 3463 722 
L 3463 178 
Q 3153 47 2828 -22 
Q 2503 -91 2169 -91 
Q 1331 -91 842 396 
Q 353 884 353 1716 
Q 353 2575 817 3079 
Q 1281 3584 2069 3584 
Q 2775 3584 3186 3129 
Q 3597 2675 3597 1894 
z
M 3022 2063 
Q 3016 2534 2758 2815 
Q 2500 3097 2075 3097 
Q 1594 3097 1305 2825 
Q 1016 2553 972 2059 
L 3022 2063 
z
" transform="scale(0.015625)"/>
       <path id="DejaVuSans-20" transform="scale(0.015625)"/>
      </defs>
      <use xlink:href="#DejaVuSans-41"/>
      <use xlink:href="#DejaVuSans-6d" x="68.408203"/>
      <use xlink:href="#DejaVuSans-70" x="165.820312"/>
      <use xlink:href="#DejaVuSans-6c" x="229.296875"/>
      <use xlink:href="#DejaVuSans-69" x="257.080078"/>
      <use xlink:href="#DejaVuSans-74" x="284.863281"/>
      <use xlink:href="#DejaVuSans-75" x="324.072266"/>
      <use xlink:href="#DejaVuSans-64" x="387.451172"/>
      <use xlink:href="#DejaVuSans-65" x="450.927734"/>
      <use xlink:href="#DejaVuSans-20" x="512.451172"/>
     </g>
     <!--  (Arb. U.) -->
     <g transform="translate(18.47775 56.570151) rotate(-90) scale(0.06 -0.06)">
      <defs>
       <path id="DejaVuSans-28" d="M 1984 4856 
Q 1566 4138 1362 3434 
Q 1159 2731 1159 2009 
Q 1159 1288 1364 580 
Q 1569 -128 1984 -844 
L 1484 -844 
Q 1016 -109 783 600 
Q 550 1309 550 2009 
Q 550 2706 781 3412 
Q 1013 4119 1484 4856 
L 1984 4856 
z
" transform="scale(0.015625)"/>
       <path id="DejaVuSans-72" d="M 2631 2963 
Q 2534 3019 2420 3045 
Q 2306 3072 2169 3072 
Q 1681 3072 1420 2755 
Q 1159 2438 1159 1844 
L 1159 0 
L 581 0 
L 581 3500 
L 1159 3500 
L 1159 2956 
Q 1341 3275 1631 3429 
Q 1922 3584 2338 3584 
Q 2397 3584 2469 3576 
Q 2541 3569 2628 3553 
L 2631 2963 
z
" transform="scale(0.015625)"/>
       <path id="DejaVuSans-62" d="M 3116 1747 
Q 3116 2381 2855 2742 
Q 2594 3103 2138 3103 
Q 1681 3103 1420 2742 
Q 1159 2381 1159 1747 
Q 1159 1113 1420 752 
Q 1681 391 2138 391 
Q 2594 391 2855 752 
Q 3116 1113 3116 1747 
z
M 1159 2969 
Q 1341 3281 1617 3432 
Q 1894 3584 2278 3584 
Q 2916 3584 3314 3078 
Q 3713 2572 3713 1747 
Q 3713 922 3314 415 
Q 2916 -91 2278 -91 
Q 1894 -91 1617 61 
Q 1341 213 1159 525 
L 1159 0 
L 581 0 
L 581 4863 
L 1159 4863 
L 1159 2969 
z
" transform="scale(0.015625)"/>
       <path id="DejaVuSans-55" d="M 556 4666 
L 1191 4666 
L 1191 1831 
Q 1191 1081 1462 751 
Q 1734 422 2344 422 
Q 2950 422 3222 751 
Q 3494 1081 3494 1831 
L 3494 4666 
L 4128 4666 
L 4128 1753 
Q 4128 841 3676 375 
Q 3225 -91 2344 -91 
Q 1459 -91 1007 375 
Q 556 841 556 1753 
L 556 4666 
z
" transform="scale(0.015625)"/>
       <path id="DejaVuSans-29" d="M 513 4856 
L 1013 4856 
Q 1481 4119 1714 3412 
Q 1947 2706 1947 2009 
Q 1947 1309 1714 600 
Q 1481 -109 1013 -844 
L 513 -844 
Q 928 -128 1133 580 
Q 1338 1288 1338 2009 
Q 1338 2731 1133 3434 
Q 928 4138 513 4856 
z
" transform="scale(0.015625)"/>
      </defs>
      <use xlink:href="#DejaVuSans-20"/>
      <use xlink:href="#DejaVuSans-28" x="31.787109"/>
      <use xlink:href="#DejaVuSans-41" x="70.800781"/>
      <use xlink:href="#DejaVuSans-72" x="139.208984"/>
      <use xlink:href="#DejaVuSans-62" x="180.322266"/>
      <use xlink:href="#DejaVuSans-2e" x="243.798828"/>
      <use xlink:href="#DejaVuSans-20" x="275.585938"/>
      <use xlink:href="#DejaVuSans-55" x="307.373047"/>
      <use xlink:href="#DejaVuSans-2e" x="380.566406"/>
      <use xlink:href="#DejaVuSans-29" x="412.353516"/>
     </g>
    </g>
   </g>
   <g id="line2d_17">
    <path d="M 80.160783 26.478312 
L 81.2622 21.855247 
L 82.363617 24.684631 
L 83.465034 19.433611 
L 84.566452 21.54221 
L 85.667868 21.591726 
L 86.769285 19.613078 
L 87.870702 18.137245 
L 88.97212 21.534684 
L 90.073536 26.010746 
L 91.174953 29.992317 
L 92.276371 32.563473 
L 93.377787 36.613499 
L 94.479205 42.020933 
L 95.580621 51.045796 
L 97.783456 67.534167 
L 98.884872 69.42131 
L 101.087707 61.60467 
L 103.29054 55.40417 
L 104.391958 51.334792 
L 105.493374 50.904888 
L 106.594791 45.920723 
L 105.493374 44.573458 
L 104.391958 45.917863 
L 103.29054 43.203162 
L 102.189123 43.682797 
L 101.087707 44.453645 
L 99.986289 45.048739 
L 98.884872 42.611171 
L 97.783456 40.645177 
L 95.580621 41.469173 
L 94.479205 43.528389 
L 93.377787 42.930884 
L 92.276371 43.39597 
L 91.174953 43.000902 
L 90.073536 41.382051 
L 88.97212 42.527044 
L 87.870702 42.205711 
L 86.769285 41.607687 
L 85.667868 39.842456 
L 84.566452 41.218244 
L 83.465034 39.403151 
L 82.363617 35.915647 
L 81.2622 34.782073 
L 80.160783 35.525464 
L 79.059366 35.337337 
L 77.957949 32.382024 
L 76.856532 31.72293 
L 75.755115 32.31083 
L 74.653699 33.642944 
L 73.552282 37.544599 
L 72.450865 37.15023 
L 71.349447 44.470572 
L 68.045196 61.191292 
L 66.94378 65.736677 
L 64.740946 37.082325 
L 62.538111 28.531334 
L 61.436695 27.175049 
L 60.335278 26.458613 
L 59.23386 27.274117 
L 58.132444 30.185786 
L 57.031027 25.449865 
L 55.929609 24.853759 
L 54.828193 24.80353 
L 53.726776 25.710621 
L 54.828193 26.071946 
L 55.929609 27.586093 
L 57.031027 23.624307 
L 58.132444 26.821317 
L 59.23386 27.259983 
L 60.335278 23.150416 
L 61.436695 26.642108 
L 62.538111 27.072055 
L 63.639529 30.849993 
L 64.740946 32.586791 
L 65.842362 32.520931 
L 66.94378 31.483789 
L 68.045196 34.075432 
L 69.146614 33.628744 
L 70.248031 29.798881 
L 71.349447 32.2112 
L 72.450865 30.049492 
L 73.552282 31.940952 
L 74.653699 28.562186 
L 75.755115 26.138008 
L 76.856532 27.209922 
L 77.957949 24.84825 
L 79.059366 24.599481 
L 80.160783 19.37631 
L 81.2622 16.958458 
L 82.363617 18.165084 
L 83.465034 17.438409 
L 84.566452 18.819349 
L 85.667868 18.414376 
L 86.769285 16.638366 
L 87.870702 23.163188 
L 88.97212 24.496563 
L 90.073536 29.782223 
L 91.174953 30.59773 
L 92.276371 36.758309 
L 93.377787 44.474752 
L 94.479205 53.907777 
L 95.580621 57.844937 
L 96.682038 67.129629 
L 97.783456 69.374436 
L 98.884872 63.615587 
L 99.986289 63.785316 
L 101.087707 58.724288 
L 103.29054 53.864795 
L 104.391958 48.292663 
L 105.493374 45.298306 
L 106.594791 43.313143 
L 105.493374 41.318121 
L 104.391958 39.669398 
L 103.29054 37.29886 
L 102.189123 36.624013 
L 101.087707 39.60564 
L 99.986289 41.288048 
L 98.884872 36.053735 
L 97.783456 36.47471 
L 96.682038 37.531826 
L 95.580621 37.458887 
L 94.479205 36.789712 
L 93.377787 36.661318 
L 91.174953 37.908594 
L 90.073536 39.119471 
L 88.97212 36.156852 
L 87.870702 37.792865 
L 86.769285 36.023152 
L 85.667868 35.98593 
L 84.566452 33.455515 
L 83.465034 34.041166 
L 82.363617 35.472576 
L 81.2622 29.784237 
L 80.160783 31.686703 
L 79.059366 32.352952 
L 77.957949 32.508696 
L 76.856532 31.043709 
L 75.755115 30.682684 
L 74.653699 32.367516 
L 73.552282 33.692307 
L 72.450865 37.801054 
L 71.349447 43.542652 
L 70.248031 46.061502 
L 69.146614 52.101437 
L 68.045196 61.300701 
L 66.94378 69.285742 
L 65.842362 58.167014 
L 64.740946 50.759567 
L 63.639529 44.157708 
L 62.538111 38.477252 
L 61.436695 30.070297 
L 60.335278 24.900196 
L 59.23386 24.875276 
L 58.132444 26.911459 
L 57.031027 26.071816 
L 55.929609 24.150689 
L 54.828193 23.767547 
L 53.726776 25.77602 
L 54.828193 24.337723 
L 55.929609 23.52318 
L 57.031027 24.634117 
L 58.132444 26.015598 
L 60.335278 22.877829 
L 61.436695 24.457917 
L 63.639529 25.430568 
L 64.740946 26.693705 
L 65.842362 29.112221 
L 66.94378 32.462056 
L 68.045196 31.472779 
L 70.248031 28.402358 
L 71.349447 28.236515 
L 72.450865 27.65454 
L 73.552282 27.875424 
L 74.653699 27.43946 
L 75.755115 24.631621 
L 76.856532 26.693283 
L 77.957949 23.339095 
L 79.059366 23.161607 
L 79.059366 23.161607 
" clip-path="url(#p41542e0e3b)" style="fill: none; stroke: #1f77b4; stroke-width: 0.5; stroke-linecap: square"/>
   </g>
   <g id="patch_3">
    <path d="M 51.083375 72.060458 
L 51.083375 13.999219 
" style="fill: none; stroke: #000000; stroke-width: 0.5; stroke-linejoin: miter; stroke-linecap: square"/>
   </g>
   <g id="patch_4">
    <path d="M 109.238192 72.060458 
L 109.238192 13.999219 
" style="fill: none; stroke: #000000; stroke-width: 0.5; stroke-linejoin: miter; stroke-linecap: square"/>
   </g>
   <g id="patch_5">
    <path d="M 51.083375 72.060458 
L 109.238192 72.060458 
" style="fill: none; stroke: #000000; stroke-width: 0.5; stroke-linejoin: miter; stroke-linecap: square"/>
   </g>
   <g id="patch_6">
    <path d="M 51.083375 13.999219 
L 109.238192 13.999219 
" style="fill: none; stroke: #000000; stroke-width: 0.5; stroke-linejoin: miter; stroke-linecap: square"/>
   </g>
   <g id="text_10">
    <path d="M 59.739723 22.947155 
Q 59.302223 22.947155 59.080973 23.095905 
Q 58.860973 23.243405 58.860973 23.533405 
Q 58.860973 23.798405 59.038473 23.949655 
Q 59.217223 24.099655 59.533473 24.099655 
Q 59.927223 24.099655 60.197223 23.817155 
Q 60.467223 23.533405 60.467223 23.107155 
L 60.467223 22.947155 
L 59.739723 22.947155 
z
M 61.877223 22.419655 
L 61.877223 24.915905 
L 60.467223 24.915905 
L 60.467223 24.267155 
Q 60.185973 24.665905 59.833473 24.848405 
Q 59.482223 25.029655 58.978473 25.029655 
Q 58.298473 25.029655 57.874723 24.633405 
Q 57.450973 24.235905 57.450973 23.603405 
Q 57.450973 22.833405 57.979723 22.474655 
Q 58.509723 22.114655 59.642223 22.114655 
L 60.467223 22.114655 
L 60.467223 22.005905 
Q 60.467223 21.673405 60.204723 21.519655 
Q 59.943473 21.364655 59.388473 21.364655 
Q 58.939723 21.364655 58.552223 21.454655 
Q 58.165973 21.544655 57.833473 21.724655 
L 57.833473 20.658405 
Q 58.283473 20.548405 58.735973 20.492155 
Q 59.189723 20.435905 59.642223 20.435905 
Q 60.825973 20.435905 61.350973 20.902155 
Q 61.877223 21.368405 61.877223 22.419655 
z
"/>
    <path d="M 59.739723 22.947155 
Q 59.302223 22.947155 59.080973 23.095905 
Q 58.860973 23.243405 58.860973 23.533405 
Q 58.860973 23.798405 59.038473 23.949655 
Q 59.217223 24.099655 59.533473 24.099655 
Q 59.927223 24.099655 60.197223 23.817155 
Q 60.467223 23.533405 60.467223 23.107155 
L 60.467223 22.947155 
L 59.739723 22.947155 
z
M 61.877223 22.419655 
L 61.877223 24.915905 
L 60.467223 24.915905 
L 60.467223 24.267155 
Q 60.185973 24.665905 59.833473 24.848405 
Q 59.482223 25.029655 58.978473 25.029655 
Q 58.298473 25.029655 57.874723 24.633405 
Q 57.450973 24.235905 57.450973 23.603405 
Q 57.450973 22.833405 57.979723 22.474655 
Q 58.509723 22.114655 59.642223 22.114655 
L 60.467223 22.114655 
L 60.467223 22.005905 
Q 60.467223 21.673405 60.204723 21.519655 
Q 59.943473 21.364655 59.388473 21.364655 
Q 58.939723 21.364655 58.552223 21.454655 
Q 58.165973 21.544655 57.833473 21.724655 
L 57.833473 20.658405 
Q 58.283473 20.548405 58.735973 20.492155 
Q 59.189723 20.435905 59.642223 20.435905 
Q 60.825973 20.435905 61.350973 20.902155 
Q 61.877223 21.368405 61.877223 22.419655 
z
"/>
   </g>
  </g>
  <g id="axes_2">
   <g id="patch_7">
    <path d="M 149.578297 72.060458 
L 207.733114 72.060458 
L 207.733114 13.999219 
L 149.578297 13.999219 
z
" style="fill: #ffffff"/>
   </g>
   <g id="matplotlib.axis_3">
    <g id="xtick_4">
     <g id="line2d_18">
      <g>
       <use xlink:href="#mc3073d36a1" x="162.134451" y="72.060458" style="stroke: #000000; stroke-width: 0.8"/>
      </g>
     </g>
     <g id="line2d_19">
      <g>
       <use xlink:href="#m8ede2d0098" x="162.134451" y="13.999219" style="stroke: #000000; stroke-width: 0.8"/>
      </g>
     </g>
     <g id="text_11">
      <!-- −10 -->
      <g transform="translate(156.858279 79.359676) scale(0.05 -0.05)">
       <use xlink:href="#DejaVuSans-2212"/>
       <use xlink:href="#DejaVuSans-31" x="83.789062"/>
       <use xlink:href="#DejaVuSans-30" x="147.412109"/>
      </g>
     </g>
    </g>
    <g id="xtick_5">
     <g id="line2d_20">
      <g>
       <use xlink:href="#mc3073d36a1" x="178.655705" y="72.060458" style="stroke: #000000; stroke-width: 0.8"/>
      </g>
     </g>
     <g id="line2d_21">
      <g>
       <use xlink:href="#m8ede2d0098" x="178.655705" y="13.999219" style="stroke: #000000; stroke-width: 0.8"/>
      </g>
     </g>
     <g id="text_12">
      <!-- 0 -->
      <g transform="translate(177.06508 79.359676) scale(0.05 -0.05)">
       <use xlink:href="#DejaVuSans-30"/>
      </g>
     </g>
    </g>
    <g id="xtick_6">
     <g id="line2d_22">
      <g>
       <use xlink:href="#mc3073d36a1" x="195.17696" y="72.060458" style="stroke: #000000; stroke-width: 0.8"/>
      </g>
     </g>
     <g id="line2d_23">
      <g>
       <use xlink:href="#m8ede2d0098" x="195.17696" y="13.999219" style="stroke: #000000; stroke-width: 0.8"/>
      </g>
     </g>
     <g id="text_13">
      <!-- 10 -->
      <g transform="translate(191.99571 79.359676) scale(0.05 -0.05)">
       <use xlink:href="#DejaVuSans-31"/>
       <use xlink:href="#DejaVuSans-30" x="63.623047"/>
      </g>
     </g>
    </g>
   </g>
   <g id="matplotlib.axis_4">
    <g id="ytick_6">
     <g id="line2d_24">
      <g>
       <use xlink:href="#mdb9bc6ac3a" x="149.578297" y="68.083723" style="stroke: #000000; stroke-width: 0.8"/>
      </g>
     </g>
     <g id="line2d_25">
      <g>
       <use xlink:href="#me4507d819e" x="207.733114" y="68.083723" style="stroke: #000000; stroke-width: 0.8"/>
      </g>
     </g>
     <g id="text_14">
      <!-- 1.310 -->
      <g transform="translate(131.764234 69.983333) scale(0.05 -0.05)">
       <defs>
        <path id="DejaVuSans-33" d="M 2597 2516 
Q 3050 2419 3304 2112 
Q 3559 1806 3559 1356 
Q 3559 666 3084 287 
Q 2609 -91 1734 -91 
Q 1441 -91 1130 -33 
Q 819 25 488 141 
L 488 750 
Q 750 597 1062 519 
Q 1375 441 1716 441 
Q 2309 441 2620 675 
Q 2931 909 2931 1356 
Q 2931 1769 2642 2001 
Q 2353 2234 1838 2234 
L 1294 2234 
L 1294 2753 
L 1863 2753 
Q 2328 2753 2575 2939 
Q 2822 3125 2822 3475 
Q 2822 3834 2567 4026 
Q 2313 4219 1838 4219 
Q 1578 4219 1281 4162 
Q 984 4106 628 3988 
L 628 4550 
Q 988 4650 1302 4700 
Q 1616 4750 1894 4750 
Q 2613 4750 3031 4423 
Q 3450 4097 3450 3541 
Q 3450 3153 3228 2886 
Q 3006 2619 2597 2516 
z
" transform="scale(0.015625)"/>
       </defs>
       <use xlink:href="#DejaVuSans-31"/>
       <use xlink:href="#DejaVuSans-2e" x="63.623047"/>
       <use xlink:href="#DejaVuSans-33" x="95.410156"/>
       <use xlink:href="#DejaVuSans-31" x="159.033203"/>
       <use xlink:href="#DejaVuSans-30" x="222.65625"/>
      </g>
     </g>
    </g>
    <g id="ytick_7">
     <g id="line2d_26">
      <g>
       <use xlink:href="#mdb9bc6ac3a" x="149.578297" y="52.521337" style="stroke: #000000; stroke-width: 0.8"/>
      </g>
     </g>
     <g id="line2d_27">
      <g>
       <use xlink:href="#me4507d819e" x="207.733114" y="52.521337" style="stroke: #000000; stroke-width: 0.8"/>
      </g>
     </g>
     <g id="text_15">
      <!-- 1.315 -->
      <g transform="translate(131.764234 54.420947) scale(0.05 -0.05)">
       <use xlink:href="#DejaVuSans-31"/>
       <use xlink:href="#DejaVuSans-2e" x="63.623047"/>
       <use xlink:href="#DejaVuSans-33" x="95.410156"/>
       <use xlink:href="#DejaVuSans-31" x="159.033203"/>
       <use xlink:href="#DejaVuSans-35" x="222.65625"/>
      </g>
     </g>
    </g>
    <g id="ytick_8">
     <g id="line2d_28">
      <g>
       <use xlink:href="#mdb9bc6ac3a" x="149.578297" y="36.958951" style="stroke: #000000; stroke-width: 0.8"/>
      </g>
     </g>
     <g id="line2d_29">
      <g>
       <use xlink:href="#me4507d819e" x="207.733114" y="36.958951" style="stroke: #000000; stroke-width: 0.8"/>
      </g>
     </g>
     <g id="text_16">
      <!-- 1.320 -->
      <g transform="translate(131.764234 38.858561) scale(0.05 -0.05)">
       <use xlink:href="#DejaVuSans-31"/>
       <use xlink:href="#DejaVuSans-2e" x="63.623047"/>
       <use xlink:href="#DejaVuSans-33" x="95.410156"/>
       <use xlink:href="#DejaVuSans-32" x="159.033203"/>
       <use xlink:href="#DejaVuSans-30" x="222.65625"/>
      </g>
     </g>
    </g>
    <g id="ytick_9">
     <g id="line2d_30">
      <g>
       <use xlink:href="#mdb9bc6ac3a" x="149.578297" y="21.396565" style="stroke: #000000; stroke-width: 0.8"/>
      </g>
     </g>
     <g id="line2d_31">
      <g>
       <use xlink:href="#me4507d819e" x="207.733114" y="21.396565" style="stroke: #000000; stroke-width: 0.8"/>
      </g>
     </g>
     <g id="text_17">
      <!-- 1.325 -->
      <g transform="translate(131.764234 23.296175) scale(0.05 -0.05)">
       <use xlink:href="#DejaVuSans-31"/>
       <use xlink:href="#DejaVuSans-2e" x="63.623047"/>
       <use xlink:href="#DejaVuSans-33" x="95.410156"/>
       <use xlink:href="#DejaVuSans-32" x="159.033203"/>
       <use xlink:href="#DejaVuSans-35" x="222.65625"/>
      </g>
     </g>
    </g>
    <g id="text_18">
     <!-- Resonance Frequency  -->
     <g transform="translate(119.797734 76.764838) rotate(-90) scale(0.06 -0.06)">
      <defs>
       <path id="DejaVuSans-52" d="M 2841 2188 
Q 3044 2119 3236 1894 
Q 3428 1669 3622 1275 
L 4263 0 
L 3584 0 
L 2988 1197 
Q 2756 1666 2539 1819 
Q 2322 1972 1947 1972 
L 1259 1972 
L 1259 0 
L 628 0 
L 628 4666 
L 2053 4666 
Q 2853 4666 3247 4331 
Q 3641 3997 3641 3322 
Q 3641 2881 3436 2590 
Q 3231 2300 2841 2188 
z
M 1259 4147 
L 1259 2491 
L 2053 2491 
Q 2509 2491 2742 2702 
Q 2975 2913 2975 3322 
Q 2975 3731 2742 3939 
Q 2509 4147 2053 4147 
L 1259 4147 
z
" transform="scale(0.015625)"/>
       <path id="DejaVuSans-73" d="M 2834 3397 
L 2834 2853 
Q 2591 2978 2328 3040 
Q 2066 3103 1784 3103 
Q 1356 3103 1142 2972 
Q 928 2841 928 2578 
Q 928 2378 1081 2264 
Q 1234 2150 1697 2047 
L 1894 2003 
Q 2506 1872 2764 1633 
Q 3022 1394 3022 966 
Q 3022 478 2636 193 
Q 2250 -91 1575 -91 
Q 1294 -91 989 -36 
Q 684 19 347 128 
L 347 722 
Q 666 556 975 473 
Q 1284 391 1588 391 
Q 1994 391 2212 530 
Q 2431 669 2431 922 
Q 2431 1156 2273 1281 
Q 2116 1406 1581 1522 
L 1381 1569 
Q 847 1681 609 1914 
Q 372 2147 372 2553 
Q 372 3047 722 3315 
Q 1072 3584 1716 3584 
Q 2034 3584 2315 3537 
Q 2597 3491 2834 3397 
z
" transform="scale(0.015625)"/>
       <path id="DejaVuSans-6f" d="M 1959 3097 
Q 1497 3097 1228 2736 
Q 959 2375 959 1747 
Q 959 1119 1226 758 
Q 1494 397 1959 397 
Q 2419 397 2687 759 
Q 2956 1122 2956 1747 
Q 2956 2369 2687 2733 
Q 2419 3097 1959 3097 
z
M 1959 3584 
Q 2709 3584 3137 3096 
Q 3566 2609 3566 1747 
Q 3566 888 3137 398 
Q 2709 -91 1959 -91 
Q 1206 -91 779 398 
Q 353 888 353 1747 
Q 353 2609 779 3096 
Q 1206 3584 1959 3584 
z
" transform="scale(0.015625)"/>
       <path id="DejaVuSans-6e" d="M 3513 2113 
L 3513 0 
L 2938 0 
L 2938 2094 
Q 2938 2591 2744 2837 
Q 2550 3084 2163 3084 
Q 1697 3084 1428 2787 
Q 1159 2491 1159 1978 
L 1159 0 
L 581 0 
L 581 3500 
L 1159 3500 
L 1159 2956 
Q 1366 3272 1645 3428 
Q 1925 3584 2291 3584 
Q 2894 3584 3203 3211 
Q 3513 2838 3513 2113 
z
" transform="scale(0.015625)"/>
       <path id="DejaVuSans-61" d="M 2194 1759 
Q 1497 1759 1228 1600 
Q 959 1441 959 1056 
Q 959 750 1161 570 
Q 1363 391 1709 391 
Q 2188 391 2477 730 
Q 2766 1069 2766 1631 
L 2766 1759 
L 2194 1759 
z
M 3341 1997 
L 3341 0 
L 2766 0 
L 2766 531 
Q 2569 213 2275 61 
Q 1981 -91 1556 -91 
Q 1019 -91 701 211 
Q 384 513 384 1019 
Q 384 1609 779 1909 
Q 1175 2209 1959 2209 
L 2766 2209 
L 2766 2266 
Q 2766 2663 2505 2880 
Q 2244 3097 1772 3097 
Q 1472 3097 1187 3025 
Q 903 2953 641 2809 
L 641 3341 
Q 956 3463 1253 3523 
Q 1550 3584 1831 3584 
Q 2591 3584 2966 3190 
Q 3341 2797 3341 1997 
z
" transform="scale(0.015625)"/>
       <path id="DejaVuSans-63" d="M 3122 3366 
L 3122 2828 
Q 2878 2963 2633 3030 
Q 2388 3097 2138 3097 
Q 1578 3097 1268 2742 
Q 959 2388 959 1747 
Q 959 1106 1268 751 
Q 1578 397 2138 397 
Q 2388 397 2633 464 
Q 2878 531 3122 666 
L 3122 134 
Q 2881 22 2623 -34 
Q 2366 -91 2075 -91 
Q 1284 -91 818 406 
Q 353 903 353 1747 
Q 353 2603 823 3093 
Q 1294 3584 2113 3584 
Q 2378 3584 2631 3529 
Q 2884 3475 3122 3366 
z
" transform="scale(0.015625)"/>
       <path id="DejaVuSans-46" d="M 628 4666 
L 3309 4666 
L 3309 4134 
L 1259 4134 
L 1259 2759 
L 3109 2759 
L 3109 2228 
L 1259 2228 
L 1259 0 
L 628 0 
L 628 4666 
z
" transform="scale(0.015625)"/>
       <path id="DejaVuSans-71" d="M 947 1747 
Q 947 1113 1208 752 
Q 1469 391 1925 391 
Q 2381 391 2643 752 
Q 2906 1113 2906 1747 
Q 2906 2381 2643 2742 
Q 2381 3103 1925 3103 
Q 1469 3103 1208 2742 
Q 947 2381 947 1747 
z
M 2906 525 
Q 2725 213 2448 61 
Q 2172 -91 1784 -91 
Q 1150 -91 751 415 
Q 353 922 353 1747 
Q 353 2572 751 3078 
Q 1150 3584 1784 3584 
Q 2172 3584 2448 3432 
Q 2725 3281 2906 2969 
L 2906 3500 
L 3481 3500 
L 3481 -1331 
L 2906 -1331 
L 2906 525 
z
" transform="scale(0.015625)"/>
       <path id="DejaVuSans-79" d="M 2059 -325 
Q 1816 -950 1584 -1140 
Q 1353 -1331 966 -1331 
L 506 -1331 
L 506 -850 
L 844 -850 
Q 1081 -850 1212 -737 
Q 1344 -625 1503 -206 
L 1606 56 
L 191 3500 
L 800 3500 
L 1894 763 
L 2988 3500 
L 3597 3500 
L 2059 -325 
z
" transform="scale(0.015625)"/>
      </defs>
      <use xlink:href="#DejaVuSans-52"/>
      <use xlink:href="#DejaVuSans-65" x="64.982422"/>
      <use xlink:href="#DejaVuSans-73" x="126.505859"/>
      <use xlink:href="#DejaVuSans-6f" x="178.605469"/>
      <use xlink:href="#DejaVuSans-6e" x="239.787109"/>
      <use xlink:href="#DejaVuSans-61" x="303.166016"/>
      <use xlink:href="#DejaVuSans-6e" x="364.445312"/>
      <use xlink:href="#DejaVuSans-63" x="427.824219"/>
      <use xlink:href="#DejaVuSans-65" x="482.804688"/>
      <use xlink:href="#DejaVuSans-20" x="544.328125"/>
      <use xlink:href="#DejaVuSans-46" x="576.115234"/>
      <use xlink:href="#DejaVuSans-72" x="626.384766"/>
      <use xlink:href="#DejaVuSans-65" x="665.248047"/>
      <use xlink:href="#DejaVuSans-71" x="726.771484"/>
      <use xlink:href="#DejaVuSans-75" x="790.248047"/>
      <use xlink:href="#DejaVuSans-65" x="853.626953"/>
      <use xlink:href="#DejaVuSans-6e" x="915.150391"/>
      <use xlink:href="#DejaVuSans-63" x="978.529297"/>
      <use xlink:href="#DejaVuSans-79" x="1033.509766"/>
      <use xlink:href="#DejaVuSans-20" x="1092.689453"/>
     </g>
     <!--  (Hz) -->
     <g transform="translate(126.516422 50.154838) rotate(-90) scale(0.06 -0.06)">
      <defs>
       <path id="DejaVuSans-48" d="M 628 4666 
L 1259 4666 
L 1259 2753 
L 3553 2753 
L 3553 4666 
L 4184 4666 
L 4184 0 
L 3553 0 
L 3553 2222 
L 1259 2222 
L 1259 0 
L 628 0 
L 628 4666 
z
" transform="scale(0.015625)"/>
       <path id="DejaVuSans-7a" d="M 353 3500 
L 3084 3500 
L 3084 2975 
L 922 459 
L 3084 459 
L 3084 0 
L 275 0 
L 275 525 
L 2438 3041 
L 353 3041 
L 353 3500 
z
" transform="scale(0.015625)"/>
      </defs>
      <use xlink:href="#DejaVuSans-20"/>
      <use xlink:href="#DejaVuSans-28" x="31.787109"/>
      <use xlink:href="#DejaVuSans-48" x="70.800781"/>
      <use xlink:href="#DejaVuSans-7a" x="145.996094"/>
      <use xlink:href="#DejaVuSans-29" x="198.486328"/>
     </g>
    </g>
    <g id="text_19">
     <!-- 1e6 -->
     <g transform="translate(149.578297 10.999219) scale(0.05 -0.05)">
      <defs>
       <path id="DejaVuSans-36" d="M 2113 2584 
Q 1688 2584 1439 2293 
Q 1191 2003 1191 1497 
Q 1191 994 1439 701 
Q 1688 409 2113 409 
Q 2538 409 2786 701 
Q 3034 994 3034 1497 
Q 3034 2003 2786 2293 
Q 2538 2584 2113 2584 
z
M 3366 4563 
L 3366 3988 
Q 3128 4100 2886 4159 
Q 2644 4219 2406 4219 
Q 1781 4219 1451 3797 
Q 1122 3375 1075 2522 
Q 1259 2794 1537 2939 
Q 1816 3084 2150 3084 
Q 2853 3084 3261 2657 
Q 3669 2231 3669 1497 
Q 3669 778 3244 343 
Q 2819 -91 2113 -91 
Q 1303 -91 875 529 
Q 447 1150 447 2328 
Q 447 3434 972 4092 
Q 1497 4750 2381 4750 
Q 2619 4750 2861 4703 
Q 3103 4656 3366 4563 
z
" transform="scale(0.015625)"/>
      </defs>
      <use xlink:href="#DejaVuSans-31"/>
      <use xlink:href="#DejaVuSans-65" x="63.623047"/>
      <use xlink:href="#DejaVuSans-36" x="125.146484"/>
     </g>
    </g>
   </g>
   <g id="line2d_32">
    <path d="M 178.655705 21.444809 
L 179.757122 21.800798 
L 180.858539 21.103214 
L 181.959956 21.044077 
L 183.061373 20.625449 
L 184.16279 20.809864 
L 185.264207 21.110607 
L 186.365624 22.101542 
L 187.467041 22.276618 
L 188.568458 23.521998 
L 189.669875 23.353146 
L 191.872709 24.48531 
L 192.974127 23.514995 
L 194.075543 22.897947 
L 195.17696 21.50628 
L 196.278378 20.92308 
L 197.379794 69.42131 
L 198.481211 20.82776 
L 199.582629 24.352641 
L 200.684045 23.886936 
L 201.785462 21.846707 
L 202.88688 20.734775 
L 203.988295 20.759675 
L 205.089713 21.906234 
L 203.988295 22.041626 
L 202.88688 21.09699 
L 201.785462 21.286462 
L 200.684045 21.003615 
L 199.582629 21.595375 
L 198.481211 20.620391 
L 197.379794 20.790411 
L 196.278378 21.135895 
L 195.17696 21.270899 
L 194.075543 20.492002 
L 192.974127 20.42236 
L 191.872709 19.821263 
L 190.771292 20.210323 
L 189.669875 19.550088 
L 188.568458 19.601444 
L 187.467041 19.344665 
L 186.365624 19.343887 
L 185.264207 20.078431 
L 183.061373 20.604051 
L 181.959956 19.87223 
L 180.858539 20.024741 
L 179.757122 20.042249 
L 177.554288 18.899192 
L 176.452871 19.969495 
L 174.250037 20.490835 
L 173.148621 21.21254 
L 172.047203 22.201919 
L 170.945787 22.670347 
L 169.844369 23.346921 
L 168.742952 26.100297 
L 167.641536 26.629807 
L 166.540118 25.612805 
L 165.438701 23.550789 
L 164.337284 23.480758 
L 163.235868 21.978988 
L 162.134451 20.249229 
L 161.033033 20.02124 
L 159.931617 19.336884 
L 158.8302 19.423644 
L 156.627366 18.025364 
L 155.525949 19.359838 
L 154.424531 19.517407 
L 153.323115 19.142743 
L 152.221698 19.345832 
L 153.323115 19.117843 
L 154.424531 18.733063 
L 155.525949 19.057539 
L 156.627366 18.355286 
L 157.728782 18.665367 
L 158.8302 17.498966 
L 159.931617 18.382909 
L 161.033033 18.592224 
L 162.134451 18.190714 
L 163.235868 18.424928 
L 164.337284 18.241292 
L 165.438701 18.841222 
L 167.641536 18.176319 
L 168.742952 19.042366 
L 169.844369 18.222617 
L 170.945787 17.913314 
L 172.047203 18.54009 
L 173.148621 18.152586 
L 174.250037 18.183322 
L 175.351454 18.892578 
L 176.452871 18.284088 
L 177.554288 17.305603 
L 178.655705 17.899308 
L 179.757122 18.096951 
L 180.858539 17.547987 
L 181.959956 18.042482 
L 183.061373 18.165814 
L 184.16279 18.459943 
L 185.264207 19.258294 
L 186.365624 21.07209 
L 187.467041 21.878999 
L 189.669875 22.738821 
L 190.771292 23.40956 
L 191.872709 21.72571 
L 192.974127 21.098157 
L 194.075543 19.229503 
L 195.17696 18.715944 
L 196.278378 69.42131 
L 197.379794 20.109167 
L 198.481211 17.438662 
L 199.582629 19.250123 
L 200.684045 20.379564 
L 201.785462 18.41559 
L 202.88688 18.824492 
L 203.988295 19.909579 
L 205.089713 20.046528 
L 203.988295 19.175035 
L 202.88688 19.270744 
L 201.785462 18.990621 
L 200.684045 19.642296 
L 199.582629 18.593391 
L 198.481211 18.368125 
L 196.278378 19.224445 
L 195.17696 18.902304 
L 192.974127 18.654473 
L 191.872709 18.780528 
L 190.771292 17.635915 
L 189.669875 18.277085 
L 187.467041 18.227675 
L 186.365624 17.761581 
L 185.264207 17.477568 
L 184.16279 17.723453 
L 183.061373 16.976848 
L 181.959956 16.638366 
L 180.858539 17.312606 
L 179.757122 17.241019 
L 178.655705 17.698554 
L 177.554288 16.66171 
L 176.452871 17.686493 
L 175.351454 17.645641 
L 172.047203 21.749832 
L 170.945787 22.576972 
L 169.844369 22.68552 
L 168.742952 24.930394 
L 167.641536 25.033106 
L 166.540118 23.255882 
L 165.438701 69.42131 
L 164.337284 20.374895 
L 163.235868 20.319648 
L 162.134451 19.722053 
L 161.033033 19.867561 
L 159.931617 18.925259 
L 158.8302 19.054815 
L 157.728782 18.133911 
L 156.627366 17.817217 
L 155.525949 18.571214 
L 154.424531 17.92343 
L 153.323115 18.177875 
L 152.221698 18.181377 
L 153.323115 18.962219 
L 154.424531 18.540479 
L 156.627366 17.197056 
L 157.728782 17.891916 
L 158.8302 17.647198 
L 159.931617 17.607903 
L 161.033033 17.430102 
L 162.134451 17.026647 
L 163.235868 17.298211 
L 164.337284 17.886858 
L 165.438701 17.702055 
L 166.540118 17.800487 
L 167.641536 17.530869 
L 168.742952 17.377579 
L 169.844369 17.570553 
L 170.945787 17.512194 
L 172.047203 18.05571 
L 173.148621 17.13714 
L 174.250037 16.74847 
L 175.351454 17.665872 
L 176.452871 17.854177 
L 177.554288 17.088508 
L 177.554288 17.088508 
" clip-path="url(#pda02361574)" style="fill: none; stroke: #1f77b4; stroke-width: 0.5; stroke-linecap: square"/>
   </g>
   <g id="patch_8">
    <path d="M 149.578297 72.060457 
L 149.578297 13.999219 
" style="fill: none; stroke: #000000; stroke-width: 0.5; stroke-linejoin: miter; stroke-linecap: square"/>
   </g>
   <g id="patch_9">
    <path d="M 207.733114 72.060457 
L 207.733114 13.999219 
" style="fill: none; stroke: #000000; stroke-width: 0.5; stroke-linejoin: miter; stroke-linecap: square"/>
   </g>
   <g id="patch_10">
    <path d="M 149.578297 72.060458 
L 207.733114 72.060458 
" style="fill: none; stroke: #000000; stroke-width: 0.5; stroke-linejoin: miter; stroke-linecap: square"/>
   </g>
   <g id="patch_11">
    <path d="M 149.578297 13.999219 
L 207.733114 13.999219 
" style="fill: none; stroke: #000000; stroke-width: 0.5; stroke-linejoin: miter; stroke-linecap: square"/>
   </g>
   <g id="text_20">
    <path d="M 158.438394 24.013405 
Q 158.887144 24.013405 159.123394 23.685905 
Q 159.360894 23.357155 159.360894 22.732155 
Q 159.360894 22.107155 159.123394 21.779655 
Q 158.887144 21.450905 158.438394 21.450905 
Q 157.989644 21.450905 157.748394 21.780905 
Q 157.508394 22.110905 157.508394 22.732155 
Q 157.508394 23.353405 157.748394 23.683405 
Q 157.989644 24.013405 158.438394 24.013405 
z
M 157.508394 21.180905 
Q 157.798394 20.798405 158.149644 20.617155 
Q 158.500894 20.435905 158.958394 20.435905 
Q 159.767144 20.435905 160.285894 21.078405 
Q 160.805894 21.720905 160.805894 22.732155 
Q 160.805894 23.743405 160.285894 24.387155 
Q 159.767144 25.029655 158.958394 25.029655 
Q 158.500894 25.029655 158.149644 24.848405 
Q 157.798394 24.665905 157.508394 24.283405 
L 157.508394 24.915905 
L 156.110894 24.915905 
L 156.110894 18.837155 
L 157.508394 18.837155 
L 157.508394 21.180905 
z
"/>
    <path d="M 158.438394 24.013405 
Q 158.887144 24.013405 159.123394 23.685905 
Q 159.360894 23.357155 159.360894 22.732155 
Q 159.360894 22.107155 159.123394 21.779655 
Q 158.887144 21.450905 158.438394 21.450905 
Q 157.989644 21.450905 157.748394 21.780905 
Q 157.508394 22.110905 157.508394 22.732155 
Q 157.508394 23.353405 157.748394 23.683405 
Q 157.989644 24.013405 158.438394 24.013405 
z
M 157.508394 21.180905 
Q 157.798394 20.798405 158.149644 20.617155 
Q 158.500894 20.435905 158.958394 20.435905 
Q 159.767144 20.435905 160.285894 21.078405 
Q 160.805894 21.720905 160.805894 22.732155 
Q 160.805894 23.743405 160.285894 24.387155 
Q 159.767144 25.029655 158.958394 25.029655 
Q 158.500894 25.029655 158.149644 24.848405 
Q 157.798394 24.665905 157.508394 24.283405 
L 157.508394 24.915905 
L 156.110894 24.915905 
L 156.110894 18.837155 
L 157.508394 18.837155 
L 157.508394 21.180905 
z
"/>
   </g>
  </g>
  <g id="axes_3">
   <g id="patch_12">
    <path d="M 247.49275 72.060458 
L 305.647567 72.060458 
L 305.647567 13.999219 
L 247.49275 13.999219 
z
" style="fill: #ffffff"/>
   </g>
   <g id="matplotlib.axis_5">
    <g id="xtick_7">
     <g id="line2d_33">
      <g>
       <use xlink:href="#mc3073d36a1" x="260.048904" y="72.060458" style="stroke: #000000; stroke-width: 0.8"/>
      </g>
     </g>
     <g id="line2d_34">
      <g>
       <use xlink:href="#m8ede2d0098" x="260.048904" y="13.999219" style="stroke: #000000; stroke-width: 0.8"/>
      </g>
     </g>
     <g id="text_21">
      <!-- −10 -->
      <g transform="translate(254.772732 79.359676) scale(0.05 -0.05)">
       <use xlink:href="#DejaVuSans-2212"/>
       <use xlink:href="#DejaVuSans-31" x="83.789062"/>
       <use xlink:href="#DejaVuSans-30" x="147.412109"/>
      </g>
     </g>
    </g>
    <g id="xtick_8">
     <g id="line2d_35">
      <g>
       <use xlink:href="#mc3073d36a1" x="276.570158" y="72.060458" style="stroke: #000000; stroke-width: 0.8"/>
      </g>
     </g>
     <g id="line2d_36">
      <g>
       <use xlink:href="#m8ede2d0098" x="276.570158" y="13.999219" style="stroke: #000000; stroke-width: 0.8"/>
      </g>
     </g>
     <g id="text_22">
      <!-- 0 -->
      <g transform="translate(274.979533 79.359676) scale(0.05 -0.05)">
       <use xlink:href="#DejaVuSans-30"/>
      </g>
     </g>
    </g>
    <g id="xtick_9">
     <g id="line2d_37">
      <g>
       <use xlink:href="#mc3073d36a1" x="293.091413" y="72.060458" style="stroke: #000000; stroke-width: 0.8"/>
      </g>
     </g>
     <g id="line2d_38">
      <g>
       <use xlink:href="#m8ede2d0098" x="293.091413" y="13.999219" style="stroke: #000000; stroke-width: 0.8"/>
      </g>
     </g>
     <g id="text_23">
      <!-- 10 -->
      <g transform="translate(289.910163 79.359676) scale(0.05 -0.05)">
       <use xlink:href="#DejaVuSans-31"/>
       <use xlink:href="#DejaVuSans-30" x="63.623047"/>
      </g>
     </g>
    </g>
   </g>
   <g id="matplotlib.axis_6">
    <g id="ytick_10">
     <g id="line2d_39">
      <g>
       <use xlink:href="#mdb9bc6ac3a" x="247.49275" y="55.42595" style="stroke: #000000; stroke-width: 0.8"/>
      </g>
     </g>
     <g id="line2d_40">
      <g>
       <use xlink:href="#me4507d819e" x="305.647567" y="55.42595" style="stroke: #000000; stroke-width: 0.8"/>
      </g>
     </g>
     <g id="text_24">
      <!-- −200 -->
      <g transform="translate(230.259156 57.32556) scale(0.05 -0.05)">
       <use xlink:href="#DejaVuSans-2212"/>
       <use xlink:href="#DejaVuSans-32" x="83.789062"/>
       <use xlink:href="#DejaVuSans-30" x="147.412109"/>
       <use xlink:href="#DejaVuSans-30" x="211.035156"/>
      </g>
     </g>
    </g>
    <g id="ytick_11">
     <g id="line2d_41">
      <g>
       <use xlink:href="#mdb9bc6ac3a" x="247.49275" y="36.032158" style="stroke: #000000; stroke-width: 0.8"/>
      </g>
     </g>
     <g id="line2d_42">
      <g>
       <use xlink:href="#me4507d819e" x="305.647567" y="36.032158" style="stroke: #000000; stroke-width: 0.8"/>
      </g>
     </g>
     <g id="text_25">
      <!-- 0 -->
      <g transform="translate(240.8115 37.931767) scale(0.05 -0.05)">
       <use xlink:href="#DejaVuSans-30"/>
      </g>
     </g>
    </g>
    <g id="ytick_12">
     <g id="line2d_43">
      <g>
       <use xlink:href="#mdb9bc6ac3a" x="247.49275" y="16.638366" style="stroke: #000000; stroke-width: 0.8"/>
      </g>
     </g>
     <g id="line2d_44">
      <g>
       <use xlink:href="#me4507d819e" x="305.647567" y="16.638366" style="stroke: #000000; stroke-width: 0.8"/>
      </g>
     </g>
     <g id="text_26">
      <!-- 200 -->
      <g transform="translate(234.449 18.537975) scale(0.05 -0.05)">
       <use xlink:href="#DejaVuSans-32"/>
       <use xlink:href="#DejaVuSans-30" x="63.623047"/>
       <use xlink:href="#DejaVuSans-30" x="127.246094"/>
      </g>
     </g>
    </g>
    <g id="text_27">
     <!-- Quality Factor  -->
     <g transform="translate(218.292656 64.841244) rotate(-90) scale(0.06 -0.06)">
      <defs>
       <path id="DejaVuSans-51" d="M 2522 4238 
Q 1834 4238 1429 3725 
Q 1025 3213 1025 2328 
Q 1025 1447 1429 934 
Q 1834 422 2522 422 
Q 3209 422 3611 934 
Q 4013 1447 4013 2328 
Q 4013 3213 3611 3725 
Q 3209 4238 2522 4238 
z
M 3406 84 
L 4238 -825 
L 3475 -825 
L 2784 -78 
Q 2681 -84 2626 -87 
Q 2572 -91 2522 -91 
Q 1538 -91 948 567 
Q 359 1225 359 2328 
Q 359 3434 948 4092 
Q 1538 4750 2522 4750 
Q 3503 4750 4090 4092 
Q 4678 3434 4678 2328 
Q 4678 1516 4351 937 
Q 4025 359 3406 84 
z
" transform="scale(0.015625)"/>
      </defs>
      <use xlink:href="#DejaVuSans-51"/>
      <use xlink:href="#DejaVuSans-75" x="78.710938"/>
      <use xlink:href="#DejaVuSans-61" x="142.089844"/>
      <use xlink:href="#DejaVuSans-6c" x="203.369141"/>
      <use xlink:href="#DejaVuSans-69" x="231.152344"/>
      <use xlink:href="#DejaVuSans-74" x="258.935547"/>
      <use xlink:href="#DejaVuSans-79" x="298.144531"/>
      <use xlink:href="#DejaVuSans-20" x="357.324219"/>
      <use xlink:href="#DejaVuSans-46" x="389.111328"/>
      <use xlink:href="#DejaVuSans-61" x="437.505859"/>
      <use xlink:href="#DejaVuSans-63" x="498.785156"/>
      <use xlink:href="#DejaVuSans-74" x="553.765625"/>
      <use xlink:href="#DejaVuSans-6f" x="592.974609"/>
      <use xlink:href="#DejaVuSans-72" x="654.15625"/>
      <use xlink:href="#DejaVuSans-20" x="695.269531"/>
     </g>
     <!--  (Arb. U.) -->
     <g transform="translate(225.011344 56.570151) rotate(-90) scale(0.06 -0.06)">
      <use xlink:href="#DejaVuSans-20"/>
      <use xlink:href="#DejaVuSans-28" x="31.787109"/>
      <use xlink:href="#DejaVuSans-41" x="70.800781"/>
      <use xlink:href="#DejaVuSans-72" x="139.208984"/>
      <use xlink:href="#DejaVuSans-62" x="180.322266"/>
      <use xlink:href="#DejaVuSans-2e" x="243.798828"/>
      <use xlink:href="#DejaVuSans-20" x="275.585938"/>
      <use xlink:href="#DejaVuSans-55" x="307.373047"/>
      <use xlink:href="#DejaVuSans-2e" x="380.566406"/>
      <use xlink:href="#DejaVuSans-29" x="412.353516"/>
     </g>
    </g>
   </g>
   <g id="line2d_45">
    <path d="M 276.570158 58.257902 
L 277.671575 57.190255 
L 278.772992 58.862986 
L 279.874409 58.132026 
L 280.975827 58.592181 
L 282.077243 59.372285 
L 283.17866 58.405836 
L 284.280077 57.811204 
L 285.381495 57.511543 
L 286.482911 57.344394 
L 287.584328 58.028823 
L 288.685746 57.153307 
L 293.091413 57.633036 
L 294.192831 69.143063 
L 295.294247 16.638366 
L 296.395664 57.841498 
L 297.497082 57.421603 
L 298.598498 54.072429 
L 299.699915 55.725395 
L 300.801333 56.451616 
L 301.902749 59.489507 
L 303.004166 55.261149 
L 301.902749 55.74459 
L 300.801333 58.540909 
L 299.699915 58.266021 
L 298.598498 58.788599 
L 297.497082 58.829971 
L 296.395664 59.167164 
L 295.294247 58.328081 
L 294.192831 56.658866 
L 293.091413 58.089544 
L 291.989996 57.369441 
L 289.787162 58.361549 
L 288.685746 58.424177 
L 287.584328 58.642515 
L 286.482911 58.083845 
L 285.381495 58.755416 
L 284.280077 59.130163 
L 283.17866 57.787371 
L 282.077243 58.369863 
L 280.975827 58.543522 
L 279.874409 58.183486 
L 278.772992 57.460873 
L 277.671575 57.400583 
L 276.570158 58.839463 
L 275.468741 58.830448 
L 274.367324 57.607274 
L 273.265907 57.517728 
L 272.16449 57.693968 
L 271.063074 57.427311 
L 269.961657 59.297747 
L 268.86024 56.432443 
L 267.758822 57.72998 
L 266.657406 55.55483 
L 265.555989 56.033733 
L 264.454571 56.802632 
L 263.353155 62.791715 
L 262.251737 59.032589 
L 261.150321 56.121553 
L 260.048904 58.070038 
L 257.84607 57.090897 
L 256.744653 56.804828 
L 255.643235 57.226736 
L 254.541819 59.466296 
L 253.440402 57.027049 
L 252.338984 57.779879 
L 251.237568 57.300353 
L 250.136151 58.123701 
L 251.237568 59.493011 
L 252.338984 58.859685 
L 253.440402 56.886595 
L 254.541819 57.922712 
L 255.643235 58.759881 
L 256.744653 56.366945 
L 257.84607 58.811513 
L 258.947486 59.44262 
L 260.048904 59.881503 
L 261.150321 59.368583 
L 262.251737 59.538389 
L 263.353155 58.321642 
L 264.454571 59.094476 
L 265.555989 58.570316 
L 266.657406 57.256615 
L 267.758822 57.913187 
L 268.86024 57.535186 
L 269.961657 58.668874 
L 271.063074 58.193683 
L 272.16449 58.727473 
L 273.265907 59.437567 
L 274.367324 59.776977 
L 275.468741 59.691868 
L 277.671575 57.757259 
L 278.772992 58.25574 
L 279.874409 58.489547 
L 280.975827 59.102337 
L 282.077243 58.944244 
L 283.17866 57.047362 
L 284.280077 57.662704 
L 285.381495 56.492609 
L 286.482911 56.59063 
L 287.584328 56.084975 
L 288.685746 56.665252 
L 289.787162 57.722757 
L 290.88858 59.637995 
L 291.989996 56.186394 
L 293.091413 69.42131 
L 294.192831 16.638366 
L 295.294247 51.254463 
L 296.395664 60.705151 
L 297.497082 56.342003 
L 298.598498 55.204965 
L 299.699915 59.32425 
L 301.902749 56.013677 
L 303.004166 58.48206 
L 301.902749 58.239269 
L 300.801333 58.248989 
L 299.699915 56.108257 
L 298.598498 57.26687 
L 297.497082 58.617394 
L 296.395664 60.310908 
L 295.294247 57.556879 
L 294.192831 56.872102 
L 293.091413 58.615916 
L 290.88858 58.256227 
L 289.787162 58.574316 
L 288.685746 57.999694 
L 287.584328 58.661267 
L 286.482911 59.52574 
L 285.381495 58.842714 
L 284.280077 59.665087 
L 283.17866 58.978391 
L 282.077243 60.1792 
L 280.975827 57.929675 
L 279.874409 58.555061 
L 278.772992 60.220594 
L 277.671575 57.115454 
L 276.570158 59.069385 
L 275.468741 59.594115 
L 274.367324 59.415694 
L 273.265907 58.518907 
L 272.16449 58.552681 
L 269.961657 57.049577 
L 268.86024 58.028996 
L 267.758822 57.990988 
L 266.657406 56.288316 
L 265.555989 56.457351 
L 264.454571 56.136711 
L 263.353155 16.638366 
L 262.251737 57.736558 
L 261.150321 57.237262 
L 260.048904 58.009958 
L 258.947486 59.80312 
L 257.84607 57.819719 
L 256.744653 56.886365 
L 255.643235 56.985458 
L 254.541819 57.927514 
L 253.440402 58.673567 
L 252.338984 57.118109 
L 251.237568 58.389998 
L 250.136151 58.702967 
L 251.237568 59.201778 
L 252.338984 58.123543 
L 253.440402 58.304039 
L 254.541819 59.068292 
L 255.643235 57.952491 
L 257.84607 58.307408 
L 258.947486 58.709596 
L 261.150321 58.808042 
L 262.251737 59.211226 
L 263.353155 60.268804 
L 264.454571 59.241966 
L 265.555989 58.425472 
L 266.657406 57.908623 
L 267.758822 57.91666 
L 269.961657 58.293233 
L 271.063074 58.902035 
L 272.16449 58.111113 
L 273.265907 59.540036 
L 275.468741 59.547169 
L 275.468741 59.547169 
" clip-path="url(#p16cd3c3dae)" style="fill: none; stroke: #1f77b4; stroke-width: 0.5; stroke-linecap: square"/>
   </g>
   <g id="patch_13">
    <path d="M 247.49275 72.060458 
L 247.49275 13.999219 
" style="fill: none; stroke: #000000; stroke-width: 0.5; stroke-linejoin: miter; stroke-linecap: square"/>
   </g>
   <g id="patch_14">
    <path d="M 305.647567 72.060458 
L 305.647567 13.999219 
" style="fill: none; stroke: #000000; stroke-width: 0.5; stroke-linejoin: miter; stroke-linecap: square"/>
   </g>
   <g id="patch_15">
    <path d="M 247.49275 72.060458 
L 305.647567 72.060458 
" style="fill: none; stroke: #000000; stroke-width: 0.5; stroke-linejoin: miter; stroke-linecap: square"/>
   </g>
   <g id="patch_16">
    <path d="M 247.49275 13.999219 
L 305.647567 13.999219 
" style="fill: none; stroke: #000000; stroke-width: 0.5; stroke-linejoin: miter; stroke-linecap: square"/>
   </g>
   <g id="text_28">
    <path d="M 258.052223 20.677155 
L 258.052223 21.818405 
Q 257.767223 21.623405 257.479723 21.529655 
Q 257.192223 21.435905 256.883473 21.435905 
Q 256.298473 21.435905 255.972223 21.777155 
Q 255.645973 22.118405 255.645973 22.732155 
Q 255.645973 23.345905 255.972223 23.688405 
Q 256.298473 24.029655 256.883473 24.029655 
Q 257.212223 24.029655 257.507223 23.932155 
Q 257.802223 23.833405 258.052223 23.642155 
L 258.052223 24.787155 
Q 257.723473 24.908405 257.385973 24.968405 
Q 257.048473 25.029655 256.708473 25.029655 
Q 255.524723 25.029655 254.855973 24.422155 
Q 254.188473 23.814655 254.188473 22.732155 
Q 254.188473 21.649655 254.855973 21.043405 
Q 255.524723 20.435905 256.708473 20.435905 
Q 257.052223 20.435905 257.385973 20.495905 
Q 257.719723 20.555905 258.052223 20.677155 
z
"/>
    <path d="M 258.052223 20.677155 
L 258.052223 21.818405 
Q 257.767223 21.623405 257.479723 21.529655 
Q 257.192223 21.435905 256.883473 21.435905 
Q 256.298473 21.435905 255.972223 21.777155 
Q 255.645973 22.118405 255.645973 22.732155 
Q 255.645973 23.345905 255.972223 23.688405 
Q 256.298473 24.029655 256.883473 24.029655 
Q 257.212223 24.029655 257.507223 23.932155 
Q 257.802223 23.833405 258.052223 23.642155 
L 258.052223 24.787155 
Q 257.723473 24.908405 257.385973 24.968405 
Q 257.048473 25.029655 256.708473 25.029655 
Q 255.524723 25.029655 254.855973 24.422155 
Q 254.188473 23.814655 254.188473 22.732155 
Q 254.188473 21.649655 254.855973 21.043405 
Q 255.524723 20.435905 256.708473 20.435905 
Q 257.052223 20.435905 257.385973 20.495905 
Q 257.719723 20.555905 258.052223 20.677155 
z
"/>
   </g>
  </g>
  <g id="axes_4">
   <g id="patch_17">
    <path d="M 339.044703 72.060458 
L 397.19952 72.060458 
L 397.19952 13.999219 
L 339.044703 13.999219 
z
" style="fill: #ffffff"/>
   </g>
   <g id="matplotlib.axis_7">
    <g id="xtick_10">
     <g id="line2d_46">
      <g>
       <use xlink:href="#mc3073d36a1" x="351.600857" y="72.060458" style="stroke: #000000; stroke-width: 0.8"/>
      </g>
     </g>
     <g id="line2d_47">
      <g>
       <use xlink:href="#m8ede2d0098" x="351.600857" y="13.999219" style="stroke: #000000; stroke-width: 0.8"/>
      </g>
     </g>
     <g id="text_29">
      <!-- −10 -->
      <g transform="translate(346.324685 79.359676) scale(0.05 -0.05)">
       <use xlink:href="#DejaVuSans-2212"/>
       <use xlink:href="#DejaVuSans-31" x="83.789062"/>
       <use xlink:href="#DejaVuSans-30" x="147.412109"/>
      </g>
     </g>
    </g>
    <g id="xtick_11">
     <g id="line2d_48">
      <g>
       <use xlink:href="#mc3073d36a1" x="368.122112" y="72.060458" style="stroke: #000000; stroke-width: 0.8"/>
      </g>
     </g>
     <g id="line2d_49">
      <g>
       <use xlink:href="#m8ede2d0098" x="368.122112" y="13.999219" style="stroke: #000000; stroke-width: 0.8"/>
      </g>
     </g>
     <g id="text_30">
      <!-- 0 -->
      <g transform="translate(366.531487 79.359676) scale(0.05 -0.05)">
       <use xlink:href="#DejaVuSans-30"/>
      </g>
     </g>
    </g>
    <g id="xtick_12">
     <g id="line2d_50">
      <g>
       <use xlink:href="#mc3073d36a1" x="384.643366" y="72.060458" style="stroke: #000000; stroke-width: 0.8"/>
      </g>
     </g>
     <g id="line2d_51">
      <g>
       <use xlink:href="#m8ede2d0098" x="384.643366" y="13.999219" style="stroke: #000000; stroke-width: 0.8"/>
      </g>
     </g>
     <g id="text_31">
      <!-- 10 -->
      <g transform="translate(381.462116 79.359676) scale(0.05 -0.05)">
       <use xlink:href="#DejaVuSans-31"/>
       <use xlink:href="#DejaVuSans-30" x="63.623047"/>
      </g>
     </g>
    </g>
   </g>
   <g id="matplotlib.axis_8">
    <g id="ytick_13">
     <g id="line2d_52">
      <g>
       <use xlink:href="#mdb9bc6ac3a" x="339.044703" y="59.5054" style="stroke: #000000; stroke-width: 0.8"/>
      </g>
     </g>
     <g id="line2d_53">
      <g>
       <use xlink:href="#me4507d819e" x="397.19952" y="59.5054" style="stroke: #000000; stroke-width: 0.8"/>
      </g>
     </g>
     <g id="text_32">
      <!-- −2 -->
      <g transform="translate(328.173609 61.405009) scale(0.05 -0.05)">
       <use xlink:href="#DejaVuSans-2212"/>
       <use xlink:href="#DejaVuSans-32" x="83.789062"/>
      </g>
     </g>
    </g>
    <g id="ytick_14">
     <g id="line2d_54">
      <g>
       <use xlink:href="#mdb9bc6ac3a" x="339.044703" y="37.934965" style="stroke: #000000; stroke-width: 0.8"/>
      </g>
     </g>
     <g id="line2d_55">
      <g>
       <use xlink:href="#me4507d819e" x="397.19952" y="37.934965" style="stroke: #000000; stroke-width: 0.8"/>
      </g>
     </g>
     <g id="text_33">
      <!-- 0 -->
      <g transform="translate(332.363453 39.834574) scale(0.05 -0.05)">
       <use xlink:href="#DejaVuSans-30"/>
      </g>
     </g>
    </g>
    <g id="ytick_15">
     <g id="line2d_56">
      <g>
       <use xlink:href="#mdb9bc6ac3a" x="339.044703" y="16.36453" style="stroke: #000000; stroke-width: 0.8"/>
      </g>
     </g>
     <g id="line2d_57">
      <g>
       <use xlink:href="#me4507d819e" x="397.19952" y="16.36453" style="stroke: #000000; stroke-width: 0.8"/>
      </g>
     </g>
     <g id="text_34">
      <!-- 2 -->
      <g transform="translate(332.363453 18.26414) scale(0.05 -0.05)">
       <use xlink:href="#DejaVuSans-32"/>
      </g>
     </g>
    </g>
    <g id="text_35">
     <!-- Phase  -->
     <g transform="translate(316.207109 52.940619) rotate(-90) scale(0.06 -0.06)">
      <defs>
       <path id="DejaVuSans-50" d="M 1259 4147 
L 1259 2394 
L 2053 2394 
Q 2494 2394 2734 2622 
Q 2975 2850 2975 3272 
Q 2975 3691 2734 3919 
Q 2494 4147 2053 4147 
L 1259 4147 
z
M 628 4666 
L 2053 4666 
Q 2838 4666 3239 4311 
Q 3641 3956 3641 3272 
Q 3641 2581 3239 2228 
Q 2838 1875 2053 1875 
L 1259 1875 
L 1259 0 
L 628 0 
L 628 4666 
z
" transform="scale(0.015625)"/>
       <path id="DejaVuSans-68" d="M 3513 2113 
L 3513 0 
L 2938 0 
L 2938 2094 
Q 2938 2591 2744 2837 
Q 2550 3084 2163 3084 
Q 1697 3084 1428 2787 
Q 1159 2491 1159 1978 
L 1159 0 
L 581 0 
L 581 4863 
L 1159 4863 
L 1159 2956 
Q 1366 3272 1645 3428 
Q 1925 3584 2291 3584 
Q 2894 3584 3203 3211 
Q 3513 2838 3513 2113 
z
" transform="scale(0.015625)"/>
      </defs>
      <use xlink:href="#DejaVuSans-50"/>
      <use xlink:href="#DejaVuSans-68" x="60.302734"/>
      <use xlink:href="#DejaVuSans-61" x="123.681641"/>
      <use xlink:href="#DejaVuSans-73" x="184.960938"/>
      <use xlink:href="#DejaVuSans-65" x="237.060547"/>
      <use xlink:href="#DejaVuSans-20" x="298.583984"/>
     </g>
     <!--  (rad) -->
     <g transform="translate(322.925797 51.300463) rotate(-90) scale(0.06 -0.06)">
      <use xlink:href="#DejaVuSans-20"/>
      <use xlink:href="#DejaVuSans-28" x="31.787109"/>
      <use xlink:href="#DejaVuSans-72" x="70.800781"/>
      <use xlink:href="#DejaVuSans-61" x="111.914062"/>
      <use xlink:href="#DejaVuSans-64" x="173.193359"/>
      <use xlink:href="#DejaVuSans-29" x="236.669922"/>
     </g>
    </g>
   </g>
   <g id="line2d_58">
    <path d="M 368.122112 22.077748 
L 369.223529 21.393711 
L 370.324946 19.79601 
L 371.426363 19.835856 
L 372.52778 19.432342 
L 373.629196 19.98294 
L 374.730613 19.940116 
L 375.83203 20.28513 
L 376.933448 19.661649 
L 378.034864 20.653025 
L 379.136281 20.02401 
L 380.237699 19.726767 
L 381.339115 19.654459 
L 382.440533 19.965521 
L 383.541949 20.935303 
L 384.643366 19.829767 
L 385.744784 22.532911 
L 386.8462 67.573767 
L 387.947617 53.262902 
L 389.049035 56.122781 
L 390.150451 56.417406 
L 391.251868 53.928287 
L 392.353286 53.464497 
L 393.454702 53.261804 
L 394.556119 53.679232 
L 393.454702 53.722177 
L 392.353286 53.2848 
L 391.251868 53.24717 
L 390.150451 53.645667 
L 389.049035 54.999417 
L 387.947617 54.386075 
L 386.8462 53.566746 
L 385.744784 53.960015 
L 382.440533 53.592517 
L 381.339115 53.355382 
L 380.237699 54.06589 
L 379.136281 53.757016 
L 378.034864 54.051225 
L 376.933448 53.398608 
L 375.83203 53.920799 
L 374.730613 54.219233 
L 373.629196 54.208968 
L 372.52778 53.897446 
L 371.426363 54.214432 
L 370.324946 53.698903 
L 369.223529 54.96783 
L 368.122112 55.718403 
L 367.020695 55.069077 
L 365.919278 53.676056 
L 364.817861 53.754926 
L 363.716443 53.62199 
L 362.615027 53.838555 
L 361.51361 53.643785 
L 360.412193 53.662623 
L 359.310775 53.28705 
L 358.209359 54.660047 
L 357.107942 55.255701 
L 356.006524 52.880713 
L 354.905108 22.543804 
L 353.80369 20.664833 
L 352.702274 20.237441 
L 351.600857 19.395746 
L 350.499439 20.329379 
L 349.398023 19.727379 
L 348.296606 20.898028 
L 347.195188 20.993067 
L 346.093772 20.026664 
L 343.890937 20.653061 
L 341.688104 20.265824 
L 342.789521 20.224579 
L 343.890937 19.963562 
L 344.992355 19.96349 
L 346.093772 20.779738 
L 347.195188 21.133269 
L 348.296606 20.357613 
L 349.398023 19.94189 
L 351.600857 20.24731 
L 352.702274 20.358775 
L 353.80369 19.609892 
L 354.905108 20.665172 
L 356.006524 20.443533 
L 358.209359 20.943845 
L 359.310775 20.568061 
L 360.412193 19.999397 
L 361.51361 20.389488 
L 362.615027 20.055608 
L 363.716443 19.905258 
L 364.817861 20.375921 
L 365.919278 20.182665 
L 367.020695 21.251656 
L 368.122112 21.920487 
L 369.223529 21.569646 
L 370.324946 19.905824 
L 372.52778 20.241838 
L 374.730613 20.07081 
L 375.83203 20.368834 
L 376.933448 20.145452 
L 378.034864 20.812318 
L 379.136281 20.393258 
L 380.237699 20.452544 
L 381.339115 21.036806 
L 382.440533 20.766917 
L 383.541949 18.967192 
L 384.643366 18.556129 
L 385.744784 69.42131 
L 386.8462 53.778765 
L 387.947617 52.079499 
L 389.049035 54.463011 
L 390.150451 54.998471 
L 391.251868 53.110246 
L 392.353286 53.497249 
L 393.454702 53.654693 
L 394.556119 53.946973 
L 393.454702 53.151527 
L 392.353286 53.104872 
L 391.251868 53.573033 
L 390.150451 54.847952 
L 389.049035 54.344645 
L 387.947617 54.45837 
L 386.8462 53.803685 
L 385.744784 54.242026 
L 384.643366 54.174048 
L 383.541949 53.751907 
L 381.339115 54.077184 
L 380.237699 53.5307 
L 379.136281 54.52751 
L 378.034864 54.772875 
L 376.933448 53.48748 
L 375.83203 53.709651 
L 374.730613 53.698713 
L 373.629196 54.05095 
L 372.52778 53.529628 
L 371.426363 53.698844 
L 370.324946 53.983819 
L 369.223529 54.673218 
L 368.122112 55.704661 
L 367.020695 55.155769 
L 365.919278 53.709847 
L 364.817861 53.34458 
L 363.716443 54.028469 
L 362.615027 53.758919 
L 361.51361 53.793281 
L 359.310775 52.883991 
L 358.209359 54.45188 
L 357.107942 55.126694 
L 356.006524 55.49221 
L 354.905108 16.638366 
L 353.80369 20.555158 
L 352.702274 20.317921 
L 351.600857 19.530081 
L 350.499439 20.151377 
L 349.398023 19.729164 
L 348.296606 21.040905 
L 347.195188 21.021331 
L 346.093772 20.778725 
L 344.992355 20.196247 
L 343.890937 20.067302 
L 342.789521 20.20588 
L 341.688104 19.747688 
L 342.789521 20.233332 
L 343.890937 20.500336 
L 344.992355 20.20552 
L 346.093772 20.213316 
L 347.195188 20.994167 
L 348.296606 20.869912 
L 349.398023 20.204162 
L 350.499439 20.383491 
L 351.600857 20.182732 
L 352.702274 20.135825 
L 353.80369 20.603798 
L 354.905108 20.204661 
L 356.006524 20.449607 
L 357.107942 20.409102 
L 358.209359 20.618486 
L 359.310775 20.58603 
L 360.412193 20.161066 
L 361.51361 20.744629 
L 363.716443 19.648 
L 364.817861 20.421872 
L 365.919278 20.243319 
L 367.020695 21.760227 
L 367.020695 21.760227 
" clip-path="url(#pe291b87c32)" style="fill: none; stroke: #1f77b4; stroke-width: 0.5; stroke-linecap: square"/>
   </g>
   <g id="patch_18">
    <path d="M 339.044703 72.060458 
L 339.044703 13.999219 
" style="fill: none; stroke: #000000; stroke-width: 0.5; stroke-linejoin: miter; stroke-linecap: square"/>
   </g>
   <g id="patch_19">
    <path d="M 397.19952 72.060458 
L 397.19952 13.999219 
" style="fill: none; stroke: #000000; stroke-width: 0.5; stroke-linejoin: miter; stroke-linecap: square"/>
   </g>
   <g id="patch_20">
    <path d="M 339.044703 72.060458 
L 397.19952 72.060458 
" style="fill: none; stroke: #000000; stroke-width: 0.5; stroke-linejoin: miter; stroke-linecap: square"/>
   </g>
   <g id="patch_21">
    <path d="M 339.044703 13.999219 
L 397.19952 13.999219 
" style="fill: none; stroke: #000000; stroke-width: 0.5; stroke-linejoin: miter; stroke-linecap: square"/>
   </g>
   <g id="text_36">
    <path d="M 348.553551 21.180905 
L 348.553551 18.837155 
L 349.959801 18.837155 
L 349.959801 24.915905 
L 348.553551 24.915905 
L 348.553551 24.283405 
Q 348.264801 24.669655 347.916051 24.849655 
Q 347.568551 25.029655 347.112301 25.029655 
Q 346.303551 25.029655 345.783551 24.387155 
Q 345.264801 23.743405 345.264801 22.732155 
Q 345.264801 21.720905 345.783551 21.078405 
Q 346.303551 20.435905 347.112301 20.435905 
Q 347.564801 20.435905 347.914801 20.617155 
Q 348.264801 20.798405 348.553551 21.180905 
z
M 347.631051 24.013405 
Q 348.081051 24.013405 348.317301 23.685905 
Q 348.553551 23.357155 348.553551 22.732155 
Q 348.553551 22.107155 348.317301 21.779655 
Q 348.081051 21.450905 347.631051 21.450905 
Q 347.186051 21.450905 346.949801 21.779655 
Q 346.713551 22.107155 346.713551 22.732155 
Q 346.713551 23.357155 346.949801 23.685905 
Q 347.186051 24.013405 347.631051 24.013405 
z
"/>
    <path d="M 348.553551 21.180905 
L 348.553551 18.837155 
L 349.959801 18.837155 
L 349.959801 24.915905 
L 348.553551 24.915905 
L 348.553551 24.283405 
Q 348.264801 24.669655 347.916051 24.849655 
Q 347.568551 25.029655 347.112301 25.029655 
Q 346.303551 25.029655 345.783551 24.387155 
Q 345.264801 23.743405 345.264801 22.732155 
Q 345.264801 21.720905 345.783551 21.078405 
Q 346.303551 20.435905 347.112301 20.435905 
Q 347.564801 20.435905 347.914801 20.617155 
Q 348.264801 20.798405 348.553551 21.180905 
z
M 347.631051 24.013405 
Q 348.081051 24.013405 348.317301 23.685905 
Q 348.553551 23.357155 348.553551 22.732155 
Q 348.553551 22.107155 348.317301 21.779655 
Q 348.081051 21.450905 347.631051 21.450905 
Q 347.186051 21.450905 346.949801 21.779655 
Q 346.713551 22.107155 346.713551 22.732155 
Q 346.713551 23.357155 346.949801 23.685905 
Q 347.186051 24.013405 347.631051 24.013405 
z
"/>
   </g>
  </g>
 </g>
 <defs>
  <clipPath id="p41542e0e3b">
   <rect x="51.083375" y="13.999219" width="58.154817" height="58.061239"/>
  </clipPath>
  <clipPath id="pda02361574">
   <rect x="149.578297" y="13.999219" width="58.154817" height="58.061239"/>
  </clipPath>
  <clipPath id="p16cd3c3dae">
   <rect x="247.49275" y="13.999219" width="58.154817" height="58.061239"/>
  </clipPath>
  <clipPath id="pe291b87c32">
   <rect x="339.044703" y="13.999219" width="58.154817" height="58.061239"/>
  </clipPath>
 </defs>
</svg>
