<?xml version="1.0" encoding="utf-8" standalone="no"?>
<!DOCTYPE svg PUBLIC "-//W3C//DTD SVG 1.1//EN"
  "http://www.w3.org/Graphics/SVG/1.1/DTD/svg11.dtd">
<svg xmlns:xlink="http://www.w3.org/1999/xlink" width="404.39952pt" height="87.59952pt" viewBox="0 0 404.39952 87.59952" xmlns="http://www.w3.org/2000/svg" version="1.1">
 <metadata>
  <rdf:RDF xmlns:dc="http://purl.org/dc/elements/1.1/" xmlns:cc="http://creativecommons.org/ns#" xmlns:rdf="http://www.w3.org/1999/02/22-rdf-syntax-ns#">
   <cc:Work>
    <dc:type rdf:resource="http://purl.org/dc/dcmitype/StillImage"/>
    <dc:date>2023-04-17T13:16:30.911714</dc:date>
    <dc:format>image/svg+xml</dc:format>
    <dc:creator>
     <cc:Agent>
      <dc:title>Matplotlib v3.7.1, https://matplotlib.org/</dc:title>
     </cc:Agent>
    </dc:creator>
   </cc:Work>
  </rdf:RDF>
 </metadata>
 <defs>
  <style type="text/css">*{stroke-linejoin: round; stroke-linecap: butt}</style>
 </defs>
 <g id="figure_1">
  <g id="patch_1">
   <path d="M 0 87.59952 
L 404.39952 87.59952 
L 404.39952 -0 
L 0 -0 
z
" style="fill: #ffffff"/>
  </g>
  <g id="axes_1">
   <g id="patch_2">
    <path d="M 47.902125 72.060458 
L 106.852254 72.060458 
L 106.852254 13.999219 
L 47.902125 13.999219 
z
" style="fill: #ffffff"/>
   </g>
   <g id="matplotlib.axis_1">
    <g id="xtick_1">
     <g id="line2d_1">
      <defs>
       <path id="mfefa7f8f29" d="M 0 0 
L 0 -3.5 
" style="stroke: #000000; stroke-width: 0.8"/>
      </defs>
      <g>
       <use xlink:href="#mfefa7f8f29" x="60.629994" y="72.060458" style="stroke: #000000; stroke-width: 0.8"/>
      </g>
     </g>
     <g id="line2d_2">
      <defs>
       <path id="m54897a00b2" d="M 0 0 
L 0 3.5 
" style="stroke: #000000; stroke-width: 0.8"/>
      </defs>
      <g>
       <use xlink:href="#m54897a00b2" x="60.629994" y="13.999219" style="stroke: #000000; stroke-width: 0.8"/>
      </g>
     </g>
     <g id="text_1">
      <!-- −10 -->
      <g transform="translate(55.353822 79.359676) scale(0.05 -0.05)">
       <defs>
        <path id="DejaVuSans-2212" d="M 678 2272 
L 4684 2272 
L 4684 1741 
L 678 1741 
L 678 2272 
z
" transform="scale(0.015625)"/>
        <path id="DejaVuSans-31" d="M 794 531 
L 1825 531 
L 1825 4091 
L 703 3866 
L 703 4441 
L 1819 4666 
L 2450 4666 
L 2450 531 
L 3481 531 
L 3481 0 
L 794 0 
L 794 531 
z
" transform="scale(0.015625)"/>
        <path id="DejaVuSans-30" d="M 2034 4250 
Q 1547 4250 1301 3770 
Q 1056 3291 1056 2328 
Q 1056 1369 1301 889 
Q 1547 409 2034 409 
Q 2525 409 2770 889 
Q 3016 1369 3016 2328 
Q 3016 3291 2770 3770 
Q 2525 4250 2034 4250 
z
M 2034 4750 
Q 2819 4750 3233 4129 
Q 3647 3509 3647 2328 
Q 3647 1150 3233 529 
Q 2819 -91 2034 -91 
Q 1250 -91 836 529 
Q 422 1150 422 2328 
Q 422 3509 836 4129 
Q 1250 4750 2034 4750 
z
" transform="scale(0.015625)"/>
       </defs>
       <use xlink:href="#DejaVuSans-2212"/>
       <use xlink:href="#DejaVuSans-31" x="83.789062"/>
       <use xlink:href="#DejaVuSans-30" x="147.412109"/>
      </g>
     </g>
    </g>
    <g id="xtick_2">
     <g id="line2d_3">
      <g>
       <use xlink:href="#mfefa7f8f29" x="77.37719" y="72.060458" style="stroke: #000000; stroke-width: 0.8"/>
      </g>
     </g>
     <g id="line2d_4">
      <g>
       <use xlink:href="#m54897a00b2" x="77.37719" y="13.999219" style="stroke: #000000; stroke-width: 0.8"/>
      </g>
     </g>
     <g id="text_2">
      <!-- 0 -->
      <g transform="translate(75.786565 79.359676) scale(0.05 -0.05)">
       <use xlink:href="#DejaVuSans-30"/>
      </g>
     </g>
    </g>
    <g id="xtick_3">
     <g id="line2d_5">
      <g>
       <use xlink:href="#mfefa7f8f29" x="94.124386" y="72.060458" style="stroke: #000000; stroke-width: 0.8"/>
      </g>
     </g>
     <g id="line2d_6">
      <g>
       <use xlink:href="#m54897a00b2" x="94.124386" y="13.999219" style="stroke: #000000; stroke-width: 0.8"/>
      </g>
     </g>
     <g id="text_3">
      <!-- 10 -->
      <g transform="translate(90.943136 79.359676) scale(0.05 -0.05)">
       <use xlink:href="#DejaVuSans-31"/>
       <use xlink:href="#DejaVuSans-30" x="63.623047"/>
      </g>
     </g>
    </g>
   </g>
   <g id="matplotlib.axis_2">
    <g id="ytick_1">
     <g id="line2d_7">
      <defs>
       <path id="mcd5479254b" d="M 0 0 
L 3.5 0 
" style="stroke: #000000; stroke-width: 0.8"/>
      </defs>
      <g>
       <use xlink:href="#mcd5479254b" x="47.902125" y="70.816212" style="stroke: #000000; stroke-width: 0.8"/>
      </g>
     </g>
     <g id="line2d_8">
      <defs>
       <path id="m45c71df0aa" d="M 0 0 
L -3.5 0 
" style="stroke: #000000; stroke-width: 0.8"/>
      </defs>
      <g>
       <use xlink:href="#m45c71df0aa" x="106.852254" y="70.816212" style="stroke: #000000; stroke-width: 0.8"/>
      </g>
     </g>
     <g id="text_4">
      <!-- 0.00000 -->
      <g transform="translate(23.725563 72.715821) scale(0.05 -0.05)">
       <defs>
        <path id="DejaVuSans-2e" d="M 684 794 
L 1344 794 
L 1344 0 
L 684 0 
L 684 794 
z
" transform="scale(0.015625)"/>
       </defs>
       <use xlink:href="#DejaVuSans-30"/>
       <use xlink:href="#DejaVuSans-2e" x="63.623047"/>
       <use xlink:href="#DejaVuSans-30" x="95.410156"/>
       <use xlink:href="#DejaVuSans-30" x="159.033203"/>
       <use xlink:href="#DejaVuSans-30" x="222.65625"/>
       <use xlink:href="#DejaVuSans-30" x="286.279297"/>
       <use xlink:href="#DejaVuSans-30" x="349.902344"/>
      </g>
     </g>
    </g>
    <g id="ytick_2">
     <g id="line2d_9">
      <g>
       <use xlink:href="#mcd5479254b" x="47.902125" y="48.641493" style="stroke: #000000; stroke-width: 0.8"/>
      </g>
     </g>
     <g id="line2d_10">
      <g>
       <use xlink:href="#m45c71df0aa" x="106.852254" y="48.641493" style="stroke: #000000; stroke-width: 0.8"/>
      </g>
     </g>
     <g id="text_5">
      <!-- 0.00005 -->
      <g transform="translate(23.725563 50.541102) scale(0.05 -0.05)">
       <defs>
        <path id="DejaVuSans-35" d="M 691 4666 
L 3169 4666 
L 3169 4134 
L 1269 4134 
L 1269 2991 
Q 1406 3038 1543 3061 
Q 1681 3084 1819 3084 
Q 2600 3084 3056 2656 
Q 3513 2228 3513 1497 
Q 3513 744 3044 326 
Q 2575 -91 1722 -91 
Q 1428 -91 1123 -41 
Q 819 9 494 109 
L 494 744 
Q 775 591 1075 516 
Q 1375 441 1709 441 
Q 2250 441 2565 725 
Q 2881 1009 2881 1497 
Q 2881 1984 2565 2268 
Q 2250 2553 1709 2553 
Q 1456 2553 1204 2497 
Q 953 2441 691 2322 
L 691 4666 
z
" transform="scale(0.015625)"/>
       </defs>
       <use xlink:href="#DejaVuSans-30"/>
       <use xlink:href="#DejaVuSans-2e" x="63.623047"/>
       <use xlink:href="#DejaVuSans-30" x="95.410156"/>
       <use xlink:href="#DejaVuSans-30" x="159.033203"/>
       <use xlink:href="#DejaVuSans-30" x="222.65625"/>
       <use xlink:href="#DejaVuSans-30" x="286.279297"/>
       <use xlink:href="#DejaVuSans-35" x="349.902344"/>
      </g>
     </g>
    </g>
    <g id="ytick_3">
     <g id="line2d_11">
      <g>
       <use xlink:href="#mcd5479254b" x="47.902125" y="26.466774" style="stroke: #000000; stroke-width: 0.8"/>
      </g>
     </g>
     <g id="line2d_12">
      <g>
       <use xlink:href="#m45c71df0aa" x="106.852254" y="26.466774" style="stroke: #000000; stroke-width: 0.8"/>
      </g>
     </g>
     <g id="text_6">
      <!-- 0.00010 -->
      <g transform="translate(23.725563 28.366383) scale(0.05 -0.05)">
       <use xlink:href="#DejaVuSans-30"/>
       <use xlink:href="#DejaVuSans-2e" x="63.623047"/>
       <use xlink:href="#DejaVuSans-30" x="95.410156"/>
       <use xlink:href="#DejaVuSans-30" x="159.033203"/>
       <use xlink:href="#DejaVuSans-30" x="222.65625"/>
       <use xlink:href="#DejaVuSans-31" x="286.279297"/>
       <use xlink:href="#DejaVuSans-30" x="349.902344"/>
      </g>
     </g>
    </g>
    <g id="text_7">
     <!-- Amplitude  -->
     <g transform="translate(11.759063 59.356869) rotate(-90) scale(0.06 -0.06)">
      <defs>
       <path id="DejaVuSans-41" d="M 2188 4044 
L 1331 1722 
L 3047 1722 
L 2188 4044 
z
M 1831 4666 
L 2547 4666 
L 4325 0 
L 3669 0 
L 3244 1197 
L 1141 1197 
L 716 0 
L 50 0 
L 1831 4666 
z
" transform="scale(0.015625)"/>
       <path id="DejaVuSans-6d" d="M 3328 2828 
Q 3544 3216 3844 3400 
Q 4144 3584 4550 3584 
Q 5097 3584 5394 3201 
Q 5691 2819 5691 2113 
L 5691 0 
L 5113 0 
L 5113 2094 
Q 5113 2597 4934 2840 
Q 4756 3084 4391 3084 
Q 3944 3084 3684 2787 
Q 3425 2491 3425 1978 
L 3425 0 
L 2847 0 
L 2847 2094 
Q 2847 2600 2669 2842 
Q 2491 3084 2119 3084 
Q 1678 3084 1418 2786 
Q 1159 2488 1159 1978 
L 1159 0 
L 581 0 
L 581 3500 
L 1159 3500 
L 1159 2956 
Q 1356 3278 1631 3431 
Q 1906 3584 2284 3584 
Q 2666 3584 2933 3390 
Q 3200 3197 3328 2828 
z
" transform="scale(0.015625)"/>
       <path id="DejaVuSans-70" d="M 1159 525 
L 1159 -1331 
L 581 -1331 
L 581 3500 
L 1159 3500 
L 1159 2969 
Q 1341 3281 1617 3432 
Q 1894 3584 2278 3584 
Q 2916 3584 3314 3078 
Q 3713 2572 3713 1747 
Q 3713 922 3314 415 
Q 2916 -91 2278 -91 
Q 1894 -91 1617 61 
Q 1341 213 1159 525 
z
M 3116 1747 
Q 3116 2381 2855 2742 
Q 2594 3103 2138 3103 
Q 1681 3103 1420 2742 
Q 1159 2381 1159 1747 
Q 1159 1113 1420 752 
Q 1681 391 2138 391 
Q 2594 391 2855 752 
Q 3116 1113 3116 1747 
z
" transform="scale(0.015625)"/>
       <path id="DejaVuSans-6c" d="M 603 4863 
L 1178 4863 
L 1178 0 
L 603 0 
L 603 4863 
z
" transform="scale(0.015625)"/>
       <path id="DejaVuSans-69" d="M 603 3500 
L 1178 3500 
L 1178 0 
L 603 0 
L 603 3500 
z
M 603 4863 
L 1178 4863 
L 1178 4134 
L 603 4134 
L 603 4863 
z
" transform="scale(0.015625)"/>
       <path id="DejaVuSans-74" d="M 1172 4494 
L 1172 3500 
L 2356 3500 
L 2356 3053 
L 1172 3053 
L 1172 1153 
Q 1172 725 1289 603 
Q 1406 481 1766 481 
L 2356 481 
L 2356 0 
L 1766 0 
Q 1100 0 847 248 
Q 594 497 594 1153 
L 594 3053 
L 172 3053 
L 172 3500 
L 594 3500 
L 594 4494 
L 1172 4494 
z
" transform="scale(0.015625)"/>
       <path id="DejaVuSans-75" d="M 544 1381 
L 544 3500 
L 1119 3500 
L 1119 1403 
Q 1119 906 1312 657 
Q 1506 409 1894 409 
Q 2359 409 2629 706 
Q 2900 1003 2900 1516 
L 2900 3500 
L 3475 3500 
L 3475 0 
L 2900 0 
L 2900 538 
Q 2691 219 2414 64 
Q 2138 -91 1772 -91 
Q 1169 -91 856 284 
Q 544 659 544 1381 
z
M 1991 3584 
L 1991 3584 
z
" transform="scale(0.015625)"/>
       <path id="DejaVuSans-64" d="M 2906 2969 
L 2906 4863 
L 3481 4863 
L 3481 0 
L 2906 0 
L 2906 525 
Q 2725 213 2448 61 
Q 2172 -91 1784 -91 
Q 1150 -91 751 415 
Q 353 922 353 1747 
Q 353 2572 751 3078 
Q 1150 3584 1784 3584 
Q 2172 3584 2448 3432 
Q 2725 3281 2906 2969 
z
M 947 1747 
Q 947 1113 1208 752 
Q 1469 391 1925 391 
Q 2381 391 2643 752 
Q 2906 1113 2906 1747 
Q 2906 2381 2643 2742 
Q 2381 3103 1925 3103 
Q 1469 3103 1208 2742 
Q 947 2381 947 1747 
z
" transform="scale(0.015625)"/>
       <path id="DejaVuSans-65" d="M 3597 1894 
L 3597 1613 
L 953 1613 
Q 991 1019 1311 708 
Q 1631 397 2203 397 
Q 2534 397 2845 478 
Q 3156 559 3463 722 
L 3463 178 
Q 3153 47 2828 -22 
Q 2503 -91 2169 -91 
Q 1331 -91 842 396 
Q 353 884 353 1716 
Q 353 2575 817 3079 
Q 1281 3584 2069 3584 
Q 2775 3584 3186 3129 
Q 3597 2675 3597 1894 
z
M 3022 2063 
Q 3016 2534 2758 2815 
Q 2500 3097 2075 3097 
Q 1594 3097 1305 2825 
Q 1016 2553 972 2059 
L 3022 2063 
z
" transform="scale(0.015625)"/>
       <path id="DejaVuSans-20" transform="scale(0.015625)"/>
      </defs>
      <use xlink:href="#DejaVuSans-41"/>
      <use xlink:href="#DejaVuSans-6d" x="68.408203"/>
      <use xlink:href="#DejaVuSans-70" x="165.820312"/>
      <use xlink:href="#DejaVuSans-6c" x="229.296875"/>
      <use xlink:href="#DejaVuSans-69" x="257.080078"/>
      <use xlink:href="#DejaVuSans-74" x="284.863281"/>
      <use xlink:href="#DejaVuSans-75" x="324.072266"/>
      <use xlink:href="#DejaVuSans-64" x="387.451172"/>
      <use xlink:href="#DejaVuSans-65" x="450.927734"/>
      <use xlink:href="#DejaVuSans-20" x="512.451172"/>
     </g>
     <!--  (Arb. U.) -->
     <g transform="translate(18.47775 56.570151) rotate(-90) scale(0.06 -0.06)">
      <defs>
       <path id="DejaVuSans-28" d="M 1984 4856 
Q 1566 4138 1362 3434 
Q 1159 2731 1159 2009 
Q 1159 1288 1364 580 
Q 1569 -128 1984 -844 
L 1484 -844 
Q 1016 -109 783 600 
Q 550 1309 550 2009 
Q 550 2706 781 3412 
Q 1013 4119 1484 4856 
L 1984 4856 
z
" transform="scale(0.015625)"/>
       <path id="DejaVuSans-72" d="M 2631 2963 
Q 2534 3019 2420 3045 
Q 2306 3072 2169 3072 
Q 1681 3072 1420 2755 
Q 1159 2438 1159 1844 
L 1159 0 
L 581 0 
L 581 3500 
L 1159 3500 
L 1159 2956 
Q 1341 3275 1631 3429 
Q 1922 3584 2338 3584 
Q 2397 3584 2469 3576 
Q 2541 3569 2628 3553 
L 2631 2963 
z
" transform="scale(0.015625)"/>
       <path id="DejaVuSans-62" d="M 3116 1747 
Q 3116 2381 2855 2742 
Q 2594 3103 2138 3103 
Q 1681 3103 1420 2742 
Q 1159 2381 1159 1747 
Q 1159 1113 1420 752 
Q 1681 391 2138 391 
Q 2594 391 2855 752 
Q 3116 1113 3116 1747 
z
M 1159 2969 
Q 1341 3281 1617 3432 
Q 1894 3584 2278 3584 
Q 2916 3584 3314 3078 
Q 3713 2572 3713 1747 
Q 3713 922 3314 415 
Q 2916 -91 2278 -91 
Q 1894 -91 1617 61 
Q 1341 213 1159 525 
L 1159 0 
L 581 0 
L 581 4863 
L 1159 4863 
L 1159 2969 
z
" transform="scale(0.015625)"/>
       <path id="DejaVuSans-55" d="M 556 4666 
L 1191 4666 
L 1191 1831 
Q 1191 1081 1462 751 
Q 1734 422 2344 422 
Q 2950 422 3222 751 
Q 3494 1081 3494 1831 
L 3494 4666 
L 4128 4666 
L 4128 1753 
Q 4128 841 3676 375 
Q 3225 -91 2344 -91 
Q 1459 -91 1007 375 
Q 556 841 556 1753 
L 556 4666 
z
" transform="scale(0.015625)"/>
       <path id="DejaVuSans-29" d="M 513 4856 
L 1013 4856 
Q 1481 4119 1714 3412 
Q 1947 2706 1947 2009 
Q 1947 1309 1714 600 
Q 1481 -109 1013 -844 
L 513 -844 
Q 928 -128 1133 580 
Q 1338 1288 1338 2009 
Q 1338 2731 1133 3434 
Q 928 4138 513 4856 
z
" transform="scale(0.015625)"/>
      </defs>
      <use xlink:href="#DejaVuSans-20"/>
      <use xlink:href="#DejaVuSans-28" x="31.787109"/>
      <use xlink:href="#DejaVuSans-41" x="70.800781"/>
      <use xlink:href="#DejaVuSans-72" x="139.208984"/>
      <use xlink:href="#DejaVuSans-62" x="180.322266"/>
      <use xlink:href="#DejaVuSans-2e" x="243.798828"/>
      <use xlink:href="#DejaVuSans-20" x="275.585938"/>
      <use xlink:href="#DejaVuSans-55" x="307.373047"/>
      <use xlink:href="#DejaVuSans-2e" x="380.566406"/>
      <use xlink:href="#DejaVuSans-29" x="412.353516"/>
     </g>
    </g>
   </g>
   <g id="line2d_13">
    <path d="M 77.37719 31.246018 
L 78.493669 29.29388 
L 79.610149 31.378542 
L 80.726629 31.178874 
L 81.843109 35.002961 
L 82.959588 32.30779 
L 84.076068 34.954184 
L 85.192547 35.961858 
L 86.309028 37.604764 
L 87.425507 41.092872 
L 88.541987 45.980873 
L 89.658467 48.581895 
L 90.774946 55.615807 
L 91.891427 60.610993 
L 93.007905 69.200536 
L 94.124386 64.835582 
L 95.240866 58.627674 
L 96.357344 54.859054 
L 97.473825 49.630967 
L 98.590305 45.59582 
L 99.706784 43.314059 
L 100.823264 39.529049 
L 101.939744 36.310138 
L 103.056223 34.322687 
L 104.172703 33.968331 
L 103.056223 30.685583 
L 101.939744 30.291117 
L 100.823264 30.801746 
L 99.706784 28.967804 
L 97.473825 29.565951 
L 96.357344 28.558201 
L 95.240866 29.372499 
L 94.124386 28.397772 
L 93.007905 30.094605 
L 91.891427 30.131766 
L 90.774946 29.392173 
L 89.658467 30.221317 
L 88.541987 33.939086 
L 87.425507 33.898567 
L 86.309028 31.382895 
L 85.192547 30.198487 
L 84.076068 36.144 
L 82.959588 34.680154 
L 81.843109 35.205146 
L 80.726629 36.157304 
L 78.493669 34.927398 
L 77.37719 37.409863 
L 76.26071 36.854971 
L 75.14423 38.93549 
L 74.027751 38.136332 
L 72.911271 39.079078 
L 71.794791 40.460475 
L 70.678311 42.838935 
L 69.561832 48.38129 
L 68.445352 55.249436 
L 67.328872 60.111161 
L 66.212393 69.42131 
L 65.095912 63.210088 
L 63.979433 54.654833 
L 61.746474 39.510792 
L 60.629994 26.37765 
L 59.513514 19.155716 
L 58.397035 17.473838 
L 57.280555 19.663796 
L 56.164074 19.259559 
L 55.047596 19.555238 
L 53.931116 19.630982 
L 52.814635 21.346167 
L 50.581676 20.537435 
L 51.698157 19.381573 
L 52.814635 20.007074 
L 53.931116 19.449181 
L 55.047596 20.50044 
L 56.164074 22.487654 
L 57.280555 18.912108 
L 58.397035 21.96676 
L 59.513514 20.723563 
L 60.629994 22.25354 
L 62.862953 22.030274 
L 63.979433 22.863069 
L 65.095912 25.469096 
L 66.212393 23.38798 
L 67.328872 23.319406 
L 68.445352 24.494262 
L 69.561832 25.982032 
L 70.678311 27.986849 
L 71.794791 25.808302 
L 72.911271 25.829838 
L 74.027751 25.063333 
L 75.14423 27.075339 
L 76.26071 25.891315 
L 77.37719 28.451518 
L 78.493669 27.132306 
L 79.610149 27.721776 
L 80.726629 28.013232 
L 81.843109 29.759481 
L 82.959588 30.655212 
L 84.076068 32.046015 
L 85.192547 35.107656 
L 87.425507 42.312675 
L 88.541987 47.257212 
L 89.658467 56.393159 
L 90.774946 62.123517 
L 91.891427 69.341781 
L 93.007905 69.329141 
L 94.124386 60.919925 
L 96.357344 48.22894 
L 97.473825 48.122052 
L 98.590305 43.522607 
L 99.706784 39.407645 
L 100.823264 36.654897 
L 101.939744 36.467485 
L 103.056223 34.049119 
L 104.172703 30.683621 
L 103.056223 28.045697 
L 101.939744 28.754945 
L 100.823264 27.021344 
L 99.706784 28.788278 
L 98.590305 28.333628 
L 97.473825 26.661522 
L 96.357344 28.204029 
L 95.240866 27.832722 
L 94.124386 29.248013 
L 93.007905 27.972541 
L 91.891427 30.793118 
L 90.774946 28.533964 
L 89.658467 31.266709 
L 88.541987 31.653492 
L 87.425507 29.092941 
L 86.309028 32.808829 
L 85.192547 32.677735 
L 84.076068 31.930213 
L 82.959588 33.960893 
L 81.843109 33.653039 
L 80.726629 34.887763 
L 79.610149 33.670771 
L 78.493669 33.78584 
L 77.37719 35.256237 
L 76.26071 36.38925 
L 75.14423 35.031945 
L 74.027751 37.221015 
L 72.911271 38.216181 
L 71.794791 42.124011 
L 70.678311 42.904062 
L 69.561832 48.388215 
L 67.328872 61.062259 
L 66.212393 69.391124 
L 65.095912 62.940516 
L 63.979433 54.875793 
L 62.862953 48.386363 
L 61.746474 39.935419 
L 60.629994 27.347659 
L 59.513514 22.376263 
L 58.397035 18.115119 
L 57.280555 16.638366 
L 56.164074 17.26712 
L 55.047596 18.119714 
L 53.931116 17.429566 
L 52.814635 20.724409 
L 51.698157 19.864251 
L 50.581676 21.096425 
L 51.698157 21.807993 
L 52.814635 19.639814 
L 53.931116 20.061747 
L 55.047596 20.990039 
L 56.164074 21.4403 
L 57.280555 20.655767 
L 58.397035 19.31651 
L 59.513514 21.010094 
L 60.629994 21.544592 
L 61.746474 21.1673 
L 62.862953 22.550749 
L 63.979433 20.980072 
L 65.095912 22.578045 
L 66.212393 22.571197 
L 67.328872 22.937667 
L 68.445352 23.769132 
L 69.561832 26.471732 
L 70.678311 26.589986 
L 71.794791 25.762087 
L 72.911271 26.673313 
L 74.027751 27.03269 
L 75.14423 26.683868 
L 76.26071 27.986029 
L 76.26071 27.986029 
" clip-path="url(#p71536d9694)" style="fill: none; stroke: #1f77b4; stroke-width: 0.5; stroke-linecap: square"/>
   </g>
   <g id="patch_3">
    <path d="M 47.902125 72.060458 
L 47.902125 13.999219 
" style="fill: none; stroke: #000000; stroke-width: 0.5; stroke-linejoin: miter; stroke-linecap: square"/>
   </g>
   <g id="patch_4">
    <path d="M 106.852254 72.060458 
L 106.852254 13.999219 
" style="fill: none; stroke: #000000; stroke-width: 0.5; stroke-linejoin: miter; stroke-linecap: square"/>
   </g>
   <g id="patch_5">
    <path d="M 47.902125 72.060458 
L 106.852254 72.060458 
" style="fill: none; stroke: #000000; stroke-width: 0.5; stroke-linejoin: miter; stroke-linecap: square"/>
   </g>
   <g id="patch_6">
    <path d="M 47.902125 13.999219 
L 106.852254 13.999219 
" style="fill: none; stroke: #000000; stroke-width: 0.5; stroke-linejoin: miter; stroke-linecap: square"/>
   </g>
   <g id="text_8">
    <path d="M 56.677769 22.947155 
Q 56.240269 22.947155 56.019019 23.095905 
Q 55.799019 23.243405 55.799019 23.533405 
Q 55.799019 23.798405 55.976519 23.949655 
Q 56.155269 24.099655 56.471519 24.099655 
Q 56.865269 24.099655 57.135269 23.817155 
Q 57.405269 23.533405 57.405269 23.107155 
L 57.405269 22.947155 
L 56.677769 22.947155 
z
M 58.815269 22.419655 
L 58.815269 24.915905 
L 57.405269 24.915905 
L 57.405269 24.267155 
Q 57.124019 24.665905 56.771519 24.848405 
Q 56.420269 25.029655 55.916519 25.029655 
Q 55.236519 25.029655 54.812769 24.633405 
Q 54.389019 24.235905 54.389019 23.603405 
Q 54.389019 22.833405 54.917769 22.474655 
Q 55.447769 22.114655 56.580269 22.114655 
L 57.405269 22.114655 
L 57.405269 22.005905 
Q 57.405269 21.673405 57.142769 21.519655 
Q 56.881519 21.364655 56.326519 21.364655 
Q 55.877769 21.364655 55.490269 21.454655 
Q 55.104019 21.544655 54.771519 21.724655 
L 54.771519 20.658405 
Q 55.221519 20.548405 55.674019 20.492155 
Q 56.127769 20.435905 56.580269 20.435905 
Q 57.764019 20.435905 58.289019 20.902155 
Q 58.815269 21.368405 58.815269 22.419655 
z
"/>
    <path d="M 56.677769 22.947155 
Q 56.240269 22.947155 56.019019 23.095905 
Q 55.799019 23.243405 55.799019 23.533405 
Q 55.799019 23.798405 55.976519 23.949655 
Q 56.155269 24.099655 56.471519 24.099655 
Q 56.865269 24.099655 57.135269 23.817155 
Q 57.405269 23.533405 57.405269 23.107155 
L 57.405269 22.947155 
L 56.677769 22.947155 
z
M 58.815269 22.419655 
L 58.815269 24.915905 
L 57.405269 24.915905 
L 57.405269 24.267155 
Q 57.124019 24.665905 56.771519 24.848405 
Q 56.420269 25.029655 55.916519 25.029655 
Q 55.236519 25.029655 54.812769 24.633405 
Q 54.389019 24.235905 54.389019 23.603405 
Q 54.389019 22.833405 54.917769 22.474655 
Q 55.447769 22.114655 56.580269 22.114655 
L 57.405269 22.114655 
L 57.405269 22.005905 
Q 57.405269 21.673405 57.142769 21.519655 
Q 56.881519 21.364655 56.326519 21.364655 
Q 55.877769 21.364655 55.490269 21.454655 
Q 55.104019 21.544655 54.771519 21.724655 
L 54.771519 20.658405 
Q 55.221519 20.548405 55.674019 20.492155 
Q 56.127769 20.435905 56.580269 20.435905 
Q 57.764019 20.435905 58.289019 20.902155 
Q 58.815269 21.368405 58.815269 22.419655 
z
"/>
   </g>
  </g>
  <g id="axes_2">
   <g id="patch_7">
    <path d="M 147.192359 72.060458 
L 206.142489 72.060458 
L 206.142489 13.999219 
L 147.192359 13.999219 
z
" style="fill: #ffffff"/>
   </g>
   <g id="matplotlib.axis_3">
    <g id="xtick_4">
     <g id="line2d_14">
      <g>
       <use xlink:href="#mfefa7f8f29" x="159.920228" y="72.060458" style="stroke: #000000; stroke-width: 0.8"/>
      </g>
     </g>
     <g id="line2d_15">
      <g>
       <use xlink:href="#m54897a00b2" x="159.920228" y="13.999219" style="stroke: #000000; stroke-width: 0.8"/>
      </g>
     </g>
     <g id="text_9">
      <!-- −10 -->
      <g transform="translate(154.644056 79.359676) scale(0.05 -0.05)">
       <use xlink:href="#DejaVuSans-2212"/>
       <use xlink:href="#DejaVuSans-31" x="83.789062"/>
       <use xlink:href="#DejaVuSans-30" x="147.412109"/>
      </g>
     </g>
    </g>
    <g id="xtick_5">
     <g id="line2d_16">
      <g>
       <use xlink:href="#mfefa7f8f29" x="176.667424" y="72.060458" style="stroke: #000000; stroke-width: 0.8"/>
      </g>
     </g>
     <g id="line2d_17">
      <g>
       <use xlink:href="#m54897a00b2" x="176.667424" y="13.999219" style="stroke: #000000; stroke-width: 0.8"/>
      </g>
     </g>
     <g id="text_10">
      <!-- 0 -->
      <g transform="translate(175.076799 79.359676) scale(0.05 -0.05)">
       <use xlink:href="#DejaVuSans-30"/>
      </g>
     </g>
    </g>
    <g id="xtick_6">
     <g id="line2d_18">
      <g>
       <use xlink:href="#mfefa7f8f29" x="193.41462" y="72.060458" style="stroke: #000000; stroke-width: 0.8"/>
      </g>
     </g>
     <g id="line2d_19">
      <g>
       <use xlink:href="#m54897a00b2" x="193.41462" y="13.999219" style="stroke: #000000; stroke-width: 0.8"/>
      </g>
     </g>
     <g id="text_11">
      <!-- 10 -->
      <g transform="translate(190.23337 79.359676) scale(0.05 -0.05)">
       <use xlink:href="#DejaVuSans-31"/>
       <use xlink:href="#DejaVuSans-30" x="63.623047"/>
      </g>
     </g>
    </g>
   </g>
   <g id="matplotlib.axis_4">
    <g id="ytick_4">
     <g id="line2d_20">
      <g>
       <use xlink:href="#mcd5479254b" x="147.192359" y="68.167768" style="stroke: #000000; stroke-width: 0.8"/>
      </g>
     </g>
     <g id="line2d_21">
      <g>
       <use xlink:href="#m45c71df0aa" x="206.142489" y="68.167768" style="stroke: #000000; stroke-width: 0.8"/>
      </g>
     </g>
     <g id="text_12">
      <!-- 1.310 -->
      <g transform="translate(129.378297 70.067378) scale(0.05 -0.05)">
       <defs>
        <path id="DejaVuSans-33" d="M 2597 2516 
Q 3050 2419 3304 2112 
Q 3559 1806 3559 1356 
Q 3559 666 3084 287 
Q 2609 -91 1734 -91 
Q 1441 -91 1130 -33 
Q 819 25 488 141 
L 488 750 
Q 750 597 1062 519 
Q 1375 441 1716 441 
Q 2309 441 2620 675 
Q 2931 909 2931 1356 
Q 2931 1769 2642 2001 
Q 2353 2234 1838 2234 
L 1294 2234 
L 1294 2753 
L 1863 2753 
Q 2328 2753 2575 2939 
Q 2822 3125 2822 3475 
Q 2822 3834 2567 4026 
Q 2313 4219 1838 4219 
Q 1578 4219 1281 4162 
Q 984 4106 628 3988 
L 628 4550 
Q 988 4650 1302 4700 
Q 1616 4750 1894 4750 
Q 2613 4750 3031 4423 
Q 3450 4097 3450 3541 
Q 3450 3153 3228 2886 
Q 3006 2619 2597 2516 
z
" transform="scale(0.015625)"/>
       </defs>
       <use xlink:href="#DejaVuSans-31"/>
       <use xlink:href="#DejaVuSans-2e" x="63.623047"/>
       <use xlink:href="#DejaVuSans-33" x="95.410156"/>
       <use xlink:href="#DejaVuSans-31" x="159.033203"/>
       <use xlink:href="#DejaVuSans-30" x="222.65625"/>
      </g>
     </g>
    </g>
    <g id="ytick_5">
     <g id="line2d_22">
      <g>
       <use xlink:href="#mcd5479254b" x="147.192359" y="53.583218" style="stroke: #000000; stroke-width: 0.8"/>
      </g>
     </g>
     <g id="line2d_23">
      <g>
       <use xlink:href="#m45c71df0aa" x="206.142489" y="53.583218" style="stroke: #000000; stroke-width: 0.8"/>
      </g>
     </g>
     <g id="text_13">
      <!-- 1.315 -->
      <g transform="translate(129.378297 55.482828) scale(0.05 -0.05)">
       <use xlink:href="#DejaVuSans-31"/>
       <use xlink:href="#DejaVuSans-2e" x="63.623047"/>
       <use xlink:href="#DejaVuSans-33" x="95.410156"/>
       <use xlink:href="#DejaVuSans-31" x="159.033203"/>
       <use xlink:href="#DejaVuSans-35" x="222.65625"/>
      </g>
     </g>
    </g>
    <g id="ytick_6">
     <g id="line2d_24">
      <g>
       <use xlink:href="#mcd5479254b" x="147.192359" y="38.998669" style="stroke: #000000; stroke-width: 0.8"/>
      </g>
     </g>
     <g id="line2d_25">
      <g>
       <use xlink:href="#m45c71df0aa" x="206.142489" y="38.998669" style="stroke: #000000; stroke-width: 0.8"/>
      </g>
     </g>
     <g id="text_14">
      <!-- 1.320 -->
      <g transform="translate(129.378297 40.898278) scale(0.05 -0.05)">
       <defs>
        <path id="DejaVuSans-32" d="M 1228 531 
L 3431 531 
L 3431 0 
L 469 0 
L 469 531 
Q 828 903 1448 1529 
Q 2069 2156 2228 2338 
Q 2531 2678 2651 2914 
Q 2772 3150 2772 3378 
Q 2772 3750 2511 3984 
Q 2250 4219 1831 4219 
Q 1534 4219 1204 4116 
Q 875 4013 500 3803 
L 500 4441 
Q 881 4594 1212 4672 
Q 1544 4750 1819 4750 
Q 2544 4750 2975 4387 
Q 3406 4025 3406 3419 
Q 3406 3131 3298 2873 
Q 3191 2616 2906 2266 
Q 2828 2175 2409 1742 
Q 1991 1309 1228 531 
z
" transform="scale(0.015625)"/>
       </defs>
       <use xlink:href="#DejaVuSans-31"/>
       <use xlink:href="#DejaVuSans-2e" x="63.623047"/>
       <use xlink:href="#DejaVuSans-33" x="95.410156"/>
       <use xlink:href="#DejaVuSans-32" x="159.033203"/>
       <use xlink:href="#DejaVuSans-30" x="222.65625"/>
      </g>
     </g>
    </g>
    <g id="ytick_7">
     <g id="line2d_26">
      <g>
       <use xlink:href="#mcd5479254b" x="147.192359" y="24.414119" style="stroke: #000000; stroke-width: 0.8"/>
      </g>
     </g>
     <g id="line2d_27">
      <g>
       <use xlink:href="#m45c71df0aa" x="206.142489" y="24.414119" style="stroke: #000000; stroke-width: 0.8"/>
      </g>
     </g>
     <g id="text_15">
      <!-- 1.325 -->
      <g transform="translate(129.378297 26.313728) scale(0.05 -0.05)">
       <use xlink:href="#DejaVuSans-31"/>
       <use xlink:href="#DejaVuSans-2e" x="63.623047"/>
       <use xlink:href="#DejaVuSans-33" x="95.410156"/>
       <use xlink:href="#DejaVuSans-32" x="159.033203"/>
       <use xlink:href="#DejaVuSans-35" x="222.65625"/>
      </g>
     </g>
    </g>
    <g id="text_16">
     <!-- Resonance Frequency  -->
     <g transform="translate(117.411797 76.764838) rotate(-90) scale(0.06 -0.06)">
      <defs>
       <path id="DejaVuSans-52" d="M 2841 2188 
Q 3044 2119 3236 1894 
Q 3428 1669 3622 1275 
L 4263 0 
L 3584 0 
L 2988 1197 
Q 2756 1666 2539 1819 
Q 2322 1972 1947 1972 
L 1259 1972 
L 1259 0 
L 628 0 
L 628 4666 
L 2053 4666 
Q 2853 4666 3247 4331 
Q 3641 3997 3641 3322 
Q 3641 2881 3436 2590 
Q 3231 2300 2841 2188 
z
M 1259 4147 
L 1259 2491 
L 2053 2491 
Q 2509 2491 2742 2702 
Q 2975 2913 2975 3322 
Q 2975 3731 2742 3939 
Q 2509 4147 2053 4147 
L 1259 4147 
z
" transform="scale(0.015625)"/>
       <path id="DejaVuSans-73" d="M 2834 3397 
L 2834 2853 
Q 2591 2978 2328 3040 
Q 2066 3103 1784 3103 
Q 1356 3103 1142 2972 
Q 928 2841 928 2578 
Q 928 2378 1081 2264 
Q 1234 2150 1697 2047 
L 1894 2003 
Q 2506 1872 2764 1633 
Q 3022 1394 3022 966 
Q 3022 478 2636 193 
Q 2250 -91 1575 -91 
Q 1294 -91 989 -36 
Q 684 19 347 128 
L 347 722 
Q 666 556 975 473 
Q 1284 391 1588 391 
Q 1994 391 2212 530 
Q 2431 669 2431 922 
Q 2431 1156 2273 1281 
Q 2116 1406 1581 1522 
L 1381 1569 
Q 847 1681 609 1914 
Q 372 2147 372 2553 
Q 372 3047 722 3315 
Q 1072 3584 1716 3584 
Q 2034 3584 2315 3537 
Q 2597 3491 2834 3397 
z
" transform="scale(0.015625)"/>
       <path id="DejaVuSans-6f" d="M 1959 3097 
Q 1497 3097 1228 2736 
Q 959 2375 959 1747 
Q 959 1119 1226 758 
Q 1494 397 1959 397 
Q 2419 397 2687 759 
Q 2956 1122 2956 1747 
Q 2956 2369 2687 2733 
Q 2419 3097 1959 3097 
z
M 1959 3584 
Q 2709 3584 3137 3096 
Q 3566 2609 3566 1747 
Q 3566 888 3137 398 
Q 2709 -91 1959 -91 
Q 1206 -91 779 398 
Q 353 888 353 1747 
Q 353 2609 779 3096 
Q 1206 3584 1959 3584 
z
" transform="scale(0.015625)"/>
       <path id="DejaVuSans-6e" d="M 3513 2113 
L 3513 0 
L 2938 0 
L 2938 2094 
Q 2938 2591 2744 2837 
Q 2550 3084 2163 3084 
Q 1697 3084 1428 2787 
Q 1159 2491 1159 1978 
L 1159 0 
L 581 0 
L 581 3500 
L 1159 3500 
L 1159 2956 
Q 1366 3272 1645 3428 
Q 1925 3584 2291 3584 
Q 2894 3584 3203 3211 
Q 3513 2838 3513 2113 
z
" transform="scale(0.015625)"/>
       <path id="DejaVuSans-61" d="M 2194 1759 
Q 1497 1759 1228 1600 
Q 959 1441 959 1056 
Q 959 750 1161 570 
Q 1363 391 1709 391 
Q 2188 391 2477 730 
Q 2766 1069 2766 1631 
L 2766 1759 
L 2194 1759 
z
M 3341 1997 
L 3341 0 
L 2766 0 
L 2766 531 
Q 2569 213 2275 61 
Q 1981 -91 1556 -91 
Q 1019 -91 701 211 
Q 384 513 384 1019 
Q 384 1609 779 1909 
Q 1175 2209 1959 2209 
L 2766 2209 
L 2766 2266 
Q 2766 2663 2505 2880 
Q 2244 3097 1772 3097 
Q 1472 3097 1187 3025 
Q 903 2953 641 2809 
L 641 3341 
Q 956 3463 1253 3523 
Q 1550 3584 1831 3584 
Q 2591 3584 2966 3190 
Q 3341 2797 3341 1997 
z
" transform="scale(0.015625)"/>
       <path id="DejaVuSans-63" d="M 3122 3366 
L 3122 2828 
Q 2878 2963 2633 3030 
Q 2388 3097 2138 3097 
Q 1578 3097 1268 2742 
Q 959 2388 959 1747 
Q 959 1106 1268 751 
Q 1578 397 2138 397 
Q 2388 397 2633 464 
Q 2878 531 3122 666 
L 3122 134 
Q 2881 22 2623 -34 
Q 2366 -91 2075 -91 
Q 1284 -91 818 406 
Q 353 903 353 1747 
Q 353 2603 823 3093 
Q 1294 3584 2113 3584 
Q 2378 3584 2631 3529 
Q 2884 3475 3122 3366 
z
" transform="scale(0.015625)"/>
       <path id="DejaVuSans-46" d="M 628 4666 
L 3309 4666 
L 3309 4134 
L 1259 4134 
L 1259 2759 
L 3109 2759 
L 3109 2228 
L 1259 2228 
L 1259 0 
L 628 0 
L 628 4666 
z
" transform="scale(0.015625)"/>
       <path id="DejaVuSans-71" d="M 947 1747 
Q 947 1113 1208 752 
Q 1469 391 1925 391 
Q 2381 391 2643 752 
Q 2906 1113 2906 1747 
Q 2906 2381 2643 2742 
Q 2381 3103 1925 3103 
Q 1469 3103 1208 2742 
Q 947 2381 947 1747 
z
M 2906 525 
Q 2725 213 2448 61 
Q 2172 -91 1784 -91 
Q 1150 -91 751 415 
Q 353 922 353 1747 
Q 353 2572 751 3078 
Q 1150 3584 1784 3584 
Q 2172 3584 2448 3432 
Q 2725 3281 2906 2969 
L 2906 3500 
L 3481 3500 
L 3481 -1331 
L 2906 -1331 
L 2906 525 
z
" transform="scale(0.015625)"/>
       <path id="DejaVuSans-79" d="M 2059 -325 
Q 1816 -950 1584 -1140 
Q 1353 -1331 966 -1331 
L 506 -1331 
L 506 -850 
L 844 -850 
Q 1081 -850 1212 -737 
Q 1344 -625 1503 -206 
L 1606 56 
L 191 3500 
L 800 3500 
L 1894 763 
L 2988 3500 
L 3597 3500 
L 2059 -325 
z
" transform="scale(0.015625)"/>
      </defs>
      <use xlink:href="#DejaVuSans-52"/>
      <use xlink:href="#DejaVuSans-65" x="64.982422"/>
      <use xlink:href="#DejaVuSans-73" x="126.505859"/>
      <use xlink:href="#DejaVuSans-6f" x="178.605469"/>
      <use xlink:href="#DejaVuSans-6e" x="239.787109"/>
      <use xlink:href="#DejaVuSans-61" x="303.166016"/>
      <use xlink:href="#DejaVuSans-6e" x="364.445312"/>
      <use xlink:href="#DejaVuSans-63" x="427.824219"/>
      <use xlink:href="#DejaVuSans-65" x="482.804688"/>
      <use xlink:href="#DejaVuSans-20" x="544.328125"/>
      <use xlink:href="#DejaVuSans-46" x="576.115234"/>
      <use xlink:href="#DejaVuSans-72" x="626.384766"/>
      <use xlink:href="#DejaVuSans-65" x="665.248047"/>
      <use xlink:href="#DejaVuSans-71" x="726.771484"/>
      <use xlink:href="#DejaVuSans-75" x="790.248047"/>
      <use xlink:href="#DejaVuSans-65" x="853.626953"/>
      <use xlink:href="#DejaVuSans-6e" x="915.150391"/>
      <use xlink:href="#DejaVuSans-63" x="978.529297"/>
      <use xlink:href="#DejaVuSans-79" x="1033.509766"/>
      <use xlink:href="#DejaVuSans-20" x="1092.689453"/>
     </g>
     <!--  (Hz) -->
     <g transform="translate(124.130484 50.154838) rotate(-90) scale(0.06 -0.06)">
      <defs>
       <path id="DejaVuSans-48" d="M 628 4666 
L 1259 4666 
L 1259 2753 
L 3553 2753 
L 3553 4666 
L 4184 4666 
L 4184 0 
L 3553 0 
L 3553 2222 
L 1259 2222 
L 1259 0 
L 628 0 
L 628 4666 
z
" transform="scale(0.015625)"/>
       <path id="DejaVuSans-7a" d="M 353 3500 
L 3084 3500 
L 3084 2975 
L 922 459 
L 3084 459 
L 3084 0 
L 275 0 
L 275 525 
L 2438 3041 
L 353 3041 
L 353 3500 
z
" transform="scale(0.015625)"/>
      </defs>
      <use xlink:href="#DejaVuSans-20"/>
      <use xlink:href="#DejaVuSans-28" x="31.787109"/>
      <use xlink:href="#DejaVuSans-48" x="70.800781"/>
      <use xlink:href="#DejaVuSans-7a" x="145.996094"/>
      <use xlink:href="#DejaVuSans-29" x="198.486328"/>
     </g>
    </g>
    <g id="text_17">
     <!-- 1e6 -->
     <g transform="translate(147.192359 10.999219) scale(0.05 -0.05)">
      <defs>
       <path id="DejaVuSans-36" d="M 2113 2584 
Q 1688 2584 1439 2293 
Q 1191 2003 1191 1497 
Q 1191 994 1439 701 
Q 1688 409 2113 409 
Q 2538 409 2786 701 
Q 3034 994 3034 1497 
Q 3034 2003 2786 2293 
Q 2538 2584 2113 2584 
z
M 3366 4563 
L 3366 3988 
Q 3128 4100 2886 4159 
Q 2644 4219 2406 4219 
Q 1781 4219 1451 3797 
Q 1122 3375 1075 2522 
Q 1259 2794 1537 2939 
Q 1816 3084 2150 3084 
Q 2853 3084 3261 2657 
Q 3669 2231 3669 1497 
Q 3669 778 3244 343 
Q 2819 -91 2113 -91 
Q 1303 -91 875 529 
Q 447 1150 447 2328 
Q 447 3434 972 4092 
Q 1497 4750 2381 4750 
Q 2619 4750 2861 4703 
Q 3103 4656 3366 4563 
z
" transform="scale(0.015625)"/>
      </defs>
      <use xlink:href="#DejaVuSans-31"/>
      <use xlink:href="#DejaVuSans-65" x="63.623047"/>
      <use xlink:href="#DejaVuSans-36" x="125.146484"/>
     </g>
    </g>
   </g>
   <g id="line2d_28">
    <path d="M 176.667424 20.23127 
L 177.783904 19.998646 
L 178.900384 20.16017 
L 180.016863 20.557235 
L 181.133343 20.110583 
L 182.249823 20.031826 
L 183.366302 19.678515 
L 184.482782 20.286691 
L 186.715742 20.90617 
L 187.832221 21.07608 
L 188.948701 22.273836 
L 190.065181 22.950195 
L 191.181661 24.473186 
L 192.29814 69.42131 
L 193.41462 21.984697 
L 194.5311 22.026993 
L 195.647579 23.043171 
L 196.764059 22.301911 
L 197.880539 22.499167 
L 198.997018 22.200913 
L 201.229979 21.873126 
L 203.462937 21.91615 
L 202.346457 21.475332 
L 200.113498 21.581435 
L 197.880539 21.334956 
L 196.764059 21.657639 
L 195.647579 20.79314 
L 194.5311 20.852936 
L 193.41462 21.029409 
L 192.29814 20.364354 
L 191.181661 20.920754 
L 190.065181 20.416129 
L 188.948701 20.178036 
L 187.832221 20.602082 
L 186.715742 19.973853 
L 184.482782 20.025263 
L 183.366302 19.831653 
L 181.133343 19.775138 
L 180.016863 19.193944 
L 178.900384 19.327028 
L 176.667424 19.276711 
L 175.550944 19.588456 
L 174.434465 19.198684 
L 173.317985 19.601946 
L 172.201505 19.672317 
L 171.085026 20.001199 
L 169.968546 20.805536 
L 168.852066 21.98251 
L 167.735586 22.324517 
L 166.619107 23.163858 
L 165.502627 69.42131 
L 164.386147 23.904753 
L 163.269667 22.936704 
L 162.153187 23.590456 
L 161.036708 23.526284 
L 159.920228 22.903159 
L 158.803748 21.295942 
L 157.687269 20.739177 
L 156.570789 20.474832 
L 155.454309 20.566714 
L 154.33783 20.244031 
L 153.22135 20.898878 
L 152.10487 20.303828 
L 150.988391 20.586039 
L 149.871911 20.343571 
L 150.988391 19.968019 
L 152.10487 20.186058 
L 153.22135 20.169285 
L 154.33783 19.580434 
L 155.454309 19.558922 
L 156.570789 19.771492 
L 157.687269 19.587362 
L 158.803748 19.122844 
L 161.036708 18.826048 
L 162.153187 18.528159 
L 163.269667 18.623323 
L 164.386147 18.581393 
L 165.502627 18.424973 
L 166.619107 18.812193 
L 167.735586 18.223342 
L 168.852066 18.711195 
L 169.968546 18.886574 
L 171.085026 18.364812 
L 173.317985 17.778513 
L 174.434465 18.020617 
L 175.550944 17.753719 
L 176.667424 17.752261 
L 177.783904 17.877323 
L 178.900384 18.21131 
L 180.016863 17.928734 
L 182.249823 18.06984 
L 183.366302 17.577246 
L 184.482782 17.832476 
L 185.599262 19.066694 
L 186.715742 18.770263 
L 187.832221 19.533034 
L 188.948701 20.055891 
L 190.065181 20.934245 
L 191.181661 69.42131 
L 192.29814 69.42131 
L 193.41462 20.529888 
L 194.5311 19.955257 
L 196.764059 20.568902 
L 197.880539 20.411389 
L 198.997018 20.034743 
L 200.113498 20.038389 
L 201.229979 19.483447 
L 202.346457 19.261762 
L 203.462937 19.438235 
L 202.346457 19.412347 
L 201.229979 18.663431 
L 200.113498 19.140345 
L 198.997018 19.25374 
L 197.880539 18.967154 
L 196.764059 18.991583 
L 195.647579 18.786306 
L 193.41462 18.639731 
L 192.29814 18.209122 
L 191.181661 18.208757 
L 190.065181 17.694287 
L 187.832221 17.977592 
L 186.715742 17.439058 
L 182.249823 17.273523 
L 181.133343 17.588914 
L 180.016863 17.346081 
L 178.900384 16.962508 
L 177.783904 16.954121 
L 176.667424 16.711653 
L 175.550944 16.969071 
L 173.317985 17.194402 
L 172.201505 17.3665 
L 171.085026 17.282638 
L 168.852066 18.657232 
L 166.619107 21.258387 
L 165.502627 69.42131 
L 164.386147 21.084831 
L 163.269667 19.845144 
L 162.153187 21.001699 
L 161.036708 21.970477 
L 159.920228 22.000376 
L 158.803748 19.976769 
L 157.687269 18.764429 
L 156.570789 18.823496 
L 154.33783 18.78193 
L 153.22135 19.307703 
L 150.988391 18.714477 
L 149.871911 18.547848 
L 150.988391 19.055755 
L 153.22135 18.452684 
L 154.33783 18.417681 
L 155.454309 18.672546 
L 157.687269 17.923265 
L 158.803748 17.761012 
L 159.920228 18.124167 
L 161.036708 17.773773 
L 162.153187 17.804765 
L 163.269667 17.46057 
L 164.386147 17.773044 
L 165.502627 17.385824 
L 167.735586 17.443798 
L 168.852066 17.601675 
L 169.968546 17.582351 
L 171.085026 17.145544 
L 172.201505 16.889585 
L 173.317985 16.977821 
L 174.434465 16.638366 
L 175.550944 16.76671 
L 175.550944 16.76671 
" clip-path="url(#pcae5bfaabc)" style="fill: none; stroke: #1f77b4; stroke-width: 0.5; stroke-linecap: square"/>
   </g>
   <g id="patch_8">
    <path d="M 147.192359 72.060458 
L 147.192359 13.999219 
" style="fill: none; stroke: #000000; stroke-width: 0.5; stroke-linejoin: miter; stroke-linecap: square"/>
   </g>
   <g id="patch_9">
    <path d="M 206.142489 72.060458 
L 206.142489 13.999219 
" style="fill: none; stroke: #000000; stroke-width: 0.5; stroke-linejoin: miter; stroke-linecap: square"/>
   </g>
   <g id="patch_10">
    <path d="M 147.192359 72.060458 
L 206.142489 72.060458 
" style="fill: none; stroke: #000000; stroke-width: 0.5; stroke-linejoin: miter; stroke-linecap: square"/>
   </g>
   <g id="patch_11">
    <path d="M 147.192359 13.999219 
L 206.142489 13.999219 
" style="fill: none; stroke: #000000; stroke-width: 0.5; stroke-linejoin: miter; stroke-linecap: square"/>
   </g>
   <g id="text_18">
    <path d="M 156.171754 24.013405 
Q 156.620504 24.013405 156.856754 23.685905 
Q 157.094254 23.357155 157.094254 22.732155 
Q 157.094254 22.107155 156.856754 21.779655 
Q 156.620504 21.450905 156.171754 21.450905 
Q 155.723004 21.450905 155.481754 21.780905 
Q 155.241754 22.110905 155.241754 22.732155 
Q 155.241754 23.353405 155.481754 23.683405 
Q 155.723004 24.013405 156.171754 24.013405 
z
M 155.241754 21.180905 
Q 155.531754 20.798405 155.883004 20.617155 
Q 156.234254 20.435905 156.691754 20.435905 
Q 157.500504 20.435905 158.019254 21.078405 
Q 158.539254 21.720905 158.539254 22.732155 
Q 158.539254 23.743405 158.019254 24.387155 
Q 157.500504 25.029655 156.691754 25.029655 
Q 156.234254 25.029655 155.883004 24.848405 
Q 155.531754 24.665905 155.241754 24.283405 
L 155.241754 24.915905 
L 153.844254 24.915905 
L 153.844254 18.837155 
L 155.241754 18.837155 
L 155.241754 21.180905 
z
"/>
    <path d="M 156.171754 24.013405 
Q 156.620504 24.013405 156.856754 23.685905 
Q 157.094254 23.357155 157.094254 22.732155 
Q 157.094254 22.107155 156.856754 21.779655 
Q 156.620504 21.450905 156.171754 21.450905 
Q 155.723004 21.450905 155.481754 21.780905 
Q 155.241754 22.110905 155.241754 22.732155 
Q 155.241754 23.353405 155.481754 23.683405 
Q 155.723004 24.013405 156.171754 24.013405 
z
M 155.241754 21.180905 
Q 155.531754 20.798405 155.883004 20.617155 
Q 156.234254 20.435905 156.691754 20.435905 
Q 157.500504 20.435905 158.019254 21.078405 
Q 158.539254 21.720905 158.539254 22.732155 
Q 158.539254 23.743405 158.019254 24.387155 
Q 157.500504 25.029655 156.691754 25.029655 
Q 156.234254 25.029655 155.883004 24.848405 
Q 155.531754 24.665905 155.241754 24.283405 
L 155.241754 24.915905 
L 153.844254 24.915905 
L 153.844254 18.837155 
L 155.241754 18.837155 
L 155.241754 21.180905 
z
"/>
   </g>
  </g>
  <g id="axes_3">
   <g id="patch_12">
    <path d="M 245.902125 72.060458 
L 304.852254 72.060458 
L 304.852254 13.999219 
L 245.902125 13.999219 
z
" style="fill: #ffffff"/>
   </g>
   <g id="matplotlib.axis_5">
    <g id="xtick_7">
     <g id="line2d_29">
      <g>
       <use xlink:href="#mfefa7f8f29" x="258.629994" y="72.060458" style="stroke: #000000; stroke-width: 0.8"/>
      </g>
     </g>
     <g id="line2d_30">
      <g>
       <use xlink:href="#m54897a00b2" x="258.629994" y="13.999219" style="stroke: #000000; stroke-width: 0.8"/>
      </g>
     </g>
     <g id="text_19">
      <!-- −10 -->
      <g transform="translate(253.353822 79.359676) scale(0.05 -0.05)">
       <use xlink:href="#DejaVuSans-2212"/>
       <use xlink:href="#DejaVuSans-31" x="83.789062"/>
       <use xlink:href="#DejaVuSans-30" x="147.412109"/>
      </g>
     </g>
    </g>
    <g id="xtick_8">
     <g id="line2d_31">
      <g>
       <use xlink:href="#mfefa7f8f29" x="275.37719" y="72.060458" style="stroke: #000000; stroke-width: 0.8"/>
      </g>
     </g>
     <g id="line2d_32">
      <g>
       <use xlink:href="#m54897a00b2" x="275.37719" y="13.999219" style="stroke: #000000; stroke-width: 0.8"/>
      </g>
     </g>
     <g id="text_20">
      <!-- 0 -->
      <g transform="translate(273.786565 79.359676) scale(0.05 -0.05)">
       <use xlink:href="#DejaVuSans-30"/>
      </g>
     </g>
    </g>
    <g id="xtick_9">
     <g id="line2d_33">
      <g>
       <use xlink:href="#mfefa7f8f29" x="292.124386" y="72.060458" style="stroke: #000000; stroke-width: 0.8"/>
      </g>
     </g>
     <g id="line2d_34">
      <g>
       <use xlink:href="#m54897a00b2" x="292.124386" y="13.999219" style="stroke: #000000; stroke-width: 0.8"/>
      </g>
     </g>
     <g id="text_21">
      <!-- 10 -->
      <g transform="translate(288.943136 79.359676) scale(0.05 -0.05)">
       <use xlink:href="#DejaVuSans-31"/>
       <use xlink:href="#DejaVuSans-30" x="63.623047"/>
      </g>
     </g>
    </g>
   </g>
   <g id="matplotlib.axis_6">
    <g id="ytick_8">
     <g id="line2d_35">
      <g>
       <use xlink:href="#mcd5479254b" x="245.902125" y="59.345922" style="stroke: #000000; stroke-width: 0.8"/>
      </g>
     </g>
     <g id="line2d_36">
      <g>
       <use xlink:href="#m45c71df0aa" x="304.852254" y="59.345922" style="stroke: #000000; stroke-width: 0.8"/>
      </g>
     </g>
     <g id="text_22">
      <!-- −200 -->
      <g transform="translate(228.668531 61.245531) scale(0.05 -0.05)">
       <use xlink:href="#DejaVuSans-2212"/>
       <use xlink:href="#DejaVuSans-32" x="83.789062"/>
       <use xlink:href="#DejaVuSans-30" x="147.412109"/>
       <use xlink:href="#DejaVuSans-30" x="211.035156"/>
      </g>
     </g>
    </g>
    <g id="ytick_9">
     <g id="line2d_37">
      <g>
       <use xlink:href="#mcd5479254b" x="245.902125" y="37.992144" style="stroke: #000000; stroke-width: 0.8"/>
      </g>
     </g>
     <g id="line2d_38">
      <g>
       <use xlink:href="#m45c71df0aa" x="304.852254" y="37.992144" style="stroke: #000000; stroke-width: 0.8"/>
      </g>
     </g>
     <g id="text_23">
      <!-- 0 -->
      <g transform="translate(239.220875 39.891753) scale(0.05 -0.05)">
       <use xlink:href="#DejaVuSans-30"/>
      </g>
     </g>
    </g>
    <g id="ytick_10">
     <g id="line2d_39">
      <g>
       <use xlink:href="#mcd5479254b" x="245.902125" y="16.638366" style="stroke: #000000; stroke-width: 0.8"/>
      </g>
     </g>
     <g id="line2d_40">
      <g>
       <use xlink:href="#m45c71df0aa" x="304.852254" y="16.638366" style="stroke: #000000; stroke-width: 0.8"/>
      </g>
     </g>
     <g id="text_24">
      <!-- 200 -->
      <g transform="translate(232.858375 18.537975) scale(0.05 -0.05)">
       <use xlink:href="#DejaVuSans-32"/>
       <use xlink:href="#DejaVuSans-30" x="63.623047"/>
       <use xlink:href="#DejaVuSans-30" x="127.246094"/>
      </g>
     </g>
    </g>
    <g id="text_25">
     <!-- Quality Factor  -->
     <g transform="translate(216.702031 64.841244) rotate(-90) scale(0.06 -0.06)">
      <defs>
       <path id="DejaVuSans-51" d="M 2522 4238 
Q 1834 4238 1429 3725 
Q 1025 3213 1025 2328 
Q 1025 1447 1429 934 
Q 1834 422 2522 422 
Q 3209 422 3611 934 
Q 4013 1447 4013 2328 
Q 4013 3213 3611 3725 
Q 3209 4238 2522 4238 
z
M 3406 84 
L 4238 -825 
L 3475 -825 
L 2784 -78 
Q 2681 -84 2626 -87 
Q 2572 -91 2522 -91 
Q 1538 -91 948 567 
Q 359 1225 359 2328 
Q 359 3434 948 4092 
Q 1538 4750 2522 4750 
Q 3503 4750 4090 4092 
Q 4678 3434 4678 2328 
Q 4678 1516 4351 937 
Q 4025 359 3406 84 
z
" transform="scale(0.015625)"/>
      </defs>
      <use xlink:href="#DejaVuSans-51"/>
      <use xlink:href="#DejaVuSans-75" x="78.710938"/>
      <use xlink:href="#DejaVuSans-61" x="142.089844"/>
      <use xlink:href="#DejaVuSans-6c" x="203.369141"/>
      <use xlink:href="#DejaVuSans-69" x="231.152344"/>
      <use xlink:href="#DejaVuSans-74" x="258.935547"/>
      <use xlink:href="#DejaVuSans-79" x="298.144531"/>
      <use xlink:href="#DejaVuSans-20" x="357.324219"/>
      <use xlink:href="#DejaVuSans-46" x="389.111328"/>
      <use xlink:href="#DejaVuSans-61" x="437.505859"/>
      <use xlink:href="#DejaVuSans-63" x="498.785156"/>
      <use xlink:href="#DejaVuSans-74" x="553.765625"/>
      <use xlink:href="#DejaVuSans-6f" x="592.974609"/>
      <use xlink:href="#DejaVuSans-72" x="654.15625"/>
      <use xlink:href="#DejaVuSans-20" x="695.269531"/>
     </g>
     <!--  (Arb. U.) -->
     <g transform="translate(223.420719 56.570151) rotate(-90) scale(0.06 -0.06)">
      <use xlink:href="#DejaVuSans-20"/>
      <use xlink:href="#DejaVuSans-28" x="31.787109"/>
      <use xlink:href="#DejaVuSans-41" x="70.800781"/>
      <use xlink:href="#DejaVuSans-72" x="139.208984"/>
      <use xlink:href="#DejaVuSans-62" x="180.322266"/>
      <use xlink:href="#DejaVuSans-2e" x="243.798828"/>
      <use xlink:href="#DejaVuSans-20" x="275.585938"/>
      <use xlink:href="#DejaVuSans-55" x="307.373047"/>
      <use xlink:href="#DejaVuSans-2e" x="380.566406"/>
      <use xlink:href="#DejaVuSans-29" x="412.353516"/>
     </g>
    </g>
   </g>
   <g id="line2d_41">
    <path d="M 275.37719 65.205778 
L 276.493669 63.885527 
L 277.610149 64.528208 
L 278.726629 64.941986 
L 279.843109 64.930419 
L 280.959588 64.067786 
L 282.076068 64.783507 
L 283.192547 64.725729 
L 284.309028 63.97711 
L 285.425507 63.560761 
L 286.541987 63.655339 
L 287.658467 61.492539 
L 288.774946 64.521476 
L 289.891427 64.782476 
L 291.007905 16.638366 
L 292.124386 69.42131 
L 293.240866 61.99555 
L 294.357344 65.177635 
L 295.473825 63.287273 
L 296.590305 62.442511 
L 297.706784 62.180794 
L 298.823264 61.550076 
L 299.939744 61.101567 
L 301.056223 60.833576 
L 302.172703 62.62789 
L 301.056223 61.680553 
L 299.939744 62.233856 
L 298.823264 63.223252 
L 297.706784 61.995451 
L 296.590305 62.639803 
L 295.473825 63.546048 
L 294.357344 61.611577 
L 293.240866 62.067864 
L 292.124386 61.843251 
L 291.007905 62.560977 
L 289.891427 62.50808 
L 288.774946 61.922601 
L 287.658467 62.536232 
L 286.541987 64.5774 
L 285.425507 63.882905 
L 284.309028 62.116918 
L 283.192547 60.969545 
L 282.076068 65.401886 
L 280.959588 63.473378 
L 279.843109 63.9977 
L 278.726629 64.730965 
L 277.610149 63.956118 
L 276.493669 63.854134 
L 275.37719 65.017164 
L 274.26071 64.640219 
L 273.14423 65.584095 
L 272.027751 63.794929 
L 270.911271 63.411368 
L 269.794791 62.126536 
L 268.678311 63.515112 
L 267.561832 62.816393 
L 266.445352 65.519345 
L 265.328872 61.187933 
L 264.212393 16.638366 
L 263.095912 65.071426 
L 261.979433 63.358251 
L 260.862953 64.473352 
L 259.746474 62.72849 
L 257.513514 62.106198 
L 256.397035 62.460088 
L 255.280555 63.519724 
L 254.164074 62.65383 
L 253.047596 62.910699 
L 251.931116 62.345079 
L 250.814635 62.865778 
L 249.698157 63.732345 
L 248.581676 62.751643 
L 249.698157 62.356377 
L 250.814635 62.145809 
L 251.931116 62.081663 
L 253.047596 63.169513 
L 254.164074 63.681852 
L 255.280555 62.127771 
L 256.397035 63.104235 
L 257.513514 61.876101 
L 258.629994 63.499021 
L 259.746474 63.333713 
L 260.862953 63.309489 
L 261.979433 63.145888 
L 263.095912 64.662216 
L 264.212393 63.873223 
L 265.328872 63.648601 
L 266.445352 63.837445 
L 267.561832 64.333197 
L 268.678311 65.539221 
L 269.794791 64.329663 
L 270.911271 64.951547 
L 272.027751 64.194762 
L 273.14423 65.302805 
L 274.26071 64.445031 
L 275.37719 65.605763 
L 276.493669 64.523113 
L 277.610149 65.025145 
L 278.726629 64.34747 
L 279.843109 64.462598 
L 280.959588 64.124268 
L 283.192547 64.785966 
L 285.425507 64.824536 
L 286.541987 63.907126 
L 287.658467 65.09463 
L 288.774946 62.299995 
L 289.891427 16.638366 
L 291.007905 16.638366 
L 292.124386 62.781874 
L 293.240866 61.244826 
L 294.357344 61.664691 
L 295.473825 64.345104 
L 296.590305 62.237026 
L 297.706784 62.37834 
L 298.823264 62.28401 
L 299.939744 63.046437 
L 301.056223 63.412835 
L 302.172703 62.312028 
L 301.056223 61.86624 
L 299.939744 63.022182 
L 298.823264 62.170058 
L 297.706784 63.115532 
L 296.590305 63.577061 
L 295.473825 62.535105 
L 293.240866 63.814057 
L 292.124386 64.849573 
L 291.007905 63.499676 
L 289.891427 64.181398 
L 288.774946 63.833739 
L 287.658467 64.783177 
L 286.541987 64.371963 
L 285.425507 62.859854 
L 284.309028 64.778701 
L 283.192547 64.259524 
L 282.076068 64.873664 
L 280.959588 65.282424 
L 279.843109 64.990978 
L 278.726629 66.336857 
L 277.610149 65.235649 
L 276.493669 64.426015 
L 275.37719 64.992931 
L 273.14423 65.183192 
L 272.027751 65.17109 
L 270.911271 64.534552 
L 269.794791 65.909752 
L 268.678311 62.655438 
L 267.561832 63.982022 
L 266.445352 63.817796 
L 265.328872 64.594964 
L 264.212393 16.638366 
L 263.095912 63.029844 
L 261.979433 64.245408 
L 260.862953 64.010127 
L 259.746474 64.30394 
L 258.629994 62.838613 
L 257.513514 63.552588 
L 256.397035 63.281742 
L 255.280555 62.112439 
L 254.164074 63.559179 
L 253.047596 63.516945 
L 251.931116 63.183512 
L 250.814635 64.127961 
L 249.698157 63.130505 
L 248.581676 63.729165 
L 249.698157 64.139517 
L 250.814635 62.556799 
L 251.931116 62.77986 
L 253.047596 63.630444 
L 254.164074 63.340013 
L 255.280555 63.532533 
L 256.397035 63.273614 
L 260.862953 64.673648 
L 261.979433 63.131357 
L 263.095912 63.929912 
L 264.212393 64.128404 
L 265.328872 63.281669 
L 266.445352 63.682334 
L 267.561832 65.28536 
L 268.678311 66.06491 
L 269.794791 64.581185 
L 270.911271 64.300327 
L 272.027751 65.212083 
L 273.14423 64.483624 
L 274.26071 64.834176 
L 274.26071 64.834176 
" clip-path="url(#pd20a46e041)" style="fill: none; stroke: #1f77b4; stroke-width: 0.5; stroke-linecap: square"/>
   </g>
   <g id="patch_13">
    <path d="M 245.902125 72.060458 
L 245.902125 13.999219 
" style="fill: none; stroke: #000000; stroke-width: 0.5; stroke-linejoin: miter; stroke-linecap: square"/>
   </g>
   <g id="patch_14">
    <path d="M 304.852254 72.060458 
L 304.852254 13.999219 
" style="fill: none; stroke: #000000; stroke-width: 0.5; stroke-linejoin: miter; stroke-linecap: square"/>
   </g>
   <g id="patch_15">
    <path d="M 245.902125 72.060458 
L 304.852254 72.060458 
" style="fill: none; stroke: #000000; stroke-width: 0.5; stroke-linejoin: miter; stroke-linecap: square"/>
   </g>
   <g id="patch_16">
    <path d="M 245.902125 13.999219 
L 304.852254 13.999219 
" style="fill: none; stroke: #000000; stroke-width: 0.5; stroke-linejoin: miter; stroke-linecap: square"/>
   </g>
   <g id="text_26">
    <path d="M 256.580894 20.677155 
L 256.580894 21.818405 
Q 256.295894 21.623405 256.008394 21.529655 
Q 255.720894 21.435905 255.412144 21.435905 
Q 254.827144 21.435905 254.500894 21.777155 
Q 254.174644 22.118405 254.174644 22.732155 
Q 254.174644 23.345905 254.500894 23.688405 
Q 254.827144 24.029655 255.412144 24.029655 
Q 255.740894 24.029655 256.035894 23.932155 
Q 256.330894 23.833405 256.580894 23.642155 
L 256.580894 24.787155 
Q 256.252144 24.908405 255.914644 24.968405 
Q 255.577144 25.029655 255.237144 25.029655 
Q 254.053394 25.029655 253.384644 24.422155 
Q 252.717144 23.814655 252.717144 22.732155 
Q 252.717144 21.649655 253.384644 21.043405 
Q 254.053394 20.435905 255.237144 20.435905 
Q 255.580894 20.435905 255.914644 20.495905 
Q 256.248394 20.555905 256.580894 20.677155 
z
"/>
    <path d="M 256.580894 20.677155 
L 256.580894 21.818405 
Q 256.295894 21.623405 256.008394 21.529655 
Q 255.720894 21.435905 255.412144 21.435905 
Q 254.827144 21.435905 254.500894 21.777155 
Q 254.174644 22.118405 254.174644 22.732155 
Q 254.174644 23.345905 254.500894 23.688405 
Q 254.827144 24.029655 255.412144 24.029655 
Q 255.740894 24.029655 256.035894 23.932155 
Q 256.330894 23.833405 256.580894 23.642155 
L 256.580894 24.787155 
Q 256.252144 24.908405 255.914644 24.968405 
Q 255.577144 25.029655 255.237144 25.029655 
Q 254.053394 25.029655 253.384644 24.422155 
Q 252.717144 23.814655 252.717144 22.732155 
Q 252.717144 21.649655 253.384644 21.043405 
Q 254.053394 20.435905 255.237144 20.435905 
Q 255.580894 20.435905 255.914644 20.495905 
Q 256.248394 20.555905 256.580894 20.677155 
z
"/>
   </g>
  </g>
  <g id="axes_4">
   <g id="patch_17">
    <path d="M 338.249391 72.060458 
L 397.19952 72.060458 
L 397.19952 13.999219 
L 338.249391 13.999219 
z
" style="fill: #ffffff"/>
   </g>
   <g id="matplotlib.axis_7">
    <g id="xtick_10">
     <g id="line2d_42">
      <g>
       <use xlink:href="#mfefa7f8f29" x="350.977259" y="72.060458" style="stroke: #000000; stroke-width: 0.8"/>
      </g>
     </g>
     <g id="line2d_43">
      <g>
       <use xlink:href="#m54897a00b2" x="350.977259" y="13.999219" style="stroke: #000000; stroke-width: 0.8"/>
      </g>
     </g>
     <g id="text_27">
      <!-- −10 -->
      <g transform="translate(345.701088 79.359676) scale(0.05 -0.05)">
       <use xlink:href="#DejaVuSans-2212"/>
       <use xlink:href="#DejaVuSans-31" x="83.789062"/>
       <use xlink:href="#DejaVuSans-30" x="147.412109"/>
      </g>
     </g>
    </g>
    <g id="xtick_11">
     <g id="line2d_44">
      <g>
       <use xlink:href="#mfefa7f8f29" x="367.724455" y="72.060458" style="stroke: #000000; stroke-width: 0.8"/>
      </g>
     </g>
     <g id="line2d_45">
      <g>
       <use xlink:href="#m54897a00b2" x="367.724455" y="13.999219" style="stroke: #000000; stroke-width: 0.8"/>
      </g>
     </g>
     <g id="text_28">
      <!-- 0 -->
      <g transform="translate(366.13383 79.359676) scale(0.05 -0.05)">
       <use xlink:href="#DejaVuSans-30"/>
      </g>
     </g>
    </g>
    <g id="xtick_12">
     <g id="line2d_46">
      <g>
       <use xlink:href="#mfefa7f8f29" x="384.471651" y="72.060458" style="stroke: #000000; stroke-width: 0.8"/>
      </g>
     </g>
     <g id="line2d_47">
      <g>
       <use xlink:href="#m54897a00b2" x="384.471651" y="13.999219" style="stroke: #000000; stroke-width: 0.8"/>
      </g>
     </g>
     <g id="text_29">
      <!-- 10 -->
      <g transform="translate(381.290401 79.359676) scale(0.05 -0.05)">
       <use xlink:href="#DejaVuSans-31"/>
       <use xlink:href="#DejaVuSans-30" x="63.623047"/>
      </g>
     </g>
    </g>
   </g>
   <g id="matplotlib.axis_8">
    <g id="ytick_11">
     <g id="line2d_48">
      <g>
       <use xlink:href="#mcd5479254b" x="338.249391" y="62.373744" style="stroke: #000000; stroke-width: 0.8"/>
      </g>
     </g>
     <g id="line2d_49">
      <g>
       <use xlink:href="#m45c71df0aa" x="397.19952" y="62.373744" style="stroke: #000000; stroke-width: 0.8"/>
      </g>
     </g>
     <g id="text_30">
      <!-- −2 -->
      <g transform="translate(327.378297 64.273354) scale(0.05 -0.05)">
       <use xlink:href="#DejaVuSans-2212"/>
       <use xlink:href="#DejaVuSans-32" x="83.789062"/>
      </g>
     </g>
    </g>
    <g id="ytick_12">
     <g id="line2d_50">
      <g>
       <use xlink:href="#mcd5479254b" x="338.249391" y="41.651489" style="stroke: #000000; stroke-width: 0.8"/>
      </g>
     </g>
     <g id="line2d_51">
      <g>
       <use xlink:href="#m45c71df0aa" x="397.19952" y="41.651489" style="stroke: #000000; stroke-width: 0.8"/>
      </g>
     </g>
     <g id="text_31">
      <!-- 0 -->
      <g transform="translate(331.568141 43.551099) scale(0.05 -0.05)">
       <use xlink:href="#DejaVuSans-30"/>
      </g>
     </g>
    </g>
    <g id="ytick_13">
     <g id="line2d_52">
      <g>
       <use xlink:href="#mcd5479254b" x="338.249391" y="20.929234" style="stroke: #000000; stroke-width: 0.8"/>
      </g>
     </g>
     <g id="line2d_53">
      <g>
       <use xlink:href="#m45c71df0aa" x="397.19952" y="20.929234" style="stroke: #000000; stroke-width: 0.8"/>
      </g>
     </g>
     <g id="text_32">
      <!-- 2 -->
      <g transform="translate(331.568141 22.828844) scale(0.05 -0.05)">
       <use xlink:href="#DejaVuSans-32"/>
      </g>
     </g>
    </g>
    <g id="text_33">
     <!-- Phase  -->
     <g transform="translate(315.411797 52.940619) rotate(-90) scale(0.06 -0.06)">
      <defs>
       <path id="DejaVuSans-50" d="M 1259 4147 
L 1259 2394 
L 2053 2394 
Q 2494 2394 2734 2622 
Q 2975 2850 2975 3272 
Q 2975 3691 2734 3919 
Q 2494 4147 2053 4147 
L 1259 4147 
z
M 628 4666 
L 2053 4666 
Q 2838 4666 3239 4311 
Q 3641 3956 3641 3272 
Q 3641 2581 3239 2228 
Q 2838 1875 2053 1875 
L 1259 1875 
L 1259 0 
L 628 0 
L 628 4666 
z
" transform="scale(0.015625)"/>
       <path id="DejaVuSans-68" d="M 3513 2113 
L 3513 0 
L 2938 0 
L 2938 2094 
Q 2938 2591 2744 2837 
Q 2550 3084 2163 3084 
Q 1697 3084 1428 2787 
Q 1159 2491 1159 1978 
L 1159 0 
L 581 0 
L 581 4863 
L 1159 4863 
L 1159 2956 
Q 1366 3272 1645 3428 
Q 1925 3584 2291 3584 
Q 2894 3584 3203 3211 
Q 3513 2838 3513 2113 
z
" transform="scale(0.015625)"/>
      </defs>
      <use xlink:href="#DejaVuSans-50"/>
      <use xlink:href="#DejaVuSans-68" x="60.302734"/>
      <use xlink:href="#DejaVuSans-61" x="123.681641"/>
      <use xlink:href="#DejaVuSans-73" x="184.960938"/>
      <use xlink:href="#DejaVuSans-65" x="237.060547"/>
      <use xlink:href="#DejaVuSans-20" x="298.583984"/>
     </g>
     <!--  (rad) -->
     <g transform="translate(322.130484 51.300463) rotate(-90) scale(0.06 -0.06)">
      <use xlink:href="#DejaVuSans-20"/>
      <use xlink:href="#DejaVuSans-28" x="31.787109"/>
      <use xlink:href="#DejaVuSans-72" x="70.800781"/>
      <use xlink:href="#DejaVuSans-61" x="111.914062"/>
      <use xlink:href="#DejaVuSans-64" x="173.193359"/>
      <use xlink:href="#DejaVuSans-29" x="236.669922"/>
     </g>
    </g>
   </g>
   <g id="line2d_54">
    <path d="M 367.724455 26.325353 
L 368.840935 26.023173 
L 371.073894 26.303441 
L 374.423334 25.907706 
L 375.539813 26.231778 
L 377.772773 26.112162 
L 378.889252 25.688143 
L 380.005733 25.609291 
L 381.122212 25.713715 
L 382.238692 27.067392 
L 383.355171 36.329519 
L 384.471651 56.089715 
L 385.588131 57.652415 
L 386.70461 58.841252 
L 387.82109 58.120132 
L 388.937571 58.262232 
L 390.054049 58.785958 
L 392.28701 58.387387 
L 393.403488 58.707432 
L 394.519969 58.893578 
L 392.28701 58.422803 
L 391.170529 58.808526 
L 390.054049 58.775229 
L 388.937571 58.48754 
L 387.82109 59.208201 
L 386.70461 58.791763 
L 384.471651 58.887491 
L 383.355171 58.247729 
L 382.238692 59.228581 
L 380.005733 58.536224 
L 378.889252 59.289194 
L 377.772773 58.348067 
L 376.656293 58.807518 
L 375.539813 58.855345 
L 373.306854 58.512277 
L 371.073894 58.640804 
L 368.840935 58.641481 
L 367.724455 58.727456 
L 366.607976 59.076196 
L 365.491496 58.756381 
L 364.375016 59.104091 
L 363.258536 58.685259 
L 362.142057 58.929429 
L 359.909098 59.052133 
L 358.792617 58.56216 
L 357.676138 59.397348 
L 356.559658 69.42131 
L 355.443178 26.125472 
L 354.326699 25.978707 
L 353.210218 26.419782 
L 352.09374 26.225173 
L 350.977259 26.409061 
L 348.744301 26.087281 
L 346.51134 26.470274 
L 345.394861 26.24536 
L 344.278381 26.570267 
L 343.161901 26.102938 
L 342.045422 26.085394 
L 340.928942 26.254549 
L 342.045422 26.089297 
L 343.161901 26.254969 
L 344.278381 26.190989 
L 345.394861 25.946633 
L 347.62782 26.589624 
L 348.744301 26.359536 
L 350.977259 26.187017 
L 354.326699 26.252474 
L 355.443178 26.376591 
L 356.559658 26.175718 
L 357.676138 26.356651 
L 358.792617 25.765705 
L 359.909098 26.302349 
L 362.142057 26.257257 
L 363.258536 26.140328 
L 365.491496 26.367254 
L 366.607976 26.020149 
L 368.840935 26.299242 
L 369.957415 26.440117 
L 371.073894 26.018271 
L 372.190374 26.616728 
L 373.306854 26.133357 
L 375.539813 26.023054 
L 376.656293 26.427242 
L 377.772773 26.125887 
L 378.889252 26.507205 
L 380.005733 25.674551 
L 381.122212 26.455472 
L 382.238692 66.465288 
L 383.355171 17.247953 
L 384.471651 58.069185 
L 385.588131 57.456811 
L 386.70461 57.83202 
L 387.82109 58.895443 
L 388.937571 58.575578 
L 390.054049 58.858594 
L 391.170529 58.931457 
L 392.28701 58.733081 
L 393.403488 58.825277 
L 394.519969 58.524055 
L 393.403488 58.753713 
L 392.28701 58.528668 
L 390.054049 58.946521 
L 387.82109 58.923896 
L 386.70461 58.640421 
L 384.471651 58.773633 
L 383.355171 58.558622 
L 382.238692 58.851949 
L 381.122212 58.512504 
L 380.005733 58.91272 
L 378.889252 59.061019 
L 377.772773 58.715221 
L 375.539813 58.639702 
L 374.423334 59.040553 
L 373.306854 58.786862 
L 372.190374 59.044093 
L 371.073894 59.048776 
L 367.724455 58.421645 
L 366.607976 58.901021 
L 365.491496 58.531343 
L 364.375016 58.468195 
L 363.258536 58.773073 
L 362.142057 58.391043 
L 361.025577 58.497915 
L 359.909098 58.204546 
L 358.792617 59.107317 
L 357.676138 58.941143 
L 356.559658 16.638366 
L 355.443178 24.333097 
L 354.326699 24.441622 
L 352.09374 26.60618 
L 350.977259 26.218414 
L 348.744301 25.977912 
L 347.62782 26.30395 
L 345.394861 26.194936 
L 344.278381 26.54792 
L 342.045422 26.198252 
L 340.928942 26.154108 
L 342.045422 26.536863 
L 343.161901 26.468753 
L 344.278381 25.976148 
L 346.51134 26.424283 
L 349.860779 26.035554 
L 350.977259 26.645269 
L 352.09374 26.139009 
L 354.326699 26.075375 
L 355.443178 26.418547 
L 356.559658 26.255449 
L 357.676138 26.446071 
L 358.792617 26.215944 
L 359.909098 26.19878 
L 361.025577 26.511079 
L 362.142057 26.029131 
L 363.258536 25.869056 
L 364.375016 26.194897 
L 365.491496 25.94025 
L 366.607976 26.457305 
L 366.607976 26.457305 
" clip-path="url(#pd9280f8cac)" style="fill: none; stroke: #1f77b4; stroke-width: 0.5; stroke-linecap: square"/>
   </g>
   <g id="patch_18">
    <path d="M 338.249391 72.060458 
L 338.249391 13.999219 
" style="fill: none; stroke: #000000; stroke-width: 0.5; stroke-linejoin: miter; stroke-linecap: square"/>
   </g>
   <g id="patch_19">
    <path d="M 397.19952 72.060458 
L 397.19952 13.999219 
" style="fill: none; stroke: #000000; stroke-width: 0.5; stroke-linejoin: miter; stroke-linecap: square"/>
   </g>
   <g id="patch_20">
    <path d="M 338.249391 72.060458 
L 397.19952 72.060458 
" style="fill: none; stroke: #000000; stroke-width: 0.5; stroke-linejoin: miter; stroke-linecap: square"/>
   </g>
   <g id="patch_21">
    <path d="M 338.249391 13.999219 
L 397.19952 13.999219 
" style="fill: none; stroke: #000000; stroke-width: 0.5; stroke-linejoin: miter; stroke-linecap: square"/>
   </g>
   <g id="text_34">
    <path d="M 347.877535 21.180905 
L 347.877535 18.837155 
L 349.283785 18.837155 
L 349.283785 24.915905 
L 347.877535 24.915905 
L 347.877535 24.283405 
Q 347.588785 24.669655 347.240035 24.849655 
Q 346.892535 25.029655 346.436285 25.029655 
Q 345.627535 25.029655 345.107535 24.387155 
Q 344.588785 23.743405 344.588785 22.732155 
Q 344.588785 21.720905 345.107535 21.078405 
Q 345.627535 20.435905 346.436285 20.435905 
Q 346.888785 20.435905 347.238785 20.617155 
Q 347.588785 20.798405 347.877535 21.180905 
z
M 346.955035 24.013405 
Q 347.405035 24.013405 347.641285 23.685905 
Q 347.877535 23.357155 347.877535 22.732155 
Q 347.877535 22.107155 347.641285 21.779655 
Q 347.405035 21.450905 346.955035 21.450905 
Q 346.510035 21.450905 346.273785 21.779655 
Q 346.037535 22.107155 346.037535 22.732155 
Q 346.037535 23.357155 346.273785 23.685905 
Q 346.510035 24.013405 346.955035 24.013405 
z
"/>
    <path d="M 347.877535 21.180905 
L 347.877535 18.837155 
L 349.283785 18.837155 
L 349.283785 24.915905 
L 347.877535 24.915905 
L 347.877535 24.283405 
Q 347.588785 24.669655 347.240035 24.849655 
Q 346.892535 25.029655 346.436285 25.029655 
Q 345.627535 25.029655 345.107535 24.387155 
Q 344.588785 23.743405 344.588785 22.732155 
Q 344.588785 21.720905 345.107535 21.078405 
Q 345.627535 20.435905 346.436285 20.435905 
Q 346.888785 20.435905 347.238785 20.617155 
Q 347.588785 20.798405 347.877535 21.180905 
z
M 346.955035 24.013405 
Q 347.405035 24.013405 347.641285 23.685905 
Q 347.877535 23.357155 347.877535 22.732155 
Q 347.877535 22.107155 347.641285 21.779655 
Q 347.405035 21.450905 346.955035 21.450905 
Q 346.510035 21.450905 346.273785 21.779655 
Q 346.037535 22.107155 346.037535 22.732155 
Q 346.037535 23.357155 346.273785 23.685905 
Q 346.510035 24.013405 346.955035 24.013405 
z
"/>
   </g>
  </g>
 </g>
 <defs>
  <clipPath id="p71536d9694">
   <rect x="47.902125" y="13.999219" width="58.950129" height="58.061239"/>
  </clipPath>
  <clipPath id="pcae5bfaabc">
   <rect x="147.192359" y="13.999219" width="58.950129" height="58.061239"/>
  </clipPath>
  <clipPath id="pd20a46e041">
   <rect x="245.902125" y="13.999219" width="58.950129" height="58.061239"/>
  </clipPath>
  <clipPath id="pd9280f8cac">
   <rect x="338.249391" y="13.999219" width="58.950129" height="58.061239"/>
  </clipPath>
 </defs>
</svg>
