<?xml version="1.0" encoding="utf-8" standalone="no"?>
<!DOCTYPE svg PUBLIC "-//W3C//DTD SVG 1.1//EN"
  "http://www.w3.org/Graphics/SVG/1.1/DTD/svg11.dtd">
<svg xmlns:xlink="http://www.w3.org/1999/xlink" width="2154.269375pt" height="423.7075pt" viewBox="0 0 2154.269375 423.7075" xmlns="http://www.w3.org/2000/svg" version="1.1">
 <metadata>
  <rdf:RDF xmlns:dc="http://purl.org/dc/elements/1.1/" xmlns:cc="http://creativecommons.org/ns#" xmlns:rdf="http://www.w3.org/1999/02/22-rdf-syntax-ns#">
   <cc:Work>
    <dc:type rdf:resource="http://purl.org/dc/dcmitype/StillImage"/>
    <dc:date>2023-03-23T14:53:11.113935</dc:date>
    <dc:format>image/svg+xml</dc:format>
    <dc:creator>
     <cc:Agent>
      <dc:title>Matplotlib v3.6.2, https://matplotlib.org/</dc:title>
     </cc:Agent>
    </dc:creator>
   </cc:Work>
  </rdf:RDF>
 </metadata>
 <defs>
  <style type="text/css">*{stroke-linejoin: round; stroke-linecap: butt}</style>
 </defs>
 <g id="figure_1">
  <g id="patch_1">
   <path d="M 0 423.7075 
L 2154.269375 423.7075 
L 2154.269375 0 
L 0 0 
z
" style="fill: #ffffff"/>
  </g>
  <g id="axes_1">
   <g id="patch_2">
    <path d="M 88.079375 399.458125 
L 541.446875 399.458125 
L 541.446875 22.318125 
L 88.079375 22.318125 
z
" style="fill: #ffffff"/>
   </g>
   <g id="matplotlib.axis_1">
    <g id="xtick_1">
     <g id="line2d_1">
      <defs>
       <path id="mff62555f99" d="M 0 0 
L 0 -3.5 
" style="stroke: #000000; stroke-width: 0.8"/>
      </defs>
      <g>
       <use xlink:href="#mff62555f99" x="121.566747" y="399.458125" style="stroke: #000000; stroke-width: 0.8"/>
      </g>
     </g>
     <g id="line2d_2">
      <defs>
       <path id="m4ce20115fb" d="M 0 0 
L 0 3.5 
" style="stroke: #000000; stroke-width: 0.8"/>
      </defs>
      <g>
       <use xlink:href="#m4ce20115fb" x="121.566747" y="22.318125" style="stroke: #000000; stroke-width: 0.8"/>
      </g>
     </g>
     <g id="text_1">
      <!-- −15 -->
      <g transform="translate(106.793466 413.595937) scale(0.14 -0.14)">
       <defs>
        <path id="DejaVuSans-2212" d="M 678 2272 
L 4684 2272 
L 4684 1741 
L 678 1741 
L 678 2272 
z
" transform="scale(0.015625)"/>
        <path id="DejaVuSans-31" d="M 794 531 
L 1825 531 
L 1825 4091 
L 703 3866 
L 703 4441 
L 1819 4666 
L 2450 4666 
L 2450 531 
L 3481 531 
L 3481 0 
L 794 0 
L 794 531 
z
" transform="scale(0.015625)"/>
        <path id="DejaVuSans-35" d="M 691 4666 
L 3169 4666 
L 3169 4134 
L 1269 4134 
L 1269 2991 
Q 1406 3038 1543 3061 
Q 1681 3084 1819 3084 
Q 2600 3084 3056 2656 
Q 3513 2228 3513 1497 
Q 3513 744 3044 326 
Q 2575 -91 1722 -91 
Q 1428 -91 1123 -41 
Q 819 9 494 109 
L 494 744 
Q 775 591 1075 516 
Q 1375 441 1709 441 
Q 2250 441 2565 725 
Q 2881 1009 2881 1497 
Q 2881 1984 2565 2268 
Q 2250 2553 1709 2553 
Q 1456 2553 1204 2497 
Q 953 2441 691 2322 
L 691 4666 
z
" transform="scale(0.015625)"/>
       </defs>
       <use xlink:href="#DejaVuSans-2212"/>
       <use xlink:href="#DejaVuSans-31" x="83.789062"/>
       <use xlink:href="#DejaVuSans-35" x="147.412109"/>
      </g>
     </g>
    </g>
    <g id="xtick_2">
     <g id="line2d_3">
      <g>
       <use xlink:href="#mff62555f99" x="185.96554" y="399.458125" style="stroke: #000000; stroke-width: 0.8"/>
      </g>
     </g>
     <g id="line2d_4">
      <g>
       <use xlink:href="#m4ce20115fb" x="185.96554" y="22.318125" style="stroke: #000000; stroke-width: 0.8"/>
      </g>
     </g>
     <g id="text_2">
      <!-- −10 -->
      <g transform="translate(171.192259 413.595937) scale(0.14 -0.14)">
       <defs>
        <path id="DejaVuSans-30" d="M 2034 4250 
Q 1547 4250 1301 3770 
Q 1056 3291 1056 2328 
Q 1056 1369 1301 889 
Q 1547 409 2034 409 
Q 2525 409 2770 889 
Q 3016 1369 3016 2328 
Q 3016 3291 2770 3770 
Q 2525 4250 2034 4250 
z
M 2034 4750 
Q 2819 4750 3233 4129 
Q 3647 3509 3647 2328 
Q 3647 1150 3233 529 
Q 2819 -91 2034 -91 
Q 1250 -91 836 529 
Q 422 1150 422 2328 
Q 422 3509 836 4129 
Q 1250 4750 2034 4750 
z
" transform="scale(0.015625)"/>
       </defs>
       <use xlink:href="#DejaVuSans-2212"/>
       <use xlink:href="#DejaVuSans-31" x="83.789062"/>
       <use xlink:href="#DejaVuSans-30" x="147.412109"/>
      </g>
     </g>
    </g>
    <g id="xtick_3">
     <g id="line2d_5">
      <g>
       <use xlink:href="#mff62555f99" x="250.364332" y="399.458125" style="stroke: #000000; stroke-width: 0.8"/>
      </g>
     </g>
     <g id="line2d_6">
      <g>
       <use xlink:href="#m4ce20115fb" x="250.364332" y="22.318125" style="stroke: #000000; stroke-width: 0.8"/>
      </g>
     </g>
     <g id="text_3">
      <!-- −5 -->
      <g transform="translate(240.044801 413.595937) scale(0.14 -0.14)">
       <use xlink:href="#DejaVuSans-2212"/>
       <use xlink:href="#DejaVuSans-35" x="83.789062"/>
      </g>
     </g>
    </g>
    <g id="xtick_4">
     <g id="line2d_7">
      <g>
       <use xlink:href="#mff62555f99" x="314.763125" y="399.458125" style="stroke: #000000; stroke-width: 0.8"/>
      </g>
     </g>
     <g id="line2d_8">
      <g>
       <use xlink:href="#m4ce20115fb" x="314.763125" y="22.318125" style="stroke: #000000; stroke-width: 0.8"/>
      </g>
     </g>
     <g id="text_4">
      <!-- 0 -->
      <g transform="translate(310.309375 413.595937) scale(0.14 -0.14)">
       <use xlink:href="#DejaVuSans-30"/>
      </g>
     </g>
    </g>
    <g id="xtick_5">
     <g id="line2d_9">
      <g>
       <use xlink:href="#mff62555f99" x="379.161918" y="399.458125" style="stroke: #000000; stroke-width: 0.8"/>
      </g>
     </g>
     <g id="line2d_10">
      <g>
       <use xlink:href="#m4ce20115fb" x="379.161918" y="22.318125" style="stroke: #000000; stroke-width: 0.8"/>
      </g>
     </g>
     <g id="text_5">
      <!-- 5 -->
      <g transform="translate(374.708168 413.595937) scale(0.14 -0.14)">
       <use xlink:href="#DejaVuSans-35"/>
      </g>
     </g>
    </g>
    <g id="xtick_6">
     <g id="line2d_11">
      <g>
       <use xlink:href="#mff62555f99" x="443.56071" y="399.458125" style="stroke: #000000; stroke-width: 0.8"/>
      </g>
     </g>
     <g id="line2d_12">
      <g>
       <use xlink:href="#m4ce20115fb" x="443.56071" y="22.318125" style="stroke: #000000; stroke-width: 0.8"/>
      </g>
     </g>
     <g id="text_6">
      <!-- 10 -->
      <g transform="translate(434.65321 413.595937) scale(0.14 -0.14)">
       <use xlink:href="#DejaVuSans-31"/>
       <use xlink:href="#DejaVuSans-30" x="63.623047"/>
      </g>
     </g>
    </g>
    <g id="xtick_7">
     <g id="line2d_13">
      <g>
       <use xlink:href="#mff62555f99" x="507.959503" y="399.458125" style="stroke: #000000; stroke-width: 0.8"/>
      </g>
     </g>
     <g id="line2d_14">
      <g>
       <use xlink:href="#m4ce20115fb" x="507.959503" y="22.318125" style="stroke: #000000; stroke-width: 0.8"/>
      </g>
     </g>
     <g id="text_7">
      <!-- 15 -->
      <g transform="translate(499.052003 413.595937) scale(0.14 -0.14)">
       <use xlink:href="#DejaVuSans-31"/>
       <use xlink:href="#DejaVuSans-35" x="63.623047"/>
      </g>
     </g>
    </g>
   </g>
   <g id="matplotlib.axis_2">
    <g id="ytick_1">
     <g id="line2d_15">
      <defs>
       <path id="mb89b58f545" d="M 0 0 
L 3.5 0 
" style="stroke: #000000; stroke-width: 0.8"/>
      </defs>
      <g>
       <use xlink:href="#mb89b58f545" x="88.079375" y="393.31507" style="stroke: #000000; stroke-width: 0.8"/>
      </g>
     </g>
     <g id="line2d_16">
      <defs>
       <path id="mfab5221db9" d="M 0 0 
L -3.5 0 
" style="stroke: #000000; stroke-width: 0.8"/>
      </defs>
      <g>
       <use xlink:href="#mfab5221db9" x="541.446875" y="393.31507" style="stroke: #000000; stroke-width: 0.8"/>
      </g>
     </g>
     <g id="text_8">
      <!-- 0.00000 -->
      <g transform="translate(26.685 398.633976) scale(0.14 -0.14)">
       <defs>
        <path id="DejaVuSans-2e" d="M 684 794 
L 1344 794 
L 1344 0 
L 684 0 
L 684 794 
z
" transform="scale(0.015625)"/>
       </defs>
       <use xlink:href="#DejaVuSans-30"/>
       <use xlink:href="#DejaVuSans-2e" x="63.623047"/>
       <use xlink:href="#DejaVuSans-30" x="95.410156"/>
       <use xlink:href="#DejaVuSans-30" x="159.033203"/>
       <use xlink:href="#DejaVuSans-30" x="222.65625"/>
       <use xlink:href="#DejaVuSans-30" x="286.279297"/>
       <use xlink:href="#DejaVuSans-30" x="349.902344"/>
      </g>
     </g>
    </g>
    <g id="ytick_2">
     <g id="line2d_17">
      <g>
       <use xlink:href="#mb89b58f545" x="88.079375" y="324.635368" style="stroke: #000000; stroke-width: 0.8"/>
      </g>
     </g>
     <g id="line2d_18">
      <g>
       <use xlink:href="#mfab5221db9" x="541.446875" y="324.635368" style="stroke: #000000; stroke-width: 0.8"/>
      </g>
     </g>
     <g id="text_9">
      <!-- 0.00002 -->
      <g transform="translate(26.685 329.954275) scale(0.14 -0.14)">
       <defs>
        <path id="DejaVuSans-32" d="M 1228 531 
L 3431 531 
L 3431 0 
L 469 0 
L 469 531 
Q 828 903 1448 1529 
Q 2069 2156 2228 2338 
Q 2531 2678 2651 2914 
Q 2772 3150 2772 3378 
Q 2772 3750 2511 3984 
Q 2250 4219 1831 4219 
Q 1534 4219 1204 4116 
Q 875 4013 500 3803 
L 500 4441 
Q 881 4594 1212 4672 
Q 1544 4750 1819 4750 
Q 2544 4750 2975 4387 
Q 3406 4025 3406 3419 
Q 3406 3131 3298 2873 
Q 3191 2616 2906 2266 
Q 2828 2175 2409 1742 
Q 1991 1309 1228 531 
z
" transform="scale(0.015625)"/>
       </defs>
       <use xlink:href="#DejaVuSans-30"/>
       <use xlink:href="#DejaVuSans-2e" x="63.623047"/>
       <use xlink:href="#DejaVuSans-30" x="95.410156"/>
       <use xlink:href="#DejaVuSans-30" x="159.033203"/>
       <use xlink:href="#DejaVuSans-30" x="222.65625"/>
       <use xlink:href="#DejaVuSans-30" x="286.279297"/>
       <use xlink:href="#DejaVuSans-32" x="349.902344"/>
      </g>
     </g>
    </g>
    <g id="ytick_3">
     <g id="line2d_19">
      <g>
       <use xlink:href="#mb89b58f545" x="88.079375" y="255.955667" style="stroke: #000000; stroke-width: 0.8"/>
      </g>
     </g>
     <g id="line2d_20">
      <g>
       <use xlink:href="#mfab5221db9" x="541.446875" y="255.955667" style="stroke: #000000; stroke-width: 0.8"/>
      </g>
     </g>
     <g id="text_10">
      <!-- 0.00004 -->
      <g transform="translate(26.685 261.274573) scale(0.14 -0.14)">
       <defs>
        <path id="DejaVuSans-34" d="M 2419 4116 
L 825 1625 
L 2419 1625 
L 2419 4116 
z
M 2253 4666 
L 3047 4666 
L 3047 1625 
L 3713 1625 
L 3713 1100 
L 3047 1100 
L 3047 0 
L 2419 0 
L 2419 1100 
L 313 1100 
L 313 1709 
L 2253 4666 
z
" transform="scale(0.015625)"/>
       </defs>
       <use xlink:href="#DejaVuSans-30"/>
       <use xlink:href="#DejaVuSans-2e" x="63.623047"/>
       <use xlink:href="#DejaVuSans-30" x="95.410156"/>
       <use xlink:href="#DejaVuSans-30" x="159.033203"/>
       <use xlink:href="#DejaVuSans-30" x="222.65625"/>
       <use xlink:href="#DejaVuSans-30" x="286.279297"/>
       <use xlink:href="#DejaVuSans-34" x="349.902344"/>
      </g>
     </g>
    </g>
    <g id="ytick_4">
     <g id="line2d_21">
      <g>
       <use xlink:href="#mb89b58f545" x="88.079375" y="187.275966" style="stroke: #000000; stroke-width: 0.8"/>
      </g>
     </g>
     <g id="line2d_22">
      <g>
       <use xlink:href="#mfab5221db9" x="541.446875" y="187.275966" style="stroke: #000000; stroke-width: 0.8"/>
      </g>
     </g>
     <g id="text_11">
      <!-- 0.00006 -->
      <g transform="translate(26.685 192.594872) scale(0.14 -0.14)">
       <defs>
        <path id="DejaVuSans-36" d="M 2113 2584 
Q 1688 2584 1439 2293 
Q 1191 2003 1191 1497 
Q 1191 994 1439 701 
Q 1688 409 2113 409 
Q 2538 409 2786 701 
Q 3034 994 3034 1497 
Q 3034 2003 2786 2293 
Q 2538 2584 2113 2584 
z
M 3366 4563 
L 3366 3988 
Q 3128 4100 2886 4159 
Q 2644 4219 2406 4219 
Q 1781 4219 1451 3797 
Q 1122 3375 1075 2522 
Q 1259 2794 1537 2939 
Q 1816 3084 2150 3084 
Q 2853 3084 3261 2657 
Q 3669 2231 3669 1497 
Q 3669 778 3244 343 
Q 2819 -91 2113 -91 
Q 1303 -91 875 529 
Q 447 1150 447 2328 
Q 447 3434 972 4092 
Q 1497 4750 2381 4750 
Q 2619 4750 2861 4703 
Q 3103 4656 3366 4563 
z
" transform="scale(0.015625)"/>
       </defs>
       <use xlink:href="#DejaVuSans-30"/>
       <use xlink:href="#DejaVuSans-2e" x="63.623047"/>
       <use xlink:href="#DejaVuSans-30" x="95.410156"/>
       <use xlink:href="#DejaVuSans-30" x="159.033203"/>
       <use xlink:href="#DejaVuSans-30" x="222.65625"/>
       <use xlink:href="#DejaVuSans-30" x="286.279297"/>
       <use xlink:href="#DejaVuSans-36" x="349.902344"/>
      </g>
     </g>
    </g>
    <g id="ytick_5">
     <g id="line2d_23">
      <g>
       <use xlink:href="#mb89b58f545" x="88.079375" y="118.596264" style="stroke: #000000; stroke-width: 0.8"/>
      </g>
     </g>
     <g id="line2d_24">
      <g>
       <use xlink:href="#mfab5221db9" x="541.446875" y="118.596264" style="stroke: #000000; stroke-width: 0.8"/>
      </g>
     </g>
     <g id="text_12">
      <!-- 0.00008 -->
      <g transform="translate(26.685 123.915171) scale(0.14 -0.14)">
       <defs>
        <path id="DejaVuSans-38" d="M 2034 2216 
Q 1584 2216 1326 1975 
Q 1069 1734 1069 1313 
Q 1069 891 1326 650 
Q 1584 409 2034 409 
Q 2484 409 2743 651 
Q 3003 894 3003 1313 
Q 3003 1734 2745 1975 
Q 2488 2216 2034 2216 
z
M 1403 2484 
Q 997 2584 770 2862 
Q 544 3141 544 3541 
Q 544 4100 942 4425 
Q 1341 4750 2034 4750 
Q 2731 4750 3128 4425 
Q 3525 4100 3525 3541 
Q 3525 3141 3298 2862 
Q 3072 2584 2669 2484 
Q 3125 2378 3379 2068 
Q 3634 1759 3634 1313 
Q 3634 634 3220 271 
Q 2806 -91 2034 -91 
Q 1263 -91 848 271 
Q 434 634 434 1313 
Q 434 1759 690 2068 
Q 947 2378 1403 2484 
z
M 1172 3481 
Q 1172 3119 1398 2916 
Q 1625 2713 2034 2713 
Q 2441 2713 2670 2916 
Q 2900 3119 2900 3481 
Q 2900 3844 2670 4047 
Q 2441 4250 2034 4250 
Q 1625 4250 1398 4047 
Q 1172 3844 1172 3481 
z
" transform="scale(0.015625)"/>
       </defs>
       <use xlink:href="#DejaVuSans-30"/>
       <use xlink:href="#DejaVuSans-2e" x="63.623047"/>
       <use xlink:href="#DejaVuSans-30" x="95.410156"/>
       <use xlink:href="#DejaVuSans-30" x="159.033203"/>
       <use xlink:href="#DejaVuSans-30" x="222.65625"/>
       <use xlink:href="#DejaVuSans-30" x="286.279297"/>
       <use xlink:href="#DejaVuSans-38" x="349.902344"/>
      </g>
     </g>
    </g>
    <g id="ytick_6">
     <g id="line2d_25">
      <g>
       <use xlink:href="#mb89b58f545" x="88.079375" y="49.916563" style="stroke: #000000; stroke-width: 0.8"/>
      </g>
     </g>
     <g id="line2d_26">
      <g>
       <use xlink:href="#mfab5221db9" x="541.446875" y="49.916563" style="stroke: #000000; stroke-width: 0.8"/>
      </g>
     </g>
     <g id="text_13">
      <!-- 0.00010 -->
      <g transform="translate(26.685 55.235469) scale(0.14 -0.14)">
       <use xlink:href="#DejaVuSans-30"/>
       <use xlink:href="#DejaVuSans-2e" x="63.623047"/>
       <use xlink:href="#DejaVuSans-30" x="95.410156"/>
       <use xlink:href="#DejaVuSans-30" x="159.033203"/>
       <use xlink:href="#DejaVuSans-30" x="222.65625"/>
       <use xlink:href="#DejaVuSans-31" x="286.279297"/>
       <use xlink:href="#DejaVuSans-30" x="349.902344"/>
      </g>
     </g>
    </g>
    <g id="text_14">
     <!-- Ampltude (Arb. U.) -->
     <g transform="translate(19.3575 285.769375) rotate(-90) scale(0.16 -0.16)">
      <defs>
       <path id="DejaVuSans-41" d="M 2188 4044 
L 1331 1722 
L 3047 1722 
L 2188 4044 
z
M 1831 4666 
L 2547 4666 
L 4325 0 
L 3669 0 
L 3244 1197 
L 1141 1197 
L 716 0 
L 50 0 
L 1831 4666 
z
" transform="scale(0.015625)"/>
       <path id="DejaVuSans-6d" d="M 3328 2828 
Q 3544 3216 3844 3400 
Q 4144 3584 4550 3584 
Q 5097 3584 5394 3201 
Q 5691 2819 5691 2113 
L 5691 0 
L 5113 0 
L 5113 2094 
Q 5113 2597 4934 2840 
Q 4756 3084 4391 3084 
Q 3944 3084 3684 2787 
Q 3425 2491 3425 1978 
L 3425 0 
L 2847 0 
L 2847 2094 
Q 2847 2600 2669 2842 
Q 2491 3084 2119 3084 
Q 1678 3084 1418 2786 
Q 1159 2488 1159 1978 
L 1159 0 
L 581 0 
L 581 3500 
L 1159 3500 
L 1159 2956 
Q 1356 3278 1631 3431 
Q 1906 3584 2284 3584 
Q 2666 3584 2933 3390 
Q 3200 3197 3328 2828 
z
" transform="scale(0.015625)"/>
       <path id="DejaVuSans-70" d="M 1159 525 
L 1159 -1331 
L 581 -1331 
L 581 3500 
L 1159 3500 
L 1159 2969 
Q 1341 3281 1617 3432 
Q 1894 3584 2278 3584 
Q 2916 3584 3314 3078 
Q 3713 2572 3713 1747 
Q 3713 922 3314 415 
Q 2916 -91 2278 -91 
Q 1894 -91 1617 61 
Q 1341 213 1159 525 
z
M 3116 1747 
Q 3116 2381 2855 2742 
Q 2594 3103 2138 3103 
Q 1681 3103 1420 2742 
Q 1159 2381 1159 1747 
Q 1159 1113 1420 752 
Q 1681 391 2138 391 
Q 2594 391 2855 752 
Q 3116 1113 3116 1747 
z
" transform="scale(0.015625)"/>
       <path id="DejaVuSans-6c" d="M 603 4863 
L 1178 4863 
L 1178 0 
L 603 0 
L 603 4863 
z
" transform="scale(0.015625)"/>
       <path id="DejaVuSans-74" d="M 1172 4494 
L 1172 3500 
L 2356 3500 
L 2356 3053 
L 1172 3053 
L 1172 1153 
Q 1172 725 1289 603 
Q 1406 481 1766 481 
L 2356 481 
L 2356 0 
L 1766 0 
Q 1100 0 847 248 
Q 594 497 594 1153 
L 594 3053 
L 172 3053 
L 172 3500 
L 594 3500 
L 594 4494 
L 1172 4494 
z
" transform="scale(0.015625)"/>
       <path id="DejaVuSans-75" d="M 544 1381 
L 544 3500 
L 1119 3500 
L 1119 1403 
Q 1119 906 1312 657 
Q 1506 409 1894 409 
Q 2359 409 2629 706 
Q 2900 1003 2900 1516 
L 2900 3500 
L 3475 3500 
L 3475 0 
L 2900 0 
L 2900 538 
Q 2691 219 2414 64 
Q 2138 -91 1772 -91 
Q 1169 -91 856 284 
Q 544 659 544 1381 
z
M 1991 3584 
L 1991 3584 
z
" transform="scale(0.015625)"/>
       <path id="DejaVuSans-64" d="M 2906 2969 
L 2906 4863 
L 3481 4863 
L 3481 0 
L 2906 0 
L 2906 525 
Q 2725 213 2448 61 
Q 2172 -91 1784 -91 
Q 1150 -91 751 415 
Q 353 922 353 1747 
Q 353 2572 751 3078 
Q 1150 3584 1784 3584 
Q 2172 3584 2448 3432 
Q 2725 3281 2906 2969 
z
M 947 1747 
Q 947 1113 1208 752 
Q 1469 391 1925 391 
Q 2381 391 2643 752 
Q 2906 1113 2906 1747 
Q 2906 2381 2643 2742 
Q 2381 3103 1925 3103 
Q 1469 3103 1208 2742 
Q 947 2381 947 1747 
z
" transform="scale(0.015625)"/>
       <path id="DejaVuSans-65" d="M 3597 1894 
L 3597 1613 
L 953 1613 
Q 991 1019 1311 708 
Q 1631 397 2203 397 
Q 2534 397 2845 478 
Q 3156 559 3463 722 
L 3463 178 
Q 3153 47 2828 -22 
Q 2503 -91 2169 -91 
Q 1331 -91 842 396 
Q 353 884 353 1716 
Q 353 2575 817 3079 
Q 1281 3584 2069 3584 
Q 2775 3584 3186 3129 
Q 3597 2675 3597 1894 
z
M 3022 2063 
Q 3016 2534 2758 2815 
Q 2500 3097 2075 3097 
Q 1594 3097 1305 2825 
Q 1016 2553 972 2059 
L 3022 2063 
z
" transform="scale(0.015625)"/>
       <path id="DejaVuSans-20" transform="scale(0.015625)"/>
       <path id="DejaVuSans-28" d="M 1984 4856 
Q 1566 4138 1362 3434 
Q 1159 2731 1159 2009 
Q 1159 1288 1364 580 
Q 1569 -128 1984 -844 
L 1484 -844 
Q 1016 -109 783 600 
Q 550 1309 550 2009 
Q 550 2706 781 3412 
Q 1013 4119 1484 4856 
L 1984 4856 
z
" transform="scale(0.015625)"/>
       <path id="DejaVuSans-72" d="M 2631 2963 
Q 2534 3019 2420 3045 
Q 2306 3072 2169 3072 
Q 1681 3072 1420 2755 
Q 1159 2438 1159 1844 
L 1159 0 
L 581 0 
L 581 3500 
L 1159 3500 
L 1159 2956 
Q 1341 3275 1631 3429 
Q 1922 3584 2338 3584 
Q 2397 3584 2469 3576 
Q 2541 3569 2628 3553 
L 2631 2963 
z
" transform="scale(0.015625)"/>
       <path id="DejaVuSans-62" d="M 3116 1747 
Q 3116 2381 2855 2742 
Q 2594 3103 2138 3103 
Q 1681 3103 1420 2742 
Q 1159 2381 1159 1747 
Q 1159 1113 1420 752 
Q 1681 391 2138 391 
Q 2594 391 2855 752 
Q 3116 1113 3116 1747 
z
M 1159 2969 
Q 1341 3281 1617 3432 
Q 1894 3584 2278 3584 
Q 2916 3584 3314 3078 
Q 3713 2572 3713 1747 
Q 3713 922 3314 415 
Q 2916 -91 2278 -91 
Q 1894 -91 1617 61 
Q 1341 213 1159 525 
L 1159 0 
L 581 0 
L 581 4863 
L 1159 4863 
L 1159 2969 
z
" transform="scale(0.015625)"/>
       <path id="DejaVuSans-55" d="M 556 4666 
L 1191 4666 
L 1191 1831 
Q 1191 1081 1462 751 
Q 1734 422 2344 422 
Q 2950 422 3222 751 
Q 3494 1081 3494 1831 
L 3494 4666 
L 4128 4666 
L 4128 1753 
Q 4128 841 3676 375 
Q 3225 -91 2344 -91 
Q 1459 -91 1007 375 
Q 556 841 556 1753 
L 556 4666 
z
" transform="scale(0.015625)"/>
       <path id="DejaVuSans-29" d="M 513 4856 
L 1013 4856 
Q 1481 4119 1714 3412 
Q 1947 2706 1947 2009 
Q 1947 1309 1714 600 
Q 1481 -109 1013 -844 
L 513 -844 
Q 928 -128 1133 580 
Q 1338 1288 1338 2009 
Q 1338 2731 1133 3434 
Q 928 4138 513 4856 
z
" transform="scale(0.015625)"/>
      </defs>
      <use xlink:href="#DejaVuSans-41"/>
      <use xlink:href="#DejaVuSans-6d" x="68.408203"/>
      <use xlink:href="#DejaVuSans-70" x="165.820312"/>
      <use xlink:href="#DejaVuSans-6c" x="229.296875"/>
      <use xlink:href="#DejaVuSans-74" x="257.080078"/>
      <use xlink:href="#DejaVuSans-75" x="296.289062"/>
      <use xlink:href="#DejaVuSans-64" x="359.667969"/>
      <use xlink:href="#DejaVuSans-65" x="423.144531"/>
      <use xlink:href="#DejaVuSans-20" x="484.667969"/>
      <use xlink:href="#DejaVuSans-28" x="516.455078"/>
      <use xlink:href="#DejaVuSans-41" x="555.46875"/>
      <use xlink:href="#DejaVuSans-72" x="623.876953"/>
      <use xlink:href="#DejaVuSans-62" x="664.990234"/>
      <use xlink:href="#DejaVuSans-2e" x="728.466797"/>
      <use xlink:href="#DejaVuSans-20" x="760.253906"/>
      <use xlink:href="#DejaVuSans-55" x="792.041016"/>
      <use xlink:href="#DejaVuSans-2e" x="865.234375"/>
      <use xlink:href="#DejaVuSans-29" x="897.021484"/>
     </g>
    </g>
   </g>
   <g id="line2d_27">
    <path d="M 314.763125 174.959379 
L 323.349631 172.336398 
L 331.936137 172.420824 
L 340.522642 180.268105 
L 349.109149 179.716924 
L 357.695652 192.793988 
L 366.282159 203.129689 
L 374.868663 226.63675 
L 383.455173 241.097975 
L 392.041676 265.265429 
L 400.62818 273.692586 
L 409.21469 328.876926 
L 417.801193 313.994932 
L 426.387703 381.986388 
L 434.9742 355.045927 
L 443.56071 300.386645 
L 452.14722 278.449681 
L 460.733717 219.662027 
L 469.320227 185.674274 
L 486.493235 122.06139 
L 495.079744 107.597541 
L 503.666254 101.87543 
L 512.252752 84.88437 
L 520.839261 58.612461 
L 512.252752 58.722972 
L 503.666254 55.414713 
L 495.079744 54.26208 
L 486.493235 60.731484 
L 477.906737 39.460852 
L 469.320227 65.653233 
L 460.733717 62.394295 
L 452.14722 65.605686 
L 443.56071 61.795967 
L 434.9742 77.307683 
L 426.387703 72.710496 
L 417.801193 65.084837 
L 409.21469 72.690133 
L 400.62818 79.694951 
L 392.041676 66.442501 
L 383.455173 73.510633 
L 374.868663 67.725683 
L 366.282159 82.876059 
L 357.695652 90.970696 
L 340.522642 94.372076 
L 331.936137 97.391477 
L 323.349631 96.727637 
L 314.763125 101.988015 
L 306.176619 105.858049 
L 297.590113 126.753822 
L 289.003608 139.75909 
L 280.417101 143.686516 
L 271.830598 180.737882 
L 263.244091 219.555089 
L 254.657587 250.607643 
L 246.071077 320.603936 
L 237.484574 362.089151 
L 228.89807 294.751515 
L 220.31156 254.809747 
L 211.725057 210.57534 
L 203.138547 189.420129 
L 194.55205 176.613971 
L 185.96554 175.803265 
L 177.37903 150.873153 
L 168.792533 115.66272 
L 160.206023 129.920788 
L 151.619513 114.887819 
L 143.033015 115.263851 
L 134.446506 96.733658 
L 125.859996 80.311344 
L 117.273498 85.570898 
L 108.686989 72.993107 
L 117.273498 75.313164 
L 125.859996 72.168385 
L 134.446506 67.918521 
L 143.033015 73.664443 
L 151.619513 74.025359 
L 160.206023 56.641077 
L 168.792533 87.426273 
L 177.37903 89.712274 
L 185.96554 77.683816 
L 194.55205 64.670652 
L 203.138547 89.759247 
L 211.725057 93.5527 
L 220.31156 99.261119 
L 228.89807 99.000395 
L 237.484574 119.239324 
L 246.071077 113.393435 
L 254.657587 109.789797 
L 263.244091 122.969714 
L 271.830598 109.259129 
L 280.417101 137.191602 
L 289.003608 120.001807 
L 297.590113 124.60759 
L 306.176619 123.128547 
L 314.763125 136.164672 
L 323.349631 142.966333 
L 331.936137 135.201205 
L 340.522642 140.555979 
L 349.109149 155.942842 
L 357.695652 176.859379 
L 366.282159 187.217642 
L 374.868663 211.791073 
L 383.455173 238.892665 
L 392.041676 249.317727 
L 400.62818 277.178242 
L 409.21469 293.215648 
L 417.801193 344.669171 
L 426.387703 382.315398 
L 434.9742 337.94598 
L 443.56071 295.027611 
L 452.14722 259.411856 
L 460.733717 231.68715 
L 469.320227 210.343249 
L 477.906737 182.821051 
L 486.493235 145.686657 
L 495.079744 130.924207 
L 503.666254 114.669895 
L 512.252752 87.616488 
L 520.839261 61.969092 
L 512.252752 46.823088 
L 503.666254 65.772314 
L 495.079744 71.070546 
L 486.493235 48.039509 
L 477.906737 59.637692 
L 469.320227 64.806898 
L 460.733717 55.403844 
L 452.14722 67.329812 
L 443.56071 80.875167 
L 434.9742 62.093944 
L 426.387703 61.59171 
L 417.801193 70.249496 
L 409.21469 89.679269 
L 400.62818 83.475711 
L 392.041676 86.412261 
L 383.455173 82.26014 
L 374.868663 94.112476 
L 366.282159 83.854217 
L 357.695652 91.42858 
L 349.109149 87.92436 
L 340.522642 89.944015 
L 331.936137 87.335126 
L 323.349631 115.838843 
L 314.763125 115.323067 
L 306.176619 119.220535 
L 297.590113 133.218228 
L 289.003608 141.499982 
L 280.417101 167.599991 
L 271.830598 182.457686 
L 263.244091 229.626319 
L 254.657587 286.852414 
L 246.071077 353.772933 
L 237.484574 340.737282 
L 228.89807 270.364338 
L 220.31156 225.260323 
L 211.725057 189.996995 
L 203.138547 180.334691 
L 194.55205 174.920502 
L 185.96554 161.639368 
L 177.37903 144.42946 
L 168.792533 125.380817 
L 160.206023 118.34754 
L 151.619513 119.60014 
L 143.033015 109.759864 
L 134.446506 83.791329 
L 125.859996 98.958545 
L 117.273498 72.497045 
L 108.686989 77.862687 
L 117.273498 76.869737 
L 125.859996 73.593984 
L 134.446506 84.717992 
L 143.033015 86.579639 
L 151.619513 92.527969 
L 160.206023 82.522963 
L 168.792533 82.334922 
L 177.37903 91.885866 
L 185.96554 91.384956 
L 194.55205 103.05842 
L 203.138547 100.978425 
L 211.725057 94.042916 
L 220.31156 99.669208 
L 228.89807 110.806958 
L 237.484574 113.338591 
L 246.071077 115.562428 
L 254.657587 108.096727 
L 263.244091 114.204965 
L 271.830598 114.8771 
L 280.417101 125.931024 
L 289.003608 132.626121 
L 297.590113 140.29498 
L 306.176619 146.853856 
L 306.176619 146.853856 
" clip-path="url(#p112c7d41de)" style="fill: none; stroke: #1f77b4; stroke-width: 1.5; stroke-linecap: square"/>
   </g>
   <g id="patch_3">
    <path d="M 88.079375 399.458125 
L 88.079375 22.318125 
" style="fill: none; stroke: #000000; stroke-width: 0.8; stroke-linejoin: miter; stroke-linecap: square"/>
   </g>
   <g id="patch_4">
    <path d="M 541.446875 399.458125 
L 541.446875 22.318125 
" style="fill: none; stroke: #000000; stroke-width: 0.8; stroke-linejoin: miter; stroke-linecap: square"/>
   </g>
   <g id="patch_5">
    <path d="M 88.079375 399.458125 
L 541.446875 399.458125 
" style="fill: none; stroke: #000000; stroke-width: 0.8; stroke-linejoin: miter; stroke-linecap: square"/>
   </g>
   <g id="patch_6">
    <path d="M 88.079375 22.318125 
L 541.446875 22.318125 
" style="fill: none; stroke: #000000; stroke-width: 0.8; stroke-linejoin: miter; stroke-linecap: square"/>
   </g>
   <g id="text_15">
    <!-- Amplitude -->
    <g transform="translate(284.015938 16.318125) scale(0.12 -0.12)">
     <defs>
      <path id="DejaVuSans-69" d="M 603 3500 
L 1178 3500 
L 1178 0 
L 603 0 
L 603 3500 
z
M 603 4863 
L 1178 4863 
L 1178 4134 
L 603 4134 
L 603 4863 
z
" transform="scale(0.015625)"/>
     </defs>
     <use xlink:href="#DejaVuSans-41"/>
     <use xlink:href="#DejaVuSans-6d" x="68.408203"/>
     <use xlink:href="#DejaVuSans-70" x="165.820312"/>
     <use xlink:href="#DejaVuSans-6c" x="229.296875"/>
     <use xlink:href="#DejaVuSans-69" x="257.080078"/>
     <use xlink:href="#DejaVuSans-74" x="284.863281"/>
     <use xlink:href="#DejaVuSans-75" x="324.072266"/>
     <use xlink:href="#DejaVuSans-64" x="387.451172"/>
     <use xlink:href="#DejaVuSans-65" x="450.927734"/>
    </g>
   </g>
  </g>
  <g id="axes_2">
   <g id="patch_7">
    <path d="M 623.286875 399.458125 
L 1076.654375 399.458125 
L 1076.654375 22.318125 
L 623.286875 22.318125 
z
" style="fill: #ffffff"/>
   </g>
   <g id="matplotlib.axis_3">
    <g id="xtick_8">
     <g id="line2d_28">
      <g>
       <use xlink:href="#mff62555f99" x="656.774247" y="399.458125" style="stroke: #000000; stroke-width: 0.8"/>
      </g>
     </g>
     <g id="line2d_29">
      <g>
       <use xlink:href="#m4ce20115fb" x="656.774247" y="22.318125" style="stroke: #000000; stroke-width: 0.8"/>
      </g>
     </g>
     <g id="text_16">
      <!-- −15 -->
      <g transform="translate(642.000966 413.595937) scale(0.14 -0.14)">
       <use xlink:href="#DejaVuSans-2212"/>
       <use xlink:href="#DejaVuSans-31" x="83.789062"/>
       <use xlink:href="#DejaVuSans-35" x="147.412109"/>
      </g>
     </g>
    </g>
    <g id="xtick_9">
     <g id="line2d_30">
      <g>
       <use xlink:href="#mff62555f99" x="721.17304" y="399.458125" style="stroke: #000000; stroke-width: 0.8"/>
      </g>
     </g>
     <g id="line2d_31">
      <g>
       <use xlink:href="#m4ce20115fb" x="721.17304" y="22.318125" style="stroke: #000000; stroke-width: 0.8"/>
      </g>
     </g>
     <g id="text_17">
      <!-- −10 -->
      <g transform="translate(706.399759 413.595937) scale(0.14 -0.14)">
       <use xlink:href="#DejaVuSans-2212"/>
       <use xlink:href="#DejaVuSans-31" x="83.789062"/>
       <use xlink:href="#DejaVuSans-30" x="147.412109"/>
      </g>
     </g>
    </g>
    <g id="xtick_10">
     <g id="line2d_32">
      <g>
       <use xlink:href="#mff62555f99" x="785.571832" y="399.458125" style="stroke: #000000; stroke-width: 0.8"/>
      </g>
     </g>
     <g id="line2d_33">
      <g>
       <use xlink:href="#m4ce20115fb" x="785.571832" y="22.318125" style="stroke: #000000; stroke-width: 0.8"/>
      </g>
     </g>
     <g id="text_18">
      <!-- −5 -->
      <g transform="translate(775.252301 413.595937) scale(0.14 -0.14)">
       <use xlink:href="#DejaVuSans-2212"/>
       <use xlink:href="#DejaVuSans-35" x="83.789062"/>
      </g>
     </g>
    </g>
    <g id="xtick_11">
     <g id="line2d_34">
      <g>
       <use xlink:href="#mff62555f99" x="849.970625" y="399.458125" style="stroke: #000000; stroke-width: 0.8"/>
      </g>
     </g>
     <g id="line2d_35">
      <g>
       <use xlink:href="#m4ce20115fb" x="849.970625" y="22.318125" style="stroke: #000000; stroke-width: 0.8"/>
      </g>
     </g>
     <g id="text_19">
      <!-- 0 -->
      <g transform="translate(845.516875 413.595937) scale(0.14 -0.14)">
       <use xlink:href="#DejaVuSans-30"/>
      </g>
     </g>
    </g>
    <g id="xtick_12">
     <g id="line2d_36">
      <g>
       <use xlink:href="#mff62555f99" x="914.369418" y="399.458125" style="stroke: #000000; stroke-width: 0.8"/>
      </g>
     </g>
     <g id="line2d_37">
      <g>
       <use xlink:href="#m4ce20115fb" x="914.369418" y="22.318125" style="stroke: #000000; stroke-width: 0.8"/>
      </g>
     </g>
     <g id="text_20">
      <!-- 5 -->
      <g transform="translate(909.915668 413.595937) scale(0.14 -0.14)">
       <use xlink:href="#DejaVuSans-35"/>
      </g>
     </g>
    </g>
    <g id="xtick_13">
     <g id="line2d_38">
      <g>
       <use xlink:href="#mff62555f99" x="978.76821" y="399.458125" style="stroke: #000000; stroke-width: 0.8"/>
      </g>
     </g>
     <g id="line2d_39">
      <g>
       <use xlink:href="#m4ce20115fb" x="978.76821" y="22.318125" style="stroke: #000000; stroke-width: 0.8"/>
      </g>
     </g>
     <g id="text_21">
      <!-- 10 -->
      <g transform="translate(969.86071 413.595937) scale(0.14 -0.14)">
       <use xlink:href="#DejaVuSans-31"/>
       <use xlink:href="#DejaVuSans-30" x="63.623047"/>
      </g>
     </g>
    </g>
    <g id="xtick_14">
     <g id="line2d_40">
      <g>
       <use xlink:href="#mff62555f99" x="1043.167003" y="399.458125" style="stroke: #000000; stroke-width: 0.8"/>
      </g>
     </g>
     <g id="line2d_41">
      <g>
       <use xlink:href="#m4ce20115fb" x="1043.167003" y="22.318125" style="stroke: #000000; stroke-width: 0.8"/>
      </g>
     </g>
     <g id="text_22">
      <!-- 15 -->
      <g transform="translate(1034.259503 413.595937) scale(0.14 -0.14)">
       <use xlink:href="#DejaVuSans-31"/>
       <use xlink:href="#DejaVuSans-35" x="63.623047"/>
      </g>
     </g>
    </g>
   </g>
   <g id="matplotlib.axis_4">
    <g id="ytick_7">
     <g id="line2d_42">
      <g>
       <use xlink:href="#mb89b58f545" x="623.286875" y="374.684965" style="stroke: #000000; stroke-width: 0.8"/>
      </g>
     </g>
     <g id="line2d_43">
      <g>
       <use xlink:href="#mfab5221db9" x="1076.654375" y="374.684965" style="stroke: #000000; stroke-width: 0.8"/>
      </g>
     </g>
     <g id="text_23">
      <!-- 1.3100 -->
      <g transform="translate(570.8 380.003872) scale(0.14 -0.14)">
       <defs>
        <path id="DejaVuSans-33" d="M 2597 2516 
Q 3050 2419 3304 2112 
Q 3559 1806 3559 1356 
Q 3559 666 3084 287 
Q 2609 -91 1734 -91 
Q 1441 -91 1130 -33 
Q 819 25 488 141 
L 488 750 
Q 750 597 1062 519 
Q 1375 441 1716 441 
Q 2309 441 2620 675 
Q 2931 909 2931 1356 
Q 2931 1769 2642 2001 
Q 2353 2234 1838 2234 
L 1294 2234 
L 1294 2753 
L 1863 2753 
Q 2328 2753 2575 2939 
Q 2822 3125 2822 3475 
Q 2822 3834 2567 4026 
Q 2313 4219 1838 4219 
Q 1578 4219 1281 4162 
Q 984 4106 628 3988 
L 628 4550 
Q 988 4650 1302 4700 
Q 1616 4750 1894 4750 
Q 2613 4750 3031 4423 
Q 3450 4097 3450 3541 
Q 3450 3153 3228 2886 
Q 3006 2619 2597 2516 
z
" transform="scale(0.015625)"/>
       </defs>
       <use xlink:href="#DejaVuSans-31"/>
       <use xlink:href="#DejaVuSans-2e" x="63.623047"/>
       <use xlink:href="#DejaVuSans-33" x="95.410156"/>
       <use xlink:href="#DejaVuSans-31" x="159.033203"/>
       <use xlink:href="#DejaVuSans-30" x="222.65625"/>
       <use xlink:href="#DejaVuSans-30" x="286.279297"/>
      </g>
     </g>
    </g>
    <g id="ytick_8">
     <g id="line2d_44">
      <g>
       <use xlink:href="#mb89b58f545" x="623.286875" y="330.296179" style="stroke: #000000; stroke-width: 0.8"/>
      </g>
     </g>
     <g id="line2d_45">
      <g>
       <use xlink:href="#mfab5221db9" x="1076.654375" y="330.296179" style="stroke: #000000; stroke-width: 0.8"/>
      </g>
     </g>
     <g id="text_24">
      <!-- 1.3125 -->
      <g transform="translate(570.8 335.615085) scale(0.14 -0.14)">
       <use xlink:href="#DejaVuSans-31"/>
       <use xlink:href="#DejaVuSans-2e" x="63.623047"/>
       <use xlink:href="#DejaVuSans-33" x="95.410156"/>
       <use xlink:href="#DejaVuSans-31" x="159.033203"/>
       <use xlink:href="#DejaVuSans-32" x="222.65625"/>
       <use xlink:href="#DejaVuSans-35" x="286.279297"/>
      </g>
     </g>
    </g>
    <g id="ytick_9">
     <g id="line2d_46">
      <g>
       <use xlink:href="#mb89b58f545" x="623.286875" y="285.907393" style="stroke: #000000; stroke-width: 0.8"/>
      </g>
     </g>
     <g id="line2d_47">
      <g>
       <use xlink:href="#mfab5221db9" x="1076.654375" y="285.907393" style="stroke: #000000; stroke-width: 0.8"/>
      </g>
     </g>
     <g id="text_25">
      <!-- 1.3150 -->
      <g transform="translate(570.8 291.226299) scale(0.14 -0.14)">
       <use xlink:href="#DejaVuSans-31"/>
       <use xlink:href="#DejaVuSans-2e" x="63.623047"/>
       <use xlink:href="#DejaVuSans-33" x="95.410156"/>
       <use xlink:href="#DejaVuSans-31" x="159.033203"/>
       <use xlink:href="#DejaVuSans-35" x="222.65625"/>
       <use xlink:href="#DejaVuSans-30" x="286.279297"/>
      </g>
     </g>
    </g>
    <g id="ytick_10">
     <g id="line2d_48">
      <g>
       <use xlink:href="#mb89b58f545" x="623.286875" y="241.518607" style="stroke: #000000; stroke-width: 0.8"/>
      </g>
     </g>
     <g id="line2d_49">
      <g>
       <use xlink:href="#mfab5221db9" x="1076.654375" y="241.518607" style="stroke: #000000; stroke-width: 0.8"/>
      </g>
     </g>
     <g id="text_26">
      <!-- 1.3175 -->
      <g transform="translate(570.8 246.837513) scale(0.14 -0.14)">
       <defs>
        <path id="DejaVuSans-37" d="M 525 4666 
L 3525 4666 
L 3525 4397 
L 1831 0 
L 1172 0 
L 2766 4134 
L 525 4134 
L 525 4666 
z
" transform="scale(0.015625)"/>
       </defs>
       <use xlink:href="#DejaVuSans-31"/>
       <use xlink:href="#DejaVuSans-2e" x="63.623047"/>
       <use xlink:href="#DejaVuSans-33" x="95.410156"/>
       <use xlink:href="#DejaVuSans-31" x="159.033203"/>
       <use xlink:href="#DejaVuSans-37" x="222.65625"/>
       <use xlink:href="#DejaVuSans-35" x="286.279297"/>
      </g>
     </g>
    </g>
    <g id="ytick_11">
     <g id="line2d_50">
      <g>
       <use xlink:href="#mb89b58f545" x="623.286875" y="197.129821" style="stroke: #000000; stroke-width: 0.8"/>
      </g>
     </g>
     <g id="line2d_51">
      <g>
       <use xlink:href="#mfab5221db9" x="1076.654375" y="197.129821" style="stroke: #000000; stroke-width: 0.8"/>
      </g>
     </g>
     <g id="text_27">
      <!-- 1.3200 -->
      <g transform="translate(570.8 202.448727) scale(0.14 -0.14)">
       <use xlink:href="#DejaVuSans-31"/>
       <use xlink:href="#DejaVuSans-2e" x="63.623047"/>
       <use xlink:href="#DejaVuSans-33" x="95.410156"/>
       <use xlink:href="#DejaVuSans-32" x="159.033203"/>
       <use xlink:href="#DejaVuSans-30" x="222.65625"/>
       <use xlink:href="#DejaVuSans-30" x="286.279297"/>
      </g>
     </g>
    </g>
    <g id="ytick_12">
     <g id="line2d_52">
      <g>
       <use xlink:href="#mb89b58f545" x="623.286875" y="152.741035" style="stroke: #000000; stroke-width: 0.8"/>
      </g>
     </g>
     <g id="line2d_53">
      <g>
       <use xlink:href="#mfab5221db9" x="1076.654375" y="152.741035" style="stroke: #000000; stroke-width: 0.8"/>
      </g>
     </g>
     <g id="text_28">
      <!-- 1.3225 -->
      <g transform="translate(570.8 158.059941) scale(0.14 -0.14)">
       <use xlink:href="#DejaVuSans-31"/>
       <use xlink:href="#DejaVuSans-2e" x="63.623047"/>
       <use xlink:href="#DejaVuSans-33" x="95.410156"/>
       <use xlink:href="#DejaVuSans-32" x="159.033203"/>
       <use xlink:href="#DejaVuSans-32" x="222.65625"/>
       <use xlink:href="#DejaVuSans-35" x="286.279297"/>
      </g>
     </g>
    </g>
    <g id="ytick_13">
     <g id="line2d_54">
      <g>
       <use xlink:href="#mb89b58f545" x="623.286875" y="108.352248" style="stroke: #000000; stroke-width: 0.8"/>
      </g>
     </g>
     <g id="line2d_55">
      <g>
       <use xlink:href="#mfab5221db9" x="1076.654375" y="108.352248" style="stroke: #000000; stroke-width: 0.8"/>
      </g>
     </g>
     <g id="text_29">
      <!-- 1.3250 -->
      <g transform="translate(570.8 113.671155) scale(0.14 -0.14)">
       <use xlink:href="#DejaVuSans-31"/>
       <use xlink:href="#DejaVuSans-2e" x="63.623047"/>
       <use xlink:href="#DejaVuSans-33" x="95.410156"/>
       <use xlink:href="#DejaVuSans-32" x="159.033203"/>
       <use xlink:href="#DejaVuSans-35" x="222.65625"/>
       <use xlink:href="#DejaVuSans-30" x="286.279297"/>
      </g>
     </g>
    </g>
    <g id="ytick_14">
     <g id="line2d_56">
      <g>
       <use xlink:href="#mb89b58f545" x="623.286875" y="63.963462" style="stroke: #000000; stroke-width: 0.8"/>
      </g>
     </g>
     <g id="line2d_57">
      <g>
       <use xlink:href="#mfab5221db9" x="1076.654375" y="63.963462" style="stroke: #000000; stroke-width: 0.8"/>
      </g>
     </g>
     <g id="text_30">
      <!-- 1.3275 -->
      <g transform="translate(570.8 69.282368) scale(0.14 -0.14)">
       <use xlink:href="#DejaVuSans-31"/>
       <use xlink:href="#DejaVuSans-2e" x="63.623047"/>
       <use xlink:href="#DejaVuSans-33" x="95.410156"/>
       <use xlink:href="#DejaVuSans-32" x="159.033203"/>
       <use xlink:href="#DejaVuSans-37" x="222.65625"/>
       <use xlink:href="#DejaVuSans-35" x="286.279297"/>
      </g>
     </g>
    </g>
    <g id="text_31">
     <!-- Resonance Frequency (Hz) -->
     <g transform="translate(563.4725 317.305625) rotate(-90) scale(0.16 -0.16)">
      <defs>
       <path id="DejaVuSans-52" d="M 2841 2188 
Q 3044 2119 3236 1894 
Q 3428 1669 3622 1275 
L 4263 0 
L 3584 0 
L 2988 1197 
Q 2756 1666 2539 1819 
Q 2322 1972 1947 1972 
L 1259 1972 
L 1259 0 
L 628 0 
L 628 4666 
L 2053 4666 
Q 2853 4666 3247 4331 
Q 3641 3997 3641 3322 
Q 3641 2881 3436 2590 
Q 3231 2300 2841 2188 
z
M 1259 4147 
L 1259 2491 
L 2053 2491 
Q 2509 2491 2742 2702 
Q 2975 2913 2975 3322 
Q 2975 3731 2742 3939 
Q 2509 4147 2053 4147 
L 1259 4147 
z
" transform="scale(0.015625)"/>
       <path id="DejaVuSans-73" d="M 2834 3397 
L 2834 2853 
Q 2591 2978 2328 3040 
Q 2066 3103 1784 3103 
Q 1356 3103 1142 2972 
Q 928 2841 928 2578 
Q 928 2378 1081 2264 
Q 1234 2150 1697 2047 
L 1894 2003 
Q 2506 1872 2764 1633 
Q 3022 1394 3022 966 
Q 3022 478 2636 193 
Q 2250 -91 1575 -91 
Q 1294 -91 989 -36 
Q 684 19 347 128 
L 347 722 
Q 666 556 975 473 
Q 1284 391 1588 391 
Q 1994 391 2212 530 
Q 2431 669 2431 922 
Q 2431 1156 2273 1281 
Q 2116 1406 1581 1522 
L 1381 1569 
Q 847 1681 609 1914 
Q 372 2147 372 2553 
Q 372 3047 722 3315 
Q 1072 3584 1716 3584 
Q 2034 3584 2315 3537 
Q 2597 3491 2834 3397 
z
" transform="scale(0.015625)"/>
       <path id="DejaVuSans-6f" d="M 1959 3097 
Q 1497 3097 1228 2736 
Q 959 2375 959 1747 
Q 959 1119 1226 758 
Q 1494 397 1959 397 
Q 2419 397 2687 759 
Q 2956 1122 2956 1747 
Q 2956 2369 2687 2733 
Q 2419 3097 1959 3097 
z
M 1959 3584 
Q 2709 3584 3137 3096 
Q 3566 2609 3566 1747 
Q 3566 888 3137 398 
Q 2709 -91 1959 -91 
Q 1206 -91 779 398 
Q 353 888 353 1747 
Q 353 2609 779 3096 
Q 1206 3584 1959 3584 
z
" transform="scale(0.015625)"/>
       <path id="DejaVuSans-6e" d="M 3513 2113 
L 3513 0 
L 2938 0 
L 2938 2094 
Q 2938 2591 2744 2837 
Q 2550 3084 2163 3084 
Q 1697 3084 1428 2787 
Q 1159 2491 1159 1978 
L 1159 0 
L 581 0 
L 581 3500 
L 1159 3500 
L 1159 2956 
Q 1366 3272 1645 3428 
Q 1925 3584 2291 3584 
Q 2894 3584 3203 3211 
Q 3513 2838 3513 2113 
z
" transform="scale(0.015625)"/>
       <path id="DejaVuSans-61" d="M 2194 1759 
Q 1497 1759 1228 1600 
Q 959 1441 959 1056 
Q 959 750 1161 570 
Q 1363 391 1709 391 
Q 2188 391 2477 730 
Q 2766 1069 2766 1631 
L 2766 1759 
L 2194 1759 
z
M 3341 1997 
L 3341 0 
L 2766 0 
L 2766 531 
Q 2569 213 2275 61 
Q 1981 -91 1556 -91 
Q 1019 -91 701 211 
Q 384 513 384 1019 
Q 384 1609 779 1909 
Q 1175 2209 1959 2209 
L 2766 2209 
L 2766 2266 
Q 2766 2663 2505 2880 
Q 2244 3097 1772 3097 
Q 1472 3097 1187 3025 
Q 903 2953 641 2809 
L 641 3341 
Q 956 3463 1253 3523 
Q 1550 3584 1831 3584 
Q 2591 3584 2966 3190 
Q 3341 2797 3341 1997 
z
" transform="scale(0.015625)"/>
       <path id="DejaVuSans-63" d="M 3122 3366 
L 3122 2828 
Q 2878 2963 2633 3030 
Q 2388 3097 2138 3097 
Q 1578 3097 1268 2742 
Q 959 2388 959 1747 
Q 959 1106 1268 751 
Q 1578 397 2138 397 
Q 2388 397 2633 464 
Q 2878 531 3122 666 
L 3122 134 
Q 2881 22 2623 -34 
Q 2366 -91 2075 -91 
Q 1284 -91 818 406 
Q 353 903 353 1747 
Q 353 2603 823 3093 
Q 1294 3584 2113 3584 
Q 2378 3584 2631 3529 
Q 2884 3475 3122 3366 
z
" transform="scale(0.015625)"/>
       <path id="DejaVuSans-46" d="M 628 4666 
L 3309 4666 
L 3309 4134 
L 1259 4134 
L 1259 2759 
L 3109 2759 
L 3109 2228 
L 1259 2228 
L 1259 0 
L 628 0 
L 628 4666 
z
" transform="scale(0.015625)"/>
       <path id="DejaVuSans-71" d="M 947 1747 
Q 947 1113 1208 752 
Q 1469 391 1925 391 
Q 2381 391 2643 752 
Q 2906 1113 2906 1747 
Q 2906 2381 2643 2742 
Q 2381 3103 1925 3103 
Q 1469 3103 1208 2742 
Q 947 2381 947 1747 
z
M 2906 525 
Q 2725 213 2448 61 
Q 2172 -91 1784 -91 
Q 1150 -91 751 415 
Q 353 922 353 1747 
Q 353 2572 751 3078 
Q 1150 3584 1784 3584 
Q 2172 3584 2448 3432 
Q 2725 3281 2906 2969 
L 2906 3500 
L 3481 3500 
L 3481 -1331 
L 2906 -1331 
L 2906 525 
z
" transform="scale(0.015625)"/>
       <path id="DejaVuSans-79" d="M 2059 -325 
Q 1816 -950 1584 -1140 
Q 1353 -1331 966 -1331 
L 506 -1331 
L 506 -850 
L 844 -850 
Q 1081 -850 1212 -737 
Q 1344 -625 1503 -206 
L 1606 56 
L 191 3500 
L 800 3500 
L 1894 763 
L 2988 3500 
L 3597 3500 
L 2059 -325 
z
" transform="scale(0.015625)"/>
       <path id="DejaVuSans-48" d="M 628 4666 
L 1259 4666 
L 1259 2753 
L 3553 2753 
L 3553 4666 
L 4184 4666 
L 4184 0 
L 3553 0 
L 3553 2222 
L 1259 2222 
L 1259 0 
L 628 0 
L 628 4666 
z
" transform="scale(0.015625)"/>
       <path id="DejaVuSans-7a" d="M 353 3500 
L 3084 3500 
L 3084 2975 
L 922 459 
L 3084 459 
L 3084 0 
L 275 0 
L 275 525 
L 2438 3041 
L 353 3041 
L 353 3500 
z
" transform="scale(0.015625)"/>
      </defs>
      <use xlink:href="#DejaVuSans-52"/>
      <use xlink:href="#DejaVuSans-65" x="64.982422"/>
      <use xlink:href="#DejaVuSans-73" x="126.505859"/>
      <use xlink:href="#DejaVuSans-6f" x="178.605469"/>
      <use xlink:href="#DejaVuSans-6e" x="239.787109"/>
      <use xlink:href="#DejaVuSans-61" x="303.166016"/>
      <use xlink:href="#DejaVuSans-6e" x="364.445312"/>
      <use xlink:href="#DejaVuSans-63" x="427.824219"/>
      <use xlink:href="#DejaVuSans-65" x="482.804688"/>
      <use xlink:href="#DejaVuSans-20" x="544.328125"/>
      <use xlink:href="#DejaVuSans-46" x="576.115234"/>
      <use xlink:href="#DejaVuSans-72" x="626.384766"/>
      <use xlink:href="#DejaVuSans-65" x="665.248047"/>
      <use xlink:href="#DejaVuSans-71" x="726.771484"/>
      <use xlink:href="#DejaVuSans-75" x="790.248047"/>
      <use xlink:href="#DejaVuSans-65" x="853.626953"/>
      <use xlink:href="#DejaVuSans-6e" x="915.150391"/>
      <use xlink:href="#DejaVuSans-63" x="978.529297"/>
      <use xlink:href="#DejaVuSans-79" x="1033.509766"/>
      <use xlink:href="#DejaVuSans-20" x="1092.689453"/>
      <use xlink:href="#DejaVuSans-28" x="1124.476562"/>
      <use xlink:href="#DejaVuSans-48" x="1163.490234"/>
      <use xlink:href="#DejaVuSans-7a" x="1238.685547"/>
      <use xlink:href="#DejaVuSans-29" x="1291.175781"/>
     </g>
    </g>
    <g id="text_32">
     <!-- 1e6 -->
     <g transform="translate(623.286875 19.318125) scale(0.14 -0.14)">
      <use xlink:href="#DejaVuSans-31"/>
      <use xlink:href="#DejaVuSans-65" x="63.623047"/>
      <use xlink:href="#DejaVuSans-36" x="125.146484"/>
     </g>
    </g>
   </g>
   <g id="line2d_58">
    <path d="M 849.970625 64.658147 
L 858.557131 65.801158 
L 867.143637 62.969153 
L 892.903152 64.380717 
L 901.489659 65.188593 
L 910.076163 66.549109 
L 918.662673 72.026685 
L 927.249176 71.431876 
L 935.83568 64.951113 
L 944.42219 68.231444 
L 953.008693 66.66452 
L 961.595203 382.315398 
L 970.1817 45.506605 
L 978.76821 71.869105 
L 987.35472 78.922483 
L 995.941217 78.560715 
L 1004.527727 82.542389 
L 1013.114237 90.039655 
L 1021.700735 91.222616 
L 1030.287244 91.748623 
L 1038.873754 83.707594 
L 1047.460252 83.121662 
L 1056.046761 92.312361 
L 1047.460252 89.999705 
L 1030.287244 91.64209 
L 1021.700735 90.379229 
L 1013.114237 90.925211 
L 1004.527727 87.3275 
L 995.941217 87.107775 
L 987.35472 86.581768 
L 978.76821 87.946723 
L 970.1817 84.306843 
L 961.595203 83.816347 
L 953.008693 83.778616 
L 944.42219 81.168556 
L 935.83568 81.517008 
L 927.249176 79.597193 
L 918.662673 79.60607 
L 910.076163 79.983375 
L 901.489659 79.930109 
L 892.903152 77.093665 
L 884.316649 73.937622 
L 875.730142 77.31117 
L 867.143637 74.825398 
L 849.970625 72.082171 
L 841.384119 73.347252 
L 832.797613 76.554341 
L 824.211108 77.362217 
L 815.624601 79.011261 
L 807.038098 84.994869 
L 798.451591 85.647384 
L 789.865087 85.199058 
L 781.278577 76.643119 
L 772.692074 81.101973 
L 764.10557 81.232919 
L 755.51906 73.160819 
L 746.932557 76.822894 
L 738.346047 77.446556 
L 729.75955 82.02304 
L 721.17304 74.086325 
L 712.58653 74.110739 
L 704.000033 73.416054 
L 695.413523 69.887146 
L 686.827013 68.735257 
L 678.240515 69.416625 
L 669.654006 69.27458 
L 661.067496 72.847878 
L 652.480998 72.432843 
L 643.894489 69.021564 
L 652.480998 70.322156 
L 661.067496 70.624 
L 669.654006 70.157917 
L 678.240515 68.448949 
L 686.827013 69.4366 
L 695.413523 65.805597 
L 704.000033 65.732355 
L 712.58653 65.246298 
L 721.17304 61.313452 
L 729.75955 62.316638 
L 738.346047 58.346061 
L 746.932557 57.937685 
L 755.51906 58.94531 
L 764.10557 56.974448 
L 772.692074 54.135785 
L 781.278577 53.296837 
L 789.865087 53.026065 
L 798.451591 51.774302 
L 807.038098 51.221661 
L 815.624601 52.6532 
L 824.211108 47.204476 
L 832.797613 48.751425 
L 841.384119 46.460964 
L 849.970625 46.363309 
L 858.557131 43.853123 
L 867.143637 47.86143 
L 875.730142 45.204761 
L 884.316649 45.40673 
L 892.903152 48.081155 
L 901.489659 46.745052 
L 910.076163 50.644607 
L 918.662673 48.609381 
L 927.249176 49.745734 
L 935.83568 47.488564 
L 944.42219 50.615754 
L 953.008693 55.411963 
L 961.595203 382.315398 
L 970.1817 73.387202 
L 978.76821 66.100782 
L 987.35472 67.669926 
L 995.941217 68.391244 
L 1004.527727 69.94929 
L 1021.700735 82.644483 
L 1030.287244 83.285901 
L 1038.873754 83.20822 
L 1047.460252 76.458906 
L 1056.046761 75.932898 
L 1047.460252 76.891696 
L 1038.873754 76.250278 
L 1030.287244 79.319763 
L 1021.700735 78.274407 
L 1013.114237 78.569592 
L 1004.527727 76.849527 
L 995.941217 79.983375 
L 987.35472 75.207142 
L 978.76821 72.217557 
L 970.1817 74.068569 
L 961.595203 74.037497 
L 953.008693 73.493735 
L 944.42219 72.497206 
L 935.83568 71.125593 
L 927.249176 70.812652 
L 918.662673 71.221029 
L 910.076163 69.298994 
L 901.489659 67.956234 
L 892.903152 69.927096 
L 884.316649 66.913097 
L 875.730142 65.5548 
L 858.557131 62.452024 
L 849.970625 61.610857 
L 841.384119 62.720576 
L 832.797613 60.711984 
L 824.211108 63.157806 
L 815.624601 67.470176 
L 807.038098 77.650744 
L 798.451591 81.601346 
L 789.865087 82.42032 
L 781.278577 70.097992 
L 772.692074 77.293415 
L 764.10557 59.327054 
L 755.51906 66.380432 
L 746.932557 66.331604 
L 738.346047 69.334505 
L 729.75955 70.777141 
L 721.17304 70.313278 
L 712.58653 65.210787 
L 704.000033 65.213007 
L 695.413523 66.122977 
L 686.827013 61.921578 
L 678.240515 61.295696 
L 669.654006 64.245331 
L 661.067496 63.231047 
L 652.480998 66.360457 
L 643.894489 60.126052 
L 652.480998 63.93461 
L 661.067496 60.816297 
L 669.654006 60.381287 
L 678.240515 59.156157 
L 686.827013 58.816582 
L 695.413523 57.456066 
L 704.000033 54.956978 
L 712.58653 57.908832 
L 721.17304 55.012464 
L 729.75955 52.351356 
L 738.346047 51.354828 
L 746.932557 51.561235 
L 755.51906 51.319316 
L 764.10557 48.460679 
L 772.692074 46.492036 
L 781.278577 43.653373 
L 789.865087 46.156901 
L 798.451591 46.216826 
L 807.038098 44.359155 
L 815.624601 41.283012 
L 824.211108 42.665723 
L 832.797613 39.460852 
L 841.384119 40.428528 
L 841.384119 40.428528 
" clip-path="url(#p703177c8b4)" style="fill: none; stroke: #1f77b4; stroke-width: 1.5; stroke-linecap: square"/>
   </g>
   <g id="patch_8">
    <path d="M 623.286875 399.458125 
L 623.286875 22.318125 
" style="fill: none; stroke: #000000; stroke-width: 0.8; stroke-linejoin: miter; stroke-linecap: square"/>
   </g>
   <g id="patch_9">
    <path d="M 1076.654375 399.458125 
L 1076.654375 22.318125 
" style="fill: none; stroke: #000000; stroke-width: 0.8; stroke-linejoin: miter; stroke-linecap: square"/>
   </g>
   <g id="patch_10">
    <path d="M 623.286875 399.458125 
L 1076.654375 399.458125 
" style="fill: none; stroke: #000000; stroke-width: 0.8; stroke-linejoin: miter; stroke-linecap: square"/>
   </g>
   <g id="patch_11">
    <path d="M 623.286875 22.318125 
L 1076.654375 22.318125 
" style="fill: none; stroke: #000000; stroke-width: 0.8; stroke-linejoin: miter; stroke-linecap: square"/>
   </g>
   <g id="text_33">
    <!-- Resonance Frequency -->
    <g transform="translate(784.4075 16.318125) scale(0.12 -0.12)">
     <use xlink:href="#DejaVuSans-52"/>
     <use xlink:href="#DejaVuSans-65" x="64.982422"/>
     <use xlink:href="#DejaVuSans-73" x="126.505859"/>
     <use xlink:href="#DejaVuSans-6f" x="178.605469"/>
     <use xlink:href="#DejaVuSans-6e" x="239.787109"/>
     <use xlink:href="#DejaVuSans-61" x="303.166016"/>
     <use xlink:href="#DejaVuSans-6e" x="364.445312"/>
     <use xlink:href="#DejaVuSans-63" x="427.824219"/>
     <use xlink:href="#DejaVuSans-65" x="482.804688"/>
     <use xlink:href="#DejaVuSans-20" x="544.328125"/>
     <use xlink:href="#DejaVuSans-46" x="576.115234"/>
     <use xlink:href="#DejaVuSans-72" x="626.384766"/>
     <use xlink:href="#DejaVuSans-65" x="665.248047"/>
     <use xlink:href="#DejaVuSans-71" x="726.771484"/>
     <use xlink:href="#DejaVuSans-75" x="790.248047"/>
     <use xlink:href="#DejaVuSans-65" x="853.626953"/>
     <use xlink:href="#DejaVuSans-6e" x="915.150391"/>
     <use xlink:href="#DejaVuSans-63" x="978.529297"/>
     <use xlink:href="#DejaVuSans-79" x="1033.509766"/>
    </g>
   </g>
  </g>
  <g id="axes_3">
   <g id="patch_12">
    <path d="M 1158.494375 399.458125 
L 1611.861875 399.458125 
L 1611.861875 22.318125 
L 1158.494375 22.318125 
z
" style="fill: #ffffff"/>
   </g>
   <g id="matplotlib.axis_5">
    <g id="xtick_15">
     <g id="line2d_59">
      <g>
       <use xlink:href="#mff62555f99" x="1191.981747" y="399.458125" style="stroke: #000000; stroke-width: 0.8"/>
      </g>
     </g>
     <g id="line2d_60">
      <g>
       <use xlink:href="#m4ce20115fb" x="1191.981747" y="22.318125" style="stroke: #000000; stroke-width: 0.8"/>
      </g>
     </g>
     <g id="text_34">
      <!-- −15 -->
      <g transform="translate(1177.208466 413.595937) scale(0.14 -0.14)">
       <use xlink:href="#DejaVuSans-2212"/>
       <use xlink:href="#DejaVuSans-31" x="83.789062"/>
       <use xlink:href="#DejaVuSans-35" x="147.412109"/>
      </g>
     </g>
    </g>
    <g id="xtick_16">
     <g id="line2d_61">
      <g>
       <use xlink:href="#mff62555f99" x="1256.38054" y="399.458125" style="stroke: #000000; stroke-width: 0.8"/>
      </g>
     </g>
     <g id="line2d_62">
      <g>
       <use xlink:href="#m4ce20115fb" x="1256.38054" y="22.318125" style="stroke: #000000; stroke-width: 0.8"/>
      </g>
     </g>
     <g id="text_35">
      <!-- −10 -->
      <g transform="translate(1241.607259 413.595937) scale(0.14 -0.14)">
       <use xlink:href="#DejaVuSans-2212"/>
       <use xlink:href="#DejaVuSans-31" x="83.789062"/>
       <use xlink:href="#DejaVuSans-30" x="147.412109"/>
      </g>
     </g>
    </g>
    <g id="xtick_17">
     <g id="line2d_63">
      <g>
       <use xlink:href="#mff62555f99" x="1320.779332" y="399.458125" style="stroke: #000000; stroke-width: 0.8"/>
      </g>
     </g>
     <g id="line2d_64">
      <g>
       <use xlink:href="#m4ce20115fb" x="1320.779332" y="22.318125" style="stroke: #000000; stroke-width: 0.8"/>
      </g>
     </g>
     <g id="text_36">
      <!-- −5 -->
      <g transform="translate(1310.459801 413.595937) scale(0.14 -0.14)">
       <use xlink:href="#DejaVuSans-2212"/>
       <use xlink:href="#DejaVuSans-35" x="83.789062"/>
      </g>
     </g>
    </g>
    <g id="xtick_18">
     <g id="line2d_65">
      <g>
       <use xlink:href="#mff62555f99" x="1385.178125" y="399.458125" style="stroke: #000000; stroke-width: 0.8"/>
      </g>
     </g>
     <g id="line2d_66">
      <g>
       <use xlink:href="#m4ce20115fb" x="1385.178125" y="22.318125" style="stroke: #000000; stroke-width: 0.8"/>
      </g>
     </g>
     <g id="text_37">
      <!-- 0 -->
      <g transform="translate(1380.724375 413.595937) scale(0.14 -0.14)">
       <use xlink:href="#DejaVuSans-30"/>
      </g>
     </g>
    </g>
    <g id="xtick_19">
     <g id="line2d_67">
      <g>
       <use xlink:href="#mff62555f99" x="1449.576918" y="399.458125" style="stroke: #000000; stroke-width: 0.8"/>
      </g>
     </g>
     <g id="line2d_68">
      <g>
       <use xlink:href="#m4ce20115fb" x="1449.576918" y="22.318125" style="stroke: #000000; stroke-width: 0.8"/>
      </g>
     </g>
     <g id="text_38">
      <!-- 5 -->
      <g transform="translate(1445.123168 413.595937) scale(0.14 -0.14)">
       <use xlink:href="#DejaVuSans-35"/>
      </g>
     </g>
    </g>
    <g id="xtick_20">
     <g id="line2d_69">
      <g>
       <use xlink:href="#mff62555f99" x="1513.97571" y="399.458125" style="stroke: #000000; stroke-width: 0.8"/>
      </g>
     </g>
     <g id="line2d_70">
      <g>
       <use xlink:href="#m4ce20115fb" x="1513.97571" y="22.318125" style="stroke: #000000; stroke-width: 0.8"/>
      </g>
     </g>
     <g id="text_39">
      <!-- 10 -->
      <g transform="translate(1505.06821 413.595937) scale(0.14 -0.14)">
       <use xlink:href="#DejaVuSans-31"/>
       <use xlink:href="#DejaVuSans-30" x="63.623047"/>
      </g>
     </g>
    </g>
    <g id="xtick_21">
     <g id="line2d_71">
      <g>
       <use xlink:href="#mff62555f99" x="1578.374503" y="399.458125" style="stroke: #000000; stroke-width: 0.8"/>
      </g>
     </g>
     <g id="line2d_72">
      <g>
       <use xlink:href="#m4ce20115fb" x="1578.374503" y="22.318125" style="stroke: #000000; stroke-width: 0.8"/>
      </g>
     </g>
     <g id="text_40">
      <!-- 15 -->
      <g transform="translate(1569.467003 413.595937) scale(0.14 -0.14)">
       <use xlink:href="#DejaVuSans-31"/>
       <use xlink:href="#DejaVuSans-35" x="63.623047"/>
      </g>
     </g>
    </g>
   </g>
   <g id="matplotlib.axis_6">
    <g id="ytick_15">
     <g id="line2d_73">
      <g>
       <use xlink:href="#mb89b58f545" x="1158.494375" y="383.590825" style="stroke: #000000; stroke-width: 0.8"/>
      </g>
     </g>
     <g id="line2d_74">
      <g>
       <use xlink:href="#mfab5221db9" x="1611.861875" y="383.590825" style="stroke: #000000; stroke-width: 0.8"/>
      </g>
     </g>
     <g id="text_41">
      <!-- −300 -->
      <g transform="translate(1116.540313 388.909731) scale(0.14 -0.14)">
       <use xlink:href="#DejaVuSans-2212"/>
       <use xlink:href="#DejaVuSans-33" x="83.789062"/>
       <use xlink:href="#DejaVuSans-30" x="147.412109"/>
       <use xlink:href="#DejaVuSans-30" x="211.035156"/>
      </g>
     </g>
    </g>
    <g id="ytick_16">
     <g id="line2d_75">
      <g>
       <use xlink:href="#mb89b58f545" x="1158.494375" y="314.764831" style="stroke: #000000; stroke-width: 0.8"/>
      </g>
     </g>
     <g id="line2d_76">
      <g>
       <use xlink:href="#mfab5221db9" x="1611.861875" y="314.764831" style="stroke: #000000; stroke-width: 0.8"/>
      </g>
     </g>
     <g id="text_42">
      <!-- −200 -->
      <g transform="translate(1116.540313 320.083737) scale(0.14 -0.14)">
       <use xlink:href="#DejaVuSans-2212"/>
       <use xlink:href="#DejaVuSans-32" x="83.789062"/>
       <use xlink:href="#DejaVuSans-30" x="147.412109"/>
       <use xlink:href="#DejaVuSans-30" x="211.035156"/>
      </g>
     </g>
    </g>
    <g id="ytick_17">
     <g id="line2d_77">
      <g>
       <use xlink:href="#mb89b58f545" x="1158.494375" y="245.938836" style="stroke: #000000; stroke-width: 0.8"/>
      </g>
     </g>
     <g id="line2d_78">
      <g>
       <use xlink:href="#mfab5221db9" x="1611.861875" y="245.938836" style="stroke: #000000; stroke-width: 0.8"/>
      </g>
     </g>
     <g id="text_43">
      <!-- −100 -->
      <g transform="translate(1116.540313 251.257742) scale(0.14 -0.14)">
       <use xlink:href="#DejaVuSans-2212"/>
       <use xlink:href="#DejaVuSans-31" x="83.789062"/>
       <use xlink:href="#DejaVuSans-30" x="147.412109"/>
       <use xlink:href="#DejaVuSans-30" x="211.035156"/>
      </g>
     </g>
    </g>
    <g id="ytick_18">
     <g id="line2d_79">
      <g>
       <use xlink:href="#mb89b58f545" x="1158.494375" y="177.112841" style="stroke: #000000; stroke-width: 0.8"/>
      </g>
     </g>
     <g id="line2d_80">
      <g>
       <use xlink:href="#mfab5221db9" x="1611.861875" y="177.112841" style="stroke: #000000; stroke-width: 0.8"/>
      </g>
     </g>
     <g id="text_44">
      <!-- 0 -->
      <g transform="translate(1146.086875 182.431748) scale(0.14 -0.14)">
       <use xlink:href="#DejaVuSans-30"/>
      </g>
     </g>
    </g>
    <g id="ytick_19">
     <g id="line2d_81">
      <g>
       <use xlink:href="#mb89b58f545" x="1158.494375" y="108.286847" style="stroke: #000000; stroke-width: 0.8"/>
      </g>
     </g>
     <g id="line2d_82">
      <g>
       <use xlink:href="#mfab5221db9" x="1611.861875" y="108.286847" style="stroke: #000000; stroke-width: 0.8"/>
      </g>
     </g>
     <g id="text_45">
      <!-- 100 -->
      <g transform="translate(1128.271875 113.605753) scale(0.14 -0.14)">
       <use xlink:href="#DejaVuSans-31"/>
       <use xlink:href="#DejaVuSans-30" x="63.623047"/>
       <use xlink:href="#DejaVuSans-30" x="127.246094"/>
      </g>
     </g>
    </g>
    <g id="ytick_20">
     <g id="line2d_83">
      <g>
       <use xlink:href="#mb89b58f545" x="1158.494375" y="39.460852" style="stroke: #000000; stroke-width: 0.8"/>
      </g>
     </g>
     <g id="line2d_84">
      <g>
       <use xlink:href="#mfab5221db9" x="1611.861875" y="39.460852" style="stroke: #000000; stroke-width: 0.8"/>
      </g>
     </g>
     <g id="text_46">
      <!-- 200 -->
      <g transform="translate(1128.271875 44.779759) scale(0.14 -0.14)">
       <use xlink:href="#DejaVuSans-32"/>
       <use xlink:href="#DejaVuSans-30" x="63.623047"/>
       <use xlink:href="#DejaVuSans-30" x="127.246094"/>
      </g>
     </g>
    </g>
    <g id="text_47">
     <!-- Quality Factor (Arb. U.) -->
     <g transform="translate(1109.212812 302.616875) rotate(-90) scale(0.16 -0.16)">
      <defs>
       <path id="DejaVuSans-51" d="M 2522 4238 
Q 1834 4238 1429 3725 
Q 1025 3213 1025 2328 
Q 1025 1447 1429 934 
Q 1834 422 2522 422 
Q 3209 422 3611 934 
Q 4013 1447 4013 2328 
Q 4013 3213 3611 3725 
Q 3209 4238 2522 4238 
z
M 3406 84 
L 4238 -825 
L 3475 -825 
L 2784 -78 
Q 2681 -84 2626 -87 
Q 2572 -91 2522 -91 
Q 1538 -91 948 567 
Q 359 1225 359 2328 
Q 359 3434 948 4092 
Q 1538 4750 2522 4750 
Q 3503 4750 4090 4092 
Q 4678 3434 4678 2328 
Q 4678 1516 4351 937 
Q 4025 359 3406 84 
z
" transform="scale(0.015625)"/>
      </defs>
      <use xlink:href="#DejaVuSans-51"/>
      <use xlink:href="#DejaVuSans-75" x="78.710938"/>
      <use xlink:href="#DejaVuSans-61" x="142.089844"/>
      <use xlink:href="#DejaVuSans-6c" x="203.369141"/>
      <use xlink:href="#DejaVuSans-69" x="231.152344"/>
      <use xlink:href="#DejaVuSans-74" x="258.935547"/>
      <use xlink:href="#DejaVuSans-79" x="298.144531"/>
      <use xlink:href="#DejaVuSans-20" x="357.324219"/>
      <use xlink:href="#DejaVuSans-46" x="389.111328"/>
      <use xlink:href="#DejaVuSans-61" x="437.505859"/>
      <use xlink:href="#DejaVuSans-63" x="498.785156"/>
      <use xlink:href="#DejaVuSans-74" x="553.765625"/>
      <use xlink:href="#DejaVuSans-6f" x="592.974609"/>
      <use xlink:href="#DejaVuSans-72" x="654.15625"/>
      <use xlink:href="#DejaVuSans-20" x="695.269531"/>
      <use xlink:href="#DejaVuSans-28" x="727.056641"/>
      <use xlink:href="#DejaVuSans-41" x="766.070312"/>
      <use xlink:href="#DejaVuSans-72" x="834.478516"/>
      <use xlink:href="#DejaVuSans-62" x="875.591797"/>
      <use xlink:href="#DejaVuSans-2e" x="939.068359"/>
      <use xlink:href="#DejaVuSans-20" x="970.855469"/>
      <use xlink:href="#DejaVuSans-55" x="1002.642578"/>
      <use xlink:href="#DejaVuSans-2e" x="1075.835938"/>
      <use xlink:href="#DejaVuSans-29" x="1107.623047"/>
     </g>
    </g>
   </g>
   <g id="line2d_85">
    <path d="M 1385.178125 347.203428 
L 1393.764631 347.487581 
L 1402.351137 342.713849 
L 1410.937642 347.969645 
L 1419.524149 339.548175 
L 1428.110652 342.542162 
L 1436.697159 343.186933 
L 1445.283663 341.768269 
L 1453.870173 335.371136 
L 1462.456676 331.567642 
L 1471.04318 326.222139 
L 1479.62969 382.315398 
L 1488.216193 307.842513 
L 1496.802703 39.460852 
L 1505.3892 343.349977 
L 1513.97571 359.771566 
L 1522.56222 341.324601 
L 1531.148717 325.36947 
L 1539.735227 327.506577 
L 1548.321737 326.129574 
L 1556.908235 321.415976 
L 1565.494744 318.502235 
L 1574.081254 332.52697 
L 1582.667752 331.440432 
L 1591.254261 327.761345 
L 1582.667752 332.609883 
L 1574.081254 327.939144 
L 1565.494744 332.181842 
L 1556.908235 335.377542 
L 1548.321737 326.116625 
L 1539.735227 335.899954 
L 1531.148717 334.560979 
L 1522.56222 330.49022 
L 1513.97571 337.836536 
L 1505.3892 342.967378 
L 1496.802703 340.526469 
L 1488.216193 332.516121 
L 1479.62969 339.533388 
L 1471.04318 344.308632 
L 1462.456676 336.085483 
L 1453.870173 336.250238 
L 1445.283663 334.12358 
L 1436.697159 342.655101 
L 1428.110652 339.844825 
L 1419.524149 336.648527 
L 1410.937642 336.911697 
L 1402.351137 345.991118 
L 1393.764631 338.116908 
L 1385.178125 345.395286 
L 1376.591619 343.12976 
L 1368.005113 344.155492 
L 1359.418608 349.197603 
L 1350.832101 332.75396 
L 1342.245598 339.328735 
L 1333.659091 334.732183 
L 1325.072587 327.16188 
L 1316.486077 339.154013 
L 1307.899574 352.985879 
L 1299.31307 337.767569 
L 1290.72656 350.83556 
L 1282.140057 333.9148 
L 1273.553547 338.8366 
L 1264.96705 344.399359 
L 1256.38054 349.630654 
L 1247.79403 338.5117 
L 1239.207533 325.969261 
L 1230.621023 339.634365 
L 1222.034513 336.406981 
L 1213.448015 340.062973 
L 1204.861506 332.668631 
L 1196.274996 330.060866 
L 1187.688498 330.458871 
L 1179.101989 333.591391 
L 1187.688498 336.406739 
L 1196.274996 336.443549 
L 1204.861506 333.745539 
L 1213.448015 333.193533 
L 1222.034513 337.214249 
L 1230.621023 328.056809 
L 1239.207533 343.974122 
L 1247.79403 342.238308 
L 1256.38054 339.185467 
L 1264.96705 330.01597 
L 1273.553547 338.581486 
L 1282.140057 343.812507 
L 1290.72656 343.45819 
L 1299.31307 341.784736 
L 1307.899574 351.050589 
L 1316.486077 348.146772 
L 1325.072587 344.947627 
L 1333.659091 350.83952 
L 1342.245598 343.149042 
L 1350.832101 357.055766 
L 1359.418608 348.010813 
L 1368.005113 347.803724 
L 1376.591619 348.358429 
L 1385.178125 352.655139 
L 1393.764631 356.343289 
L 1402.351137 351.0209 
L 1410.937642 343.398738 
L 1419.524149 346.700413 
L 1428.110652 342.25259 
L 1436.697159 340.558574 
L 1445.283663 349.546396 
L 1453.870173 361.992658 
L 1462.456676 351.995602 
L 1471.04318 361.888373 
L 1479.62969 343.755502 
L 1488.216193 363.992808 
L 1496.802703 39.460852 
L 1505.3892 339.460389 
L 1513.97571 363.281087 
L 1522.56222 342.08564 
L 1531.148717 348.114667 
L 1539.735227 342.204082 
L 1548.321737 338.010344 
L 1556.908235 332.380992 
L 1565.494744 326.520942 
L 1574.081254 335.853598 
L 1582.667752 330.552444 
L 1591.254261 329.790681 
L 1582.667752 323.015296 
L 1574.081254 333.339532 
L 1565.494744 336.620172 
L 1556.908235 328.249227 
L 1548.321737 334.603491 
L 1539.735227 331.065562 
L 1531.148717 333.876731 
L 1522.56222 329.615759 
L 1513.97571 339.874871 
L 1505.3892 331.204052 
L 1496.802703 333.096399 
L 1488.216193 338.178964 
L 1479.62969 346.992474 
L 1471.04318 343.936011 
L 1462.456676 344.222884 
L 1453.870173 338.736968 
L 1445.283663 342.968082 
L 1436.697159 337.394159 
L 1428.110652 341.147768 
L 1419.524149 333.062709 
L 1410.937642 338.031495 
L 1402.351137 341.05408 
L 1393.764631 353.037328 
L 1385.178125 349.964912 
L 1376.591619 347.777447 
L 1368.005113 352.791665 
L 1359.418608 350.606753 
L 1350.832101 342.638497 
L 1342.245598 342.271904 
L 1333.659091 332.288301 
L 1325.072587 346.900676 
L 1316.486077 311.157 
L 1307.899574 333.191002 
L 1299.31307 336.968565 
L 1290.72656 331.885874 
L 1282.140057 331.305607 
L 1273.553547 333.341737 
L 1264.96705 342.502297 
L 1256.38054 342.198337 
L 1247.79403 343.171769 
L 1239.207533 333.240897 
L 1230.621023 337.794307 
L 1222.034513 340.444133 
L 1213.448015 338.728682 
L 1204.861506 337.420183 
L 1196.274996 340.599143 
L 1187.688498 335.495595 
L 1179.101989 338.711448 
L 1187.688498 336.091458 
L 1196.274996 339.6418 
L 1204.861506 344.035108 
L 1213.448015 348.014394 
L 1222.034513 350.179132 
L 1230.621023 340.60118 
L 1239.207533 339.812195 
L 1247.79403 343.923671 
L 1256.38054 346.135143 
L 1264.96705 348.702748 
L 1273.553547 344.689288 
L 1282.140057 345.908341 
L 1290.72656 341.606233 
L 1299.31307 347.383958 
L 1307.899574 350.890486 
L 1316.486077 347.868783 
L 1325.072587 346.825608 
L 1333.659091 352.840773 
L 1342.245598 347.597685 
L 1350.832101 351.375049 
L 1359.418608 357.115544 
L 1368.005113 358.905297 
L 1376.591619 361.259155 
L 1376.591619 361.259155 
" clip-path="url(#pfc2f60e2c6)" style="fill: none; stroke: #1f77b4; stroke-width: 1.5; stroke-linecap: square"/>
   </g>
   <g id="patch_13">
    <path d="M 1158.494375 399.458125 
L 1158.494375 22.318125 
" style="fill: none; stroke: #000000; stroke-width: 0.8; stroke-linejoin: miter; stroke-linecap: square"/>
   </g>
   <g id="patch_14">
    <path d="M 1611.861875 399.458125 
L 1611.861875 22.318125 
" style="fill: none; stroke: #000000; stroke-width: 0.8; stroke-linejoin: miter; stroke-linecap: square"/>
   </g>
   <g id="patch_15">
    <path d="M 1158.494375 399.458125 
L 1611.861875 399.458125 
" style="fill: none; stroke: #000000; stroke-width: 0.8; stroke-linejoin: miter; stroke-linecap: square"/>
   </g>
   <g id="patch_16">
    <path d="M 1158.494375 22.318125 
L 1611.861875 22.318125 
" style="fill: none; stroke: #000000; stroke-width: 0.8; stroke-linejoin: miter; stroke-linecap: square"/>
   </g>
   <g id="text_48">
    <!-- Dampening -->
    <g transform="translate(1350.455 16.318125) scale(0.12 -0.12)">
     <defs>
      <path id="DejaVuSans-44" d="M 1259 4147 
L 1259 519 
L 2022 519 
Q 2988 519 3436 956 
Q 3884 1394 3884 2338 
Q 3884 3275 3436 3711 
Q 2988 4147 2022 4147 
L 1259 4147 
z
M 628 4666 
L 1925 4666 
Q 3281 4666 3915 4102 
Q 4550 3538 4550 2338 
Q 4550 1131 3912 565 
Q 3275 0 1925 0 
L 628 0 
L 628 4666 
z
" transform="scale(0.015625)"/>
      <path id="DejaVuSans-67" d="M 2906 1791 
Q 2906 2416 2648 2759 
Q 2391 3103 1925 3103 
Q 1463 3103 1205 2759 
Q 947 2416 947 1791 
Q 947 1169 1205 825 
Q 1463 481 1925 481 
Q 2391 481 2648 825 
Q 2906 1169 2906 1791 
z
M 3481 434 
Q 3481 -459 3084 -895 
Q 2688 -1331 1869 -1331 
Q 1566 -1331 1297 -1286 
Q 1028 -1241 775 -1147 
L 775 -588 
Q 1028 -725 1275 -790 
Q 1522 -856 1778 -856 
Q 2344 -856 2625 -561 
Q 2906 -266 2906 331 
L 2906 616 
Q 2728 306 2450 153 
Q 2172 0 1784 0 
Q 1141 0 747 490 
Q 353 981 353 1791 
Q 353 2603 747 3093 
Q 1141 3584 1784 3584 
Q 2172 3584 2450 3431 
Q 2728 3278 2906 2969 
L 2906 3500 
L 3481 3500 
L 3481 434 
z
" transform="scale(0.015625)"/>
     </defs>
     <use xlink:href="#DejaVuSans-44"/>
     <use xlink:href="#DejaVuSans-61" x="77.001953"/>
     <use xlink:href="#DejaVuSans-6d" x="138.28125"/>
     <use xlink:href="#DejaVuSans-70" x="235.693359"/>
     <use xlink:href="#DejaVuSans-65" x="299.169922"/>
     <use xlink:href="#DejaVuSans-6e" x="360.693359"/>
     <use xlink:href="#DejaVuSans-69" x="424.072266"/>
     <use xlink:href="#DejaVuSans-6e" x="451.855469"/>
     <use xlink:href="#DejaVuSans-67" x="515.234375"/>
    </g>
   </g>
  </g>
  <g id="axes_4">
   <g id="patch_17">
    <path d="M 1693.701875 399.458125 
L 2147.069375 399.458125 
L 2147.069375 22.318125 
L 1693.701875 22.318125 
z
" style="fill: #ffffff"/>
   </g>
   <g id="matplotlib.axis_7">
    <g id="xtick_22">
     <g id="line2d_86">
      <g>
       <use xlink:href="#mff62555f99" x="1727.189247" y="399.458125" style="stroke: #000000; stroke-width: 0.8"/>
      </g>
     </g>
     <g id="line2d_87">
      <g>
       <use xlink:href="#m4ce20115fb" x="1727.189247" y="22.318125" style="stroke: #000000; stroke-width: 0.8"/>
      </g>
     </g>
     <g id="text_49">
      <!-- −15 -->
      <g transform="translate(1712.415966 413.595937) scale(0.14 -0.14)">
       <use xlink:href="#DejaVuSans-2212"/>
       <use xlink:href="#DejaVuSans-31" x="83.789062"/>
       <use xlink:href="#DejaVuSans-35" x="147.412109"/>
      </g>
     </g>
    </g>
    <g id="xtick_23">
     <g id="line2d_88">
      <g>
       <use xlink:href="#mff62555f99" x="1791.58804" y="399.458125" style="stroke: #000000; stroke-width: 0.8"/>
      </g>
     </g>
     <g id="line2d_89">
      <g>
       <use xlink:href="#m4ce20115fb" x="1791.58804" y="22.318125" style="stroke: #000000; stroke-width: 0.8"/>
      </g>
     </g>
     <g id="text_50">
      <!-- −10 -->
      <g transform="translate(1776.814759 413.595937) scale(0.14 -0.14)">
       <use xlink:href="#DejaVuSans-2212"/>
       <use xlink:href="#DejaVuSans-31" x="83.789062"/>
       <use xlink:href="#DejaVuSans-30" x="147.412109"/>
      </g>
     </g>
    </g>
    <g id="xtick_24">
     <g id="line2d_90">
      <g>
       <use xlink:href="#mff62555f99" x="1855.986832" y="399.458125" style="stroke: #000000; stroke-width: 0.8"/>
      </g>
     </g>
     <g id="line2d_91">
      <g>
       <use xlink:href="#m4ce20115fb" x="1855.986832" y="22.318125" style="stroke: #000000; stroke-width: 0.8"/>
      </g>
     </g>
     <g id="text_51">
      <!-- −5 -->
      <g transform="translate(1845.667301 413.595937) scale(0.14 -0.14)">
       <use xlink:href="#DejaVuSans-2212"/>
       <use xlink:href="#DejaVuSans-35" x="83.789062"/>
      </g>
     </g>
    </g>
    <g id="xtick_25">
     <g id="line2d_92">
      <g>
       <use xlink:href="#mff62555f99" x="1920.385625" y="399.458125" style="stroke: #000000; stroke-width: 0.8"/>
      </g>
     </g>
     <g id="line2d_93">
      <g>
       <use xlink:href="#m4ce20115fb" x="1920.385625" y="22.318125" style="stroke: #000000; stroke-width: 0.8"/>
      </g>
     </g>
     <g id="text_52">
      <!-- 0 -->
      <g transform="translate(1915.931875 413.595937) scale(0.14 -0.14)">
       <use xlink:href="#DejaVuSans-30"/>
      </g>
     </g>
    </g>
    <g id="xtick_26">
     <g id="line2d_94">
      <g>
       <use xlink:href="#mff62555f99" x="1984.784418" y="399.458125" style="stroke: #000000; stroke-width: 0.8"/>
      </g>
     </g>
     <g id="line2d_95">
      <g>
       <use xlink:href="#m4ce20115fb" x="1984.784418" y="22.318125" style="stroke: #000000; stroke-width: 0.8"/>
      </g>
     </g>
     <g id="text_53">
      <!-- 5 -->
      <g transform="translate(1980.330668 413.595937) scale(0.14 -0.14)">
       <use xlink:href="#DejaVuSans-35"/>
      </g>
     </g>
    </g>
    <g id="xtick_27">
     <g id="line2d_96">
      <g>
       <use xlink:href="#mff62555f99" x="2049.18321" y="399.458125" style="stroke: #000000; stroke-width: 0.8"/>
      </g>
     </g>
     <g id="line2d_97">
      <g>
       <use xlink:href="#m4ce20115fb" x="2049.18321" y="22.318125" style="stroke: #000000; stroke-width: 0.8"/>
      </g>
     </g>
     <g id="text_54">
      <!-- 10 -->
      <g transform="translate(2040.27571 413.595937) scale(0.14 -0.14)">
       <use xlink:href="#DejaVuSans-31"/>
       <use xlink:href="#DejaVuSans-30" x="63.623047"/>
      </g>
     </g>
    </g>
    <g id="xtick_28">
     <g id="line2d_98">
      <g>
       <use xlink:href="#mff62555f99" x="2113.582003" y="399.458125" style="stroke: #000000; stroke-width: 0.8"/>
      </g>
     </g>
     <g id="line2d_99">
      <g>
       <use xlink:href="#m4ce20115fb" x="2113.582003" y="22.318125" style="stroke: #000000; stroke-width: 0.8"/>
      </g>
     </g>
     <g id="text_55">
      <!-- 15 -->
      <g transform="translate(2104.674503 413.595937) scale(0.14 -0.14)">
       <use xlink:href="#DejaVuSans-31"/>
       <use xlink:href="#DejaVuSans-35" x="63.623047"/>
      </g>
     </g>
    </g>
   </g>
   <g id="matplotlib.axis_8">
    <g id="ytick_21">
     <g id="line2d_100">
      <g>
       <use xlink:href="#mb89b58f545" x="1693.701875" y="361.037279" style="stroke: #000000; stroke-width: 0.8"/>
      </g>
     </g>
     <g id="line2d_101">
      <g>
       <use xlink:href="#mfab5221db9" x="2147.069375" y="361.037279" style="stroke: #000000; stroke-width: 0.8"/>
      </g>
     </g>
     <g id="text_56">
      <!-- 0.0 -->
      <g transform="translate(1667.9375 366.356186) scale(0.14 -0.14)">
       <use xlink:href="#DejaVuSans-30"/>
       <use xlink:href="#DejaVuSans-2e" x="63.623047"/>
       <use xlink:href="#DejaVuSans-30" x="95.410156"/>
      </g>
     </g>
    </g>
    <g id="ytick_22">
     <g id="line2d_102">
      <g>
       <use xlink:href="#mb89b58f545" x="1693.701875" y="309.623978" style="stroke: #000000; stroke-width: 0.8"/>
      </g>
     </g>
     <g id="line2d_103">
      <g>
       <use xlink:href="#mfab5221db9" x="2147.069375" y="309.623978" style="stroke: #000000; stroke-width: 0.8"/>
      </g>
     </g>
     <g id="text_57">
      <!-- 0.5 -->
      <g transform="translate(1667.9375 314.942884) scale(0.14 -0.14)">
       <use xlink:href="#DejaVuSans-30"/>
       <use xlink:href="#DejaVuSans-2e" x="63.623047"/>
       <use xlink:href="#DejaVuSans-35" x="95.410156"/>
      </g>
     </g>
    </g>
    <g id="ytick_23">
     <g id="line2d_104">
      <g>
       <use xlink:href="#mb89b58f545" x="1693.701875" y="258.210677" style="stroke: #000000; stroke-width: 0.8"/>
      </g>
     </g>
     <g id="line2d_105">
      <g>
       <use xlink:href="#mfab5221db9" x="2147.069375" y="258.210677" style="stroke: #000000; stroke-width: 0.8"/>
      </g>
     </g>
     <g id="text_58">
      <!-- 1.0 -->
      <g transform="translate(1667.9375 263.529583) scale(0.14 -0.14)">
       <use xlink:href="#DejaVuSans-31"/>
       <use xlink:href="#DejaVuSans-2e" x="63.623047"/>
       <use xlink:href="#DejaVuSans-30" x="95.410156"/>
      </g>
     </g>
    </g>
    <g id="ytick_24">
     <g id="line2d_106">
      <g>
       <use xlink:href="#mb89b58f545" x="1693.701875" y="206.797376" style="stroke: #000000; stroke-width: 0.8"/>
      </g>
     </g>
     <g id="line2d_107">
      <g>
       <use xlink:href="#mfab5221db9" x="2147.069375" y="206.797376" style="stroke: #000000; stroke-width: 0.8"/>
      </g>
     </g>
     <g id="text_59">
      <!-- 1.5 -->
      <g transform="translate(1667.9375 212.116282) scale(0.14 -0.14)">
       <use xlink:href="#DejaVuSans-31"/>
       <use xlink:href="#DejaVuSans-2e" x="63.623047"/>
       <use xlink:href="#DejaVuSans-35" x="95.410156"/>
      </g>
     </g>
    </g>
    <g id="ytick_25">
     <g id="line2d_108">
      <g>
       <use xlink:href="#mb89b58f545" x="1693.701875" y="155.384075" style="stroke: #000000; stroke-width: 0.8"/>
      </g>
     </g>
     <g id="line2d_109">
      <g>
       <use xlink:href="#mfab5221db9" x="2147.069375" y="155.384075" style="stroke: #000000; stroke-width: 0.8"/>
      </g>
     </g>
     <g id="text_60">
      <!-- 2.0 -->
      <g transform="translate(1667.9375 160.702981) scale(0.14 -0.14)">
       <use xlink:href="#DejaVuSans-32"/>
       <use xlink:href="#DejaVuSans-2e" x="63.623047"/>
       <use xlink:href="#DejaVuSans-30" x="95.410156"/>
      </g>
     </g>
    </g>
    <g id="ytick_26">
     <g id="line2d_110">
      <g>
       <use xlink:href="#mb89b58f545" x="1693.701875" y="103.970773" style="stroke: #000000; stroke-width: 0.8"/>
      </g>
     </g>
     <g id="line2d_111">
      <g>
       <use xlink:href="#mfab5221db9" x="2147.069375" y="103.970773" style="stroke: #000000; stroke-width: 0.8"/>
      </g>
     </g>
     <g id="text_61">
      <!-- 2.5 -->
      <g transform="translate(1667.9375 109.28968) scale(0.14 -0.14)">
       <use xlink:href="#DejaVuSans-32"/>
       <use xlink:href="#DejaVuSans-2e" x="63.623047"/>
       <use xlink:href="#DejaVuSans-35" x="95.410156"/>
      </g>
     </g>
    </g>
    <g id="ytick_27">
     <g id="line2d_112">
      <g>
       <use xlink:href="#mb89b58f545" x="1693.701875" y="52.557472" style="stroke: #000000; stroke-width: 0.8"/>
      </g>
     </g>
     <g id="line2d_113">
      <g>
       <use xlink:href="#mfab5221db9" x="2147.069375" y="52.557472" style="stroke: #000000; stroke-width: 0.8"/>
      </g>
     </g>
     <g id="text_62">
      <!-- 3.0 -->
      <g transform="translate(1667.9375 57.876378) scale(0.14 -0.14)">
       <use xlink:href="#DejaVuSans-33"/>
       <use xlink:href="#DejaVuSans-2e" x="63.623047"/>
       <use xlink:href="#DejaVuSans-30" x="95.410156"/>
      </g>
     </g>
    </g>
    <g id="text_63">
     <!-- Phase (rad) -->
     <g transform="translate(1660.61 256.829375) rotate(-90) scale(0.16 -0.16)">
      <defs>
       <path id="DejaVuSans-50" d="M 1259 4147 
L 1259 2394 
L 2053 2394 
Q 2494 2394 2734 2622 
Q 2975 2850 2975 3272 
Q 2975 3691 2734 3919 
Q 2494 4147 2053 4147 
L 1259 4147 
z
M 628 4666 
L 2053 4666 
Q 2838 4666 3239 4311 
Q 3641 3956 3641 3272 
Q 3641 2581 3239 2228 
Q 2838 1875 2053 1875 
L 1259 1875 
L 1259 0 
L 628 0 
L 628 4666 
z
" transform="scale(0.015625)"/>
       <path id="DejaVuSans-68" d="M 3513 2113 
L 3513 0 
L 2938 0 
L 2938 2094 
Q 2938 2591 2744 2837 
Q 2550 3084 2163 3084 
Q 1697 3084 1428 2787 
Q 1159 2491 1159 1978 
L 1159 0 
L 581 0 
L 581 4863 
L 1159 4863 
L 1159 2956 
Q 1366 3272 1645 3428 
Q 1925 3584 2291 3584 
Q 2894 3584 3203 3211 
Q 3513 2838 3513 2113 
z
" transform="scale(0.015625)"/>
      </defs>
      <use xlink:href="#DejaVuSans-50"/>
      <use xlink:href="#DejaVuSans-68" x="60.302734"/>
      <use xlink:href="#DejaVuSans-61" x="123.681641"/>
      <use xlink:href="#DejaVuSans-73" x="184.960938"/>
      <use xlink:href="#DejaVuSans-65" x="237.060547"/>
      <use xlink:href="#DejaVuSans-20" x="298.583984"/>
      <use xlink:href="#DejaVuSans-28" x="330.371094"/>
      <use xlink:href="#DejaVuSans-72" x="369.384766"/>
      <use xlink:href="#DejaVuSans-61" x="410.498047"/>
      <use xlink:href="#DejaVuSans-64" x="471.777344"/>
      <use xlink:href="#DejaVuSans-29" x="535.253906"/>
     </g>
    </g>
   </g>
   <g id="line2d_114">
    <path d="M 1920.385625 45.943166 
L 1928.972131 46.785503 
L 1937.558637 42.69767 
L 1946.145142 45.753978 
L 1954.731649 49.475398 
L 1963.318152 48.174371 
L 1971.904659 48.432277 
L 1980.491163 49.831833 
L 1989.077673 54.559136 
L 1997.664176 53.126164 
L 2006.25068 41.997695 
L 2014.83719 47.714357 
L 2023.423693 48.115337 
L 2032.010203 111.815771 
L 2040.5967 332.647233 
L 2049.18321 361.706952 
L 2057.76972 370.64155 
L 2066.356217 369.337599 
L 2074.942727 364.156342 
L 2083.529237 372.05407 
L 2092.115735 367.695771 
L 2100.702244 371.248233 
L 2109.288754 366.998547 
L 2117.875252 367.200262 
L 2126.461761 372.16627 
L 2117.875252 363.708316 
L 2109.288754 370.015642 
L 2100.702244 369.166752 
L 2092.115735 369.34094 
L 2083.529237 369.963788 
L 2074.942727 369.652886 
L 2066.356217 369.646966 
L 2057.76972 367.091079 
L 2049.18321 369.531087 
L 2040.5967 367.97446 
L 2032.010203 370.237054 
L 2023.423693 369.556417 
L 2014.83719 371.029418 
L 2006.25068 368.328403 
L 1997.664176 367.174009 
L 1989.077673 366.568125 
L 1980.491163 368.954416 
L 1971.904659 369.885139 
L 1963.318152 368.380134 
L 1954.731649 364.452449 
L 1946.145142 367.579935 
L 1937.558637 367.00355 
L 1928.972131 367.234748 
L 1920.385625 365.743452 
L 1911.799119 366.132024 
L 1903.212613 369.888308 
L 1894.626108 370.454476 
L 1886.039601 364.12196 
L 1877.453098 366.360152 
L 1868.866591 365.156743 
L 1860.280087 357.887154 
L 1851.693577 370.723977 
L 1843.107074 57.503358 
L 1834.52057 61.242062 
L 1825.93406 44.876337 
L 1817.347557 45.280284 
L 1808.761047 47.542207 
L 1800.17455 49.122812 
L 1791.58804 42.884553 
L 1783.00153 47.011686 
L 1774.415033 45.540151 
L 1765.828523 46.785209 
L 1757.242013 45.928358 
L 1748.655515 44.251406 
L 1740.069006 47.131494 
L 1731.482496 46.36572 
L 1722.895998 44.442089 
L 1714.309489 39.460852 
L 1722.895998 43.481218 
L 1731.482496 42.715591 
L 1740.069006 47.503595 
L 1748.655515 45.461333 
L 1757.242013 49.635266 
L 1765.828523 46.987562 
L 1774.415033 46.601978 
L 1783.00153 49.604694 
L 1791.58804 43.298012 
L 1800.17455 47.993395 
L 1808.761047 44.969841 
L 1817.347557 45.21642 
L 1825.93406 50.119501 
L 1834.52057 46.786484 
L 1843.107074 48.608741 
L 1851.693577 48.802514 
L 1860.280087 48.202637 
L 1868.866591 49.414035 
L 1877.453098 48.96118 
L 1886.039601 51.659803 
L 1894.626108 44.00007 
L 1903.212613 47.792807 
L 1911.799119 43.243489 
L 1920.385625 46.724263 
L 1928.972131 43.595952 
L 1937.558637 47.391263 
L 1946.145142 44.254127 
L 1954.731649 42.192228 
L 1963.318152 46.666773 
L 1971.904659 42.45033 
L 1980.491163 46.919825 
L 1989.077673 40.76948 
L 1997.664176 43.960306 
L 2006.25068 45.037185 
L 2014.83719 56.657661 
L 2023.423693 46.456036 
L 2032.010203 204.895491 
L 2040.5967 371.100036 
L 2049.18321 365.49328 
L 2057.76972 366.771897 
L 2066.356217 370.970628 
L 2074.942727 370.889491 
L 2083.529237 370.584502 
L 2092.115735 365.428001 
L 2100.702244 367.141881 
L 2109.288754 367.22912 
L 2117.875252 372.55866 
L 2126.461761 366.776123 
L 2117.875252 367.158898 
L 2109.288754 365.500412 
L 2100.702244 370.011354 
L 2092.115735 369.463143 
L 2083.529237 370.244297 
L 2074.942727 363.436321 
L 2066.356217 368.900896 
L 2057.76972 365.087988 
L 2049.18321 362.974533 
L 2040.5967 369.049975 
L 2032.010203 368.605975 
L 2023.423693 370.504528 
L 2014.83719 370.850933 
L 2006.25068 367.509385 
L 1997.664176 365.283337 
L 1989.077673 369.669469 
L 1980.491163 368.702997 
L 1971.904659 366.273792 
L 1963.318152 373.268097 
L 1954.731649 369.869589 
L 1946.145142 369.174482 
L 1937.558637 367.206896 
L 1928.972131 367.69459 
L 1920.385625 369.15965 
L 1911.799119 368.158262 
L 1903.212613 369.480908 
L 1894.626108 368.810101 
L 1886.039601 368.3872 
L 1877.453098 371.305914 
L 1868.866591 371.614812 
L 1860.280087 382.315398 
L 1851.693577 354.598936 
L 1843.107074 66.02276 
L 1834.52057 39.526138 
L 1825.93406 46.165622 
L 1817.347557 43.271927 
L 1808.761047 44.706639 
L 1800.17455 44.94964 
L 1791.58804 48.677778 
L 1783.00153 44.500069 
L 1774.415033 46.703302 
L 1765.828523 45.261627 
L 1757.242013 45.513772 
L 1748.655515 41.582987 
L 1740.069006 48.991898 
L 1731.482496 45.056577 
L 1722.895998 51.410796 
L 1714.309489 42.655061 
L 1722.895998 48.457798 
L 1731.482496 46.202763 
L 1740.069006 44.229121 
L 1748.655515 46.09004 
L 1757.242013 43.559718 
L 1765.828523 47.846987 
L 1774.415033 43.157291 
L 1783.00153 50.08057 
L 1791.58804 50.984883 
L 1800.17455 49.103445 
L 1808.761047 46.292712 
L 1817.347557 46.230907 
L 1825.93406 50.113102 
L 1834.52057 50.621511 
L 1843.107074 49.656619 
L 1851.693577 46.243165 
L 1860.280087 48.355738 
L 1868.866591 50.141149 
L 1877.453098 48.105065 
L 1886.039601 43.864964 
L 1894.626108 50.658603 
L 1903.212613 48.95966 
L 1911.799119 51.235533 
L 1911.799119 51.235533 
" clip-path="url(#paf4a856e13)" style="fill: none; stroke: #1f77b4; stroke-width: 1.5; stroke-linecap: square"/>
   </g>
   <g id="patch_18">
    <path d="M 1693.701875 399.458125 
L 1693.701875 22.318125 
" style="fill: none; stroke: #000000; stroke-width: 0.8; stroke-linejoin: miter; stroke-linecap: square"/>
   </g>
   <g id="patch_19">
    <path d="M 2147.069375 399.458125 
L 2147.069375 22.318125 
" style="fill: none; stroke: #000000; stroke-width: 0.8; stroke-linejoin: miter; stroke-linecap: square"/>
   </g>
   <g id="patch_20">
    <path d="M 1693.701875 399.458125 
L 2147.069375 399.458125 
" style="fill: none; stroke: #000000; stroke-width: 0.8; stroke-linejoin: miter; stroke-linecap: square"/>
   </g>
   <g id="patch_21">
    <path d="M 1693.701875 22.318125 
L 2147.069375 22.318125 
" style="fill: none; stroke: #000000; stroke-width: 0.8; stroke-linejoin: miter; stroke-linecap: square"/>
   </g>
   <g id="text_64">
    <!-- Phase -->
    <g transform="translate(1902.470937 16.318125) scale(0.12 -0.12)">
     <use xlink:href="#DejaVuSans-50"/>
     <use xlink:href="#DejaVuSans-68" x="60.302734"/>
     <use xlink:href="#DejaVuSans-61" x="123.681641"/>
     <use xlink:href="#DejaVuSans-73" x="184.960938"/>
     <use xlink:href="#DejaVuSans-65" x="237.060547"/>
    </g>
   </g>
  </g>
 </g>
 <defs>
  <clipPath id="p112c7d41de">
   <rect x="88.079375" y="22.318125" width="453.3675" height="377.14"/>
  </clipPath>
  <clipPath id="p703177c8b4">
   <rect x="623.286875" y="22.318125" width="453.3675" height="377.14"/>
  </clipPath>
  <clipPath id="pfc2f60e2c6">
   <rect x="1158.494375" y="22.318125" width="453.3675" height="377.14"/>
  </clipPath>
  <clipPath id="paf4a856e13">
   <rect x="1693.701875" y="22.318125" width="453.3675" height="377.14"/>
  </clipPath>
 </defs>
</svg>
