<?xml version="1.0" encoding="utf-8" standalone="no"?>
<!DOCTYPE svg PUBLIC "-//W3C//DTD SVG 1.1//EN"
  "http://www.w3.org/Graphics/SVG/1.1/DTD/svg11.dtd">
<svg xmlns:xlink="http://www.w3.org/1999/xlink" width="297.89101pt" height="100.89976pt" viewBox="0 0 297.89101 100.89976" xmlns="http://www.w3.org/2000/svg" version="1.1">
 <metadata>
  <rdf:RDF xmlns:dc="http://purl.org/dc/elements/1.1/" xmlns:cc="http://creativecommons.org/ns#" xmlns:rdf="http://www.w3.org/1999/02/22-rdf-syntax-ns#">
   <cc:Work>
    <dc:type rdf:resource="http://purl.org/dc/dcmitype/StillImage"/>
    <dc:date>2023-04-17T13:02:20.416175</dc:date>
    <dc:format>image/svg+xml</dc:format>
    <dc:creator>
     <cc:Agent>
      <dc:title>Matplotlib v3.7.1, https://matplotlib.org/</dc:title>
     </cc:Agent>
    </dc:creator>
   </cc:Work>
  </rdf:RDF>
 </metadata>
 <defs>
  <style type="text/css">*{stroke-linejoin: round; stroke-linecap: butt}</style>
 </defs>
 <g id="figure_1">
  <g id="patch_1">
   <path d="M 0 100.89976 
L 297.89101 100.89976 
L 297.89101 0 
L 0 0 
z
" style="fill: #ffffff"/>
  </g>
  <g id="axes_1">
   <g id="patch_2">
    <path d="M 28.458438 75.553823 
L 87.512801 75.553823 
L 87.512801 16.499459 
L 28.458438 16.499459 
z
" style="fill: #ffffff"/>
   </g>
   <g id="matplotlib.axis_1">
    <g id="xtick_1">
     <g id="line2d_1">
      <defs>
       <path id="mb8d452784b" d="M 0 0 
L 0 -3.5 
" style="stroke: #000000; stroke-width: 0.8"/>
      </defs>
      <g>
       <use xlink:href="#mb8d452784b" x="38.017105" y="75.553823" style="stroke: #000000; stroke-width: 0.8"/>
      </g>
     </g>
     <g id="line2d_2">
      <defs>
       <path id="m1dc97368a8" d="M 0 0 
L 0 3.5 
" style="stroke: #000000; stroke-width: 0.8"/>
      </defs>
      <g>
       <use xlink:href="#m1dc97368a8" x="38.017105" y="16.499459" style="stroke: #000000; stroke-width: 0.8"/>
      </g>
     </g>
     <g id="text_1">
      <!-- 1.25 -->
      <g transform="translate(32.450699 82.853041) scale(0.05 -0.05)">
       <defs>
        <path id="DejaVuSans-31" d="M 794 531 
L 1825 531 
L 1825 4091 
L 703 3866 
L 703 4441 
L 1819 4666 
L 2450 4666 
L 2450 531 
L 3481 531 
L 3481 0 
L 794 0 
L 794 531 
z
" transform="scale(0.015625)"/>
        <path id="DejaVuSans-2e" d="M 684 794 
L 1344 794 
L 1344 0 
L 684 0 
L 684 794 
z
" transform="scale(0.015625)"/>
        <path id="DejaVuSans-32" d="M 1228 531 
L 3431 531 
L 3431 0 
L 469 0 
L 469 531 
Q 828 903 1448 1529 
Q 2069 2156 2228 2338 
Q 2531 2678 2651 2914 
Q 2772 3150 2772 3378 
Q 2772 3750 2511 3984 
Q 2250 4219 1831 4219 
Q 1534 4219 1204 4116 
Q 875 4013 500 3803 
L 500 4441 
Q 881 4594 1212 4672 
Q 1544 4750 1819 4750 
Q 2544 4750 2975 4387 
Q 3406 4025 3406 3419 
Q 3406 3131 3298 2873 
Q 3191 2616 2906 2266 
Q 2828 2175 2409 1742 
Q 1991 1309 1228 531 
z
" transform="scale(0.015625)"/>
        <path id="DejaVuSans-35" d="M 691 4666 
L 3169 4666 
L 3169 4134 
L 1269 4134 
L 1269 2991 
Q 1406 3038 1543 3061 
Q 1681 3084 1819 3084 
Q 2600 3084 3056 2656 
Q 3513 2228 3513 1497 
Q 3513 744 3044 326 
Q 2575 -91 1722 -91 
Q 1428 -91 1123 -41 
Q 819 9 494 109 
L 494 744 
Q 775 591 1075 516 
Q 1375 441 1709 441 
Q 2250 441 2565 725 
Q 2881 1009 2881 1497 
Q 2881 1984 2565 2268 
Q 2250 2553 1709 2553 
Q 1456 2553 1204 2497 
Q 953 2441 691 2322 
L 691 4666 
z
" transform="scale(0.015625)"/>
       </defs>
       <use xlink:href="#DejaVuSans-31"/>
       <use xlink:href="#DejaVuSans-2e" x="63.623047"/>
       <use xlink:href="#DejaVuSans-32" x="95.410156"/>
       <use xlink:href="#DejaVuSans-35" x="159.033203"/>
      </g>
     </g>
    </g>
    <g id="xtick_2">
     <g id="line2d_3">
      <g>
       <use xlink:href="#mb8d452784b" x="54.777545" y="75.553823" style="stroke: #000000; stroke-width: 0.8"/>
      </g>
     </g>
     <g id="line2d_4">
      <g>
       <use xlink:href="#m1dc97368a8" x="54.777545" y="16.499459" style="stroke: #000000; stroke-width: 0.8"/>
      </g>
     </g>
     <g id="text_2">
      <!-- 1.30 -->
      <g transform="translate(49.211139 82.853041) scale(0.05 -0.05)">
       <defs>
        <path id="DejaVuSans-33" d="M 2597 2516 
Q 3050 2419 3304 2112 
Q 3559 1806 3559 1356 
Q 3559 666 3084 287 
Q 2609 -91 1734 -91 
Q 1441 -91 1130 -33 
Q 819 25 488 141 
L 488 750 
Q 750 597 1062 519 
Q 1375 441 1716 441 
Q 2309 441 2620 675 
Q 2931 909 2931 1356 
Q 2931 1769 2642 2001 
Q 2353 2234 1838 2234 
L 1294 2234 
L 1294 2753 
L 1863 2753 
Q 2328 2753 2575 2939 
Q 2822 3125 2822 3475 
Q 2822 3834 2567 4026 
Q 2313 4219 1838 4219 
Q 1578 4219 1281 4162 
Q 984 4106 628 3988 
L 628 4550 
Q 988 4650 1302 4700 
Q 1616 4750 1894 4750 
Q 2613 4750 3031 4423 
Q 3450 4097 3450 3541 
Q 3450 3153 3228 2886 
Q 3006 2619 2597 2516 
z
" transform="scale(0.015625)"/>
        <path id="DejaVuSans-30" d="M 2034 4250 
Q 1547 4250 1301 3770 
Q 1056 3291 1056 2328 
Q 1056 1369 1301 889 
Q 1547 409 2034 409 
Q 2525 409 2770 889 
Q 3016 1369 3016 2328 
Q 3016 3291 2770 3770 
Q 2525 4250 2034 4250 
z
M 2034 4750 
Q 2819 4750 3233 4129 
Q 3647 3509 3647 2328 
Q 3647 1150 3233 529 
Q 2819 -91 2034 -91 
Q 1250 -91 836 529 
Q 422 1150 422 2328 
Q 422 3509 836 4129 
Q 1250 4750 2034 4750 
z
" transform="scale(0.015625)"/>
       </defs>
       <use xlink:href="#DejaVuSans-31"/>
       <use xlink:href="#DejaVuSans-2e" x="63.623047"/>
       <use xlink:href="#DejaVuSans-33" x="95.410156"/>
       <use xlink:href="#DejaVuSans-30" x="159.033203"/>
      </g>
     </g>
    </g>
    <g id="xtick_3">
     <g id="line2d_5">
      <g>
       <use xlink:href="#mb8d452784b" x="71.537986" y="75.553823" style="stroke: #000000; stroke-width: 0.8"/>
      </g>
     </g>
     <g id="line2d_6">
      <g>
       <use xlink:href="#m1dc97368a8" x="71.537986" y="16.499459" style="stroke: #000000; stroke-width: 0.8"/>
      </g>
     </g>
     <g id="text_3">
      <!-- 1.35 -->
      <g transform="translate(65.971579 82.853041) scale(0.05 -0.05)">
       <use xlink:href="#DejaVuSans-31"/>
       <use xlink:href="#DejaVuSans-2e" x="63.623047"/>
       <use xlink:href="#DejaVuSans-33" x="95.410156"/>
       <use xlink:href="#DejaVuSans-35" x="159.033203"/>
      </g>
     </g>
    </g>
    <g id="text_4">
     <!-- Voltage Steps -->
     <g transform="translate(37.384526 92.451948) scale(0.06 -0.06)">
      <defs>
       <path id="DejaVuSans-56" d="M 1831 0 
L 50 4666 
L 709 4666 
L 2188 738 
L 3669 4666 
L 4325 4666 
L 2547 0 
L 1831 0 
z
" transform="scale(0.015625)"/>
       <path id="DejaVuSans-6f" d="M 1959 3097 
Q 1497 3097 1228 2736 
Q 959 2375 959 1747 
Q 959 1119 1226 758 
Q 1494 397 1959 397 
Q 2419 397 2687 759 
Q 2956 1122 2956 1747 
Q 2956 2369 2687 2733 
Q 2419 3097 1959 3097 
z
M 1959 3584 
Q 2709 3584 3137 3096 
Q 3566 2609 3566 1747 
Q 3566 888 3137 398 
Q 2709 -91 1959 -91 
Q 1206 -91 779 398 
Q 353 888 353 1747 
Q 353 2609 779 3096 
Q 1206 3584 1959 3584 
z
" transform="scale(0.015625)"/>
       <path id="DejaVuSans-6c" d="M 603 4863 
L 1178 4863 
L 1178 0 
L 603 0 
L 603 4863 
z
" transform="scale(0.015625)"/>
       <path id="DejaVuSans-74" d="M 1172 4494 
L 1172 3500 
L 2356 3500 
L 2356 3053 
L 1172 3053 
L 1172 1153 
Q 1172 725 1289 603 
Q 1406 481 1766 481 
L 2356 481 
L 2356 0 
L 1766 0 
Q 1100 0 847 248 
Q 594 497 594 1153 
L 594 3053 
L 172 3053 
L 172 3500 
L 594 3500 
L 594 4494 
L 1172 4494 
z
" transform="scale(0.015625)"/>
       <path id="DejaVuSans-61" d="M 2194 1759 
Q 1497 1759 1228 1600 
Q 959 1441 959 1056 
Q 959 750 1161 570 
Q 1363 391 1709 391 
Q 2188 391 2477 730 
Q 2766 1069 2766 1631 
L 2766 1759 
L 2194 1759 
z
M 3341 1997 
L 3341 0 
L 2766 0 
L 2766 531 
Q 2569 213 2275 61 
Q 1981 -91 1556 -91 
Q 1019 -91 701 211 
Q 384 513 384 1019 
Q 384 1609 779 1909 
Q 1175 2209 1959 2209 
L 2766 2209 
L 2766 2266 
Q 2766 2663 2505 2880 
Q 2244 3097 1772 3097 
Q 1472 3097 1187 3025 
Q 903 2953 641 2809 
L 641 3341 
Q 956 3463 1253 3523 
Q 1550 3584 1831 3584 
Q 2591 3584 2966 3190 
Q 3341 2797 3341 1997 
z
" transform="scale(0.015625)"/>
       <path id="DejaVuSans-67" d="M 2906 1791 
Q 2906 2416 2648 2759 
Q 2391 3103 1925 3103 
Q 1463 3103 1205 2759 
Q 947 2416 947 1791 
Q 947 1169 1205 825 
Q 1463 481 1925 481 
Q 2391 481 2648 825 
Q 2906 1169 2906 1791 
z
M 3481 434 
Q 3481 -459 3084 -895 
Q 2688 -1331 1869 -1331 
Q 1566 -1331 1297 -1286 
Q 1028 -1241 775 -1147 
L 775 -588 
Q 1028 -725 1275 -790 
Q 1522 -856 1778 -856 
Q 2344 -856 2625 -561 
Q 2906 -266 2906 331 
L 2906 616 
Q 2728 306 2450 153 
Q 2172 0 1784 0 
Q 1141 0 747 490 
Q 353 981 353 1791 
Q 353 2603 747 3093 
Q 1141 3584 1784 3584 
Q 2172 3584 2450 3431 
Q 2728 3278 2906 2969 
L 2906 3500 
L 3481 3500 
L 3481 434 
z
" transform="scale(0.015625)"/>
       <path id="DejaVuSans-65" d="M 3597 1894 
L 3597 1613 
L 953 1613 
Q 991 1019 1311 708 
Q 1631 397 2203 397 
Q 2534 397 2845 478 
Q 3156 559 3463 722 
L 3463 178 
Q 3153 47 2828 -22 
Q 2503 -91 2169 -91 
Q 1331 -91 842 396 
Q 353 884 353 1716 
Q 353 2575 817 3079 
Q 1281 3584 2069 3584 
Q 2775 3584 3186 3129 
Q 3597 2675 3597 1894 
z
M 3022 2063 
Q 3016 2534 2758 2815 
Q 2500 3097 2075 3097 
Q 1594 3097 1305 2825 
Q 1016 2553 972 2059 
L 3022 2063 
z
" transform="scale(0.015625)"/>
       <path id="DejaVuSans-20" transform="scale(0.015625)"/>
       <path id="DejaVuSans-53" d="M 3425 4513 
L 3425 3897 
Q 3066 4069 2747 4153 
Q 2428 4238 2131 4238 
Q 1616 4238 1336 4038 
Q 1056 3838 1056 3469 
Q 1056 3159 1242 3001 
Q 1428 2844 1947 2747 
L 2328 2669 
Q 3034 2534 3370 2195 
Q 3706 1856 3706 1288 
Q 3706 609 3251 259 
Q 2797 -91 1919 -91 
Q 1588 -91 1214 -16 
Q 841 59 441 206 
L 441 856 
Q 825 641 1194 531 
Q 1563 422 1919 422 
Q 2459 422 2753 634 
Q 3047 847 3047 1241 
Q 3047 1584 2836 1778 
Q 2625 1972 2144 2069 
L 1759 2144 
Q 1053 2284 737 2584 
Q 422 2884 422 3419 
Q 422 4038 858 4394 
Q 1294 4750 2059 4750 
Q 2388 4750 2728 4690 
Q 3069 4631 3425 4513 
z
" transform="scale(0.015625)"/>
       <path id="DejaVuSans-70" d="M 1159 525 
L 1159 -1331 
L 581 -1331 
L 581 3500 
L 1159 3500 
L 1159 2969 
Q 1341 3281 1617 3432 
Q 1894 3584 2278 3584 
Q 2916 3584 3314 3078 
Q 3713 2572 3713 1747 
Q 3713 922 3314 415 
Q 2916 -91 2278 -91 
Q 1894 -91 1617 61 
Q 1341 213 1159 525 
z
M 3116 1747 
Q 3116 2381 2855 2742 
Q 2594 3103 2138 3103 
Q 1681 3103 1420 2742 
Q 1159 2381 1159 1747 
Q 1159 1113 1420 752 
Q 1681 391 2138 391 
Q 2594 391 2855 752 
Q 3116 1113 3116 1747 
z
" transform="scale(0.015625)"/>
       <path id="DejaVuSans-73" d="M 2834 3397 
L 2834 2853 
Q 2591 2978 2328 3040 
Q 2066 3103 1784 3103 
Q 1356 3103 1142 2972 
Q 928 2841 928 2578 
Q 928 2378 1081 2264 
Q 1234 2150 1697 2047 
L 1894 2003 
Q 2506 1872 2764 1633 
Q 3022 1394 3022 966 
Q 3022 478 2636 193 
Q 2250 -91 1575 -91 
Q 1294 -91 989 -36 
Q 684 19 347 128 
L 347 722 
Q 666 556 975 473 
Q 1284 391 1588 391 
Q 1994 391 2212 530 
Q 2431 669 2431 922 
Q 2431 1156 2273 1281 
Q 2116 1406 1581 1522 
L 1381 1569 
Q 847 1681 609 1914 
Q 372 2147 372 2553 
Q 372 3047 722 3315 
Q 1072 3584 1716 3584 
Q 2034 3584 2315 3537 
Q 2597 3491 2834 3397 
z
" transform="scale(0.015625)"/>
      </defs>
      <use xlink:href="#DejaVuSans-56"/>
      <use xlink:href="#DejaVuSans-6f" x="60.658203"/>
      <use xlink:href="#DejaVuSans-6c" x="121.839844"/>
      <use xlink:href="#DejaVuSans-74" x="149.623047"/>
      <use xlink:href="#DejaVuSans-61" x="188.832031"/>
      <use xlink:href="#DejaVuSans-67" x="250.111328"/>
      <use xlink:href="#DejaVuSans-65" x="313.587891"/>
      <use xlink:href="#DejaVuSans-20" x="375.111328"/>
      <use xlink:href="#DejaVuSans-53" x="406.898438"/>
      <use xlink:href="#DejaVuSans-74" x="470.375"/>
      <use xlink:href="#DejaVuSans-65" x="509.583984"/>
      <use xlink:href="#DejaVuSans-70" x="571.107422"/>
      <use xlink:href="#DejaVuSans-73" x="634.583984"/>
     </g>
    </g>
    <g id="text_5">
     <!-- 1e6 -->
     <g transform="translate(78.073739 90.692104) scale(0.05 -0.05)">
      <defs>
       <path id="DejaVuSans-36" d="M 2113 2584 
Q 1688 2584 1439 2293 
Q 1191 2003 1191 1497 
Q 1191 994 1439 701 
Q 1688 409 2113 409 
Q 2538 409 2786 701 
Q 3034 994 3034 1497 
Q 3034 2003 2786 2293 
Q 2538 2584 2113 2584 
z
M 3366 4563 
L 3366 3988 
Q 3128 4100 2886 4159 
Q 2644 4219 2406 4219 
Q 1781 4219 1451 3797 
Q 1122 3375 1075 2522 
Q 1259 2794 1537 2939 
Q 1816 3084 2150 3084 
Q 2853 3084 3261 2657 
Q 3669 2231 3669 1497 
Q 3669 778 3244 343 
Q 2819 -91 2113 -91 
Q 1303 -91 875 529 
Q 447 1150 447 2328 
Q 447 3434 972 4092 
Q 1497 4750 2381 4750 
Q 2619 4750 2861 4703 
Q 3103 4656 3366 4563 
z
" transform="scale(0.015625)"/>
      </defs>
      <use xlink:href="#DejaVuSans-31"/>
      <use xlink:href="#DejaVuSans-65" x="63.623047"/>
      <use xlink:href="#DejaVuSans-36" x="125.146484"/>
     </g>
    </g>
   </g>
   <g id="matplotlib.axis_2">
    <g id="ytick_1">
     <g id="line2d_7">
      <defs>
       <path id="mc4d6fe6bf7" d="M 0 0 
L 3.5 0 
" style="stroke: #000000; stroke-width: 0.8"/>
      </defs>
      <g>
       <use xlink:href="#mc4d6fe6bf7" x="28.458438" y="73.204276" style="stroke: #000000; stroke-width: 0.8"/>
      </g>
     </g>
     <g id="text_6">
      <!-- 0.0 -->
      <g transform="translate(17.006875 75.103886) scale(0.05 -0.05)">
       <use xlink:href="#DejaVuSans-30"/>
       <use xlink:href="#DejaVuSans-2e" x="63.623047"/>
       <use xlink:href="#DejaVuSans-30" x="95.410156"/>
      </g>
     </g>
    </g>
    <g id="ytick_2">
     <g id="line2d_8">
      <g>
       <use xlink:href="#mc4d6fe6bf7" x="28.458438" y="56.740054" style="stroke: #000000; stroke-width: 0.8"/>
      </g>
     </g>
     <g id="text_7">
      <!-- 0.5 -->
      <g transform="translate(17.006875 58.639663) scale(0.05 -0.05)">
       <use xlink:href="#DejaVuSans-30"/>
       <use xlink:href="#DejaVuSans-2e" x="63.623047"/>
       <use xlink:href="#DejaVuSans-35" x="95.410156"/>
      </g>
     </g>
    </g>
    <g id="ytick_3">
     <g id="line2d_9">
      <g>
       <use xlink:href="#mc4d6fe6bf7" x="28.458438" y="40.275832" style="stroke: #000000; stroke-width: 0.8"/>
      </g>
     </g>
     <g id="text_8">
      <!-- 1.0 -->
      <g transform="translate(17.006875 42.175441) scale(0.05 -0.05)">
       <use xlink:href="#DejaVuSans-31"/>
       <use xlink:href="#DejaVuSans-2e" x="63.623047"/>
       <use xlink:href="#DejaVuSans-30" x="95.410156"/>
      </g>
     </g>
    </g>
    <g id="ytick_4">
     <g id="line2d_10">
      <g>
       <use xlink:href="#mc4d6fe6bf7" x="28.458438" y="23.811609" style="stroke: #000000; stroke-width: 0.8"/>
      </g>
     </g>
     <g id="text_9">
      <!-- 1.5 -->
      <g transform="translate(17.006875 25.711219) scale(0.05 -0.05)">
       <use xlink:href="#DejaVuSans-31"/>
       <use xlink:href="#DejaVuSans-2e" x="63.623047"/>
       <use xlink:href="#DejaVuSans-35" x="95.410156"/>
      </g>
     </g>
    </g>
    <g id="text_10">
     <!-- Amplitude (Arb. U.) -->
     <g transform="translate(11.759062 74.940547) rotate(-90) scale(0.06 -0.06)">
      <defs>
       <path id="DejaVuSans-41" d="M 2188 4044 
L 1331 1722 
L 3047 1722 
L 2188 4044 
z
M 1831 4666 
L 2547 4666 
L 4325 0 
L 3669 0 
L 3244 1197 
L 1141 1197 
L 716 0 
L 50 0 
L 1831 4666 
z
" transform="scale(0.015625)"/>
       <path id="DejaVuSans-6d" d="M 3328 2828 
Q 3544 3216 3844 3400 
Q 4144 3584 4550 3584 
Q 5097 3584 5394 3201 
Q 5691 2819 5691 2113 
L 5691 0 
L 5113 0 
L 5113 2094 
Q 5113 2597 4934 2840 
Q 4756 3084 4391 3084 
Q 3944 3084 3684 2787 
Q 3425 2491 3425 1978 
L 3425 0 
L 2847 0 
L 2847 2094 
Q 2847 2600 2669 2842 
Q 2491 3084 2119 3084 
Q 1678 3084 1418 2786 
Q 1159 2488 1159 1978 
L 1159 0 
L 581 0 
L 581 3500 
L 1159 3500 
L 1159 2956 
Q 1356 3278 1631 3431 
Q 1906 3584 2284 3584 
Q 2666 3584 2933 3390 
Q 3200 3197 3328 2828 
z
" transform="scale(0.015625)"/>
       <path id="DejaVuSans-69" d="M 603 3500 
L 1178 3500 
L 1178 0 
L 603 0 
L 603 3500 
z
M 603 4863 
L 1178 4863 
L 1178 4134 
L 603 4134 
L 603 4863 
z
" transform="scale(0.015625)"/>
       <path id="DejaVuSans-75" d="M 544 1381 
L 544 3500 
L 1119 3500 
L 1119 1403 
Q 1119 906 1312 657 
Q 1506 409 1894 409 
Q 2359 409 2629 706 
Q 2900 1003 2900 1516 
L 2900 3500 
L 3475 3500 
L 3475 0 
L 2900 0 
L 2900 538 
Q 2691 219 2414 64 
Q 2138 -91 1772 -91 
Q 1169 -91 856 284 
Q 544 659 544 1381 
z
M 1991 3584 
L 1991 3584 
z
" transform="scale(0.015625)"/>
       <path id="DejaVuSans-64" d="M 2906 2969 
L 2906 4863 
L 3481 4863 
L 3481 0 
L 2906 0 
L 2906 525 
Q 2725 213 2448 61 
Q 2172 -91 1784 -91 
Q 1150 -91 751 415 
Q 353 922 353 1747 
Q 353 2572 751 3078 
Q 1150 3584 1784 3584 
Q 2172 3584 2448 3432 
Q 2725 3281 2906 2969 
z
M 947 1747 
Q 947 1113 1208 752 
Q 1469 391 1925 391 
Q 2381 391 2643 752 
Q 2906 1113 2906 1747 
Q 2906 2381 2643 2742 
Q 2381 3103 1925 3103 
Q 1469 3103 1208 2742 
Q 947 2381 947 1747 
z
" transform="scale(0.015625)"/>
       <path id="DejaVuSans-28" d="M 1984 4856 
Q 1566 4138 1362 3434 
Q 1159 2731 1159 2009 
Q 1159 1288 1364 580 
Q 1569 -128 1984 -844 
L 1484 -844 
Q 1016 -109 783 600 
Q 550 1309 550 2009 
Q 550 2706 781 3412 
Q 1013 4119 1484 4856 
L 1984 4856 
z
" transform="scale(0.015625)"/>
       <path id="DejaVuSans-72" d="M 2631 2963 
Q 2534 3019 2420 3045 
Q 2306 3072 2169 3072 
Q 1681 3072 1420 2755 
Q 1159 2438 1159 1844 
L 1159 0 
L 581 0 
L 581 3500 
L 1159 3500 
L 1159 2956 
Q 1341 3275 1631 3429 
Q 1922 3584 2338 3584 
Q 2397 3584 2469 3576 
Q 2541 3569 2628 3553 
L 2631 2963 
z
" transform="scale(0.015625)"/>
       <path id="DejaVuSans-62" d="M 3116 1747 
Q 3116 2381 2855 2742 
Q 2594 3103 2138 3103 
Q 1681 3103 1420 2742 
Q 1159 2381 1159 1747 
Q 1159 1113 1420 752 
Q 1681 391 2138 391 
Q 2594 391 2855 752 
Q 3116 1113 3116 1747 
z
M 1159 2969 
Q 1341 3281 1617 3432 
Q 1894 3584 2278 3584 
Q 2916 3584 3314 3078 
Q 3713 2572 3713 1747 
Q 3713 922 3314 415 
Q 2916 -91 2278 -91 
Q 1894 -91 1617 61 
Q 1341 213 1159 525 
L 1159 0 
L 581 0 
L 581 4863 
L 1159 4863 
L 1159 2969 
z
" transform="scale(0.015625)"/>
       <path id="DejaVuSans-55" d="M 556 4666 
L 1191 4666 
L 1191 1831 
Q 1191 1081 1462 751 
Q 1734 422 2344 422 
Q 2950 422 3222 751 
Q 3494 1081 3494 1831 
L 3494 4666 
L 4128 4666 
L 4128 1753 
Q 4128 841 3676 375 
Q 3225 -91 2344 -91 
Q 1459 -91 1007 375 
Q 556 841 556 1753 
L 556 4666 
z
" transform="scale(0.015625)"/>
       <path id="DejaVuSans-29" d="M 513 4856 
L 1013 4856 
Q 1481 4119 1714 3412 
Q 1947 2706 1947 2009 
Q 1947 1309 1714 600 
Q 1481 -109 1013 -844 
L 513 -844 
Q 928 -128 1133 580 
Q 1338 1288 1338 2009 
Q 1338 2731 1133 3434 
Q 928 4138 513 4856 
z
" transform="scale(0.015625)"/>
      </defs>
      <use xlink:href="#DejaVuSans-41"/>
      <use xlink:href="#DejaVuSans-6d" x="68.408203"/>
      <use xlink:href="#DejaVuSans-70" x="165.820312"/>
      <use xlink:href="#DejaVuSans-6c" x="229.296875"/>
      <use xlink:href="#DejaVuSans-69" x="257.080078"/>
      <use xlink:href="#DejaVuSans-74" x="284.863281"/>
      <use xlink:href="#DejaVuSans-75" x="324.072266"/>
      <use xlink:href="#DejaVuSans-64" x="387.451172"/>
      <use xlink:href="#DejaVuSans-65" x="450.927734"/>
      <use xlink:href="#DejaVuSans-20" x="512.451172"/>
      <use xlink:href="#DejaVuSans-28" x="544.238281"/>
      <use xlink:href="#DejaVuSans-41" x="583.251953"/>
      <use xlink:href="#DejaVuSans-72" x="651.660156"/>
      <use xlink:href="#DejaVuSans-62" x="692.773438"/>
      <use xlink:href="#DejaVuSans-2e" x="756.25"/>
      <use xlink:href="#DejaVuSans-20" x="788.037109"/>
      <use xlink:href="#DejaVuSans-55" x="819.824219"/>
      <use xlink:href="#DejaVuSans-2e" x="893.017578"/>
      <use xlink:href="#DejaVuSans-29" x="924.804688"/>
     </g>
    </g>
    <g id="text_11">
     <!-- 1e−2 -->
     <g transform="translate(28.458438 13.499459) scale(0.05 -0.05)">
      <defs>
       <path id="DejaVuSans-2212" d="M 678 2272 
L 4684 2272 
L 4684 1741 
L 678 1741 
L 678 2272 
z
" transform="scale(0.015625)"/>
      </defs>
      <use xlink:href="#DejaVuSans-31"/>
      <use xlink:href="#DejaVuSans-65" x="63.623047"/>
      <use xlink:href="#DejaVuSans-2212" x="125.146484"/>
      <use xlink:href="#DejaVuSans-32" x="208.935547"/>
     </g>
    </g>
   </g>
   <g id="line2d_11">
    <path d="M 31.142727 72.130036 
L 31.470058 70.468394 
L 31.79739 71.788718 
L 32.124763 69.542132 
L 32.452136 71.781239 
L 32.779468 70.62266 
L 33.106799 71.108572 
L 33.434172 69.186803 
L 33.761546 70.108038 
L 34.088877 72.013192 
L 34.416208 70.369953 
L 34.743582 71.744366 
L 35.070955 72.48692 
L 35.725618 70.523283 
L 36.052991 71.875028 
L 36.380364 69.987828 
L 36.707696 72.752344 
L 37.035027 69.853019 
L 37.3624 70.703448 
L 37.689774 70.378209 
L 38.017105 69.201376 
L 38.344437 69.905121 
L 38.67181 72.088758 
L 38.999183 70.846295 
L 39.326515 69.06586 
L 39.653846 69.961126 
L 39.981219 71.698129 
L 40.308593 72.688022 
L 40.963255 69.823839 
L 41.290629 70.868976 
L 41.618002 72.378114 
L 41.945333 68.333466 
L 42.272665 69.759537 
L 42.600038 68.320204 
L 42.927411 71.430265 
L 43.254743 68.840824 
L 43.582074 69.957407 
L 43.909447 70.353324 
L 44.236821 70.551839 
L 44.564152 69.155404 
L 44.891484 72.684582 
L 45.218857 69.538611 
L 45.54623 67.84759 
L 45.873562 69.926536 
L 46.200893 69.396354 
L 46.528266 70.585798 
L 46.85564 68.648615 
L 47.182971 69.970029 
L 47.510302 68.058178 
L 47.837676 70.846376 
L 48.165049 71.703237 
L 48.49238 71.240916 
L 48.819712 69.868963 
L 49.147085 71.969132 
L 49.474458 69.998612 
L 49.80179 72.869533 
L 50.129121 70.481848 
L 50.456494 66.797603 
L 50.783868 70.435445 
L 51.111199 67.338253 
L 51.43853 68.623479 
L 52.093277 71.927055 
L 52.420608 65.769863 
L 52.74794 68.934045 
L 53.075313 67.9527 
L 53.402686 67.962919 
L 53.730018 69.328963 
L 54.057349 68.261279 
L 54.384723 68.993147 
L 54.712096 68.180467 
L 55.039427 67.006487 
L 55.366759 66.916954 
L 55.694132 65.998699 
L 56.021505 65.855974 
L 56.348837 66.376521 
L 56.676168 65.441748 
L 57.003541 67.33622 
L 57.330915 64.579908 
L 57.985577 64.743606 
L 58.312951 63.799654 
L 58.640324 63.937055 
L 58.967655 61.66744 
L 59.62236 63.350574 
L 59.949733 58.541437 
L 60.277065 62.415948 
L 60.604396 56.631544 
L 60.93177 57.221019 
L 61.259143 55.313094 
L 61.586474 51.070477 
L 61.913806 51.512296 
L 62.241179 47.348591 
L 63.877962 19.383697 
L 64.205293 19.183748 
L 64.859998 31.093625 
L 65.187371 40.360357 
L 65.842034 43.331339 
L 66.169407 51.985606 
L 66.49678 49.825427 
L 67.151443 57.302346 
L 67.478817 60.653695 
L 67.80619 58.136332 
L 68.133521 59.57312 
L 68.460853 62.449382 
L 68.788226 59.90204 
L 69.115599 66.405895 
L 69.442931 60.392464 
L 69.770262 63.717155 
L 70.425009 66.359485 
L 70.75234 64.955173 
L 71.079671 66.656892 
L 71.407045 63.965619 
L 71.734418 67.028051 
L 72.061749 64.431373 
L 72.389081 64.844811 
L 73.043827 67.645571 
L 73.69849 65.604708 
L 74.025864 69.242261 
L 74.353237 69.371634 
L 74.680568 68.45922 
L 75.0079 66.04675 
L 75.335273 69.064907 
L 75.662646 65.211186 
L 75.989978 66.416851 
L 76.317309 68.815818 
L 76.972056 66.341286 
L 77.299387 70.714528 
L 77.626718 67.191848 
L 77.954092 69.456947 
L 78.281465 69.184582 
L 78.608796 69.242858 
L 78.936128 70.89942 
L 79.263501 68.941297 
L 79.918206 66.5083 
L 80.245537 69.750206 
L 80.572911 70.053706 
L 80.900284 69.867385 
L 81.554947 67.682086 
L 81.88232 66.765115 
L 82.209693 68.70282 
L 82.537025 67.103452 
L 82.864356 68.9649 
L 83.191729 68.984576 
L 83.519103 69.254663 
L 83.846434 70.700384 
L 84.173765 65.950508 
L 84.501139 69.525676 
L 84.828512 70.416662 
L 84.828512 70.416662 
" clip-path="url(#p49b9589006)" style="fill: none; stroke: #0000ff; stroke-width: 0.5; stroke-linecap: square"/>
   </g>
   <g id="patch_3">
    <path d="M 28.458438 75.553823 
L 28.458438 16.499459 
" style="fill: none; stroke: #000000; stroke-width: 0.5; stroke-linejoin: miter; stroke-linecap: square"/>
   </g>
   <g id="patch_4">
    <path d="M 87.512801 75.553823 
L 87.512801 16.499459 
" style="fill: none; stroke: #000000; stroke-width: 0.5; stroke-linejoin: miter; stroke-linecap: square"/>
   </g>
   <g id="patch_5">
    <path d="M 28.458438 75.553823 
L 87.512801 75.553823 
" style="fill: none; stroke: #000000; stroke-width: 0.5; stroke-linejoin: miter; stroke-linecap: square"/>
   </g>
   <g id="patch_6">
    <path d="M 28.458438 16.499459 
L 87.512801 16.499459 
" style="fill: none; stroke: #000000; stroke-width: 0.5; stroke-linejoin: miter; stroke-linecap: square"/>
   </g>
   <g id="text_12">
    <path d="M 37.249717 25.596363 
Q 36.812217 25.596363 36.590967 25.745113 
Q 36.370967 25.892613 36.370967 26.182613 
Q 36.370967 26.447613 36.548467 26.598863 
Q 36.727217 26.748863 37.043467 26.748863 
Q 37.437217 26.748863 37.707217 26.466363 
Q 37.977217 26.182613 37.977217 25.756363 
L 37.977217 25.596363 
L 37.249717 25.596363 
z
M 39.387217 25.068863 
L 39.387217 27.565113 
L 37.977217 27.565113 
L 37.977217 26.916363 
Q 37.695967 27.315113 37.343467 27.497613 
Q 36.992217 27.678863 36.488467 27.678863 
Q 35.808467 27.678863 35.384717 27.282613 
Q 34.960967 26.885113 34.960967 26.252613 
Q 34.960967 25.482613 35.489717 25.123863 
Q 36.019717 24.763863 37.152217 24.763863 
L 37.977217 24.763863 
L 37.977217 24.655113 
Q 37.977217 24.322613 37.714717 24.168863 
Q 37.453467 24.013863 36.898467 24.013863 
Q 36.449717 24.013863 36.062217 24.103863 
Q 35.675967 24.193863 35.343467 24.373863 
L 35.343467 23.307613 
Q 35.793467 23.197613 36.245967 23.141363 
Q 36.699717 23.085113 37.152217 23.085113 
Q 38.335967 23.085113 38.860967 23.551363 
Q 39.387217 24.017613 39.387217 25.068863 
z
"/>
    <path d="M 37.249717 25.596363 
Q 36.812217 25.596363 36.590967 25.745113 
Q 36.370967 25.892613 36.370967 26.182613 
Q 36.370967 26.447613 36.548467 26.598863 
Q 36.727217 26.748863 37.043467 26.748863 
Q 37.437217 26.748863 37.707217 26.466363 
Q 37.977217 26.182613 37.977217 25.756363 
L 37.977217 25.596363 
L 37.249717 25.596363 
z
M 39.387217 25.068863 
L 39.387217 27.565113 
L 37.977217 27.565113 
L 37.977217 26.916363 
Q 37.695967 27.315113 37.343467 27.497613 
Q 36.992217 27.678863 36.488467 27.678863 
Q 35.808467 27.678863 35.384717 27.282613 
Q 34.960967 26.885113 34.960967 26.252613 
Q 34.960967 25.482613 35.489717 25.123863 
Q 36.019717 24.763863 37.152217 24.763863 
L 37.977217 24.763863 
L 37.977217 24.655113 
Q 37.977217 24.322613 37.714717 24.168863 
Q 37.453467 24.013863 36.898467 24.013863 
Q 36.449717 24.013863 36.062217 24.103863 
Q 35.675967 24.193863 35.343467 24.373863 
L 35.343467 23.307613 
Q 35.793467 23.197613 36.245967 23.141363 
Q 36.699717 23.085113 37.152217 23.085113 
Q 38.335967 23.085113 38.860967 23.551363 
Q 39.387217 24.017613 39.387217 25.068863 
z
"/>
   </g>
  </g>
  <g id="axes_2">
   <g id="patch_7">
    <path d="M 134.869219 75.553822 
L 193.923582 75.553822 
L 193.923582 16.499459 
L 134.869219 16.499459 
z
" style="fill: #ffffff"/>
   </g>
   <g id="matplotlib.axis_3">
    <g id="xtick_4">
     <g id="line2d_12">
      <g>
       <use xlink:href="#mb8d452784b" x="144.427886" y="75.553822" style="stroke: #000000; stroke-width: 0.8"/>
      </g>
     </g>
     <g id="line2d_13">
      <g>
       <use xlink:href="#m1dc97368a8" x="144.427886" y="16.499459" style="stroke: #000000; stroke-width: 0.8"/>
      </g>
     </g>
     <g id="text_13">
      <!-- 1.25 -->
      <g transform="translate(138.86148 82.853041) scale(0.05 -0.05)">
       <use xlink:href="#DejaVuSans-31"/>
       <use xlink:href="#DejaVuSans-2e" x="63.623047"/>
       <use xlink:href="#DejaVuSans-32" x="95.410156"/>
       <use xlink:href="#DejaVuSans-35" x="159.033203"/>
      </g>
     </g>
    </g>
    <g id="xtick_5">
     <g id="line2d_14">
      <g>
       <use xlink:href="#mb8d452784b" x="161.188327" y="75.553822" style="stroke: #000000; stroke-width: 0.8"/>
      </g>
     </g>
     <g id="line2d_15">
      <g>
       <use xlink:href="#m1dc97368a8" x="161.188327" y="16.499459" style="stroke: #000000; stroke-width: 0.8"/>
      </g>
     </g>
     <g id="text_14">
      <!-- 1.30 -->
      <g transform="translate(155.62192 82.853041) scale(0.05 -0.05)">
       <use xlink:href="#DejaVuSans-31"/>
       <use xlink:href="#DejaVuSans-2e" x="63.623047"/>
       <use xlink:href="#DejaVuSans-33" x="95.410156"/>
       <use xlink:href="#DejaVuSans-30" x="159.033203"/>
      </g>
     </g>
    </g>
    <g id="xtick_6">
     <g id="line2d_16">
      <g>
       <use xlink:href="#mb8d452784b" x="177.948767" y="75.553822" style="stroke: #000000; stroke-width: 0.8"/>
      </g>
     </g>
     <g id="line2d_17">
      <g>
       <use xlink:href="#m1dc97368a8" x="177.948767" y="16.499459" style="stroke: #000000; stroke-width: 0.8"/>
      </g>
     </g>
     <g id="text_15">
      <!-- 1.35 -->
      <g transform="translate(172.382361 82.853041) scale(0.05 -0.05)">
       <use xlink:href="#DejaVuSans-31"/>
       <use xlink:href="#DejaVuSans-2e" x="63.623047"/>
       <use xlink:href="#DejaVuSans-33" x="95.410156"/>
       <use xlink:href="#DejaVuSans-35" x="159.033203"/>
      </g>
     </g>
    </g>
    <g id="text_16">
     <!-- Voltage Steps -->
     <g transform="translate(143.795307 92.451947) scale(0.06 -0.06)">
      <use xlink:href="#DejaVuSans-56"/>
      <use xlink:href="#DejaVuSans-6f" x="60.658203"/>
      <use xlink:href="#DejaVuSans-6c" x="121.839844"/>
      <use xlink:href="#DejaVuSans-74" x="149.623047"/>
      <use xlink:href="#DejaVuSans-61" x="188.832031"/>
      <use xlink:href="#DejaVuSans-67" x="250.111328"/>
      <use xlink:href="#DejaVuSans-65" x="313.587891"/>
      <use xlink:href="#DejaVuSans-20" x="375.111328"/>
      <use xlink:href="#DejaVuSans-53" x="406.898438"/>
      <use xlink:href="#DejaVuSans-74" x="470.375"/>
      <use xlink:href="#DejaVuSans-65" x="509.583984"/>
      <use xlink:href="#DejaVuSans-70" x="571.107422"/>
      <use xlink:href="#DejaVuSans-73" x="634.583984"/>
     </g>
    </g>
    <g id="text_17">
     <!-- 1e6 -->
     <g transform="translate(184.48452 90.692104) scale(0.05 -0.05)">
      <use xlink:href="#DejaVuSans-31"/>
      <use xlink:href="#DejaVuSans-65" x="63.623047"/>
      <use xlink:href="#DejaVuSans-36" x="125.146484"/>
     </g>
    </g>
   </g>
   <g id="matplotlib.axis_4">
    <g id="ytick_5">
     <g id="line2d_18">
      <g>
       <use xlink:href="#mc4d6fe6bf7" x="134.869219" y="62.1905" style="stroke: #000000; stroke-width: 0.8"/>
      </g>
     </g>
     <g id="text_18">
      <!-- −5 -->
      <g transform="translate(123.998125 64.090109) scale(0.05 -0.05)">
       <use xlink:href="#DejaVuSans-2212"/>
       <use xlink:href="#DejaVuSans-35" x="83.789062"/>
      </g>
     </g>
    </g>
    <g id="ytick_6">
     <g id="line2d_19">
      <g>
       <use xlink:href="#mc4d6fe6bf7" x="134.869219" y="46.215243" style="stroke: #000000; stroke-width: 0.8"/>
      </g>
     </g>
     <g id="text_19">
      <!-- 0 -->
      <g transform="translate(128.187969 48.114852) scale(0.05 -0.05)">
       <use xlink:href="#DejaVuSans-30"/>
      </g>
     </g>
    </g>
    <g id="ytick_7">
     <g id="line2d_20">
      <g>
       <use xlink:href="#mc4d6fe6bf7" x="134.869219" y="30.239986" style="stroke: #000000; stroke-width: 0.8"/>
      </g>
     </g>
     <g id="text_20">
      <!-- 5 -->
      <g transform="translate(128.187969 32.139596) scale(0.05 -0.05)">
       <use xlink:href="#DejaVuSans-35"/>
      </g>
     </g>
    </g>
    <g id="text_21">
     <!-- Real (Arb. U.) -->
     <g transform="translate(118.750313 66.034297) rotate(-90) scale(0.06 -0.06)">
      <defs>
       <path id="DejaVuSans-52" d="M 2841 2188 
Q 3044 2119 3236 1894 
Q 3428 1669 3622 1275 
L 4263 0 
L 3584 0 
L 2988 1197 
Q 2756 1666 2539 1819 
Q 2322 1972 1947 1972 
L 1259 1972 
L 1259 0 
L 628 0 
L 628 4666 
L 2053 4666 
Q 2853 4666 3247 4331 
Q 3641 3997 3641 3322 
Q 3641 2881 3436 2590 
Q 3231 2300 2841 2188 
z
M 1259 4147 
L 1259 2491 
L 2053 2491 
Q 2509 2491 2742 2702 
Q 2975 2913 2975 3322 
Q 2975 3731 2742 3939 
Q 2509 4147 2053 4147 
L 1259 4147 
z
" transform="scale(0.015625)"/>
      </defs>
      <use xlink:href="#DejaVuSans-52"/>
      <use xlink:href="#DejaVuSans-65" x="64.982422"/>
      <use xlink:href="#DejaVuSans-61" x="126.505859"/>
      <use xlink:href="#DejaVuSans-6c" x="187.785156"/>
      <use xlink:href="#DejaVuSans-20" x="215.568359"/>
      <use xlink:href="#DejaVuSans-28" x="247.355469"/>
      <use xlink:href="#DejaVuSans-41" x="286.369141"/>
      <use xlink:href="#DejaVuSans-72" x="354.777344"/>
      <use xlink:href="#DejaVuSans-62" x="395.890625"/>
      <use xlink:href="#DejaVuSans-2e" x="459.367188"/>
      <use xlink:href="#DejaVuSans-20" x="491.154297"/>
      <use xlink:href="#DejaVuSans-55" x="522.941406"/>
      <use xlink:href="#DejaVuSans-2e" x="596.134766"/>
      <use xlink:href="#DejaVuSans-29" x="627.921875"/>
     </g>
    </g>
    <g id="text_22">
     <!-- 1e−3 -->
     <g transform="translate(134.869219 13.499459) scale(0.05 -0.05)">
      <use xlink:href="#DejaVuSans-31"/>
      <use xlink:href="#DejaVuSans-65" x="63.623047"/>
      <use xlink:href="#DejaVuSans-2212" x="125.146484"/>
      <use xlink:href="#DejaVuSans-33" x="208.935547"/>
     </g>
    </g>
   </g>
   <g id="line2d_21">
    <path d="M 137.553508 45.243847 
L 137.880839 43.577264 
L 138.208171 46.198516 
L 138.535544 46.554107 
L 139.190249 44.847161 
L 139.51758 44.202245 
L 139.844954 43.854459 
L 140.499658 45.470944 
L 140.82699 47.564468 
L 141.154363 44.976781 
L 141.481736 46.123228 
L 142.136399 43.63178 
L 142.463772 45.469353 
L 142.791146 43.70157 
L 143.118477 45.848645 
L 143.445808 44.421529 
L 143.773182 43.978309 
L 144.100555 48.95524 
L 144.427886 43.64674 
L 144.755218 43.364725 
L 145.082591 45.154047 
L 145.409964 43.948618 
L 145.737296 43.184715 
L 146.064627 43.35542 
L 146.392 45.003406 
L 146.719374 45.715158 
L 147.046705 45.886094 
L 147.374037 42.953679 
L 148.028783 45.417024 
L 148.356115 41.526092 
L 148.683446 43.641576 
L 149.010819 41.481241 
L 149.338193 44.496459 
L 149.665524 41.982103 
L 149.992855 43.374423 
L 150.647602 43.64158 
L 150.974933 42.292786 
L 151.302265 45.711396 
L 151.629638 42.693555 
L 151.957011 42.574786 
L 152.284343 43.366329 
L 152.611674 42.649962 
L 152.939047 44.589359 
L 153.266421 42.787533 
L 153.593752 43.129281 
L 153.921084 41.308931 
L 154.248457 44.151453 
L 154.57583 45.14862 
L 154.903162 45.403581 
L 155.230493 43.31186 
L 155.557866 45.030299 
L 155.88524 43.168825 
L 156.212571 46.138785 
L 156.539902 43.659342 
L 156.867276 40.07078 
L 157.194649 43.649563 
L 157.52198 40.638254 
L 157.849312 41.797156 
L 158.504058 44.976068 
L 158.83139 39.128322 
L 159.158721 42.188329 
L 159.486094 41.613138 
L 159.813468 41.74422 
L 160.140799 42.856812 
L 160.468131 41.419216 
L 160.795504 43.84953 
L 161.122877 41.395949 
L 161.450209 40.227389 
L 161.77754 40.205491 
L 162.104913 39.331621 
L 162.432287 39.141762 
L 162.759618 39.632268 
L 163.086949 39.175117 
L 163.414323 40.938775 
L 163.741696 38.05141 
L 164.069027 38.142384 
L 164.396359 38.910074 
L 164.723732 37.463795 
L 165.051105 37.225691 
L 165.378437 35.180047 
L 165.705768 36.704539 
L 166.033141 37.327813 
L 166.360515 32.747582 
L 166.687846 36.206373 
L 167.015178 31.268204 
L 167.342551 31.539147 
L 167.669924 29.922174 
L 167.997256 26.775779 
L 168.324587 26.365109 
L 168.979334 21.694816 
L 169.306665 21.670578 
L 169.633996 19.183748 
L 169.96137 25.345543 
L 170.288743 35.415561 
L 170.616074 55.030043 
L 170.943406 67.974027 
L 171.270779 72.869533 
L 171.598152 67.387459 
L 171.925484 72.208457 
L 172.252815 71.076129 
L 172.580188 64.927536 
L 172.907562 66.868512 
L 173.234893 62.539641 
L 173.562224 61.056533 
L 173.889598 58.358383 
L 174.216971 60.290542 
L 174.544302 59.376271 
L 174.871634 56.411194 
L 175.199007 58.872291 
L 175.52638 52.410604 
L 175.853712 58.644999 
L 176.181043 54.662504 
L 176.508417 53.895648 
L 176.83579 52.717439 
L 177.163121 54.028033 
L 177.490453 52.567065 
L 177.817826 54.217633 
L 178.145199 51.719123 
L 178.472531 54.726355 
L 178.799862 54.245276 
L 179.127235 53.142064 
L 179.454609 51.563933 
L 179.78194 52.374393 
L 180.109271 53.54928 
L 180.436645 50.046049 
L 180.764018 48.901957 
L 181.418681 53.103291 
L 181.746054 50.100317 
L 182.073427 52.391467 
L 182.400759 52.787322 
L 182.72809 50.46184 
L 183.382837 52.731597 
L 183.710168 48.62997 
L 184.0375 52.042263 
L 184.364873 49.45592 
L 184.692246 49.156941 
L 185.019578 49.772624 
L 185.346909 48.372041 
L 185.674282 50.349227 
L 186.001656 51.110184 
L 186.328987 52.708816 
L 186.656318 49.076191 
L 186.983692 49.235006 
L 187.311065 48.026292 
L 187.638396 50.66518 
L 187.965728 50.762702 
L 188.293101 52.458802 
L 188.620474 50.507339 
L 188.947806 50.876314 
L 189.275137 48.772752 
L 189.602511 49.969342 
L 190.257215 48.633511 
L 190.584547 52.998111 
L 190.91192 49.454452 
L 191.239293 48.110981 
L 191.239293 48.110981 
" clip-path="url(#p849e5c82d2)" style="fill: none; stroke: #000000; stroke-width: 0.5; stroke-linecap: square"/>
   </g>
   <g id="patch_8">
    <path d="M 134.869219 75.553822 
L 134.869219 16.499459 
" style="fill: none; stroke: #000000; stroke-width: 0.5; stroke-linejoin: miter; stroke-linecap: square"/>
   </g>
   <g id="patch_9">
    <path d="M 193.923582 75.553822 
L 193.923582 16.499459 
" style="fill: none; stroke: #000000; stroke-width: 0.5; stroke-linejoin: miter; stroke-linecap: square"/>
   </g>
   <g id="patch_10">
    <path d="M 134.869219 75.553822 
L 193.923582 75.553822 
" style="fill: none; stroke: #000000; stroke-width: 0.5; stroke-linejoin: miter; stroke-linecap: square"/>
   </g>
   <g id="patch_11">
    <path d="M 134.869219 16.499459 
L 193.923582 16.499459 
" style="fill: none; stroke: #000000; stroke-width: 0.5; stroke-linejoin: miter; stroke-linecap: square"/>
   </g>
   <g id="text_23">
    <path d="M 143.864248 26.662613 
Q 144.312998 26.662613 144.549248 26.335113 
Q 144.786748 26.006363 144.786748 25.381363 
Q 144.786748 24.756363 144.549248 24.428863 
Q 144.312998 24.100113 143.864248 24.100113 
Q 143.415498 24.100113 143.174248 24.430113 
Q 142.934248 24.760113 142.934248 25.381363 
Q 142.934248 26.002613 143.174248 26.332613 
Q 143.415498 26.662613 143.864248 26.662613 
z
M 142.934248 23.830113 
Q 143.224248 23.447613 143.575498 23.266363 
Q 143.926748 23.085113 144.384248 23.085113 
Q 145.192998 23.085113 145.711748 23.727613 
Q 146.231748 24.370113 146.231748 25.381363 
Q 146.231748 26.392613 145.711748 27.036363 
Q 145.192998 27.678863 144.384248 27.678863 
Q 143.926748 27.678863 143.575498 27.497613 
Q 143.224248 27.315113 142.934248 26.932613 
L 142.934248 27.565113 
L 141.536748 27.565113 
L 141.536748 21.486363 
L 142.934248 21.486363 
L 142.934248 23.830113 
z
"/>
    <path d="M 143.864248 26.662613 
Q 144.312998 26.662613 144.549248 26.335113 
Q 144.786748 26.006363 144.786748 25.381363 
Q 144.786748 24.756363 144.549248 24.428863 
Q 144.312998 24.100113 143.864248 24.100113 
Q 143.415498 24.100113 143.174248 24.430113 
Q 142.934248 24.760113 142.934248 25.381363 
Q 142.934248 26.002613 143.174248 26.332613 
Q 143.415498 26.662613 143.864248 26.662613 
z
M 142.934248 23.830113 
Q 143.224248 23.447613 143.575498 23.266363 
Q 143.926748 23.085113 144.384248 23.085113 
Q 145.192998 23.085113 145.711748 23.727613 
Q 146.231748 24.370113 146.231748 25.381363 
Q 146.231748 26.392613 145.711748 27.036363 
Q 145.192998 27.678863 144.384248 27.678863 
Q 143.926748 27.678863 143.575498 27.497613 
Q 143.224248 27.315113 142.934248 26.932613 
L 142.934248 27.565113 
L 141.536748 27.565113 
L 141.536748 21.486363 
L 142.934248 21.486363 
L 142.934248 23.830113 
z
"/>
   </g>
  </g>
  <g id="axes_3">
   <g id="matplotlib.axis_5">
    <g id="ytick_8">
     <g id="line2d_22">
      <defs>
       <path id="m6d6858a951" d="M 0 0 
L -3.5 0 
" style="stroke: #000000; stroke-width: 0.8"/>
      </defs>
      <g>
       <use xlink:href="#m6d6858a951" x="87.512801" y="63.197605" style="stroke: #000000; stroke-width: 0.8"/>
      </g>
     </g>
     <g id="text_24">
      <!-- −2 -->
      <g transform="translate(91.012801 65.097214) scale(0.05 -0.05)">
       <use xlink:href="#DejaVuSans-2212"/>
       <use xlink:href="#DejaVuSans-32" x="83.789062"/>
      </g>
     </g>
    </g>
    <g id="ytick_9">
     <g id="line2d_23">
      <g>
       <use xlink:href="#m6d6858a951" x="87.512801" y="46.014307" style="stroke: #000000; stroke-width: 0.8"/>
      </g>
     </g>
     <g id="text_25">
      <!-- 0 -->
      <g transform="translate(91.012801 47.913917) scale(0.05 -0.05)">
       <use xlink:href="#DejaVuSans-30"/>
      </g>
     </g>
    </g>
    <g id="ytick_10">
     <g id="line2d_24">
      <g>
       <use xlink:href="#m6d6858a951" x="87.512801" y="28.831009" style="stroke: #000000; stroke-width: 0.8"/>
      </g>
     </g>
     <g id="text_26">
      <!-- 2 -->
      <g transform="translate(91.012801 30.730619) scale(0.05 -0.05)">
       <use xlink:href="#DejaVuSans-32"/>
      </g>
     </g>
    </g>
    <g id="text_27">
     <!-- Phase (rad) -->
     <g transform="translate(106.942958 63.254609) rotate(-90) scale(0.06 -0.06)">
      <defs>
       <path id="DejaVuSans-50" d="M 1259 4147 
L 1259 2394 
L 2053 2394 
Q 2494 2394 2734 2622 
Q 2975 2850 2975 3272 
Q 2975 3691 2734 3919 
Q 2494 4147 2053 4147 
L 1259 4147 
z
M 628 4666 
L 2053 4666 
Q 2838 4666 3239 4311 
Q 3641 3956 3641 3272 
Q 3641 2581 3239 2228 
Q 2838 1875 2053 1875 
L 1259 1875 
L 1259 0 
L 628 0 
L 628 4666 
z
" transform="scale(0.015625)"/>
       <path id="DejaVuSans-68" d="M 3513 2113 
L 3513 0 
L 2938 0 
L 2938 2094 
Q 2938 2591 2744 2837 
Q 2550 3084 2163 3084 
Q 1697 3084 1428 2787 
Q 1159 2491 1159 1978 
L 1159 0 
L 581 0 
L 581 4863 
L 1159 4863 
L 1159 2956 
Q 1366 3272 1645 3428 
Q 1925 3584 2291 3584 
Q 2894 3584 3203 3211 
Q 3513 2838 3513 2113 
z
" transform="scale(0.015625)"/>
      </defs>
      <use xlink:href="#DejaVuSans-50"/>
      <use xlink:href="#DejaVuSans-68" x="60.302734"/>
      <use xlink:href="#DejaVuSans-61" x="123.681641"/>
      <use xlink:href="#DejaVuSans-73" x="184.960938"/>
      <use xlink:href="#DejaVuSans-65" x="237.060547"/>
      <use xlink:href="#DejaVuSans-20" x="298.583984"/>
      <use xlink:href="#DejaVuSans-28" x="330.371094"/>
      <use xlink:href="#DejaVuSans-72" x="369.384766"/>
      <use xlink:href="#DejaVuSans-61" x="410.498047"/>
      <use xlink:href="#DejaVuSans-64" x="471.777344"/>
      <use xlink:href="#DejaVuSans-29" x="535.253906"/>
     </g>
    </g>
   </g>
   <g id="line2d_25">
    <path d="M 31.142727 49.202405 
L 31.470058 45.051494 
L 31.79739 59.405403 
L 32.124763 60.330617 
L 32.452136 55.917981 
L 32.779468 37.482524 
L 33.434172 53.920841 
L 33.761546 37.125446 
L 34.088877 38.530494 
L 34.416208 63.915658 
L 34.743582 41.659639 
L 35.070955 33.657692 
L 35.398286 52.052714 
L 36.052991 37.816687 
L 36.380364 51.464875 
L 36.707696 41.024037 
L 37.035027 37.538708 
L 37.3624 49.433408 
L 37.689774 72.666335 
L 38.017105 53.302135 
L 38.344437 41.955255 
L 38.67181 44.311376 
L 38.999183 44.840292 
L 39.326515 52.162415 
L 39.653846 49.712252 
L 39.981219 40.918729 
L 40.308593 45.517383 
L 40.635924 33.955382 
L 40.963255 46.926721 
L 41.290629 49.216938 
L 41.618002 45.221792 
L 41.945333 44.938493 
L 42.272665 40.069238 
L 42.600038 46.409809 
L 42.927411 45.547436 
L 43.254743 45.855458 
L 43.582074 49.855306 
L 43.909447 46.937613 
L 44.236821 46.011882 
L 44.564152 46.495864 
L 44.891484 46.362187 
L 45.218857 47.222535 
L 45.54623 52.843148 
L 45.873562 42.056753 
L 46.200893 48.29618 
L 46.528266 38.484702 
L 46.85564 40.142853 
L 47.182971 47.58404 
L 47.837676 42.179966 
L 48.165049 52.449839 
L 48.49238 55.728589 
L 49.147085 44.722651 
L 49.474458 44.267835 
L 49.80179 57.468423 
L 50.129121 43.820154 
L 50.456494 47.322671 
L 50.783868 48.601822 
L 51.111199 44.285644 
L 51.43853 45.072708 
L 51.765904 44.736155 
L 52.093277 45.897767 
L 52.420608 44.401656 
L 52.74794 43.972132 
L 53.075313 42.201814 
L 53.402686 41.746421 
L 53.730018 42.006287 
L 54.057349 46.086762 
L 54.384723 37.823629 
L 54.712096 47.309856 
L 55.039427 45.217117 
L 55.366759 44.529753 
L 55.694132 44.502508 
L 56.021505 44.931153 
L 56.348837 45.0463 
L 56.676168 42.892171 
L 57.003541 42.70443 
L 57.330915 44.111449 
L 57.658246 44.026531 
L 57.985577 41.943836 
L 58.312951 43.546439 
L 58.640324 46.214669 
L 59.294987 42.717044 
L 59.62236 42.769918 
L 60.277065 43.460457 
L 60.604396 42.769136 
L 60.93177 43.18647 
L 61.259143 42.986674 
L 61.586474 42.242072 
L 61.913806 43.102049 
L 62.895884 39.237193 
L 63.223215 38.598368 
L 63.877962 34.308267 
L 64.532624 28.316138 
L 64.859998 26.412863 
L 65.187371 26.275544 
L 65.514702 23.78677 
L 65.842034 23.662592 
L 66.169407 22.719209 
L 66.49678 22.686418 
L 66.824112 23.213771 
L 67.478817 19.671648 
L 67.80619 21.376418 
L 68.133521 19.876958 
L 68.460853 20.867251 
L 68.788226 20.717035 
L 69.115599 22.034443 
L 69.442931 72.869533 
L 69.770262 22.534101 
L 70.097635 19.855804 
L 70.425009 20.785708 
L 70.75234 20.905155 
L 71.079671 19.183748 
L 71.407045 23.039449 
L 71.734418 69.511202 
L 72.061749 72.858646 
L 72.389081 71.789299 
L 72.716454 72.62126 
L 73.043827 20.132571 
L 73.371159 21.816793 
L 73.69849 19.916292 
L 74.025864 19.744234 
L 74.353237 25.58202 
L 74.680568 71.796358 
L 75.0079 20.123486 
L 75.335273 21.226261 
L 75.662646 67.424916 
L 75.989978 19.578515 
L 76.317309 72.373355 
L 76.644682 71.618443 
L 76.972056 71.223194 
L 77.299387 19.279704 
L 77.626718 72.589446 
L 77.954092 23.066654 
L 78.281465 66.851313 
L 78.608796 69.668243 
L 78.936128 21.322113 
L 79.263501 72.713649 
L 79.590874 69.400699 
L 79.918206 19.306556 
L 80.245537 68.298642 
L 80.572911 20.365272 
L 80.900284 64.610026 
L 81.227615 19.18876 
L 81.554947 68.217759 
L 81.88232 19.344143 
L 82.209693 20.624474 
L 82.537025 24.729683 
L 82.864356 26.753909 
L 83.191729 69.478229 
L 83.519103 24.064403 
L 83.846434 19.850442 
L 84.173765 70.683824 
L 84.501139 22.747217 
L 84.828512 25.84613 
L 84.828512 25.84613 
" clip-path="url(#p49b9589006)" style="fill: none; stroke: #ff0000; stroke-width: 0.5; stroke-linecap: square"/>
   </g>
   <g id="patch_12">
    <path d="M 28.458438 75.553823 
L 28.458438 16.499459 
" style="fill: none; stroke: #000000; stroke-width: 0.5; stroke-linejoin: miter; stroke-linecap: square"/>
   </g>
   <g id="patch_13">
    <path d="M 87.512801 75.553823 
L 87.512801 16.499459 
" style="fill: none; stroke: #000000; stroke-width: 0.5; stroke-linejoin: miter; stroke-linecap: square"/>
   </g>
   <g id="patch_14">
    <path d="M 28.458438 75.553823 
L 87.512801 75.553823 
" style="fill: none; stroke: #000000; stroke-width: 0.5; stroke-linejoin: miter; stroke-linecap: square"/>
   </g>
   <g id="patch_15">
    <path d="M 28.458438 16.499459 
L 87.512801 16.499459 
" style="fill: none; stroke: #000000; stroke-width: 0.5; stroke-linejoin: miter; stroke-linecap: square"/>
   </g>
  </g>
  <g id="axes_4">
   <g id="matplotlib.axis_6">
    <g id="ytick_11">
     <g id="line2d_26">
      <g>
       <use xlink:href="#m6d6858a951" x="193.923582" y="68.401192" style="stroke: #000000; stroke-width: 0.8"/>
      </g>
     </g>
     <g id="text_28">
      <!-- 0.0 -->
      <g transform="translate(197.423582 70.300802) scale(0.05 -0.05)">
       <use xlink:href="#DejaVuSans-30"/>
       <use xlink:href="#DejaVuSans-2e" x="63.623047"/>
       <use xlink:href="#DejaVuSans-30" x="95.410156"/>
      </g>
     </g>
    </g>
    <g id="ytick_12">
     <g id="line2d_27">
      <g>
       <use xlink:href="#m6d6858a951" x="193.923582" y="53.18412" style="stroke: #000000; stroke-width: 0.8"/>
      </g>
     </g>
     <g id="text_29">
      <!-- 0.5 -->
      <g transform="translate(197.423582 55.083729) scale(0.05 -0.05)">
       <use xlink:href="#DejaVuSans-30"/>
       <use xlink:href="#DejaVuSans-2e" x="63.623047"/>
       <use xlink:href="#DejaVuSans-35" x="95.410156"/>
      </g>
     </g>
    </g>
    <g id="ytick_13">
     <g id="line2d_28">
      <g>
       <use xlink:href="#m6d6858a951" x="193.923582" y="37.967048" style="stroke: #000000; stroke-width: 0.8"/>
      </g>
     </g>
     <g id="text_30">
      <!-- 1.0 -->
      <g transform="translate(197.423582 39.866657) scale(0.05 -0.05)">
       <use xlink:href="#DejaVuSans-31"/>
       <use xlink:href="#DejaVuSans-2e" x="63.623047"/>
       <use xlink:href="#DejaVuSans-30" x="95.410156"/>
      </g>
     </g>
    </g>
    <g id="ytick_14">
     <g id="line2d_29">
      <g>
       <use xlink:href="#m6d6858a951" x="193.923582" y="22.749976" style="stroke: #000000; stroke-width: 0.8"/>
      </g>
     </g>
     <g id="text_31">
      <!-- 1.5 -->
      <g transform="translate(197.423582 24.649585) scale(0.05 -0.05)">
       <use xlink:href="#DejaVuSans-31"/>
       <use xlink:href="#DejaVuSans-2e" x="63.623047"/>
       <use xlink:href="#DejaVuSans-35" x="95.410156"/>
      </g>
     </g>
    </g>
    <g id="text_32">
     <!-- Imag (Arb. U.) -->
     <g transform="translate(213.934207 67.117109) rotate(-90) scale(0.06 -0.06)">
      <defs>
       <path id="DejaVuSans-49" d="M 628 4666 
L 1259 4666 
L 1259 0 
L 628 0 
L 628 4666 
z
" transform="scale(0.015625)"/>
      </defs>
      <use xlink:href="#DejaVuSans-49"/>
      <use xlink:href="#DejaVuSans-6d" x="29.492188"/>
      <use xlink:href="#DejaVuSans-61" x="126.904297"/>
      <use xlink:href="#DejaVuSans-67" x="188.183594"/>
      <use xlink:href="#DejaVuSans-20" x="251.660156"/>
      <use xlink:href="#DejaVuSans-28" x="283.447266"/>
      <use xlink:href="#DejaVuSans-41" x="322.460938"/>
      <use xlink:href="#DejaVuSans-72" x="390.869141"/>
      <use xlink:href="#DejaVuSans-62" x="431.982422"/>
      <use xlink:href="#DejaVuSans-2e" x="495.458984"/>
      <use xlink:href="#DejaVuSans-20" x="527.246094"/>
      <use xlink:href="#DejaVuSans-55" x="559.033203"/>
      <use xlink:href="#DejaVuSans-2e" x="632.226562"/>
      <use xlink:href="#DejaVuSans-29" x="664.013672"/>
     </g>
    </g>
    <g id="text_33">
     <!-- 1e−2 -->
     <g transform="translate(180.294676 13.499459) scale(0.05 -0.05)">
      <use xlink:href="#DejaVuSans-31"/>
      <use xlink:href="#DejaVuSans-65" x="63.623047"/>
      <use xlink:href="#DejaVuSans-2212" x="125.146484"/>
      <use xlink:href="#DejaVuSans-32" x="208.935547"/>
     </g>
    </g>
   </g>
   <g id="line2d_30">
    <path d="M 137.553508 68.761218 
L 137.880839 68.118416 
L 138.535544 71.770506 
L 138.862917 69.60315 
L 139.190249 66.402423 
L 139.844954 71.355964 
L 140.172327 65.941118 
L 140.499658 67.559023 
L 140.82699 70.683893 
L 141.154363 67.746197 
L 141.481736 67.743994 
L 141.809068 69.513272 
L 142.136399 68.110943 
L 142.463772 67.398915 
L 142.791146 70.163164 
L 143.445808 65.81766 
L 143.773182 69.296938 
L 144.100555 68.504358 
L 144.427886 71.176404 
L 144.755218 67.013596 
L 145.082591 68.198172 
L 145.409964 68.104316 
L 145.737296 70.910593 
L 146.064627 69.651877 
L 146.392 67.62314 
L 146.719374 68.37361 
L 147.046705 66.543903 
L 147.374037 68.73237 
L 147.70141 69.187257 
L 148.028783 68.330857 
L 148.356115 67.838959 
L 148.683446 66.369776 
L 149.010819 68.608918 
L 149.338193 68.312138 
L 149.665524 68.326633 
L 149.992855 69.698545 
L 150.320229 68.683819 
L 150.647602 68.4005 
L 150.974933 68.610829 
L 151.302265 68.420636 
L 151.629638 68.876071 
L 151.957011 71.934862 
L 152.284343 67.054567 
L 152.611674 69.324986 
L 152.939047 66.541487 
L 153.266421 65.742526 
L 153.593752 68.944309 
L 153.921084 67.517425 
L 154.248457 67.460568 
L 154.57583 69.345885 
L 154.903162 70.042888 
L 155.230493 69.762938 
L 155.557866 68.230214 
L 155.88524 67.803059 
L 156.212571 68.701885 
L 156.539902 67.76556 
L 156.867276 69.299437 
L 157.194649 69.160307 
L 157.52198 67.317681 
L 157.849312 67.938118 
L 158.176685 68.038464 
L 158.504058 68.38518 
L 158.83139 67.119017 
L 159.158721 67.471882 
L 159.486094 66.317351 
L 159.813468 66.092534 
L 160.140799 66.790242 
L 160.468131 68.439719 
L 160.795504 65.227743 
L 161.122877 69.098707 
L 161.450209 67.870444 
L 161.77754 67.402085 
L 162.104913 67.235369 
L 162.432287 67.547228 
L 162.759618 67.691695 
L 163.086949 65.851031 
L 163.414323 66.363102 
L 163.741696 66.650173 
L 164.069027 66.589649 
L 164.396359 64.833457 
L 164.723732 65.938625 
L 165.051105 68.60092 
L 165.705768 64.743063 
L 166.033141 65.043239 
L 166.360515 64.031928 
L 166.687846 65.48075 
L 167.015178 62.752226 
L 167.342551 63.626305 
L 167.669924 62.693905 
L 167.997256 59.705104 
L 168.324587 61.734754 
L 168.65196 57.259545 
L 169.633996 38.301128 
L 170.288743 19.7328 
L 170.616074 19.183748 
L 171.270779 38.901808 
L 171.925484 53.067823 
L 172.252815 54.205149 
L 172.580188 60.221729 
L 172.907562 59.464035 
L 173.234893 60.151275 
L 173.889598 67.526055 
L 174.216971 64.633726 
L 174.544302 67.150803 
L 174.871634 66.283635 
L 175.199007 65.992499 
L 175.52638 66.24352 
L 175.853712 68.588947 
L 176.181043 64.916594 
L 176.508417 67.689687 
L 177.163121 66.744159 
L 177.490453 68.287869 
L 177.817826 64.553108 
L 178.145199 70.659526 
L 178.472531 68.540033 
L 178.799862 69.49148 
L 179.454609 67.739442 
L 179.78194 66.423111 
L 180.109271 67.672093 
L 180.436645 68.094087 
L 180.764018 65.952002 
L 181.091349 69.016501 
L 181.418681 67.556044 
L 181.746054 67.430744 
L 182.073427 72.869533 
L 182.400759 67.995747 
L 183.055464 69.224281 
L 183.382837 69.707826 
L 183.710168 68.332407 
L 184.0375 68.67036 
L 184.364873 66.830573 
L 184.692246 70.840675 
L 185.019578 69.787981 
L 185.346909 67.837879 
L 185.674282 68.53513 
L 186.001656 70.481166 
L 186.328987 68.196866 
L 186.656318 70.064038 
L 186.983692 67.948061 
L 187.311065 70.957726 
L 187.638396 68.319327 
L 187.965728 71.100564 
L 188.293101 68.178683 
L 188.620474 67.630094 
L 188.947806 64.925199 
L 189.275137 65.332326 
L 189.602511 69.957859 
L 189.929884 66.379958 
L 190.584547 70.191093 
L 190.91192 66.973083 
L 191.239293 66.563441 
L 191.239293 66.563441 
" clip-path="url(#p849e5c82d2)" style="fill: none; stroke: #008000; stroke-width: 0.5; stroke-linecap: square"/>
   </g>
   <g id="patch_16">
    <path d="M 134.869219 75.553822 
L 134.869219 16.499459 
" style="fill: none; stroke: #000000; stroke-width: 0.5; stroke-linejoin: miter; stroke-linecap: square"/>
   </g>
   <g id="patch_17">
    <path d="M 193.923582 75.553822 
L 193.923582 16.499459 
" style="fill: none; stroke: #000000; stroke-width: 0.5; stroke-linejoin: miter; stroke-linecap: square"/>
   </g>
   <g id="patch_18">
    <path d="M 134.869219 75.553822 
L 193.923582 75.553822 
" style="fill: none; stroke: #000000; stroke-width: 0.5; stroke-linejoin: miter; stroke-linecap: square"/>
   </g>
   <g id="patch_19">
    <path d="M 134.869219 16.499459 
L 193.923582 16.499459 
" style="fill: none; stroke: #000000; stroke-width: 0.5; stroke-linejoin: miter; stroke-linecap: square"/>
   </g>
  </g>
  <g id="legend_1">
   <g id="line2d_31">
    <path d="M 236.964447 11.249219 
L 241.964447 11.249219 
L 246.964447 11.249219 
" style="fill: none; stroke: #0000ff; stroke-width: 0.5; stroke-linecap: square"/>
   </g>
   <g id="text_34">
    <!-- Raw Amplitude -->
    <g transform="translate(250.964447 12.999219) scale(0.05 -0.05)">
     <defs>
      <path id="DejaVuSans-77" d="M 269 3500 
L 844 3500 
L 1563 769 
L 2278 3500 
L 2956 3500 
L 3675 769 
L 4391 3500 
L 4966 3500 
L 4050 0 
L 3372 0 
L 2619 2869 
L 1863 0 
L 1184 0 
L 269 3500 
z
" transform="scale(0.015625)"/>
     </defs>
     <use xlink:href="#DejaVuSans-52"/>
     <use xlink:href="#DejaVuSans-61" x="67.232422"/>
     <use xlink:href="#DejaVuSans-77" x="128.511719"/>
     <use xlink:href="#DejaVuSans-20" x="210.298828"/>
     <use xlink:href="#DejaVuSans-41" x="242.085938"/>
     <use xlink:href="#DejaVuSans-6d" x="310.494141"/>
     <use xlink:href="#DejaVuSans-70" x="407.90625"/>
     <use xlink:href="#DejaVuSans-6c" x="471.382812"/>
     <use xlink:href="#DejaVuSans-69" x="499.166016"/>
     <use xlink:href="#DejaVuSans-74" x="526.949219"/>
     <use xlink:href="#DejaVuSans-75" x="566.158203"/>
     <use xlink:href="#DejaVuSans-64" x="629.537109"/>
     <use xlink:href="#DejaVuSans-65" x="693.013672"/>
    </g>
   </g>
   <g id="line2d_32">
    <path d="M 236.964447 18.588281 
L 241.964447 18.588281 
L 246.964447 18.588281 
" style="fill: none; stroke: #000000; stroke-width: 0.5; stroke-linecap: square"/>
   </g>
   <g id="text_35">
    <!-- Raw Real -->
    <g transform="translate(250.964447 20.338281) scale(0.05 -0.05)">
     <use xlink:href="#DejaVuSans-52"/>
     <use xlink:href="#DejaVuSans-61" x="67.232422"/>
     <use xlink:href="#DejaVuSans-77" x="128.511719"/>
     <use xlink:href="#DejaVuSans-20" x="210.298828"/>
     <use xlink:href="#DejaVuSans-52" x="242.085938"/>
     <use xlink:href="#DejaVuSans-65" x="307.068359"/>
     <use xlink:href="#DejaVuSans-61" x="368.591797"/>
     <use xlink:href="#DejaVuSans-6c" x="429.871094"/>
    </g>
   </g>
   <g id="line2d_33">
    <path d="M 236.964447 25.927344 
L 241.964447 25.927344 
L 246.964447 25.927344 
" style="fill: none; stroke: #ff0000; stroke-width: 0.5; stroke-linecap: square"/>
   </g>
   <g id="text_36">
    <!-- Raw Phase -->
    <g transform="translate(250.964447 27.677344) scale(0.05 -0.05)">
     <use xlink:href="#DejaVuSans-52"/>
     <use xlink:href="#DejaVuSans-61" x="67.232422"/>
     <use xlink:href="#DejaVuSans-77" x="128.511719"/>
     <use xlink:href="#DejaVuSans-20" x="210.298828"/>
     <use xlink:href="#DejaVuSans-50" x="242.085938"/>
     <use xlink:href="#DejaVuSans-68" x="302.388672"/>
     <use xlink:href="#DejaVuSans-61" x="365.767578"/>
     <use xlink:href="#DejaVuSans-73" x="427.046875"/>
     <use xlink:href="#DejaVuSans-65" x="479.146484"/>
    </g>
   </g>
   <g id="line2d_34">
    <path d="M 236.964447 33.266406 
L 241.964447 33.266406 
L 246.964447 33.266406 
" style="fill: none; stroke: #008000; stroke-width: 0.5; stroke-linecap: square"/>
   </g>
   <g id="text_37">
    <!-- Raw Imag -->
    <g transform="translate(250.964447 35.016406) scale(0.05 -0.05)">
     <use xlink:href="#DejaVuSans-52"/>
     <use xlink:href="#DejaVuSans-61" x="67.232422"/>
     <use xlink:href="#DejaVuSans-77" x="128.511719"/>
     <use xlink:href="#DejaVuSans-20" x="210.298828"/>
     <use xlink:href="#DejaVuSans-49" x="242.085938"/>
     <use xlink:href="#DejaVuSans-6d" x="271.578125"/>
     <use xlink:href="#DejaVuSans-61" x="368.990234"/>
     <use xlink:href="#DejaVuSans-67" x="430.269531"/>
    </g>
   </g>
  </g>
 </g>
 <defs>
  <clipPath id="p49b9589006">
   <rect x="28.458438" y="16.499459" width="59.054364" height="59.054364"/>
  </clipPath>
  <clipPath id="p849e5c82d2">
   <rect x="134.869219" y="16.499459" width="59.054364" height="59.054364"/>
  </clipPath>
 </defs>
</svg>
