<?xml version="1.0" encoding="utf-8" standalone="no"?>
<!DOCTYPE svg PUBLIC "-//W3C//DTD SVG 1.1//EN"
  "http://www.w3.org/Graphics/SVG/1.1/DTD/svg11.dtd">
<svg xmlns:xlink="http://www.w3.org/1999/xlink" width="707.516875pt" height="706.610625pt" viewBox="0 0 707.516875 706.610625" xmlns="http://www.w3.org/2000/svg" version="1.1">
 <metadata>
  <rdf:RDF xmlns:dc="http://purl.org/dc/elements/1.1/" xmlns:cc="http://creativecommons.org/ns#" xmlns:rdf="http://www.w3.org/1999/02/22-rdf-syntax-ns#">
   <cc:Work>
    <dc:type rdf:resource="http://purl.org/dc/dcmitype/StillImage"/>
    <dc:date>2023-03-24T11:53:42.920507</dc:date>
    <dc:format>image/svg+xml</dc:format>
    <dc:creator>
     <cc:Agent>
      <dc:title>Matplotlib v3.6.2, https://matplotlib.org/</dc:title>
     </cc:Agent>
    </dc:creator>
   </cc:Work>
  </rdf:RDF>
 </metadata>
 <defs>
  <style type="text/css">*{stroke-linejoin: round; stroke-linecap: butt}</style>
 </defs>
 <g id="figure_1">
  <g id="patch_1">
   <path d="M -0 706.610625 
L 707.516875 706.610625 
L 707.516875 0 
L -0 0 
z
" style="fill: #ffffff"/>
  </g>
  <g id="axes_1">
   <g id="patch_2">
    <path d="M 38.746875 670.12 
L 700.316875 670.12 
L 700.316875 7.2 
L 38.746875 7.2 
z
" style="fill: #ffffff"/>
   </g>
   <g id="patch_3">
    <path d="M 121.443125 311.674976 
L 121.443125 311.674976 
L 121.443125 311.674976 
L 121.443125 311.674976 
z
" clip-path="url(#p0ff7ab4386)" style="fill: #3274a1; stroke: #3f3f3f; stroke-width: 0.75; stroke-linejoin: miter"/>
   </g>
   <g id="PolyCollection_1">
    <defs>
     <path id="ma81ceb53ee" d="M 121.443125 -274.569359 
L 121.350496 -274.569359 
L 120.728203 -277.13374 
L 118.294854 -279.698122 
L 113.136687 -282.262503 
L 107.247025 -284.826884 
L 103.673705 -287.391265 
L 102.319719 -289.955647 
L 101.45676 -292.520028 
L 100.581542 -295.084409 
L 99.649758 -297.64879 
L 98.374379 -300.213171 
L 97.068659 -302.777553 
L 96.471913 -305.341934 
L 96.532182 -307.906315 
L 96.394443 -310.470696 
L 95.508225 -313.035077 
L 94.124522 -315.599459 
L 92.690467 -318.16384 
L 91.3772 -320.728221 
L 90.238895 -323.292602 
L 89.27564 -325.856983 
L 88.39636 -328.421365 
L 87.442669 -330.985746 
L 86.347611 -333.550127 
L 85.255084 -336.114508 
L 84.278773 -338.678889 
L 83.303178 -341.243271 
L 82.197758 -343.807652 
L 81.055185 -346.372033 
L 80.046315 -348.936414 
L 79.25004 -351.500795 
L 78.695404 -354.065177 
L 78.308428 -356.629558 
L 78.000628 -359.193939 
L 77.70673 -361.75832 
L 77.226881 -364.322702 
L 76.384943 -366.887083 
L 75.27779 -369.451464 
L 74.131908 -372.015845 
L 73.02935 -374.580226 
L 71.945348 -377.144608 
L 70.86955 -379.708989 
L 69.873989 -382.27337 
L 68.966778 -384.837751 
L 68.060457 -387.402132 
L 67.168543 -389.966514 
L 66.354311 -392.530895 
L 65.719931 -395.095276 
L 65.326473 -397.659657 
L 64.992864 -400.224038 
L 64.510197 -402.78842 
L 63.800395 -405.352801 
L 62.928942 -407.917182 
L 62.084891 -410.481563 
L 61.207475 -413.045944 
L 60.071296 -415.610326 
L 58.756418 -418.174707 
L 57.527272 -420.739088 
L 56.498345 -423.303469 
L 55.72509 -425.86785 
L 55.286125 -428.432232 
L 55.349631 -430.996613 
L 56.189162 -433.560994 
L 57.805777 -436.125375 
L 59.909921 -438.689757 
L 62.137573 -441.254138 
L 64.30638 -443.818519 
L 66.423683 -446.3829 
L 68.492044 -448.947281 
L 70.618349 -451.511663 
L 73.154394 -454.076044 
L 76.317588 -456.640425 
L 79.706689 -459.204806 
L 82.788549 -461.769187 
L 85.489709 -464.333569 
L 87.985516 -466.89795 
L 90.348968 -469.462331 
L 92.59879 -472.026712 
L 94.801333 -474.591093 
L 96.94616 -477.155475 
L 99.000074 -479.719856 
L 100.9677 -482.284237 
L 102.910763 -484.848618 
L 104.991605 -487.412999 
L 107.213296 -489.977381 
L 109.323663 -492.541762 
L 111.11245 -495.106143 
L 112.557251 -497.670524 
L 113.737556 -500.234905 
L 114.780796 -502.799287 
L 115.84476 -505.363668 
L 117.074623 -507.928049 
L 118.444355 -510.49243 
L 119.717858 -513.056812 
L 120.634925 -515.621193 
L 121.124465 -518.185574 
L 121.327426 -520.749955 
L 121.405462 -523.314336 
L 121.433965 -525.878718 
L 121.441705 -528.443099 
L 121.443125 -528.443099 
L 121.443125 -528.443099 
L 121.443125 -525.878718 
L 121.443125 -523.314336 
L 121.443125 -520.749955 
L 121.443125 -518.185574 
L 121.443125 -515.621193 
L 121.443125 -513.056812 
L 121.443125 -510.49243 
L 121.443125 -507.928049 
L 121.443125 -505.363668 
L 121.443125 -502.799287 
L 121.443125 -500.234905 
L 121.443125 -497.670524 
L 121.443125 -495.106143 
L 121.443125 -492.541762 
L 121.443125 -489.977381 
L 121.443125 -487.412999 
L 121.443125 -484.848618 
L 121.443125 -482.284237 
L 121.443125 -479.719856 
L 121.443125 -477.155475 
L 121.443125 -474.591093 
L 121.443125 -472.026712 
L 121.443125 -469.462331 
L 121.443125 -466.89795 
L 121.443125 -464.333569 
L 121.443125 -461.769187 
L 121.443125 -459.204806 
L 121.443125 -456.640425 
L 121.443125 -454.076044 
L 121.443125 -451.511663 
L 121.443125 -448.947281 
L 121.443125 -446.3829 
L 121.443125 -443.818519 
L 121.443125 -441.254138 
L 121.443125 -438.689757 
L 121.443125 -436.125375 
L 121.443125 -433.560994 
L 121.443125 -430.996613 
L 121.443125 -428.432232 
L 121.443125 -425.86785 
L 121.443125 -423.303469 
L 121.443125 -420.739088 
L 121.443125 -418.174707 
L 121.443125 -415.610326 
L 121.443125 -413.045944 
L 121.443125 -410.481563 
L 121.443125 -407.917182 
L 121.443125 -405.352801 
L 121.443125 -402.78842 
L 121.443125 -400.224038 
L 121.443125 -397.659657 
L 121.443125 -395.095276 
L 121.443125 -392.530895 
L 121.443125 -389.966514 
L 121.443125 -387.402132 
L 121.443125 -384.837751 
L 121.443125 -382.27337 
L 121.443125 -379.708989 
L 121.443125 -377.144608 
L 121.443125 -374.580226 
L 121.443125 -372.015845 
L 121.443125 -369.451464 
L 121.443125 -366.887083 
L 121.443125 -364.322702 
L 121.443125 -361.75832 
L 121.443125 -359.193939 
L 121.443125 -356.629558 
L 121.443125 -354.065177 
L 121.443125 -351.500795 
L 121.443125 -348.936414 
L 121.443125 -346.372033 
L 121.443125 -343.807652 
L 121.443125 -341.243271 
L 121.443125 -338.678889 
L 121.443125 -336.114508 
L 121.443125 -333.550127 
L 121.443125 -330.985746 
L 121.443125 -328.421365 
L 121.443125 -325.856983 
L 121.443125 -323.292602 
L 121.443125 -320.728221 
L 121.443125 -318.16384 
L 121.443125 -315.599459 
L 121.443125 -313.035077 
L 121.443125 -310.470696 
L 121.443125 -307.906315 
L 121.443125 -305.341934 
L 121.443125 -302.777553 
L 121.443125 -300.213171 
L 121.443125 -297.64879 
L 121.443125 -295.084409 
L 121.443125 -292.520028 
L 121.443125 -289.955647 
L 121.443125 -287.391265 
L 121.443125 -284.826884 
L 121.443125 -282.262503 
L 121.443125 -279.698122 
L 121.443125 -277.13374 
L 121.443125 -274.569359 
z
" style="stroke: #3f3f3f; stroke-width: 1.5"/>
    </defs>
    <g clip-path="url(#p0ff7ab4386)">
     <use xlink:href="#ma81ceb53ee" x="0" y="706.610625" style="fill: #3274a1; stroke: #3f3f3f; stroke-width: 1.5"/>
    </g>
   </g>
   <g id="patch_4">
    <path d="M 121.443125 311.674976 
L 121.443125 311.674976 
L 121.443125 311.674976 
L 121.443125 311.674976 
z
" clip-path="url(#p0ff7ab4386)" style="fill: #e1812c; stroke: #3f3f3f; stroke-width: 0.75; stroke-linejoin: miter"/>
   </g>
   <g id="PolyCollection_2">
    <defs>
     <path id="m797d8748eb" d="M 123.898717 -282.140613 
L 121.443125 -282.140613 
L 121.443125 -284.822975 
L 121.443125 -287.505337 
L 121.443125 -290.187698 
L 121.443125 -292.87006 
L 121.443125 -295.552421 
L 121.443125 -298.234783 
L 121.443125 -300.917145 
L 121.443125 -303.599506 
L 121.443125 -306.281868 
L 121.443125 -308.96423 
L 121.443125 -311.646591 
L 121.443125 -314.328953 
L 121.443125 -317.011314 
L 121.443125 -319.693676 
L 121.443125 -322.376038 
L 121.443125 -325.058399 
L 121.443125 -327.740761 
L 121.443125 -330.423123 
L 121.443125 -333.105484 
L 121.443125 -335.787846 
L 121.443125 -338.470207 
L 121.443125 -341.152569 
L 121.443125 -343.834931 
L 121.443125 -346.517292 
L 121.443125 -349.199654 
L 121.443125 -351.882016 
L 121.443125 -354.564377 
L 121.443125 -357.246739 
L 121.443125 -359.9291 
L 121.443125 -362.611462 
L 121.443125 -365.293824 
L 121.443125 -367.976185 
L 121.443125 -370.658547 
L 121.443125 -373.340909 
L 121.443125 -376.02327 
L 121.443125 -378.705632 
L 121.443125 -381.387993 
L 121.443125 -384.070355 
L 121.443125 -386.752717 
L 121.443125 -389.435078 
L 121.443125 -392.11744 
L 121.443125 -394.799802 
L 121.443125 -397.482163 
L 121.443125 -400.164525 
L 121.443125 -402.846887 
L 121.443125 -405.529248 
L 121.443125 -408.21161 
L 121.443125 -410.893971 
L 121.443125 -413.576333 
L 121.443125 -416.258695 
L 121.443125 -418.941056 
L 121.443125 -421.623418 
L 121.443125 -424.30578 
L 121.443125 -426.988141 
L 121.443125 -429.670503 
L 121.443125 -432.352864 
L 121.443125 -435.035226 
L 121.443125 -437.717588 
L 121.443125 -440.399949 
L 121.443125 -443.082311 
L 121.443125 -445.764673 
L 121.443125 -448.447034 
L 121.443125 -451.129396 
L 121.443125 -453.811757 
L 121.443125 -456.494119 
L 121.443125 -459.176481 
L 121.443125 -461.858842 
L 121.443125 -464.541204 
L 121.443125 -467.223566 
L 121.443125 -469.905927 
L 121.443125 -472.588289 
L 121.443125 -475.27065 
L 121.443125 -477.953012 
L 121.443125 -480.635374 
L 121.443125 -483.317735 
L 121.443125 -486.000097 
L 121.443125 -488.682459 
L 121.443125 -491.36482 
L 121.443125 -494.047182 
L 121.443125 -496.729543 
L 121.443125 -499.411905 
L 121.443125 -502.094267 
L 121.443125 -504.776628 
L 121.443125 -507.45899 
L 121.443125 -510.141352 
L 121.443125 -512.823713 
L 121.443125 -515.506075 
L 121.443125 -518.188437 
L 121.443125 -520.870798 
L 121.443125 -523.55316 
L 121.443125 -526.235521 
L 121.443125 -528.917883 
L 121.443125 -531.600245 
L 121.443125 -534.282606 
L 121.443125 -536.964968 
L 121.443125 -539.64733 
L 121.443125 -542.329691 
L 121.443125 -545.012053 
L 121.443125 -547.694414 
L 121.443473 -547.694414 
L 121.443473 -547.694414 
L 121.444965 -545.012053 
L 121.448702 -542.329691 
L 121.454423 -539.64733 
L 121.46227 -536.964968 
L 121.47712 -534.282606 
L 121.506638 -531.600245 
L 121.554467 -528.917883 
L 121.63182 -526.235521 
L 121.769008 -523.55316 
L 121.997617 -520.870798 
L 122.345128 -518.188437 
L 122.827703 -515.506075 
L 123.445382 -512.823713 
L 124.181796 -510.141352 
L 125.001908 -507.45899 
L 125.899362 -504.776628 
L 126.891658 -502.094267 
L 128.005378 -499.411905 
L 129.270184 -496.729543 
L 130.695752 -494.047182 
L 132.310625 -491.36482 
L 134.15453 -488.682459 
L 136.261267 -486.000097 
L 138.666275 -483.317735 
L 141.338722 -480.635374 
L 144.140475 -477.953012 
L 146.874091 -475.27065 
L 149.498556 -472.588289 
L 152.129791 -469.905927 
L 154.743138 -467.223566 
L 157.259654 -464.541204 
L 159.806134 -461.858842 
L 162.506043 -459.176481 
L 165.495504 -456.494119 
L 168.761768 -453.811757 
L 171.999932 -451.129396 
L 174.922998 -448.447034 
L 177.384621 -445.764673 
L 179.572367 -443.082311 
L 181.654984 -440.399949 
L 183.42157 -437.717588 
L 184.767654 -435.035226 
L 185.856433 -432.352864 
L 186.751071 -429.670503 
L 187.373313 -426.988141 
L 187.600029 -424.30578 
L 187.518854 -421.623418 
L 187.337774 -418.941056 
L 187.044548 -416.258695 
L 186.585448 -413.576333 
L 185.969463 -410.893971 
L 185.181502 -408.21161 
L 184.283652 -405.529248 
L 183.406304 -402.846887 
L 182.522873 -400.164525 
L 181.49244 -397.482163 
L 180.41256 -394.799802 
L 179.399325 -392.11744 
L 178.249066 -389.435078 
L 176.921774 -386.752717 
L 175.576976 -384.070355 
L 174.181288 -381.387993 
L 172.76435 -378.705632 
L 171.485161 -376.02327 
L 170.285179 -373.340909 
L 169.066688 -370.658547 
L 167.940001 -367.976185 
L 167.021722 -365.293824 
L 166.304415 -362.611462 
L 165.818595 -359.9291 
L 165.549675 -357.246739 
L 165.3344 -354.564377 
L 164.910958 -351.882016 
L 164.213623 -349.199654 
L 163.394121 -346.517292 
L 162.409869 -343.834931 
L 161.240796 -341.152569 
L 160.15871 -338.470207 
L 159.226023 -335.787846 
L 158.268473 -333.105484 
L 157.260879 -330.423123 
L 156.263505 -327.740761 
L 155.394307 -325.058399 
L 154.61149 -322.376038 
L 153.73985 -319.693676 
L 152.815639 -317.011314 
L 151.907865 -314.328953 
L 150.853745 -311.646591 
L 149.325034 -308.96423 
L 146.833038 -306.281868 
L 142.931038 -303.599506 
L 137.721062 -300.917145 
L 132.587194 -298.234783 
L 132.306484 -295.552421 
L 144.406953 -292.87006 
L 159.888601 -290.187698 
L 153.929939 -287.505337 
L 134.466993 -284.822975 
L 123.898717 -282.140613 
z
" style="stroke: #3f3f3f; stroke-width: 1.5"/>
    </defs>
    <g clip-path="url(#p0ff7ab4386)">
     <use xlink:href="#m797d8748eb" x="0" y="706.610625" style="fill: #e1812c; stroke: #3f3f3f; stroke-width: 1.5"/>
    </g>
   </g>
   <g id="PolyCollection_3">
    <defs>
     <path id="mbb0d8cc9e4" d="M 286.835625 -206.905993 
L 286.835402 -206.905993 
L 286.833084 -209.659643 
L 286.825525 -212.413292 
L 286.817615 -215.166941 
L 286.809128 -217.920591 
L 286.796959 -220.67424 
L 286.789413 -223.42789 
L 286.787296 -226.181539 
L 286.780853 -228.935189 
L 286.772722 -231.688838 
L 286.758109 -234.442488 
L 286.725496 -237.196137 
L 286.68795 -239.949787 
L 286.648779 -242.703436 
L 286.586569 -245.457086 
L 286.505922 -248.210735 
L 286.407318 -250.964385 
L 286.310514 -253.718034 
L 286.228998 -256.471684 
L 286.148557 -259.225333 
L 286.012121 -261.978982 
L 285.870798 -264.732632 
L 285.74526 -267.486281 
L 285.606183 -270.239931 
L 285.415377 -272.99358 
L 285.115858 -275.74723 
L 284.84294 -278.500879 
L 284.615945 -281.254529 
L 284.357843 -284.008178 
L 284.101606 -286.761828 
L 283.834307 -289.515477 
L 283.388174 -292.269127 
L 282.756712 -295.022776 
L 282.150115 -297.776426 
L 281.537425 -300.530075 
L 280.910683 -303.283725 
L 280.406165 -306.037374 
L 279.986122 -308.791023 
L 279.670315 -311.544673 
L 279.3743 -314.298322 
L 278.918913 -317.051972 
L 278.179334 -319.805621 
L 277.29958 -322.559271 
L 276.45665 -325.31292 
L 275.995603 -328.06657 
L 275.96229 -330.820219 
L 275.645665 -333.573869 
L 274.812617 -336.327518 
L 273.868014 -339.081168 
L 272.676355 -341.834817 
L 270.992184 -344.588467 
L 269.228371 -347.342116 
L 267.795524 -350.095765 
L 266.616767 -352.849415 
L 265.371605 -355.603064 
L 263.643852 -358.356714 
L 261.673877 -361.110363 
L 259.868794 -363.864013 
L 257.922477 -366.617662 
L 255.705527 -369.371312 
L 253.952873 -372.124961 
L 253.048835 -374.878611 
L 252.195683 -377.63226 
L 251.052088 -380.38591 
L 249.82088 -383.139559 
L 248.561737 -385.893209 
L 247.357303 -388.646858 
L 246.038243 -391.400508 
L 244.113002 -394.154157 
L 242.395944 -396.907806 
L 241.185082 -399.661456 
L 239.893153 -402.415105 
L 238.14795 -405.168755 
L 235.466422 -407.922404 
L 231.925003 -410.676054 
L 227.916307 -413.429703 
L 224.051462 -416.183353 
L 221.321273 -418.937002 
L 220.678625 -421.690652 
L 221.733356 -424.444301 
L 222.710569 -427.197951 
L 223.51399 -429.9516 
L 224.617101 -432.70525 
L 226.893537 -435.458899 
L 230.814344 -438.212548 
L 233.938541 -440.966198 
L 236.598689 -443.719847 
L 240.6554 -446.473497 
L 246.285928 -449.227146 
L 252.552095 -451.980796 
L 258.990474 -454.734445 
L 265.946004 -457.488095 
L 272.990524 -460.241744 
L 279.122954 -462.995394 
L 283.561217 -465.749043 
L 285.802495 -468.502693 
L 286.54034 -471.256342 
L 286.762515 -474.009992 
L 286.825157 -476.763641 
L 286.834992 -479.517291 
L 286.835625 -479.517291 
L 286.835625 -479.517291 
L 286.835625 -476.763641 
L 286.835625 -474.009992 
L 286.835625 -471.256342 
L 286.835625 -468.502693 
L 286.835625 -465.749043 
L 286.835625 -462.995394 
L 286.835625 -460.241744 
L 286.835625 -457.488095 
L 286.835625 -454.734445 
L 286.835625 -451.980796 
L 286.835625 -449.227146 
L 286.835625 -446.473497 
L 286.835625 -443.719847 
L 286.835625 -440.966198 
L 286.835625 -438.212548 
L 286.835625 -435.458899 
L 286.835625 -432.70525 
L 286.835625 -429.9516 
L 286.835625 -427.197951 
L 286.835625 -424.444301 
L 286.835625 -421.690652 
L 286.835625 -418.937002 
L 286.835625 -416.183353 
L 286.835625 -413.429703 
L 286.835625 -410.676054 
L 286.835625 -407.922404 
L 286.835625 -405.168755 
L 286.835625 -402.415105 
L 286.835625 -399.661456 
L 286.835625 -396.907806 
L 286.835625 -394.154157 
L 286.835625 -391.400508 
L 286.835625 -388.646858 
L 286.835625 -385.893209 
L 286.835625 -383.139559 
L 286.835625 -380.38591 
L 286.835625 -377.63226 
L 286.835625 -374.878611 
L 286.835625 -372.124961 
L 286.835625 -369.371312 
L 286.835625 -366.617662 
L 286.835625 -363.864013 
L 286.835625 -361.110363 
L 286.835625 -358.356714 
L 286.835625 -355.603064 
L 286.835625 -352.849415 
L 286.835625 -350.095765 
L 286.835625 -347.342116 
L 286.835625 -344.588467 
L 286.835625 -341.834817 
L 286.835625 -339.081168 
L 286.835625 -336.327518 
L 286.835625 -333.573869 
L 286.835625 -330.820219 
L 286.835625 -328.06657 
L 286.835625 -325.31292 
L 286.835625 -322.559271 
L 286.835625 -319.805621 
L 286.835625 -317.051972 
L 286.835625 -314.298322 
L 286.835625 -311.544673 
L 286.835625 -308.791023 
L 286.835625 -306.037374 
L 286.835625 -303.283725 
L 286.835625 -300.530075 
L 286.835625 -297.776426 
L 286.835625 -295.022776 
L 286.835625 -292.269127 
L 286.835625 -289.515477 
L 286.835625 -286.761828 
L 286.835625 -284.008178 
L 286.835625 -281.254529 
L 286.835625 -278.500879 
L 286.835625 -275.74723 
L 286.835625 -272.99358 
L 286.835625 -270.239931 
L 286.835625 -267.486281 
L 286.835625 -264.732632 
L 286.835625 -261.978982 
L 286.835625 -259.225333 
L 286.835625 -256.471684 
L 286.835625 -253.718034 
L 286.835625 -250.964385 
L 286.835625 -248.210735 
L 286.835625 -245.457086 
L 286.835625 -242.703436 
L 286.835625 -239.949787 
L 286.835625 -237.196137 
L 286.835625 -234.442488 
L 286.835625 -231.688838 
L 286.835625 -228.935189 
L 286.835625 -226.181539 
L 286.835625 -223.42789 
L 286.835625 -220.67424 
L 286.835625 -217.920591 
L 286.835625 -215.166941 
L 286.835625 -212.413292 
L 286.835625 -209.659643 
L 286.835625 -206.905993 
z
" style="stroke: #3f3f3f; stroke-width: 1.5"/>
    </defs>
    <g clip-path="url(#p0ff7ab4386)">
     <use xlink:href="#mbb0d8cc9e4" x="0" y="706.610625" style="fill: #3274a1; stroke: #3f3f3f; stroke-width: 1.5"/>
    </g>
   </g>
   <g id="PolyCollection_4">
    <defs>
     <path id="m96c01f6351" d="M 286.835723 -181.861422 
L 286.835625 -181.861422 
L 286.835625 -185.193516 
L 286.835625 -188.52561 
L 286.835625 -191.857704 
L 286.835625 -195.189797 
L 286.835625 -198.521891 
L 286.835625 -201.853985 
L 286.835625 -205.186079 
L 286.835625 -208.518172 
L 286.835625 -211.850266 
L 286.835625 -215.18236 
L 286.835625 -218.514454 
L 286.835625 -221.846547 
L 286.835625 -225.178641 
L 286.835625 -228.510735 
L 286.835625 -231.842829 
L 286.835625 -235.174923 
L 286.835625 -238.507016 
L 286.835625 -241.83911 
L 286.835625 -245.171204 
L 286.835625 -248.503298 
L 286.835625 -251.835391 
L 286.835625 -255.167485 
L 286.835625 -258.499579 
L 286.835625 -261.831673 
L 286.835625 -265.163766 
L 286.835625 -268.49586 
L 286.835625 -271.827954 
L 286.835625 -275.160048 
L 286.835625 -278.492141 
L 286.835625 -281.824235 
L 286.835625 -285.156329 
L 286.835625 -288.488423 
L 286.835625 -291.820517 
L 286.835625 -295.15261 
L 286.835625 -298.484704 
L 286.835625 -301.816798 
L 286.835625 -305.148892 
L 286.835625 -308.480985 
L 286.835625 -311.813079 
L 286.835625 -315.145173 
L 286.835625 -318.477267 
L 286.835625 -321.80936 
L 286.835625 -325.141454 
L 286.835625 -328.473548 
L 286.835625 -331.805642 
L 286.835625 -335.137736 
L 286.835625 -338.469829 
L 286.835625 -341.801923 
L 286.835625 -345.134017 
L 286.835625 -348.466111 
L 286.835625 -351.798204 
L 286.835625 -355.130298 
L 286.835625 -358.462392 
L 286.835625 -361.794486 
L 286.835625 -365.126579 
L 286.835625 -368.458673 
L 286.835625 -371.790767 
L 286.835625 -375.122861 
L 286.835625 -378.454954 
L 286.835625 -381.787048 
L 286.835625 -385.119142 
L 286.835625 -388.451236 
L 286.835625 -391.78333 
L 286.835625 -395.115423 
L 286.835625 -398.447517 
L 286.835625 -401.779611 
L 286.835625 -405.111705 
L 286.835625 -408.443798 
L 286.835625 -411.775892 
L 286.835625 -415.107986 
L 286.835625 -418.44008 
L 286.835625 -421.772173 
L 286.835625 -425.104267 
L 286.835625 -428.436361 
L 286.835625 -431.768455 
L 286.835625 -435.100549 
L 286.835625 -438.432642 
L 286.835625 -441.764736 
L 286.835625 -445.09683 
L 286.835625 -448.428924 
L 286.835625 -451.761017 
L 286.835625 -455.093111 
L 286.835625 -458.425205 
L 286.835625 -461.757299 
L 286.835625 -465.089392 
L 286.835625 -468.421486 
L 286.835625 -471.75358 
L 286.835625 -475.085674 
L 286.835625 -478.417767 
L 286.835625 -481.749861 
L 286.835625 -485.081955 
L 286.835625 -488.414049 
L 286.835625 -491.746143 
L 286.835625 -495.078236 
L 286.835625 -498.41033 
L 286.835625 -501.742424 
L 286.835625 -505.074518 
L 286.835625 -508.406611 
L 286.835625 -511.738705 
L 286.835696 -511.738705 
L 286.835696 -511.738705 
L 286.835969 -508.406611 
L 286.836139 -505.074518 
L 286.835879 -501.742424 
L 286.835873 -498.41033 
L 286.836425 -495.078236 
L 286.836624 -491.746143 
L 286.836452 -488.414049 
L 286.837696 -485.081955 
L 286.840992 -481.749861 
L 286.853125 -478.417767 
L 286.929778 -475.085674 
L 287.327782 -471.75358 
L 288.67145 -468.421486 
L 291.746636 -465.089392 
L 296.967887 -461.757299 
L 303.984329 -458.425205 
L 312.353509 -455.093111 
L 321.662011 -451.761017 
L 330.770333 -448.428924 
L 338.537527 -445.09683 
L 344.630715 -441.764736 
L 349.068844 -438.432642 
L 351.619196 -435.100549 
L 352.690027 -431.768455 
L 352.992529 -428.436361 
L 352.468371 -425.104267 
L 350.811828 -421.772173 
L 348.071826 -418.44008 
L 344.729081 -415.107986 
L 340.704963 -411.775892 
L 336.389063 -408.443798 
L 332.758306 -405.111705 
L 330.176078 -401.779611 
L 328.084705 -398.447517 
L 326.288612 -395.115423 
L 325.175581 -391.78333 
L 324.270031 -388.451236 
L 322.880278 -385.119142 
L 321.210796 -381.787048 
L 319.665375 -378.454954 
L 318.057554 -375.122861 
L 316.151583 -371.790767 
L 314.521562 -368.458673 
L 313.250724 -365.126579 
L 311.530128 -361.794486 
L 309.526848 -358.462392 
L 307.893519 -355.130298 
L 306.507581 -351.798204 
L 304.972399 -348.466111 
L 303.409079 -345.134017 
L 302.101597 -341.801923 
L 300.937099 -338.469829 
L 299.731798 -335.137736 
L 298.832124 -331.805642 
L 298.190825 -328.473548 
L 297.397081 -325.141454 
L 296.484166 -321.80936 
L 295.632559 -318.477267 
L 294.938407 -315.145173 
L 294.39129 -311.813079 
L 293.836212 -308.480985 
L 293.146217 -305.148892 
L 292.336243 -301.816798 
L 291.514047 -298.484704 
L 290.791762 -295.15261 
L 290.236723 -291.820517 
L 289.770651 -288.488423 
L 289.364931 -285.156329 
L 289.064113 -281.824235 
L 288.804775 -278.492141 
L 288.521222 -275.160048 
L 288.254118 -271.827954 
L 288.08668 -268.49586 
L 287.951689 -265.163766 
L 287.810633 -261.831673 
L 287.664444 -258.499579 
L 287.533489 -255.167485 
L 287.456723 -251.835391 
L 287.404097 -248.503298 
L 287.315934 -245.171204 
L 287.206548 -241.83911 
L 287.123021 -238.507016 
L 287.056277 -235.174923 
L 286.995036 -231.842829 
L 286.950229 -228.510735 
L 287.07956 -225.178641 
L 289.72759 -221.846547 
L 301.72846 -218.514454 
L 310.755239 -215.18236 
L 298.657159 -211.850266 
L 288.64198 -208.518172 
L 286.934178 -205.186079 
L 286.850826 -201.853985 
L 286.846915 -198.521891 
L 286.842896 -195.189797 
L 286.839772 -191.857704 
L 286.837788 -188.52561 
L 286.836316 -185.193516 
L 286.835723 -181.861422 
z
" style="stroke: #3f3f3f; stroke-width: 1.5"/>
    </defs>
    <g clip-path="url(#p0ff7ab4386)">
     <use xlink:href="#m96c01f6351" x="0" y="706.610625" style="fill: #e1812c; stroke: #3f3f3f; stroke-width: 1.5"/>
    </g>
   </g>
   <g id="PolyCollection_5">
    <defs>
     <path id="mfba227d58a" d="M 452.228125 -369.304675 
L 452.227596 -369.304675 
L 452.220739 -370.057084 
L 452.188184 -370.809493 
L 452.088299 -371.561901 
L 451.870946 -372.31431 
L 451.528447 -373.066719 
L 451.005664 -373.819128 
L 450.181814 -374.571536 
L 449.000923 -375.323945 
L 447.466376 -376.076354 
L 445.659329 -376.828763 
L 443.29612 -377.581172 
L 440.208805 -378.33358 
L 436.764223 -379.085989 
L 432.895313 -379.838398 
L 428.908962 -380.590807 
L 424.852525 -381.343216 
L 419.710073 -382.095624 
L 413.437561 -382.848033 
L 407.202478 -383.600442 
L 402.739987 -384.352851 
L 400.238077 -385.10526 
L 398.429226 -385.857668 
L 395.552391 -386.610077 
L 392.192743 -387.362486 
L 388.766107 -388.114895 
L 386.381818 -388.867304 
L 386.071125 -389.619712 
L 387.870859 -390.372121 
L 390.602893 -391.12453 
L 393.079084 -391.876939 
L 395.259244 -392.629348 
L 396.979325 -393.381756 
L 398.417872 -394.134165 
L 398.997713 -394.886574 
L 399.309749 -395.638983 
L 400.311464 -396.391392 
L 400.943687 -397.1438 
L 400.252324 -397.896209 
L 399.050131 -398.648618 
L 397.685718 -399.401027 
L 396.359266 -400.153436 
L 397.593152 -400.905844 
L 400.566906 -401.658253 
L 403.694301 -402.410662 
L 407.894549 -403.163071 
L 412.862383 -403.91548 
L 417.563088 -404.667888 
L 421.992809 -405.420297 
L 425.869321 -406.172706 
L 429.574517 -406.925115 
L 433.102373 -407.677524 
L 436.135121 -408.429932 
L 438.503588 -409.182341 
L 440.235193 -409.93475 
L 441.792256 -410.687159 
L 443.242847 -411.439567 
L 444.368774 -412.191976 
L 445.389779 -412.944385 
L 446.4961 -413.696794 
L 447.420439 -414.449203 
L 448.255751 -415.201611 
L 448.931174 -415.95402 
L 449.460416 -416.706429 
L 449.987694 -417.458838 
L 450.370744 -418.211247 
L 450.625322 -418.963655 
L 450.867113 -419.716064 
L 451.027792 -420.468473 
L 451.141836 -421.220882 
L 451.262483 -421.973291 
L 451.402031 -422.725699 
L 451.469092 -423.478108 
L 451.525436 -424.230517 
L 451.60232 -424.982926 
L 451.652046 -425.735335 
L 451.707235 -426.487743 
L 451.774669 -427.240152 
L 451.82824 -427.992561 
L 451.871827 -428.74497 
L 451.896466 -429.497379 
L 451.934164 -430.249787 
L 451.967213 -431.002196 
L 451.996541 -431.754605 
L 452.044293 -432.507014 
L 452.074521 -433.259423 
L 452.100652 -434.011831 
L 452.119256 -434.76424 
L 452.150189 -435.516649 
L 452.152057 -436.269058 
L 452.143579 -437.021467 
L 452.158548 -437.773875 
L 452.172698 -438.526284 
L 452.193253 -439.278693 
L 452.202249 -440.031102 
L 452.206555 -440.783511 
L 452.215454 -441.535919 
L 452.219786 -442.288328 
L 452.225041 -443.040737 
L 452.227876 -443.793146 
L 452.228125 -443.793146 
L 452.228125 -443.793146 
L 452.228125 -443.040737 
L 452.228125 -442.288328 
L 452.228125 -441.535919 
L 452.228125 -440.783511 
L 452.228125 -440.031102 
L 452.228125 -439.278693 
L 452.228125 -438.526284 
L 452.228125 -437.773875 
L 452.228125 -437.021467 
L 452.228125 -436.269058 
L 452.228125 -435.516649 
L 452.228125 -434.76424 
L 452.228125 -434.011831 
L 452.228125 -433.259423 
L 452.228125 -432.507014 
L 452.228125 -431.754605 
L 452.228125 -431.002196 
L 452.228125 -430.249787 
L 452.228125 -429.497379 
L 452.228125 -428.74497 
L 452.228125 -427.992561 
L 452.228125 -427.240152 
L 452.228125 -426.487743 
L 452.228125 -425.735335 
L 452.228125 -424.982926 
L 452.228125 -424.230517 
L 452.228125 -423.478108 
L 452.228125 -422.725699 
L 452.228125 -421.973291 
L 452.228125 -421.220882 
L 452.228125 -420.468473 
L 452.228125 -419.716064 
L 452.228125 -418.963655 
L 452.228125 -418.211247 
L 452.228125 -417.458838 
L 452.228125 -416.706429 
L 452.228125 -415.95402 
L 452.228125 -415.201611 
L 452.228125 -414.449203 
L 452.228125 -413.696794 
L 452.228125 -412.944385 
L 452.228125 -412.191976 
L 452.228125 -411.439567 
L 452.228125 -410.687159 
L 452.228125 -409.93475 
L 452.228125 -409.182341 
L 452.228125 -408.429932 
L 452.228125 -407.677524 
L 452.228125 -406.925115 
L 452.228125 -406.172706 
L 452.228125 -405.420297 
L 452.228125 -404.667888 
L 452.228125 -403.91548 
L 452.228125 -403.163071 
L 452.228125 -402.410662 
L 452.228125 -401.658253 
L 452.228125 -400.905844 
L 452.228125 -400.153436 
L 452.228125 -399.401027 
L 452.228125 -398.648618 
L 452.228125 -397.896209 
L 452.228125 -397.1438 
L 452.228125 -396.391392 
L 452.228125 -395.638983 
L 452.228125 -394.886574 
L 452.228125 -394.134165 
L 452.228125 -393.381756 
L 452.228125 -392.629348 
L 452.228125 -391.876939 
L 452.228125 -391.12453 
L 452.228125 -390.372121 
L 452.228125 -389.619712 
L 452.228125 -388.867304 
L 452.228125 -388.114895 
L 452.228125 -387.362486 
L 452.228125 -386.610077 
L 452.228125 -385.857668 
L 452.228125 -385.10526 
L 452.228125 -384.352851 
L 452.228125 -383.600442 
L 452.228125 -382.848033 
L 452.228125 -382.095624 
L 452.228125 -381.343216 
L 452.228125 -380.590807 
L 452.228125 -379.838398 
L 452.228125 -379.085989 
L 452.228125 -378.33358 
L 452.228125 -377.581172 
L 452.228125 -376.828763 
L 452.228125 -376.076354 
L 452.228125 -375.323945 
L 452.228125 -374.571536 
L 452.228125 -373.819128 
L 452.228125 -373.066719 
L 452.228125 -372.31431 
L 452.228125 -371.561901 
L 452.228125 -370.809493 
L 452.228125 -370.057084 
L 452.228125 -369.304675 
z
" style="stroke: #3f3f3f; stroke-width: 1.5"/>
    </defs>
    <g clip-path="url(#p0ff7ab4386)">
     <use xlink:href="#mfba227d58a" x="0" y="706.610625" style="fill: #3274a1; stroke: #3f3f3f; stroke-width: 1.5"/>
    </g>
   </g>
   <g id="PolyCollection_6">
    <defs>
     <path id="mdb0bc0ddf6" d="M 452.228157 -66.623352 
L 452.228125 -66.623352 
L 452.228125 -72.710772 
L 452.228125 -78.798192 
L 452.228125 -84.885611 
L 452.228125 -90.973031 
L 452.228125 -97.060451 
L 452.228125 -103.14787 
L 452.228125 -109.23529 
L 452.228125 -115.322709 
L 452.228125 -121.410129 
L 452.228125 -127.497549 
L 452.228125 -133.584968 
L 452.228125 -139.672388 
L 452.228125 -145.759808 
L 452.228125 -151.847227 
L 452.228125 -157.934647 
L 452.228125 -164.022067 
L 452.228125 -170.109486 
L 452.228125 -176.196906 
L 452.228125 -182.284326 
L 452.228125 -188.371745 
L 452.228125 -194.459165 
L 452.228125 -200.546585 
L 452.228125 -206.634004 
L 452.228125 -212.721424 
L 452.228125 -218.808844 
L 452.228125 -224.896263 
L 452.228125 -230.983683 
L 452.228125 -237.071103 
L 452.228125 -243.158522 
L 452.228125 -249.245942 
L 452.228125 -255.333361 
L 452.228125 -261.420781 
L 452.228125 -267.508201 
L 452.228125 -273.59562 
L 452.228125 -279.68304 
L 452.228125 -285.77046 
L 452.228125 -291.857879 
L 452.228125 -297.945299 
L 452.228125 -304.032719 
L 452.228125 -310.120138 
L 452.228125 -316.207558 
L 452.228125 -322.294978 
L 452.228125 -328.382397 
L 452.228125 -334.469817 
L 452.228125 -340.557237 
L 452.228125 -346.644656 
L 452.228125 -352.732076 
L 452.228125 -358.819496 
L 452.228125 -364.906915 
L 452.228125 -370.994335 
L 452.228125 -377.081754 
L 452.228125 -383.169174 
L 452.228125 -389.256594 
L 452.228125 -395.344013 
L 452.228125 -401.431433 
L 452.228125 -407.518853 
L 452.228125 -413.606272 
L 452.228125 -419.693692 
L 452.228125 -425.781112 
L 452.228125 -431.868531 
L 452.228125 -437.955951 
L 452.228125 -444.043371 
L 452.228125 -450.13079 
L 452.228125 -456.21821 
L 452.228125 -462.30563 
L 452.228125 -468.393049 
L 452.228125 -474.480469 
L 452.228125 -480.567889 
L 452.228125 -486.655308 
L 452.228125 -492.742728 
L 452.228125 -498.830147 
L 452.228125 -504.917567 
L 452.228125 -511.004987 
L 452.228125 -517.092406 
L 452.228125 -523.179826 
L 452.228125 -529.267246 
L 452.228125 -535.354665 
L 452.228125 -541.442085 
L 452.228125 -547.529505 
L 452.228125 -553.616924 
L 452.228125 -559.704344 
L 452.228125 -565.791764 
L 452.228125 -571.879183 
L 452.228125 -577.966603 
L 452.228125 -584.054023 
L 452.228125 -590.141442 
L 452.228125 -596.228862 
L 452.228125 -602.316282 
L 452.228125 -608.403701 
L 452.228125 -614.491121 
L 452.228125 -620.578541 
L 452.228125 -626.66596 
L 452.228125 -632.75338 
L 452.228125 -638.840799 
L 452.228125 -644.928219 
L 452.228125 -651.015639 
L 452.228125 -657.103058 
L 452.228125 -663.190478 
L 452.228125 -669.277898 
L 453.709413 -669.277898 
L 453.709413 -669.277898 
L 463.172235 -663.190478 
L 453.799251 -657.103058 
L 452.232508 -651.015639 
L 452.228125 -644.928219 
L 452.228125 -638.840799 
L 452.228125 -632.75338 
L 452.228125 -626.66596 
L 452.228125 -620.578541 
L 452.228125 -614.491121 
L 452.228125 -608.403701 
L 452.228125 -602.316282 
L 452.228125 -596.228862 
L 452.228125 -590.141442 
L 452.228125 -584.054023 
L 452.228125 -577.966603 
L 452.228125 -571.879183 
L 452.228125 -565.791764 
L 452.228125 -559.704344 
L 452.228125 -553.616924 
L 452.228125 -547.529505 
L 452.228125 -541.442085 
L 452.228125 -535.354665 
L 452.228125 -529.267246 
L 452.228125 -523.179826 
L 452.228125 -517.092406 
L 452.228125 -511.004987 
L 452.228125 -504.917567 
L 452.228125 -498.830147 
L 452.228151 -492.742728 
L 452.22837 -486.655308 
L 452.228725 -480.567889 
L 452.231682 -474.480469 
L 452.2357 -468.393049 
L 452.24829 -462.30563 
L 452.26676 -456.21821 
L 452.318523 -450.13079 
L 452.408271 -444.043371 
L 452.586289 -437.955951 
L 453.012532 -431.868531 
L 454.056931 -425.781112 
L 456.503173 -419.693692 
L 461.892936 -413.606272 
L 472.970566 -407.518853 
L 489.74443 -401.431433 
L 505.367027 -395.344013 
L 514.016472 -389.256594 
L 518.385029 -383.169174 
L 514.682314 -377.081754 
L 497.024593 -370.994335 
L 474.772074 -364.906915 
L 460.452625 -358.819496 
L 454.988272 -352.732076 
L 453.441783 -346.644656 
L 452.930307 -340.557237 
L 452.68021 -334.469817 
L 452.544932 -328.382397 
L 452.449226 -322.294978 
L 452.392724 -316.207558 
L 452.346116 -310.120138 
L 452.316482 -304.032719 
L 452.299697 -297.945299 
L 452.286171 -291.857879 
L 452.268212 -285.77046 
L 452.259915 -279.68304 
L 452.250859 -273.59562 
L 452.245745 -267.508201 
L 452.244472 -261.420781 
L 452.241059 -255.333361 
L 452.236427 -249.245942 
L 452.234023 -243.158522 
L 452.232944 -237.071103 
L 452.233027 -230.983683 
L 452.232931 -224.896263 
L 452.231724 -218.808844 
L 452.233392 -212.721424 
L 452.230566 -206.634004 
L 452.230119 -200.546585 
L 452.229603 -194.459165 
L 452.229226 -188.371745 
L 452.229332 -182.284326 
L 452.229514 -176.196906 
L 452.229134 -170.109486 
L 452.228538 -164.022067 
L 452.228497 -157.934647 
L 452.228141 -151.847227 
L 452.228298 -145.759808 
L 452.228527 -139.672388 
L 452.228168 -133.584968 
L 452.228486 -127.497549 
L 452.228617 -121.410129 
L 452.228172 -115.322709 
L 452.228346 -109.23529 
L 452.228191 -103.14787 
L 452.228131 -97.060451 
L 452.228306 -90.973031 
L 452.228234 -84.885611 
L 452.22816 -78.798192 
L 452.228363 -72.710772 
L 452.228157 -66.623352 
z
" style="stroke: #3f3f3f; stroke-width: 1.5"/>
    </defs>
    <g clip-path="url(#p0ff7ab4386)">
     <use xlink:href="#mdb0bc0ddf6" x="0" y="706.610625" style="fill: #e1812c; stroke: #3f3f3f; stroke-width: 1.5"/>
    </g>
   </g>
   <g id="PolyCollection_7">
    <defs>
     <path id="me0a1b98c8d" d="M 617.620625 -375.466955 
L 617.620121 -375.466955 
L 617.619103 -376.501821 
L 617.61686 -377.536687 
L 617.612936 -378.571554 
L 617.607491 -379.60642 
L 617.601458 -380.641286 
L 617.595369 -381.676153 
L 617.584437 -382.711019 
L 617.539269 -383.745885 
L 617.339148 -384.780752 
L 616.604108 -385.815618 
L 614.446797 -386.850485 
L 609.452756 -387.885351 
L 600.451215 -388.920217 
L 588.03801 -389.955084 
L 575.316072 -390.98995 
L 566.23258 -392.024816 
L 562.797105 -393.059683 
L 564.49215 -394.094549 
L 570.171158 -395.129415 
L 579.138321 -396.164282 
L 590.142211 -397.199148 
L 600.795237 -398.234014 
L 608.865193 -399.268881 
L 613.670703 -400.303747 
L 615.955067 -401.338613 
L 616.849494 -402.37348 
L 617.159076 -403.408346 
L 617.268804 -404.443212 
L 617.316133 -405.478079 
L 617.341149 -406.512945 
L 617.355401 -407.547811 
L 617.363558 -408.582678 
L 617.368625 -409.617544 
L 617.372844 -410.65241 
L 617.377481 -411.687277 
L 617.38269 -412.722143 
L 617.388038 -413.757009 
L 617.39332 -414.791876 
L 617.398723 -415.826742 
L 617.404236 -416.861608 
L 617.409239 -417.896475 
L 617.41293 -418.931341 
L 617.415035 -419.966207 
L 617.41597 -421.001074 
L 617.416438 -422.03594 
L 617.417031 -423.070806 
L 617.418164 -424.105673 
L 617.420149 -425.140539 
L 617.423152 -426.175405 
L 617.427023 -427.210272 
L 617.431199 -428.245138 
L 617.434895 -429.280004 
L 617.437482 -430.314871 
L 617.438685 -431.349737 
L 617.438401 -432.384603 
L 617.436404 -433.41947 
L 617.432452 -434.454336 
L 617.426759 -435.489202 
L 617.420163 -436.524069 
L 617.41362 -437.558935 
L 617.40753 -438.593801 
L 617.401585 -439.628668 
L 617.395239 -440.663534 
L 617.388259 -441.6984 
L 617.380751 -442.733267 
L 617.372641 -443.768133 
L 617.363296 -444.802999 
L 617.351697 -445.837866 
L 617.336811 -446.872732 
L 617.317666 -447.907598 
L 617.293318 -448.942465 
L 617.263127 -449.977331 
L 617.22715 -451.012197 
L 617.185765 -452.047064 
L 617.138188 -453.08193 
L 617.080748 -454.116797 
L 617.003338 -455.151663 
L 616.870079 -456.186529 
L 616.542839 -457.221396 
L 615.585512 -458.256262 
L 612.98083 -459.291128 
L 607.124337 -460.325995 
L 596.716161 -461.360861 
L 582.431644 -462.395727 
L 567.63431 -463.430594 
L 556.541522 -464.46546 
L 551.463625 -465.500326 
L 552.417337 -466.535193 
L 558.856375 -467.570059 
L 570.131885 -468.604925 
L 584.217981 -469.639792 
L 597.673808 -470.674658 
L 607.655169 -471.709524 
L 613.477772 -472.744391 
L 616.18533 -473.779257 
L 617.203487 -474.814123 
L 617.517902 -475.84899 
L 617.598945 -476.883856 
L 617.616664 -477.918722 
L 617.620625 -477.918722 
L 617.620625 -477.918722 
L 617.620625 -476.883856 
L 617.620625 -475.84899 
L 617.620625 -474.814123 
L 617.620625 -473.779257 
L 617.620625 -472.744391 
L 617.620625 -471.709524 
L 617.620625 -470.674658 
L 617.620625 -469.639792 
L 617.620625 -468.604925 
L 617.620625 -467.570059 
L 617.620625 -466.535193 
L 617.620625 -465.500326 
L 617.620625 -464.46546 
L 617.620625 -463.430594 
L 617.620625 -462.395727 
L 617.620625 -461.360861 
L 617.620625 -460.325995 
L 617.620625 -459.291128 
L 617.620625 -458.256262 
L 617.620625 -457.221396 
L 617.620625 -456.186529 
L 617.620625 -455.151663 
L 617.620625 -454.116797 
L 617.620625 -453.08193 
L 617.620625 -452.047064 
L 617.620625 -451.012197 
L 617.620625 -449.977331 
L 617.620625 -448.942465 
L 617.620625 -447.907598 
L 617.620625 -446.872732 
L 617.620625 -445.837866 
L 617.620625 -444.802999 
L 617.620625 -443.768133 
L 617.620625 -442.733267 
L 617.620625 -441.6984 
L 617.620625 -440.663534 
L 617.620625 -439.628668 
L 617.620625 -438.593801 
L 617.620625 -437.558935 
L 617.620625 -436.524069 
L 617.620625 -435.489202 
L 617.620625 -434.454336 
L 617.620625 -433.41947 
L 617.620625 -432.384603 
L 617.620625 -431.349737 
L 617.620625 -430.314871 
L 617.620625 -429.280004 
L 617.620625 -428.245138 
L 617.620625 -427.210272 
L 617.620625 -426.175405 
L 617.620625 -425.140539 
L 617.620625 -424.105673 
L 617.620625 -423.070806 
L 617.620625 -422.03594 
L 617.620625 -421.001074 
L 617.620625 -419.966207 
L 617.620625 -418.931341 
L 617.620625 -417.896475 
L 617.620625 -416.861608 
L 617.620625 -415.826742 
L 617.620625 -414.791876 
L 617.620625 -413.757009 
L 617.620625 -412.722143 
L 617.620625 -411.687277 
L 617.620625 -410.65241 
L 617.620625 -409.617544 
L 617.620625 -408.582678 
L 617.620625 -407.547811 
L 617.620625 -406.512945 
L 617.620625 -405.478079 
L 617.620625 -404.443212 
L 617.620625 -403.408346 
L 617.620625 -402.37348 
L 617.620625 -401.338613 
L 617.620625 -400.303747 
L 617.620625 -399.268881 
L 617.620625 -398.234014 
L 617.620625 -397.199148 
L 617.620625 -396.164282 
L 617.620625 -395.129415 
L 617.620625 -394.094549 
L 617.620625 -393.059683 
L 617.620625 -392.024816 
L 617.620625 -390.98995 
L 617.620625 -389.955084 
L 617.620625 -388.920217 
L 617.620625 -387.885351 
L 617.620625 -386.850485 
L 617.620625 -385.815618 
L 617.620625 -384.780752 
L 617.620625 -383.745885 
L 617.620625 -382.711019 
L 617.620625 -381.676153 
L 617.620625 -380.641286 
L 617.620625 -379.60642 
L 617.620625 -378.571554 
L 617.620625 -377.536687 
L 617.620625 -376.501821 
L 617.620625 -375.466955 
z
" style="stroke: #3f3f3f; stroke-width: 1.5"/>
    </defs>
    <g clip-path="url(#p0ff7ab4386)">
     <use xlink:href="#me0a1b98c8d" x="0" y="706.610625" style="fill: #3274a1; stroke: #3f3f3f; stroke-width: 1.5"/>
    </g>
   </g>
   <g id="PolyCollection_8">
    <defs>
     <path id="m53435be169" d="M 619.514195 -315.120915 
L 617.620625 -315.120915 
L 617.620625 -316.706478 
L 617.620625 -318.292041 
L 617.620625 -319.877604 
L 617.620625 -321.463167 
L 617.620625 -323.04873 
L 617.620625 -324.634293 
L 617.620625 -326.219856 
L 617.620625 -327.805419 
L 617.620625 -329.390982 
L 617.620625 -330.976545 
L 617.620625 -332.562108 
L 617.620625 -334.147671 
L 617.620625 -335.733234 
L 617.620625 -337.318797 
L 617.620625 -338.90436 
L 617.620625 -340.489923 
L 617.620625 -342.075486 
L 617.620625 -343.661049 
L 617.620625 -345.246612 
L 617.620625 -346.832175 
L 617.620625 -348.417738 
L 617.620625 -350.003301 
L 617.620625 -351.588864 
L 617.620625 -353.174427 
L 617.620625 -354.75999 
L 617.620625 -356.345554 
L 617.620625 -357.931117 
L 617.620625 -359.51668 
L 617.620625 -361.102243 
L 617.620625 -362.687806 
L 617.620625 -364.273369 
L 617.620625 -365.858932 
L 617.620625 -367.444495 
L 617.620625 -369.030058 
L 617.620625 -370.615621 
L 617.620625 -372.201184 
L 617.620625 -373.786747 
L 617.620625 -375.37231 
L 617.620625 -376.957873 
L 617.620625 -378.543436 
L 617.620625 -380.128999 
L 617.620625 -381.714562 
L 617.620625 -383.300125 
L 617.620625 -384.885688 
L 617.620625 -386.471251 
L 617.620625 -388.056814 
L 617.620625 -389.642377 
L 617.620625 -391.22794 
L 617.620625 -392.813503 
L 617.620625 -394.399066 
L 617.620625 -395.984629 
L 617.620625 -397.570192 
L 617.620625 -399.155755 
L 617.620625 -400.741319 
L 617.620625 -402.326882 
L 617.620625 -403.912445 
L 617.620625 -405.498008 
L 617.620625 -407.083571 
L 617.620625 -408.669134 
L 617.620625 -410.254697 
L 617.620625 -411.84026 
L 617.620625 -413.425823 
L 617.620625 -415.011386 
L 617.620625 -416.596949 
L 617.620625 -418.182512 
L 617.620625 -419.768075 
L 617.620625 -421.353638 
L 617.620625 -422.939201 
L 617.620625 -424.524764 
L 617.620625 -426.110327 
L 617.620625 -427.69589 
L 617.620625 -429.281453 
L 617.620625 -430.867016 
L 617.620625 -432.452579 
L 617.620625 -434.038142 
L 617.620625 -435.623705 
L 617.620625 -437.209268 
L 617.620625 -438.794831 
L 617.620625 -440.380394 
L 617.620625 -441.965957 
L 617.620625 -443.55152 
L 617.620625 -445.137084 
L 617.620625 -446.722647 
L 617.620625 -448.30821 
L 617.620625 -449.893773 
L 617.620625 -451.479336 
L 617.620625 -453.064899 
L 617.620625 -454.650462 
L 617.620625 -456.236025 
L 617.620625 -457.821588 
L 617.620625 -459.407151 
L 617.620625 -460.992714 
L 617.620625 -462.578277 
L 617.620625 -464.16384 
L 617.620625 -465.749403 
L 617.620625 -467.334966 
L 617.620625 -468.920529 
L 617.620625 -470.506092 
L 617.620625 -472.091655 
L 620.083416 -472.091655 
L 620.083416 -472.091655 
L 625.087651 -470.506092 
L 635.222196 -468.920529 
L 649.906007 -467.334966 
L 663.74927 -465.749403 
L 669.039021 -464.16384 
L 662.453343 -462.578277 
L 648.355664 -460.992714 
L 634.376849 -459.407151 
L 625.093554 -457.821588 
L 620.557333 -456.236025 
L 618.827362 -454.650462 
L 618.26758 -453.064899 
L 618.088021 -451.479336 
L 618.020764 -449.893773 
L 617.99234 -448.30821 
L 617.980246 -446.722647 
L 617.973904 -445.137084 
L 617.967983 -443.55152 
L 617.960853 -441.965957 
L 617.953102 -440.380394 
L 617.946505 -438.794831 
L 617.943018 -437.209268 
L 617.9432 -435.623705 
L 617.945338 -434.038142 
L 617.946754 -432.452579 
L 617.946209 -430.867016 
L 617.945024 -429.281453 
L 617.945938 -427.69589 
L 617.950746 -426.110327 
L 617.958764 -424.524764 
L 617.967341 -422.939201 
L 617.973667 -421.353638 
L 617.976458 -419.768075 
L 617.976781 -418.182512 
L 617.977531 -416.596949 
L 617.981887 -415.011386 
L 617.992392 -413.425823 
L 618.012295 -411.84026 
L 618.050127 -410.254697 
L 618.131392 -408.669134 
L 618.33303 -407.083571 
L 618.87902 -405.498008 
L 620.338286 -403.912445 
L 623.840011 -402.326882 
L 630.915917 -400.741319 
L 642.519248 -399.155755 
L 657.60256 -397.570192 
L 672.624131 -395.984629 
L 682.712453 -394.399066 
L 683.777529 -392.813503 
L 674.762615 -391.22794 
L 658.943923 -389.642377 
L 642.367052 -388.056814 
L 629.920777 -386.471251 
L 622.858137 -384.885688 
L 619.721776 -383.300125 
L 618.57626 -381.714562 
L 618.19491 -380.128999 
L 618.056429 -378.543436 
L 617.994266 -376.957873 
L 617.96259 -375.37231 
L 617.946457 -373.786747 
L 617.938196 -372.201184 
L 617.933134 -370.615621 
L 617.92902 -369.030058 
L 617.925493 -367.444495 
L 617.92316 -365.858932 
L 617.922707 -364.273369 
L 617.924314 -362.687806 
L 617.927278 -361.102243 
L 617.930151 -359.51668 
L 617.931796 -357.931117 
L 617.932451 -356.345554 
L 617.933316 -354.75999 
L 617.935298 -353.174427 
L 617.938722 -351.588864 
L 617.943788 -350.003301 
L 617.950393 -348.417738 
L 617.957808 -346.832175 
L 617.965402 -345.246612 
L 617.973869 -343.661049 
L 617.985662 -342.075486 
L 618.004785 -340.489923 
L 618.03783 -338.90436 
L 618.099628 -337.318797 
L 618.232772 -335.733234 
L 618.570504 -334.147671 
L 619.50094 -332.562108 
L 621.939282 -330.976545 
L 627.399136 -329.390982 
L 637.106236 -327.805419 
L 649.905513 -326.219856 
L 660.925726 -324.634293 
L 664.029692 -323.04873 
L 657.07385 -321.463167 
L 644.110978 -319.877604 
L 631.626292 -318.292041 
L 623.437381 -316.706478 
L 619.514195 -315.120915 
z
" style="stroke: #3f3f3f; stroke-width: 1.5"/>
    </defs>
    <g clip-path="url(#p0ff7ab4386)">
     <use xlink:href="#m53435be169" x="0" y="706.610625" style="fill: #e1812c; stroke: #3f3f3f; stroke-width: 1.5"/>
    </g>
   </g>
   <g id="matplotlib.axis_1">
    <g id="xtick_1">
     <g id="line2d_1">
      <defs>
       <path id="m59d15fb196" d="M 0 0 
L 0 3.5 
" style="stroke: #000000; stroke-width: 0.8"/>
      </defs>
      <g>
       <use xlink:href="#m59d15fb196" x="121.443125" y="670.12" style="stroke: #000000; stroke-width: 0.8"/>
      </g>
     </g>
     <g id="text_1">
      <!-- Amplitude -->
      <g transform="translate(99.210313 684.277812) scale(0.1 -0.1)">
       <defs>
        <path id="ArialMT-41" d="M -9 0 
L 1750 4581 
L 2403 4581 
L 4278 0 
L 3588 0 
L 3053 1388 
L 1138 1388 
L 634 0 
L -9 0 
z
M 1313 1881 
L 2866 1881 
L 2388 3150 
Q 2169 3728 2063 4100 
Q 1975 3659 1816 3225 
L 1313 1881 
z
" transform="scale(0.015625)"/>
        <path id="ArialMT-6d" d="M 422 0 
L 422 3319 
L 925 3319 
L 925 2853 
Q 1081 3097 1340 3245 
Q 1600 3394 1931 3394 
Q 2300 3394 2536 3241 
Q 2772 3088 2869 2813 
Q 3263 3394 3894 3394 
Q 4388 3394 4653 3120 
Q 4919 2847 4919 2278 
L 4919 0 
L 4359 0 
L 4359 2091 
Q 4359 2428 4304 2576 
Q 4250 2725 4106 2815 
Q 3963 2906 3769 2906 
Q 3419 2906 3187 2673 
Q 2956 2441 2956 1928 
L 2956 0 
L 2394 0 
L 2394 2156 
Q 2394 2531 2256 2718 
Q 2119 2906 1806 2906 
Q 1569 2906 1367 2781 
Q 1166 2656 1075 2415 
Q 984 2175 984 1722 
L 984 0 
L 422 0 
z
" transform="scale(0.015625)"/>
        <path id="ArialMT-70" d="M 422 -1272 
L 422 3319 
L 934 3319 
L 934 2888 
Q 1116 3141 1344 3267 
Q 1572 3394 1897 3394 
Q 2322 3394 2647 3175 
Q 2972 2956 3137 2557 
Q 3303 2159 3303 1684 
Q 3303 1175 3120 767 
Q 2938 359 2589 142 
Q 2241 -75 1856 -75 
Q 1575 -75 1351 44 
Q 1128 163 984 344 
L 984 -1272 
L 422 -1272 
z
M 931 1641 
Q 931 1000 1190 694 
Q 1450 388 1819 388 
Q 2194 388 2461 705 
Q 2728 1022 2728 1688 
Q 2728 2322 2467 2637 
Q 2206 2953 1844 2953 
Q 1484 2953 1207 2617 
Q 931 2281 931 1641 
z
" transform="scale(0.015625)"/>
        <path id="ArialMT-6c" d="M 409 0 
L 409 4581 
L 972 4581 
L 972 0 
L 409 0 
z
" transform="scale(0.015625)"/>
        <path id="ArialMT-69" d="M 425 3934 
L 425 4581 
L 988 4581 
L 988 3934 
L 425 3934 
z
M 425 0 
L 425 3319 
L 988 3319 
L 988 0 
L 425 0 
z
" transform="scale(0.015625)"/>
        <path id="ArialMT-74" d="M 1650 503 
L 1731 6 
Q 1494 -44 1306 -44 
Q 1000 -44 831 53 
Q 663 150 594 308 
Q 525 466 525 972 
L 525 2881 
L 113 2881 
L 113 3319 
L 525 3319 
L 525 4141 
L 1084 4478 
L 1084 3319 
L 1650 3319 
L 1650 2881 
L 1084 2881 
L 1084 941 
Q 1084 700 1114 631 
Q 1144 563 1211 522 
Q 1278 481 1403 481 
Q 1497 481 1650 503 
z
" transform="scale(0.015625)"/>
        <path id="ArialMT-75" d="M 2597 0 
L 2597 488 
Q 2209 -75 1544 -75 
Q 1250 -75 995 37 
Q 741 150 617 320 
Q 494 491 444 738 
Q 409 903 409 1263 
L 409 3319 
L 972 3319 
L 972 1478 
Q 972 1038 1006 884 
Q 1059 663 1231 536 
Q 1403 409 1656 409 
Q 1909 409 2131 539 
Q 2353 669 2445 892 
Q 2538 1116 2538 1541 
L 2538 3319 
L 3100 3319 
L 3100 0 
L 2597 0 
z
" transform="scale(0.015625)"/>
        <path id="ArialMT-64" d="M 2575 0 
L 2575 419 
Q 2259 -75 1647 -75 
Q 1250 -75 917 144 
Q 584 363 401 755 
Q 219 1147 219 1656 
Q 219 2153 384 2558 
Q 550 2963 881 3178 
Q 1213 3394 1622 3394 
Q 1922 3394 2156 3267 
Q 2391 3141 2538 2938 
L 2538 4581 
L 3097 4581 
L 3097 0 
L 2575 0 
z
M 797 1656 
Q 797 1019 1065 703 
Q 1334 388 1700 388 
Q 2069 388 2326 689 
Q 2584 991 2584 1609 
Q 2584 2291 2321 2609 
Q 2059 2928 1675 2928 
Q 1300 2928 1048 2622 
Q 797 2316 797 1656 
z
" transform="scale(0.015625)"/>
        <path id="ArialMT-65" d="M 2694 1069 
L 3275 997 
Q 3138 488 2766 206 
Q 2394 -75 1816 -75 
Q 1088 -75 661 373 
Q 234 822 234 1631 
Q 234 2469 665 2931 
Q 1097 3394 1784 3394 
Q 2450 3394 2872 2941 
Q 3294 2488 3294 1666 
Q 3294 1616 3291 1516 
L 816 1516 
Q 847 969 1125 678 
Q 1403 388 1819 388 
Q 2128 388 2347 550 
Q 2566 713 2694 1069 
z
M 847 1978 
L 2700 1978 
Q 2663 2397 2488 2606 
Q 2219 2931 1791 2931 
Q 1403 2931 1139 2672 
Q 875 2413 847 1978 
z
" transform="scale(0.015625)"/>
       </defs>
       <use xlink:href="#ArialMT-41"/>
       <use xlink:href="#ArialMT-6d" x="66.699219"/>
       <use xlink:href="#ArialMT-70" x="150"/>
       <use xlink:href="#ArialMT-6c" x="205.615234"/>
       <use xlink:href="#ArialMT-69" x="227.832031"/>
       <use xlink:href="#ArialMT-74" x="250.048828"/>
       <use xlink:href="#ArialMT-75" x="277.832031"/>
       <use xlink:href="#ArialMT-64" x="333.447266"/>
       <use xlink:href="#ArialMT-65" x="389.0625"/>
      </g>
     </g>
    </g>
    <g id="xtick_2">
     <g id="line2d_2">
      <g>
       <use xlink:href="#m59d15fb196" x="286.835625" y="670.12" style="stroke: #000000; stroke-width: 0.8"/>
      </g>
     </g>
     <g id="text_2">
      <!-- Resonance -->
      <g transform="translate(261.541875 684.277812) scale(0.1 -0.1)">
       <defs>
        <path id="ArialMT-52" d="M 503 0 
L 503 4581 
L 2534 4581 
Q 3147 4581 3465 4457 
Q 3784 4334 3975 4021 
Q 4166 3709 4166 3331 
Q 4166 2844 3850 2509 
Q 3534 2175 2875 2084 
Q 3116 1969 3241 1856 
Q 3506 1613 3744 1247 
L 4541 0 
L 3778 0 
L 3172 953 
Q 2906 1366 2734 1584 
Q 2563 1803 2427 1890 
Q 2291 1978 2150 2013 
Q 2047 2034 1813 2034 
L 1109 2034 
L 1109 0 
L 503 0 
z
M 1109 2559 
L 2413 2559 
Q 2828 2559 3062 2645 
Q 3297 2731 3419 2920 
Q 3541 3109 3541 3331 
Q 3541 3656 3305 3865 
Q 3069 4075 2559 4075 
L 1109 4075 
L 1109 2559 
z
" transform="scale(0.015625)"/>
        <path id="ArialMT-73" d="M 197 991 
L 753 1078 
Q 800 744 1014 566 
Q 1228 388 1613 388 
Q 2000 388 2187 545 
Q 2375 703 2375 916 
Q 2375 1106 2209 1216 
Q 2094 1291 1634 1406 
Q 1016 1563 777 1677 
Q 538 1791 414 1992 
Q 291 2194 291 2438 
Q 291 2659 392 2848 
Q 494 3038 669 3163 
Q 800 3259 1026 3326 
Q 1253 3394 1513 3394 
Q 1903 3394 2198 3281 
Q 2494 3169 2634 2976 
Q 2775 2784 2828 2463 
L 2278 2388 
Q 2241 2644 2061 2787 
Q 1881 2931 1553 2931 
Q 1166 2931 1000 2803 
Q 834 2675 834 2503 
Q 834 2394 903 2306 
Q 972 2216 1119 2156 
Q 1203 2125 1616 2013 
Q 2213 1853 2448 1751 
Q 2684 1650 2818 1456 
Q 2953 1263 2953 975 
Q 2953 694 2789 445 
Q 2625 197 2315 61 
Q 2006 -75 1616 -75 
Q 969 -75 630 194 
Q 291 463 197 991 
z
" transform="scale(0.015625)"/>
        <path id="ArialMT-6f" d="M 213 1659 
Q 213 2581 725 3025 
Q 1153 3394 1769 3394 
Q 2453 3394 2887 2945 
Q 3322 2497 3322 1706 
Q 3322 1066 3130 698 
Q 2938 331 2570 128 
Q 2203 -75 1769 -75 
Q 1072 -75 642 372 
Q 213 819 213 1659 
z
M 791 1659 
Q 791 1022 1069 705 
Q 1347 388 1769 388 
Q 2188 388 2466 706 
Q 2744 1025 2744 1678 
Q 2744 2294 2464 2611 
Q 2184 2928 1769 2928 
Q 1347 2928 1069 2612 
Q 791 2297 791 1659 
z
" transform="scale(0.015625)"/>
        <path id="ArialMT-6e" d="M 422 0 
L 422 3319 
L 928 3319 
L 928 2847 
Q 1294 3394 1984 3394 
Q 2284 3394 2536 3286 
Q 2788 3178 2913 3003 
Q 3038 2828 3088 2588 
Q 3119 2431 3119 2041 
L 3119 0 
L 2556 0 
L 2556 2019 
Q 2556 2363 2490 2533 
Q 2425 2703 2258 2804 
Q 2091 2906 1866 2906 
Q 1506 2906 1245 2678 
Q 984 2450 984 1813 
L 984 0 
L 422 0 
z
" transform="scale(0.015625)"/>
        <path id="ArialMT-61" d="M 2588 409 
Q 2275 144 1986 34 
Q 1697 -75 1366 -75 
Q 819 -75 525 192 
Q 231 459 231 875 
Q 231 1119 342 1320 
Q 453 1522 633 1644 
Q 813 1766 1038 1828 
Q 1203 1872 1538 1913 
Q 2219 1994 2541 2106 
Q 2544 2222 2544 2253 
Q 2544 2597 2384 2738 
Q 2169 2928 1744 2928 
Q 1347 2928 1158 2789 
Q 969 2650 878 2297 
L 328 2372 
Q 403 2725 575 2942 
Q 747 3159 1072 3276 
Q 1397 3394 1825 3394 
Q 2250 3394 2515 3294 
Q 2781 3194 2906 3042 
Q 3031 2891 3081 2659 
Q 3109 2516 3109 2141 
L 3109 1391 
Q 3109 606 3145 398 
Q 3181 191 3288 0 
L 2700 0 
Q 2613 175 2588 409 
z
M 2541 1666 
Q 2234 1541 1622 1453 
Q 1275 1403 1131 1340 
Q 988 1278 909 1158 
Q 831 1038 831 891 
Q 831 666 1001 516 
Q 1172 366 1500 366 
Q 1825 366 2078 508 
Q 2331 650 2450 897 
Q 2541 1088 2541 1459 
L 2541 1666 
z
" transform="scale(0.015625)"/>
        <path id="ArialMT-63" d="M 2588 1216 
L 3141 1144 
Q 3050 572 2676 248 
Q 2303 -75 1759 -75 
Q 1078 -75 664 370 
Q 250 816 250 1647 
Q 250 2184 428 2587 
Q 606 2991 970 3192 
Q 1334 3394 1763 3394 
Q 2303 3394 2647 3120 
Q 2991 2847 3088 2344 
L 2541 2259 
Q 2463 2594 2264 2762 
Q 2066 2931 1784 2931 
Q 1359 2931 1093 2626 
Q 828 2322 828 1663 
Q 828 994 1084 691 
Q 1341 388 1753 388 
Q 2084 388 2306 591 
Q 2528 794 2588 1216 
z
" transform="scale(0.015625)"/>
       </defs>
       <use xlink:href="#ArialMT-52"/>
       <use xlink:href="#ArialMT-65" x="72.216797"/>
       <use xlink:href="#ArialMT-73" x="127.832031"/>
       <use xlink:href="#ArialMT-6f" x="177.832031"/>
       <use xlink:href="#ArialMT-6e" x="233.447266"/>
       <use xlink:href="#ArialMT-61" x="289.0625"/>
       <use xlink:href="#ArialMT-6e" x="344.677734"/>
       <use xlink:href="#ArialMT-63" x="400.292969"/>
       <use xlink:href="#ArialMT-65" x="450.292969"/>
      </g>
     </g>
    </g>
    <g id="xtick_3">
     <g id="line2d_3">
      <g>
       <use xlink:href="#m59d15fb196" x="452.228125" y="670.12" style="stroke: #000000; stroke-width: 0.8"/>
      </g>
     </g>
     <g id="text_3">
      <!-- Q-Factor -->
      <g transform="translate(432.505469 684.277812) scale(0.1 -0.1)">
       <defs>
        <path id="ArialMT-51" d="M 3966 491 
Q 4388 200 4744 66 
L 4566 -356 
Q 4072 -178 3581 206 
Q 3072 -78 2456 -78 
Q 1834 -78 1328 222 
Q 822 522 548 1065 
Q 275 1609 275 2291 
Q 275 2969 550 3525 
Q 825 4081 1333 4372 
Q 1841 4663 2469 4663 
Q 3103 4663 3612 4361 
Q 4122 4059 4389 3517 
Q 4656 2975 4656 2294 
Q 4656 1728 4484 1276 
Q 4313 825 3966 491 
z
M 2631 1266 
Q 3156 1119 3497 828 
Q 4031 1316 4031 2294 
Q 4031 2850 3842 3265 
Q 3653 3681 3289 3911 
Q 2925 4141 2472 4141 
Q 1794 4141 1347 3677 
Q 900 3213 900 2291 
Q 900 1397 1342 919 
Q 1784 441 2472 441 
Q 2797 441 3084 563 
Q 2800 747 2484 825 
L 2631 1266 
z
" transform="scale(0.015625)"/>
        <path id="ArialMT-2d" d="M 203 1375 
L 203 1941 
L 1931 1941 
L 1931 1375 
L 203 1375 
z
" transform="scale(0.015625)"/>
        <path id="ArialMT-46" d="M 525 0 
L 525 4581 
L 3616 4581 
L 3616 4041 
L 1131 4041 
L 1131 2622 
L 3281 2622 
L 3281 2081 
L 1131 2081 
L 1131 0 
L 525 0 
z
" transform="scale(0.015625)"/>
        <path id="ArialMT-72" d="M 416 0 
L 416 3319 
L 922 3319 
L 922 2816 
Q 1116 3169 1280 3281 
Q 1444 3394 1641 3394 
Q 1925 3394 2219 3213 
L 2025 2691 
Q 1819 2813 1613 2813 
Q 1428 2813 1281 2702 
Q 1134 2591 1072 2394 
Q 978 2094 978 1738 
L 978 0 
L 416 0 
z
" transform="scale(0.015625)"/>
       </defs>
       <use xlink:href="#ArialMT-51"/>
       <use xlink:href="#ArialMT-2d" x="77.783203"/>
       <use xlink:href="#ArialMT-46" x="111.083984"/>
       <use xlink:href="#ArialMT-61" x="172.167969"/>
       <use xlink:href="#ArialMT-63" x="227.783203"/>
       <use xlink:href="#ArialMT-74" x="277.783203"/>
       <use xlink:href="#ArialMT-6f" x="305.566406"/>
       <use xlink:href="#ArialMT-72" x="361.181641"/>
      </g>
     </g>
    </g>
    <g id="xtick_4">
     <g id="line2d_4">
      <g>
       <use xlink:href="#m59d15fb196" x="617.620625" y="670.12" style="stroke: #000000; stroke-width: 0.8"/>
      </g>
     </g>
     <g id="text_4">
      <!-- Phase -->
      <g transform="translate(603.444062 684.277812) scale(0.1 -0.1)">
       <defs>
        <path id="ArialMT-50" d="M 494 0 
L 494 4581 
L 2222 4581 
Q 2678 4581 2919 4538 
Q 3256 4481 3484 4323 
Q 3713 4166 3852 3881 
Q 3991 3597 3991 3256 
Q 3991 2672 3619 2267 
Q 3247 1863 2275 1863 
L 1100 1863 
L 1100 0 
L 494 0 
z
M 1100 2403 
L 2284 2403 
Q 2872 2403 3119 2622 
Q 3366 2841 3366 3238 
Q 3366 3525 3220 3729 
Q 3075 3934 2838 4000 
Q 2684 4041 2272 4041 
L 1100 4041 
L 1100 2403 
z
" transform="scale(0.015625)"/>
        <path id="ArialMT-68" d="M 422 0 
L 422 4581 
L 984 4581 
L 984 2938 
Q 1378 3394 1978 3394 
Q 2347 3394 2619 3248 
Q 2891 3103 3008 2847 
Q 3125 2591 3125 2103 
L 3125 0 
L 2563 0 
L 2563 2103 
Q 2563 2525 2380 2717 
Q 2197 2909 1863 2909 
Q 1613 2909 1392 2779 
Q 1172 2650 1078 2428 
Q 984 2206 984 1816 
L 984 0 
L 422 0 
z
" transform="scale(0.015625)"/>
       </defs>
       <use xlink:href="#ArialMT-50"/>
       <use xlink:href="#ArialMT-68" x="66.699219"/>
       <use xlink:href="#ArialMT-61" x="122.314453"/>
       <use xlink:href="#ArialMT-73" x="177.929688"/>
       <use xlink:href="#ArialMT-65" x="227.929688"/>
      </g>
     </g>
    </g>
    <g id="text_5">
     <!-- Params -->
     <g transform="translate(352.306094 697.423125) scale(0.1 -0.1)">
      <use xlink:href="#ArialMT-50"/>
      <use xlink:href="#ArialMT-61" x="66.699219"/>
      <use xlink:href="#ArialMT-72" x="122.314453"/>
      <use xlink:href="#ArialMT-61" x="155.615234"/>
      <use xlink:href="#ArialMT-6d" x="211.230469"/>
      <use xlink:href="#ArialMT-73" x="294.53125"/>
     </g>
    </g>
   </g>
   <g id="matplotlib.axis_2">
    <g id="ytick_1">
     <g id="line2d_5">
      <defs>
       <path id="m295ad1d23b" d="M 0 0 
L -3.5 0 
" style="stroke: #000000; stroke-width: 0.8"/>
      </defs>
      <g>
       <use xlink:href="#m295ad1d23b" x="38.746875" y="622.784459" style="stroke: #000000; stroke-width: 0.8"/>
      </g>
     </g>
     <g id="text_6">
      <!-- 6 -->
      <g transform="translate(20.345313 626.363365) scale(0.1 -0.1)">
       <defs>
        <path id="ArialMT-2212" d="M 3381 1997 
L 356 1997 
L 356 2522 
L 3381 2522 
L 3381 1997 
z
" transform="scale(0.015625)"/>
        <path id="ArialMT-36" d="M 3184 3459 
L 2625 3416 
Q 2550 3747 2413 3897 
Q 2184 4138 1850 4138 
Q 1581 4138 1378 3988 
Q 1113 3794 959 3422 
Q 806 3050 800 2363 
Q 1003 2672 1297 2822 
Q 1591 2972 1913 2972 
Q 2475 2972 2870 2558 
Q 3266 2144 3266 1488 
Q 3266 1056 3080 686 
Q 2894 316 2569 119 
Q 2244 -78 1831 -78 
Q 1128 -78 684 439 
Q 241 956 241 2144 
Q 241 3472 731 4075 
Q 1159 4600 1884 4600 
Q 2425 4600 2770 4297 
Q 3116 3994 3184 3459 
z
M 888 1484 
Q 888 1194 1011 928 
Q 1134 663 1356 523 
Q 1578 384 1822 384 
Q 2178 384 2434 671 
Q 2691 959 2691 1453 
Q 2691 1928 2437 2201 
Q 2184 2475 1800 2475 
Q 1419 2475 1153 2201 
Q 888 1928 888 1484 
z
" transform="scale(0.015625)"/>
       </defs>
       <use xlink:href="#ArialMT-2212"/>
       <use xlink:href="#ArialMT-36" x="58.398438"/>
      </g>
     </g>
    </g>
    <g id="ytick_2">
     <g id="line2d_6">
      <g>
       <use xlink:href="#m295ad1d23b" x="38.746875" y="519.081298" style="stroke: #000000; stroke-width: 0.8"/>
      </g>
     </g>
     <g id="text_7">
      <!-- 4 -->
      <g transform="translate(20.345313 522.660204) scale(0.1 -0.1)">
       <defs>
        <path id="ArialMT-34" d="M 2069 0 
L 2069 1097 
L 81 1097 
L 81 1613 
L 2172 4581 
L 2631 4581 
L 2631 1613 
L 3250 1613 
L 3250 1097 
L 2631 1097 
L 2631 0 
L 2069 0 
z
M 2069 1613 
L 2069 3678 
L 634 1613 
L 2069 1613 
z
" transform="scale(0.015625)"/>
       </defs>
       <use xlink:href="#ArialMT-2212"/>
       <use xlink:href="#ArialMT-34" x="58.398438"/>
      </g>
     </g>
    </g>
    <g id="ytick_3">
     <g id="line2d_7">
      <g>
       <use xlink:href="#m295ad1d23b" x="38.746875" y="415.378137" style="stroke: #000000; stroke-width: 0.8"/>
      </g>
     </g>
     <g id="text_8">
      <!-- 2 -->
      <g transform="translate(20.345313 418.957043) scale(0.1 -0.1)">
       <defs>
        <path id="ArialMT-32" d="M 3222 541 
L 3222 0 
L 194 0 
Q 188 203 259 391 
Q 375 700 629 1000 
Q 884 1300 1366 1694 
Q 2113 2306 2375 2664 
Q 2638 3022 2638 3341 
Q 2638 3675 2398 3904 
Q 2159 4134 1775 4134 
Q 1369 4134 1125 3890 
Q 881 3647 878 3216 
L 300 3275 
Q 359 3922 746 4261 
Q 1134 4600 1788 4600 
Q 2447 4600 2831 4234 
Q 3216 3869 3216 3328 
Q 3216 3053 3103 2787 
Q 2991 2522 2730 2228 
Q 2469 1934 1863 1422 
Q 1356 997 1212 845 
Q 1069 694 975 541 
L 3222 541 
z
" transform="scale(0.015625)"/>
       </defs>
       <use xlink:href="#ArialMT-2212"/>
       <use xlink:href="#ArialMT-32" x="58.398438"/>
      </g>
     </g>
    </g>
    <g id="ytick_4">
     <g id="line2d_8">
      <g>
       <use xlink:href="#m295ad1d23b" x="38.746875" y="311.674976" style="stroke: #000000; stroke-width: 0.8"/>
      </g>
     </g>
     <g id="text_9">
      <!-- 0 -->
      <g transform="translate(26.185938 315.253883) scale(0.1 -0.1)">
       <defs>
        <path id="ArialMT-30" d="M 266 2259 
Q 266 3072 433 3567 
Q 600 4063 929 4331 
Q 1259 4600 1759 4600 
Q 2128 4600 2406 4451 
Q 2684 4303 2865 4023 
Q 3047 3744 3150 3342 
Q 3253 2941 3253 2259 
Q 3253 1453 3087 958 
Q 2922 463 2592 192 
Q 2263 -78 1759 -78 
Q 1097 -78 719 397 
Q 266 969 266 2259 
z
M 844 2259 
Q 844 1131 1108 757 
Q 1372 384 1759 384 
Q 2147 384 2411 759 
Q 2675 1134 2675 2259 
Q 2675 3391 2411 3762 
Q 2147 4134 1753 4134 
Q 1366 4134 1134 3806 
Q 844 3388 844 2259 
z
" transform="scale(0.015625)"/>
       </defs>
       <use xlink:href="#ArialMT-30"/>
      </g>
     </g>
    </g>
    <g id="ytick_5">
     <g id="line2d_9">
      <g>
       <use xlink:href="#m295ad1d23b" x="38.746875" y="207.971815" style="stroke: #000000; stroke-width: 0.8"/>
      </g>
     </g>
     <g id="text_10">
      <!-- 2 -->
      <g transform="translate(26.185938 211.550722) scale(0.1 -0.1)">
       <use xlink:href="#ArialMT-32"/>
      </g>
     </g>
    </g>
    <g id="ytick_6">
     <g id="line2d_10">
      <g>
       <use xlink:href="#m295ad1d23b" x="38.746875" y="104.268654" style="stroke: #000000; stroke-width: 0.8"/>
      </g>
     </g>
     <g id="text_11">
      <!-- 4 -->
      <g transform="translate(26.185938 107.847561) scale(0.1 -0.1)">
       <use xlink:href="#ArialMT-34"/>
      </g>
     </g>
    </g>
    <g id="text_12">
     <!-- Normalized Params -->
     <g transform="translate(14.357813 382.559219) rotate(-90) scale(0.1 -0.1)">
      <defs>
       <path id="ArialMT-4e" d="M 488 0 
L 488 4581 
L 1109 4581 
L 3516 984 
L 3516 4581 
L 4097 4581 
L 4097 0 
L 3475 0 
L 1069 3600 
L 1069 0 
L 488 0 
z
" transform="scale(0.015625)"/>
       <path id="ArialMT-7a" d="M 125 0 
L 125 456 
L 2238 2881 
Q 1878 2863 1603 2863 
L 250 2863 
L 250 3319 
L 2963 3319 
L 2963 2947 
L 1166 841 
L 819 456 
Q 1197 484 1528 484 
L 3063 484 
L 3063 0 
L 125 0 
z
" transform="scale(0.015625)"/>
       <path id="ArialMT-20" transform="scale(0.015625)"/>
      </defs>
      <use xlink:href="#ArialMT-4e"/>
      <use xlink:href="#ArialMT-6f" x="72.216797"/>
      <use xlink:href="#ArialMT-72" x="127.832031"/>
      <use xlink:href="#ArialMT-6d" x="161.132812"/>
      <use xlink:href="#ArialMT-61" x="244.433594"/>
      <use xlink:href="#ArialMT-6c" x="300.048828"/>
      <use xlink:href="#ArialMT-69" x="322.265625"/>
      <use xlink:href="#ArialMT-7a" x="344.482422"/>
      <use xlink:href="#ArialMT-65" x="394.482422"/>
      <use xlink:href="#ArialMT-64" x="450.097656"/>
      <use xlink:href="#ArialMT-20" x="505.712891"/>
      <use xlink:href="#ArialMT-50" x="533.496094"/>
      <use xlink:href="#ArialMT-61" x="600.195312"/>
      <use xlink:href="#ArialMT-72" x="655.810547"/>
      <use xlink:href="#ArialMT-61" x="689.111328"/>
      <use xlink:href="#ArialMT-6d" x="744.726562"/>
      <use xlink:href="#ArialMT-73" x="828.027344"/>
     </g>
    </g>
   </g>
   <g id="line2d_11">
    <path d="M 78.739775 349.998169 
L 121.443125 349.998169 
" clip-path="url(#p0ff7ab4386)" style="fill: none; stroke-dasharray: 3.375,3.375; stroke-dashoffset: 0; stroke: #3f3f3f; stroke-width: 1.5"/>
   </g>
   <g id="line2d_12">
    <path d="M 65.557366 305.590253 
L 121.443125 305.590253 
" clip-path="url(#p0ff7ab4386)" style="fill: none; stroke-dasharray: 6.75,6.75; stroke-dashoffset: 0; stroke: #3f3f3f; stroke-width: 1.5"/>
   </g>
   <g id="line2d_13">
    <path d="M 58.44215 270.055735 
L 121.443125 270.055735 
" clip-path="url(#p0ff7ab4386)" style="fill: none; stroke-dasharray: 3.375,3.375; stroke-dashoffset: 0; stroke: #3f3f3f; stroke-width: 1.5"/>
   </g>
   <g id="line2d_14">
    <path d="M 121.443125 351.018335 
L 164.895487 351.018335 
" clip-path="url(#p0ff7ab4386)" style="fill: none; stroke-dasharray: 3.375,3.375; stroke-dashoffset: 0; stroke: #3f3f3f; stroke-width: 1.5"/>
   </g>
   <g id="line2d_15">
    <path d="M 121.443125 306.872154 
L 181.912075 306.872154 
" clip-path="url(#p0ff7ab4386)" style="fill: none; stroke-dasharray: 6.75,6.75; stroke-dashoffset: 0; stroke: #3f3f3f; stroke-width: 1.5"/>
   </g>
   <g id="line2d_16">
    <path d="M 121.443125 271.826352 
L 184.134409 271.826352 
" clip-path="url(#p0ff7ab4386)" style="fill: none; stroke-dasharray: 3.375,3.375; stroke-dashoffset: 0; stroke: #3f3f3f; stroke-width: 1.5"/>
   </g>
   <g id="line2d_17">
    <path d="M 252.542082 329.411011 
L 286.835625 329.411011 
" clip-path="url(#p0ff7ab4386)" style="fill: none; stroke-dasharray: 3.375,3.375; stroke-dashoffset: 0; stroke: #3f3f3f; stroke-width: 1.5"/>
   </g>
   <g id="line2d_18">
    <path d="M 235.980114 297.432802 
L 286.835625 297.432802 
" clip-path="url(#p0ff7ab4386)" style="fill: none; stroke-dasharray: 6.75,6.75; stroke-dashoffset: 0; stroke: #3f3f3f; stroke-width: 1.5"/>
   </g>
   <g id="line2d_19">
    <path d="M 224.147206 275.897519 
L 286.835625 275.897519 
" clip-path="url(#p0ff7ab4386)" style="fill: none; stroke-dasharray: 3.375,3.375; stroke-dashoffset: 0; stroke: #3f3f3f; stroke-width: 1.5"/>
   </g>
   <g id="line2d_20">
    <path d="M 286.835625 333.906591 
L 315.858423 333.906591 
" clip-path="url(#p0ff7ab4386)" style="fill: none; stroke-dasharray: 3.375,3.375; stroke-dashoffset: 0; stroke: #3f3f3f; stroke-width: 1.5"/>
   </g>
   <g id="line2d_21">
    <path d="M 286.835625 297.800079 
L 335.893529 297.800079 
" clip-path="url(#p0ff7ab4386)" style="fill: none; stroke-dasharray: 6.75,6.75; stroke-dashoffset: 0; stroke: #3f3f3f; stroke-width: 1.5"/>
   </g>
   <g id="line2d_22">
    <path d="M 286.835625 275.237056 
L 352.031483 275.237056 
" clip-path="url(#p0ff7ab4386)" style="fill: none; stroke-dasharray: 3.375,3.375; stroke-dashoffset: 0; stroke: #3f3f3f; stroke-width: 1.5"/>
   </g>
   <g id="line2d_23">
    <path d="M 392.793097 319.12144 
L 452.228125 319.12144 
" clip-path="url(#p0ff7ab4386)" style="fill: none; stroke-dasharray: 3.375,3.375; stroke-dashoffset: 0; stroke: #3f3f3f; stroke-width: 1.5"/>
   </g>
   <g id="line2d_24">
    <path d="M 397.531813 313.146316 
L 452.228125 313.146316 
" clip-path="url(#p0ff7ab4386)" style="fill: none; stroke-dasharray: 6.75,6.75; stroke-dashoffset: 0; stroke: #3f3f3f; stroke-width: 1.5"/>
   </g>
   <g id="line2d_25">
    <path d="M 396.917954 306.177902 
L 452.228125 306.177902 
" clip-path="url(#p0ff7ab4386)" style="fill: none; stroke-dasharray: 3.375,3.375; stroke-dashoffset: 0; stroke: #3f3f3f; stroke-width: 1.5"/>
   </g>
   <g id="line2d_26">
    <path d="M 452.228125 330.218092 
L 514.057772 330.218092 
" clip-path="url(#p0ff7ab4386)" style="fill: none; stroke-dasharray: 3.375,3.375; stroke-dashoffset: 0; stroke: #3f3f3f; stroke-width: 1.5"/>
   </g>
   <g id="line2d_27">
    <path d="M 452.228125 320.733116 
L 517.72346 320.733116 
" clip-path="url(#p0ff7ab4386)" style="fill: none; stroke-dasharray: 6.75,6.75; stroke-dashoffset: 0; stroke: #3f3f3f; stroke-width: 1.5"/>
   </g>
   <g id="line2d_28">
    <path d="M 452.228125 310.162794 
L 504.835638 310.162794 
" clip-path="url(#p0ff7ab4386)" style="fill: none; stroke-dasharray: 3.375,3.375; stroke-dashoffset: 0; stroke: #3f3f3f; stroke-width: 1.5"/>
   </g>
   <g id="line2d_29">
    <path d="M 565.023435 312.667038 
L 617.620625 312.667038 
" clip-path="url(#p0ff7ab4386)" style="fill: none; stroke-dasharray: 3.375,3.375; stroke-dashoffset: 0; stroke: #3f3f3f; stroke-width: 1.5"/>
   </g>
   <g id="line2d_30">
    <path d="M 568.134173 243.060398 
L 617.620625 243.060398 
" clip-path="url(#p0ff7ab4386)" style="fill: none; stroke-dasharray: 6.75,6.75; stroke-dashoffset: 0; stroke: #3f3f3f; stroke-width: 1.5"/>
   </g>
   <g id="line2d_31">
    <path d="M 553.069369 240.361814 
L 617.620625 240.361814 
" clip-path="url(#p0ff7ab4386)" style="fill: none; stroke-dasharray: 3.375,3.375; stroke-dashoffset: 0; stroke: #3f3f3f; stroke-width: 1.5"/>
   </g>
   <g id="line2d_32">
    <path d="M 617.620625 380.003316 
L 649.582664 380.003316 
" clip-path="url(#p0ff7ab4386)" style="fill: none; stroke-dasharray: 3.375,3.375; stroke-dashoffset: 0; stroke: #3f3f3f; stroke-width: 1.5"/>
   </g>
   <g id="line2d_33">
    <path d="M 617.620625 313.250142 
L 683.11596 313.250142 
" clip-path="url(#p0ff7ab4386)" style="fill: none; stroke-dasharray: 6.75,6.75; stroke-dashoffset: 0; stroke: #3f3f3f; stroke-width: 1.5"/>
   </g>
   <g id="line2d_34">
    <path d="M 617.620625 243.501648 
L 662.005015 243.501648 
" clip-path="url(#p0ff7ab4386)" style="fill: none; stroke-dasharray: 3.375,3.375; stroke-dashoffset: 0; stroke: #3f3f3f; stroke-width: 1.5"/>
   </g>
   <g id="patch_5">
    <path d="M 38.746875 670.12 
L 38.746875 7.2 
" style="fill: none; stroke: #000000; stroke-width: 0.8; stroke-linejoin: miter; stroke-linecap: square"/>
   </g>
   <g id="patch_6">
    <path d="M 700.316875 670.12 
L 700.316875 7.2 
" style="fill: none; stroke: #000000; stroke-width: 0.8; stroke-linejoin: miter; stroke-linecap: square"/>
   </g>
   <g id="patch_7">
    <path d="M 38.746875 670.12 
L 700.316875 670.12 
" style="fill: none; stroke: #000000; stroke-width: 0.8; stroke-linejoin: miter; stroke-linecap: square"/>
   </g>
   <g id="patch_8">
    <path d="M 38.746875 7.2 
L 700.316875 7.2 
" style="fill: none; stroke: #000000; stroke-width: 0.8; stroke-linejoin: miter; stroke-linecap: square"/>
   </g>
   <g id="legend_1">
    <g id="patch_9">
     <path d="M 635.199687 57.753125 
L 693.316875 57.753125 
Q 695.316875 57.753125 695.316875 55.753125 
L 695.316875 14.2 
Q 695.316875 12.2 693.316875 12.2 
L 635.199687 12.2 
Q 633.199687 12.2 633.199687 14.2 
L 633.199687 55.753125 
Q 633.199687 57.753125 635.199687 57.753125 
z
" style="fill: #ffffff; opacity: 0.8; stroke: #cccccc; stroke-linejoin: miter"/>
    </g>
    <g id="text_13">
     <!-- Fit Type -->
     <g transform="translate(646.562969 23.357812) scale(0.1 -0.1)">
      <defs>
       <path id="ArialMT-54" d="M 1659 0 
L 1659 4041 
L 150 4041 
L 150 4581 
L 3781 4581 
L 3781 4041 
L 2266 4041 
L 2266 0 
L 1659 0 
z
" transform="scale(0.015625)"/>
       <path id="ArialMT-79" d="M 397 -1278 
L 334 -750 
Q 519 -800 656 -800 
Q 844 -800 956 -737 
Q 1069 -675 1141 -563 
Q 1194 -478 1313 -144 
Q 1328 -97 1363 -6 
L 103 3319 
L 709 3319 
L 1400 1397 
Q 1534 1031 1641 628 
Q 1738 1016 1872 1384 
L 2581 3319 
L 3144 3319 
L 1881 -56 
Q 1678 -603 1566 -809 
Q 1416 -1088 1222 -1217 
Q 1028 -1347 759 -1347 
Q 597 -1347 397 -1278 
z
" transform="scale(0.015625)"/>
      </defs>
      <use xlink:href="#ArialMT-46"/>
      <use xlink:href="#ArialMT-69" x="61.083984"/>
      <use xlink:href="#ArialMT-74" x="83.300781"/>
      <use xlink:href="#ArialMT-20" x="111.083984"/>
      <use xlink:href="#ArialMT-54" x="137.117188"/>
      <use xlink:href="#ArialMT-79" x="192.701172"/>
      <use xlink:href="#ArialMT-70" x="242.701172"/>
      <use xlink:href="#ArialMT-65" x="298.316406"/>
     </g>
    </g>
    <g id="patch_10">
     <path d="M 637.199687 37.620312 
L 657.199687 37.620312 
L 657.199687 30.620312 
L 637.199687 30.620312 
z
" style="fill: #3274a1; stroke: #3f3f3f; stroke-width: 0.75; stroke-linejoin: miter"/>
    </g>
    <g id="text_14">
     <!-- NN -->
     <g transform="translate(665.199687 37.620312) scale(0.1 -0.1)">
      <use xlink:href="#ArialMT-4e"/>
      <use xlink:href="#ArialMT-4e" x="72.216797"/>
     </g>
    </g>
    <g id="patch_11">
     <path d="M 637.199687 51.765625 
L 657.199687 51.765625 
L 657.199687 44.765625 
L 637.199687 44.765625 
z
" style="fill: #e1812c; stroke: #3f3f3f; stroke-width: 0.75; stroke-linejoin: miter"/>
    </g>
    <g id="text_15">
     <!-- LSQF -->
     <g transform="translate(665.199687 51.765625) scale(0.1 -0.1)">
      <defs>
       <path id="ArialMT-4c" d="M 469 0 
L 469 4581 
L 1075 4581 
L 1075 541 
L 3331 541 
L 3331 0 
L 469 0 
z
" transform="scale(0.015625)"/>
       <path id="ArialMT-53" d="M 288 1472 
L 859 1522 
Q 900 1178 1048 958 
Q 1197 738 1509 602 
Q 1822 466 2213 466 
Q 2559 466 2825 569 
Q 3091 672 3220 851 
Q 3350 1031 3350 1244 
Q 3350 1459 3225 1620 
Q 3100 1781 2813 1891 
Q 2628 1963 1997 2114 
Q 1366 2266 1113 2400 
Q 784 2572 623 2826 
Q 463 3081 463 3397 
Q 463 3744 659 4045 
Q 856 4347 1234 4503 
Q 1613 4659 2075 4659 
Q 2584 4659 2973 4495 
Q 3363 4331 3572 4012 
Q 3781 3694 3797 3291 
L 3216 3247 
Q 3169 3681 2898 3903 
Q 2628 4125 2100 4125 
Q 1550 4125 1298 3923 
Q 1047 3722 1047 3438 
Q 1047 3191 1225 3031 
Q 1400 2872 2139 2705 
Q 2878 2538 3153 2413 
Q 3553 2228 3743 1945 
Q 3934 1663 3934 1294 
Q 3934 928 3725 604 
Q 3516 281 3123 101 
Q 2731 -78 2241 -78 
Q 1619 -78 1198 103 
Q 778 284 539 648 
Q 300 1013 288 1472 
z
" transform="scale(0.015625)"/>
      </defs>
      <use xlink:href="#ArialMT-4c"/>
      <use xlink:href="#ArialMT-53" x="55.615234"/>
      <use xlink:href="#ArialMT-51" x="122.314453"/>
      <use xlink:href="#ArialMT-46" x="200.097656"/>
     </g>
    </g>
   </g>
  </g>
 </g>
 <defs>
  <clipPath id="p0ff7ab4386">
   <rect x="38.746875" y="7.2" width="661.57" height="662.92"/>
  </clipPath>
 </defs>
</svg>
